<svg id="Layer_1" enable-background="new 0 0 64 64" height="512" viewBox="0 0 64 64" width="512" xmlns="http://www.w3.org/2000/svg"><path d="m52 51h-40c-.552 0-1-.448-1-1s.448-1 1-1h40c.553 0 1 .448 1 1s-.447 1-1 1z"/><path d="m52 57h-40c-.552 0-1-.448-1-1s.448-1 1-1h40c.553 0 1 .448 1 1s-.447 1-1 1z"/><path d="m31.931 17.245c-.713 0-1.423-.131-2.119-.397-3.603-1.378-5.608-5.068-7.204-8.417-.237-.499-.026-1.095.473-1.333.497-.236 1.095-.026 1.333.473 1.43 3 3.199 6.295 6.113 7.41 2.72 1.04 5.058-1.193 6.21-2.618 1.218-1.505 2.124-3.267 2.85-4.792.238-.498.832-.711 1.333-.473.499.237.711.834.474 1.333-.777 1.63-1.753 3.522-3.102 5.189-1.922 2.373-4.156 3.625-6.361 3.625z"/><path d="m52 24.498c-.11 0-.223-.019-.332-.058-2.905-1.024-5.214-3.238-6.334-6.076-1.043-2.641-.962-5.503-.884-8.27.02-.708.04-1.408.039-2.093-.001-.552.446-1 .999-1.001h.001c.552 0 .999.447 1 .999.001.703-.02 1.423-.04 2.151-.072 2.566-.147 5.22.744 7.479.908 2.298 2.781 4.093 5.139 4.925.521.184.795.754.611 1.275-.145.412-.531.669-.943.669z"/><path d="m12 24.498c-.412 0-.798-.257-.943-.667-.184-.521.089-1.092.61-1.276 2.366-.836 4.239-2.63 5.137-4.923.89-2.27.816-4.925.745-7.493-.02-.723-.039-1.439-.039-2.139 0-.552.448-.999 1-.999.553 0 1 .449 1 1.001 0 .682.019 1.378.039 2.083.077 2.768.156 5.63-.882 8.278-1.111 2.833-3.419 5.048-6.333 6.078-.111.038-.224.057-.334.057z"/><path d="m12 57c-.552 0-1-.448-1-1v-32.502c0-.552.448-1 1-1s1 .448 1 1v32.502c0 .553-.448 1-1 1z"/><path d="m52 34.498c-.553 0-1-.448-1-1v-10c0-.552.447-1 1-1s1 .448 1 1v10c0 .552-.447 1-1 1z"/><path d="m52 40.498c-.553 0-1-.448-1-1v-2c0-.552.447-1 1-1s1 .448 1 1v2c0 .552-.447 1-1 1z"/><path d="m52 57c-.553 0-1-.448-1-1v-12.502c0-.552.447-1 1-1s1 .448 1 1v12.502c0 .553-.447 1-1 1z"/><path d="m45.489 9h-5c-.553 0-1-.448-1-1s.447-1 1-1h5c.553 0 1 .448 1 1s-.447 1-1 1z"/><path d="m23.51 9h-5c-.552 0-1-.448-1-1s.448-1 1-1h5c.552 0 1 .448 1 1s-.447 1-1 1z"/></svg>