<svg id="Layer_1" enable-background="new 0 0 64 64" height="512" viewBox="0 0 64 64" width="512" xmlns="http://www.w3.org/2000/svg"><path d="m36 41.542c-.552 0-.999-.446-1-.998-.003-1.23-.82-2.205-1.768-3.334-1.048-1.249-2.236-2.665-2.232-4.627.001-.552.448-.998 1-.998h.002c.552.001.999.449.998 1.002-.002 1.231.816 2.208 1.765 3.338 1.046 1.246 2.231 2.659 2.235 4.615.001.553-.445 1.001-.998 1.002-.001 0-.001 0-.002 0z"/><path d="m28 41.542c-.552 0-.999-.446-1-.998-.004-1.962 1.185-3.378 2.232-4.628.947-1.128 1.765-2.103 1.768-3.333.001-.552.448-.998 1-.998h.002c.553.001.999.449.998 1.002-.004 1.956-1.189 3.369-2.235 4.615-.948 1.13-1.767 2.106-1.765 3.338.001.553-.446 1.001-.998 1.002-.001 0-.001 0-.002 0z"/><path d="m32 45.542c-2.71 0-5-2.289-5-5 0-.552.447-1 1-1s1 .448 1 1c0 1.626 1.374 3 3 3s3-1.374 3-3c0-.552.447-1 1-1s1 .448 1 1c0 2.711-2.29 5-5 5z"/><path d="m34 14.182c-.553 0-1-.447-1-1v-3.237c0-.553.447-1 1-1s1 .447 1 1v3.236c0 .553-.447 1.001-1 1.001z"/><path d="m30 14.182c-.553 0-1-.447-1-1v-3.237c0-.553.447-1 1-1s1 .447 1 1v3.236c0 .553-.447 1.001-1 1.001z"/><path d="m34 10.945c-.553 0-1-.448-1-1 0-.89-.833-.935-1-.935s-1 .045-1 .935c0 .552-.447 1-1 1s-1-.448-1-1c0-3.854 6-3.854 6 0 0 .552-.447 1-1 1z"/><path d="m43 34.651c-.553 0-1-.447-1-1v-3.561c0-.552.447-1 1-1s1 .448 1 1v3.562c0 .552-.447.999-1 .999z"/><path d="m43 40.651c-.553 0-1-.447-1-1v-2c0-.552.447-1 1-1s1 .448 1 1v2c0 .553-.447 1-1 1z"/><path d="m43 52.945c-.553 0-1-.448-1-1v-8.294c0-.552.447-1 1-1s1 .448 1 1v8.294c0 .552-.447 1-1 1z"/><path d="m43 48.037h-22c-.553 0-1-.448-1-1 0-.553.447-1 1-1h22c.553 0 1 .447 1 1 0 .552-.447 1-1 1z"/><path d="m43 31.09h-22c-.553 0-1-.447-1-1 0-.552.447-1 1-1h22c.553 0 1 .448 1 1 0 .553-.447 1-1 1z"/><path d="m43 31.09c-.553 0-1-.447-1-1 0-3.753-1.336-7.397-3.763-10.262-.357-.421-.305-1.053.116-1.409.424-.358 1.055-.304 1.409.116 2.733 3.226 4.238 7.329 4.238 11.555 0 .553-.447 1-1 1z"/><path d="m21 31.09c-.553 0-1-.447-1-1 0-4.227 1.505-8.33 4.237-11.555.355-.42.987-.475 1.409-.116.421.357.474.988.116 1.409-2.426 2.863-3.762 6.508-3.762 10.262 0 .553-.447 1-1 1z"/><path d="m21 52.945c-.553 0-1-.448-1-1v-21.855c0-.552.447-1 1-1s1 .448 1 1v21.855c0 .552-.447 1-1 1z"/><path d="m43 20.182h-22c-.553 0-1-.447-1-1 0-.552.447-1 1-1h22c.553 0 1 .448 1 1s-.447 1-1 1z"/><path d="m39 14.182h-14c-.553 0-1-.447-1-1 0-.552.447-1 1-1h14c.553 0 1 .448 1 1s-.447 1-1 1z"/><path d="m43.001 20.182c-.323 0-.641-.156-.833-.445l-4-6c-.307-.459-.183-1.08.277-1.387.46-.308 1.08-.182 1.387.277l4 6c.307.46.183 1.081-.277 1.387-.171.114-.364.168-.554.168z"/><path d="m20.999 20.182c-.19 0-.383-.054-.554-.168-.46-.306-.584-.927-.277-1.387l4-6c.306-.459.925-.585 1.387-.277.46.307.584.928.277 1.387l-4 6c-.192.288-.51.445-.833.445z"/><path d="m39 56.945h-14c-.553 0-1-.448-1-1 0-.553.447-1 1-1h14c.553 0 1 .447 1 1 0 .552-.447 1-1 1z"/><path d="m39 56.945c-.553 0-1-.448-1-1 0-.553.447-1 1-1 1.654 0 3-1.346 3-3 0-.553.447-1 1-1s1 .447 1 1c0 2.757-2.243 5-5 5z"/><path d="m25 56.945c-2.757 0-5-2.243-5-5 0-.553.447-1 1-1s1 .447 1 1c0 1.654 1.346 3 3 3 .553 0 1 .447 1 1 0 .552-.447 1-1 1z"/></svg>