<svg id="Layer_1" enable-background="new 0 0 64 64" height="512" viewBox="0 0 64 64" width="512" xmlns="http://www.w3.org/2000/svg"><g><path d="m27 25h-10c-.553 0-1-.448-1-1s.447-1 1-1h10c.553 0 1 .448 1 1s-.447 1-1 1z"/><path d="m27 41h-10c-.553 0-1-.448-1-1s.447-1 1-1h10c.553 0 1 .448 1 1s-.447 1-1 1z"/><path d="m27 41c-.553 0-1-.806-1-1.8v-14.4c0-.994.447-1.8 1-1.8s1 .806 1 1.8v14.4c0 .994-.447 1.8-1 1.8z"/><path d="m17 41c-.553 0-1-.806-1-1.8v-14.4c0-.994.447-1.8 1-1.8s1 .806 1 1.8v14.4c0 .994-.447 1.8-1 1.8z"/></g><g><path d="m47.029 25h-10c-.553 0-1-.448-1-1s.447-1 1-1h10c.553 0 1 .448 1 1s-.447 1-1 1z"/><path d="m47.029 41h-10c-.553 0-1-.448-1-1s.447-1 1-1h10c.553 0 1 .448 1 1s-.447 1-1 1z"/><path d="m47.029 41c-.553 0-1-.806-1-1.8v-14.4c0-.994.447-1.8 1-1.8s1 .806 1 1.8v14.4c0 .994-.447 1.8-1 1.8z"/><path d="m37.029 41c-.553 0-1-.806-1-1.8v-14.4c0-.994.447-1.8 1-1.8s1 .806 1 1.8v14.4c0 .994-.447 1.8-1 1.8z"/></g><path d="m52 34c-.553 0-1-.448-1-1v-2c0-.552.447-1 1-1s1 .448 1 1v2c0 .552-.447 1-1 1z"/><path d="m52 28c-.553 0-1-.448-1-1v-9c0-.552.447-1 1-1s1 .448 1 1v9c0 .552-.447 1-1 1z"/><path d="m52 47c-.553 0-1-.448-1-1v-9c0-.552.447-1 1-1s1 .448 1 1v9c0 .552-.447 1-1 1z"/><path d="m32 47c-.553 0-1-.448-1-1v-28c0-.552.447-1 1-1s1 .448 1 1v28c0 .552-.447 1-1 1z"/><path d="m56 53h-48c-.553 0-1-.448-1-1v-6c0-.552.447-1 1-1h48c.553 0 1 .448 1 1v6c0 .552-.447 1-1 1zm-47-2h46v-4h-46z"/><path d="m12 47c-.553 0-1-.448-1-1v-28c0-.552.447-1 1-1s1 .448 1 1v28c0 .552-.447 1-1 1z"/><path d="m56 19h-48c-.553 0-1-.448-1-1v-6c0-.552.447-1 1-1h48c.553 0 1 .448 1 1v6c0 .552-.447 1-1 1zm-47-2h46v-4h-46z"/></svg>