<svg id="Layer_1" enable-background="new 0 0 64 64" height="512" viewBox="0 0 64 64" width="512" xmlns="http://www.w3.org/2000/svg"><path d="m32.476 35.073c-.527 0-.968-.412-.997-.944-.31-5.611 3.651-10.449 9.212-11.253.554-.079 1.055.3 1.133.847.079.546-.3 1.054-.846 1.133-4.529.654-7.754 4.594-7.503 9.163.031.552-.392 1.023-.943 1.054-.019 0-.038 0-.056 0z"/><path d="m43.631 44.206c-.489 0-.917-.358-.988-.856-.079-.547.3-1.054.846-1.133 4.529-.655 7.754-4.595 7.503-9.163-.032-.552.391-1.024.943-1.054.539-.039 1.022.392 1.053.943.31 5.61-3.651 10.448-9.212 11.253-.049.007-.098.01-.145.01z"/><path d="m51.641 23.554c-1.987 0-4-1.34-4-3.901s2.013-3.902 4-3.902 4 1.341 4 3.902-2.013 3.901-4 3.901zm0-5.804c-.923 0-2 .498-2 1.902 0 1.403 1.077 1.901 2 1.901s2-.498 2-1.901c0-1.404-1.078-1.902-2-1.902z"/><path d="m42.284 48.25c-.774 0-1.553-.06-2.328-.182-4.041-.634-7.653-2.89-9.912-6.189-2.736-3.998-3.276-9.14-1.444-13.754 1.832-4.618 5.753-7.991 10.488-9.025 4.774-1.042 9.766.419 13.357 3.905 3.597 3.492 5.207 8.445 4.306 13.251-.102.542-.616.9-1.167.799-.542-.102-.9-.624-.798-1.167.776-4.145-.62-8.424-3.734-11.447-3.11-3.02-7.42-4.285-11.538-3.387-4.083.892-7.469 3.811-9.056 7.809-1.585 3.996-1.123 8.439 1.236 11.887 1.948 2.847 5.073 4.795 8.572 5.344 3.496.549 7.063-.35 9.791-2.464.436-.338 1.063-.259 1.402.178s.259 1.065-.178 1.403c-2.552 1.978-5.738 3.039-8.997 3.039z"/><path d="m53.433 42.548c-.201 0-.404-.061-.58-.187-.45-.321-.554-.946-.232-1.396.359-.503.685-1.035.967-1.582.253-.492.855-.685 1.347-.431.491.253.684.856.431 1.348-.326.632-.702 1.247-1.117 1.828-.197.274-.504.42-.816.42z"/><path d="m18.126 22.765c-.553 0-1-.447-1-1v-2c0-.552.447-1 1-1s1 .448 1 1v2c0 .552-.447 1-1 1z"/><path d="m24.126 22.765c-.553 0-1-.447-1-1v-2c0-.552.447-1 1-1s1 .448 1 1v2c0 .552-.447 1-1 1z"/><path d="m24.126 22.765h-6c-.553 0-1-.447-1-1 0-.552.447-1 1-1h6c.553 0 1 .448 1 1s-.447 1-1 1z"/><path d="m28.463 34.536c-.053 0-.107-.004-.161-.013l-20.458-3.322c-.545-.089-.915-.603-.827-1.147.089-.545.6-.92 1.147-.827l20.458 3.322c.545.089.915.603.827 1.147-.08.492-.504.84-.986.84z"/><path d="m8.004 31.214c-.553 0-1-.447-1-1v-10.449c0-.552.447-1 1-1s1 .448 1 1v10.449c0 .553-.447 1-1 1z"/><path d="m18.126 20.765h-10.122c-.553 0-1-.447-1-1 0-.552.447-1 1-1h10.122c.553 0 1 .448 1 1s-.447 1-1 1z"/><path d="m42.232 20.765h-18.106c-.553 0-1-.447-1-1 0-.552.447-1 1-1h18.106c.553 0 1 .448 1 1s-.447 1-1 1z"/></svg>