<svg id="Layer_1" enable-background="new 0 0 64 64" height="512" viewBox="0 0 64 64" width="512" xmlns="http://www.w3.org/2000/svg"><path d="m22.584 39.754c-.653 0-1.309-.108-1.937-.329-.521-.183-.795-.754-.612-1.275s.751-.798 1.275-.611c1.152.404 2.442.237 3.451-.45.458-.311 1.08-.191 1.389.265.311.457.192 1.079-.264 1.39-.981.665-2.137 1.01-3.302 1.01z"/><path d="m25.325 38.915c-.32 0-.634-.153-.828-.438-.311-.456-.192-1.078.264-1.389l.925-.63c5.499-3.952 10.141-9.2 13.403-15.161l1.753.963c-3.404 6.22-8.25 11.696-14.011 15.837l-.946.644c-.17.118-.366.174-.56.174z"/><path d="m28.156 39.336c-.211 0-.423-.066-.604-.204l-5.044-3.836c-.439-.334-.525-.962-.19-1.401s.961-.525 1.401-.19l5.044 3.836c.439.334.525.962.19 1.401-.197.258-.495.394-.797.394z"/><path d="m32.538 35.684c-.19 0-.383-.055-.554-.168l-5.148-3.433c-.459-.307-.583-.928-.277-1.387s.927-.583 1.387-.277l5.148 3.433c.459.307.583.928.277 1.387-.193.288-.51.445-.833.445z"/><path d="m36.337 31.591c-.169 0-.342-.043-.499-.134l-5.303-3.063c-.479-.276-.642-.888-.366-1.366.275-.479.887-.644 1.366-.366l5.303 3.063c.479.276.642.888.366 1.366-.185.321-.521.5-.867.5z"/><path d="m39.59 27.231c-.148 0-.299-.033-.441-.103l-5.46-2.688c-.495-.244-.699-.844-.455-1.339.244-.496.843-.698 1.339-.456l5.46 2.688c.495.244.699.844.455 1.339-.174.354-.529.559-.898.559z"/><path d="m34.072 43.393c-.043 0-.086-.003-.13-.009-3.532-.458-6.973-.977-10.234-2.263-1.862-.735-4.428-1.993-5.214-4.422-.17-.525.118-1.089.643-1.259.527-.171 1.089.117 1.259.644.526 1.623 2.561 2.59 4.045 3.177 3.048 1.201 6.355 1.698 9.758 2.141.548.07.934.572.863 1.12-.065.503-.496.871-.99.871z"/><path d="m42.409 23.884c-.09 0-.182-.012-.273-.038-.531-.15-.84-.703-.689-1.234l.556-1.962c.15-.531.706-.842 1.234-.689.531.15.84.703.689 1.234l-.556 1.962c-.124.44-.525.727-.961.727z"/><path d="m47.358 48.66c-3.079 0-6.187-.216-9.237-.641-.547-.076-.928-.581-.852-1.128.076-.548.581-.933 1.128-.853 2.959.412 5.975.621 8.961.621.552 0 1 .447 1 1s-.448 1.001-1 1.001z"/><path d="m50.953 48.66h-3.595c-.552 0-1-.447-1-1s.448-1 1-1h3.595c.552 0 1 .447 1 1s-.448 1-1 1z"/><path d="m38.26 48.029c-.046 0-.092-.003-.139-.01-1.792-.248-3.608-.248-5.399 0-.548.08-1.052-.306-1.128-.853s.306-1.052.853-1.128c1.973-.275 3.975-.276 5.95 0 .547.076.929.581.853 1.128-.07.501-.499.863-.99.863z"/><path d="m23.485 48.66c-.552 0-1-.447-1-1s.448-1 1-1c2.986 0 6.001-.209 8.961-.621.55-.08 1.053.306 1.128.853.076.547-.305 1.052-.853 1.128-3.05.424-6.158.64-9.236.64z"/><path d="m23.485 48.66h-.313c-.552 0-1-.447-1-1s.448-1 1-1h.313c.552 0 1 .447 1 1s-.448 1-1 1z"/><path d="m22.583 44.077c-4.951 0-9.831-.453-14.574-1.356-.542-.104-.898-.627-.795-1.17.104-.542.629-.896 1.169-.795 6.614 1.26 13.505 1.621 20.483 1.074 8.887-.697 17.48-2.11 26.233-3.621.546-.094 1.062.271 1.155.815.094.544-.271 1.062-.815 1.155-8.801 1.519-17.444 2.94-26.417 3.645-2.155.169-4.304.253-6.439.253z"/><path d="m9.193 45.647c-.139 0-.279-.028-.414-.09-1.228-.559-1.946-1.881-1.748-3.215.081-.546.595-.92 1.136-.842.546.081.923.59.842 1.136-.068.457.178.909.598 1.101.503.229.725.822.496 1.324-.167.369-.53.586-.91.586z"/><path d="m8.022 43.49c-.049 0-.099-.004-.149-.011-.546-.082-.923-.591-.841-1.137.389-2.603 2.566-3.68 4.419-4.328.917-.32 1.834-.619 2.746-.917 3.099-1.011 6.026-1.966 8.744-3.675 5.796-3.644 10.878-9.856 14.309-17.493.226-.503.818-.728 1.322-.502.504.227.729.818.502 1.322-3.59 7.992-8.942 14.515-15.068 18.366-2.927 1.84-6.11 2.879-9.188 3.883-.899.293-1.803.588-2.707.904-2.018.705-2.916 1.497-3.101 2.734-.074.498-.501.854-.988.854z"/><path d="m23.172 48.66c-4.997-.001-9.839-1.045-14.39-3.102-.503-.228-.727-.819-.5-1.323.228-.503.821-.728 1.323-.499 4.291 1.939 8.856 2.923 13.567 2.924.553 0 1 .448 1 1 0 .553-.448 1-1 1z"/><path d="m42.964 21.922c-.248 0-.497-.092-.69-.276l-4.803-4.582c-.399-.381-.415-1.015-.033-1.414.381-.4 1.013-.414 1.414-.033l4.803 4.582c.399.381.415 1.015.033 1.414-.196.205-.46.309-.724.309z"/><path d="m50.953 48.66c-.549 0-.997-.443-1-.993-.003-.553.441-1.003.994-1.007 1.265-.008 2.439-.612 3.22-1.657.781-1.044 1.028-2.341.678-3.557-.153-.53.154-1.085.685-1.237.533-.149 1.084.154 1.237.685.524 1.823.161 3.758-.999 5.308-1.159 1.551-2.912 2.446-4.809 2.459-.002-.001-.004-.001-.006-.001z"/><path d="m50.274 29.103c-.415 0-.802-.26-.945-.674-.18-.521.097-1.091.619-1.271l2.633-.909c.521-.18 1.091.097 1.271.619.18.521-.097 1.091-.619 1.271l-2.633.909c-.108.037-.218.055-.326.055z"/><path d="m46.606 32.625c-.122 0-.245-.022-.365-.069-.514-.202-.767-.782-.565-1.296.757-1.929 2.313-3.424 4.27-4.102.521-.184 1.091.095 1.272.616.181.522-.095 1.092-.617 1.272-1.404.487-2.521 1.56-3.064 2.943-.154.396-.531.636-.931.636z"/><path d="m42.794 42.292c-.122 0-.246-.022-.366-.069-.514-.203-.766-.784-.563-1.298l3.813-9.667c.203-.513.785-.763 1.297-.563.514.203.766.784.563 1.298l-3.813 9.667c-.156.392-.532.632-.931.632z"/><path d="m53.192 30.173c-.493 0-.922-.364-.99-.866l-.533-3.964c-.074-.548.311-1.051.858-1.125.548-.07 1.05.311 1.125.857l.533 3.964c.074.548-.311 1.051-.858 1.125-.046.006-.091.009-.135.009z"/><path d="m54.286 36.069c-.465 0-.881-.325-.979-.798l-.403-1.958c-.111-.541.237-1.07.778-1.182.54-.109 1.069.236 1.181.777l.403 1.958c.111.541-.237 1.07-.778 1.182-.068.015-.135.021-.202.021z"/><path d="m55.805 42.17c-.44 0-.844-.293-.965-.738l-.536-1.976c-.145-.533.17-1.082.704-1.227.535-.147 1.083.171 1.227.703l.536 1.976c.145.533-.17 1.082-.704 1.227-.087.024-.175.035-.262.035z"/><path d="m52.661 26.209c-.02 0-.039-.001-.058-.002-4.588-.262-8.99-1.457-13.083-3.552-.492-.252-.686-.854-.435-1.347.251-.491.855-.685 1.346-.435 3.844 1.968 7.978 3.09 12.286 3.337.551.031.973.504.941 1.055-.03.533-.471.944-.997.944z"/></svg>