<svg id="Layer_1" enable-background="new 0 0 64 64" height="512" viewBox="0 0 64 64" width="512" xmlns="http://www.w3.org/2000/svg"><path d="m40 37.117h-8c-.552 0-1-.447-1-1s.448-1 1-1h8c.553 0 1 .447 1 1s-.447 1-1 1z"/><path d="m32 37.117c-.552 0-1-.447-1-1v-8c0-.553.448-1 1-1s1 .447 1 1v8c0 .553-.448 1-1 1z"/><path d="m19.102 37.117h-3c-.552 0-1-.447-1-1s.448-1 1-1h3c.552 0 1 .447 1 1s-.448 1-1 1z"/><path d="m32 53.014c-.552 0-1-.447-1-1v-3c0-.553.448-1 1-1s1 .447 1 1v3c0 .552-.448 1-1 1z"/><path d="m47.897 37.117h-3c-.553 0-1-.447-1-1s.447-1 1-1h3c.553 0 1 .447 1 1s-.447 1-1 1z"/><path d="m32 24.219c-.552 0-1-.447-1-1v-3c0-.553.448-1 1-1s1 .447 1 1v3c0 .552-.448 1-1 1z"/><path d="m15.603 19.732c-.294 0-.585-.129-.783-.377l-1.436-1.805c-.344-.432-.272-1.061.16-1.404.432-.344 1.061-.273 1.405.158l1.436 1.805c.344.432.272 1.061-.16 1.404-.184.147-.404.219-.622.219z"/><path d="m18.732 17.24c-.294 0-.585-.129-.783-.377l-1.436-1.803c-.344-.434-.273-1.063.159-1.406s1.062-.273 1.405.16l1.436 1.803c.344.432.273 1.061-.159 1.404-.184.147-.404.219-.622.219z"/><path d="m14.167 17.928c-.294 0-.585-.129-.783-.377-.551-.691-.77-1.521-.615-2.334.134-.705.537-1.355 1.134-1.83.597-.477 1.323-.736 2.038-.695.827.031 1.586.43 2.137 1.123.344.432.272 1.061-.159 1.404-.432.344-1.062.273-1.405-.158-.191-.24-.403-.361-.648-.371-.234 0-.497.086-.716.262-.22.174-.371.408-.415.639-.046.242.024.477.215.715.344.434.272 1.063-.159 1.406-.186.145-.406.216-.624.216z"/><path d="m49.832 17.928c-.218 0-.438-.07-.622-.217-.432-.346-.503-.975-.159-1.406.23-.289.286-.572.17-.869-.145-.367-.534-.678-.925-.736-.32-.049-.58.07-.81.361-.343.43-.971.504-1.405.158-.432-.344-.503-.973-.159-1.404.674-.848 1.646-1.25 2.671-1.092 1.104.164 2.081.943 2.489 1.98.378.963.208 2.002-.467 2.848-.197.248-.489.377-.783.377z"/><path d="m45.267 17.24c-.218 0-.438-.072-.622-.219-.432-.344-.503-.973-.159-1.404l1.437-1.803c.344-.434.974-.504 1.405-.16.432.346.503.975.159 1.406l-1.437 1.803c-.197.248-.489.377-.783.377z"/><path d="m48.396 19.732c-.218 0-.438-.072-.622-.219-.432-.344-.503-.973-.159-1.404l1.436-1.805c.343-.432.971-.504 1.405-.158.432.344.503.973.159 1.404l-1.436 1.805c-.197.249-.488.377-.783.377z"/><path d="m32.111 56.986c-7.434 0-14.659-3.961-18.412-10.777-4.717-8.568-2.797-19.438 4.564-25.848 7.339-6.389 18.346-6.828 26.173-1.045 7.771 5.742 10.588 16.342 6.697 25.203-.222.506-.812.734-1.318.514-.506-.223-.735-.813-.514-1.318 3.52-8.012.973-17.598-6.055-22.789-7.077-5.23-17.033-4.834-23.67.943-6.657 5.797-8.392 15.627-4.126 23.375 4.665 8.473 15.267 12.066 24.132 8.182 1.393-.609 2.711-1.389 3.92-2.314.44-.338 1.066-.254 1.401.184.337.438.254 1.066-.185 1.402-1.336 1.025-2.794 1.887-4.334 2.561-2.671 1.171-5.487 1.727-8.273 1.727z"/><path d="m47.02 50.168c-.232 0-.466-.08-.655-.246-.417-.361-.462-.992-.1-1.41.417-.48.812-.982 1.173-1.494.317-.451.939-.561 1.394-.24.451.318.559.943.239 1.395-.398.564-.835 1.121-1.296 1.65-.198.228-.476.345-.755.345z"/><path d="m45.767 45.064c-.17 0-.342-.043-.499-.133l-1.299-.75c-.479-.277-.643-.889-.366-1.367.275-.479.889-.641 1.366-.365l1.299.75c.479.275.643.887.366 1.365-.186.323-.522.5-.867.5z"/><path d="m39.198 24.648c-.17 0-.342-.043-.499-.135-.479-.275-.643-.887-.366-1.365l.75-1.301c.276-.477.889-.643 1.366-.365.479.275.643.887.366 1.365l-.75 1.301c-.185.321-.521.5-.867.5z"/><path d="m19.53 29.918c-.169 0-.341-.043-.499-.135l-1.299-.75c-.478-.275-.642-.887-.366-1.365.276-.479.886-.643 1.366-.367l1.299.75c.478.277.642.889.366 1.367-.186.32-.522.5-.867.5z"/><path d="m24.05 50.885c-.169 0-.342-.043-.499-.135-.479-.275-.642-.887-.366-1.365l.75-1.299c.276-.48.887-.643 1.366-.367.479.277.642.889.366 1.367l-.75 1.299c-.186.32-.521.5-.867.5z"/><path d="m39.95 50.885c-.346 0-.682-.18-.867-.5l-.75-1.299c-.276-.479-.112-1.09.366-1.367.476-.275 1.089-.113 1.366.367l.75 1.299c.276.479.112 1.09-.366 1.365-.157.092-.329.135-.499.135z"/><path d="m44.47 29.918c-.346 0-.682-.18-.867-.5-.276-.479-.112-1.09.366-1.367l1.299-.75c.476-.277 1.089-.113 1.366.367.276.479.112 1.09-.366 1.365l-1.299.75c-.157.092-.329.135-.499.135z"/><path d="m24.802 24.648c-.346 0-.682-.18-.867-.5l-.75-1.301c-.276-.479-.112-1.09.366-1.365.479-.277 1.09-.111 1.366.365l.75 1.301c.276.479.112 1.09-.366 1.365-.158.092-.33.135-.499.135z"/><path d="m18.232 45.064c-.346 0-.682-.18-.867-.5-.276-.479-.112-1.09.366-1.365l1.299-.75c.479-.277 1.09-.111 1.366.365.276.479.112 1.09-.366 1.367l-1.299.75c-.157.09-.329.133-.499.133z"/><path d="m32.057 53.012c-7.992 0-14.972-5.645-16.598-13.42-.966-4.621.113-9.508 2.96-13.406 2.836-3.885 7.144-6.391 11.818-6.877.567-.059 1.143-.088 1.711-.088 9.188 0 16.95 7.738 16.95 16.896 0 8.545-6.648 15.926-15.135 16.807-.565.056-1.139.088-1.706.088zm-.109-31.791c-.5 0-1.006.027-1.505.078-4.111.426-7.905 2.639-10.409 6.066-2.514 3.443-3.468 7.75-2.617 11.816 1.433 6.854 7.59 11.83 14.64 11.83.498 0 1.002-.027 1.499-.078 7.481-.775 13.342-7.283 13.342-14.816-.001-8.074-6.846-14.896-14.95-14.896z"/><path d="m16.73 24.359c-.294 0-.585-.129-.783-.377l-1.442-1.811c-.344-.432-.273-1.063.159-1.406.431-.344 1.061-.273 1.405.16l1.442 1.811c.344.432.273 1.061-.159 1.404-.183.147-.403.219-.622.219z"/><path d="m15.289 22.549c-.294 0-.585-.129-.783-.377-.972-1.223-.854-2.957.272-4.037.398-.381 1.032-.367 1.414.031s.368 1.033-.031 1.414c-.375.359-.414.938-.09 1.346.344.432.272 1.061-.16 1.404-.184.147-.404.219-.622.219z"/><path d="m22.989 19.375c-.294 0-.585-.129-.783-.377l-1.441-1.811c-.344-.432-.272-1.061.159-1.404.433-.344 1.062-.273 1.405.158l1.441 1.811c.344.434.272 1.063-.159 1.406-.184.147-.404.217-.622.217z"/><path d="m15.469 19.857c-.263 0-.526-.104-.722-.309-.382-.398-.368-1.031.03-1.414 1.096-1.049 2.293-2.002 3.559-2.832.462-.303 1.082-.172 1.384.287.303.463.174 1.082-.288 1.385-1.164.764-2.265 1.641-3.272 2.605-.193.187-.442.278-.691.278z"/><path d="m21.547 17.564c-.294 0-.585-.129-.783-.377-.324-.406-.896-.496-1.331-.213-.459.305-1.081.176-1.385-.287-.303-.461-.175-1.08.287-1.385 1.304-.855 3.022-.582 3.993.639.344.432.273 1.063-.159 1.406-.183.147-.403.217-.622.217z"/><path d="m42.452 17.564c-.218 0-.438-.07-.622-.217-.432-.344-.503-.973-.159-1.406.97-1.219 2.685-1.496 3.993-.639.462.303.59.924.287 1.385-.303.463-.923.592-1.385.287-.434-.283-1.006-.195-1.331.213-.197.249-.488.377-.783.377z"/><path d="m48.53 19.857c-.249 0-.498-.092-.691-.277-1.006-.963-2.106-1.84-3.272-2.605-.462-.303-.59-.922-.287-1.385.305-.461.925-.588 1.385-.287 1.268.832 2.465 1.785 3.558 2.834.399.381.413 1.014.03 1.412-.197.205-.46.308-.723.308z"/><path d="m41.01 19.375c-.218 0-.438-.07-.622-.217-.432-.344-.503-.975-.159-1.406l1.442-1.811c.343-.432.974-.504 1.405-.158.432.344.503.973.159 1.404l-1.442 1.811c-.197.248-.489.377-.783.377z"/><path d="m48.71 22.549c-.218 0-.438-.072-.622-.219-.432-.344-.503-.973-.159-1.404.324-.408.285-.986-.09-1.346-.399-.383-.413-1.016-.03-1.414.382-.398 1.016-.412 1.413-.029 1.127 1.078 1.244 2.813.271 4.035-.197.248-.488.377-.783.377z"/><path d="m47.269 24.359c-.218 0-.438-.072-.622-.219-.432-.344-.503-.973-.159-1.404l1.441-1.811c.344-.432.971-.504 1.405-.16.432.344.503.973.159 1.406l-1.441 1.811c-.198.248-.489.377-.783.377z"/><path d="m36.5 13.014h-9c-.552 0-1-.447-1-1v-4c0-.553.448-1 1-1h9c.553 0 1 .447 1 1v4c0 .552-.447 1-1 1zm-8-2h7v-2h-7z"/><path d="m30 17.32c-.552 0-1-.447-1-1v-4.307c0-.553.448-1 1-1s1 .447 1 1v4.307c0 .553-.448 1-1 1z"/><path d="m34 17.32c-.553 0-1-.447-1-1v-4.307c0-.553.448-1 1-1s1 .447 1 1v4.307c0 .553-.447 1-1 1z"/></svg>