<svg id="Layer_1" enable-background="new 0 0 64 64" height="512" viewBox="0 0 64 64" width="512" xmlns="http://www.w3.org/2000/svg"><path d="m12 36c-.553 0-1-.447-1-1v-4c0-.553.447-1 1-1s1 .447 1 1v4c0 .553-.447 1-1 1z"/><path d="m40 36c-.553 0-1-.447-1-1v-4c0-.553.447-1 1-1s1 .447 1 1v4c0 .553-.447 1-1 1z"/><path d="m52 13h-12c-.553 0-1-.447-1-1s.447-1 1-1h12c.553 0 1 .447 1 1s-.447 1-1 1z"/><path d="m52 17h-12c-.553 0-1-.447-1-1s.447-1 1-1h12c.553 0 1 .447 1 1s-.447 1-1 1z"/><path d="m52 21h-12c-.553 0-1-.447-1-1s.447-1 1-1h12c.553 0 1 .447 1 1s-.447 1-1 1z"/><path d="m24 21h-12c-.553 0-1-.447-1-1s.447-1 1-1h12c.553 0 1 .447 1 1s-.447 1-1 1z"/><path d="m24 17h-12c-.553 0-1-.447-1-1s.447-1 1-1h12c.553 0 1 .447 1 1s-.447 1-1 1z"/><path d="m24 13h-12c-.553 0-1-.447-1-1s.447-1 1-1h12c.553 0 1 .447 1 1s-.447 1-1 1z"/><path d="m56 34c-.553 0-1-.447-1-1v-2c0-.553.447-1 1-1s1 .447 1 1v2c0 .553-.447 1-1 1z"/><path d="m56 51c-.553 0-1-.447-1-1v-13c0-.553.447-1 1-1s1 .447 1 1v13c0 .553-.447 1-1 1z"/><path d="m56 28c-.553 0-1-.447-1-1v-17c0-.553.447-1 1-1s1 .447 1 1v17c0 .553-.447 1-1 1z"/><path d="m8 51c-.553 0-1-.447-1-1v-40c0-.553.447-1 1-1s1 .447 1 1v40c0 .553-.447 1-1 1z"/><path d="m28 51c-.553 0-1-.447-1-1v-40c0-.553.447-1 1-1s1 .447 1 1v40c0 .553-.447 1-1 1z"/><path d="m36 51c-.553 0-1-.447-1-1v-40c0-.553.447-1 1-1s1 .447 1 1v40c0 .553-.447 1-1 1z"/><path d="m40 57c-.553 0-1-.447-1-1v-4c0-.553.447-1 1-1s1 .447 1 1v4c0 .553-.447 1-1 1z"/><path d="m52 57c-.553 0-1-.447-1-1v-4c0-.553.447-1 1-1s1 .447 1 1v4c0 .553-.447 1-1 1z"/><path d="m12 57c-.553 0-1-.447-1-1v-4c0-.553.447-1 1-1s1 .447 1 1v4c0 .553-.447 1-1 1z"/><path d="m24 57c-.553 0-1-.447-1-1v-4c0-.553.447-1 1-1s1 .447 1 1v4c0 .553-.447 1-1 1z"/><path d="m10 53c-1.654 0-3-1.346-3-3 0-.553.447-1 1-1s1 .447 1 1c0 .552.448 1 1 1 .553 0 1 .447 1 1s-.447 1-1 1z"/><path d="m26 53h-16c-.553 0-1-.447-1-1s.447-1 1-1h16c.553 0 1 .447 1 1s-.447 1-1 1z"/><path d="m26 53c-.553 0-1-.447-1-1s.447-1 1-1c.552 0 1-.448 1-1 0-.553.447-1 1-1s1 .447 1 1c0 1.654-1.346 3-3 3z"/><path d="m38 53c-1.654 0-3-1.346-3-3 0-.553.447-1 1-1s1 .447 1 1c0 .552.448 1 1 1 .553 0 1 .447 1 1s-.447 1-1 1z"/><path d="m54 53h-16c-.553 0-1-.447-1-1s.447-1 1-1h16c.553 0 1 .447 1 1s-.447 1-1 1z"/><path d="m54 53c-.553 0-1-.447-1-1s.447-1 1-1c.552 0 1-.448 1-1 0-.553.447-1 1-1s1 .447 1 1c0 1.654-1.346 3-3 3z"/><path d="m56 11c-.553 0-1-.447-1-1 0-.552-.448-1-1-1-.553 0-1-.447-1-1s.447-1 1-1c1.654 0 3 1.346 3 3 0 .553-.447 1-1 1z"/><path d="m36 11c-.553 0-1-.447-1-1 0-1.654 1.346-3 3-3 .553 0 1 .447 1 1s-.447 1-1 1c-.552 0-1 .448-1 1 0 .553-.447 1-1 1z"/><path d="m54 9h-16c-.553 0-1-.447-1-1s.447-1 1-1h16c.553 0 1 .447 1 1s-.447 1-1 1z"/><path d="m8 11c-.553 0-1-.447-1-1 0-1.654 1.346-3 3-3 .553 0 1 .447 1 1s-.447 1-1 1c-.552 0-1 .448-1 1 0 .553-.447 1-1 1z"/><path d="m26 9h-16c-.553 0-1-.447-1-1s.447-1 1-1h16c.553 0 1 .447 1 1s-.447 1-1 1z"/><path d="m28 11c-.553 0-1-.447-1-1 0-.552-.448-1-1-1-.553 0-1-.447-1-1s.447-1 1-1c1.654 0 3 1.346 3 3 0 .553-.447 1-1 1z"/></svg>