<svg id="Layer_1" enable-background="new 0 0 64 64" height="512" viewBox="0 0 64 64" width="512" xmlns="http://www.w3.org/2000/svg"><path d="m24.929 36.071c-.256 0-.512-.098-.707-.293-.391-.391-.391-1.023 0-1.414l14.143-14.143c.391-.391 1.023-.391 1.414 0s.391 1.023 0 1.414l-14.143 14.143c-.196.196-.451.293-.707.293z"/><path d="m40.467 28.34c-2.338 0-4.598-.896-6.382-2.567-2.209-2.071-3.277-4.947-2.928-7.889.065-.549.565-.943 1.111-.876.548.065.94.563.875 1.11-.273 2.305.569 4.563 2.31 6.195s4.051 2.328 6.334 1.905c.542-.106 1.064.26 1.165.802.1.543-.259 1.064-.802 1.165-.562.104-1.125.155-1.683.155z"/><path d="m31.203 38.968c-.06 0-.122-.005-.183-.017-.543-.101-.902-.622-.801-1.165.422-2.282-.271-4.59-1.903-6.332-1.631-1.742-3.886-2.586-6.197-2.312-.54.069-1.045-.327-1.11-.876-.065-.548.327-1.046.876-1.11 2.944-.347 5.821.721 7.892 2.931 2.07 2.211 2.949 5.149 2.41 8.063-.091.481-.511.818-.984.818z"/><path d="m32 54.935c-1.491 0-3-1.008-3-2.935 0-3.854 6-3.854 6 0 0 1.927-1.509 2.935-3 2.935zm0-3.87c-.167 0-1 .045-1 .935s.833.935 1 .935 1-.045 1-.935-.833-.935-1-.935z"/><path d="m44 57h-24c-2.757 0-5-2.243-5-5v-40c0-2.757 2.243-5 5-5h24c2.757 0 5 2.243 5 5v21.581c0 .553-.448 1-1 1s-1-.447-1-1v-21.581c0-1.654-1.346-3-3-3h-24c-1.654 0-3 1.346-3 3v40c0 1.654 1.346 3 3 3h24c1.654 0 3-1.346 3-3v-8.419c0-.553.448-1 1-1s1 .447 1 1v8.419c0 2.757-2.243 5-5 5z"/><path d="m48 40.581c-.552 0-1-.447-1-1v-2c0-.553.448-1 1-1s1 .447 1 1v2c0 .553-.448 1-1 1z"/><path d="m32.017 38.977c-2.701 0-5.284-.963-7.273-2.71-3.782-3.32-4.823-8.956-2.475-13.398 1.881-3.561 5.723-5.861 9.787-5.861.888 0 1.773.108 2.63.324 4.817 1.208 8.314 5.695 8.314 10.668 0 3.56-1.735 6.915-4.643 8.978-1.843 1.307-4.036 1.999-6.34 1.999zm.039-19.97c-3.332 0-6.479 1.882-8.019 4.795-1.92 3.635-1.068 8.245 2.026 10.963 1.624 1.426 3.738 2.212 5.954 2.212 1.888 0 3.68-.563 5.183-1.63 2.38-1.689 3.8-4.435 3.8-7.347 0-4.069-2.86-7.74-6.801-8.729-.698-.175-1.419-.264-2.143-.264z"/><path d="m39.071 36.071c-.256 0-.512-.098-.707-.293l-14.142-14.142c-.391-.391-.391-1.023 0-1.414s1.023-.391 1.414 0l14.143 14.143c.391.391.391 1.023 0 1.414-.196.195-.452.292-.708.292z"/><path d="m48 49h-32c-.552 0-1-.447-1-1s.448-1 1-1h32c.552 0 1 .447 1 1s-.448 1-1 1z"/></svg>