<svg id="Layer_1" enable-background="new 0 0 64 64" height="512" viewBox="0 0 64 64" width="512" xmlns="http://www.w3.org/2000/svg"><path d="m24.929 49.022c-.256 0-.512-.098-.707-.293-.391-.391-.391-1.023 0-1.414l14.143-14.143c.391-.391 1.023-.391 1.414 0s.391 1.023 0 1.414l-14.143 14.143c-.196.196-.451.293-.707.293z"/><path d="m40.467 41.291c-2.339 0-4.598-.896-6.382-2.567-2.21-2.072-3.277-4.947-2.929-7.89.065-.548.566-.941 1.111-.875.548.065.94.563.875 1.11-.273 2.305.569 4.563 2.311 6.195s4.056 2.327 6.333 1.905c.55-.103 1.065.26 1.165.802.101.543-.259 1.064-.802 1.165-.561.104-1.125.155-1.682.155z"/><path d="m31.203 51.919c-.06 0-.121-.005-.183-.017-.543-.101-.902-.622-.802-1.165.422-2.282-.272-4.59-1.904-6.332-1.631-1.742-3.889-2.589-6.196-2.312-.538.063-1.045-.327-1.11-.876-.065-.548.327-1.046.876-1.11 2.938-.347 5.819.72 7.89 2.931 2.071 2.21 2.95 5.149 2.412 8.063-.089.481-.51.818-.983.818z"/><path d="m52 40.951c-.553 0-1-.447-1-1v-2c0-.553.447-1 1-1s1 .447 1 1v2c0 .553-.447 1-1 1z"/><path d="m48 56.951h-32c-2.757 0-5-2.243-5-5v-34c0-.553.448-1 1-1h40c.553 0 1 .447 1 1v16c0 .553-.447 1-1 1s-1-.447-1-1v-15h-38v33c0 1.654 1.346 3 3 3h32c1.654 0 3-1.346 3-3v-8c0-.553.447-1 1-1s1 .447 1 1v8c0 2.757-2.243 5-5 5z"/><path d="m56 18.951h-48c-.552 0-1-.447-1-1v-6c0-.553.448-1 1-1h48c.553 0 1 .447 1 1v6c0 .553-.447 1-1 1zm-47-2h46v-4h-46z"/><path d="m22 12.951c-.552 0-1-.447-1-1v-1c0-.553.448-1 1-1s1 .447 1 1v1c0 .553-.448 1-1 1z"/><path d="m16 12.951c-.552 0-1-.447-1-1v-1c0-.553.448-1 1-1s1 .447 1 1v1c0 .553-.448 1-1 1z"/><path d="m48 12.951c-.553 0-1-.447-1-1v-1c0-.553.447-1 1-1s1 .447 1 1v1c0 .553-.447 1-1 1z"/><path d="m42 12.951c-.553 0-1-.447-1-1v-1c0-.553.447-1 1-1s1 .447 1 1v1c0 .553-.447 1-1 1z"/><path d="m22 11.951c-.552 0-1-.447-1-1 0-.604-.198-1.082-.589-1.418-.358-.307-.872-.484-1.411-.484-.923 0-2 .499-2 1.902 0 .553-.448 1-1 1s-1-.447-1-1c0-2.562 2.012-3.902 4-3.902s4 1.341 4 3.902c0 .553-.448 1-1 1z"/><path d="m48 11.951c-.553 0-1-.447-1-1 0-.604-.198-1.082-.59-1.418-.357-.307-.871-.484-1.41-.484-.923 0-2 .499-2 1.902 0 .553-.447 1-1 1s-1-.447-1-1c0-2.562 2.013-3.902 4-3.902s4 1.341 4 3.902c0 .553-.447 1-1 1z"/><path d="m32.017 51.928c-2.701 0-5.284-.963-7.273-2.71-3.782-3.32-4.823-8.956-2.475-13.398 1.881-3.561 5.723-5.861 9.787-5.861.888 0 1.773.108 2.63.324 4.817 1.208 8.314 5.696 8.314 10.668 0 3.56-1.735 6.916-4.644 8.978-1.842 1.307-4.035 1.999-6.339 1.999zm.039-19.97c-3.332 0-6.479 1.882-8.019 4.795-1.92 3.635-1.068 8.245 2.026 10.963 1.624 1.426 3.738 2.212 5.954 2.212 1.887 0 3.679-.563 5.183-1.63 2.379-1.688 3.8-4.435 3.8-7.347 0-4.069-2.86-7.74-6.801-8.729-.698-.175-1.419-.264-2.143-.264z"/><path d="m39.071 49.022c-.256 0-.512-.098-.707-.293l-14.142-14.142c-.391-.391-.391-1.023 0-1.414s1.023-.391 1.414 0l14.143 14.143c.391.391.391 1.023 0 1.414-.196.195-.452.292-.708.292z"/><path d="m52 26.951h-40c-.552 0-1-.447-1-1s.448-1 1-1h40c.553 0 1 .447 1 1s-.447 1-1 1z"/></svg>