<svg id="Layer_1" enable-background="new 0 0 64 64" height="512" viewBox="0 0 64 64" width="512" xmlns="http://www.w3.org/2000/svg"><path d="m14.183 42.221c-.085 0-.173-.012-.259-.035-.534-.143-.85-.691-.707-1.225l5-18.66c.143-.533.694-.85 1.225-.707.534.143.85.691.707 1.225l-5 18.66c-.121.447-.525.742-.966.742z"/><path d="m19.839 36.564c-.085 0-.172-.012-.259-.035-.534-.143-.85-.691-.707-1.225l3.207-11.969c.143-.533.69-.854 1.225-.707.534.143.85.691.707 1.225l-3.207 11.969c-.12.448-.524.742-.966.742z"/><path d="m25.496 30.906c-.085 0-.172-.01-.259-.033-.534-.143-.85-.691-.707-1.225l1.414-5.277c.143-.535.689-.852 1.225-.707.534.143.85.691.707 1.225l-1.414 5.277c-.12.447-.524.74-.966.74z"/><path d="m19.201 42.857c-.256 0-.512-.098-.707-.293-.391-.391-.391-1.023 0-1.414l14.673-14.672c.391-.391 1.023-.391 1.414 0s.391 1.023 0 1.414l-14.673 14.672c-.195.196-.451.293-.707.293z"/><path d="m27.687 51.344c-.256 0-.512-.098-.707-.293-.391-.391-.391-1.023 0-1.414l14.673-14.674c.391-.391 1.023-.391 1.414 0s.391 1.023 0 1.414l-14.673 14.674c-.196.195-.452.293-.707.293z"/><path d="m22.029 45.688c-.256 0-.512-.098-.707-.293-.391-.391-.391-1.023 0-1.414l14.673-14.674c.391-.391 1.023-.391 1.414 0s.391 1.023 0 1.414l-14.673 14.674c-.195.195-.451.293-.707.293z"/><path d="m24.858 48.516c-.256 0-.512-.098-.707-.293-.391-.391-.391-1.023 0-1.414l14.673-14.674c.391-.391 1.023-.391 1.414 0s.391 1.023 0 1.414l-14.673 14.674c-.195.195-.451.293-.707.293z"/><path d="m41.075 43.611c-.256 0-.512-.098-.707-.293-.391-.391-.391-1.023 0-1.414l14.012-14.011c.391-.391 1.023-.391 1.414 0s.391 1.023 0 1.414l-14.012 14.011c-.195.196-.451.293-.707.293z"/><path d="m36.833 47.854c-.256 0-.512-.098-.707-.293-.391-.391-.391-1.023 0-1.414l1.415-1.414c.391-.391 1.023-.391 1.414 0s.391 1.023 0 1.414l-1.415 1.414c-.196.195-.452.293-.707.293z"/><path d="m27.687 57c-.256 0-.512-.098-.707-.293-.391-.391-.391-1.023 0-1.414l6.318-6.316c.391-.391 1.023-.391 1.414 0s.391 1.023 0 1.414l-6.318 6.316c-.196.195-.452.293-.707.293z"/><path d="m20.12 49.434c-.085 0-.172-.01-.259-.033l-11.207-3.005c-.534-.143-.85-.691-.707-1.225s.688-.85 1.225-.707l11.207 3.004c.534.143.85.691.707 1.225-.12.448-.524.741-.966.741z"/><path d="m33.223 23.18c-.085 0-.172-.01-.259-.033l-1.414-.379c-.534-.143-.85-.691-.707-1.225.143-.535.688-.852 1.225-.707l1.414.379c.534.143.85.691.707 1.225-.12.447-.524.74-.966.74z"/><path d="m36.81 19.594c-.085 0-.172-.012-.259-.035-.534-.143-.85-.691-.707-1.225l1.451-5.416c.143-.533.691-.852 1.225-.707.534.143.85.691.707 1.225l-1.451 5.416c-.12.447-.525.742-.966.742z"/><path d="m8.913 46.432c-.085 0-.172-.012-.259-.035-.534-.143-.85-.691-.707-1.225l10.029-37.43c.143-.535.69-.852 1.225-.707.534.143.85.691.707 1.225l-10.03 37.429c-.119.448-.524.743-.965.743z"/><path d="m38.261 14.178c-.085 0-.173-.012-.259-.035l-4.83-1.295c-.534-.143-.85-.691-.707-1.225.143-.533.691-.852 1.225-.707l4.83 1.295c.534.143.85.691.707 1.225-.12.447-.524.742-.966.742z"/><path d="m23.772 10.295c-.085 0-.172-.012-.259-.035l-4.83-1.293c-.534-.143-.85-.691-.707-1.225.142-.533.689-.854 1.225-.707l4.83 1.293c.534.143.85.691.707 1.225-.12.447-.524.742-.966.742z"/><path d="m27.945 21.766c-.085 0-.172-.012-.259-.035l-3.863-1.035c-.534-.143-.85-.691-.707-1.225.143-.533.687-.854 1.225-.707l3.863 1.035c.534.143.85.691.707 1.225-.12.447-.524.742-.966.742z"/><path d="m20.218 19.695c-.085 0-.172-.012-.259-.035l-3.864-1.035c-.534-.143-.85-.691-.707-1.225.143-.531.688-.854 1.225-.707l3.864 1.035c.534.143.85.691.707 1.225-.12.447-.524.742-.966.742z"/><path d="m28.545 16.58c-.497 0-1-.063-1.497-.195-1.531-.41-2.819-1.406-3.626-2.807-.808-1.398-1.026-3.012-.616-4.543.143-.533.692-.85 1.225-.707.534.143.85.691.707 1.225-.272 1.016-.124 2.09.417 3.025.54.938 1.397 1.602 2.412 1.875 2.095.561 4.338-.736 4.899-2.83.143-.533.688-.852 1.225-.707.534.143.85.691.707 1.225-.71 2.644-3.206 4.439-5.853 4.439z"/><path d="m48.016 27.496c-1.546 0-3.093-.574-4.243-1.725-2.299-2.299-2.299-6.186 0-8.486.391-.391 1.024-.391 1.415 0s.391 1.023 0 1.414c-1.533 1.533-1.533 4.125 0 5.658s4.124 1.533 5.657 0c.391-.391 1.023-.391 1.414 0s.391 1.023 0 1.414c-1.15 1.151-2.696 1.725-4.243 1.725z"/><path d="m36.703 25.357c-.256 0-.512-.098-.707-.293l-2.829-2.828c-.391-.391-.391-1.023 0-1.414s1.023-.391 1.414 0l2.829 2.828c.391.391.391 1.023 0 1.414-.196.196-.452.293-.707.293z"/><path d="m42.359 31.014c-.256 0-.512-.098-.707-.293l-2.829-2.828c-.391-.391-.391-1.023 0-1.414s1.023-.391 1.414 0l2.829 2.828c.391.391.391 1.023 0 1.414-.195.195-.451.293-.707.293z"/><path d="m48.016 36.67c-.256 0-.512-.098-.707-.293l-2.828-2.828c-.391-.391-.391-1.023 0-1.414s1.023-.391 1.414 0l2.828 2.828c.391.391.391 1.023 0 1.414-.195.195-.451.293-.707.293z"/><path d="m44.48 18.992c-.256 0-.512-.098-.707-.293l-3.535-3.535c-.391-.391-.391-1.023 0-1.414s1.023-.391 1.414 0l3.535 3.535c.391.391.391 1.023 0 1.414-.195.196-.451.293-.707.293z"/><path d="m55.087 29.6c-.256 0-.512-.098-.707-.293l-3.536-3.535c-.391-.391-.391-1.023 0-1.414s1.023-.391 1.414 0l3.536 3.535c.391.391.391 1.023 0 1.414-.195.195-.451.293-.707.293z"/><path d="m27.687 57c-.256 0-.512-.098-.707-.293l-14.143-14.143c-.391-.391-.391-1.023 0-1.414s1.023-.391 1.414 0l14.142 14.143c.391.391.391 1.023 0 1.414-.195.195-.451.293-.706.293z"/><path d="m13.544 42.857c-.256 0-.512-.098-.707-.293-.391-.391-.391-1.023 0-1.414l27.401-27.4c.391-.391 1.023-.391 1.414 0s.391 1.023 0 1.414l-27.401 27.4c-.195.196-.451.293-.707.293z"/></svg>