<svg id="Layer_1" enable-background="new 0 0 64 64" height="512" viewBox="0 0 64 64" width="512" xmlns="http://www.w3.org/2000/svg"><path d="m32.075 41.965c-.001 0-.001 0 0 0-2.911 0-5.838-1.615-8.031-4.434-2.364-3.037-3.784-7.141-4.22-12.193-.138-1.404-.1-2.834.115-4.238 1.042-5.768 6.245-10.1 12.106-10.1.566 0 1.138.041 1.698.121 3.074.443 5.945 2.098 7.876 4.539 2.041 2.582 2.925 5.932 2.556 9.689-.267 3.09-1.731 13.424-9.353 16.135-.897.319-1.822.481-2.747.481zm-.03-28.965c-4.909 0-9.266 3.625-10.134 8.43-.185 1.213-.219 2.475-.096 3.725.403 4.674 1.684 8.422 3.807 11.148 1.812 2.328 4.164 3.662 6.453 3.662.697 0 1.396-.123 2.078-.365 6.497-2.311 7.79-11.633 8.032-14.434.222-2.266.032-5.527-2.134-8.266-1.616-2.045-4.019-3.43-6.591-3.799-.467-.066-.943-.101-1.415-.101z"/><path d="m17.509 31.129c-.454 0-.865-.311-.973-.773-.702-3.014-.921-6.107-.651-9.191l.119-.777c1.391-7.703 8.24-13.389 16.02-13.389.124 0 .246 0 .37.004 7.673.178 14.234 5.797 15.601 13.361l.128.711c.098.543-.263 1.063-.806 1.162-.547.1-1.064-.264-1.162-.807l-.128-.711c-1.179-6.527-7.06-11.564-13.679-11.717-6.956-.184-13.136 4.875-14.371 11.717l-.106.688c-.244 2.807-.04 5.688.615 8.496.125.537-.209 1.076-.747 1.201-.079.017-.155.025-.23.025z"/><path d="m15.039 31.129c-1.654 0-3-1.346-3-3 0-.553.448-1 1-1s1 .447 1 1 .449 1 1 1c.552 0 1 .447 1 1s-.448 1-1 1z"/><path d="m13.039 29.129c-.552 0-1-.447-1-1v-4.877c0-.553.448-1 1-1s1 .447 1 1v4.877c0 .553-.448 1-1 1z"/><path d="m13.039 24.252c-.552 0-1-.447-1-1 0-1.654 1.346-3 3-3 .552 0 1 .447 1 1s-.448 1-1 1c-.551 0-1 .447-1 1s-.448 1-1 1z"/><path d="m17.51 31.129h-2.471c-.552 0-1-.447-1-1s.448-1 1-1h2.471c.552 0 1 .447 1 1s-.448 1-1 1z"/><path d="m16.88 22.252h-1.841c-.552 0-1-.447-1-1s.448-1 1-1h1.841c.552 0 1 .447 1 1s-.447 1-1 1z"/><path d="m46.491 31.129c-.075 0-.151-.008-.228-.025-.538-.125-.872-.664-.747-1.201.655-2.809.859-5.689.607-8.564-.048-.549.359-1.035.909-1.082.557-.059 1.036.359 1.083.908.27 3.084.051 6.178-.651 9.191-.108.462-.519.773-.973.773z"/><path d="m48.961 22.252h-1.841c-.552 0-1-.447-1-1s.448-1 1-1h1.841c.552 0 1 .447 1 1s-.448 1-1 1z"/><path d="m48.961 31.129h-2.471c-.552 0-1-.447-1-1s.448-1 1-1h2.471c.552 0 1 .447 1 1s-.448 1-1 1z"/><path d="m50.961 24.252c-.552 0-1-.447-1-1s-.449-1-1-1c-.552 0-1-.447-1-1s.448-1 1-1c1.654 0 3 1.346 3 3 0 .553-.448 1-1 1z"/><path d="m50.961 29.129c-.552 0-1-.447-1-1v-4.877c0-.553.448-1 1-1s1 .447 1 1v4.877c0 .553-.448 1-1 1z"/><path d="m48.961 31.129c-.552 0-1-.447-1-1s.448-1 1-1c.551 0 1-.447 1-1s.448-1 1-1 1 .447 1 1c0 1.654-1.346 3-3 3z"/><path d="m30.3 39.143c-1.491 0-3-1.008-3-2.936 0-3.854 6-3.854 6 0 0 1.928-1.509 2.936-3 2.936zm0-3.87c-.167 0-1 .045-1 .934 0 .891.833.936 1 .936s1-.045 1-.936c0-.889-.833-.934-1-.934z"/><path d="m28.306 37.357c-.001 0-.003 0-.005 0-4.778-.023-9.243-2.6-11.654-6.723-.279-.477-.118-1.09.358-1.369.478-.277 1.089-.119 1.368.359 2.056 3.516 5.864 5.713 9.938 5.732.552.004.998.453.995 1.006-.003.552-.45.995-1 .995z"/><path d="m56 57.002h-48c-.552 0-1-.447-1-1s.448-1 1-1h48c.552 0 1 .447 1 1s-.448 1-1 1z"/><path d="m48.204 44.033c-.154 0-.312-.037-.458-.111-1.433-.74-2.961-1.277-4.544-1.596-.542-.107-.893-.635-.784-1.178.109-.541.638-.895 1.177-.783 1.766.355 3.471.953 5.068 1.779.491.254.683.857.429 1.348-.176.344-.526.541-.888.541z"/><path d="m36.774 54.957c-.371 0-.727-.207-.9-.563l-2.628-5.398c-.242-.496-.035-1.094.461-1.336.497-.242 1.095-.035 1.337.461l2.628 5.398c.242.496.035 1.094-.461 1.336-.141.069-.29.102-.437.102z"/><path d="m34.145 49.559c-.236 0-.473-.082-.663-.252-.413-.365-.451-.998-.084-1.412l7.625-8.592c.366-.412.998-.451 1.412-.084.413.367.451 1 .084 1.412l-7.625 8.592c-.198.222-.473.336-.749.336z"/><path d="m43.398 42.346c-.229 0-.458-.078-.646-.236l-1.628-1.379c-.422-.357-.474-.988-.117-1.41.356-.422.988-.473 1.409-.115l1.628 1.379c.422.355.474.986.117 1.408-.197.234-.479.353-.763.353z"/><path d="m36.772 54.957c-.157 0-.316-.037-.464-.115-.489-.258-.677-.861-.42-1.35l6.625-12.611c.257-.488.861-.674 1.351-.42.489.258.677.861.42 1.35l-6.625 12.611c-.179.34-.527.535-.887.535z"/><path d="m13.253 45.701c-.303 0-.602-.137-.798-.396-.333-.441-.247-1.068.194-1.4 2.305-1.746 5.023-2.969 7.858-3.539.544-.109 1.069.242 1.177.783.109.543-.242 1.07-.784 1.178-2.542.512-4.978 1.607-7.045 3.172-.18.136-.392.202-.602.202z"/><path d="m8 54.764c-.001 0-.002 0-.003 0-.552-.002-.998-.451-.997-1.004.011-3.58 2.016-7.08 5.645-9.854.438-.334 1.066-.252 1.401.188.335.439.251 1.066-.188 1.402-1.81 1.383-4.847 4.295-4.859 8.27 0 .552-.448.998-.999.998z"/><path d="m27.329 54.957c-.36 0-.708-.195-.886-.535l-6.625-12.611c-.257-.488-.069-1.094.42-1.35.489-.254 1.094-.068 1.35.42l6.625 12.611c.257.488.069 1.094-.42 1.35-.148.078-.307.115-.464.115z"/><path d="m20.704 42.346c-.284 0-.566-.119-.764-.354-.357-.422-.305-1.053.117-1.408l1.628-1.379c.419-.357 1.051-.307 1.409.115.357.422.305 1.053-.117 1.41l-1.628 1.379c-.187.159-.416.237-.645.237z"/><path d="m29.957 49.559c-.276 0-.551-.113-.749-.336l-7.624-8.592c-.367-.412-.329-1.045.084-1.412s1.045-.328 1.412.084l7.624 8.592c.367.414.329 1.047-.084 1.412-.191.17-.428.252-.663.252z"/><path d="m27.327 54.957c-.146 0-.296-.033-.437-.102-.496-.242-.703-.84-.461-1.336l2.628-5.398c.242-.496.84-.701 1.337-.461.496.242.703.84.461 1.336l-2.628 5.398c-.173.356-.529.563-.9.563z"/><path d="m32.051 57.002c-.552 0-1-.447-1-1v-4.83c0-.553.448-1 1-1s1 .447 1 1v4.83c0 .553-.448 1-1 1z"/><path d="m32.053 52.174c-1.136 0-2.273-.094-3.403-.281-.544-.09-.914-.604-.824-1.148s.597-.922 1.15-.824c2.011.332 4.05.336 6.06.016.544-.092 1.058.283 1.146.828s-.284 1.059-.829 1.146c-1.095.175-2.197.263-3.3.263z"/><path d="m52.386 47.104c-.251 0-.502-.094-.697-.283-.446-.434-.925-.848-1.425-1.23-.438-.336-.521-.965-.185-1.402.337-.439.964-.521 1.402-.184.561.43 1.099.895 1.601 1.383.396.385.405 1.018.021 1.414-.196.2-.456.302-.717.302z"/><path d="m8 57.002c-.552 0-1-.447-1-1v-2.238c0-.553.448-1 1-1s1 .447 1 1v2.238c0 .553-.448 1-1 1z"/><path d="m56 57.002c-.552 0-1-.447-1-1v-2.238c-.01-1.396-.376-2.789-1.058-4.018-.268-.482-.094-1.092.389-1.359.484-.27 1.092-.094 1.36.389.843 1.521 1.296 3.242 1.309 4.98v2.246c0 .553-.448 1-1 1z"/><path d="m35.921 21.973c-.5 0-.933-.375-.992-.885-.255-2.188-1.291-4.211-2.916-5.695-.408-.371-.437-1.004-.064-1.412.372-.406 1.005-.436 1.413-.064 1.981 1.811 3.243 4.275 3.554 6.941.064.547-.329 1.045-.877 1.107-.039.006-.079.008-.118.008z"/><path d="m42.79 24.258c-2.681 0-5.315-.873-7.466-2.484-.442-.332-.532-.959-.201-1.4s.958-.531 1.4-.201c1.918 1.436 4.301 2.178 6.688 2.076.555-.053 1.017.406 1.04.959.022.551-.406 1.018-.958 1.039-.168.007-.336.011-.503.011z"/><path d="m28.187 24.154c-2.67 0-5.343-.676-7.75-2.031-.481-.271-.651-.881-.38-1.363.271-.479.88-.652 1.362-.379 4.359 2.455 9.717 2.355 13.982-.262.471-.287 1.087-.141 1.375.33s.141 1.086-.33 1.375c-2.528 1.551-5.392 2.33-8.259 2.33z"/></svg>