<svg height="512pt" viewBox="0 0 512 512" width="512pt" xmlns="http://www.w3.org/2000/svg"><path d="m60 330h90v167h-90zm0 0" fill="#eaeaf9"/><path d="m105 210c-24.902344 0-45 20.097656-45 45s20.097656 45 45 45 45-20.097656 45-45-20.097656-45-45-45zm0 0" fill="#eaeaf9"/><path d="m105 300v-90c24.902344 0 45 20.097656 45 45s-20.097656 45-45 45zm0 0" fill="#d8d8fc"/><path d="m105 330h45v167h-45zm0 0" fill="#d8d8fc"/><path d="m181 390h90v107h-90zm0 0" fill="#fdbf00"/><path d="m226 270c-24.902344 0-45 20.097656-45 45s20.097656 45 45 45 45-20.097656 45-45-20.097656-45-45-45zm0 0" fill="#fdbf00"/><path d="m226 360v-90c24.902344 0 45 20.097656 45 45s-20.097656 45-45 45zm0 0" fill="#ff9f00"/><path d="m226 390h45v107h-45zm0 0" fill="#ff9f00"/><path d="m301 270h90v227h-90zm0 0" fill="#bfe436"/><path d="m346 270h45v227h-45zm0 0" fill="#a4d95e"/><path d="m512 180v302l-36.300781 15-8.699219-2.402344-45-12.597656v-302zm0 0" fill="#e63950"/><path d="m467 60c-24.902344 0-45 20.097656-45 45s20.097656 45 45 45 45-20.097656 45-45-20.097656-45-45-45zm0 0" fill="#e63950"/><path d="m467 150v-90c24.902344 0 45 20.097656 45 45s-20.097656 45-45 45zm0 0" fill="#cc2e43"/><path d="m467 180h45v302l-36.300781 15-8.699219-2.402344zm0 0" fill="#cc2e43"/><path d="m346 150c-24.902344 0-45 20.097656-45 45s20.097656 45 45 45 45-20.097656 45-45-20.097656-45-45-45zm0 0" fill="#bfe436"/><path d="m512 482v30h-512v-512h30v482zm0 0" fill="#799ce3"/><path d="m286 482h226v30h-226zm0 0" fill="#485c8c"/><path d="m346 240v-90c24.902344 0 45 20.097656 45 45s-20.097656 45-45 45zm0 0" fill="#a4d95e"/></svg>