<svg height="512pt" viewBox="0 0 512 512" width="512pt" xmlns="http://www.w3.org/2000/svg"><path d="m512 361v151l-241-28.199219-15-31.800781-15 31.800781-241 28.199219v-151l241 28.199219 15 31.800781 15-31.800781zm0 0" fill="#eaeaf9"/><path d="m271 389.199219 241-28.199219v151l-241-28.199219-15-31.800781v-31zm0 0" fill="#d8d8fc"/><path d="m326.5 356.5-70.5 70.800781-70.5-70.800781 21-21 49.5 49.199219 49.5-49.199219zm0 0" fill="#e63950"/><path d="m305.5 335.5 21 21-70.5 70.800781v-42.601562zm0 0" fill="#cc2e43"/><path d="m452 75h30v151h-30zm0 0" fill="#ff9f00"/><path d="m392 99.300781v107.5l-136 39.898438-135-39.898438v-107.5zm0 0" fill="#485c8c"/><path d="m512 331h-90v-15c0-51.53125 18.988281-83.03125 45.789062-113.363281 23.988282 31.074219 44.210938 64.789062 44.210938 113.363281zm0 0" fill="#ff9f00"/><path d="m392 99.300781v107.5l-136 39.898438v-147.398438zm0 0" fill="#2d344a"/><path d="m271 389.199219v94.601562l-15-1.800781-15 1.800781v-94.601562l15 1.800781zm0 0" fill="#e63950"/><path d="m271 389.199219v94.601562l-15-1.800781v-91zm0 0" fill="#cc2e43"/><path d="m512 75-256 75-256-75 256-75zm0 0" fill="#799ce3"/><path d="m512 75-256 75v-150zm0 0" fill="#485c8c"/></svg>