<svg height="512pt" viewBox="0 0 512 512" width="512pt" xmlns="http://www.w3.org/2000/svg"><path d="m512 210-121 120v-210zm0 0" fill="#ae2538"/><path d="m0 210 121 120v-210zm0 0" fill="#cc2e43"/><path d="m421 120v319.601562h-330v-439.601562h210zm0 0" fill="#eaeaf9"/><path d="m421 120v319.601562h-165v-439.601562h45zm0 0" fill="#d8d8fc"/><path d="m322.210938 0h-21.210938v120h120v-21.210938zm0 0" fill="#a3a3d1"/><path d="m0 210v302l211-152zm0 0" fill="#e63950"/><path d="m512 210v302l-211-152zm0 0" fill="#cc2e43"/><path d="m512 512h-512l256-242zm0 0" fill="#ec5569"/><path d="m512 512h-256v-242zm0 0" fill="#e63950"/><path d="m166 141.210938-40.605469-40.605469 21.210938-21.210938 19.394531 19.394531 49.394531-49.394531 21.210938 21.210938zm0 0" fill="#a4d95e"/><path d="m151 210h210v30h-210zm0 0" fill="#d8d8fc"/><path d="m241 150h120v30h-120zm0 0" fill="#d8d8fc"/><g fill="#a3a3d1"><path d="m256 150h105v30h-105zm0 0"/><path d="m256 210h105v30h-105zm0 0"/></g></svg>