<svg height="512pt" viewBox="0 0 512 512" width="512pt" xmlns="http://www.w3.org/2000/svg"><path d="m241 60h30v91h-30zm0 0" fill="#bfe436"/><path d="m241 361h30v91h-30zm0 0" fill="#bfe436"/><path d="m256 211c-24.902344 0-45 20.097656-45 45 0 24.898438 20.097656 45 45 45s45-20.101562 45-45c0-24.902344-20.097656-45-45-45zm0 60c-8.402344 0-15-6.601562-15-15 0-8.402344 6.597656-15 15-15s15 6.597656 15 15c0 8.398438-6.597656 15-15 15zm0 0" fill="#e63950"/><path d="m361 241h91v30h-91zm0 0" fill="#a4d95e"/><path d="m60 241h91v30h-91zm0 0" fill="#bfe436"/><path d="m350.394531 140.390625 21.210938 21.210937-30.75 30.746094-21.210938-21.210937zm0 0" fill="#a4d95e"/><path d="m171.144531 319.644531 21.210938 21.210938-30.75 30.746093-21.210938-21.210937zm0 0" fill="#bfe436"/><path d="m340.859375 319.644531 30.746094 30.746094-21.210938 21.210937-30.746093-30.746093zm0 0" fill="#a4d95e"/><path d="m161.605469 140.390625 30.746093 30.75-21.210937 21.210937-30.746094-30.75zm0 0" fill="#bfe436"/><path d="m406 451c-24.8125 0-45-20.1875-45-45s20.1875-45 45-45 45 20.1875 45 45-20.1875 45-45 45zm0-60c-8.277344 0-15 6.722656-15 15s6.722656 15 15 15 15-6.722656 15-15-6.722656-15-15-15zm0 0" fill="#cc2e43"/><path d="m106 151c-24.8125 0-45-20.1875-45-45s20.1875-45 45-45 45 20.1875 45 45-20.1875 45-45 45zm0-60c-8.277344 0-15 6.722656-15 15s6.722656 15 15 15 15-6.722656 15-15-6.722656-15-15-15zm0 0" fill="#e63950"/><path d="m361 91h30v30h-30zm0 0" fill="#ff9f00"/><path d="m391 61h30v30h-30zm0 0" fill="#ff9f00"/><path d="m421 91h30v30h-30zm0 0" fill="#ff9f00"/><path d="m391 121h30v30h-30zm0 0" fill="#ff9f00"/><path d="m61 391h30v30h-30zm0 0" fill="#fdbf00"/><path d="m91 361h30v30h-30zm0 0" fill="#fdbf00"/><path d="m121 391h30v30h-30zm0 0" fill="#fdbf00"/><path d="m91 421h30v30h-30zm0 0" fill="#fdbf00"/><path d="m241 482h30v30h-30zm0 0" fill="#bfe436"/><path d="m241 0h30v30h-30zm0 0" fill="#bfe436"/><path d="m482 241h30v30h-30zm0 0" fill="#a4d95e"/><path d="m0 241h30v30h-30zm0 0" fill="#bfe436"/><path d="m301 256c0 24.898438-20.097656 45-45 45v-30c8.402344 0 15-6.601562 15-15 0-8.402344-6.597656-15-15-15v-30c24.902344 0 45 20.097656 45 45zm0 0" fill="#cc2e43"/><g fill="#a4d95e"><path d="m256 0h15v30h-15zm0 0"/><path d="m256 60h15v91h-15zm0 0"/><path d="m256 361h15v91h-15zm0 0"/><path d="m256 482h15v30h-15zm0 0"/></g></svg>