<svg height="512pt" viewBox="0 0 512 512" width="512pt" xmlns="http://www.w3.org/2000/svg"><path d="m241 0h60v497h-60zm0 0" fill="#485c8c"/><path d="m271 0h30v497h-30zm0 0" fill="#2d344a"/><path d="m136 482h271v30h-271zm0 0" fill="#bfe436"/><path d="m271 482h136v30h-136zm0 0" fill="#a4d95e"/><path d="m422 151v-30h-301v-60h301v-30l90 60zm0 0" fill="#fdbf00"/><path d="m422 151v-30h-151v-60h151v-30l90 60zm0 0" fill="#ff9f00"/><path d="m392 211v60h-302v30l-90-60 90-60v30zm0 0" fill="#e63950"/><path d="m271 211h121v60h-121zm0 0" fill="#cc2e43"/></svg>