<svg height="511pt" viewBox="0 0 511.99681 511" width="511pt" xmlns="http://www.w3.org/2000/svg"><path d="m161.980469 350.511719c-29.273438-29.273438-76.789063-29.273438-106.066407 0-25.242187 25.246093-46.578124 119.980469-50.824218 139.074219l-5.089844 22.910156 22.910156-5.09375c19.09375-4.242188 113.828125-25.578125 139.070313-50.824219 29.277343-29.273437 29.277343-76.789063 0-106.066406zm0 0" fill="#fdbf00"/><path d="m161.980469 456.578125c-25.242188 25.246094-119.976563 46.582031-139.070313 50.824219l-22.910156 5.09375 161.980469-161.984375c29.277343 29.277343 29.277343 76.792969 0 106.066406zm0 0" fill="#ff7816"/><path d="m307.285156 332.15625-102.878906 60.78125 74.246094 74.246094 10.609375-10.605469c32.6875-32.6875 40.105469-83.859375 18.023437-124.421875zm0 0" fill="#cc2e43"/><path d="m180.335938 205.210938c-40.5625-22.082032-91.730469-14.667969-124.417969 18.023437l-10.609375 10.605469 74.246094 74.246094zm0 0" fill="#ec5569"/><path d="m236.226562 382.332031-42.425781 42.425781-106.066406-106.066406 42.425781-42.425781 47.730469 5.304687 61.945313 61.941407zm0 0" fill="#799ce3"/><path d="m239.835938 343.511719-3.609376 38.820312-42.425781 42.425781-53.03125-53.03125 63.640625-63.640624zm0 0" fill="#485c8c"/><path d="m432.871094 58.410156 57.910156-57.910156 21.214844 21.210938-57.910156 57.910156zm0 0" fill="#eaeaf9"/><path d="m501.390625 11.097656 10.605469 10.609375-57.910156 57.910157-10.605469-10.609376zm0 0" fill="#d8d8fc"/><path d="m381.75 298.328125c-43.273438 41.15625-81.03125 52.609375-145.519531 84.003906l-106.070313-106.066406c31.609375-63.425781 43.699219-106.488281 91.003906-152.945313 28.851563-28.003906 63.429688-47.730468 103.097657-58.972656l123.671875 123.671875c-12.300782 43.277344-33.9375 80.1875-66.183594 110.308594zm0 0" fill="#eaeaf9"/><path d="m381.75 298.328125c-43.273438 41.15625-81.03125 52.609375-145.519531 84.003906l-53.035157-53.03125 203.011719-203.011719 61.730469 61.730469c-12.304688 43.277344-33.941406 80.1875-66.1875 110.308594zm0 0" fill="#d8d8fc"/><path d="m447.9375 188.019531c-33.304688 7-69.15625-2.546875-95.035156-28.425781-25.882813-25.878906-35.214844-61.941406-28.636719-95.246094 36.058594-10.183594 75.941406-14 120.488281-10.183594l12.726563.847657.851562 12.726562c3.816407 44.550781-.214843 84.644531-10.394531 120.28125zm0 0" fill="#ec5569"/><path d="m352.902344 159.59375 104.578125-104.582031.851562 12.726562c3.816407 44.550781-.214843 84.640625-10.398437 120.28125-33.300782 7-69.152344-2.546875-95.03125-28.425781zm0 0" fill="#cc2e43"/><path d="m321.082031 276.265625c-23.335937 23.335937-61.519531 23.335937-84.855469 0-23.332031-23.332031-23.332031-61.515625 0-84.851563 23.335938-23.332031 61.519532-23.332031 84.855469 0 23.332031 23.335938 23.332031 61.519532 0 84.851563zm0 0" fill="#799ce3"/><path d="m321.082031 276.265625c-23.335937 23.335937-61.519531 23.335937-84.855469 0l84.855469-84.851563c23.332031 23.335938 23.332031 61.519532 0 84.851563zm0 0" fill="#485c8c"/></svg>