<svg height="511pt" viewBox="-10 0 511 511.98534" width="511pt" xmlns="http://www.w3.org/2000/svg"><path d="m8.257812 444.191406 144.882813 38.820313-7.765625 28.972656-144.882812-38.820313zm0 0" fill="#eaeaf9"/><path d="m91.316406 481.984375-28.972656-7.761719 31.050781-116.914062 28.976563 7.761718zm0 0" fill="#eaeaf9"/><path d="m484.394531 444.1875 7.761719 28.972656-144.882812 38.820313-7.761719-28.972657zm0 0" fill="#d8d8fc"/><path d="m401.335938 481.984375-31.054688-116.914063 28.976562-7.761718 31.050782 116.914062zm0 0" fill="#d8d8fc"/><path d="m231.324219 0h30v61h-30zm0 0" fill="#fdbf00"/><path d="m180.832031 82.5625-30-51.957031 25.988281-15 30 51.957031zm0 0" fill="#fdbf00"/><path d="m311.820312 82.5625-25.988281-15 30-51.957031 25.988281 15zm0 0" fill="#ff9f00"/><path d="m391.214844 95.46875-144.890625 38.816406 20.558593 76.714844 76.941407 30 78.351562-30zm0 0" fill="#d8d8fc"/><path d="m388.648438 375.679688c40.035156-10.730469 63.773437-51.804688 53.042968-91.847657l-19.515625-72.832031h-155.292969l29.921876 111.648438c10.710937 39.976562 51.707031 63.769531 91.84375 53.03125zm0 0" fill="#cc2e43"/><path d="m246.324219 134.285156-144.886719-38.816406-30.960938 115.53125 72.097657 30 83.195312-30zm0 0" fill="#eaeaf9"/><path d="m104.003906 375.679688c40.117188 10.734374 81.128906-13.039063 91.84375-53.027344l29.921875-111.652344h-155.292969l-19.515624 72.816406c-10.695313 39.949219 13.109374 81.152344 53.042968 91.863282zm0 0" fill="#e63950"/><path d="m246.324219 0h15v61h-15zm0 0" fill="#ff9f00"/></svg>