<svg height="512pt" viewBox="-61 0 512 512" width="512pt" xmlns="http://www.w3.org/2000/svg"><path d="m0 91h30v30h-30zm0 0" fill="#fdbf00"/><path d="m30 121h30v30h-30zm0 0" fill="#fdbf00"/><path d="m30 61h30v30h-30zm0 0" fill="#fdbf00"/><path d="m60 91h30v30h-30zm0 0" fill="#fdbf00"/><g fill="#ff9f00"><path d="m150 30h30v30h-30zm0 0"/><path d="m180 60h30v30h-30zm0 0"/><path d="m180 0h30v30h-30zm0 0"/><path d="m210 30h30v30h-30zm0 0"/><path d="m300 91h30v30h-30zm0 0"/><path d="m330 121h30v30h-30zm0 0"/><path d="m330 61h30v30h-30zm0 0"/><path d="m360 91h30v30h-30zm0 0"/></g><path d="m0 271 195 241-13.523438-140.273438-61.476562-100.726562-50.625-30zm0 0" fill="#799ce3"/><path d="m270 271-64.046875 108.949219-10.953125 132.050781 195-241-63.75-30zm0 0" fill="#485c8c"/><path d="m270 271-75 241-75-241 75-30zm0 0" fill="#d8d8fc"/><path d="m270 271-75 241v-271zm0 0" fill="#a3a3d1"/><path d="m270 271h-150l5.398438-42.300781 69.601562-47.699219 46.199219 25.199219zm0 0" fill="#eaeaf9"/><path d="m270 271h-75v-90l46.199219 25.199219zm0 0" fill="#d8d8fc"/><path d="m0 271h120l-28.269531-72.402344-31.730469-17.597656zm0 0" fill="#eaeaf9"/><path d="m330 181-60.578125 45.863281.578125 44.136719h120zm0 0" fill="#d8d8fc"/><path d="m60 181 60 90 75-90zm0 0" fill="#d8d8fc"/><path d="m195 181 75 90 60-90zm0 0" fill="#a3a3d1"/></svg>