<svg height="512pt" viewBox="-61 0 512 512" width="512pt" xmlns="http://www.w3.org/2000/svg"><path d="m304.5 60c-17.097656-36.300781-54-60-94.5-60-5.097656 0-9.902344.300781-15 1.199219-23.699219 3.300781-45.902344 15-62.402344 33-8.996094-2.699219-17.996094-4.199219-27.597656-4.199219-49.5 0-90 41.5-90 91s25.5 90 75 90l96.300781-15 8.699219 1.199219 105 13.800781c41.398438 0 75-33.601562 75-75 0-39.902344-31.199219-73.601562-70.5-76zm0 0" fill="#eaeaf9"/><path d="m300 211-105-13.800781v-196c5.097656-.898438 9.902344-1.199219 15-1.199219 40.5 0 77.402344 23.699219 94.5 60 39.300781 2.398438 70.5 36.097656 70.5 76 0 41.398438-33.601562 75-75 75zm0 0" fill="#d8d8fc"/><path d="m240 151h30v346h-30zm0 0" fill="#2d344a"/><path d="m120 151h30v346h-30zm0 0" fill="#485c8c"/><path d="m90 421h210v30h-210zm0 0" fill="#799ce3"/><path d="m90 361h210v30h-210zm0 0" fill="#799ce3"/><path d="m90 301h210v30h-210zm0 0" fill="#799ce3"/><path d="m90 241h210v30h-210zm0 0" fill="#799ce3"/><path d="m90 181h210v30h-210zm0 0" fill="#799ce3"/><g fill="#485c8c"><path d="m195 181h105v30h-105zm0 0"/><path d="m195 241h105v30h-105zm0 0"/><path d="m195 301h105v30h-105zm0 0"/><path d="m195 361h105v30h-105zm0 0"/><path d="m195 421h105v30h-105zm0 0"/></g><path d="m0 482h390v30h-390zm0 0" fill="#bfe436"/><path d="m195 482h195v30h-195zm0 0" fill="#a4d95e"/></svg>