<svg height="512pt" viewBox="0 0 512 512" width="512pt" xmlns="http://www.w3.org/2000/svg"><path d="m364.890625 179.109375c-76.15625-76.15625-199.617187-76.15625-275.773437 0s-76.15625 199.617187 0 275.773437 199.617187 76.15625 275.773437 0 76.15625-199.617187 0-275.773437zm0 0" fill="#e63950"/><path d="m364.890625 454.882812c-76.15625 76.15625-199.617187 76.15625-275.773437 0l275.773437-275.773437c76.15625 76.15625 76.15625 199.617187 0 275.773437zm0 0" fill="#cc2e43"/><path d="m322.460938 412.457031c-52.605469 52.609375-138.308594 52.609375-190.917969 0s-52.609375-138.308593 0-190.917969c52.609375-52.609374 138.3125-52.609374 190.917969 0 52.609374 52.605469 52.609374 138.308594 0 190.917969zm0 0" fill="#eaeaf9"/><path d="m322.460938 412.457031c-52.605469 52.609375-138.308594 52.609375-190.917969 0l190.917969-190.917969c52.609374 52.605469 52.609374 138.308594 0 190.917969zm0 0" fill="#d8d8fc"/><path d="m280.035156 370.03125c-29.273437 29.273438-76.792968 29.273438-106.066406 0s-29.273438-76.792969 0-106.066406c29.273438-29.273438 76.792969-29.273438 106.066406 0 29.273438 29.273437 29.273438 76.792968 0 106.066406zm0 0" fill="#e63950"/><path d="m280.035156 370.03125c-29.273437 29.273438-76.792968 29.273438-106.066406 0l106.066406-106.066406c29.273438 29.273437 29.273438 76.792968 0 106.066406zm0 0" fill="#cc2e43"/><path d="m216.394531 306.390625 148.488281-148.492187 21.214844 21.214843-148.492187 148.488281zm0 0" fill="#799ce3"/><path d="m227 316.996094 148.492188-148.488282 10.605468 10.605469-148.492187 148.488281zm0 0" fill="#485c8c"/><path d="m512 116-83.472656 85h-85.527344v-85.527344l85-84.855468v85.382812zm0 0" fill="#bfe436"/><path d="m512 116-83.472656 85h-85.527344l85-85zm0 0" fill="#a4d95e"/><path d="m122 0c-66.300781 0-122 55.699219-122 122s55.699219 120 122 120 120-53.699219 120-120-53.699219-122-120-122zm0 0" fill="#a4d95e"/><path d="m242 122c0 66.300781-53.699219 120-120 120v-242c66.300781 0 120 55.699219 120 122zm0 0" fill="#84bf7e"/><path d="m177.5 102.5-55.5 55.800781-15 15-40.5-40.800781 21-21 19.5 19.199219 15-15 34.5-34.199219zm0 0" fill="#eaeaf9"/><path d="m177.5 102.5-55.5 55.800781v-42.601562l34.5-34.199219zm0 0" fill="#d8d8fc"/></svg>