<svg height="512pt" viewBox="-39 0 512 512" width="512pt" xmlns="http://www.w3.org/2000/svg"><path d="m433.800781 272-110.101562 210h-189.898438l-37.800781 30-96-96 88.199219-84h212.402343l-31.503906 60h-104.097656v30h122.398438l53.101562-101.699219c15.601562-29.699219 46.199219-48.300781 79.800781-48.300781zm0 0" fill="#fde4e4"/><path d="m269.097656 392h-29.097656v-60h60.601562zm0 0" fill="#fdd0d0"/><path d="m433.800781 272-110.101562 210h-83.699219v-60h47.398438l53.101562-101.699219c15.601562-29.699219 46.199219-48.300781 79.800781-48.300781zm0 0" fill="#fdd0d0"/><path d="m375 0v227h-270v-227l73.800781 106.800781 61.199219-106.800781 61.199219 106.800781zm0 0" fill="#fdbf00"/><path d="m375 227h-135v-227l61.199219 106.800781 73.800781-106.800781zm0 0" fill="#ff9f00"/><path d="m218.695312 165.988281 21.296876-21.300781 21.300781 21.300781-21.300781 21.296875zm0 0" fill="#e63950"/><path d="m261.300781 166-21.300781 21.300781v-42.601562zm0 0" fill="#cc2e43"/><path d="m75 212h330v30h-330zm0 0" fill="#ff9f00"/><path d="m240 212h165v30h-165zm0 0" fill="#ff7816"/></svg>