<svg height="512pt" viewBox="0 0 512 512" width="512pt" xmlns="http://www.w3.org/2000/svg"><path d="m512 346v-75h-76c0-16.570312-13.429688-30-30-30s-30 13.429688-30 30h-75v75c16.570312 0 30 13.429688 30 30 0 16.566406-13.429688 30-30 30v76h75c0 16.566406 13.429688 30 30 30s30-13.433594 30-30h76v-76c-16.570312 0-30-13.433594-30-30 0-16.570312 13.429688-30 30-30zm0 0" fill="#a4d95e"/><path d="m346 0h-75v76c-16.570312 0-30 13.429688-30 30s13.429688 30 30 30v75h75c0-16.570312 13.429688-30 30-30 16.566406 0 30 13.429688 30 30h76v-75c16.566406 0 30-13.429688 30-30s-13.433594-30-30-30v-76h-76c0 16.570312-13.433594 30-30 30-16.570312 0-30-13.429688-30-30zm0 0" fill="#485c8c"/><path d="m0 166v75h76c0 16.570312 13.429688 30 30 30s30-13.429688 30-30h75v-75c-16.570312 0-30-13.429688-30-30 0-16.566406 13.429688-30 30-30v-76h-75c0-16.566406-13.429688-30-30-30s-30 13.433594-30 30h-76v76c16.570312 0 30 13.433594 30 30 0 16.570312-13.429688 30-30 30zm0 0" fill="#e63950"/><path d="m166 512h75v-76c16.570312 0 30-13.429688 30-30s-13.429688-30-30-30v-75h-75c0 16.570312-13.429688 30-30 30-16.566406 0-30-13.429688-30-30h-76v75c-16.566406 0-30 13.429688-30 30s13.433594 30 30 30v76h76c0-16.570312 13.433594-30 30-30 16.570312 0 30 13.429688 30 30zm0 0" fill="#fdbf00"/></svg>