<svg height="512pt" viewBox="0 0 512 512" width="512pt" xmlns="http://www.w3.org/2000/svg"><path d="m76 302h-30v-182l15-30 15 30zm0 0" fill="#485c8c"/><path d="m466 302h-30v-182l15.9375-30 14.0625 30zm0 0" fill="#2d344a"/><path d="m0 272v240h91l58.234375-112.941406 1.765625-127.058594zm0 0" fill="#a4d95e"/><path d="m361 272 1.875 127.5 58.125 112.5h91v-240zm0 0" fill="#84bf7e"/><path d="m421 512h-150l-15-30-15 30h-150l60-240h90l15 30 15-30h90zm0 0" fill="#799ce3"/><path d="m421 512h-150l-15-30v-180l15-30h90zm0 0" fill="#485c8c"/><path d="m406 60 31.875-30 28.125 30v60h-60l-30-30.9375zm0 0" fill="#d8d8fc"/><path d="m346 60 31.875-30 28.125 30v60h-60l-30-30.9375zm0 0" fill="#485c8c"/><path d="m286 60v60h-60l-30-30.902344 30-29.097656 30-28.199219 1.800781-1.800781zm0 0" fill="#799ce3"/><path d="m286 60 31.875-30 28.125 30v60h-60l-30-30.9375zm0 0" fill="#d8d8fc"/><path d="m286 60v60h-30v-88.199219l1.800781-1.800781zm0 0" fill="#485c8c"/><path d="m166 60 31.875-30 28.125 30v60h-60l-30-30.9375zm0 0" fill="#eaeaf9"/><path d="m106 60 31.875-30 28.125 30v60h-60l-30-30.9375zm0 0" fill="#799ce3"/><path d="m106 120h-60v-60l25.3125-30 34.6875 30zm0 0" fill="#eaeaf9"/><path d="m406 0h60v60h-60l-30-30.9375zm0 0" fill="#485c8c"/><path d="m346 0h60v60h-60l-30-30.9375zm0 0" fill="#d8d8fc"/><path d="m286 0h60v60h-60l-30-30.9375zm0 0" fill="#485c8c"/><path d="m286 0v60h-60l-30-30.902344 30-29.097656zm0 0" fill="#eaeaf9"/><path d="m166 0h60v60h-60l-30-30.9375zm0 0" fill="#799ce3"/><path d="m106 0h60v60h-60l-30-30.9375zm0 0" fill="#eaeaf9"/><path d="m46 0h60v60h-60zm0 0" fill="#799ce3"/><path d="m241 362h30v60h-30zm0 0" fill="#eaeaf9"/><path d="m256 0h30v60h-30zm0 0" fill="#d8d8fc"/><path d="m241 452h30v60h-30zm0 0" fill="#eaeaf9"/><path d="m241 272h30v60h-30zm0 0" fill="#eaeaf9"/><g fill="#d8d8fc"><path d="m256 272h15v60h-15zm0 0"/><path d="m256 362h15v60h-15zm0 0"/><path d="m256 452h15v60h-15zm0 0"/></g></svg>