<svg height="512pt" viewBox="-121 0 512 512" width="512pt" xmlns="http://www.w3.org/2000/svg"><path d="m228.601562 163.597656h-187.203124l9-72.597656 31.800781-14.101562-27.898438-15.898438 7.5-61h146.398438l7.5 61-28.199219 15 32.101562 15zm0 0" fill="#799ce3"/><path d="m228.601562 163.597656h-93.601562v-163.597656h73.199219l7.5 61-28.199219 15 32.101562 15zm0 0" fill="#485c8c"/><path d="m219.601562 421-32.101562 15.898438 28.199219 14.101562-7.5 61h-146.398438l-7.5-61 28.199219-13.5-32.101562-16.5-9-72.601562h187.203124zm0 0" fill="#799ce3"/><g fill="#485c8c"><path d="m135 348.398438h93.601562l-9 72.601562-32.101562 15.898438 28.199219 14.101562-7.5 61h-73.199219zm0 0"/><path d="m219.601562 91h-169.203124l3.902343-30h161.398438zm0 0"/><path d="m219.601562 421-3.902343 30h-161.398438l-3.902343-30zm0 0"/></g><path d="m135 421h84.601562l-3.902343 30h-80.699219zm0 0" fill="#2d344a"/><path d="m219.601562 91h-84.601562v-30h80.699219zm0 0" fill="#2d344a"/><path d="m135 121c-74.398438 0-135 60.597656-135 135 0 74.398438 60.601562 135 135 135s135-60.601562 135-135c0-74.402344-60.601562-135-135-135zm0 0" fill="#bfe436"/><path d="m270 256c0 74.398438-60.601562 135-135 135v-270c74.398438 0 135 60.597656 135 135zm0 0" fill="#a4d95e"/><path d="m135 151c-57.898438 0-105 47.101562-105 105s47.101562 105 105 105 105-47.101562 105-105-47.101562-105-105-105zm0 0" fill="#eaeaf9"/><path d="m240 256c0 57.898438-47.101562 105-105 105v-210c57.898438 0 105 47.101562 105 105zm0 0" fill="#d8d8fc"/><path d="m120 136h30v45h-30zm0 0" fill="#bfe436"/><path d="m120 331h30v45h-30zm0 0" fill="#bfe436"/><path d="m15 241h45v30h-45zm0 0" fill="#bfe436"/><path d="m210 241h45v30h-45zm0 0" fill="#a4d95e"/><path d="m150 211v51.300781l-15 15-19.5 19.199219-21-21 25.5-25.800781v-38.699219zm0 0" fill="#799ce3"/><path d="m150 262.300781-15 15v-66.300781h15zm0 0" fill="#485c8c"/><path d="m135 136h15v45h-15zm0 0" fill="#a4d95e"/><path d="m135 331h15v45h-15zm0 0" fill="#a4d95e"/></svg>