<svg height="512pt" viewBox="0 -31 512 512" width="512pt" xmlns="http://www.w3.org/2000/svg"><path d="m0 0v180h91l30-30v-120l-30-30zm0 0" fill="#fde4e4"/><path d="m421 0-30 30v120l30 30h91v-180zm0 0" fill="#fdd0d0"/><path d="m421 0v450h-330v-450h90l30 45h90l30-45zm0 0" fill="#ec5569"/><path d="m421 0v450h-165v-405h45l30-45zm0 0" fill="#e63950"/><path d="m151 150v210h210v-210zm0 0" fill="#eaeaf9"/><path d="m256 150h105v210h-105zm0 0" fill="#d8d8fc"/><path d="m286 270v30h-60v-30h15v-30h-15v-30h45v60zm0 0" fill="#e63950"/><path d="m286 270v30h-30v-90h15v60zm0 0" fill="#cc2e43"/><path d="m331 0v45c0 41.398438-33.601562 75-75 75s-75-33.601562-75-75v-45zm0 0" fill="#fde4e4"/><path d="m256 120v-120h75v45c0 41.398438-33.601562 75-75 75zm0 0" fill="#fdd0d0"/></svg>