<svg height="512" viewBox="0 0 501 501" width="512" xmlns="http://www.w3.org/2000/svg"><path d="M501 250.5c0 135.31-109.69 245-245 245S11 385.81 11 250.5s109.69-245 245-245 245 109.69 245 245z" fill="#91cefb"/><path d="M501 250.5c0 1.336-.011 2.669-.032 4H445c-8.284 0-15-6.716-15-15s6.716-15 15-15h54.636a247.842 247.842 0 011.364 26zm-71-71c0-8.284 6.716-15 15-15s15-6.716 15-15-6.716-15-15-15h-60c-8.284 0-15 6.716-15 15s6.716 15 15 15h-19.576c-8.077 0-15.027 6.207-15.407 14.274-.406 8.614 6.458 15.726 14.983 15.726h50c8.284 0 15-6.716 15-15zm5-65h24.817a246.113 246.113 0 00-23.624-30H435c-8.284 0-15 6.716-15 15s6.715 15 15 15z" fill="#bbe0fb"/><path d="M347.694 291.885c13.065-28.552 46.803-41.106 75.354-28.041a57.223 57.223 0 018.078 4.516c19.292-16.463 44.356-25.041 69.804-23.729.046 1.951.069 3.907.069 5.869 0 96.925-56.283 180.703-137.949 220.437 1.918-9.203-28.421-150.5-15.356-179.052z" fill="#57bd91"/><path d="M333.54 482.933c-8.088-.371-9.871-14.725-1.484-19.791 18.557-11.209 50.687-53.537 46.133-61.076-16.235-26.876-7.607-61.825 19.269-78.06s61.825-7.607 78.059 19.269a57.435 57.435 0 013.935 7.797c-27.93 61.934-80.852 110.171-145.912 131.861z" fill="#2cac8d"/><path d="M390 455.641c-38.507 25.204-84.542 39.859-134 39.859-135.31 0-245-109.69-245-245s109.69-245 245-245c49.458 0 95.493 14.655 134 39.859z" fill="#2740af"/><path d="M410 119.5v60c0 8.284-6.716 15-15 15H225c-8.284 0-15-6.716-15-15v-60c0-8.284 6.716-15 15-15h170c8.284 0 15 6.716 15 15zm-15 95H275c-8.284 0-15 6.716-15 15v60c0 8.284 6.716 15 15 15h120c8.284 0 15-6.716 15-15v-60c0-8.284-6.716-15-15-15zm-155 75v-60c0-8.284-6.716-15-15-15H15c-.466 0-.927.021-1.383.063A247.017 247.017 0 0011 250.5c0 18.554 2.063 36.626 5.971 54H225c8.284 0 15-6.716 15-15zm0-220v-60c0-1.191-.139-2.349-.401-3.459C174.927 10.315 117.114 39.684 75.807 84.5H225c8.284 0 15-6.716 15-15zm-15 365H94.227c39.412 34.678 90.057 56.894 145.773 60.485V449.5c0-8.284-6.716-15-15-15zm170 0H275c-8.284 0-15 6.716-15 15v45.968c55.988-.896 107.412-20.573 148.25-53.005-2.522-4.738-7.509-7.963-13.25-7.963zm0-110H225c-8.284 0-15 6.716-15 15v60c0 8.284 6.716 15 15 15h170c8.284 0 15-6.716 15-15v-60c0-8.284-6.716-15-15-15zm-205-145v-60c0-8.284-6.716-15-15-15H59.235c-19.632 26.414-34.07 56.917-41.805 90H175c8.284 0 15-6.716 15-15zM260.528 5.541A15.021 15.021 0 00260 9.5v60c0 8.284 6.716 15 15 15h120c8.284 0 15-6.716 15-15v-9.56C369.013 26.776 317.113 6.567 260.528 5.541zM190 399.5v-60c0-8.284-6.716-15-15-15H22.374c10.679 33.747 28.469 64.333 51.61 90H175c8.284 0 15-6.716 15-15z" fill="#4f66cf"/><path d="M320 354.5c0 5.523-4.477 10-10 10s-10-4.477-10-10 4.477-10 10-10 10 4.477 10 10zm60-230c-5.523 0-10 4.477-10 10s4.477 10 10 10 10-4.477 10-10-4.477-10-10-10zM355 392a7.5 7.5 0 100 15 7.5 7.5 0 000-15zm0-57.5a7.5 7.5 0 100 15 7.5 7.5 0 000-15zM305 132a7.5 7.5 0 10-15 0 7.5 7.5 0 0015 0zM202.5 59.5a7.5 7.5 0 100 15 7.5 7.5 0 000-15z" fill="#1f3595"/><path d="M255 139.5v20c0 8.284-6.716 15-15 15H110c-8.284 0-15-6.716-15-15v-20c0-8.284 6.716-15 15-15h130c8.284 0 15 6.716 15 15z" fill="#a1ade5"/><path d="M150 124.5h30l-20 50h-30zm60 0l-20 50h30l20-50z" fill="#b3d1e1"/><path d="M120 139.5a5 5 0 11-10.001-.001A5 5 0 01120 139.5zm115-5a5 5 0 10.001 10.001A5 5 0 00235 134.5zm-60 0a5 5 0 10.001 10.001A5 5 0 00175 134.5z" fill="#4f66cf"/><path d="M292.063 256.078c-13.897 46.642-40.999 86.844-77.706 116.172-37.596 30.039-82.328 45.916-129.357 45.916-5.522 0-10-4.477-10-10s4.478-10 10-10c77.496 0 146.742-48.429 178.849-122.869.921-2.135 4.292-2.663 5.151-4.84 2.367-5.999 2.016-13.785 3.895-20.09 1.578-5.292 7.142-8.308 12.439-6.728 5.293 1.577 8.306 7.146 6.729 12.439z" fill="#b3d1e1"/><path d="M320.761 185.644c-26.767 48.638-40.915 103.964-40.915 159.997V424.5c0 5.523-4.478 10-10 10s-10-4.477-10-10v-6.348c-42.028-.485-82.603-13.99-117.488-39.132-34.493-24.859-61.618-59.67-78.441-100.668-2.097-5.109.346-10.951 5.455-13.048 5.11-2.099 10.95.347 13.047 5.455 31.439 76.614 100.903 126.392 177.428 127.391v-40.172c-39.691-.705-76.798-19.277-104.711-52.479-28.042-33.357-43.486-77.634-43.486-124.675 0-5.523 4.478-10 10-10s10 4.477 10 10c0 85.757 57.339 155.693 128.281 157.153a354.13 354.13 0 014.222-47.348c-56.109-.78-101.517-46.961-101.517-103.616 0-5.523 4.478-10 10-10s10 4.477 10 10c0 46.112 37.215 83.626 82.959 83.626.77 0 1.519.087 2.239.252a353.51 353.51 0 018.415-31.745c-30.729-3.58-58.459-29.412-58.459-60.646 0-5.523 4.478-10 10-10s10 4.477 10 10c0 22.502 22.966 40.835 45.278 41.067a347.055 347.055 0 0120.173-43.565c2.663-4.839 8.744-6.602 13.582-3.939 4.837 2.662 6.601 8.743 3.938 13.581z" fill="#e3f0fb"/><path d="M232.215 180.823c0 46.946-14.623 91.151-41.175 124.472-26.813 33.649-62.601 52.331-100.886 52.699V424.5c0 5.523-4.478 10-10 10s-10-4.477-10-10v-78.858c0-56.033-14.148-111.359-40.915-159.997-2.663-4.838-.899-10.919 3.939-13.582 4.838-2.664 10.92-.899 13.582 3.939a347.1 347.1 0 0120.174 43.568l.065-.001c22.445 0 40.705-18.424 40.705-41.069 0-5.523 4.478-10 10-10s10 4.477 10 10c0 31.373-23.638 57.296-53.938 60.692 3.234 10.254 6 20.661 8.289 31.184 42.668-3.404 76.354-39.493 76.354-83.364 0-5.523 4.478-10 10-10s10 4.477 10 10c0 53.635-40.696 97.884-92.642 103.11a354.151 354.151 0 014.302 47.872c67.45-.736 122.144-70.958 122.144-157.17 0-5.523 4.478-10 10-10s10.002 4.476 10.002 9.999z" fill="#b3d1e1"/><path d="M320.968 195.145H20c-11.046 0-20-8.954-20-20v-5.161c0-11.046 8.954-20 20-20h300.968c11.046 0 20 8.954 20 20v5.161c0 11.046-8.955 20-20 20z" fill="#fc5426"/><path d="M330 195.145H76.452c-11.046 0-20-8.954-20-20v-5.161c0-11.046 8.954-20 20-20H330c11.046 0 20 8.954 20 20v5.161c0 11.046-8.954 20-20 20z" fill="#fc6930"/></svg>