<svg id="Capa_1" enable-background="new 0 0 501 501" height="512" viewBox="0 0 501 501" width="512" xmlns="http://www.w3.org/2000/svg"><g><path d="m5.509 247.132c-.006-.71-.009-1.42-.009-2.132 0-79.707 38.387-150.72 97.616-195.507 41.11-31.086 253.873-31.093 294.85-.161 59.243 44.72 97.534 115.723 97.534 195.668 0 6.588-.26 13.115-.77 19.571-1.194 15.103-13.947 26.677-29.097 26.677h-415.649c-24.422 0-44.267-19.694-44.475-44.116z" fill="#d63d24"/><path d="m409.971 59h-318.942c19.65-16.863 42.002-30.666 66.318-40.669 28.718-11.815 169.244-9.164 202.047 7.139 18.27 9.08 35.246 20.374 50.577 33.53zm44.346 50h-407.634c-14.192 21.226-25.156 44.793-32.19 70h472.015c-7.035-25.207-17.999-48.774-32.191-70zm36.824 182.248c2.861-14.977 4.359-30.438 4.359-46.248 0-5.375-.173-10.71-.514-16h-488.972c-.341 5.29-.514 10.625-.514 16v.474c.048 25.34 20.801 45.774 46.141 45.774z" fill="#ee4424"/><path d="m492 286.5c-19.714 115.545-120.336 203.5-241.5 203.5s-221.786-87.955-241.5-203.5z" fill="#f5dc90"/><path d="m264.5 369c0 5.523-4.477 10-10 10h-110c-5.523 0-10-4.477-10-10s4.477-10 10-10h110c5.523 0 10 4.477 10 10zm-90-50c0-5.523-4.477-10-10-10h-150.556c1.832 6.788 3.948 13.459 6.335 20h144.221c5.523 0 10-4.477 10-10zm80 130h-139.727c11.467 7.645 23.615 14.348 36.334 20h103.393c5.523 0 10-4.477 10-10s-4.477-10-10-10zm170-80h-110c-5.523 0-10 4.477-10 10s4.477 10 10 10h110c5.523 0 10-4.477 10-10s-4.477-10-10-10zm0-50c-5.523 0-10 4.477-10 10s4.477 10 10 10h52.319c2.715-6.529 5.155-13.2 7.307-20z" fill="#fbc56d"/><path d="m394.5 419h-30v-132.5h30z" fill="#f9eecf"/><path d="m425.743 260.065c1.802 5.221-.97 10.913-6.19 12.715-5.221 1.802-10.914-.97-12.716-6.19l-9.788-28.358c-1.802-5.221.969-10.914 6.19-12.715s10.914.97 12.715 6.19zm50.747-58.546-35.965-17.509c-4.966-2.417-10.951-.352-13.368 4.614-2.417 4.965-.352 10.951 4.614 13.368l35.965 17.508c4.966 2.417 10.951.352 13.368-4.614s.351-10.95-4.614-13.367zm11.156-68.608c-1.802-5.22-7.495-7.992-12.716-6.19l-28.358 9.788c-5.22 1.802-7.992 7.495-6.19 12.715s7.495 7.992 12.715 6.19l28.358-9.788c5.221-1.801 7.992-7.494 6.191-12.715z" fill="#fdc3ab"/><path d="m229.353.9c24.642 2.106 48.243 7.86 70.26 16.72l-10.916 107.077c-1.516 14.87-9.754 28.229-22.362 36.259l-190.22 121.163-28.402-44.589 52.22-76.371c16.629-24.319 40.431-42.846 68.088-52.997l-10.675-89.832c22.515-9.262 46.713-15.267 72.007-17.43z" fill="#d89c56"/><path d="m47.713 237.53 52.22-76.371c16.629-24.319 40.431-42.846 68.088-52.997l-10.675-89.832c6.719-2.764 13.589-5.238 20.593-7.407l14.259 89.683c1.488 9.357-3.03 18.694-11.366 23.198-30.536 16.498-64.041 38.922-82.214 69.696z" fill="#c78a51"/><path d="m190.157 209.479-114.042 72.64-28.402-44.589 52.221-76.37c5.906-8.638 12.718-16.544 20.285-23.605z" fill="#b3d1e1"/><path d="m47.713 237.53 52.221-76.371c5.906-8.638 12.717-16.544 20.285-23.604l15.092 15.52c-7.479 7.008-14.215 14.844-20.064 23.397l-52.221 76.371z" fill="#88b9d3"/><path d="m250.5 0c39.117 0 76.093 9.167 108.896 25.471l41.469 81.329c6.79 13.316 7.111 29.008.873 42.591l-94.125 204.952-48.042-22.063 2.464-92.484c.784-29.451 10.737-57.923 28.47-81.45l-122.151-144.235c25.679-9.137 53.332-14.111 82.146-14.111z" fill="#eabe8d"/><path d="m259.572 332.279 2.464-92.484c.784-29.451 10.737-57.923 28.47-81.45l-122.152-144.234c7.612-2.708 15.397-5.051 23.335-7.007l120.113 141.827c-17.733 23.526-27.686 51.999-28.47 81.45l-2.464 92.484z" fill="#e3ac6e"/><path d="m364.044 231.469-56.43 122.874-48.042-22.063 2.464-92.484c.279-10.46 1.714-20.797 4.244-30.832z" fill="#e3f0fb"/><path d="m259.572 332.279 2.464-92.484c.279-10.46 1.714-20.796 4.244-30.833l18.977 4.369c-1.792 8.418-2.823 17.023-3.055 25.714l-2.464 92.484z" fill="#b3d1e1"/><path d="m125.175 248.485c2.43 3.563 2.104 8.325-.788 11.523l-33.518 37.06c-22.606-21.134-41.206-46.5-54.536-74.834l22.07-15.055c4.26-2.906 10.068-1.808 12.974 2.451l3.288 4.821c3.096 4.539 8.034 7.483 13.499 8.05l16.446 1.705c2.732.284 5.201 1.756 6.75 4.025zm205.422 50.995-22.591-9.526c-2.531-1.067-5.404-.965-7.854.278l-14.743 7.485c-4.899 2.487-10.645 2.691-15.708.556l-5.377-2.267c-4.751-2.003-10.227.224-12.23 4.975l-13.527 32.081c27.788 12.328 58.297 19.637 90.376 20.779l7.239-44.252c.697-4.255-1.612-8.434-5.585-10.109z" fill="#1f3595"/><path d="m60.223 228.54c-3.164-5.547-21.158-.499-23.89-6.306l22.07-15.055c4.26-2.906 10.068-1.808 12.974 2.451l3.288 4.821c.743 1.089 1.593 2.087 2.53 2.982zm212.809 70.783c-1.132-.243-2.247-.593-3.331-1.05l-5.377-2.267c-4.751-2.003-10.227.224-12.23 4.975l-13.527 32.081c5.666 2.514 11.444 4.818 17.326 6.905z" fill="#172a7d"/><path d="m119.948 408.884c1.887 8.273.869 16.718-2.561 24.079-4.694 2.92-9.525 5.46-14.456 7.626-59.184-44.723-97.431-115.69-97.431-195.589 0-.58.002-1.159.006-1.738l28.628-19.528c10.786-2.2 58.45 65.167 58.45 65.167zm120.733-80.833-34.374 81.521c-.001.394.001.787.004 1.18l153.445 64.701 44.163 12.843c8.057-8.54 14.911-18.457 20.168-29.593-1.11-8.044-4.834-15.692-10.905-21.62l-88.053-85.973s-76.578-30.756-84.448-23.059z" fill="#2740af"/><path d="m5.5 245c0-.58.002-1.159.006-1.738l52.199-35.606 10.003 15.779-61.379 41.868c-.549-6.695-.829-13.466-.829-20.303zm263.228 64.594-16.961-7.834-36.831 87.347 17.205 7.255z" fill="#172a7d"/><path d="m119.948 408.884c3.023 13.253-1.41 26.949-11.269 35.919-30.351-21.582-55.573-49.907-73.482-82.79l9.028 1.564c4.404.763 8.389 3.081 11.229 6.532l27.316 33.187c9.137 11.103 25.182 13.514 37.178 5.588zm293.235 28.199c-5.782 13.165-20.57 19.839-34.267 15.466l-40.947-13.072c-4.258-1.359-8.863-1.146-12.977.601l-24.478 10.394 59.243 24.98 56.077 16.308 5.671-13.449c5.965-14.146 2.663-30.502-8.322-41.228zm-154.448 4.34-28.273-11.922c-15.267-6.437-22.425-24.032-15.987-39.299l4.667-11.068 17.205 7.255c21.379 9.015 31.403 33.655 22.388 55.034z" fill="#0191f8"/><path d="m219.142 379.134 17.205 7.255-16.323 38.711-13.298-5.607c-.283-3.289-.423-6.599-.418-9.921z" fill="#0280e3"/><path d="m95.303 302.641-68.26-76.53c-.938-1.051-.737-2.688.427-3.482l15.392-10.5c.968-.661 2.277-.5 3.057.375l63.257 70.921c.699.783.788 1.937.22 2.819l-10.389 16.109c-.836 1.296-2.677 1.439-3.704.288zm239.561 58.539-98.852-27.287c-1.358-.375-2.077-1.858-1.53-3.157l7.239-17.169c.456-1.08 1.642-1.655 2.772-1.343l91.607 25.287c1.012.279 1.713 1.2 1.713 2.249l.006 19.169c.001 1.543-1.468 2.662-2.955 2.251z" fill="#0191f8"/><path d="m40.941 241.693-13.898-15.582c-.938-1.051-.737-2.688.427-3.482l15.392-10.5c.968-.661 2.277-.5 3.057.375l14.303 16.036zm224.267 76.25-20.714-5.718c-1.13-.312-2.316.263-2.772 1.343l-7.239 17.169c-.547 1.298.171 2.782 1.53 3.157l20.127 5.556z" fill="#314dc8"/><path d="m372.514 476.753 45.34 10.216-3.509 8.322c-1.531 3.631-5.178 5.91-9.113 5.695l-6.342-.347c-32.178-1.762-63.811-9.064-93.506-21.585l-92.23-38.89c-2.132-.899-3.132-3.357-2.233-5.489l8.475-20.099 129.49 54.601c7.636 3.219 15.543 5.755 23.628 7.576z" fill="#b3d1e1"/><path d="m197.936 428.59c3.507-9.489 8.555-19.455 8.555-19.455l17.205 7.255-10.103 23.96-12.9-5.44c-2.456-1.036-3.681-3.82-2.757-6.32z" fill="#88b9d3"/><path d="m88.802 322.058c-2.718 1.854-6.45.39-7.182-2.818-.427-1.871.335-3.813 1.921-4.894l12.847-8.764.159.345c1.365 2.958 2.071 6.177 2.071 9.435zm16.508 22.643-12.847 8.764c-1.585 1.081-2.347 3.023-1.921 4.894.732 3.208 4.464 4.672 7.182 2.818l9.817-6.696.011-.174c.211-3.353-.569-6.693-2.242-9.606zm-2.23-9.78c.22-3.375-.539-6.743-2.185-9.698l-.046-.082-12.847 8.764c-1.585 1.081-2.347 3.023-1.921 4.894.732 3.208 4.464 4.672 7.182 2.818zm241.468 35.149c-1.763-2.684-4.062-4.976-6.752-6.73l-.426-.278-6.042 14.33c-.746 1.768-.333 3.813 1.04 5.154 2.354 2.299 6.284 1.505 7.562-1.526zm21.532 21.023-6.042 14.33c-.746 1.768-.333 3.813 1.04 5.154 2.354 2.299 6.284 1.505 7.562-1.526l4.617-10.949c-1.846-2.76-4.238-5.112-7.029-6.912zm-7.178-7.008-.001-.002c-1.856-2.827-4.305-5.218-7.176-7.006l-6.042 14.33c-.746 1.768-.333 3.813 1.04 5.154 2.354 2.299 6.284 1.505 7.562-1.526zm42.987 116.718 3.343.183c3.935.216 7.582-2.063 9.113-5.695l3.509-8.322-9.253-2.085zm-21.232-22.215-8.143-1.835c-.37-.083-.739-.168-1.108-.254l-8.368 19.846c3.144.584 6.298 1.114 9.461 1.591zm18.599 4.191-9.253-2.085-7.813 18.528c3.236.372 6.481.688 9.732.948zm-81.886 1.006 9.942-23.578-8.603-3.627-10.048 23.831c2.885 1.173 5.789 2.299 8.709 3.374zm27.279-16.396-8.603-3.627-9.757 23.14c2.97.982 5.955 1.914 8.954 2.795zm-.238 24.833c3.055.786 6.123 1.521 9.203 2.203l8.605-20.407c-2.982-.915-5.934-1.93-8.849-3.042zm-60.284-50.224-10.057 23.851 8.603 3.627 10.057-23.851zm17.291 7.291-10.057 23.851 8.603 3.627 10.057-23.851zm-51.873-21.873-10.057 23.851 8.603 3.627 10.057-23.851zm-17.291-7.291-10.057 23.851 8.603 3.627 10.057-23.851zm34.582 14.582-10.057 23.851 8.603 3.627 10.057-23.851z" fill="#fff5f5"/><path d="m297.531 375.533c0 10.482-8.497 18.98-18.98 18.98-10.482 0-18.979-8.497-18.979-18.98s8.497-18.979 18.979-18.979c10.482-.001 18.98 8.497 18.98 18.979z" fill="#88b9d3"/><path d="m297.53 375.533c0 2.802-.607 5.463-1.698 7.857-2.394 1.09-5.054 1.698-7.857 1.698-10.482 0-18.979-8.498-18.979-18.979 0-2.803.607-5.463 1.698-7.857 2.394-1.09 5.054-1.698 7.857-1.698 10.482-.001 18.979 8.497 18.979 18.979z" fill="#b3d1e1"/><path d="m267.145 195.486c-3.385-.044-5.711-3.474-4.441-6.613.054-.135.109-.269.164-.404 8.655-21.239 4.519-45.536-11.102-62.328l-23.517-25.282c-2.503-2.69-1.211-7.079 2.35-7.984l145.041-36.875c5.342-1.358 10.977.624 14.293 5.027l20.397 27.085c8.944 15.69 10.215 34.611 3.449 51.356l-19.773 48.941c-2.112 5.228-7.217 8.624-12.856 8.551z" fill="#e3f0fb"/><path d="m291.138 150.689 112.323 14.319-7.085 17.538-105.026-20.291c-.209 18.452-2.822 33.507-2.822 33.507l-21.383-.276c-3.385-.044-5.711-3.475-4.441-6.613.054-.134.109-.269.164-.404 8.655-21.239 4.519-45.535-11.102-62.328l-23.517-25.282c-2.503-2.69-1.211-7.079 2.35-7.984l28.448-7.232 17.75 19.082c4.761 5.118 8.062 11.969 10.302 19.626l117.785-43.473 5.448 7.234c1.775 3.114 3.248 6.355 4.415 9.682l-125.777 34.302c1.188 6.046 1.855 12.372 2.168 18.593z" fill="#b3d1e1"/><path d="m261.919 244.177.117-4.382c.143-5.361.59-10.69 1.333-15.963l94.177 21.787-8.585 18.695zm-100.61-16.323 17.546-11.176-70.813-66.245c-2.862 3.435-5.57 7.013-8.109 10.728l-3.869 5.658z" fill="#8694dd"/><path d="m282.893 228.348c-.365 3.546-.596 7.114-.692 10.697l-.26 9.764-20.021-4.632.117-4.382c.143-5.362.59-10.69 1.333-15.963zm-174.85-77.915c-2.863 3.435-5.57 7.013-8.11 10.727l-3.869 5.658 15.724 14.71 3.457-5.056c2.677-3.914 5.539-7.678 8.574-11.281z" fill="#4f66cf"/></g></svg>