<svg height="512" viewBox="0 0 501 501" width="512" xmlns="http://www.w3.org/2000/svg"><path d="M5.509 247.132c-.006-.71-.009-1.42-.009-2.132 0-79.707 38.387-150.72 97.616-195.507 41.11-31.086 253.873-31.093 294.85-.161C457.209 94.052 495.5 165.055 495.5 245c0 6.588-.26 13.115-.77 19.571-1.194 15.103-13.947 26.677-29.097 26.677H49.984c-24.422 0-44.267-19.694-44.475-44.116z" fill="#d63d24"/><path d="M409.971 59H91.029c19.65-16.863 42.002-30.666 66.318-40.669 28.718-11.815 169.244-9.164 202.047 7.139A245.39 245.39 0 01409.971 59zm44.346 50H46.683a243.819 243.819 0 00-32.19 70h472.015a243.848 243.848 0 00-32.191-70zm36.824 182.248A246.311 246.311 0 00495.5 245c0-5.375-.173-10.71-.514-16H6.014a248.702 248.702 0 00-.514 16v.474c.048 25.34 20.801 45.774 46.141 45.774z" fill="#ee4424"/><path d="M492 286.5C472.286 402.045 371.664 490 250.5 490S28.714 402.045 9 286.5z" fill="#f5dc90"/><path d="M264.5 369c0 5.523-4.477 10-10 10h-110c-5.523 0-10-4.477-10-10s4.477-10 10-10h110c5.523 0 10 4.477 10 10zm-90-50c0-5.523-4.477-10-10-10H13.944a243.14 243.14 0 006.335 20H164.5c5.523 0 10-4.477 10-10zm80 130H114.773a244.464 244.464 0 0036.334 20H254.5c5.523 0 10-4.477 10-10s-4.477-10-10-10zm170-80h-110c-5.523 0-10 4.477-10 10s4.477 10 10 10h110c5.523 0 10-4.477 10-10s-4.477-10-10-10zm0-50c-5.523 0-10 4.477-10 10s4.477 10 10 10h52.319a243.165 243.165 0 007.307-20z" fill="#fbc56d"/><path d="M394.5 419h-30V286.5h30z" fill="#f9eecf"/><path d="M425.743 260.065c1.802 5.221-.97 10.913-6.19 12.715-5.221 1.802-10.914-.97-12.716-6.19l-9.788-28.358c-1.802-5.221.969-10.914 6.19-12.715s10.914.97 12.715 6.19zm50.747-58.546l-35.965-17.509c-4.966-2.417-10.951-.352-13.368 4.614-2.417 4.965-.352 10.951 4.614 13.368l35.965 17.508c4.966 2.417 10.951.352 13.368-4.614s.351-10.95-4.614-13.367zm11.156-68.608c-1.802-5.22-7.495-7.992-12.716-6.19l-28.358 9.788c-5.22 1.802-7.992 7.495-6.19 12.715s7.495 7.992 12.715 6.19l28.358-9.788c5.221-1.801 7.992-7.494 6.191-12.715z" fill="#fdc3ab"/><path d="M229.353.9a243.536 243.536 0 0170.26 16.72l-10.916 107.077a48.864 48.864 0 01-22.362 36.259L76.115 282.119 47.713 237.53l52.22-76.371a141.583 141.583 0 0168.088-52.997L157.346 18.33C179.861 9.068 204.059 3.063 229.353.9z" fill="#d89c56"/><path d="M47.713 237.53l52.22-76.371a141.583 141.583 0 0168.088-52.997L157.346 18.33a243.355 243.355 0 0120.593-7.407l14.259 89.683c1.488 9.357-3.03 18.694-11.366 23.198-30.536 16.498-64.041 38.922-82.214 69.696z" fill="#c78a51"/><path d="M190.157 209.479l-114.042 72.64-28.402-44.589 52.221-76.37a141.579 141.579 0 0120.285-23.605z" fill="#b3d1e1"/><path d="M47.713 237.53l52.221-76.371a141.485 141.485 0 0120.285-23.604l15.092 15.52a141.592 141.592 0 00-20.064 23.397l-52.221 76.371z" fill="#88b9d3"/><path d="M250.5 0c39.117 0 76.093 9.167 108.896 25.471l41.469 81.329a48.866 48.866 0 01.873 42.591l-94.125 204.952-48.042-22.063 2.464-92.484a141.58 141.58 0 0128.47-81.45L168.354 14.111C194.033 4.974 221.686 0 250.5 0z" fill="#eabe8d"/><path d="M259.572 332.279l2.464-92.484a141.58 141.58 0 0128.47-81.45L168.354 14.111a243.243 243.243 0 0123.335-7.007l120.113 141.827a141.577 141.577 0 00-28.47 81.45l-2.464 92.484z" fill="#e3ac6e"/><path d="M364.044 231.469l-56.43 122.874-48.042-22.063 2.464-92.484a141.549 141.549 0 014.244-30.832z" fill="#e3f0fb"/><path d="M259.572 332.279l2.464-92.484a141.575 141.575 0 014.244-30.833l18.977 4.369a141.643 141.643 0 00-3.055 25.714l-2.464 92.484z" fill="#b3d1e1"/><path d="M125.175 248.485a9.336 9.336 0 01-.788 11.523l-33.518 37.06c-22.606-21.134-41.206-46.5-54.536-74.834l22.07-15.055a9.337 9.337 0 0112.974 2.451l3.288 4.821a18.671 18.671 0 0013.499 8.05l16.446 1.705a9.343 9.343 0 016.75 4.025zm205.422 50.995l-22.591-9.526a9.34 9.34 0 00-7.854.278l-14.743 7.485a18.673 18.673 0 01-15.708.556l-5.377-2.267c-4.751-2.003-10.227.224-12.23 4.975l-13.527 32.081c27.788 12.328 58.297 19.637 90.376 20.779l7.239-44.252a9.334 9.334 0 00-5.585-10.109z" fill="#1f3595"/><path d="M60.223 228.54c-3.164-5.547-21.158-.499-23.89-6.306l22.07-15.055a9.337 9.337 0 0112.974 2.451l3.288 4.821a18.694 18.694 0 002.53 2.982zm212.809 70.783a18.647 18.647 0 01-3.331-1.05l-5.377-2.267c-4.751-2.003-10.227.224-12.23 4.975l-13.527 32.081a243.374 243.374 0 0017.326 6.905z" fill="#172a7d"/><path d="M119.948 408.884a37.31 37.31 0 01-2.561 24.079 114.67 114.67 0 01-14.456 7.626C43.747 395.866 5.5 324.899 5.5 245c0-.58.002-1.159.006-1.738l28.628-19.528c10.786-2.2 58.45 65.167 58.45 65.167zm120.733-80.833l-34.374 81.521c-.001.394.001.787.004 1.18l153.445 64.701 44.163 12.843a113.914 113.914 0 0020.168-29.593 37.318 37.318 0 00-10.905-21.62l-88.053-85.973s-76.578-30.756-84.448-23.059z" fill="#2740af"/><path d="M5.5 245c0-.58.002-1.159.006-1.738l52.199-35.606 10.003 15.779-61.379 41.868A248.384 248.384 0 015.5 245zm263.228 64.594l-16.961-7.834-36.831 87.347 17.205 7.255z" fill="#172a7d"/><path d="M119.948 408.884a37.347 37.347 0 01-11.269 35.919c-30.351-21.582-55.573-49.907-73.482-82.79l9.028 1.564a18.671 18.671 0 0111.229 6.532l27.316 33.187c9.137 11.103 25.182 13.514 37.178 5.588zm293.235 28.199c-5.782 13.165-20.57 19.839-34.267 15.466l-40.947-13.072a18.675 18.675 0 00-12.977.601l-24.478 10.394 59.243 24.98 56.077 16.308 5.671-13.449a37.344 37.344 0 00-8.322-41.228zm-154.448 4.34l-28.273-11.922c-15.267-6.437-22.425-24.032-15.987-39.299l4.667-11.068 17.205 7.255c21.379 9.015 31.403 33.655 22.388 55.034z" fill="#0191f8"/><path d="M219.142 379.134l17.205 7.255-16.323 38.711-13.298-5.607a113.728 113.728 0 01-.418-9.921z" fill="#0280e3"/><path d="M95.303 302.641l-68.26-76.53a2.334 2.334 0 01.427-3.482l15.392-10.5a2.333 2.333 0 013.057.375l63.257 70.921c.699.783.788 1.937.22 2.819l-10.389 16.109a2.335 2.335 0 01-3.704.288zm239.561 58.539l-98.852-27.287a2.335 2.335 0 01-1.53-3.157l7.239-17.169a2.335 2.335 0 012.772-1.343l91.607 25.287a2.333 2.333 0 011.713 2.249l.006 19.169a2.333 2.333 0 01-2.955 2.251z" fill="#0191f8"/><path d="M40.941 241.693l-13.898-15.582a2.334 2.334 0 01.427-3.482l15.392-10.5a2.333 2.333 0 013.057.375l14.303 16.036zm224.267 76.25l-20.714-5.718a2.335 2.335 0 00-2.772 1.343l-7.239 17.169a2.334 2.334 0 001.53 3.157l20.127 5.556z" fill="#314dc8"/><path d="M372.514 476.753l45.34 10.216-3.509 8.322a9.337 9.337 0 01-9.113 5.695l-6.342-.347a280.083 280.083 0 01-93.506-21.585l-92.23-38.89a4.19 4.19 0 01-2.233-5.489l8.475-20.099 129.49 54.601a140.043 140.043 0 0023.628 7.576z" fill="#b3d1e1"/><path d="M197.936 428.59c3.507-9.489 8.555-19.455 8.555-19.455l17.205 7.255-10.103 23.96-12.9-5.44c-2.456-1.036-3.681-3.82-2.757-6.32z" fill="#88b9d3"/><path d="M88.802 322.058c-2.718 1.854-6.45.39-7.182-2.818a4.666 4.666 0 011.921-4.894l12.847-8.764.159.345a22.517 22.517 0 012.071 9.435zm16.508 22.643l-12.847 8.764a4.67 4.67 0 00-1.921 4.894c.732 3.208 4.464 4.672 7.182 2.818l9.817-6.696.011-.174a17.127 17.127 0 00-2.242-9.606zm-2.23-9.78a17.581 17.581 0 00-2.185-9.698l-.046-.082-12.847 8.764a4.67 4.67 0 00-1.921 4.894c.732 3.208 4.464 4.672 7.182 2.818zm241.468 35.149a23.317 23.317 0 00-6.752-6.73l-.426-.278-6.042 14.33a4.668 4.668 0 001.04 5.154c2.354 2.299 6.284 1.505 7.562-1.526zm21.532 21.023l-6.042 14.33a4.668 4.668 0 001.04 5.154c2.354 2.299 6.284 1.505 7.562-1.526l4.617-10.949a24.3 24.3 0 00-7.029-6.912zm-7.178-7.008l-.001-.002a23.354 23.354 0 00-7.176-7.006l-6.042 14.33a4.668 4.668 0 001.04 5.154c2.354 2.299 6.284 1.505 7.562-1.526zm42.987 116.718l3.343.183a9.335 9.335 0 009.113-5.695l3.509-8.322-9.253-2.085zm-21.232-22.215l-8.143-1.835c-.37-.083-.739-.168-1.108-.254l-8.368 19.846a282.35 282.35 0 009.461 1.591zm18.599 4.191l-9.253-2.085-7.813 18.528c3.236.372 6.481.688 9.732.948zm-81.886 1.006l9.942-23.578-8.603-3.627-10.048 23.831a279.536 279.536 0 008.709 3.374zm27.279-16.396l-8.603-3.627-9.757 23.14a279.2 279.2 0 008.954 2.795zm-.238 24.833c3.055.786 6.123 1.521 9.203 2.203l8.605-20.407a140.303 140.303 0 01-8.849-3.042zm-60.284-50.224l-10.057 23.851 8.603 3.627 10.057-23.851zm17.291 7.291l-10.057 23.851 8.603 3.627 10.057-23.851zm-51.873-21.873l-10.057 23.851 8.603 3.627 10.057-23.851zm-17.291-7.291l-10.057 23.851 8.603 3.627 10.057-23.851zm34.582 14.582l-10.057 23.851 8.603 3.627 10.057-23.851z" fill="#fff5f5"/><path d="M297.531 375.533c0 10.482-8.497 18.98-18.98 18.98-10.482 0-18.979-8.497-18.979-18.98s8.497-18.979 18.979-18.979c10.482-.001 18.98 8.497 18.98 18.979z" fill="#88b9d3"/><path d="M297.53 375.533a18.9 18.9 0 01-1.698 7.857 18.911 18.911 0 01-7.857 1.698c-10.482 0-18.979-8.498-18.979-18.979 0-2.803.607-5.463 1.698-7.857a18.911 18.911 0 017.857-1.698c10.482-.001 18.979 8.497 18.979 18.979z" fill="#b3d1e1"/><path d="M267.145 195.486c-3.385-.044-5.711-3.474-4.441-6.613l.164-.404c8.655-21.239 4.519-45.536-11.102-62.328l-23.517-25.282c-2.503-2.69-1.211-7.079 2.35-7.984L375.64 56a13.675 13.675 0 0114.293 5.027l20.397 27.085a59.04 59.04 0 013.449 51.356l-19.773 48.941a13.674 13.674 0 01-12.856 8.551z" fill="#e3f0fb"/><path d="M291.138 150.689l112.323 14.319-7.085 17.538-105.026-20.291c-.209 18.452-2.822 33.507-2.822 33.507l-21.383-.276c-3.385-.044-5.711-3.475-4.441-6.613l.164-.404c8.655-21.239 4.519-45.535-11.102-62.328l-23.517-25.282c-2.503-2.69-1.211-7.079 2.35-7.984l28.448-7.232 17.75 19.082c4.761 5.118 8.062 11.969 10.302 19.626l117.785-43.473 5.448 7.234a58.95 58.95 0 014.415 9.682L288.97 132.096c1.188 6.046 1.855 12.372 2.168 18.593z" fill="#b3d1e1"/><path d="M261.919 244.177l.117-4.382c.143-5.361.59-10.69 1.333-15.963l94.177 21.787-8.585 18.695zm-100.61-16.323l17.546-11.176-70.813-66.245a141.417 141.417 0 00-8.109 10.728l-3.869 5.658z" fill="#8694dd"/><path d="M282.893 228.348a141.475 141.475 0 00-.692 10.697l-.26 9.764-20.021-4.632.117-4.382c.143-5.362.59-10.69 1.333-15.963zm-174.85-77.915a141.612 141.612 0 00-8.11 10.727l-3.869 5.658 15.724 14.71 3.457-5.056a141.516 141.516 0 018.574-11.281z" fill="#4f66cf"/></svg>