<svg height="512" viewBox="0 0 501 501" width="512" xmlns="http://www.w3.org/2000/svg"><path d="M495.5 256c0 135.31-109.69 245-245 245S5.5 391.31 5.5 256s109.69-245 245-245 245 109.69 245 245z" fill="#f4aa39"/><path d="M493.821 227.168C479.552 348.891 376.055 443.336 250.5 443.336S21.448 348.891 7.179 227.168C21.448 105.445 124.945 11 250.5 11s229.052 94.445 243.321 216.168z" fill="#f5c02c"/><path d="M250.5 0c102.173 0 185 82.827 185 185s-82.827 185-185 185-185-82.827-185-185S148.327 0 250.5 0z" fill="#4f66cf"/><path d="M89.845 276.795C74.355 249.744 65.5 218.406 65.5 185c0-102.173 82.827-185 185-185 33.406 0 64.744 8.855 91.795 24.345-135.468 8.622-243.828 116.982-252.45 252.45z" fill="#2740af"/><path d="M285.249 271.521c5.369-45.931-6.437-87.127-33.302-116.769-52.34 47.277-92.465 107.834-115.009 176.302a185.973 185.973 0 01-16.379-14.371 430.663 430.663 0 019.709-25.137c21.643-51.215 52.632-97.198 92.105-136.672a438.392 438.392 0 0114.736-14.067c-24.171-19.31-55.032-29.459-89.399-29.459-6.986 0-14.119.419-21.368 1.267-17.213 2.012-34.351 6.339-51.032 12.787a183.898 183.898 0 0110.471-24.706c12.608-3.773 25.398-6.445 38.238-7.945 49.741-5.813 94.823 6.487 128.404 34.747a426.96 426.96 0 0148.579-34.834c-23.56-27.98-42.209-59.201-55.507-92.596a187.575 187.575 0 0122.199.721c12.9 29.779 30.2 57.226 51.075 81.516a430.84 430.84 0 0140.276-19.537 431.137 431.137 0 0122.189-8.663c5.14 5.134 9.98 10.57 14.49 16.277a407.837 407.837 0 00-62.86 27.292c28.886 29.52 63.425 53.488 101.846 70.132a187.236 187.236 0 01.722 22.197c-42.359-16.867-81.219-42.344-114.405-75.531a349.571 349.571 0 01-6.281-6.446 412.092 412.092 0 00-47.632 33.678c30.563 33.936 44.031 80.531 37.999 132.139-3.821 32.695-15.228 65.068-33.106 94.92a187.138 187.138 0 01-24.47 1.213c20.65-30.537 33.726-64.349 37.712-98.455z" fill="#172a7d"/><path d="M301.994 495.579l4.318-73.07c-4.075-21.382-7.32-46.421-9.226-73.269-2.955-41.629-2.11-79.408 1.633-106.246 2.243-16.083 24.796-17.684 29.289-2.08 5.172 17.962 9.713 41.273 13.004 67.67l51.831-88.553 12.078-60.392a9.999 9.999 0 019.095-8.013 30.064 30.064 0 0130.284 19.431l15.833 42.223a49.998 49.998 0 01.51 33.686L415.304 380l-.12-.039 2.926 54.734c-31.882 29.917-71.776 51.4-116.116 60.884zM172.993 240.915c-5.172 17.962-9.713 41.273-13.004 67.67l-51.831-88.553L96.08 159.64a9.999 9.999 0 00-9.095-8.013 30.064 30.064 0 00-30.284 19.431L40.867 213.28a49.998 49.998 0 00-.51 33.686L85.696 380l.12-.039-2.926 54.734c31.884 29.917 71.777 51.4 116.117 60.884l-4.318-73.07c4.075-21.382 7.32-46.421 9.226-73.269 2.955-41.629 2.11-79.408-1.633-106.246-2.243-16.082-24.796-17.683-29.289-2.079z" fill="#a95947"/><path d="M438.438 228.095l-23.095 83.239c-2.05 10.844-16.583 5.015-15.537-2.304 2.007-14.041 9.904-52.952 14.813-76.7.468-2.264-2.592-3.443-3.765-1.451l-48.26 81.948c-5.6 9.51-19.97 6.923-21.963-3.932l-.057-.309 52.268-88.553 12.078-60.392c.877-4.387 4.562-7.673 9.023-8.008.454-.034.907-.056 1.359-.069.242-3.931 1.416-8.065 4.752-9.813 14.749-7.726 18.25 6.097 18.478 7.628l3.338 43.424a102.587 102.587 0 01-3.432 35.292zm-115.322 14.899c.375-2.687 1.317-4.969 2.647-6.835-7.226-10.279-25.063-7.375-27.045 6.835-3.743 26.838-4.588 64.617-1.633 106.246 1.906 26.848 5.151 51.887 9.226 73.269l-4.318 73.07a243.333 243.333 0 0024.794-6.689l3.922-66.38c-4.075-21.382-7.32-46.421-9.226-73.269-2.955-41.63-2.11-79.409 1.633-106.247zm-256.759 3.972a49.991 49.991 0 01-1.015-28.896c.757-1.782 1.242-2.903 1.242-2.903l1.101-4.064 15.017-40.045a30.019 30.019 0 0112.019-14.813 9.998 9.998 0 00-7.735-4.618 30.09 30.09 0 00-4.545.02c-.23-3.956-1.397-8.137-4.757-9.896-14.749-7.726-18.25 6.097-18.478 7.628l-3.712 24.903-14.627 38.998a49.998 49.998 0 00-.51 33.686L85.696 380l.12-.039-2.926 54.734a246.272 246.272 0 0024.905 20.476l4.021-75.21-.12.039zm106.636-6.051c-5.172 17.962-9.713 41.273-13.004 67.67 0 0-.74 17.165 8.078 18.949 7.714 1.561 17.252-21.46 21.111-50.267 2.689-20.07 1.953-37.904-1.379-47.229-6.266-.175-12.638 3.348-14.806 10.877z" fill="#7d402d"/><path d="M325.87 306.619l-9.929 1.187a5 5 0 11-1.187-9.929l9.929-1.187a5 5 0 111.187 9.929zm-12.302-18.672l9.929-1.187a5 5 0 10-1.187-9.93l-9.929 1.187a5 5 0 101.187 9.93zm-127.322 9.929l-9.929-1.187a5 5 0 10-1.187 9.93l9.929 1.187a5 5 0 001.187-9.93zm2.373-19.858l-9.929-1.187a5 5 0 00-1.187 9.93l9.929 1.187a5.001 5.001 0 001.187-9.93z" fill="#533022"/><path d="M317.52 257.63l-7.237.224c-4.049.125-7.221-3.47-6.59-7.472.202-1.281.413-2.527.631-3.737 1.81-10.022 16.027-10.461 18.452-.569.293 1.194.58 2.425.86 3.691.878 3.955-2.066 7.738-6.116 7.863zm-120.845-10.985c-1.81-10.022-16.027-10.461-18.452-.569-.293 1.194-.58 2.425-.86 3.691-.877 3.955 2.067 7.738 6.117 7.863l7.237.224c4.049.125 7.221-3.47 6.59-7.472a173.363 173.363 0 00-.632-3.737z" fill="#e1a595"/></svg>