<svg id="Capa_1" enable-background="new 0 0 501 501" height="512" viewBox="0 0 501 501" width="512" xmlns="http://www.w3.org/2000/svg"><g><path d="m489.923 256c0 135.31-109.673 245-244.961 245s-244.962-109.69-244.962-245 109.673-245 244.961-245 244.962 109.69 244.962 245z" fill="#63bcfa"/><path d="m458.927 310c0 5.523-4.476 10-9.998 10-22.053 0-39.994-17.944-39.994-40 0-5.523 4.476-10 9.998-10s9.998 4.477 9.998 10c0 11.028 8.971 20 19.997 20 5.523 0 9.999 4.477 9.999 10zm-267.028 102.929c-3.905 3.905-3.905 10.237 0 14.142 3.905 3.906 10.235 3.906 14.14 0 7.797-7.798 20.483-7.798 28.28 0 3.905 3.906 10.235 3.906 14.14 0 3.905-3.905 3.905-10.237 0-14.142-15.594-15.596-40.967-15.596-56.56 0z" fill="#05a2f9"/><path d="m244.961 501c-33.638 0-65.693-6.782-94.872-19.052l-19.344-79.45c-8.919-6.245-18.205-13.197-27.599-20.725-7.059-5.656-13.788-11.322-20.108-16.905l134.316-39.414c.274 7.283.405 14.824.379 22.547-.063 18.687-1.039 36.301-2.711 51.78l34.232 101.182c-1.429.024-2.859.037-4.293.037z" fill="#954d3b"/><path d="m183.685 493.272c-11.55-2.975-22.771-6.772-33.596-11.324l-19.344-79.45c-8.919-6.245-18.205-13.197-27.6-20.725-7.059-5.655-13.788-11.322-20.108-16.905l28.782-8.446c6.32 5.583 13.049 11.25 20.108 16.906 9.394 7.527 18.68 14.479 27.599 20.724z" fill="#7d402d"/><path d="m267.669 193.455-10.079 18.453c-3.992 7.307-12.273 11.031-20.443 9.432-27.983-5.477-71.298 6.657-93.792 25.79 33.567 25.138 66.099 83.169 42.998 142.383-4.121 10.563-16.663 15.028-26.613 9.592l-18.449-10.081c-7.306-3.992-11.03-12.275-9.431-20.447 6.463-33.035-11.604-87.433-36.757-103.734-16.249 23.456-48.969 47.152-87.364 52.492-5.002-19.409-7.686-39.749-7.739-60.708 31.065-3.789 65.887-19.669 76.718-39.5 0 0 .019.001.057.004-21.055-19.582-39.736-51.447-41.818-87.335 11.737-19.495 26.111-37.222 42.628-52.688l10.019 5.475c7.306 3.992 11.03 12.274 9.431 20.446-5.67 28.983 7.541 74.41 27.853 96.126 28.408-29.219 80.327-52.948 133.19-32.318 10.562 4.122 15.027 16.667 9.591 26.618z" fill="#fc5426"/><path d="m265.396 287.212-18.304 10.342c-7.249 4.096-16.247 2.883-22.34-2.792-20.868-19.435-64.055-32.017-93.26-27.654 15.225 39.079 12.198 105.54-38.691 143.614-9.078 6.792-22.086 3.957-27.663-5.916l-10.34-18.306c-4.095-7.25-2.882-16.25 2.791-22.343 22.935-24.636 36.326-80.37 23.578-107.5-21.156 9.155-51.525 12.764-81.091 5.505-.05-2.049-.076-4.102-.076-6.162 0-19.203 2.209-37.889 6.387-55.82 28.186 12.632 65.076 17.152 84.372 6.248 0 0 .016.012.046.034-10.764-39.642-4.176-98.008 42.254-132.745 9.078-6.792 22.086-3.957 27.663 5.916l10.341 18.307c4.095 7.25 2.882 16.25-2.791 22.344-20.122 21.613-32.897 67.165-27.12 96.335 39.553-9.801 96.17-2.519 130.16 42.926 6.79 9.079 3.955 22.089-5.916 27.667z" fill="#c64b1a"/><path d="m252.814 325.064c2.559 11.047-5.276 21.813-16.557 22.94l-20.919 2.092c-8.284.828-16.031-3.907-19.323-11.556-11.273-26.195-45.734-55.111-74.221-62.885-1.7 39.484-28.024 94.69-82.857 112.934-10.583-16.416-19.259-34.178-25.712-52.974.593-.332 1.206-.636 1.84-.909 30.915-13.308 65.618-58.926 64.877-88.893-23.223-.145-52.737-9.21-76.977-28.049 3.712-23.691 10.819-46.257 20.806-67.183 18.644 28.316 58.923 55.75 85.179 53.124 0 0 .01.018.029.05 6.114-40.621 35.651-91.388 92.138-104.477 11.045-2.559 21.809 5.277 22.937 16.56l2.092 20.922c.828 8.286-3.907 16.034-11.554 19.326-27.122 11.676-57.161 48.221-63.622 77.248 40.15 6.967 89.037 36.441 101.844 91.73z" fill="#fc5426"/><path d="m116.471 257.489c-3.353 11.019-9.775 19.205-17.487 21.71-7.712-2.505-14.134-10.691-17.487-21.71-11.017-3.354-19.202-9.776-21.706-17.489 2.504-7.713 10.69-14.136 21.706-17.489 3.353-11.019 9.775-19.205 17.487-21.71 7.712 2.505 14.134 10.691 17.487 21.71 11.017 3.354 19.202 9.776 21.706 17.489-2.504 7.713-10.689 14.136-21.706 17.489z" fill="#fd7d43"/><path d="m113.982 210c8.283 0 14.998 6.716 14.998 15s-6.715 15-14.998 15-14.998-6.716-14.998-15 6.715-15 14.998-15z" fill="#fc9368"/><path d="m251.944 276.948 138.021 23.33c-2.94 6.669-6.121 13.507-9.522 20.44-8.231 16.776-16.813 32.188-25.088 45.375l-14.691 115.503c-29.401 12.493-61.745 19.404-95.703 19.404-1.122 0-2.241-.008-3.36-.023l36.782-169.316c-5.289-9.518-10.597-19.833-15.753-30.712-3.873-8.175-7.445-16.215-10.686-24.001z" fill="#e3ac6e"/><path d="m292.207 305.948c5.155 10.879 10.464 21.194 15.753 30.712l-35.365 162.798c-9.07 1.019-18.29 1.542-27.632 1.542-1.122 0-2.241-.008-3.36-.023l36.782-169.316c-5.289-9.518-10.597-19.833-15.753-30.712-3.873-8.174-7.445-16.215-10.686-24l29.576 4.999c3.239 7.785 6.811 15.825 10.685 24z" fill="#d89c56"/><path d="m492.949 203.598-17.135 12.182c-6.786 4.825-15.861 4.549-22.509-.463-22.768-17.169-67.025-25.212-95.621-17.849 19.188 37.293 23.057 103.71-23.617 146.849-8.327 7.695-21.558 6.222-28.127-3.02l-12.18-17.137c-4.824-6.787-4.549-15.864.464-22.513 20.262-26.878 27.811-83.699 12.324-109.363-36.612 20.583-105.549 26.016-149.888-21.974-7.695-8.328-6.222-21.562 3.019-28.131l17.135-12.183c6.786-4.824 15.861-4.549 22.509.464 27.678 20.872 87.116 28.257 111.566 10.872 0 0 .017.01.049.029-14.81-38.315-14.299-97.05 28.286-136.408 8.327-7.696 21.558-6.222 28.127 3.02l12.18 17.137c4.824 6.787 4.549 15.864-.464 22.513-17.776 23.581-25.768 70.21-17.002 98.626 38.326-13.844 95.393-12.464 133.904 29.218 7.694 8.328 6.221 21.561-3.02 28.131z" fill="#172a7d"/><path d="m480.419 244.341-19.636 7.512c-7.776 2.975-16.495.439-21.678-6.077-17.754-22.316-58.595-41.169-88.124-41.189 9.258 40.906-3.596 106.182-59.571 136.281-9.986 5.37-22.429.635-26.479-9.957l-7.51-19.639c-2.974-7.777-.439-16.497 6.076-21.682 26.337-20.958 47.848-74.089 39.267-102.81-40.594 10.775-108.7-1.199-139.637-58.751-5.369-9.987-.635-22.432 9.955-26.483l19.636-7.512c7.776-2.975 16.495-.439 21.678 6.077 21.583 27.129 77.288 49.141 105.307 38.421 0 0 .014.014.041.04-4.763-40.801 10.412-97.543 61.482-125.005 9.986-5.37 22.429-.635 26.479 9.956l7.51 19.639c2.974 7.777.439 16.497-6.076 21.682-23.106 18.388-42.499 61.539-41.113 91.244 40.57-3.821 95.479 11.783 122.35 61.769 5.367 9.988.633 22.433-9.957 26.484z" fill="#1f3595"/><path d="m449.894 286.912-20.983 1.292c-8.31.511-15.87-4.517-18.867-12.286-10.264-26.607-43.595-56.818-71.764-65.674-3.404 41.803-35.197 100.241-97.612 112.21-11.135 2.135-21.591-6.106-22.287-17.424l-1.291-20.986c-.511-8.311 4.516-15.873 12.284-18.871 31.4-12.117 67.821-56.375 68.225-86.349-41.958-1.867-103.361-33.673-115.664-97.847-2.135-11.136 6.105-21.595 17.421-22.291l20.983-1.291c8.31-.511 15.87 4.517 18.867 12.286 12.478 32.345 59.046 70.018 88.988 68.174 0 0 .01.018.027.051 7.661-40.357 39.117-89.959 96.062-100.879 11.135-2.135 21.591 6.106 22.288 17.424l1.291 20.987c.511 8.311-4.516 15.873-12.284 18.87-27.548 10.631-58.962 46.001-66.527 74.76 39.854 8.494 87.58 39.815 98.265 95.553 2.134 11.136-6.106 21.594-17.422 22.291z" fill="#4f66cf"/><path d="m487.681 114.721-7.271 19.729c-2.879 7.813-10.527 12.708-18.843 12.322-29.496-1.369-72.494 18.349-91.001 41.624 33.056 23.832 64.124 71.727 51.455 127.048-2.531 11.053-14.285 17.306-24.923 13.384l-19.725-7.272c-7.812-2.88-12.707-10.528-12.321-18.846 1.322-28.488-17.017-69.568-39.233-89.023-19.952 36.89-72.588 77.568-134.536 63.377-11.051-2.532-17.303-14.288-13.382-24.927l7.271-19.729c2.879-7.813 10.527-12.708 18.843-12.323 33.62 1.56 84.781-24.275 97.223-51.546-37.652-18.613-81.042-72.463-66.456-136.157 2.531-11.053 14.285-17.305 24.923-13.384l19.726 7.272c7.812 2.88 12.707 10.528 12.321 18.846-1.607 34.632 25.843 87.875 53.991 98.25 0 0 .001.02.004.058 23.266-33.852 72.034-66.578 128.553-53.631 11.051 2.533 17.302 14.289 13.381 24.928z" fill="#172a7d"/><path d="m497.601 155.709-12.011 17.256c-4.757 6.834-13.391 9.643-21.341 7.171-28.197-8.765-74.777-.532-98.555 17.322 25.978 31.4 43.962 85.584 17.752 135.92-5.237 10.057-18.188 13.142-27.493 6.664l-17.254-12.013c-6.833-4.757-9.641-13.394-7.17-21.345 8.463-27.233 1.077-71.611-15.514-96.042-28.61 30.664-89.803 56.749-146.169 27.389-10.056-5.238-13.14-18.191-6.663-27.497l12.011-17.256c4.757-6.834 13.391-9.643 21.341-7.171 32.14 9.991 88.161-2.103 107.079-25.354-31.74-27.509-60.148-90.565-29.97-148.519 5.237-10.057 18.188-13.142 27.493-6.664l17.254 12.013c6.833 4.757 9.641 13.393 7.17 21.345-10.288 33.107 2.846 91.553 27.468 108.694 0 0-.003.019-.01.057 31.051-26.888 86.495-46.254 137.922-19.467 10.053 5.237 13.137 18.19 6.66 27.497z" fill="#2740af"/><path d="m459.063 184.118-11.586 11.313c-4.588 4.48-11.527 5.354-17.183 2.332-20.06-10.717-56.489-11.238-77.062-1.178 15.103 27.517 20.858 71.111-6.26 105.39-5.418 6.849-15.662 7.306-21.762 1.057l-11.312-11.587c-4.48-4.589-5.353-11.529-2.332-17.186 10.347-19.374 11.188-54.015 2.176-74.9-26.084 19.051-76.152 29.916-114.538-.461-6.848-5.419-7.305-15.665-1.057-21.766l11.586-11.313c4.588-4.48 11.527-5.354 17.183-2.332 22.865 12.215 66.995 11.184 84.673-3.663-20.025-25.409-32.38-77.224-1.158-116.691 5.418-6.849 15.662-7.306 21.762-1.057l11.312 11.588c4.48 4.589 5.353 11.528 2.331 17.185-12.579 23.554-11.109 69.668 5.033 86.203 0 0-.006.015-.016.042 27.384-15.84 72.13-22.456 107.152 5.259 6.849 5.419 7.306 15.664 1.058 21.765z" fill="#314dc8"/><path d="m188.97 300c0 5.523-4.476 10-9.998 10-22.053 0-39.994-17.944-39.994-40 0-5.523 4.476-10 9.998-10s9.998 4.477 9.998 10c0 11.028 8.971 20 19.997 20 5.523 0 9.999 4.477 9.999 10z" fill="#172a7d"/><path d="m349.439 184.453c-3.353 11.019-9.775 19.205-17.487 21.71-7.712-2.505-14.134-10.691-17.487-21.71-11.017-3.354-19.202-9.776-21.706-17.489 2.504-7.713 10.69-14.136 21.706-17.489 3.353-11.019 9.775-19.205 17.487-21.71 7.712 2.505 14.134 10.691 17.487 21.71 11.017 3.354 19.202 9.776 21.706 17.489-2.504 7.713-10.689 14.136-21.706 17.489z" fill="#4f66cf"/><path d="m344.746 139.199c8.283 0 14.998 6.716 14.998 15s-6.715 15-14.998 15-14.998-6.716-14.998-15 6.715-15 14.998-15z" fill="#8694dd"/><path d="m78.988 320c0 5.523-4.476 10-9.998 10s-9.998-4.477-9.998-10c0-11.028-8.971-20-19.997-20-5.522 0-9.998-4.477-9.998-10s4.476-10 9.998-10c22.052 0 39.993 17.944 39.993 40z" fill="#4f66cf"/><path d="m398.937 170c0 5.523-4.476 10-9.998 10s-9.998-4.477-9.998-10c0-22.056 17.941-40 39.994-40 5.522 0 9.998 4.477 9.998 10s-4.476 10-9.998 10c-11.027 0-19.998 8.972-19.998 20zm9.998 190c-5.522 0-9.998 4.477-9.998 10s4.476 10 9.998 10c11.026 0 19.997 8.972 19.997 20 0 5.523 4.476 10 9.998 10s9.998-4.477 9.998-10c.001-22.056-17.94-40-39.993-40z" fill="#fc5426"/><path d="m228.964 100c0 22.056-17.941 40-39.994 40-5.522 0-9.998-4.477-9.998-10s4.476-10 9.998-10c11.026 0 19.997-8.972 19.997-20 0-5.523 4.476-10 9.998-10s9.999 4.477 9.999 10z" fill="#fff5f5"/></g></svg>