<svg height="512" viewBox="0 0 501 501" width="512" xmlns="http://www.w3.org/2000/svg"><path d="M490 256c0 135.31-109.69 245-245 245-68.398 0-130.25-28.028-174.696-73.226-1.192-1.212 1.529-5.538.363-6.774-7.588-8.042-16.797-18.239-23.25-27.25-1.097-1.532-3.917 1.667-4.979.109C15.657 354.585 0 307.121 0 256 0 120.69 109.69 11 245 11s245 109.69 245 245z" fill="#2740af"/><path d="M379.642 401.04l5.408 9.889a2 2 0 00.795.795l9.889 5.408c1.387.759 1.387 2.751 0 3.509l-9.889 5.408a1.994 1.994 0 00-.795.795l-5.408 9.889c-.759 1.387-2.751 1.387-3.509 0l-5.408-9.889a1.994 1.994 0 00-.795-.795l-9.889-5.408c-1.387-.759-1.387-2.751 0-3.509l9.889-5.408a2 2 0 00.795-.795l5.408-9.889c.758-1.387 2.751-1.387 3.509 0z" fill="#3691bb"/><path d="M476.793 287.763c-.74.899-1.481 1.793-2.222 2.682-42.778 80.087-143.271 116.956-168.659 127.453-58.275 24.096-129.009 36.96-138.391 18.932-6.809-13.084 20.782-38.426 12.861-47.771-1.262-1.488-5.847-5.43-34.879 4.625-13.158 4.557-24.71 9.594-36.504 15.19-15.546 7.376-62.01-24.426-51.714-42.912 34.738-62.37 50.885-90.762 44.695-96.623-8.107-7.676-38.269 18.513-58.48 24.637-20.629 6.251 19.883-134.995 92.786-215.888C169.818 40.881 239.971 0 308.078 0 414.626 0 501 86.374 501 192.922c0 34.304-8.954 66.518-24.652 94.431z" fill="#f5c02c"/><path d="M136.706 342.75c0 17.867 1.565 35.384 4.572 52.434-18.502 6.722-34.08 14.459-52.278 23.45-5.895 2.912-12.065 5.956-18.698 9.139a246.203 246.203 0 01-27.864-33.913c5.421-10.973 11.177-21.308 14.848-27.898 13.417-24.088 24.06-43.109 31.714-57.72 12.164-23.22 16.78-35.306 12.98-38.903-2.518-2.384-7.165-1.5-12.98 1.034-12.905 5.625-31.567 19.381-45.5 23.603-15.58 4.722 3.715-74.691 45.5-148.694 13.541-23.982 29.443-47.396 47.286-67.194C169.818 40.881 239.971 0 308.078 0c39.89 0 76.953 12.107 107.714 32.847C257.839 55.431 136.706 185.578 136.706 342.75z" fill="#f4aa39"/><path d="M293.942 361.271c-38.947 16.33-90.176 27.513-98.255 13.441-4.595-8.004 6.965-20.354 1.735-25.597-6-6.014-23.739 7.699-58.757 12.731-21.457 3.083-25.787-.486-27.42-2.448-2.685-3.226-4.298-9.578 6.177-35 14.925-36.22 30.207-52.464 24.67-59.99-4.218-5.734-15.154.886-22.034-5.386-8.869-8.086-2.296-29.665 5.386-49.454 17.237-44.402 25.855-66.604 48.067-89.554 12.355-12.767 57.467-55.44 121.969-55.44 75.647 0 136.97 61.324 136.97 136.97 0 24.356-6.357 47.227-17.502 67.044-44.89 54.659-91.001 80.103-121.006 92.683zM91.867 141.04l5.408 9.889a2 2 0 00.795.795l9.889 5.408c1.387.759 1.387 2.751 0 3.509l-9.889 5.408a2 2 0 00-.795.795l-5.408 9.889c-.759 1.387-2.751 1.387-3.509 0l-5.408-9.889a2 2 0 00-.795-.795l-9.889-5.408c-1.387-.759-1.387-2.751 0-3.509l9.889-5.408a2 2 0 00.795-.795l5.408-9.889c.758-1.387 2.751-1.387 3.509 0z" fill="#fdf385"/><path d="M308.078 22.967c93.863 0 169.955 76.091 169.955 169.955s-76.091 169.955-169.955 169.955-169.955-76.091-169.955-169.955S214.215 22.967 308.078 22.967z" fill="#fd7d43"/><path d="M160.489 277.252c-14.23-24.851-22.365-53.641-22.365-84.33 0-93.863 76.091-169.955 169.955-169.955 30.689 0 59.479 8.135 84.33 22.365-124.452 7.921-223.999 107.468-231.92 231.92z" fill="#f16b38"/><path d="M340.001 272.406c4.932-42.196-5.914-80.041-30.594-107.273-48.083 43.432-84.945 99.064-105.655 161.964a171.025 171.025 0 01-15.047-13.202 394.95 394.95 0 018.92-23.093c19.883-47.05 48.352-89.294 84.614-125.557a402.586 402.586 0 0113.538-12.923c-22.205-17.74-50.557-27.064-82.128-27.064-6.418 0-12.971.385-19.63 1.164-15.813 1.848-31.558 5.824-46.882 11.747a168.917 168.917 0 019.62-22.697c11.582-3.466 23.333-5.92 35.129-7.299 45.696-5.341 87.111 5.959 117.962 31.921a392.39 392.39 0 0144.628-32.001c-21.644-25.705-38.776-54.386-50.993-85.065a172.21 172.21 0 0120.392.664c11.851 27.357 27.744 52.572 46.921 74.886a395.764 395.764 0 0137.001-17.948 395.718 395.718 0 0120.385-7.958 171.108 171.108 0 0113.312 14.953 374.653 374.653 0 00-57.748 25.073c26.537 27.12 58.267 49.138 93.563 64.428a172.21 172.21 0 01.664 20.392c-38.914-15.496-74.613-38.9-105.101-69.388a321.696 321.696 0 01-5.771-5.922 378.568 378.568 0 00-43.758 30.939c28.078 31.177 40.45 73.982 34.909 121.393-3.511 30.036-13.989 59.777-30.414 87.2a171.632 171.632 0 01-22.481 1.115c18.97-28.054 30.982-59.117 34.644-90.449z" fill="#c64b1a"/><path d="M302.796 253.816l8.272 15.125c.281.513.703.935 1.216 1.216l15.125 8.272c2.121 1.16 2.121 4.207 0 5.367l-15.125 8.272a3.066 3.066 0 00-1.216 1.216l-8.272 15.125c-1.16 2.121-4.207 2.121-5.367 0l-8.272-15.125a3.066 3.066 0 00-1.216-1.216l-15.125-8.272c-2.121-1.16-2.121-4.207 0-5.367l15.125-8.272a3.066 3.066 0 001.216-1.216l8.272-15.125c1.16-2.121 4.207-2.121 5.367 0z" fill="#fff5f5"/></svg>