<svg height="512" viewBox="0 0 501 501" width="512" xmlns="http://www.w3.org/2000/svg"><path d="M19.463 270c-7.671 0-13.958-6.188-13.963-13.859V256c0-89.229 47.707-167.308 119-210.146V270z" fill="#2740af"/><path d="M90.123 260l12.62-199.447a245.459 245.459 0 0119.277-13.202c1.031-.11 2.18-.535 3.481-1.369V260z" fill="#172a7d"/><path d="M495.5 255.679C495.673 390.908 385.727 501.001 250.498 501c-49.886 0-96.29-14.91-134.998-40.518V21c0-5.523 4.477-10 10-10h139v.393c120.111 6.766 217.095 100.053 229.629 218.534l.007.072h.001c.89 8.44 1.352 17.008 1.363 25.68z" fill="#b3d1e1"/><path d="M264.5 11v.393C374.294 17.579 464.75 96.065 489.055 200H115.5V21c0-5.523 4.477-10 10-10z" fill="#e3f0fb"/><path d="M115.5 190h371.006a243.206 243.206 0 014.681 20H115.5zM246.452 290a7.5 7.5 0 017.5-7.5h120a7.5 7.5 0 010 15h-120a7.5 7.5 0 01-7.5-7.5zm-41.577 55H423.03a7.5 7.5 0 000-15H204.875a7.5 7.5 0 000 15zm205.28 45H217.749a7.5 7.5 0 000 15h192.406a7.5 7.5 0 000-15zM347 435h-66.096a7.5 7.5 0 000 15H347a7.5 7.5 0 000-15zm88.904-75H192a7.5 7.5 0 000 15h243.904a7.5 7.5 0 000-15z" fill="#88b9d3"/><path d="M163.798 155h32.5a7.5 7.5 0 000-15h-32.5a7.5 7.5 0 000 15zm250 0h32.5a7.5 7.5 0 000-15h-32.5a7.5 7.5 0 000 15z" fill="#b3d1e1"/><path d="M305.048 77.901c24.879 0 48.085 5.329 67.672 14.537a8.197 8.197 0 013.835 3.769c5.246 10.494 8.482 22.938 8.963 37.33.051 1.53.077 3.067.077 4.61 0 54.937-32.655 101.989-78.99 121.538a4.01 4.01 0 01-3.116 0c-46.336-19.549-78.99-66.601-78.99-121.538 0-1.543.026-3.08.077-4.61.481-14.392 3.717-26.836 8.963-37.33a8.201 8.201 0 013.835-3.769c19.589-9.208 42.795-14.537 67.674-14.537z" fill="#22b27f"/><path d="M308.346 258.935c-.578.254-1.158.505-1.741.75a4.01 4.01 0 01-3.116 0c-46.336-19.549-78.99-66.601-78.99-121.538 0-1.543.026-3.08.077-4.61.481-14.392 3.717-26.835 8.963-37.33a8.201 8.201 0 013.835-3.769c15.126-7.111 32.41-11.907 50.956-13.724a526.302 526.302 0 00-.305 11.679 680.722 680.722 0 00-.077 10.226c.002 58.382 7.496 112.748 20.398 158.316z" fill="#08856c"/><path d="M308.226 111.794l12.477 25.282a3.544 3.544 0 002.668 1.939l27.9 4.054c2.907.422 4.068 3.995 1.964 6.045l-20.189 19.679a3.545 3.545 0 00-1.019 3.137l4.766 27.787c.497 2.895-2.542 5.103-5.142 3.736l-24.955-13.119a3.542 3.542 0 00-3.298 0l-24.955 13.119c-2.6 1.367-5.639-.841-5.142-3.736l4.766-27.787a3.545 3.545 0 00-1.019-3.137l-20.189-19.679c-2.103-2.05-.943-5.623 1.964-6.045l27.9-4.054a3.544 3.544 0 002.668-1.939l12.477-25.282c1.302-2.634 5.058-2.634 6.358 0z" fill="#f5c02c"/><path d="M353.236 149.114l-20.189 19.679a3.545 3.545 0 00-1.019 3.137l1.2 6.998c-21.523-4.093-38.962-19.675-45.707-40.13a3.538 3.538 0 001.872-1.722l12.477-25.282c1.3-2.634 5.056-2.634 6.356 0l12.477 25.282a3.544 3.544 0 002.668 1.939l27.9 4.054c2.908.422 4.068 3.994 1.965 6.045z" fill="#fdf061"/><path d="M179.5 0h-22a5 5 0 00-5 5v59c0 8.836 7.163 16 16 16s16-7.164 16-16V5a5 5 0 00-5-5zm-6 61.75a5 5 0 01-10 0V17a5 5 0 0110 0zM247.262 500.979C113.444 499.246 5.5 390.229 5.5 256v-.301C34.729 233.306 71.286 220 110.95 220c95.849 0 173.55 77.701 173.55 173.55 0 40.565-13.918 77.879-37.238 107.429z" fill="#fd7d43"/><path d="M197.064 242.838c-71.869 4.574-135.604 39.071-178.883 91.169C9.956 309.505 5.5 283.273 5.5 256v-.301C34.729 233.306 71.286 220 110.95 220c31.339 0 60.737 8.307 86.114 22.838z" fill="#f16b38"/><path d="M283.76 377.42a175.536 175.536 0 01.677 20.823c-39.737-15.823-76.192-39.724-107.324-70.856a328.867 328.867 0 01-5.893-6.047 386.475 386.475 0 00-44.683 31.593c28.672 31.836 41.306 75.546 35.647 123.961a202.375 202.375 0 01-.991 7.319 243.136 243.136 0 01-17.847-7.827c.07-.556.138-1.113.203-1.67 5.036-43.088-6.039-81.734-31.241-109.542a387.83 387.83 0 00-47.191 51.013 246.592 246.592 0 01-12.215-15.315 406.997 406.997 0 0131.663-35.584 410.697 410.697 0 0113.824-13.196c-22.518-17.989-51.225-27.503-83.196-27.635a243.123 243.123 0 01-4.641-18.724c39.398-.867 74.864 10.864 102.204 33.873a400.644 400.644 0 0145.573-32.678c-22.102-26.249-39.596-55.537-52.071-86.865a175.89 175.89 0 0120.823.677c12.102 27.936 28.331 53.684 47.914 76.471a404.434 404.434 0 0137.783-18.328 403.172 403.172 0 0120.816-8.127 174.651 174.651 0 0113.594 15.27 382.512 382.512 0 00-58.969 25.603c27.096 27.693 59.497 50.177 95.541 65.791z" fill="#c64b1a"/></svg>