<svg id="Capa_1" enable-background="new 0 0 501 501" height="512" viewBox="0 0 501 501" width="512" xmlns="http://www.w3.org/2000/svg"><g><path d="m19.463 270c-7.671 0-13.958-6.188-13.963-13.859 0-.047 0-.094 0-.141 0-89.229 47.707-167.308 119-210.146v224.146z" fill="#2740af"/><path d="m90.123 260 12.62-199.447c6.202-4.696 12.634-9.103 19.277-13.202 1.031-.11 2.18-.535 3.481-1.369v214.018z" fill="#172a7d"/><path d="m495.5 255.679c.173 135.229-109.773 245.322-245.002 245.321-49.886 0-96.29-14.91-134.998-40.518v-439.482c0-5.523 4.477-10 10-10h139v.393c120.111 6.766 217.095 100.053 229.629 218.534.003.024.004.048.007.072h.001c.89 8.44 1.352 17.008 1.363 25.68z" fill="#b3d1e1"/><path d="m264.5 11v.393c109.794 6.186 200.25 84.672 224.555 188.607h-373.555v-179c0-5.523 4.477-10 10-10z" fill="#e3f0fb"/><path d="m115.5 190h371.006c1.831 6.56 3.395 13.23 4.681 20h-375.687z" fill="#88b9d3"/><path d="m246.452 290c0-4.142 3.358-7.5 7.5-7.5h120c4.142 0 7.5 3.358 7.5 7.5s-3.358 7.5-7.5 7.5h-120c-4.142 0-7.5-3.358-7.5-7.5zm-41.577 55h218.155c4.142 0 7.5-3.358 7.5-7.5s-3.358-7.5-7.5-7.5h-218.155c-4.142 0-7.5 3.358-7.5 7.5s3.357 7.5 7.5 7.5zm205.28 45h-192.406c-4.142 0-7.5 3.358-7.5 7.5s3.358 7.5 7.5 7.5h192.406c4.142 0 7.5-3.358 7.5-7.5s-3.358-7.5-7.5-7.5zm-63.155 45h-66.096c-4.142 0-7.5 3.358-7.5 7.5 0 4.142 3.358 7.5 7.5 7.5h66.096c4.142 0 7.5-3.358 7.5-7.5 0-4.142-3.358-7.5-7.5-7.5zm88.904-75h-243.904c-4.142 0-7.5 3.358-7.5 7.5s3.358 7.5 7.5 7.5h243.904c4.142 0 7.5-3.358 7.5-7.5s-3.358-7.5-7.5-7.5z" fill="#88b9d3"/><path d="m163.798 155h32.5c4.142 0 7.5-3.358 7.5-7.5s-3.358-7.5-7.5-7.5h-32.5c-4.142 0-7.5 3.358-7.5 7.5s3.358 7.5 7.5 7.5zm250 0h32.5c4.142 0 7.5-3.358 7.5-7.5s-3.358-7.5-7.5-7.5h-32.5c-4.142 0-7.5 3.358-7.5 7.5s3.358 7.5 7.5 7.5z" fill="#b3d1e1"/><path d="m305.048 77.901c24.879 0 48.085 5.329 67.672 14.537 1.669.785 3.011 2.119 3.835 3.769 5.246 10.494 8.482 22.938 8.963 37.33.051 1.53.077 3.067.077 4.61 0 54.937-32.655 101.989-78.99 121.538-.994.42-2.121.42-3.116 0-46.336-19.549-78.99-66.601-78.99-121.538 0-1.543.026-3.08.077-4.61.481-14.392 3.717-26.836 8.963-37.33.825-1.65 2.166-2.984 3.835-3.769 19.589-9.208 42.795-14.537 67.674-14.537z" fill="#22b27f"/><path d="m308.346 258.935c-.578.254-1.158.505-1.741.75-.994.42-2.121.42-3.116 0-46.336-19.549-78.99-66.601-78.99-121.538 0-1.543.026-3.08.077-4.61.481-14.392 3.717-26.835 8.963-37.33.825-1.65 2.166-2.984 3.835-3.769 15.126-7.111 32.41-11.907 50.956-13.724-.143 3.827-.245 7.719-.305 11.679-.051 3.394-.077 6.804-.077 10.226.002 58.382 7.496 112.748 20.398 158.316z" fill="#08856c"/><path d="m308.226 111.794 12.477 25.282c.516 1.046 1.514 1.771 2.668 1.939l27.9 4.054c2.907.422 4.068 3.995 1.964 6.045l-20.189 19.679c-.835.814-1.216 1.987-1.019 3.137l4.766 27.787c.497 2.895-2.542 5.103-5.142 3.736l-24.955-13.119c-1.032-.543-2.266-.543-3.298 0l-24.955 13.119c-2.6 1.367-5.639-.841-5.142-3.736l4.766-27.787c.197-1.15-.184-2.323-1.019-3.137l-20.189-19.679c-2.103-2.05-.943-5.623 1.964-6.045l27.9-4.054c1.154-.168 2.152-.893 2.668-1.939l12.477-25.282c1.302-2.634 5.058-2.634 6.358 0z" fill="#f5c02c"/><path d="m353.236 149.114-20.189 19.679c-.835.814-1.216 1.987-1.019 3.137l1.2 6.998c-21.523-4.093-38.962-19.675-45.707-40.13.807-.32 1.479-.926 1.872-1.722l12.477-25.282c1.3-2.634 5.056-2.634 6.356 0l12.477 25.282c.516 1.046 1.514 1.771 2.668 1.939l27.9 4.054c2.908.422 4.068 3.994 1.965 6.045z" fill="#fdf061"/><path d="m179.5 0h-22c-2.761 0-5 2.239-5 5v59c0 8.836 7.163 16 16 16s16-7.164 16-16v-59c0-2.761-2.239-5-5-5zm-6 61.75c0 2.761-2.239 5-5 5s-5-2.239-5-5v-44.75c0-2.761 2.239-5 5-5s5 2.239 5 5z" fill="#fd7d43"/><path d="m247.262 500.979c-133.818-1.733-241.762-110.75-241.762-244.979 0-.101 0-.201 0-.301 29.229-22.393 65.786-35.699 105.45-35.699 95.849 0 173.55 77.701 173.55 173.55 0 40.565-13.918 77.879-37.238 107.429z" fill="#fd7d43"/><path d="m197.064 242.838c-71.869 4.574-135.604 39.071-178.883 91.169-8.225-24.502-12.681-50.734-12.681-78.007 0-.101 0-.201 0-.301 29.229-22.393 65.786-35.699 105.45-35.699 31.339 0 60.737 8.307 86.114 22.838z" fill="#f16b38"/><path d="m283.76 377.42c.49 5.311.74 10.691.74 16.13 0 1.569-.021 3.134-.063 4.693-39.737-15.823-76.192-39.724-107.324-70.856-1.994-1.994-3.958-4.01-5.893-6.047-15.656 9.481-30.586 20.047-44.683 31.593 28.672 31.836 41.306 75.546 35.647 123.961-.285 2.442-.616 4.882-.991 7.319-6.071-2.377-12.024-4.99-17.847-7.827.07-.556.138-1.113.203-1.67 5.036-43.088-6.039-81.734-31.241-109.542-17.211 15.545-33.013 32.622-47.191 51.013-4.269-4.937-8.345-10.046-12.215-15.315 9.797-12.408 20.359-24.28 31.663-35.584 4.518-4.518 9.127-8.917 13.824-13.196-22.518-17.989-51.225-27.503-83.196-27.635-1.785-6.145-3.335-12.39-4.641-18.724 39.398-.867 74.864 10.864 102.204 33.873 14.449-11.973 29.659-22.878 45.573-32.678-22.102-26.249-39.596-55.537-52.071-86.865 1.559-.041 3.124-.063 4.693-.063 5.439 0 10.819.251 16.13.74 12.102 27.936 28.331 53.684 47.914 76.471 12.222-6.736 24.824-12.851 37.783-18.328 6.88-2.908 13.82-5.617 20.816-8.127 4.822 4.816 9.362 9.916 13.594 15.27-20.478 6.909-40.189 15.498-58.969 25.603 27.096 27.693 59.497 50.177 95.541 65.791z" fill="#c64b1a"/></g></svg>