<svg id="Capa_1" enable-background="new 0 0 501 501" height="512" viewBox="0 0 501 501" width="512" xmlns="http://www.w3.org/2000/svg"><g><path d="m495.5 245c0 135.31-109.69 245-245 245s-245-109.69-245-245 109.69-245 245-245 245 109.69 245 245z" fill="#024c67"/><path d="m442.59 397.09c-44.878 56.603-114.244 92.91-192.09 92.91-135.31 0-245-109.69-245-245 0-77.846 36.307-147.212 92.91-192.09-33.127 41.784-52.91 94.626-52.91 152.09 0 135.31 109.69 245 245 245 57.464 0 110.306-19.783 152.09-52.91z" fill="#174550"/><path d="m400.5 359h66.917c-3.616 6.866-7.548 13.539-11.777 20h-65.14c-5.522 0-10-4.478-10-10v-248c0-5.522 4.478-10 10-10h65.141c4.229 6.461 8.161 13.134 11.777 20h-66.918zm-330-114c0-36.23-20.387-67.789-50.291-83.806-2.32 6.374-4.383 12.872-6.177 19.481 21.832 13.126 36.468 37.048 36.468 64.325s-14.636 51.199-36.468 64.325c1.793 6.609 3.857 13.106 6.177 19.481 29.904-16.017 50.291-47.576 50.291-83.806zm380 0c0-27.277 14.636-51.199 36.468-64.325-1.793-6.609-3.857-13.107-6.177-19.481-29.904 16.017-50.291 47.576-50.291 83.806s20.387 67.789 50.291 83.806c2.32-6.374 4.384-12.872 6.177-19.481-21.832-13.126-36.468-37.048-36.468-64.325zm-105 0c0 49.006-37.3 89.464-85 94.477v150.322c-3.317.133-6.651.201-10 .201s-6.683-.067-10-.201v-150.322c-47.7-5.013-85-45.471-85-94.477s37.3-89.464 85-94.477v-150.322c3.317-.134 6.651-.201 10-.201s6.683.067 10 .201v150.322c47.7 5.013 85 45.471 85 94.477zm-105-74.336c-36.645 4.904-65 36.371-65 74.336s28.355 69.433 65 74.336zm85 74.336c0-37.966-28.355-69.433-65-74.336v148.672c36.645-4.903 65-36.37 65-74.336zm-215-134h-65.141c-4.229 6.461-8.161 13.134-11.777 20h66.918v228h-66.917c3.616 6.866 7.548 13.539 11.777 20h65.14c5.522 0 10-4.478 10-10v-248c0-5.522-4.478-10-10-10z" fill="#2740af"/><path d="m260.5 150.523v-150.322c-3.317-.134-6.651-.201-10-.201s-6.683.067-10 .201v150.322c-47.7 5.013-85 45.471-85 94.477s37.3 89.464 85 94.477v105.417c6.574 1.363 13.245 2.463 20 3.287v-108.704c47.7-5.013 85-45.471 85-94.477s-37.3-89.464-85-94.477zm-20 168.813c-36.645-4.904-65-36.371-65-74.336s28.355-69.433 65-74.336zm20 0v-148.672c36.645 4.904 65 36.371 65 74.336s-28.355 69.433-65 74.336zm226.468-10.011c-1.793 6.609-3.857 13.107-6.177 19.481-29.904-16.017-50.291-47.576-50.291-83.806s20.387-67.789 50.291-83.806c2.32 6.374 4.384 12.872 6.177 19.481-21.832 13.126-36.468 37.048-36.468 64.325s14.636 51.199 36.468 64.325zm-86.468 49.675h66.917c-3.616 6.866-7.548 13.539-11.777 20h-65.14c-5.522 0-10-4.478-10-10v-248c0-5.522 4.478-10 10-10h65.141c4.229 6.461 8.161 13.134 11.777 20h-66.918zm-280-238v248c0 3.394-1.691 6.392-4.276 8.2-5.722-5.791-11.157-11.865-16.283-18.2h.56v-228h-43.627c2.152-6.8 4.592-13.471 7.307-20h46.319c5.522 0 10 4.478 10 10zm-73.936 61.019c14.885 16.777 23.936 38.842 23.936 62.981 0 15.596-3.778 30.326-10.466 43.323-4.171-11.534-7.5-23.47-9.915-35.735.252-2.496.381-5.027.381-7.589 0-9.088-1.625-17.803-4.599-25.871-.266-4.675-.401-9.386-.401-14.128 0-7.75.36-15.415 1.064-22.981z" fill="#4f66cf"/><path d="m438.413 431c0 35.298-28.615 63.913-63.913 63.913s-63.913-28.615-63.913-63.913 28.615-63.913 63.913-63.913 63.913 28.615 63.913 63.913z" fill="#fc6930"/><path d="m432.114 458.701c-10.321 21.426-32.241 36.212-57.614 36.212-35.298 0-63.913-28.615-63.913-63.913 0-25.374 14.786-47.294 36.212-57.614-4.037 8.38-6.299 17.777-6.299 27.701 0 35.298 28.615 63.913 63.913 63.913 9.925 0 19.321-2.262 27.701-6.299z" fill="#fc5426"/><path d="m440.368 407.294c-.081-.277-.179-.544-.295-.801-9.953-26.547-35.592-45.493-65.573-45.493-20.542 0-39.046 8.895-51.863 23.034-.308.281-.589.595-.837.94-10.768 12.314-17.3 28.421-17.3 46.025 0 38.598 31.402 70 70 70s70-31.402 70-70c0-8.316-1.458-16.299-4.132-23.705zm-14.189-2.226c-12.963 4.152-24.948 10.423-35.554 18.415-1.572-1.717-3.184-3.397-4.833-5.039-3.475-3.456-7.122-6.742-10.921-9.844 7.194-9.83 12.727-20.965 16.198-33.008 15.336 4.595 28.016 15.397 35.11 29.476zm-51.679-31.894c1.527 0 3.04.06 4.538.177-3.07 10.164-7.806 19.579-13.897 27.932-8.559-5.918-17.719-10.959-27.271-14.994 9.98-8.193 22.741-13.115 36.63-13.115zm-57.826 57.826c0-13.269 4.492-25.507 12.035-35.276 10.118 3.864 19.7 8.915 28.567 14.975-10.945 11.478-24.8 20.15-40.422 24.879-.119-1.511-.18-3.037-.18-4.578zm2.43 16.607c18.664-5.394 35.155-15.745 47.974-29.563 5.012 4.108 9.737 8.56 14.137 13.315-14.906 13.831-26.272 31.419-32.646 51.32-14.068-7.088-24.864-19.753-29.465-35.072zm55.396 41.219c-5.014 0-9.881-.642-14.523-1.847 5.634-17.944 15.777-33.82 29.121-46.326 8.524 10.979 15.437 23.24 20.345 36.393-9.713 7.389-21.825 11.78-34.943 11.78zm44.446-20.873c-5.184-12.531-12.1-24.403-20.456-35.151 9.555-7.106 20.338-12.667 31.99-16.325 1.205 4.642 1.847 9.51 1.847 14.524-.001 14.038-5.03 26.925-13.381 36.952z" fill="#ee4424"/><path d="m217.675 401.774-13.8 13.8 13.8 13.8c3.905 3.905 3.905 10.237 0 14.142l-2.555 2.555c-3.905 3.905-10.237 3.905-14.142 0l-13.8-13.8-13.8 13.8c-3.905 3.905-10.237 3.905-14.142 0l-2.555-2.555c-3.905-3.905-3.905-10.237 0-14.142l13.8-13.8-13.8-13.8c-3.905-3.905-3.905-10.237 0-14.142l2.555-2.555c3.905-3.905 10.237-3.905 14.142 0l13.8 13.8 13.8-13.8c3.905-3.905 10.237-3.905 14.142 0l2.555 2.555c3.905 3.905 3.905 10.237 0 14.142zm190.096-129.348 13.8-13.8c3.905-3.905 3.905-10.237 0-14.142l-2.555-2.555c-3.905-3.905-10.237-3.905-14.142 0l-13.8 13.8-13.8-13.8c-3.905-3.905-10.237-3.905-14.142 0l-2.555 2.555c-3.905 3.905-3.905 10.237 0 14.142l13.8 13.8-13.8 13.8c-3.905 3.905-3.905 10.237 0 14.142l2.555 2.555c3.905 3.905 10.237 3.905 14.142 0l13.8-13.8 13.8 13.8c3.905 3.905 10.237 3.905 14.142 0l2.555-2.555c3.905-3.905 3.905-10.237 0-14.142zm-190.096-218.691-2.555-2.555c-3.905-3.905-10.237-3.905-14.142 0l-13.8 13.8-13.8-13.8c-3.905-3.905-10.237-3.905-14.142 0l-2.555 2.555c-3.905 3.905-3.905 10.237 0 14.142l13.8 13.8-13.8 13.8c-3.905 3.905-3.905 10.237 0 14.142l2.555 2.555c3.905 3.905 10.237 3.905 14.142 0l13.8-13.8 13.8 13.8c3.905 3.905 10.237 3.905 14.142 0l2.555-2.555c3.905-3.905 3.905-10.237 0-14.142l-13.8-13.8 13.8-13.8c3.905-3.905 3.905-10.236 0-14.142z" fill="#f5c02c"/><path d="m382.303 338.949-35.355 35.355c-2.93 2.928-7.678 2.928-10.607 0l-35.355-35.355c-2.929-2.93-2.929-7.678 0-10.607 2.93-2.928 7.678-2.928 10.607 0l22.831 22.831c-2.833-103.692-88.061-187.173-192.424-187.173-4.143 0-7.5-3.357-7.5-7.5s3.357-7.5 7.5-7.5c55.469 0 107.589 21.571 146.759 60.741 37.784 37.784 59.186 87.619 60.653 140.885l22.284-22.285c1.465-1.464 3.385-2.196 5.304-2.196s3.839.732 5.304 2.196c2.928 2.93 2.928 7.678-.001 10.608z" fill="#fff5f5"/></g></svg>