<svg height="512" viewBox="0 0 501 501" width="512" xmlns="http://www.w3.org/2000/svg"><path d="M495.5 245c0 135.31-109.69 245-245 245S5.5 380.31 5.5 245 115.19 0 250.5 0s245 109.69 245 245z" fill="#024c67"/><path d="M442.59 397.09C397.712 453.693 328.346 490 250.5 490c-135.31 0-245-109.69-245-245 0-77.846 36.307-147.212 92.91-192.09C65.283 94.694 45.5 147.536 45.5 205c0 135.31 109.69 245 245 245 57.464 0 110.306-19.783 152.09-52.91z" fill="#174550"/><path d="M400.5 359h66.917a244.869 244.869 0 01-11.777 20H390.5c-5.522 0-10-4.478-10-10V121c0-5.522 4.478-10 10-10h65.141a244.869 244.869 0 0111.777 20H400.5zm-330-114c0-36.23-20.387-67.789-50.291-83.806a243.319 243.319 0 00-6.177 19.481C35.864 193.801 50.5 217.723 50.5 245s-14.636 51.199-36.468 64.325a243.043 243.043 0 006.177 19.481C50.113 312.789 70.5 281.23 70.5 245zm380 0c0-27.277 14.636-51.199 36.468-64.325a242.915 242.915 0 00-6.177-19.481C450.887 177.211 430.5 208.77 430.5 245s20.387 67.789 50.291 83.806a242.915 242.915 0 006.177-19.481C465.136 296.199 450.5 272.277 450.5 245zm-105 0c0 49.006-37.3 89.464-85 94.477v150.322a249.595 249.595 0 01-20 0V339.477c-47.7-5.013-85-45.471-85-94.477s37.3-89.464 85-94.477V.201a247.742 247.742 0 0120 0v150.322c47.7 5.013 85 45.471 85 94.477zm-105-74.336c-36.645 4.904-65 36.371-65 74.336s28.355 69.433 65 74.336zm85 74.336c0-37.966-28.355-69.433-65-74.336v148.672c36.645-4.903 65-36.37 65-74.336zm-215-134H45.359a244.869 244.869 0 00-11.777 20H100.5v228H33.583a244.869 244.869 0 0011.777 20h65.14c5.522 0 10-4.478 10-10V121c0-5.522-4.478-10-10-10z" fill="#2740af"/><path d="M260.5 150.523V.201a247.742 247.742 0 00-20 0v150.322c-47.7 5.013-85 45.471-85 94.477s37.3 89.464 85 94.477v105.417a244.098 244.098 0 0020 3.287V339.477c47.7-5.013 85-45.471 85-94.477s-37.3-89.464-85-94.477zm-20 168.813c-36.645-4.904-65-36.371-65-74.336s28.355-69.433 65-74.336zm20 0V170.664c36.645 4.904 65 36.371 65 74.336s-28.355 69.433-65 74.336zm226.468-10.011a242.915 242.915 0 01-6.177 19.481C450.887 312.789 430.5 281.23 430.5 245s20.387-67.789 50.291-83.806a242.915 242.915 0 016.177 19.481C465.136 193.801 450.5 217.723 450.5 245s14.636 51.199 36.468 64.325zM400.5 359h66.917a244.869 244.869 0 01-11.777 20H390.5c-5.522 0-10-4.478-10-10V121c0-5.522 4.478-10 10-10h65.141a244.869 244.869 0 0111.777 20H400.5zm-280-238v248a9.988 9.988 0 01-4.276 8.2A246.516 246.516 0 0199.941 359h.56V131H56.874a243.165 243.165 0 017.307-20H110.5c5.522 0 10 4.478 10 10zm-73.936 61.019C61.449 198.796 70.5 220.861 70.5 245c0 15.596-3.778 30.326-10.466 43.323a243.225 243.225 0 01-9.915-35.735c.252-2.496.381-5.027.381-7.589a74.653 74.653 0 00-4.599-25.871 248.698 248.698 0 01.663-37.109z" fill="#4f66cf"/><path d="M438.413 431c0 35.298-28.615 63.913-63.913 63.913S310.587 466.298 310.587 431s28.615-63.913 63.913-63.913 63.913 28.615 63.913 63.913z" fill="#fc6930"/><path d="M432.114 458.701c-10.321 21.426-32.241 36.212-57.614 36.212-35.298 0-63.913-28.615-63.913-63.913 0-25.374 14.786-47.294 36.212-57.614-4.037 8.38-6.299 17.777-6.299 27.701 0 35.298 28.615 63.913 63.913 63.913 9.925 0 19.321-2.262 27.701-6.299z" fill="#fc5426"/><path d="M440.368 407.294a6.116 6.116 0 00-.295-.801C430.12 379.946 404.481 361 374.5 361c-20.542 0-39.046 8.895-51.863 23.034a6.06 6.06 0 00-.837.94c-10.768 12.314-17.3 28.421-17.3 46.025 0 38.598 31.402 70 70 70s70-31.402 70-70a69.673 69.673 0 00-4.132-23.705zm-14.189-2.226a119.758 119.758 0 00-35.554 18.415 151.2 151.2 0 00-4.833-5.039 150.25 150.25 0 00-10.921-9.844 105.186 105.186 0 0016.198-33.008c15.336 4.595 28.016 15.397 35.11 29.476zM374.5 373.174c1.527 0 3.04.06 4.538.177a93.05 93.05 0 01-13.897 27.932 152.078 152.078 0 00-27.271-14.994c9.98-8.193 22.741-13.115 36.63-13.115zM316.674 431c0-13.269 4.492-25.507 12.035-35.276a137.767 137.767 0 0128.567 14.975 93.125 93.125 0 01-40.422 24.879 58.286 58.286 0 01-.18-4.578zm2.43 16.607a105.302 105.302 0 0047.974-29.563 141.326 141.326 0 0114.137 13.315 119.885 119.885 0 00-32.646 51.32c-14.068-7.088-24.864-19.753-29.465-35.072zm55.396 41.219c-5.014 0-9.881-.642-14.523-1.847a107.694 107.694 0 0129.121-46.326c8.524 10.979 15.437 23.24 20.345 36.393-9.713 7.389-21.825 11.78-34.943 11.78zm44.446-20.873a152.219 152.219 0 00-20.456-35.151 107.588 107.588 0 0131.99-16.325 57.742 57.742 0 011.847 14.524c-.001 14.038-5.03 26.925-13.381 36.952z" fill="#ee4424"/><path d="M217.675 401.774l-13.8 13.8 13.8 13.8c3.905 3.905 3.905 10.237 0 14.142l-2.555 2.555c-3.905 3.905-10.237 3.905-14.142 0l-13.8-13.8-13.8 13.8c-3.905 3.905-10.237 3.905-14.142 0l-2.555-2.555c-3.905-3.905-3.905-10.237 0-14.142l13.8-13.8-13.8-13.8c-3.905-3.905-3.905-10.237 0-14.142l2.555-2.555c3.905-3.905 10.237-3.905 14.142 0l13.8 13.8 13.8-13.8c3.905-3.905 10.237-3.905 14.142 0l2.555 2.555c3.905 3.905 3.905 10.237 0 14.142zm190.096-129.348l13.8-13.8c3.905-3.905 3.905-10.237 0-14.142l-2.555-2.555c-3.905-3.905-10.237-3.905-14.142 0l-13.8 13.8-13.8-13.8c-3.905-3.905-10.237-3.905-14.142 0l-2.555 2.555c-3.905 3.905-3.905 10.237 0 14.142l13.8 13.8-13.8 13.8c-3.905 3.905-3.905 10.237 0 14.142l2.555 2.555c3.905 3.905 10.237 3.905 14.142 0l13.8-13.8 13.8 13.8c3.905 3.905 10.237 3.905 14.142 0l2.555-2.555c3.905-3.905 3.905-10.237 0-14.142zM217.675 53.735l-2.555-2.555c-3.905-3.905-10.237-3.905-14.142 0l-13.8 13.8-13.8-13.8c-3.905-3.905-10.237-3.905-14.142 0l-2.555 2.555c-3.905 3.905-3.905 10.237 0 14.142l13.8 13.8-13.8 13.8c-3.905 3.905-3.905 10.237 0 14.142l2.555 2.555c3.905 3.905 10.237 3.905 14.142 0l13.8-13.8 13.8 13.8c3.905 3.905 10.237 3.905 14.142 0l2.555-2.555c3.905-3.905 3.905-10.237 0-14.142l-13.8-13.8 13.8-13.8c3.905-3.905 3.905-10.236 0-14.142z" fill="#f5c02c"/><path d="M382.303 338.949l-35.355 35.355a7.502 7.502 0 01-10.607 0l-35.355-35.355a7.5 7.5 0 0110.607-10.607l22.831 22.831C331.591 247.481 246.363 164 142 164c-4.143 0-7.5-3.357-7.5-7.5s3.357-7.5 7.5-7.5c55.469 0 107.589 21.571 146.759 60.741 37.784 37.784 59.186 87.619 60.653 140.885l22.284-22.285c1.465-1.464 3.385-2.196 5.304-2.196s3.839.732 5.304 2.196a7.502 7.502 0 01-.001 10.608z" fill="#fff5f5"/></svg>