<svg height="512" viewBox="0 0 501 501" width="512" xmlns="http://www.w3.org/2000/svg"><path d="M59.224 409.084C25.615 367.145 5.5 313.926 5.5 256c0-135.31 109.69-245 245-245s245 109.69 245 245c0 57.926-20.115 111.145-53.724 153.084C386.114 386.2 320.611 373 250.5 373s-135.614 13.2-191.276 36.084z" fill="#f5c02c"/><path d="M334.5 260v157.263c0 46.004-37.112 83.573-83.115 83.735l-.885.002c-78.588 0-148.534-37.002-193.366-94.534C52.668 400.735 44.5 280 44.5 280v-20c0-26.123 16.699-48.334 40-56.573V170h210v33.427c23.301 8.239 40 30.45 40 56.573z" fill="#ee4424"/><path d="M334.5 260v157.263c0 46.004-37.112 83.573-83.115 83.735l-.885.002c-59.271 0-113.627-21.048-156-56.076V260c0-33.137 26.863-60 60-60h120c33.137 0 60 26.863 60 60z" fill="#fc6930"/><path d="M304.5 180h-230c-5.523 0-10-4.477-10-10v-30c0-5.523 4.477-10 10-10h230c5.523 0 10 4.477 10 10v30c0 5.523-4.477 10-10 10z" fill="#1f3595"/><path d="M253.5 180H124c-5.523 0-10-4.477-10-10v-30c0-5.523 4.477-10 10-10h129.5c5.523 0 10 4.477 10 10v30c0 5.523-4.477 10-10 10z" fill="#2740af"/><path d="M114.5 130h20v50h-20c-5.523 0-10-4.477-10-10v-30c0-5.523 4.477-10 10-10zm80 0v50h20v-50zm-40 50h20v-50h-20z" fill="#4f66cf"/><path d="M44.5 280h290v178.46H112.491A246.327 246.327 0 0144.5 388.678V330l3-4 .761-18.256-3.761-6.204z" fill="#174550"/><path d="M94.5 280h150v178.46H112.491A245.995 245.995 0 0194.5 444.924z" fill="#024c67"/><path d="M334.5 330h-290v-28.46h290z" fill="#b3d1e1"/><path d="M334.5 330h-240v-28.46h240z" fill="#e3f0fb"/><path d="M44.5 351.54h290V420H68.484A245.926 245.926 0 0144.5 388.678z" fill="#2740af"/><path d="M250.5 420h-156v-68.46h156z" fill="#4f66cf"/><path d="M104.5 375a5 5 0 015-5h100a5 5 0 010 10h-100a5 5 0 01-5-5zm105 15h-100a5 5 0 000 10h100a5 5 0 000-10z" fill="#2740af"/><path d="M415.5 211.953v29.307c17.252 4.44 30 20.102 30 38.74v124.346C400.744 463.087 330.049 501 250.5 501c-.765 0-1.529-.004-2.292-.011-8.977-7.335-14.708-18.492-14.708-30.989V280c0-18.638 12.748-34.299 30-38.74v-29.307c-17.929-10.376-30-29.749-30-51.953v-50c0-11.046 8.954-20 20-20h172c11.046 0 20 8.954 20 20v50c0 22.205-12.071 41.577-30 51.953z" fill="#05a2f9"/><path d="M385.5 220h-52c-33.137 0-60-26.863-60-60v-50c0-11.046 8.954-20 20-20h132c11.046 0 20 8.954 20 20v50c0 33.137-26.863 60-60 60zm60 184.346V280c0-22.091-17.909-40-40-40h-92c-22.091 0-40 17.909-40 40v190c0 11.169 4.578 21.268 11.959 28.525 65.109-9.302 121.962-44.202 160.041-94.179z" fill="#63bcfa"/><path d="M445.5 148h-212V90h212z" fill="#b3d1e1"/><path d="M445.5 148h-172V90h172z" fill="#e3f0fb"/><path d="M414.5 140c0 5.523-4.477 10-10 10h-40c-5.523 0-10-4.477-10-10s4.477-10 10-10h40c5.523 0 10 4.477 10 10z" fill="#b3d1e1"/><path d="M414.5 260c0 5.523-4.477 10-10 10h-40c-5.523 0-10-4.477-10-10s4.477-10 10-10h40c5.523 0 10 4.477 10 10zm-20-90h-20c-5.523 0-10 4.477-10 10s4.477 10 10 10h20c5.523 0 10-4.477 10-10s-4.477-10-10-10zm0 40h-20c-5.523 0-10 4.477-10 10s4.477 10 10 10h20c5.523 0 10-4.477 10-10s-4.477-10-10-10zm0 80h-20c-5.523 0-10 4.477-10 10s4.477 10 10 10h20c5.523 0 10-4.477 10-10s-4.477-10-10-10zm0 40h-20c-5.523 0-10 4.477-10 10s4.477 10 10 10h20c5.523 0 10-4.477 10-10s-4.477-10-10-10zm10 40h-40c-5.523 0-10 4.477-10 10s4.477 10 10 10h40c5.523 0 10-4.477 10-10s-4.477-10-10-10zm-10 40h-20c-5.523 0-10 4.477-10 10s4.477 10 10 10h20c5.523 0 10-4.477 10-10s-4.477-10-10-10z" fill="#3691bb"/><path d="M375.5 12l-19.2 96h-36l-16.8-96z" fill="#c64b1a"/><path d="M289 15c0-8.284 6.716-15 15-15h71c8.284 0 15 6.716 15 15s-6.716 15-15 15h-71c-8.284 0-15-6.716-15-15zm155.5 55h-210c-11.046 0-20 8.954-20 20s8.954 20 20 20h210c11.046 0 20-8.954 20-20s-8.954-20-20-20z" fill="#ee4424"/><path d="M323.5 15c0-8.284 6.716-15 15-15H375c8.284 0 15 6.716 15 15s-6.716 15-15 15h-36.5c-8.284 0-15-6.716-15-15zm121 55h-161c-11.046 0-20 8.954-20 20s8.954 20 20 20h161c11.046 0 20-8.954 20-20s-8.954-20-20-20z" fill="#fc6930"/></svg>