<svg height="512" width="512" xmlns="http://www.w3.org/2000/svg"><path d="M65.979 410.643C31.615 368.467 11 314.644 11 256 11 120.69 120.69 11 256 11s245 109.69 245 245c0 56.92-19.42 109.298-51.984 150.892-1.689 2.157-4.671 2.842-7.101 1.575-52.752-27.505-116.822-43.634-185.915-43.634-70.895 0-136.502 16.981-190.021 45.81z" fill="#fc6930"/><path d="M499.392 227.775A247.675 247.675 0 01501 256c0 56.92-19.42 109.298-51.984 150.892-1.689 2.157-4.672 2.842-7.101 1.575-52.752-27.506-116.822-43.634-185.915-43.634-70.895 0-136.502 16.981-190.021 45.809C31.615 368.467 11 314.644 11 256c0-9.546.546-18.964 1.608-28.225z" fill="#fc5426"/><path d="M445.937 369.23l3.277 37.43C404.376 464.082 334.5 501 256 501s-148.376-36.918-193.214-94.34l3.277-37.43z" fill="#e3b5a9"/><path d="M366 370h20v93.704a244.556 244.556 0 01-20 11.273z" fill="#d9a091"/><path d="M256 250l110 24.044v200.933C332.923 491.625 295.556 501 256 501s-76.923-9.375-110-26.023V274.044z" fill="#172a7d"/><path d="M381 130v20c0 11.046-8.954 20-20 20h-5c0 39.186-25.046 72.516-60 84.872v37.351c0 22.091-17.909 40-40 40s-40-17.909-40-40v-37.351c-34.954-12.356-60-45.686-60-84.872h-5c-11.046 0-20-8.954-20-20v-20c0-11.046 8.954-20 20-20h5s7-90 70-90h60c66 1.5 70 90 70 90h5c11.046 0 20 8.954 20 20z" fill="#e1a595"/><path d="M306.89 63.25c26.201 0 47.81 20.545 49.108 46.714A.977.977 0 00356 110v60.019c-.01 49.361-39.759 89.437-88.996 89.975C218.862 259.46 180 220.269 180 172l-.141-82.063c0-3.073.198-6.1.582-9.069 1.308-10.109 10.049-17.619 20.242-17.619H306.89z" fill="#eac0b5"/><path d="M148.594 169.856C138.683 168.668 131 160.231 131 150v-20c0-10.231 7.683-18.668 17.594-19.856A19.905 19.905 0 00146 120v40c0 3.584.943 6.947 2.594 9.856zm93.184 122.366v-32.324A89.658 89.658 0 01216 254.871v37.351c0 22.091 17.909 40 40 40 4.51 0 8.845-.747 12.889-2.122-15.768-5.364-27.111-20.296-27.111-37.878z" fill="#dd9683"/><path d="M272 179.5a7.5 7.5 0 01-7.5 7.5h-1.278c-.876 3.17-3.774 5.5-7.222 5.5-3.448 0-6.346-2.33-7.222-5.5H247.5a7.5 7.5 0 010-15h1v-24.5a7.5 7.5 0 0115 0V172h1a7.5 7.5 0 017.5 7.5z" fill="#c68978"/><path d="M216.062 147.5c0 8.284-6.716 15-15 15s-15-6.716-15-15 6.716-15 15-15c8.285 0 15 6.716 15 15zm92.875-15c-8.284 0-15 6.716-15 15s6.716 15 15 15 15-6.716 15-15-6.715-15-15-15z" fill="#174550"/><path d="M216.062 140a7.5 7.5 0 11-15 0 7.5 7.5 0 0115 0zm100.375-7.5a7.5 7.5 0 100 15 7.5 7.5 0 000-15z" fill="#fff5f5"/><path d="M236.969 117.5a7.5 7.5 0 01-7.5 7.5h-37.5a7.5 7.5 0 010-15h37.5a7.5 7.5 0 017.5 7.5zm83.062-7.5h-37.5a7.5 7.5 0 000 15h37.5a7.5 7.5 0 000-15z" fill="#b76c54"/><path d="M296 80H186a6 6 0 00-6 6c0 13.255-10.745 24-24 24V70c0-38.66 31.34-70 70-70s70 31.34 70 70z" fill="#533022"/><path d="M356 70v40c-13.255 0-24-10.745-24-24a6 6 0 00-6-6H216V70c0-38.66 31.34-70 70-70s70 31.34 70 70z" fill="#7d402d"/><path d="M65.12 380l2.748-31.387c3.053-34.868 28.418-63.703 62.612-71.177l60.435-13.21L256.002 325l65.086-60.773 60.432 13.209c34.194 7.474 59.559 36.309 62.612 71.177L446.88 380z" fill="#2740af"/><path d="M93.379 343.943L90.834 380H65.12l2.748-31.387c2.869-32.766 25.443-60.201 56.53-69.592-17.406 15.341-29.015 38.639-31.019 64.922zM156 343.08V380h-10v-36.92a5 5 0 0110 0zm205-5a5 5 0 00-5 5V380h10v-36.92a5 5 0 00-5-5z" fill="#172a7d"/><path d="M341.567 268.703l-71.865 58.269A10 10 0 00266 334.74v24.918c0 5.326-4.019 9.977-9.334 10.321-5.825.377-10.666-4.236-10.666-9.979v-25.264a10 10 0 00-3.702-7.768l-71.861-58.266a107.56 107.56 0 0119.531-4.356l.946-.12L256.002 317l65.086-52.773.12.015a112.31 112.31 0 0120.359 4.461z" fill="#f9eecf"/><path d="M261.458 359.375a5.458 5.458 0 11-10.916 0 5.458 5.458 0 0110.916 0zM256 345.958a5.458 5.458 0 100-10.916 5.458 5.458 0 000 10.916z" fill="#4f66cf"/><path d="M303.793 255.637c-2.382 4.662-6.548 8.325-11.785 9.903a90.012 90.012 0 01-26.007 3.815h-20a89.973 89.973 0 01-26.007-3.815c-5.238-1.578-9.404-5.241-11.786-9.904-17.743-9.96-32.363-25.991-41.571-43.157a89.585 89.585 0 0030.334 14.536C201.538 228.22 206 224.723 206 220c0-11.046 8.954-20 20-20h60c11.046 0 20 8.954 20 20 0 4.723 4.462 8.22 9.029 7.016a89.567 89.567 0 0030.334-14.536c-9.207 17.166-23.827 33.197-41.57 43.157z" fill="#533022"/><path d="M345.36 212.483l-.136.268c-.424.79-.725 1.37-1.142 2.171-15.341 29.507-44.149 44.713-77.078 45.073-27.283-.302-51.581-13.023-67.519-32.773 3.561-.348 6.515-3.379 6.515-7.221 0-11.046 8.954-20 20-20h60c11.046 0 20 8.954 20 20 0 4.723 4.462 8.22 9.029 7.016a89.595 89.595 0 0030.331-14.534z" fill="#7d402d"/><path d="M261.156 239.047h-10.313c-11.65 0-21.094-9.444-21.094-21.094a7.5 7.5 0 017.5-7.5h37.5a7.5 7.5 0 017.5 7.5c.001 11.65-9.443 21.094-21.093 21.094z" fill="#d9a091"/><path d="M261.156 239.047c-11.65 0-21.094-9.444-21.094-21.094a7.5 7.5 0 017.5-7.5h27.188a7.5 7.5 0 017.5 7.5c0 11.65-9.444 21.094-21.094 21.094z" fill="#e3b5a9"/><path d="M215 370h-30a5 5 0 010-10h30a5 5 0 010 10z" fill="#b3d1e1"/><path d="M146 380s219.677-.065 220 0v10c-.451-.012-220 0-220 0z" fill="#05a2f9"/><path d="M320.548 351.304c6.347 0 12.267 1.359 17.263 3.708.426.2.768.541.978.961 1.338 2.677 2.164 5.851 2.286 9.523.013.39.02.782.02 1.176 0 14.015-8.33 26.018-20.15 31.005a1.025 1.025 0 01-.795 0c-11.82-4.987-20.15-16.99-20.15-31.005 0-.394.007-.786.02-1.176.123-3.671.948-6.846 2.286-9.523a2.09 2.09 0 01.978-.961c4.997-2.349 10.917-3.708 17.264-3.708z" fill="#f19b0b"/><path d="M321.389 397.486a21.96 21.96 0 01-.444.191 1.025 1.025 0 01-.795 0c-11.82-4.987-20.15-16.99-20.15-31.004 0-.394.007-.786.02-1.176.123-3.671.948-6.846 2.286-9.523a2.09 2.09 0 01.978-.961c3.859-1.814 8.268-3.038 12.999-3.501-.036.976-.063 1.969-.078 2.979-.013.866-.02 1.736-.02 2.609.001 14.892 1.913 28.761 5.204 40.386z" fill="#d98800"/><path d="M321.359 359.95l3.183 6.449a.905.905 0 00.681.495l7.117 1.034a.904.904 0 01.501 1.542l-5.15 5.02a.905.905 0 00-.26.8l1.216 7.089a.904.904 0 01-1.312.953l-6.366-3.347a.906.906 0 00-.841 0l-6.366 3.347a.904.904 0 01-1.312-.953l1.216-7.089a.905.905 0 00-.26-.8l-5.15-5.02a.904.904 0 01.501-1.542l7.117-1.034a.906.906 0 00.681-.495l3.183-6.449a.904.904 0 011.621 0z" fill="#fdf061"/><path d="M210 450h-20c-5.523 0-10-4.477-10-10s4.477-10 10-10h20c5.523 0 10 4.477 10 10s-4.477 10-10 10z" fill="#d9a091"/><path d="M280.443 426.849h-12.386a7.741 7.741 0 01-7.741-7.741v-12.386a7.741 7.741 0 017.741-7.741h12.386a7.741 7.741 0 017.741 7.741v12.386a7.74 7.74 0 01-7.741 7.741z" fill="#ee4424"/><path d="M280.443 426.849h-.774a7.741 7.741 0 01-7.741-7.741v-12.386a7.741 7.741 0 017.741-7.741h.774a7.741 7.741 0 017.741 7.741v12.386a7.74 7.74 0 01-7.741 7.741zm-33.286-13.159v8.515a7.741 7.741 0 01-15.482 0v-8.515a7.741 7.741 0 0115.482 0zm61.927-7.741a7.741 7.741 0 00-7.741 7.741v8.515a7.741 7.741 0 0015.482 0v-8.515a7.74 7.74 0 00-7.741-7.741z" fill="#fc6930"/><path d="M315.277 512h-82.054C220.397 512 210 501.603 210 488.777v-51.09c0-12.826 10.397-23.223 23.223-23.223h82.054c12.826 0 23.223 10.397 23.223 23.223v51.09c0 12.826-10.397 23.223-23.223 23.223z" fill="#f4aa39"/><path d="M315.277 512H274.25c-26.934 0-48.768-21.834-48.768-48.768s21.834-48.768 48.768-48.768h41.027c12.826 0 23.223 10.397 23.223 23.223v51.09c0 12.826-10.397 23.223-23.223 23.223z" fill="#f1ca50"/><path d="M307.536 490.8h-66.572a3.87 3.87 0 01-3.87-3.87v-47.395a3.87 3.87 0 013.87-3.87h66.572a3.87 3.87 0 013.87 3.87v47.395a3.87 3.87 0 01-3.87 3.87z" fill="#174550"/><path d="M280.056 467.683a2.903 2.903 0 11-5.807 0 2.903 2.903 0 015.807 0zm-15.482-2.903a2.903 2.903 0 00-2.903 2.903v9.676a2.903 2.903 0 005.806 0v-9.676c0-1.603-1.3-2.903-2.903-2.903zm0-19.352h-7.741a2.903 2.903 0 000 5.806h4.838v6.773a2.903 2.903 0 005.806 0v-9.676c0-1.604-1.3-2.903-2.903-2.903zm-16.45 0a2.903 2.903 0 00-2.903 2.903v9.676a2.903 2.903 0 005.806 0v-9.676c0-1.604-1.3-2.903-2.903-2.903zm0 19.352a2.903 2.903 0 00-2.903 2.903v9.676a2.903 2.903 0 005.806 0v-9.676c0-1.603-1.3-2.903-2.903-2.903zm52.252-19.352a2.903 2.903 0 00-2.903 2.903v9.676a2.903 2.903 0 005.806 0v-9.676c0-1.604-1.3-2.903-2.903-2.903zm0 19.352a2.903 2.903 0 00-2.903 2.903v9.676a2.903 2.903 0 005.806 0v-9.676c0-1.603-1.3-2.903-2.903-2.903zm-11.612 0a2.903 2.903 0 00-2.903 2.903v9.676a2.903 2.903 0 005.806 0v-9.676c0-1.603-1.3-2.903-2.903-2.903zm0-19.352a2.903 2.903 0 00-2.903 2.903v9.676a2.903 2.903 0 005.806 0v-9.676c0-1.604-1.3-2.903-2.903-2.903zm-11.611 9.676a2.903 2.903 0 100 5.807 2.903 2.903 0 000-5.807z" fill="#017296"/><path d="M240 450v40c0 5.523-4.477 10-10 10h-40c-5.523 0-10-4.477-10-10H90.228c-16.657 0-30.125-13.57-29.999-30.227L60.5 424 180 440h50c5.523 0 10 4.477 10 10z" fill="#e3b5a9"/><path d="M114.228 490h-24c-16.657 0-30.125-13.57-29.999-30.228L60.5 424l4.3-44h26.034l-6.333 50.966c-.018-.018-.036-.032-.054-.049l-.219 28.855c-.125 16.658 13.343 30.228 30 30.228z" fill="#d9a091"/></svg>