<svg id="Capa_1" enable-background="new 0 0 512 512" height="512" viewBox="0 0 512 512" width="512" xmlns="http://www.w3.org/2000/svg"><g><path d="m65.979 410.643c-34.364-42.176-54.979-95.999-54.979-154.643 0-135.31 109.69-245 245-245s245 109.69 245 245c0 56.92-19.42 109.298-51.984 150.892-1.689 2.157-4.671 2.842-7.101 1.575-52.752-27.505-116.822-43.634-185.915-43.634-70.895 0-136.502 16.981-190.021 45.81z" fill="#fc6930"/><path d="m499.392 227.775c1.062 9.261 1.608 18.679 1.608 28.225 0 56.92-19.42 109.298-51.984 150.892-1.689 2.157-4.672 2.842-7.101 1.575-52.752-27.506-116.822-43.634-185.915-43.634-70.895 0-136.502 16.981-190.021 45.809-34.364-42.175-54.979-95.998-54.979-154.642 0-9.546.546-18.964 1.608-28.225z" fill="#fc5426"/><path d="m445.937 369.23 3.277 37.43c-44.838 57.422-114.714 94.34-193.214 94.34s-148.376-36.918-193.214-94.34l3.277-37.43z" fill="#e3b5a9"/><path d="m366 370h20v93.704c-6.47 4.058-13.143 7.822-20 11.273z" fill="#d9a091"/><path d="m256 250 110 24.044v200.933c-33.077 16.648-70.444 26.023-110 26.023s-76.923-9.375-110-26.023v-200.933z" fill="#172a7d"/><path d="m381 130v20c0 11.046-8.954 20-20 20h-5c0 39.186-25.046 72.516-60 84.872v37.351c0 22.091-17.909 40-40 40-22.091 0-40-17.909-40-40v-37.351c-34.954-12.356-60-45.686-60-84.872h-5c-11.046 0-20-8.954-20-20v-20c0-11.046 8.954-20 20-20h5s7-90 70-90h60c66 1.5 70 90 70 90h5c11.046 0 20 8.954 20 20z" fill="#e1a595"/><path d="m306.89 63.25c26.201 0 47.81 20.545 49.108 46.714.001.024.002.036.002.036v60.019c-.01 49.361-39.759 89.437-88.996 89.975-48.142-.534-87.004-39.725-87.004-87.994l-.141-82.063c0-3.073.198-6.1.582-9.069 1.308-10.109 10.049-17.619 20.242-17.619h106.207z" fill="#eac0b5"/><path d="m148.594 169.856c-9.911-1.188-17.594-9.625-17.594-19.856v-20c0-10.231 7.683-18.668 17.594-19.856-1.651 2.909-2.594 6.272-2.594 9.856v40c0 3.584.943 6.947 2.594 9.856zm93.184 122.366v-32.324c-9.002-.416-17.656-2.156-25.778-5.027v37.351c0 22.091 17.909 40 40 40 4.51 0 8.845-.747 12.889-2.122-15.768-5.364-27.111-20.296-27.111-37.878z" fill="#dd9683"/><path d="m272 179.5c0 4.142-3.358 7.5-7.5 7.5h-1.278c-.876 3.17-3.774 5.5-7.222 5.5-3.448 0-6.346-2.33-7.222-5.5h-1.278c-4.142 0-7.5-3.358-7.5-7.5s3.358-7.5 7.5-7.5h1v-24.5c0-4.142 3.358-7.5 7.5-7.5 4.142 0 7.5 3.358 7.5 7.5v24.5h1c4.142 0 7.5 3.358 7.5 7.5z" fill="#c68978"/><path d="m216.062 147.5c0 8.284-6.716 15-15 15s-15-6.716-15-15 6.716-15 15-15c8.285 0 15 6.716 15 15zm92.875-15c-8.284 0-15 6.716-15 15s6.716 15 15 15 15-6.716 15-15-6.715-15-15-15z" fill="#174550"/><path d="m216.062 140c0 4.142-3.358 7.5-7.5 7.5s-7.5-3.358-7.5-7.5 3.358-7.5 7.5-7.5c4.143 0 7.5 3.358 7.5 7.5zm100.375-7.5c-4.142 0-7.5 3.358-7.5 7.5s3.358 7.5 7.5 7.5 7.5-3.358 7.5-7.5-3.357-7.5-7.5-7.5z" fill="#fff5f5"/><path d="m236.969 117.5c0 4.142-3.358 7.5-7.5 7.5h-37.5c-4.142 0-7.5-3.358-7.5-7.5s3.358-7.5 7.5-7.5h37.5c4.142 0 7.5 3.358 7.5 7.5zm83.062-7.5h-37.5c-4.142 0-7.5 3.358-7.5 7.5s3.358 7.5 7.5 7.5h37.5c4.142 0 7.5-3.358 7.5-7.5s-3.358-7.5-7.5-7.5z" fill="#b76c54"/><path d="m296 80h-110c-3.314 0-6 2.686-6 6 0 13.255-10.745 24-24 24v-30-10c0-38.66 31.34-70 70-70 38.66 0 70 31.34 70 70z" fill="#533022"/><path d="m356 70v10 30c-13.255 0-24-10.745-24-24 0-3.314-2.686-6-6-6h-110v-10c0-38.66 31.34-70 70-70 38.66 0 70 31.34 70 70z" fill="#7d402d"/><path d="m65.12 380 2.748-31.387c3.053-34.868 28.418-63.703 62.612-71.177l60.435-13.21 65.087 60.774 65.086-60.773 60.432 13.209c34.194 7.474 59.559 36.309 62.612 71.177l2.748 31.387z" fill="#2740af"/><path d="m93.379 343.943-2.545 36.057h-25.714l2.748-31.387c2.869-32.766 25.443-60.201 56.53-69.592-17.406 15.341-29.015 38.639-31.019 64.922zm62.621-.863v36.92h-10v-36.92c0-2.761 2.239-5 5-5s5 2.239 5 5zm205-5c-2.761 0-5 2.239-5 5v36.92h10v-36.92c0-2.761-2.239-5-5-5z" fill="#172a7d"/><path d="m341.567 268.703-71.865 58.269c-2.342 1.899-3.702 4.753-3.702 7.768v24.918c0 5.326-4.019 9.977-9.334 10.321-5.825.377-10.666-4.236-10.666-9.979v-25.264c0-3.015-1.36-5.869-3.702-7.768l-71.861-58.266c6.361-2.056 12.9-3.514 19.531-4.356l.946-.12 65.088 52.774 65.086-52.773.12.015c6.91.853 13.726 2.346 20.359 4.461z" fill="#f9eecf"/><path d="m261.458 359.375c0 3.015-2.444 5.458-5.458 5.458s-5.458-2.444-5.458-5.458 2.444-5.458 5.458-5.458 5.458 2.443 5.458 5.458zm-5.458-13.417c3.015 0 5.458-2.444 5.458-5.458s-2.444-5.458-5.458-5.458-5.458 2.444-5.458 5.458 2.443 5.458 5.458 5.458z" fill="#4f66cf"/><path d="m303.793 255.637c-2.382 4.662-6.548 8.325-11.785 9.903-8.234 2.481-16.965 3.815-26.007 3.815h-20c-9.042 0-17.774-1.333-26.007-3.815-5.238-1.578-9.404-5.241-11.786-9.904-17.743-9.96-32.363-25.991-41.571-43.157 8.981 6.623 19.239 11.61 30.334 14.536 4.567 1.205 9.029-2.292 9.029-7.015 0-11.046 8.954-20 20-20h60c11.046 0 20 8.954 20 20 0 4.723 4.462 8.22 9.029 7.016 11.096-2.926 21.354-7.913 30.334-14.536-9.207 17.166-23.827 33.197-41.57 43.157z" fill="#533022"/><path d="m345.36 212.483c-.012.022-.124.245-.136.268-.424.79-.725 1.37-1.142 2.171-15.341 29.507-44.149 44.713-77.078 45.073-27.283-.302-51.581-13.023-67.519-32.773 3.561-.348 6.515-3.379 6.515-7.221 0-11.046 8.954-20 20-20h60c11.046 0 20 8.954 20 20 0 4.723 4.462 8.22 9.029 7.016 11.095-2.926 21.351-7.913 30.331-14.534z" fill="#7d402d"/><path d="m261.156 239.047h-10.313c-11.65 0-21.094-9.444-21.094-21.094 0-4.142 3.358-7.5 7.5-7.5h37.5c4.142 0 7.5 3.358 7.5 7.5.001 11.65-9.443 21.094-21.093 21.094z" fill="#d9a091"/><path d="m261.156 239.047c-11.65 0-21.094-9.444-21.094-21.094 0-4.142 3.358-7.5 7.5-7.5h27.188c4.142 0 7.5 3.358 7.5 7.5 0 11.65-9.444 21.094-21.094 21.094z" fill="#e3b5a9"/><path d="m215 370h-30c-2.761 0-5-2.239-5-5 0-2.761 2.239-5 5-5h30c2.761 0 5 2.239 5 5 0 2.761-2.239 5-5 5z" fill="#b3d1e1"/><path d="m146 380s219.677-.065 220 0v10c-.451-.012-220 0-220 0z" fill="#05a2f9"/><path d="m320.548 351.304c6.347 0 12.267 1.359 17.263 3.708.426.2.768.541.978.961 1.338 2.677 2.164 5.851 2.286 9.523.013.39.02.782.02 1.176 0 14.015-8.33 26.018-20.15 31.005-.254.107-.541.107-.795 0-11.82-4.987-20.15-16.99-20.15-31.005 0-.394.007-.786.02-1.176.123-3.671.948-6.846 2.286-9.523.21-.421.553-.761.978-.961 4.997-2.349 10.917-3.708 17.264-3.708z" fill="#f19b0b"/><path d="m321.389 397.486c-.147.065-.295.129-.444.191-.254.107-.541.107-.795 0-11.82-4.987-20.15-16.99-20.15-31.004 0-.394.007-.786.02-1.176.123-3.671.948-6.846 2.286-9.523.21-.421.553-.761.978-.961 3.859-1.814 8.268-3.038 12.999-3.501-.036.976-.063 1.969-.078 2.979-.013.866-.02 1.736-.02 2.609.001 14.892 1.913 28.761 5.204 40.386z" fill="#d98800"/><path d="m321.359 359.95 3.183 6.449c.132.267.386.452.681.495l7.117 1.034c.742.108 1.038 1.019.501 1.542l-5.15 5.02c-.213.208-.31.507-.26.8l1.216 7.089c.127.739-.648 1.302-1.312.953l-6.366-3.347c-.263-.138-.578-.138-.841 0l-6.366 3.347c-.663.349-1.438-.215-1.312-.953l1.216-7.089c.05-.293-.047-.592-.26-.8l-5.15-5.02c-.537-.523-.24-1.434.501-1.542l7.117-1.034c.294-.043.549-.228.681-.495l3.183-6.449c.331-.672 1.289-.672 1.621 0z" fill="#fdf061"/><path d="m210 450h-20c-5.523 0-10-4.477-10-10 0-5.523 4.477-10 10-10h20c5.523 0 10 4.477 10 10 0 5.523-4.477 10-10 10z" fill="#d9a091"/><path d="m280.443 426.849h-12.386c-4.275 0-7.741-3.466-7.741-7.741v-12.386c0-4.275 3.466-7.741 7.741-7.741h12.386c4.275 0 7.741 3.466 7.741 7.741v12.386c0 4.276-3.466 7.741-7.741 7.741z" fill="#ee4424"/><path d="m280.443 426.849h-.774c-4.275 0-7.741-3.466-7.741-7.741v-12.386c0-4.275 3.466-7.741 7.741-7.741h.774c4.275 0 7.741 3.466 7.741 7.741v12.386c0 4.276-3.466 7.741-7.741 7.741zm-33.286-13.159v8.515c0 4.275-3.466 7.741-7.741 7.741s-7.741-3.466-7.741-7.741v-8.515c0-4.275 3.466-7.741 7.741-7.741s7.741 3.466 7.741 7.741zm61.927-7.741c-4.275 0-7.741 3.466-7.741 7.741v8.515c0 4.275 3.466 7.741 7.741 7.741s7.741-3.466 7.741-7.741v-8.515c0-4.275-3.465-7.741-7.741-7.741z" fill="#fc6930"/><path d="m315.277 512h-82.054c-12.826 0-23.223-10.397-23.223-23.223v-51.09c0-12.826 10.397-23.223 23.223-23.223h82.054c12.826 0 23.223 10.397 23.223 23.223v51.09c0 12.826-10.397 23.223-23.223 23.223z" fill="#f4aa39"/><path d="m315.277 512h-41.027c-26.934 0-48.768-21.834-48.768-48.768 0-26.934 21.834-48.768 48.768-48.768h41.027c12.826 0 23.223 10.397 23.223 23.223v51.09c0 12.826-10.397 23.223-23.223 23.223z" fill="#f1ca50"/><path d="m307.536 490.8h-66.572c-2.138 0-3.87-1.733-3.87-3.87v-47.395c0-2.138 1.733-3.87 3.87-3.87h66.572c2.138 0 3.87 1.733 3.87 3.87v47.395c.001 2.137-1.732 3.87-3.87 3.87z" fill="#174550"/><path d="m280.056 467.683c0 1.603-1.3 2.903-2.903 2.903s-2.903-1.3-2.903-2.903 1.3-2.903 2.903-2.903 2.903 1.3 2.903 2.903zm-15.482-2.903c-1.603 0-2.903 1.3-2.903 2.903v9.676c0 1.603 1.3 2.903 2.903 2.903s2.903-1.3 2.903-2.903v-9.676c0-1.603-1.3-2.903-2.903-2.903zm0-19.352h-7.741c-1.603 0-2.903 1.3-2.903 2.903s1.3 2.903 2.903 2.903h4.838v6.773c0 1.603 1.3 2.903 2.903 2.903s2.903-1.3 2.903-2.903v-9.676c0-1.604-1.3-2.903-2.903-2.903zm-16.45 0c-1.603 0-2.903 1.3-2.903 2.903v9.676c0 1.603 1.3 2.903 2.903 2.903s2.903-1.3 2.903-2.903v-9.676c0-1.604-1.3-2.903-2.903-2.903zm0 19.352c-1.603 0-2.903 1.3-2.903 2.903v9.676c0 1.603 1.3 2.903 2.903 2.903s2.903-1.3 2.903-2.903v-9.676c0-1.603-1.3-2.903-2.903-2.903zm52.252-19.352c-1.603 0-2.903 1.3-2.903 2.903v9.676c0 1.603 1.3 2.903 2.903 2.903s2.903-1.3 2.903-2.903v-9.676c0-1.604-1.3-2.903-2.903-2.903zm0 19.352c-1.603 0-2.903 1.3-2.903 2.903v9.676c0 1.603 1.3 2.903 2.903 2.903s2.903-1.3 2.903-2.903v-9.676c0-1.603-1.3-2.903-2.903-2.903zm-11.612 0c-1.603 0-2.903 1.3-2.903 2.903v9.676c0 1.603 1.3 2.903 2.903 2.903s2.903-1.3 2.903-2.903v-9.676c0-1.603-1.3-2.903-2.903-2.903zm0-19.352c-1.603 0-2.903 1.3-2.903 2.903v9.676c0 1.603 1.3 2.903 2.903 2.903s2.903-1.3 2.903-2.903v-9.676c0-1.604-1.3-2.903-2.903-2.903zm-11.611 9.676c-1.603 0-2.903 1.3-2.903 2.903s1.3 2.903 2.903 2.903 2.903-1.3 2.903-2.903-1.3-2.903-2.903-2.903z" fill="#017296"/><path d="m240 450v40c0 5.523-4.477 10-10 10h-40c-5.523 0-10-4.477-10-10h-89.772c-16.657 0-30.125-13.57-29.999-30.227l.271-35.773 119.5 16h50c5.523 0 10 4.477 10 10z" fill="#e3b5a9"/><path d="m114.228 490h-24c-16.657 0-30.125-13.57-29.999-30.228l.271-35.772 4.3-44h26.034l-6.333 50.966c-.018-.018-.036-.032-.054-.049l-.219 28.855c-.125 16.658 13.343 30.228 30 30.228z" fill="#d9a091"/></g></svg>