<svg height="512" viewBox="0 0 501 501" width="512" xmlns="http://www.w3.org/2000/svg"><path d="M.003 251.704c-.004-.759-.004-1.519-.001-2.28C.585 113.86 110.028 5.18 245.592 5.501 380.629 5.82 490 115.388 490 250.5l-.001.558c-.066 29.69-24.374 53.63-54.064 53.63H53.188c-29.295.001-53.044-23.69-53.185-52.984z" fill="#2740af"/><path d="M17.223 160.087h455.555C483.891 188.062 490 218.567 490 250.5c0 18.554-2.063 36.626-5.971 54H14.136c-4.837 0-8.966-3.456-9.864-8.209A246.385 246.385 0 010 250.5c0-31.933 6.109-62.438 17.223-90.413z" fill="#1f3595"/><path d="M441.765 104.5H369v200h-30v-200h-70c-5.523 0-10-4.477-10-10V5.894c74.849 4.216 140.718 42.032 182.765 98.606z" fill="#4f66cf"/><path d="M425.193 84.5H284a5 5 0 01-5-5V7.84c3.355.466 6.689 1 10 1.6V72.5a2 2 0 002 2h124.438a246.69 246.69 0 019.755 10z" fill="#172a7d"/><path d="M384 89.5h-60c-5.523 0-10-4.477-10-10s4.477-10 10-10h60c5.523 0 10 4.477 10 10s-4.477 10-10 10z" fill="#05a2f9"/><path d="M384 89.5h-35c-5.523 0-10-4.477-10-10s4.477-10 10-10h35c5.523 0 10 4.477 10 10s-4.477 10-10 10z" fill="#63bcfa"/><path d="M486.06 294.5c-20.729 114.312-120.771 201-241.06 201S24.669 408.812 3.94 294.5z" fill="#ebae56"/><path d="M219 434.5H83.227a246.482 246.482 0 01-20.243-20H219c5.523 0 10 4.477 10 10s-4.477 10-10 10zm-10 20c0 5.523 4.477 10 10 10h145.376a245.407 245.407 0 0030.273-20H219c-5.523 0-10 4.477-10 10zm160-70c-5.523 0-10 4.477-10 10s4.477 10 10 10h66.56a245.96 245.96 0 0014.581-20z" fill="#ce9047"/><path d="M263.766 336.448H19V92.803c0-11.046 8.954-20 20-20h12.5a40 40 0 0030.543-14.171l22.871-27.046a19.999 19.999 0 0115.272-7.086h52.521a20 20 0 0119.441 15.306z" fill="#ee4424"/><path d="M59 154.387H19V92.803c0-11.046 8.954-20 20-20h12.5c2.538 0 5.047-.241 7.5-.71z" fill="#c64b1a"/><path d="M125.922 99.937l324.335 127.444a79.937 79.937 0 0139.522 33.601c-1.11 26.357-6.383 51.638-15.18 75.201l-97.865 11.406H19.991c-.334-.773-.664-1.548-.991-2.326V155.736c9.128-21.743 103.743-57.048 106.922-55.799z" fill="#fd7d43"/><path d="M501 301.84v31.267l-5.068.591c-7.805-20.853-24.148-37.97-45.675-46.428L125.922 159.824a30.01 30.01 0 00-9.963-2.061L19 154.5v-26s103.743-29.812 106.922-28.563l324.335 127.444C480.87 239.41 501 268.949 501 301.84z" fill="#fc5426"/><path d="M501 301.84v31.267L376.734 347.59H239l39.666-40.892a40.002 40.002 0 0125.115-11.987l91.707-8.278c30.677-2.769 54.313-28.253 54.769-59.051C480.87 239.41 501 268.949 501 301.84z" fill="#ee4424"/><path d="M219 264.5v100H69c-27.614 0-50-22.386-50-50v-170h80c66.274 0 120 53.726 120 120z" fill="#f1ca50"/><path d="M59 274.5H19v-120h40z" fill="#f4aa39"/><path d="M139.026 60.114a5 5 0 014.464-5.484l50.975-5.228 7.105 29.429-55.019 5.643a5 5 0 01-5.484-4.464z" fill="#fbc56d"/><path d="M149 334.5v30H49c-16.569 0-30-13.431-30-30v-60h70c33.137 0 60 26.863 60 60z" fill="#fd7d43"/><path d="M19 274.5h40v90H28.083A243.986 243.986 0 0119 345.264z" fill="#f16b38"/><path d="M149 219.5c0 19.33-15.67 35-35 35s-35-15.67-35-35 15.67-35 35-35 35 15.67 35 35z" fill="#ee4424"/><path d="M232.486 142.741L14.647 171.155A5 5 0 019 166.197v-39.915a5 5 0 014.353-4.958l201.873-26.331a4.998 4.998 0 015.253 3.014l15.966 37.833c1.285 3.043-.683 6.474-3.959 6.901z" fill="#63bcfa"/><path d="M59 165.37l-44.353 5.785A5 5 0 019 166.197v-39.915a5 5 0 014.353-4.958L59 115.37z" fill="#6caac9"/><path d="M49 166.983v-52.184a6 6 0 015.224-5.95l78-10.174c3.591-.468 6.776 2.328 6.776 5.95v52.184a6 6 0 01-5.224 5.95l-78 10.174c-3.591.468-6.776-2.328-6.776-5.95z" fill="#b3d1e1"/><path d="M239 144.37a40.166 40.166 0 0118.974 7.134l1.026.724v25.126c0 6.954-5.622 11.711-12.374 10.045a10.002 10.002 0 01-7.626-9.715zm80 31.435v33.043c0 4.067 2.32 7.868 6.061 9.463 6.638 2.832 13.939-2.042 13.939-9.192v-25.456l-.119-.072A62.574 62.574 0 00319 175.805zm-40 17.598a10 10 0 006.343 9.307c6.56 2.578 13.657-2.259 13.657-9.307v-25.457a60.091 60.091 0 00-19.078-7.662l-.922-.197zm-140-88.778v52.184a6 6 0 01-5.224 5.95L79 169.904v-64.286l53.224-6.942c3.591-.468 6.776 2.328 6.776 5.949z" fill="#e3f0fb"/><path d="M501 321.965v19.349a20.001 20.001 0 01-13.249 18.826l-12.809 4.594a599.995 599.995 0 01-202.541 35.219H57.976A8.976 8.976 0 0149 390.977v-46.729h301.051a300.04 300.04 0 0052.948-4.709z" fill="#b3d1e1"/><path d="M59 344.247v55.705h-8.152A244.8 244.8 0 0119 345.264v-1.017z" fill="#7daebd"/><path d="M501 321.965v19.349a20.001 20.001 0 01-13.249 18.826L481 362.561v-37.009zm-100.4 17.993v46.139a600.86 600.86 0 0020-4.735v-44.979l-17.601 3.156c-.799.142-1.599.282-2.399.419zm40.2 35.877a600.975 600.975 0 0020-6.229v-40.433l-20 3.586zM280 399.903c6.673-.084 13.341-.28 20-.586V344.5h-20zm40.2-1.858a599.606 599.606 0 0020-1.936v-51.862h-20zm40.2-4.582a597.803 597.803 0 0020-3.312v-47.444a299.606 299.606 0 01-20 1.36zm-160.8 6.489h20V344.5h-20zm40.2 0h20V344.5h-20zm-120.6 0h20V344.5h-20zm-40.2 0h20V344.5H79zm80.4 0h20V344.5h-20z" fill="#e3f0fb"/><path d="M136.175 178.009l8.887 18.008a2.525 2.525 0 001.901 1.381l19.873 2.888c2.07.301 2.897 2.845 1.399 4.306l-14.38 14.017a2.525 2.525 0 00-.726 2.234l3.395 19.792c.354 2.062-1.811 3.635-3.663 2.661l-17.775-9.345a2.521 2.521 0 00-2.349 0l-17.775 9.345c-1.852.974-4.016-.599-3.663-2.661l3.395-19.792a2.525 2.525 0 00-.726-2.234l-14.38-14.017c-1.498-1.46-.671-4.005 1.399-4.306l19.873-2.888a2.525 2.525 0 001.901-1.381l8.887-18.008c.926-1.876 3.601-1.876 4.527 0z" fill="#fff5f5"/></svg>