<svg id="Capa_1" enable-background="new 0 0 501 501" height="512" viewBox="0 0 501 501" width="512" xmlns="http://www.w3.org/2000/svg"><g><path d="m.003 251.704c-.004-.759-.004-1.519-.001-2.28.583-135.564 110.026-244.244 245.59-243.923 135.037.319 244.408 109.887 244.408 244.999 0 .186 0 .372-.001.558-.066 29.69-24.374 53.63-54.064 53.63h-382.747c-29.295.001-53.044-23.69-53.185-52.984z" fill="#2740af"/><path d="m17.223 160.087h455.555c11.113 27.975 17.222 58.48 17.222 90.413 0 18.554-2.063 36.626-5.971 54h-469.893c-4.837 0-8.966-3.456-9.864-8.209-2.804-14.835-4.272-30.142-4.272-45.791 0-31.933 6.109-62.438 17.223-90.413z" fill="#1f3595"/><path d="m441.765 104.5h-72.765v200h-30v-200h-70c-5.523 0-10-4.477-10-10v-88.606c74.849 4.216 140.718 42.032 182.765 98.606z" fill="#4f66cf"/><path d="m425.193 84.5h-141.193c-2.761 0-5-2.239-5-5v-71.66c3.355.466 6.689 1 10 1.6v63.06c0 1.105.895 2 2 2h124.438c3.345 3.24 6.598 6.575 9.755 10z" fill="#172a7d"/><path d="m384 89.5h-60c-5.523 0-10-4.477-10-10 0-5.523 4.477-10 10-10h60c5.523 0 10 4.477 10 10 0 5.523-4.477 10-10 10z" fill="#05a2f9"/><path d="m384 89.5h-35c-5.523 0-10-4.477-10-10 0-5.523 4.477-10 10-10h35c5.523 0 10 4.477 10 10 0 5.523-4.477 10-10 10z" fill="#63bcfa"/><path d="m486.06 294.5c-20.729 114.312-120.771 201-241.06 201s-220.331-86.688-241.06-201z" fill="#ebae56"/><path d="m219 434.5h-135.773c-7.127-6.271-13.887-12.95-20.243-20h156.016c5.523 0 10 4.477 10 10s-4.477 10-10 10zm-10 20c0 5.523 4.477 10 10 10h145.376c10.602-5.927 20.717-12.618 30.273-20h-175.649c-5.523 0-10 4.477-10 10zm160-70c-5.523 0-10 4.477-10 10s4.477 10 10 10h66.56c5.185-6.408 10.053-13.083 14.581-20z" fill="#ce9047"/><path d="m263.766 336.448h-244.766v-243.645c0-11.046 8.954-20 20-20h12.5c11.77 0 22.943-5.184 30.543-14.171l22.871-27.046c3.8-4.494 9.386-7.086 15.272-7.086h52.521c9.238 0 17.273 6.327 19.441 15.306z" fill="#ee4424"/><path d="m59 154.387h-40v-61.584c0-11.046 8.954-20 20-20h12.5c2.538 0 5.047-.241 7.5-.71z" fill="#c64b1a"/><path d="m125.922 99.937 324.335 127.444c16.919 6.648 30.635 18.645 39.522 33.601-1.11 26.357-6.383 51.638-15.18 75.201l-97.865 11.406h-356.743c-.334-.773-.664-1.548-.991-2.326v-189.527c9.128-21.743 103.743-57.048 106.922-55.799z" fill="#fd7d43"/><path d="m501 301.84v31.267l-5.068.591c-7.805-20.853-24.148-37.97-45.675-46.428l-324.335-127.446c-3.179-1.249-6.549-1.946-9.963-2.061l-96.959-3.263v-26s103.743-29.812 106.922-28.563l324.335 127.444c30.613 12.029 50.743 41.568 50.743 74.459z" fill="#fc5426"/><path d="m501 301.84v31.267l-124.266 14.483h-137.734l39.666-40.892c6.667-6.873 15.579-11.126 25.115-11.987l91.707-8.278c30.677-2.769 54.313-28.253 54.769-59.051 30.613 12.028 50.743 41.567 50.743 74.458z" fill="#ee4424"/><path d="m219 264.5v100h-150c-27.614 0-50-22.386-50-50v-170h80c66.274 0 120 53.726 120 120z" fill="#f1ca50"/><path d="m59 274.5h-40v-120h40z" fill="#f4aa39"/><path d="m139.026 60.114c-.282-2.747 1.717-5.202 4.464-5.484l50.975-5.228 7.105 29.429-55.019 5.643c-2.747.282-5.202-1.717-5.484-4.464z" fill="#fbc56d"/><path d="m149 334.5v30h-100c-16.569 0-30-13.431-30-30v-60h70c33.137 0 60 26.863 60 60z" fill="#fd7d43"/><path d="m19 274.5h40v90h-30.917c-3.295-6.257-6.328-12.674-9.083-19.236z" fill="#f16b38"/><path d="m149 219.5c0 19.33-15.67 35-35 35s-35-15.67-35-35 15.67-35 35-35 35 15.67 35 35z" fill="#ee4424"/><path d="m232.486 142.741-217.839 28.414c-2.993.39-5.647-1.94-5.647-4.958v-39.915c0-2.511 1.863-4.633 4.353-4.958l201.873-26.331c2.23-.291 4.379.942 5.253 3.014l15.966 37.833c1.285 3.043-.683 6.474-3.959 6.901z" fill="#63bcfa"/><path d="m59 165.37-44.353 5.785c-2.993.39-5.647-1.94-5.647-4.958v-39.915c0-2.511 1.863-4.633 4.353-4.958l45.647-5.954z" fill="#6caac9"/><path d="m49 166.983v-52.184c0-3.014 2.236-5.56 5.224-5.95l78-10.174c3.591-.468 6.776 2.328 6.776 5.95v52.184c0 3.014-2.236 5.56-5.224 5.95l-78 10.174c-3.591.468-6.776-2.328-6.776-5.95z" fill="#b3d1e1"/><path d="m239 144.37c6.831.717 13.364 3.173 18.974 7.134l1.026.724v25.126c0 6.954-5.622 11.711-12.374 10.045-4.537-1.119-7.626-5.16-7.626-9.715zm80 31.435v33.043c0 4.067 2.32 7.868 6.061 9.463 6.638 2.832 13.939-2.042 13.939-9.192v-25.456l-.119-.072c-6.132-3.715-12.857-6.349-19.881-7.786zm-40 17.598c0 4.111 2.516 7.803 6.343 9.307 6.56 2.578 13.657-2.259 13.657-9.307v-25.457c-5.872-3.631-12.326-6.223-19.078-7.662l-.922-.197zm-140-88.778v52.184c0 3.014-2.236 5.56-5.224 5.95l-54.776 7.145v-64.286l53.224-6.942c3.591-.468 6.776 2.328 6.776 5.949z" fill="#e3f0fb"/><path d="m501 321.965v19.349c0 8.442-5.302 15.976-13.249 18.826l-12.809 4.594c-64.985 23.305-133.504 35.219-202.541 35.219h-214.425c-4.957 0-8.976-4.019-8.976-8.976v-46.729h301.051c17.754 0 35.473-1.576 52.948-4.709z" fill="#b3d1e1"/><path d="m59 344.247v55.705h-8.152c-12.844-16.661-23.592-35.023-31.848-54.688v-1.017z" fill="#7daebd"/><path d="m501 321.965v19.349c0 8.442-5.302 15.976-13.249 18.826l-6.751 2.421v-37.009zm-100.4 17.993v46.139c6.691-1.464 13.359-3.042 20-4.735v-44.979l-17.601 3.156c-.799.142-1.599.282-2.399.419zm40.2 35.877c6.698-1.958 13.366-4.036 20-6.229v-40.433l-20 3.586zm-160.8 24.068c6.673-.084 13.341-.28 20-.586v-54.817h-20zm40.2-1.858c6.679-.534 13.347-1.179 20-1.936v-51.862h-20zm40.2-4.582c6.685-.991 13.353-2.095 20-3.312v-47.444c-6.648.676-13.319 1.13-20 1.36zm-160.8 6.489h20v-55.452h-20zm40.2 0h20v-55.452h-20zm-120.6 0h20v-55.452h-20zm-40.2 0h20v-55.452h-20zm80.4 0h20v-55.452h-20z" fill="#e3f0fb"/><path d="m136.175 178.009 8.887 18.008c.368.745 1.078 1.261 1.901 1.381l19.873 2.888c2.07.301 2.897 2.845 1.399 4.306l-14.38 14.017c-.595.58-.866 1.415-.726 2.234l3.395 19.792c.354 2.062-1.811 3.635-3.663 2.661l-17.775-9.345c-.735-.387-1.614-.387-2.349 0l-17.775 9.345c-1.852.974-4.016-.599-3.663-2.661l3.395-19.792c.14-.819-.131-1.654-.726-2.234l-14.38-14.017c-1.498-1.46-.671-4.005 1.399-4.306l19.873-2.888c.822-.119 1.533-.636 1.901-1.381l8.887-18.008c.926-1.876 3.601-1.876 4.527 0z" fill="#fff5f5"/></g></svg>