<svg height="512" viewBox="0 0 501 501" width="512" xmlns="http://www.w3.org/2000/svg"><path d="M490 250.5c0 58.348-20.41 111.921-54.462 154H54.462A245.206 245.206 0 0122 352.072v-36.976c0-10.101-7.836-18.352-17.758-19.055A246.147 246.147 0 010 250.5c0-135.31 109.69-245 245-245s245 109.69 245 245z" fill="#4f66cf"/><path d="M258 5.839a246 246 0 0122 2.142V414.5h-22zM387 344.5h22V68.484a246.31 246.31 0 00-22-17.66zM22 293.114V148.887C7.872 179.842 0 214.251 0 250.5c0 15.099 1.366 29.878 3.981 44.222C5.966 305.616 22 304.188 22 293.114zM129 414.5h22V24.181a243.8 243.8 0 00-22 10.467zm310-210h46.688a243.206 243.206 0 00-4.681-20H439c-5.523 0-10 4.477-10 10s4.477 10 10 10zM39 117.822V149.5a5 5 0 005 5h60a5 5 0 005-5V46.683a246.321 246.321 0 00-70 71.139zM99 219.5H49c-5.523 0-10 4.477-10 10s4.477 10 10 10h50c5.523 0 10-4.477 10-10s-4.477-10-10-10zm0-35H49c-5.523 0-10 4.477-10 10s4.477 10 10 10h50c5.523 0 10-4.477 10-10s-4.477-10-10-10zm340 55h50c.254 0 .507-.01.756-.028a246.333 246.333 0 00-1.699-19.972H439c-5.523 0-10 4.477-10 10s4.477 10 10 10zm-5-85h36.477c-10.301-24.164-24.374-46.334-41.477-65.772V149.5a5 5 0 005 5zm-335 100H49c-5.523 0-10 4.477-10 10s4.477 10 10 10h50c5.523 0 10-4.477 10-10s-4.477-10-10-10zm259.5-35h-50c-5.523 0-10 4.477-10 10s4.477 10 10 10h50c5.523 0 10-4.477 10-10s-4.477-10-10-10zm2.225-185H303.5a5 5 0 00-5 5v110a5 5 0 005 5h60a5 5 0 005-5v-110c0-.227-.015-.449-.044-.667a243.024 243.024 0 00-7.731-4.333zM229 254.5h-50c-5.523 0-10 4.477-10 10s4.477 10 10 10h50c5.523 0 10-4.477 10-10s-4.477-10-10-10zm129.5-70h-50c-5.523 0-10 4.477-10 10s4.477 10 10 10h50c5.523 0 10-4.477 10-10s-4.477-10-10-10zm130.5 70h-50c-5.523 0-10 4.477-10 10s4.477 10 10 10h49.839a247.476 247.476 0 001.128-19.953 9.971 9.971 0 00-.967-.047zm-130.5 0h-50c-5.523 0-10 4.477-10 10s4.477 10 10 10h50c5.523 0 10-4.477 10-10s-4.477-10-10-10zm-129.5-35h-50c-5.523 0-10 4.477-10 10s4.477 10 10 10h50c5.523 0 10-4.477 10-10s-4.477-10-10-10zm5-185h-60a5 5 0 00-5 5v110a5 5 0 005 5h60a5 5 0 005-5v-110a5 5 0 00-5-5zm-5 150h-50c-5.523 0-10 4.477-10 10s4.477 10 10 10h50c5.523 0 10-4.477 10-10s-4.477-10-10-10z" fill="#2740af"/><path d="M317.882 484.475C294.859 491.639 270.381 495.5 245 495.5c-59.581 0-114.193-21.271-156.661-56.63-.732-15.319-13.168-27.563-28.563-28.002A246.289 246.289 0 0146.764 394.5h145.764c30.67 42.147 74.453 74.137 125.354 89.975z" fill="#174550"/><path d="M390.259 447.807c-25.741 18.982-55.326 33.052-87.376 40.815-57.289-13.876-106.711-47.888-140.354-94.122h280.707a246.275 246.275 0 01-25.417 29.645h-1.895c-13.519 0-24.598 10.418-25.665 23.662z" fill="#024c67"/><path d="M419 344.5v78.479a246.284 246.284 0 01-30 25.757V344.5zM59 409.971a246.515 246.515 0 0030 29.453V344.5H59z" fill="#e55920"/><path d="M109 349.5v20a5 5 0 01-5 5H44a5 5 0 01-5-5v-20a5 5 0 015-5h60a5 5 0 015 5zm325-5h-60a5 5 0 00-5 5v20a5 5 0 005 5h60a5 5 0 005-5v-20a5 5 0 00-5-5z" fill="#c64b1a"/><path d="M501 304.5v40c0 5.523-4.477 10-10 10H23.105a243.243 243.243 0 01-19.165-60H491c5.523 0 10 4.477 10 10z" fill="#f4aa39"/><path d="M501 304.5v20H11.374a243.345 243.345 0 01-7.434-30H491c5.523 0 10 4.477 10 10z" fill="#f1ca50"/><path d="M129 434.5v-150h130v150c0 5.523-4.477 10-10 10H139c-5.523 0-10-4.477-10-10z" fill="#fdcbbb"/><path d="M159 434.5v-150h100v150c0 5.523-4.477 10-10 10h-80c-5.523 0-10-4.477-10-10z" fill="#fff5f5"/><path d="M309 249.5c0 8.284-6.716 15-15 15h-29.999c8.284 0 14.999 6.716 14.999 15s-6.716 15-15 15H114c-8.284 0-15-6.716-15-15s6.716-15 15-15h29.999c-8.284-.001-14.999-6.716-14.999-15s6.716-15 15-15h-30c-8.284 0-15-6.716-15-15s6.716-15 15-15h150c8.284 0 15 6.716 15 15s-6.716 15-15 15h30c8.284 0 15 6.716 15 15z" fill="#b3d1e1"/><path d="M129 219.5c0-8.284 6.716-15 15-15h120c8.284 0 15 6.716 15 15s-6.716 15-15 15H144c-8.284 0-15-6.716-15-15zm135 45H144c-8.284 0-15 6.716-15 15 0 8.284 6.716 15 15 15h120c8.284 0 15-6.716 15-15 0-8.284-6.716-15-15-15z" fill="#e3f0fb"/><path d="M259 404.5H129v-20h130zm0-60H129v20h130zm50-95c0 8.284-6.716 15-15 15H144c-8.284 0-15-6.716-15-15 0-8.284 6.716-15 15-15h150c8.284 0 15 6.716 15 15z" fill="#faab90"/><path d="M259 404.5H159v-20h100zm0-60H159v20h100zm50-95c0 8.284-6.716 15-15 15H174c-8.284 0-15-6.716-15-15 0-8.284 6.716-15 15-15h120c8.284 0 15 6.716 15 15z" fill="#fdc3ab"/></svg>