<svg id="Capa_1" enable-background="new 0 0 501 501" height="512" viewBox="0 0 501 501" width="512" xmlns="http://www.w3.org/2000/svg"><g><path d="m473.912 168.538c9.498 24.843-9.117 51.462-35.713 51.462h-386.391c-26.722 0-45.187-26.792-35.615-51.741 35.286-91.97 124.418-157.259 228.807-157.259 4.706 0 9.377.149 14.018.411.755 54.577 182.73 98.589 182.73 98.589 13.235 17.809 24.111 37.475 32.164 58.538z" fill="#22b27f"/><path d="m19.541 159.969h450.925c6.967 16.339 12.206 33.587 15.497 51.52.809 4.408-2.548 8.48-7.03 8.48h-468.122c-4.344 0-7.591-3.946-6.812-8.219 3.289-18.027 8.542-35.362 15.542-51.781z" fill="#059b7e"/><path d="m441.765 110h-72.765v200h-30v-200h-80v-98.606c74.849 4.216 140.718 42.032 182.765 98.606z" fill="#f9eecf"/><path d="m425.193 90h-141.193c-2.761 0-5-2.239-5-5v-71.66c3.355.466 6.689 1 10 1.6v63.06c0 1.105.895 2 2 2h124.438c3.345 3.24 6.598 6.575 9.755 10z" fill="#fbc56d"/><path d="m384 95h-60c-5.523 0-10-4.477-10-10 0-5.523 4.477-10 10-10h60c5.523 0 10 4.477 10 10 0 5.523-4.477 10-10 10z" fill="#d63d24"/><path d="m384 95h-35c-5.523 0-10-4.477-10-10 0-5.523 4.477-10 10-10h35c5.523 0 10 4.477 10 10 0 5.523-4.477 10-10 10z" fill="#fc5426"/><path d="m349 200v20c0 5.523-4.477 10-10 10h-60c-5.523 0-10-4.477-10-10v-20c0-5.523 4.477-10 10-10h60c5.523 0 10 4.477 10 10z" fill="#172a7d"/><path d="m429 200v20c0 5.523-4.477 10-10 10h-100c-5.523 0-10-4.477-10-10v-20c0-5.523 4.477-10 10-10h100c5.523 0 10 4.477 10 10z" fill="#2740af"/><path d="m4.312 210h481.376c2.83 14.899 4.312 30.277 4.312 46 0 135.31-109.69 245-245 245s-245-109.69-245-245c0-15.723 1.481-31.101 4.312-46z" fill="#f5dc90"/><path d="m13.828 337.294 40.198-127.294h34l-47.368 150h-17.553c-3.461-7.373-6.551-14.954-9.277-22.706z" fill="#f8bb5e"/><path d="m129 405c0 8.284-6.716 15-15 15h-51.016c-8.45-9.373-16.187-19.401-23.125-30h74.141c8.284 0 15 6.716 15 15zm180 40c0 8.284 6.716 15 15 15h56.727c13.211-8.807 25.518-18.863 36.752-30h-93.479c-8.284 0-15 6.716-15 15zm115-95h-100c-8.284 0-15 6.716-15 15s6.716 15 15 15h100c8.284 0 15-6.716 15-15s-6.716-15-15-15zm65.486-110h-145.486c-8.284 0-15 6.716-15 15s6.716 15 15 15h145.606c.261-4.633.394-9.301.394-14 0-5.375-.173-10.71-.514-16z" fill="#fbc56d"/><path d="m159 210h30v284.571c-10.263-2.4-20.278-5.445-30-9.09z" fill="#f9eecf"/><path d="m234.414 13.977 107.591 340.704c3.961 12.542-5.404 25.319-18.556 25.319h-266.897c-13.152 0-22.517-12.777-18.556-25.319l107.59-340.704c2.628-8.32 10.346-13.977 19.072-13.977h50.685c8.725 0 16.443 5.657 19.071 13.977z" fill="#fc5426"/><path d="m370 360v20c0 5.523-4.477 10-10 10h-320.141c-8.217-12.553-15.312-25.907-21.144-39.918.421-.054.849-.082 1.285-.082h340c5.523 0 10 4.477 10 10z" fill="#ee4424"/><path d="m198.658 0c-8.726 0-16.444 5.657-19.072 13.977l-106.112 336.023h-14.474c-5.523 0-10 4.477-10 10v20c0 5.523 4.477 10 10 10h-19.141c-8.217-12.553-15.312-25.907-21.144-39.918.421-.054.849-.082 1.285-.082h19.474l106.112-336.023c2.628-8.32 10.346-13.977 19.072-13.977z" fill="#d63d24"/><path d="m312.105 260h-244.21l22.105-70h200zm-53.684-170h-136.842l-22.105 70h181.053z" fill="#fd7d43"/><path d="m90 190h34l-22.105 70h-34zm31.579-100-22.105 70h34l22.105-70z" fill="#f16b38"/><path d="m259.524 282.904c0 14.818-12.013 26.831-26.831 26.831s-26.831-12.013-26.831-26.831 12.012-26.831 26.831-26.831c14.818.001 26.831 12.013 26.831 26.831zm-26.831-13.415c-7.409 0-13.415 6.006-13.415 13.415s6.006 13.415 13.415 13.415 13.415-6.006 13.415-13.415-6.006-13.415-13.415-13.415z" fill="#172a7d"/><path d="m501 265.03v47.147c0 4.874-3.514 9.038-8.319 9.858l-92.942 15.851c.718 4.772 1.093 9.657 1.093 14.629 0 53.839-43.646 97.485-97.485 97.485s-97.485-43.646-97.485-97.485 43.646-97.485 97.485-97.485c1.801 0 3.589.052 5.366.149v-.149h182.287c5.523 0 10 4.477 10 10z" fill="#2740af"/><path d="m368.492 352.515c0 35.979-29.166 65.145-65.145 65.145s-65.145-29.166-65.145-65.145 29.166-65.145 65.145-65.145 65.145 29.167 65.145 65.145z" fill="#172a7d"/><path d="m402.621 255.03v18.346c0 4.686-3.799 8.485-8.485 8.485h-.917c-4.686 0-8.485-3.799-8.485-8.485v-18.346z" fill="#314dc8"/><path d="m328.492 352.515c0 13.887-11.258 25.145-25.145 25.145s-25.145-11.258-25.145-25.145 11.258-25.145 25.145-25.145 25.145 11.258 25.145 25.145zm39.953-2.501c-1.266-33.825-28.77-61.33-62.595-62.597-11.973-.448-23.261 2.336-33.059 7.549-2.004 1.066-3.596 2.786-4.467 4.883-.053.129-.107.259-.16.39-3.472 8.633 5.813 16.749 14.03 12.383 6.309-3.352 13.508-5.252 21.151-5.252 24.833 0 45.146 20.313 45.146 45.146 0 7.643-1.9 14.842-5.252 21.151-4.366 8.216 3.751 17.502 12.383 14.03.131-.053.262-.106.39-.16 2.097-.87 3.816-2.462 4.883-4.466 5.214-9.798 7.998-21.084 7.55-33.057z" fill="#3691bb"/></g></svg>