<svg height="512" viewBox="0 0 501 501" width="512" xmlns="http://www.w3.org/2000/svg"><path d="M473.912 168.538C483.41 193.381 464.795 220 438.199 220H51.808c-26.722 0-45.187-26.792-35.615-51.741C51.479 76.289 140.611 11 245 11c4.706 0 9.377.149 14.018.411.755 54.577 182.73 98.589 182.73 98.589a244.582 244.582 0 0132.164 58.538z" fill="#22b27f"/><path d="M19.541 159.969h450.925a243.194 243.194 0 0115.497 51.52c.809 4.408-2.548 8.48-7.03 8.48H10.811c-4.344 0-7.591-3.946-6.812-8.219a243.304 243.304 0 0115.542-51.781z" fill="#059b7e"/><path d="M441.765 110H369v200h-30V110h-80V11.394C333.849 15.61 399.718 53.426 441.765 110z" fill="#f9eecf"/><path d="M425.193 90H284a5 5 0 01-5-5V13.34c3.355.466 6.689 1 10 1.6V78a2 2 0 002 2h124.438a246.69 246.69 0 019.755 10z" fill="#fbc56d"/><path d="M384 95h-60c-5.523 0-10-4.477-10-10s4.477-10 10-10h60c5.523 0 10 4.477 10 10s-4.477 10-10 10z" fill="#d63d24"/><path d="M384 95h-35c-5.523 0-10-4.477-10-10s4.477-10 10-10h35c5.523 0 10 4.477 10 10s-4.477 10-10 10z" fill="#fc5426"/><path d="M349 200v20c0 5.523-4.477 10-10 10h-60c-5.523 0-10-4.477-10-10v-20c0-5.523 4.477-10 10-10h60c5.523 0 10 4.477 10 10z" fill="#172a7d"/><path d="M429 200v20c0 5.523-4.477 10-10 10H319c-5.523 0-10-4.477-10-10v-20c0-5.523 4.477-10 10-10h100c5.523 0 10 4.477 10 10z" fill="#2740af"/><path d="M4.312 210h481.376A246.34 246.34 0 01490 256c0 135.31-109.69 245-245 245S0 391.31 0 256c0-15.723 1.481-31.101 4.312-46z" fill="#f5dc90"/><path d="M13.828 337.294L54.026 210h34L40.658 360H23.105a243.604 243.604 0 01-9.277-22.706z" fill="#f8bb5e"/><path d="M129 405c0 8.284-6.716 15-15 15H62.984a246.128 246.128 0 01-23.125-30H114c8.284 0 15 6.716 15 15zm180 40c0 8.284 6.716 15 15 15h56.727a246.136 246.136 0 0036.752-30H324c-8.284 0-15 6.716-15 15zm115-95H324c-8.284 0-15 6.716-15 15s6.716 15 15 15h100c8.284 0 15-6.716 15-15s-6.716-15-15-15zm65.486-110H344c-8.284 0-15 6.716-15 15s6.716 15 15 15h145.606a248.893 248.893 0 00-.12-30z" fill="#fbc56d"/><path d="M159 210h30v284.571a243.164 243.164 0 01-30-9.09z" fill="#f9eecf"/><path d="M234.414 13.977l107.591 340.704c3.961 12.542-5.404 25.319-18.556 25.319H56.552c-13.152 0-22.517-12.777-18.556-25.319l107.59-340.704A20 20 0 01164.658 0h50.685a20 20 0 0119.071 13.977z" fill="#fc5426"/><path d="M370 360v20c0 5.523-4.477 10-10 10H39.859a244.306 244.306 0 01-21.144-39.918c.421-.054.849-.082 1.285-.082h340c5.523 0 10 4.477 10 10z" fill="#ee4424"/><path d="M198.658 0a20 20 0 00-19.072 13.977L73.474 350H59c-5.523 0-10 4.477-10 10v20c0 5.523 4.477 10 10 10H39.859a244.306 244.306 0 01-21.144-39.918c.421-.054.849-.082 1.285-.082h19.474L145.586 13.977A20 20 0 01164.658 0z" fill="#d63d24"/><path d="M312.105 260H67.895L90 190h200zM258.421 90H121.579l-22.105 70h181.053z" fill="#fd7d43"/><path d="M90 190h34l-22.105 70h-34zm31.579-100l-22.105 70h34l22.105-70z" fill="#f16b38"/><path d="M259.524 282.904c0 14.818-12.013 26.831-26.831 26.831s-26.831-12.013-26.831-26.831 12.012-26.831 26.831-26.831c14.818.001 26.831 12.013 26.831 26.831zm-26.831-13.415c-7.409 0-13.415 6.006-13.415 13.415s6.006 13.415 13.415 13.415 13.415-6.006 13.415-13.415-6.006-13.415-13.415-13.415z" fill="#172a7d"/><path d="M501 265.03v47.147a10 10 0 01-8.319 9.858l-92.942 15.851a98.276 98.276 0 011.093 14.629c0 53.839-43.646 97.485-97.485 97.485s-97.485-43.646-97.485-97.485 43.646-97.485 97.485-97.485c1.801 0 3.589.052 5.366.149v-.149H491c5.523 0 10 4.477 10 10z" fill="#2740af"/><path d="M368.492 352.515c0 35.979-29.166 65.145-65.145 65.145s-65.145-29.166-65.145-65.145 29.166-65.145 65.145-65.145 65.145 29.167 65.145 65.145z" fill="#172a7d"/><path d="M402.621 255.03v18.346a8.485 8.485 0 01-8.485 8.485h-.917a8.485 8.485 0 01-8.485-8.485V255.03z" fill="#314dc8"/><path d="M328.492 352.515c0 13.887-11.258 25.145-25.145 25.145s-25.145-11.258-25.145-25.145 11.258-25.145 25.145-25.145 25.145 11.258 25.145 25.145zm39.953-2.501c-1.266-33.825-28.77-61.33-62.595-62.597-11.973-.448-23.261 2.336-33.059 7.549a9.818 9.818 0 00-4.467 4.883l-.16.39c-3.472 8.633 5.813 16.749 14.03 12.383a44.946 44.946 0 0121.151-5.252c24.833 0 45.146 20.313 45.146 45.146 0 7.643-1.9 14.842-5.252 21.151-4.366 8.216 3.751 17.502 12.383 14.03.131-.053.262-.106.39-.16a9.815 9.815 0 004.883-4.466c5.214-9.798 7.998-21.084 7.55-33.057z" fill="#3691bb"/></svg>