<svg id="Capa_1" enable-background="new 0 0 501 501" height="512" viewBox="0 0 501 501" width="512" xmlns="http://www.w3.org/2000/svg"><g><path d="m495.5 256c0 135.31-109.69 245-245 245s-245-109.69-245-245 109.69-245 245-245 245 109.69 245 245z" fill="#f5c02c"/><path d="m150.5 337h40l-7.466 142.685c-4.152.209-8.33.315-12.534.315-3.642 0-7.266-.08-10.87-.237zm160 0 9.13 142.763c3.604.157 7.228.237 10.87.237 4.204 0 8.382-.106 12.534-.315l7.466-142.685z" fill="#f9eecf"/><path d="m369.876 470c-35.321 19.746-76.034 31-119.376 31s-84.055-11.254-119.376-31z" fill="#f16b38"/><path d="m226.5 327.75v20c0 5.523-4.477 10-10 10h-92c-5.523 0-10-4.477-10-10v-20c0-5.523 4.477-10 10-10h92c5.523 0 10 4.477 10 10zm150-10h-92c-5.523 0-10 4.477-10 10v20c0 5.523 4.477 10 10 10h92c5.523 0 10-4.477 10-10v-20c0-5.523-4.477-10-10-10z" fill="#0680ae"/><path d="m441.188 32.75v273.75c0 8.284-6.716 15-15 15h-351.376c-8.284 0-15-6.716-15-15v-273.75c0-8.284 6.716-15 15-15h351.375c8.285 0 15.001 6.716 15.001 15z" fill="#172a7d"/><path d="m441.188 32.75v273.75c0 8.284-6.716 15-15 15h-326.688c-8.284 0-15-6.716-15-15v-273.75c0-8.284 6.716-15 15-15h326.688c8.284 0 15 6.716 15 15z" fill="#2740af"/><path d="m466.5 325.719c0 6.99-5.666 12.656-12.656 12.656h-406.688c-6.99 0-12.656-5.666-12.656-12.656 0-6.99 5.666-12.656 12.656-12.656h406.688c6.99 0 12.656 5.666 12.656 12.656zm-140-313.063c0 6.99-5.666 12.656-12.656 12.656h-126.688c-6.99 0-12.656-5.666-12.656-12.656 0-6.99 5.666-12.656 12.656-12.656h126.688c6.99 0 12.656 5.666 12.656 12.656z" fill="#05a2f9"/><path d="m466.5 325.719c0 6.99-5.666 12.656-12.656 12.656h-372.938c-6.99 0-12.656-5.666-12.656-12.656 0-6.99 5.666-12.656 12.656-12.656h372.938c6.99 0 12.656 5.666 12.656 12.656zm-140-313.063c0 6.99-5.666 12.656-12.656 12.656h-96.688c-6.99 0-12.656-5.666-12.656-12.656 0-6.99 5.666-12.656 12.656-12.656h96.688c6.99 0 12.656 5.666 12.656 12.656z" fill="#63bcfa"/><path d="m374.5 89.318v-13.039h-10v57.647h10v-13.039c0-2.762 2.239-5 5-5h20c2.761 0 5 2.238 5 5s-2.239 5-5 5h-15v21.568h15c2.761 0 5 2.238 5 5s-2.239 5-5 5h-20c-2.761 0-5-2.238-5-5v-8.529h-15c-2.761 0-5-2.238-5-5v-28.824h-20v125.295h20v-28.824c0-2.762 2.239-5 5-5h15v-8.529c0-2.762 2.239-5 5-5h20c2.761 0 5 2.238 5 5s-2.239 5-5 5h-15v21.568h15c2.761 0 5 2.238 5 5s-2.239 5-5 5h-20c-2.761 0-5-2.238-5-5v-13.039h-10v57.647h10v-13.039c0-2.762 2.239-5 5-5h20c2.761 0 5 2.238 5 5s-2.239 5-5 5h-15v21.568h15c2.761 0 5 2.238 5 5s-2.239 5-5 5h-20c-2.761 0-5-2.238-5-5v-8.529h-15c-2.761 0-5-2.238-5-5v-28.823h-25c-2.761 0-5-2.238-5-5v-62.647h-145v62.647c0 2.762-2.239 5-5 5h-25v28.823c0 2.762-2.239 5-5 5h-15v8.529c0 2.762-2.239 5-5 5h-20c-2.761 0-5-2.238-5-5s2.239-5 5-5h15v-21.568h-15c-2.761 0-5-2.238-5-5s2.239-5 5-5h20c2.761 0 5 2.238 5 5v13.039h10v-57.647h-10v13.039c0 2.762-2.239 5-5 5h-20c-2.761 0-5-2.238-5-5s2.239-5 5-5h15v-21.568h-15c-2.761 0-5-2.238-5-5s2.239-5 5-5h20c2.761 0 5 2.238 5 5v8.529h15c2.761 0 5 2.238 5 5v28.824h20v-125.294h-20v28.824c0 2.762-2.239 5-5 5h-15v8.529c0 2.762-2.239 5-5 5h-20c-2.761 0-5-2.238-5-5s2.239-5 5-5h15v-21.568h-15c-2.761 0-5-2.238-5-5s2.239-5 5-5h20c2.761 0 5 2.238 5 5v13.039h10v-57.648h-10v13.039c0 2.762-2.239 5-5 5h-20c-2.761 0-5-2.238-5-5s2.239-5 5-5h15v-21.568h-15c-2.761 0-5-2.238-5-5s2.239-5 5-5h20c2.761 0 5 2.238 5 5v8.529h15c2.761 0 5 2.238 5 5v28.823h25c2.761 0 5 2.238 5 5v62.647h145v-62.647c0-2.762 2.239-5 5-5h25v-28.823c0-2.762 2.239-5 5-5h15v-8.529c0-2.762 2.239-5 5-5h20c2.761 0 5 2.238 5 5s-2.239 5-5 5h-15v21.568h15c2.761 0 5 2.238 5 5s-2.239 5-5 5h-20c-2.761 0-5-2.238-5-5z" fill="#a1ade5"/><path d="m253.455 121.687 11.601 23.507c.48.973 1.408 1.647 2.481 1.803l25.941 3.769c2.703.393 3.782 3.714 1.826 5.621l-18.771 18.297c-.777.757-1.131 1.848-.948 2.917l4.431 25.836c.462 2.692-2.364 4.745-4.781 3.474l-23.202-12.198c-.96-.505-2.107-.505-3.067 0l-23.202 12.198c-2.417 1.271-5.243-.782-4.781-3.474l4.431-25.836c.183-1.069-.171-2.16-.948-2.917l-18.771-18.297c-1.956-1.906-.877-5.228 1.826-5.621l25.941-3.769c1.073-.156 2.001-.83 2.481-1.803l11.601-23.507c1.21-2.449 4.702-2.449 5.911 0z" fill="#f5c02c"/><path d="m295.305 156.386-18.771 18.297c-.777.757-1.131 1.848-.948 2.917l2.119 12.354c-23.483-.923-42.333-19.833-43.164-43.339.594-.32 1.096-.8 1.403-1.422l11.601-23.507c1.209-2.449 4.701-2.449 5.91 0l11.601 23.507c.48.973 1.408 1.647 2.481 1.803l25.941 3.769c2.703.393 3.782 3.714 1.827 5.621z" fill="#fdf061"/></g></svg>