<svg height="512" viewBox="0 0 501 501" width="512" xmlns="http://www.w3.org/2000/svg"><path d="M495.5 256c0 135.31-109.69 245-245 245S5.5 391.31 5.5 256s109.69-245 245-245 245 109.69 245 245z" fill="#f5c02c"/><path d="M150.5 337h40l-7.466 142.685a249.276 249.276 0 01-23.404.078zm160 0l9.13 142.763a249.753 249.753 0 0023.404-.078L350.5 337z" fill="#f9eecf"/><path d="M369.876 470c-35.321 19.746-76.034 31-119.376 31s-84.055-11.254-119.376-31z" fill="#f16b38"/><path d="M226.5 327.75v20c0 5.523-4.477 10-10 10h-92c-5.523 0-10-4.477-10-10v-20c0-5.523 4.477-10 10-10h92c5.523 0 10 4.477 10 10zm150-10h-92c-5.523 0-10 4.477-10 10v20c0 5.523 4.477 10 10 10h92c5.523 0 10-4.477 10-10v-20c0-5.523-4.477-10-10-10z" fill="#0680ae"/><path d="M441.188 32.75V306.5c0 8.284-6.716 15-15 15H74.812c-8.284 0-15-6.716-15-15V32.75c0-8.284 6.716-15 15-15h351.375c8.285 0 15.001 6.716 15.001 15z" fill="#172a7d"/><path d="M441.188 32.75V306.5c0 8.284-6.716 15-15 15H99.5c-8.284 0-15-6.716-15-15V32.75c0-8.284 6.716-15 15-15h326.688c8.284 0 15 6.716 15 15z" fill="#2740af"/><path d="M466.5 325.719c0 6.99-5.666 12.656-12.656 12.656H47.156c-6.99 0-12.656-5.666-12.656-12.656s5.666-12.656 12.656-12.656h406.688c6.99 0 12.656 5.666 12.656 12.656zm-140-313.063c0 6.99-5.666 12.656-12.656 12.656H187.156c-6.99 0-12.656-5.666-12.656-12.656S180.166 0 187.156 0h126.688c6.99 0 12.656 5.666 12.656 12.656z" fill="#05a2f9"/><path d="M466.5 325.719c0 6.99-5.666 12.656-12.656 12.656H80.906c-6.99 0-12.656-5.666-12.656-12.656s5.666-12.656 12.656-12.656h372.938c6.99 0 12.656 5.666 12.656 12.656zm-140-313.063c0 6.99-5.666 12.656-12.656 12.656h-96.688c-6.99 0-12.656-5.666-12.656-12.656S210.166 0 217.156 0h96.688c6.99 0 12.656 5.666 12.656 12.656z" fill="#63bcfa"/><path d="M374.5 89.318V76.279h-10v57.647h10v-13.039a5 5 0 015-5h20a5 5 0 110 10h-15v21.568h15a5 5 0 110 10h-20a5 5 0 01-5-5v-8.529h-15a5 5 0 01-5-5v-28.824h-20v125.295h20v-28.824a5 5 0 015-5h15v-8.529a5 5 0 015-5h20a5 5 0 110 10h-15v21.568h15a5 5 0 110 10h-20a5 5 0 01-5-5v-13.039h-10v57.647h10v-13.039a5 5 0 015-5h20a5 5 0 110 10h-15v21.568h15a5 5 0 110 10h-20a5 5 0 01-5-5v-8.529h-15a5 5 0 01-5-5v-28.823h-25a5 5 0 01-5-5V177.75h-145v62.647a5 5 0 01-5 5h-25v28.823a5 5 0 01-5 5h-15v8.529a5 5 0 01-5 5h-20a5 5 0 110-10h15v-21.568h-15a5 5 0 110-10h20a5 5 0 015 5v13.039h10v-57.647h-10v13.039a5 5 0 01-5 5h-20a5 5 0 110-10h15v-21.568h-15a5 5 0 110-10h20a5 5 0 015 5v8.529h15a5 5 0 015 5v28.824h20V110.103h-20v28.824a5 5 0 01-5 5h-15v8.529a5 5 0 01-5 5h-20a5 5 0 110-10h15v-21.568h-15a5 5 0 110-10h20a5 5 0 015 5v13.039h10V76.279h-10v13.039a5 5 0 01-5 5h-20a5 5 0 110-10h15V62.75h-15a5 5 0 110-10h20a5 5 0 015 5v8.529h15a5 5 0 015 5v28.823h25a5 5 0 015 5v62.647h145v-62.647a5 5 0 015-5h25V71.279a5 5 0 015-5h15V57.75a5 5 0 015-5h20a5 5 0 110 10h-15v21.568h15a5 5 0 110 10h-20a5 5 0 01-5-5z" fill="#a1ade5"/><path d="M253.455 121.687l11.601 23.507a3.295 3.295 0 002.481 1.803l25.941 3.769c2.703.393 3.782 3.714 1.826 5.621l-18.771 18.297a3.296 3.296 0 00-.948 2.917l4.431 25.836c.462 2.692-2.364 4.745-4.781 3.474l-23.202-12.198a3.294 3.294 0 00-3.067 0l-23.202 12.198c-2.417 1.271-5.243-.782-4.781-3.474l4.431-25.836a3.296 3.296 0 00-.948-2.917l-18.771-18.297c-1.956-1.906-.877-5.228 1.826-5.621l25.941-3.769a3.295 3.295 0 002.481-1.803l11.601-23.507c1.21-2.449 4.702-2.449 5.911 0z" fill="#f5c02c"/><path d="M295.305 156.386l-18.771 18.297a3.296 3.296 0 00-.948 2.917l2.119 12.354c-23.483-.923-42.333-19.833-43.164-43.339.594-.32 1.096-.8 1.403-1.422l11.601-23.507c1.209-2.449 4.701-2.449 5.91 0l11.601 23.507a3.295 3.295 0 002.481 1.803l25.941 3.769c2.703.393 3.782 3.714 1.827 5.621z" fill="#fdf061"/></svg>