<svg height="512" width="512" xmlns="http://www.w3.org/2000/svg"><path d="M73.307 410.554c-3.82.903-7.828-.461-10.249-3.55C30.445 365.393 11 312.968 11 256 11 120.69 120.69 11 256 11s245 109.69 245 245c0 56.978-19.452 109.411-52.075 151.025-2.411 3.076-6.402 4.434-10.206 3.535C382.795 397.34 320.991 390 256 390c-64.98 0-126.776 7.338-182.693 20.554z" fill="#22b27f"/><path d="M487.679 176.111C496.312 201.151 501 228.028 501 256c0 56.978-19.452 109.411-52.075 151.025-2.411 3.076-6.402 4.434-10.206 3.535C382.795 397.34 320.99 390 256 390c-64.98 0-126.776 7.338-182.693 20.554-3.82.903-7.828-.461-10.249-3.55C30.445 365.393 11 312.968 11 256c0-27.972 4.688-54.849 13.321-79.889z" fill="#059b7e"/><path d="M449.214 406.66C404.376 464.082 334.5 501 256 501s-148.376-36.918-193.214-94.34l5.082-58.047c3.053-34.868 28.418-63.703 62.612-71.177h251.04c34.194 7.474 59.559 36.309 62.612 71.177z" fill="#efcfc8"/><path d="M126.332 278.459c-16.908 14.329-28.081 35.009-30.108 58.162l-11.722 94.344a246.364 246.364 0 01-21.716-24.306l5.082-58.047c2.928-33.442 26.382-61.334 58.464-70.153zM366 370v104.977a244.556 244.556 0 0020-11.273V370z" fill="#eac0b5"/><path d="M366 309.772v165.205C332.923 491.625 295.556 501 256 501s-76.923-9.375-110-26.023V309.772c0-19.732 15.996-35.728 35.728-35.728h148.544c19.732 0 35.728 15.996 35.728 35.728z" fill="#a1ade5"/><path d="M256 250l76.951 16.82-77.283 56.409-77.13-56.298z" fill="#8694dd"/><path d="M381 130v20c0 11.046-8.954 20-20 20h-5c0 39.186-25.046 72.516-60 84.872v37.351c0 22.091-17.909 40-40 40s-40-17.909-40-40v-37.351c-34.954-12.356-60-45.686-60-84.872h-5c-11.046 0-20-8.954-20-20v-20c0-11.046 8.954-20 20-20h5c0-49.706 40.294-90 90-90h20c49.706 0 90 40.294 90 90h5c11.046 0 20 8.954 20 20z" fill="#eac0b5"/><path d="M146 120v40c0 3.584.943 6.947 2.594 9.856C138.683 168.668 131 160.231 131 150v-20c0-10.231 7.683-18.668 17.594-19.856A19.905 19.905 0 00146 120zm95.778 172.222v-32.324A89.658 89.658 0 01216 254.871v37.351c0 22.091 17.909 40 40 40 4.51 0 8.845-.747 12.889-2.122-15.768-5.364-27.111-20.296-27.111-37.878z" fill="#e1a595"/><path d="M314.773 70c22.282 0 40.542 17.697 41.226 39.969L356 110v60.019c-.01 49.361-39.759 89.437-88.996 89.975C218.862 259.46 180 220.269 180 172V80v-.206c.017-5.422 4.435-9.794 9.858-9.794z" fill="#efcfc8"/><path d="M216.063 147.5c0 8.284-6.716 15-15 15s-15-6.716-15-15 6.716-15 15-15 15 6.716 15 15zm92.875-15c-8.284 0-15 6.716-15 15s6.716 15 15 15 15-6.716 15-15-6.716-15-15-15z" fill="#533022"/><path d="M216.063 140a7.5 7.5 0 11-15 0 7.5 7.5 0 0115 0zm100.375-7.5a7.5 7.5 0 100 15 7.5 7.5 0 000-15z" fill="#fff5f5"/><path d="M236.969 117.5a7.5 7.5 0 01-7.5 7.5h-37.5a7.5 7.5 0 010-15h37.5a7.5 7.5 0 017.5 7.5zm83.062-7.5h-37.5a7.5 7.5 0 000 15h37.5a7.5 7.5 0 000-15z" fill="#fc9368"/><path d="M320 80H180v6c0 13.255-10.745 24-24 24V30c0-16.569 13.432-30 30-30h64c38.66 0 70 31.34 70 70z" fill="#f16b38"/><path d="M356 30v80c-13.255 0-24-10.745-24-24v-4a2 2 0 00-2-2h-.783c-5.231 0-10.378 1.143-15.205 3.159C302.829 87.83 281.043 91 256 91s-46.829-3.17-58.012-7.841C193.161 81.143 188.015 80 182.783 80H180V70c0-38.66 31.34-70 70-70h76c16.569 0 30 13.431 30 30z" fill="#fd7d43"/><path d="M261.156 239.047h-10.313c-11.65 0-21.094-9.444-21.094-21.094a7.5 7.5 0 017.5-7.5h37.5a7.5 7.5 0 017.5 7.5c.001 11.65-9.443 21.094-21.093 21.094z" fill="#dd9683"/><path d="M240 179.5a7.5 7.5 0 017.5-7.5h1v-24.5a7.5 7.5 0 0115 0V172h1a7.5 7.5 0 010 15h-1.278c-.876 3.17-3.774 5.5-7.222 5.5s-6.346-2.33-7.222-5.5H247.5a7.5 7.5 0 01-7.5-7.5zm34.75 30.953h-27.188a7.5 7.5 0 00-7.5 7.5c0 11.65 9.444 21.094 21.094 21.094s21.094-9.444 21.094-21.094a7.5 7.5 0 00-7.5-7.5z" fill="#e1a595"/><path d="M446.88 380H65.12l2.748-31.387c3.053-34.868 28.418-63.703 62.612-71.177l60.435-13.21L256.002 317l65.086-52.773 60.432 13.209c34.194 7.474 59.559 36.309 62.612 71.177z" fill="#f9eecf"/><path d="M431.132 380H401.05l-1.446-16.609c-2.081-23.909-19.178-44.045-41.577-48.97l-24.527-5.393v179.46a243.357 243.357 0 01-35 8.838v-207.93l29.247-23.714 5.753 1.257v15.813l32.058 7.048c35.199 7.739 60.905 36.56 63.965 71.717zM178.5 266.94v15.813l-32.058 7.048c-35.2 7.739-60.905 36.56-63.966 71.716L80.868 380h30.082l1.446-16.61c2.081-23.908 19.178-44.044 41.578-48.969l24.527-5.393v179.46a243.357 243.357 0 0035 8.838V289.392l-29.243-23.71zm60 42.723v190.722a249.12 249.12 0 0035 0V309.667l-17.497 14.187z" fill="#314dc8"/><path d="M170.437 268.702l20.477-4.476L256.002 317l65.086-52.773 20.479 4.476-85.564 69.377zM61.471 364.564l-.876 10A5.001 5.001 0 0065.577 380H150v-20H66.452a5 5 0 00-4.981 4.564zM360 360v20h87.515a4 4 0 003.985-4.349l-1.051-12a4 4 0 00-3.985-3.651z" fill="#172a7d"/><path d="M366 343.08v131.897a242.678 242.678 0 01-10 4.752V343.08a5 5 0 0110 0zm-215-5a5 5 0 00-5 5v131.897a242.678 242.678 0 0010 4.752V343.08a5 5 0 00-5-5z" fill="#8694dd"/><path d="M173.975 267.929l82.028 135.925L338.03 267.93a47.937 47.937 0 0118.291 3.797l.98.415L256.003 440 154.704 272.142l1.784-.741a45.469 45.469 0 0117.487-3.472z" fill="#c64b1a"/><path d="M292.185 440.513h.057v67.77a3.719 3.719 0 01-3.718 3.718h-17.528a3.718 3.718 0 01-3.665-3.093l-5.893-34.554c-1.774.267-3.59.407-5.439.407-20.016 0-36.242-16.226-36.242-36.242s16.226-36.242 36.242-36.242 36.242 16.226 36.242 36.242a35.68 35.68 0 01-.056 1.994z" fill="#fc5426"/><path d="M256 462.737c-13.376 0-24.219-10.843-24.219-24.219s10.843-24.219 24.219-24.219 24.219 10.843 24.219 24.219-10.843 24.219-24.219 24.219z" fill="#d63d24"/><path d="M292.242 468.775v6.65h-6.65a3.325 3.325 0 010-6.65zM256 447.866c5.163 0 9.348-4.185 9.348-9.348s-4.185-9.348-9.348-9.348-9.348 4.185-9.348 9.348 4.185 9.348 9.348 9.348zm19.58-22.369l-.145-.059c-3.209-1.291-6.227 2.161-4.604 5.216a16.714 16.714 0 011.953 7.863c0 9.232-7.552 16.785-16.784 16.784a16.71 16.71 0 01-7.863-1.952c-3.055-1.623-6.507 1.394-5.216 4.604l.059.145c.324.78.915 1.419 1.661 1.815a24.154 24.154 0 0012.29 2.807c12.575-.471 22.801-10.696 23.272-23.271a24.137 24.137 0 00-2.807-12.291 3.654 3.654 0 00-1.816-1.661z" fill="#fd7d43"/></svg>