<svg id="Capa_1" enable-background="new 0 0 501 501" height="512" viewBox="0 0 501 501" width="512" xmlns="http://www.w3.org/2000/svg"><g><path d="m495.5 256c0 135.31-109.69 245-245 245s-245-109.69-245-245 109.69-245 245-245 245 109.69 245 245z" fill="#91cefb"/><path d="m360.375 260h-49.368v-216h31.904zm-219.75 0h49.368v-216h-34.104z" fill="#6caac9"/><path d="m359.5 17.125v44.875h-216v-44.875z" fill="#172a7d"/><path d="m130.938 199.997v109.003h-44.875v-109.003l36.56-167.146c2.008-9.182 10.139-15.726 19.538-15.726h23.902zm239.125 0v109.003h44.875v-109.003l-36.56-167.146c-2.008-9.182-10.139-15.726-19.538-15.726h-23.902z" fill="#2740af"/><path d="m160.598 17.125h5.464l-35.125 182.872v109.003h-26.437v-109.003l36.56-167.146c2.009-9.182 10.139-15.726 19.538-15.726zm217.779 15.727c-2.008-9.182-10.139-15.727-19.538-15.727h-5.464l35.125 182.872v109.003h26.438v-109.003z" fill="#314dc8"/><path d="m250.5 501c-63.539 0-121.428-24.187-164.963-63.857-4.817-4.389-7.537-10.625-7.537-17.142v-40.001h347v33.998c0 9.227-3.87 18.055-10.73 24.225-12.471 11.216-26.1 21.169-40.685 29.66-.578.337-1.733.014-2.314.346-.645.368-.717 1.391-1.365 1.754-35.329 19.756-76.052 31.017-119.406 31.017z" fill="#314dc8"/><path d="m64 200h13v143.613c0 16.141-20.913 22.528-29.923 9.136-.098-.146-.197-.293-.295-.439-1.81-2.703-2.782-5.882-2.782-9.135v-123.175c0-11.046 8.954-20 20-20z" fill="#2740af"/><path d="m44 300h33v115.871c0 4.782-5.908 7.044-9.098 3.482-8.778-9.806-16.777-20.322-23.902-31.453z" fill="#172a7d"/><path d="m184.667 64.125v-49.125c0-8.284 6.716-15 15-15h103.667c8.284 0 15 6.716 15 15v49.125c0 8.284-6.716 15-15 15h-103.667c-8.285 0-15-6.716-15-15zm272.333 155.875c0-11.046-8.954-20-20-20h-13v80h-346v105.5h347v-75.5h32z" fill="#fc5426"/><path d="m424 416.682v-116.682h33v87.9c-7.271 11.36-15.453 22.079-24.445 32.056-3.01 3.341-8.555 1.224-8.555-3.274z" fill="#d63d24"/><path d="m199.667 0h103.667c8.284 0 15 6.716 15 15v20c0 8.284-6.716 15-15 15h-103.667c-8.284 0-15-6.716-15-15v-20c0-8.284 6.715-15 15-15zm225.333 300h-11.001-326.993-9.006v-100h347z" fill="#fd7d43"/><path d="m370.125 200v30c0 16.569-13.431 30-30 30h-179.25c-16.569 0-30-13.431-30-30v-30h15v25c0 11.046 8.954 20 20 20h169.25c11.046 0 20-8.954 20-20v-25z" fill="#d63d24"/><path d="m87 200v100c0 5.523-4.477 10-10 10s-10-4.477-10-10v-100c0-5.523 4.477-10 10-10s10 4.477 10 10zm337-10c-5.523 0-10 4.477-10 10v100c0 5.523 4.477 10 10 10s10-4.477 10-10v-100c0-5.523-4.477-10-10-10z" fill="#f9eecf"/><path d="m306.5 305h-4.5c-4.142 0-7.5-3.358-7.5-7.5v-52.5h19.5v52.5c0 4.142-3.358 7.5-7.5 7.5zm107.5 133.466c7.047-6.319 13.726-13.04 20-20.126v-118.34h-20v70h-327v-70h-20v118.339c6.274 7.087 12.953 13.808 20 20.126v-48.465h327z" fill="#ffe899"/><path d="m384.5 425v36.141c-3.574 2.34-7.214 4.588-10.915 6.743-.553.322-1.967-.545-2.523-.227-.671.383-.483 1.95-1.157 2.327-6.494 3.632-13.171 6.976-20.012 10.016h-70.393c-2.761 0-5-2.239-5-5v-50c0-2.761 2.239-5 5-5h100c2.761 0 5 2.239 5 5z" fill="#172a7d"/><path d="m339.5 470h-50c-2.761 0-5-2.239-5-5v-30c0-2.761 2.239-5 5-5h50c2.761 0 5 2.239 5 5v30c0 2.761-2.239 5-5 5z" fill="#b3d1e1"/><path d="m374.5 435v30c0 1.074-.339 2.069-.915 2.884-1.22.71-2.447 1.41-3.68 2.1-.134.011-.269.016-.405.016h-40c-2.761 0-5-2.239-5-5v-30c0-2.761 2.239-5 5-5h40c2.761 0 5 2.239 5 5z" fill="#e3f0fb"/><path d="m355.214 445.714h-51.429c-2.367 0-4.286-1.919-4.286-4.286 0-2.367 1.919-4.286 4.286-4.286h51.429c2.367 0 4.286 1.919 4.286 4.286 0 2.368-1.919 4.286-4.286 4.286zm4.286 12.857c0-2.367-1.919-4.286-4.286-4.286h-51.429c-2.367 0-4.286 1.919-4.286 4.286 0 2.367 1.919 4.286 4.286 4.286h51.429c2.367 0 4.286-1.919 4.286-4.286z" fill="#a1ade5"/></g></svg>