<svg height="512" viewBox="0 0 501 501" width="512" xmlns="http://www.w3.org/2000/svg"><path d="M495.5 256c0 135.31-109.69 245-245 245S5.5 391.31 5.5 256s109.69-245 245-245 245 109.69 245 245z" fill="#91cefb"/><path d="M360.375 260h-49.368V44h31.904zm-219.75 0h49.368V44h-34.104z" fill="#6caac9"/><path d="M359.5 17.125V62h-216V17.125z" fill="#172a7d"/><path d="M130.938 199.997V309H86.063V199.997l36.56-167.146a19.999 19.999 0 0119.538-15.726h23.902zm239.125 0V309h44.875V199.997l-36.56-167.146a19.999 19.999 0 00-19.538-15.726h-23.902z" fill="#2740af"/><path d="M160.598 17.125h5.464l-35.125 182.872V309H104.5V199.997l36.56-167.146a20 20 0 0119.538-15.726zm217.779 15.727a20 20 0 00-19.538-15.727h-5.464L388.5 199.997V309h26.438V199.997zM250.5 501c-63.539 0-121.428-24.187-164.963-63.857C80.72 432.754 78 426.518 78 420.001V380h347v33.998c0 9.227-3.87 18.055-10.73 24.225a245.762 245.762 0 01-40.685 29.66c-.578.337-1.733.014-2.314.346-.645.368-.717 1.391-1.365 1.754C334.577 489.739 293.854 501 250.5 501z" fill="#314dc8"/><path d="M64 200h13v143.613c0 16.141-20.913 22.528-29.923 9.136l-.295-.439A16.423 16.423 0 0144 343.175V220c0-11.046 8.954-20 20-20z" fill="#2740af"/><path d="M44 300h33v115.871c0 4.782-5.908 7.044-9.098 3.482A246.03 246.03 0 0144 387.9z" fill="#172a7d"/><path d="M184.667 64.125V15c0-8.284 6.716-15 15-15h103.667c8.284 0 15 6.716 15 15v49.125c0 8.284-6.716 15-15 15H199.667c-8.285 0-15-6.716-15-15zM457 220c0-11.046-8.954-20-20-20h-13v80H78v105.5h347V310h32z" fill="#fc5426"/><path d="M424 416.682V300h33v87.9a245.853 245.853 0 01-24.445 32.056c-3.01 3.341-8.555 1.224-8.555-3.274z" fill="#d63d24"/><path d="M199.667 0h103.667c8.284 0 15 6.716 15 15v20c0 8.284-6.716 15-15 15H199.667c-8.284 0-15-6.716-15-15V15c0-8.284 6.715-15 15-15zM425 300H78V200h347z" fill="#fd7d43"/><path d="M370.125 200v30c0 16.569-13.431 30-30 30h-179.25c-16.569 0-30-13.431-30-30v-30h15v25c0 11.046 8.954 20 20 20h169.25c11.046 0 20-8.954 20-20v-25z" fill="#d63d24"/><path d="M87 200v100c0 5.523-4.477 10-10 10s-10-4.477-10-10V200c0-5.523 4.477-10 10-10s10 4.477 10 10zm337-10c-5.523 0-10 4.477-10 10v100c0 5.523 4.477 10 10 10s10-4.477 10-10V200c0-5.523-4.477-10-10-10z" fill="#f9eecf"/><path d="M306.5 305H302a7.5 7.5 0 01-7.5-7.5V245H314v52.5a7.5 7.5 0 01-7.5 7.5zM414 438.466a246.635 246.635 0 0020-20.126V300h-20v70H87v-70H67v118.339a246.317 246.317 0 0020 20.126V390h327z" fill="#ffe899"/><path d="M384.5 425v36.141a244.841 244.841 0 01-10.915 6.743c-.553.322-1.967-.545-2.523-.227-.671.383-.483 1.95-1.157 2.327A243.932 243.932 0 01349.893 480H279.5a5 5 0 01-5-5v-50a5 5 0 015-5h100a5 5 0 015 5z" fill="#172a7d"/><path d="M339.5 470h-50a5 5 0 01-5-5v-30a5 5 0 015-5h50a5 5 0 015 5v30a5 5 0 01-5 5z" fill="#b3d1e1"/><path d="M374.5 435v30a4.98 4.98 0 01-.915 2.884c-1.22.71-2.447 1.41-3.68 2.1a4.949 4.949 0 01-.405.016h-40a5 5 0 01-5-5v-30a5 5 0 015-5h40a5 5 0 015 5z" fill="#e3f0fb"/><path d="M355.214 445.714h-51.429a4.286 4.286 0 010-8.572h51.429a4.286 4.286 0 010 8.572zm4.286 12.857a4.286 4.286 0 00-4.286-4.286h-51.429a4.286 4.286 0 000 8.572h51.429a4.286 4.286 0 004.286-4.286z" fill="#a1ade5"/></svg>