<svg height="512" viewBox="0 0 501 501" width="512" xmlns="http://www.w3.org/2000/svg"><path d="M501 256c0 119.394-85.404 218.841-198.454 240.584-1.98.381-3.05-1.042-5.046-.709-4.005.668-8.306.779-12.375 1.25-1.23.142-3.117 2.514-4.353 2.638a247.88 247.88 0 01-27.964 1.217c-1.382-.018-2.598-3.939-3.975-3.98-13.403-.394-27.054-1.87-39.833-4.333-1.422-.274-2.487 3.337-3.9 3.039C94.218 472.277 11 373.857 11 256 11 120.69 120.69 11 256 11s245 109.69 245 245z" fill="#172a7d"/><path d="M335.655 90.655c47.25 0 91.376 13.376 128.798 36.547C487.624 164.624 501 208.75 501 256c0 85.169-43.458 160.188-109.409 204.091H202l-19.416-315.744c41.936-33.598 95.156-53.692 153.071-53.692z" fill="#4f66cf"/><path d="M455.429 163.64l-1.433 227.722a10 10 0 01-10 9.937l-.13-.001-101.319-1.32v-20.001l91.512 1.192 1.327-210.92c-28.111-11.202-59.775-18.329-92.839-21.085v-20.18c38.124 2.95 74.295 11.491 106.814 25.4a9.997 9.997 0 016.068 9.256z" fill="#2740af"/><path d="M185 0c102.173 0 185 82.827 185 185s-82.827 185-185 185S0 287.173 0 185 82.827 0 185 0z" fill="#fd7d43"/><path d="M24.345 276.795C8.855 249.744 0 218.406 0 185 0 82.827 82.827 0 185 0c33.406 0 64.744 8.855 91.795 24.345-135.468 8.622-243.828 116.982-252.45 252.45z" fill="#f16b38"/><path d="M369.976 182.037a187.168 187.168 0 01-1.213 24.471c-29.851 17.878-62.225 29.285-94.92 33.106-51.609 6.032-98.203-7.436-132.139-37.999a412.006 412.006 0 00-33.678 47.632 346.523 346.523 0 016.446 6.281c33.187 33.187 58.663 72.047 75.531 114.405a187.575 187.575 0 01-22.197-.722c-16.644-38.421-40.611-72.96-70.132-101.846a407.837 407.837 0 00-27.292 62.86 186.218 186.218 0 01-16.277-14.49 431.137 431.137 0 018.663-22.189 430.72 430.72 0 0119.537-40.276c-24.29-20.875-51.737-38.174-81.516-51.075a187.613 187.613 0 01-.722-22.198c33.395 13.298 64.615 31.947 92.596 55.507a426.96 426.96 0 0134.834-48.579c-28.26-33.581-40.56-78.663-34.747-128.404 1.501-12.84 4.172-25.631 7.945-38.238a183.824 183.824 0 0124.706-10.471c-6.447 16.68-10.775 33.819-12.787 51.032a183.939 183.939 0 00-1.267 21.368c0 34.366 10.149 65.228 29.459 89.399a438.392 438.392 0 0114.067-14.736c39.474-39.473 85.457-70.462 136.672-92.105a430.939 430.939 0 0125.137-9.709 186.117 186.117 0 0114.371 16.379c-68.468 22.543-129.025 62.669-176.302 115.009 29.643 26.865 70.838 38.671 116.769 33.302 34.107-3.988 67.919-17.064 98.456-37.714z" fill="#c64b1a"/><path d="M379.464 395.258c0-5.523-4.478-10-10-10-2.46 0-4.712.889-6.454 2.362-5.11.446-9.119 4.735-9.119 9.961 0 21.481-3.396 41.969-9.538 60.637-12.486-14.641-20.042-33.672-20.042-54.448 0-5.523-4.478-10-10-10-.725 0-1.431.078-2.112.224a10.063 10.063 0 00-2.112-.224c-5.522 0-10 4.477-10 10 0 19.415-6.597 37.305-17.65 51.513-5.879-17.873-9.112-37.341-9.112-57.702 0-4.49-2.96-8.289-7.035-9.553a9.966 9.966 0 00-6.908-2.77c-5.522 0-10 4.477-10 10 0 22.646-18.26 41.069-40.705 41.069l-.065.001a347.1 347.1 0 00-20.174-43.568c-2.662-4.838-8.744-6.603-13.582-3.939-4.839 2.663-6.603 8.744-3.939 13.582 16.031 29.13 27.535 60.659 34.185 93.303a245.784 245.784 0 0047.708 5.274 102.485 102.485 0 0022.203-11.551 182.285 182.285 0 005.762 10.334 244.59 244.59 0 0021.774-3.179 162.34 162.34 0 01-11.744-20.499 104.045 104.045 0 0021.395-32.536 104.064 104.064 0 0023.993 35.124 166.81 166.81 0 01-5.584 10.759 243.43 243.43 0 0034.186-13.852 83.417 83.417 0 01-4.318-2.79c5.178-13.697 8.913-28.199 11.107-43.21 7.827 10.184 18.822 18.167 31.107 22.672a246.13 246.13 0 0019.298-16.046c-21.41-1.628-42.525-19.371-42.525-40.948zm-155.545 91.86a9.977 9.977 0 00-.335-.661 353.84 353.84 0 00-8.141-30.508c16.525-1.852 31.068-10.405 40.876-22.887 2.238 13.056 5.709 25.705 10.345 37.748-12.128 9.131-26.806 15.001-42.745 16.308zm236.864-96.574a246.206 246.206 0 01-34.364 41.474 346.62 346.62 0 0118.496-39.258c2.663-4.839 8.744-6.602 13.582-3.939a9.993 9.993 0 012.286 1.723z" fill="#a1ade5"/><path d="M350 411.903H150c-11.046 0-20-8.954-20-20v-5.161c0-11.046 8.954-20 20-20h200c11.046 0 20 8.954 20 20v5.161c0 11.046-8.954 20-20 20z" fill="#05a2f9"/><path d="M445.004 411.903H230.493c-11.046 0-20-8.954-20-20v-5.161c0-11.046 8.954-20 20-20h244.11a245.328 245.328 0 01-29.599 45.161z" fill="#63bcfa"/><path d="M257.56 298.19l13.952 31.642 64.905-17.451c3.13-.842 5.186 3.191 2.665 5.23l-50.873 41.141 37.478 32.507c2.292 1.988.522 5.733-2.47 5.224l-51.705-8.811 1.61 37.529c.126 2.946-3.627 4.287-5.397 1.929l-29.607-39.458-34.379 3.738c-2.593.282-4.285-2.65-2.745-4.754l20.427-27.904-31.694-36.519c-1.946-2.242.198-5.646 3.061-4.859l45.33 12.459 13.952-31.642c1.053-2.388 4.438-2.388 5.49-.001z" fill="#f9eecf"/></svg>