<svg id="Capa_1" enable-background="new 0 0 501 501" height="512" viewBox="0 0 501 501" width="512" xmlns="http://www.w3.org/2000/svg"><g><path d="m501 256c0 119.394-85.404 218.841-198.454 240.584-1.98.381-3.05-1.042-5.046-.709-4.005.668-8.306.779-12.375 1.25-1.23.142-3.117 2.514-4.353 2.638-8.146.818-16.41 1.237-24.772 1.237-1.066 0-2.129-.007-3.192-.02-1.382-.018-2.598-3.939-3.975-3.98-13.403-.394-27.054-1.87-39.833-4.333-1.422-.274-2.487 3.337-3.9 3.039-110.882-23.429-194.1-121.849-194.1-239.706 0-135.31 109.69-245 245-245s245 109.69 245 245z" fill="#172a7d"/><path d="m335.655 90.655c47.25 0 91.376 13.376 128.798 36.547 23.171 37.422 36.547 81.548 36.547 128.798 0 85.169-43.458 160.188-109.409 204.091h-189.591l-19.416-315.744c41.936-33.598 95.156-53.692 153.071-53.692z" fill="#4f66cf"/><path d="m455.429 163.64-1.433 227.722c-.017 2.664-1.096 5.211-2.998 7.076-1.87 1.834-4.385 2.861-7.002 2.861-.043 0-.087 0-.13-.001l-101.319-1.32v-20.001l91.512 1.192 1.327-210.92c-28.111-11.202-59.775-18.329-92.839-21.085v-20.18c38.124 2.95 74.295 11.491 106.814 25.4 3.702 1.582 6.093 5.23 6.068 9.256z" fill="#2740af"/><path d="m185 0c102.173 0 185 82.827 185 185s-82.827 185-185 185-185-82.827-185-185 82.827-185 185-185z" fill="#fd7d43"/><path d="m24.345 276.795c-15.49-27.051-24.345-58.389-24.345-91.795 0-102.173 82.827-185 185-185 33.406 0 64.744 8.855 91.795 24.345-135.468 8.622-243.828 116.982-252.45 252.45z" fill="#f16b38"/><path d="m369.976 182.037c.015.986.024 1.973.024 2.963 0 7.275-.421 14.452-1.237 21.508-29.851 17.878-62.225 29.285-94.92 33.106-51.609 6.032-98.203-7.436-132.139-37.999-12.308 15.028-23.571 30.942-33.678 47.632 2.172 2.062 4.321 4.156 6.446 6.281 33.187 33.187 58.663 72.047 75.531 114.405-1.662.044-3.33.067-5.003.067-5.798 0-11.533-.268-17.194-.789-16.644-38.421-40.611-72.96-70.132-101.846-10.771 20.019-19.927 41.031-27.292 62.86-5.707-4.511-11.143-9.35-16.277-14.49 2.676-7.457 5.564-14.855 8.663-22.189 5.838-13.815 12.356-27.248 19.537-40.276-24.29-20.875-51.737-38.174-81.516-51.075-.521-5.662-.789-11.397-.789-17.195 0-1.673.023-3.341.067-5.003 33.395 13.298 64.615 31.947 92.596 55.507 10.446-16.964 22.071-33.177 34.834-48.579-28.26-33.581-40.56-78.663-34.747-128.404 1.501-12.84 4.172-25.631 7.945-38.238 7.921-4.062 16.174-7.57 24.706-10.471-6.447 16.68-10.775 33.819-12.787 51.032-.848 7.249-1.267 14.382-1.267 21.368 0 34.366 10.149 65.228 29.459 89.399 4.562-5.007 9.251-9.92 14.067-14.736 39.474-39.473 85.457-70.462 136.672-92.105 8.3-3.507 16.681-6.744 25.137-9.709 5.102 5.17 9.902 10.64 14.371 16.379-68.468 22.543-129.025 62.669-176.302 115.009 29.643 26.865 70.838 38.671 116.769 33.302 34.107-3.988 67.919-17.064 98.456-37.714z" fill="#c64b1a"/><path d="m379.464 395.258c0-5.523-4.478-10-10-10-2.46 0-4.712.889-6.454 2.362-5.11.446-9.119 4.735-9.119 9.961 0 21.481-3.396 41.969-9.538 60.637-12.486-14.641-20.042-33.672-20.042-54.448 0-5.523-4.478-10-10-10-.725 0-1.431.078-2.112.224-.681-.146-1.387-.224-2.112-.224-5.522 0-10 4.477-10 10 0 19.415-6.597 37.305-17.65 51.513-5.879-17.873-9.112-37.341-9.112-57.702 0-4.49-2.96-8.289-7.035-9.553-1.795-1.716-4.229-2.77-6.908-2.77-5.522 0-10 4.477-10 10 0 22.646-18.26 41.069-40.705 41.069-.022 0-.043.001-.065.001-5.711-14.962-12.447-29.527-20.174-43.568-2.662-4.838-8.744-6.603-13.582-3.939-4.839 2.663-6.603 8.744-3.939 13.582 16.031 29.13 27.535 60.659 34.185 93.303 15.417 3.258 31.37 5.065 47.708 5.274 7.901-2.947 15.348-6.843 22.203-11.551 1.813 3.515 3.735 6.961 5.762 10.334 7.359-.739 14.622-1.803 21.774-3.179-4.344-6.433-8.275-13.285-11.744-20.499 9.032-9.32 16.339-20.342 21.395-32.536 5.532 13.343 13.759 25.282 23.993 35.124-1.748 3.688-3.612 7.277-5.584 10.759 11.81-3.771 23.23-8.414 34.186-13.852-1.469-.886-2.909-1.817-4.318-2.79 5.178-13.697 8.913-28.199 11.107-43.21 7.827 10.184 18.822 18.167 31.107 22.672 6.707-5.021 13.148-10.378 19.298-16.046-21.41-1.628-42.525-19.371-42.525-40.948zm-155.545 91.86c-.104-.226-.216-.446-.335-.661-2.26-10.292-4.977-20.473-8.141-30.508 16.525-1.852 31.068-10.405 40.876-22.887 2.238 13.056 5.709 25.705 10.345 37.748-12.128 9.131-26.806 15.001-42.745 16.308zm236.864-96.574c-9.919 15.067-21.456 28.974-34.364 41.474 5.339-13.451 11.512-26.569 18.496-39.258 2.663-4.839 8.744-6.602 13.582-3.939.862.474 1.627 1.058 2.286 1.723z" fill="#a1ade5"/><path d="m350 411.903h-200c-11.046 0-20-8.954-20-20v-5.161c0-11.046 8.954-20 20-20h200c11.046 0 20 8.954 20 20v5.161c0 11.046-8.954 20-20 20z" fill="#05a2f9"/><path d="m445.004 411.903h-214.511c-11.046 0-20-8.954-20-20v-5.161c0-11.046 8.954-20 20-20h244.11c-8.208 16.169-18.156 31.305-29.599 45.161z" fill="#63bcfa"/><path d="m257.56 298.19 13.952 31.642 64.905-17.451c3.13-.842 5.186 3.191 2.665 5.23l-50.873 41.141 37.478 32.507c2.292 1.988.522 5.733-2.47 5.224l-51.705-8.811 1.61 37.529c.126 2.946-3.627 4.287-5.397 1.929l-29.607-39.458-34.379 3.738c-2.593.282-4.285-2.65-2.745-4.754l20.427-27.904-31.694-36.519c-1.946-2.242.198-5.646 3.061-4.859l45.33 12.459 13.952-31.642c1.053-2.388 4.438-2.388 5.49-.001z" fill="#f9eecf"/></g></svg>