<svg height="512" viewBox="0 0 501 501" width="512" xmlns="http://www.w3.org/2000/svg"><path d="M.036 251.749C2.306 118.4 111.11 11 245 11s242.694 107.4 244.964 240.749z" fill="#4f66cf"/><path d="M490 256c0 135.31-109.69 245-245 245-51.549 0-99.379-15.92-138.843-43.112v-32.32c0-52.144-42.271-94.415-94.415-94.415C4.118 307.472 0 282.217 0 256c0-5.375.173-10.71.514-16h488.971c.342 5.29.515 10.625.515 16z" fill="#2740af"/><path d="M408.5 262.5c11.046 0 20 8.954 20 20v110h-15v-105c0-5.523-4.477-10-10-10h-151V390h-15V277.5h-151c-5.523 0-10 4.477-10 10v105h-15v-110c0-11.046 8.954-20 20-20h156V150h15v112.5z" fill="#f9eecf"/><path d="M320.077 202.114c-48.11 41.464-120.725 36.076-162.189-12.035S121.813 69.354 169.923 27.89 290.648-8.186 332.112 39.925s36.075 120.725-12.035 162.189z" fill="#fd7d43"/><path d="M206.604 223.423c-18.272-6.452-35.159-17.614-48.716-33.344-41.464-48.11-36.076-120.725 12.035-162.189 15.73-13.557 34.08-22.105 53.104-25.789-60.29 59.036-67.339 154.035-16.423 221.322z" fill="#f16b38"/><path d="M296.475 141.641c-16.112-23.807-38.389-38.413-63.069-41.469-5.459 43.502.222 88.301 17.393 129.689-4.516.225-9.04.184-13.545-.12a266.702 266.702 0 01-5.629-15.777c-10.593-32.899-14.662-67.127-12.095-101.733.313-4.222.724-8.424 1.23-12.604-19.218.716-37.869 8.462-54.051 22.408a114.384 114.384 0 00-9.547 9.268c-7.289 7.933-13.603 16.926-18.84 26.731a114.378 114.378 0 01-5.096-15.883c4.405-6.893 9.344-13.342 14.781-19.259 21.063-22.924 47.282-35.427 74.563-35.748a265.531 265.531 0 018.738-36.117c-22.449-3.614-43.9-10.747-63.714-21.075a116.35 116.35 0 0110.746-8.668 199.357 199.357 0 0057.131 17.656A267.887 267.887 0 01253.44.312c4.504.331 8.989.927 13.429 1.784a253.483 253.483 0 00-18.523 38.361c25.582 2.178 51.572-.553 76.418-8.308a116.256 116.256 0 019.348 10.159c-26.791 9.248-55.428 13.022-84.522 10.863a218.024 218.024 0 01-5.574-.486 256.077 256.077 0 00-8.761 35.188c28.164 3.577 53.414 20.051 71.518 46.8 11.469 16.946 19.236 36.819 22.932 58.13a116.28 116.28 0 01-11.03 10.502c-2.672-22.76-10.237-43.987-22.2-61.664z" fill="#c64b1a"/><path d="M501 387.023c0 21.699-8.639 41.381-22.666 55.793-14.533 14.932-100.49 14.77-115.048-.393-13.802-14.375-22.286-33.897-22.286-55.4 0-44.183 35.817-80 80-80s80 35.818 80 80zm-256-80c-44.183 0-80 35.817-80 80 0 21.504 8.484 41.025 22.287 55.401 14.558 15.162 100.513 15.324 115.047.392C316.361 428.404 325 408.723 325 387.023c0-44.182-35.817-80-80-80z" fill="#f4aa39"/><path d="M501 387.023c0 27.139-13.513 51.121-34.178 65.585-3.978.481-8.028.729-12.136.729-55.229 0-100-44.771-100-100 0-4.108.248-8.158.729-12.136 14.465-20.665 38.447-34.178 65.585-34.178 44.183 0 80 35.818 80 80zm-253.866-79.972c-28.013-.729-52.877 12.945-67.72 34.15a100.992 100.992 0 00-.727 12.707c.307 55.074 46.894 100.469 101.959 99.411.274-.005.547-.012.82-.019 6.402-.175 12.515-2.697 17.258-7 16.626-15.078 26.881-37.053 26.248-61.409-1.099-42.271-35.567-76.739-77.838-77.84zM69 307.023c-22.444 0-42.73 9.243-57.258 24.13 8.3 25.781 20.756 49.698 36.578 70.962 14.505 19.492 62.523 50.975 66.501 50.493C135.487 438.144 149 414.162 149 387.023c0-44.182-35.817-80-80-80z" fill="#fdbf43"/><path d="M478.334 442.816C463.8 457.748 443.483 467.023 421 467.023c-22.681 0-43.156-9.438-57.715-24.602l7.366-23.841a18.661 18.661 0 0113.658-12.771l5.807-1.343 21.555-4.976v-1.476l.002-.128c-12.738-2.718-22.292-14.035-22.292-27.585h-1.567a6.268 6.268 0 01-6.268-6.268v-6.268a6.268 6.268 0 016.268-6.268h1.567v-6.268c0-12.116 9.822-21.938 21.938-21.938h18.804c12.116 0 21.938 9.822 21.938 21.938v6.268h1.567a6.268 6.268 0 016.268 6.268v6.268a6.268 6.268 0 01-6.268 6.268h-1.567c0 13.549-9.554 24.867-22.292 27.585l.002.128v1.47l21.628 4.981.006.019 5.727 1.324a18.663 18.663 0 0113.658 12.771zM281.132 405.81l-5.727-1.324-.006-.019-21.628-4.981v-1.47l-.002-.128c12.738-2.718 22.292-14.035 22.292-27.585h1.567a6.268 6.268 0 006.268-6.268v-6.268a6.268 6.268 0 00-6.268-6.268h-1.567v-6.268c0-12.116-9.822-21.938-21.938-21.938h-18.804c-12.116 0-21.938 9.822-21.938 21.938v6.268h-1.567a6.268 6.268 0 00-6.268 6.268v6.268a6.268 6.268 0 006.268 6.268h1.567c0 13.549 9.554 24.867 22.292 27.585l-.002.128v1.476l-21.555 4.976-5.807 1.343a18.665 18.665 0 00-13.658 12.771l-7.366 23.841c14.558 15.163 35.034 24.602 57.715 24.602 22.483 0 42.8-9.275 57.334-24.208l-7.544-24.235a18.663 18.663 0 00-13.658-12.772zm-176 0l-5.727-1.324-.006-.019-21.628-4.981v-1.47l-.002-.128c12.738-2.718 22.292-14.035 22.292-27.585h1.567a6.268 6.268 0 006.268-6.268v-6.268a6.268 6.268 0 00-6.268-6.268h-1.567v-6.268c0-12.116-9.822-21.938-21.938-21.938H59.319c-12.116 0-21.938 9.822-21.938 21.938v6.268h-1.567a6.268 6.268 0 00-6.268 6.268v6.268a6.268 6.268 0 006.268 6.268h1.567c0 13.549 9.554 24.867 22.292 27.585l-.002.128v1.475l-11.353 2.621a246.403 246.403 0 0057.839 55.777 80.296 80.296 0 0020.177-15.072l-7.544-24.235a18.663 18.663 0 00-13.658-12.772z" fill="#f3d6ac"/><path d="M101.428 436.439a15.375 15.375 0 014.504 10.873v10.42a246.335 246.335 0 01-35.998-30.335c8.218-.635 14.549-7.721 14.549-16.051v-10.314l12.441 2.865v21.67a15.38 15.38 0 004.504 10.872zm347.497-10.872v-21.67l-12.441-2.865v10.314c0 8.577-6.712 15.836-15.286 16.09-8.908.265-16.24-6.905-16.24-15.755V401.04l-12.441 2.872v21.655c0 4.078-1.62 7.988-4.504 10.872s-4.504 6.794-4.504 10.873v10.401c11.183 5.943 23.943 9.311 37.49 9.311 13.322 0 25.883-3.256 36.932-9.017v-10.695c0-4.078-1.62-7.989-4.504-10.873a15.377 15.377 0 01-4.502-10.872zm-176 0v-21.67l-12.441-2.865v10.314c0 8.577-6.712 15.836-15.286 16.09-8.908.265-16.24-6.905-16.24-15.755V401.04l-12.441 2.872v21.655c0 4.078-1.62 7.988-4.504 10.872s-4.504 6.794-4.504 10.873v10.401c11.183 5.943 23.943 9.311 37.49 9.311 13.322 0 25.883-3.256 36.932-9.017v-10.695c0-4.078-1.62-7.989-4.504-10.873a15.377 15.377 0 01-4.502-10.872z" fill="#fff5f5"/><path d="M455.932 459.014v-11.701a9.323 9.323 0 00-2.746-6.631 21.236 21.236 0 01-6.261-15.114v-22.131l4.474 1.03.006.019 3.52.814v20.268c0 3.572 1.392 6.931 3.917 9.458a17.264 17.264 0 015.09 12.287v7.227a80.057 80.057 0 01-8 4.474zm-70.422-.274v-11.427a9.32 9.32 0 012.747-6.631 21.235 21.235 0 006.26-15.114v-22.117l-4.401 1.016-3.599.833v20.268c0 3.572-1.392 6.931-3.917 9.458a17.264 17.264 0 00-5.09 12.287v6.868a80.103 80.103 0 008 4.559zm56.973-47.393v-8.933l-8-1.842v10.774c0 7.552-5.986 13.873-13.346 14.092a13.68 13.68 0 01-9.996-3.885c-2.698-2.619-4.184-6.124-4.184-9.871v-11.103l-8 1.847v9.256c0 5.93 2.348 11.474 6.61 15.61a21.632 21.632 0 0015.807 6.141c11.64-.343 21.109-10.251 21.109-22.086zM287.932 454.54v-7.227c0-4.642-1.808-9.005-5.09-12.287a13.295 13.295 0 01-3.917-9.458V405.3l-3.52-.814-.006-.019-4.474-1.03v22.131a21.236 21.236 0 006.261 15.114 9.318 9.318 0 012.746 6.631v11.701a80.057 80.057 0 008-4.474zm-78.422 4.2v-11.427a9.32 9.32 0 012.747-6.631 21.235 21.235 0 006.26-15.114v-22.117l-4.401 1.016-3.599.833v20.268c0 3.572-1.392 6.931-3.917 9.458a17.264 17.264 0 00-5.09 12.287v6.868a80.103 80.103 0 008 4.559zm56.973-47.393v-8.933l-8-1.842v10.774c0 7.552-5.986 13.873-13.346 14.092a13.68 13.68 0 01-9.996-3.885c-2.698-2.619-4.184-6.124-4.184-9.871v-11.103l-8 1.847v9.256c0 5.93 2.348 11.474 6.61 15.61a21.632 21.632 0 0015.807 6.141c11.64-.343 21.109-10.251 21.109-22.086zm-176 0v-8.933l-8-1.842v10.774c0 7.552-5.986 13.873-13.346 14.092-.373.011-.743.007-1.112-.011a245.923 245.923 0 007.029 7.05c8.89-2.792 15.429-11.296 15.429-21.13zm12.442 14.22v-20.268l-3.52-.814-.006-.019-4.474-1.03v22.131a21.236 21.236 0 006.261 15.114 9.318 9.318 0 012.746 6.631v9.023c.739.521 1.481 1.039 2.225 1.552a79.685 79.685 0 005.775-3.348v-7.227c0-4.642-1.808-9.005-5.09-12.287a13.29 13.29 0 01-3.917-9.458zm-47.967-14.929v-10.059l-6.64 1.533a247.844 247.844 0 006.64 8.526z" fill="#f19b0b"/><path d="M428.258 323.292h1.865c12.116 0 21.938 9.822 21.938 21.938v25.072c0 13.754-9.844 25.208-22.871 27.702-13.027-2.494-22.871-13.949-22.871-27.702V345.23c0-12.116 9.822-21.938 21.939-21.938zM230.319 345.23v25.072c0 13.754 9.844 25.208 22.871 27.702 13.027-2.494 22.871-13.949 22.871-27.702V345.23c0-12.116-9.822-21.938-21.938-21.938h-1.865c-12.117 0-21.939 9.822-21.939 21.938zm-176 0v25.072c0 13.754 9.844 25.208 22.871 27.702 13.027-2.494 22.871-13.949 22.871-27.702V345.23c0-12.116-9.822-21.938-21.938-21.938h-1.865c-12.117 0-21.939 9.822-21.939 21.938z" fill="#f8e6cc"/><path d="M452.061 342.096h-55.159v1.88a7.522 7.522 0 01-7.522 7.522v-12.536c0-12.116 9.822-21.938 21.938-21.938h18.804c12.116 0 21.938 9.822 21.938 21.938v3.134zm-176-3.134c0-12.116-9.822-21.938-21.938-21.938h-18.804c-12.116 0-21.938 9.822-21.938 21.938v12.536a7.522 7.522 0 007.522-7.522v-1.88h55.159v-3.134zm-176 0c0-12.116-9.822-21.938-21.938-21.938H59.319c-12.116 0-21.938 9.822-21.938 21.938v12.536a7.522 7.522 0 007.522-7.522v-1.88h55.159v-3.134z" fill="#d98800"/><path d="M452.061 338.962v12.536a7.522 7.522 0 01-7.522-7.522v-1.88h-38.22v-3.134c0-12.116 9.822-21.938 21.938-21.938h1.865c12.117-.001 21.939 9.821 21.939 21.938zm-176 0c0-12.116-9.822-21.938-21.938-21.938h-1.865c-12.116 0-21.938 9.822-21.938 21.938v3.134h38.22v1.88a7.522 7.522 0 007.522 7.522v-12.536zm-176 0c0-12.116-9.822-21.938-21.938-21.938h-1.865c-12.116 0-21.938 9.822-21.938 21.938v3.134h38.22v1.88a7.522 7.522 0 007.522 7.522v-12.536z" fill="#f19b0b"/></svg>