<svg height="512" viewBox="0 0 501 501" width="512" xmlns="http://www.w3.org/2000/svg"><path d="M495.5 245c0 6.261-.235 12.466-.696 18.609-.052.694-1.996.761-2.054 1.454a270.996 270.996 0 01-1 9.563c-.088.727 1.774 1.65 1.679 2.375C477.751 397.189 374.964 490 250.5 490c-135.31 0-245-109.69-245-245S115.19 0 250.5 0c83.441 0 157.14 41.713 201.381 105.424.549.791-.338 2.403.202 3.201 1.233 1.821 3.148 4.519 4.333 6.375.304.476 1.332-.724 1.633-.245C481.776 152.484 495.5 197.139 495.5 245z" fill="#05a2f9"/><path d="M250.5 0c44.291 0 85.837 11.753 121.69 32.311C392.747 68.163 404.5 109.709 404.5 154c0 135.31-109.69 245-245 245-44.291 0-85.837-11.753-121.69-32.311C17.253 330.837 5.5 289.291 5.5 245c0-135.31 109.69-245 245-245z" fill="#63bcfa"/><path d="M493.429 277h-84.308l14.644 58.575c.973 3.89-3.747 6.633-6.645 3.861l-77.649-74.255-59.145-8.594 42.797-41.717L335.71 92.701c.41-3.984 5.771-4.959 7.558-1.375L384 173l67.884-67.572a243.482 243.482 0 016.165 9.325L427.121 223l67.682 40.609A244.499 244.499 0 01493.429 277z" fill="#f9eecf"/><path d="M204.5 131c102.173 0 185 82.827 185 185s-82.827 185-185 185-185-82.827-185-185 82.827-185 185-185z" fill="#fd7d43"/><path d="M43.845 407.795C28.355 380.744 19.5 349.406 19.5 316c0-102.173 82.827-185 185-185 33.406 0 64.744 8.855 91.795 24.345-135.468 8.622-243.828 116.982-252.45 252.45z" fill="#f16b38"/><path d="M389.476 313.037a187.168 187.168 0 01-1.213 24.471c-29.851 17.878-62.225 29.285-94.92 33.106-51.609 6.032-98.203-7.436-132.139-37.999a412.006 412.006 0 00-33.678 47.632 346.523 346.523 0 016.446 6.281c33.187 33.187 58.663 72.047 75.531 114.405a187.575 187.575 0 01-22.197-.722c-16.644-38.421-40.611-72.96-70.132-101.846a407.837 407.837 0 00-27.292 62.86 186.218 186.218 0 01-16.277-14.49 431.137 431.137 0 018.663-22.189 430.72 430.72 0 0119.537-40.276c-24.29-20.875-51.737-38.174-81.516-51.075a187.613 187.613 0 01-.722-22.198c33.395 13.298 64.615 31.947 92.596 55.507a426.96 426.96 0 0134.834-48.579c-28.26-33.581-40.56-78.663-34.747-128.404 1.501-12.84 4.172-25.631 7.945-38.238a183.824 183.824 0 0124.706-10.471c-6.447 16.68-10.775 33.819-12.787 51.032a183.939 183.939 0 00-1.267 21.368c0 34.366 10.149 65.228 29.459 89.399a438.392 438.392 0 0114.067-14.736c39.474-39.473 85.457-70.462 136.672-92.105a430.939 430.939 0 0125.137-9.709 186.117 186.117 0 0114.371 16.379c-68.468 22.543-129.025 62.669-176.302 115.009 29.643 26.865 70.838 38.671 116.769 33.302 34.107-3.988 67.919-17.064 98.456-37.714z" fill="#c64b1a"/><path d="M375.307 203.769a30.062 30.062 0 01-7.674 35.153 10 10 0 01-12.098.765l-51.244-34.163-99.267-25.966c16.339 20.992 29.611 40.687 38.655 57.045 7.857 14.21-9.223 29.025-22.181 19.24-21.624-16.331-48.936-42.447-76.282-73.973-17.637-20.333-33.047-40.332-45.285-58.333l-38.575-34.27c25.028-30.363 57.226-54.595 94.002-70.107l51.645 57.479.057-.112 126.129 62.01a50.001 50.001 0 0123.458 24.18z" fill="#a95947"/><path d="M380.603 238.366c-1.922.601-3.89.282-5.756-.544-2.358-1.043-5.096-.766-7.03.939l-.189.165a10 10 0 01-12.093.761l-51.244-34.163-99.576-25.657-.186-.27c-6.259-9.076 2.116-21.052 12.79-18.291l104.224 26.966 5.222 3.481c1.824 1.216 3.887-1.164 2.425-2.797s-64.402-41.968-81.19-54.557c-5.916-4.436.239-18.834 9.357-12.616l82.424 42.52a57.27 57.27 0 0119.769 16.815l28.724 38.787c.923 1.245 8.221 13.495-7.671 18.461zM61.356 89.267l38.576 34.271c12.238 18.001 27.648 38 45.285 58.333 27.346 31.526 54.658 57.643 76.282 73.973 11.449 8.646 26.115-1.913 23.957-14.291-2.26-.379-4.54-1.326-6.705-2.961-21.624-16.331-48.936-42.447-76.282-73.973-17.637-20.333-33.047-40.332-45.285-58.333L77.759 71.26a246.426 246.426 0 00-16.403 18.007z" fill="#954d3b"/><path d="M201.891 199.514l-7.86 6.182a5 5 0 11-6.182-7.86l7.86-6.182a5 5 0 116.182 7.86zm13.203 8.7a5 5 0 00-7.021-.839l-7.86 6.182a5 5 0 006.182 7.86l7.86-6.182a5 5 0 00.839-7.021z" fill="#7d402d"/><path d="M219.17 237.159l5.275-4.959c2.952-2.775 7.709-2.182 9.885 1.235a174.827 174.827 0 012.002 3.218c5.28 8.709-5.083 18.452-13.45 12.645-1.01-.701-2.04-1.434-3.089-2.196-3.276-2.384-3.575-7.168-.623-9.943z" fill="#e1a595"/></svg>