<svg id="Capa_1" enable-background="new 0 0 501 501" height="512" viewBox="0 0 501 501" width="512" xmlns="http://www.w3.org/2000/svg"><g><path d="m501 256c0 135.31-109.69 245-245 245s-245-109.69-245-245 109.69-245 245-245 245 109.69 245 245z" fill="#91cefb"/><path d="m417.773 440c-43.154 37.971-99.774 61-161.773 61s-118.619-23.029-161.773-61z" fill="#3691bb"/><path d="m391.727 460h-241.727c-5.523 0-10-4.477-10-10s4.477-10 10-10h267.773c-8.213 7.226-16.914 13.912-26.046 20z" fill="#0680ae"/><path d="m177.235 23.418c-5.357-5.357-5.357-14.043 0-19.4s14.043-5.357 19.4 0c3.569 3.569 4.759 8.615 3.573 13.171l55.692 47.124 55.607-48.508c-.638-4.169.647-8.575 3.858-11.786 5.357-5.357 14.043-5.357 19.4 0s5.357 14.043 0 19.4c-3.569 3.569-8.615 4.76-13.171 3.573l-52.79 62.388h-25.609l-54.174-62.102c-4.169.636-8.575-.649-11.786-3.86zm169.765 371.582h-182l-10.804 54.019c-.619 3.094 1.748 5.981 4.903 5.981h14.516c2.045 0 3.883-1.245 4.642-3.143l10.743-26.857h134l10.743 26.857c.759 1.898 2.598 3.143 4.642 3.143h14.516c3.155 0 5.522-2.887 4.903-5.981z" fill="#172a7d"/><path d="m47.333 405h-32.333c-8.284 0-15-6.716-15-15v-310c0-8.284 6.716-15 15-15h32.333c8.284 0 15 6.716 15 15v310c0 8.284-6.715 15-15 15z" fill="#172a7d"/><path d="m501 256c0 56.056-18.826 107.715-50.5 149h-415.5c-8.284 0-15-6.716-15-15v-310c0-8.284 6.716-15 15-15h374.454c11.271 9.067 21.722 19.111 31.226 30.003 1.223 1.402-2.996 3.692-1.805 5.122 5.325 6.39 12.463 15.584 17.125 22.5.915 1.357 5.111-.68 6 .697 24.678 38.236 39 83.785 39 132.678z" fill="#314dc8"/><path d="m266 395h-20c-2.761 0-5-2.239-5-5 0-2.761 2.239-5 5-5h20c2.761 0 5 2.239 5 5 0 2.761-2.239 5-5 5z" fill="#6c7fd7"/><path d="m462 123.322v241.678c0 5.523-4.477 10-10 10h-392c-5.523 0-10-4.477-10-10v-260c0-5.523 4.477-10 10-10h380.677c7.764 8.898 14.895 18.362 21.323 28.322z" fill="#fdcb6b"/><path d="m436 360h-360c-2.761 0-5-2.239-5-5v-240c0-2.761 2.239-5 5-5h360c2.761 0 5 2.239 5 5v240c0 2.761-2.239 5-5 5z" fill="#ffe899"/><path d="m160 110h90v250h-90zm276 0h-85v250h85c2.761 0 5-2.239 5-5v-240c0-2.761-2.239-5-5-5z" fill="#f9eecf"/><path d="m211.548 295c0 2.761-2.239 5-5 5h-80c-2.761 0-5-2.239-5-5s2.239-5 5-5h80c2.761 0 5 2.239 5 5zm-14.452 15h-61.096c-2.761 0-5 2.239-5 5s2.239 5 5 5h61.096c2.761 0 5-2.239 5-5s-2.239-5-5-5zm188.356-20h-80c-2.761 0-5 2.239-5 5s2.239 5 5 5h80c2.761 0 5-2.239 5-5s-2.238-5-5-5zm-9.452 20h-61.096c-2.761 0-5 2.239-5 5s2.239 5 5 5h61.096c2.761 0 5-2.239 5-5s-2.238-5-5-5zm-120-130c-5.523 0-10 4.477-10 10s4.477 10 10 10 10-4.477 10-10-4.477-10-10-10zm0 40c-5.523 0-10 4.477-10 10s4.477 10 10 10 10-4.477 10-10-4.477-10-10-10z" fill="#f4aa39"/><path d="m166.548 144.42c17.157 0 33.161 3.675 46.669 10.025 1.151.541 2.076 1.462 2.645 2.599 3.618 7.237 5.85 15.818 6.181 25.744.035 1.055.053 2.115.053 3.179 0 37.886-22.519 70.334-54.474 83.816-.686.289-1.463.289-2.149 0-31.954-13.482-54.473-45.93-54.473-83.816 0-1.064.018-2.124.053-3.179.331-9.925 2.563-18.506 6.181-25.744.569-1.138 1.494-2.058 2.645-2.599 13.508-6.35 29.512-10.025 46.669-10.025z" fill="#fc5426"/><path d="m168.823 269.266c-.399.175-.799.348-1.2.517-.686.289-1.463.289-2.149 0-31.955-13.482-54.474-45.93-54.474-83.816 0-1.064.018-2.124.053-3.179.331-9.925 2.563-18.506 6.181-25.744.569-1.138 1.494-2.058 2.645-2.599 10.431-4.904 22.351-8.211 35.141-9.464-.099 2.639-.169 5.323-.21 8.054-.035 2.341-.053 4.692-.053 7.052 0 40.261 5.168 77.754 14.066 109.179z" fill="#c64b1a"/><path d="m345.452 144.42c17.157 0 33.161 3.675 46.669 10.025 1.151.541 2.076 1.462 2.645 2.599 3.618 7.237 5.85 15.818 6.181 25.744.035 1.055.053 2.115.053 3.179 0 37.886-22.519 70.334-54.474 83.816-.686.289-1.463.289-2.149 0-31.954-13.482-54.474-45.93-54.474-83.816 0-1.064.018-2.124.053-3.179.331-9.925 2.563-18.506 6.181-25.744.569-1.138 1.494-2.058 2.645-2.599 13.509-6.35 29.513-10.025 46.67-10.025z" fill="#22b27f"/><path d="m347.727 269.266c-.399.175-.799.348-1.2.517-.686.289-1.463.289-2.149 0-31.954-13.482-54.474-45.93-54.474-83.816 0-1.064.018-2.124.053-3.179.331-9.925 2.563-18.506 6.181-25.744.569-1.138 1.494-2.058 2.645-2.599 10.431-4.904 22.351-8.211 35.141-9.464-.099 2.639-.169 5.323-.21 8.054-.035 2.341-.053 4.692-.053 7.052 0 40.261 5.168 77.754 14.066 109.179z" fill="#08856c"/><path d="m168.74 167.794 8.605 17.435c.356.721 1.044 1.221 1.84 1.337l19.241 2.796c2.005.291 2.805 2.755 1.355 4.169l-13.923 13.571c-.576.561-.839 1.37-.703 2.163l3.287 19.163c.342 1.997-1.753 3.519-3.546 2.576l-17.209-9.047c-.712-.374-1.563-.374-2.275 0l-17.209 9.047c-1.793.943-3.889-.58-3.546-2.576l3.287-19.163c.136-.793-.127-1.602-.703-2.163l-13.923-13.571c-1.451-1.414-.65-3.877 1.355-4.169l19.241-2.796c.796-.116 1.484-.616 1.84-1.337l8.605-17.435c.894-1.817 3.484-1.817 4.381 0zm178.904 0 8.605 17.435c.356.721 1.044 1.221 1.84 1.337l19.241 2.796c2.005.291 2.805 2.755 1.355 4.169l-13.923 13.571c-.576.561-.839 1.37-.703 2.163l3.287 19.163c.342 1.997-1.753 3.519-3.546 2.576l-17.209-9.047c-.712-.374-1.563-.374-2.275 0l-17.209 9.047c-1.793.943-3.889-.58-3.546-2.576l3.287-19.163c.136-.793-.127-1.602-.703-2.163l-13.925-13.572c-1.451-1.414-.65-3.877 1.354-4.169l19.241-2.796c.796-.116 1.484-.616 1.84-1.337l8.605-17.435c.897-1.816 3.487-1.816 4.384.001z" fill="#fdf061"/></g></svg>