<svg height="512" viewBox="0 0 501 501" width="512" xmlns="http://www.w3.org/2000/svg"><path d="M501 256c0 135.31-109.69 245-245 245S11 391.31 11 256 120.69 11 256 11s245 109.69 245 245z" fill="#91cefb"/><path d="M417.773 440c-43.154 37.971-99.774 61-161.773 61s-118.619-23.029-161.773-61z" fill="#3691bb"/><path d="M391.727 460H150c-5.523 0-10-4.477-10-10s4.477-10 10-10h267.773a246.095 246.095 0 01-26.046 20z" fill="#0680ae"/><path d="M177.235 23.418c-5.357-5.357-5.357-14.043 0-19.4s14.043-5.357 19.4 0c3.569 3.569 4.759 8.615 3.573 13.171L255.9 64.313l55.607-48.508a13.697 13.697 0 013.858-11.786c5.357-5.357 14.043-5.357 19.4 0s5.357 14.043 0 19.4c-3.569 3.569-8.615 4.76-13.171 3.573l-52.79 62.388h-25.609l-54.174-62.102a13.704 13.704 0 01-11.786-3.86zM347 395H165l-10.804 54.019c-.619 3.094 1.748 5.981 4.903 5.981h14.516a5 5 0 004.642-3.143L189 425h134l10.743 26.857a5 5 0 004.642 3.143h14.516c3.155 0 5.522-2.887 4.903-5.981zM47.333 405H15c-8.284 0-15-6.716-15-15V80c0-8.284 6.716-15 15-15h32.333c8.284 0 15 6.716 15 15v310c0 8.284-6.715 15-15 15z" fill="#172a7d"/><path d="M501 256c0 56.056-18.826 107.715-50.5 149H35c-8.284 0-15-6.716-15-15V80c0-8.284 6.716-15 15-15h374.454a246.548 246.548 0 0131.226 30.003c1.223 1.402-2.996 3.692-1.805 5.122 5.325 6.39 12.463 15.584 17.125 22.5.915 1.357 5.111-.68 6 .697 24.678 38.236 39 83.785 39 132.678z" fill="#314dc8"/><path d="M266 395h-20a5 5 0 010-10h20a5 5 0 010 10z" fill="#6c7fd7"/><path d="M462 123.322V365c0 5.523-4.477 10-10 10H60c-5.523 0-10-4.477-10-10V105c0-5.523 4.477-10 10-10h380.677A245.873 245.873 0 01462 123.322z" fill="#fdcb6b"/><path d="M436 360H76a5 5 0 01-5-5V115a5 5 0 015-5h360a5 5 0 015 5v240a5 5 0 01-5 5z" fill="#ffe899"/><path d="M160 110h90v250h-90zm276 0h-85v250h85a5 5 0 005-5V115a5 5 0 00-5-5z" fill="#f9eecf"/><path d="M211.548 295a5 5 0 01-5 5h-80a5 5 0 010-10h80a5 5 0 015 5zm-14.452 15H136a5 5 0 000 10h61.096a5 5 0 000-10zm188.356-20h-80a5 5 0 000 10h80a5 5 0 000-10zM376 310h-61.096a5 5 0 000 10H376a5 5 0 000-10zM256 180c-5.523 0-10 4.477-10 10s4.477 10 10 10 10-4.477 10-10-4.477-10-10-10zm0 40c-5.523 0-10 4.477-10 10s4.477 10 10 10 10-4.477 10-10-4.477-10-10-10z" fill="#f4aa39"/><path d="M166.548 144.42c17.157 0 33.161 3.675 46.669 10.025a5.659 5.659 0 012.645 2.599c3.618 7.237 5.85 15.818 6.181 25.744.035 1.055.053 2.115.053 3.179 0 37.886-22.519 70.334-54.474 83.816a2.772 2.772 0 01-2.149 0C133.519 256.301 111 223.853 111 185.967c0-1.064.018-2.124.053-3.179.331-9.925 2.563-18.506 6.181-25.744a5.654 5.654 0 012.645-2.599c13.508-6.35 29.512-10.025 46.669-10.025z" fill="#fc5426"/><path d="M168.823 269.266a90.31 90.31 0 01-1.2.517 2.772 2.772 0 01-2.149 0C133.519 256.301 111 223.853 111 185.967c0-1.064.018-2.124.053-3.179.331-9.925 2.563-18.506 6.181-25.744a5.654 5.654 0 012.645-2.599c10.431-4.904 22.351-8.211 35.141-9.464a358.343 358.343 0 00-.21 8.054 471.746 471.746 0 00-.053 7.052c0 40.261 5.168 77.754 14.066 109.179z" fill="#c64b1a"/><path d="M345.452 144.42c17.157 0 33.161 3.675 46.669 10.025a5.659 5.659 0 012.645 2.599c3.618 7.237 5.85 15.818 6.181 25.744.035 1.055.053 2.115.053 3.179 0 37.886-22.519 70.334-54.474 83.816a2.772 2.772 0 01-2.149 0c-31.954-13.482-54.474-45.93-54.474-83.816 0-1.064.018-2.124.053-3.179.331-9.925 2.563-18.506 6.181-25.744a5.654 5.654 0 012.645-2.599c13.509-6.35 29.513-10.025 46.67-10.025z" fill="#22b27f"/><path d="M347.727 269.266a90.31 90.31 0 01-1.2.517 2.772 2.772 0 01-2.149 0c-31.954-13.482-54.474-45.93-54.474-83.816 0-1.064.018-2.124.053-3.179.331-9.925 2.563-18.506 6.181-25.744a5.654 5.654 0 012.645-2.599c10.431-4.904 22.351-8.211 35.141-9.464a358.343 358.343 0 00-.21 8.054 471.746 471.746 0 00-.053 7.052c0 40.261 5.168 77.754 14.066 109.179z" fill="#08856c"/><path d="M168.74 167.794l8.605 17.435a2.445 2.445 0 001.84 1.337l19.241 2.796c2.005.291 2.805 2.755 1.355 4.169l-13.923 13.571a2.443 2.443 0 00-.703 2.163l3.287 19.163c.342 1.997-1.753 3.519-3.546 2.576l-17.209-9.047a2.447 2.447 0 00-2.275 0l-17.209 9.047c-1.793.943-3.889-.58-3.546-2.576l3.287-19.163a2.443 2.443 0 00-.703-2.163l-13.923-13.571c-1.451-1.414-.65-3.877 1.355-4.169l19.241-2.796a2.445 2.445 0 001.84-1.337l8.605-17.435c.894-1.817 3.484-1.817 4.381 0zm178.904 0l8.605 17.435a2.445 2.445 0 001.84 1.337l19.241 2.796c2.005.291 2.805 2.755 1.355 4.169l-13.923 13.571a2.443 2.443 0 00-.703 2.163l3.287 19.163c.342 1.997-1.753 3.519-3.546 2.576l-17.209-9.047a2.447 2.447 0 00-2.275 0l-17.209 9.047c-1.793.943-3.889-.58-3.546-2.576l3.287-19.163a2.443 2.443 0 00-.703-2.163L312.22 193.53c-1.451-1.414-.65-3.877 1.354-4.169l19.241-2.796a2.445 2.445 0 001.84-1.337l8.605-17.435c.897-1.816 3.487-1.816 4.384.001z" fill="#fdf061"/></svg>