<svg height="512" viewBox="0 0 501 501" width="512" xmlns="http://www.w3.org/2000/svg"><path d="M470.509 327.49H76.839c-39.167 0-71.222-31.577-71.338-70.744L5.5 256c0-56.728 19.28-108.953 51.645-150.48.968-1.242 7.197.536 8.188-.687 1.354-1.669-2.521-6.331-1.125-7.964C109.144 44.314 175.931 11 250.498 11c135.256-.001 245.237 110.18 245.002 245.435-.034 19.492-2.344 38.45-6.679 56.623-2.02 8.468-9.607 14.432-18.312 14.432z" fill="#05a2f9"/><path d="M52.017 112.341c11.354-15.659 34.612-15.659 45.966 0C127.246 152.701 144.5 202.336 144.5 256c0 2.771-.046 5.531-.137 8.279-2.947 88.752-135.778 88.752-138.725 0A247.429 247.429 0 015.5 256c0-53.664 17.254-103.299 46.517-143.659z" fill="#3691bb"/><path d="M254.002 254.002a32.284 32.284 0 0115.389-3.904h17.198a32.286 32.286 0 0129.472 19.103l21.011 46.97a41.212 41.212 0 013.592 16.828c0 6.398 1.49 12.708 4.351 18.43l2.199 4.398a228.16 228.16 0 01-65.583 68.81H224.15V257.906h14.463c2.797 0 5.506-.305 8.189-1.015 2.473-.654 4.934-1.66 7.2-2.889zm-200.198.162c-4.841-2.559-10.168-4.065-15.644-4.065H20.914a32.246 32.246 0 00-15.406 3.913v.001c-.354 44.619 11.22 86.506 31.725 122.665.206.363.423.732.652 1.106 12.864 21.086 45.47 11.572 45.47-13.128v-106.75H68.891c-2.775 0-5.525-.316-8.189-1.015-2.386-.626-4.702-1.566-6.898-2.727z" fill="#eac0b5"/><path d="M281.631 424.638H224.15V257.906h14.463c2.785 0 5.516-.311 8.189-1.015 2.485-.654 4.924-1.655 7.2-2.889a32.302 32.302 0 0110.484-3.529v85.181c0 16.262 11.439 29.853 26.709 33.165 4.232.918 7.227 4.7 7.227 9.031v34.14a228.132 228.132 0 01-16.791 12.648zM6.402 277.173l3.566-7.972a32.286 32.286 0 0128.808-19.096 36.652 36.652 0 00-.664-.007H20.914a32.246 32.246 0 00-15.406 3.913 248.349 248.349 0 00.894 23.162z" fill="#e1a595"/><path d="M280.738 386.583v112.569c-9.908 1.219-20 1.848-30.238 1.848-91.435 0-171.171-50.088-213.267-124.322 13.62-4.412 23.469-17.201 23.469-32.291V256.89l93.05-25.318 93.05 25.318v87.497c0 16.262 11.439 29.853 26.709 33.165 4.232.918 7.227 4.7 7.227 9.031z" fill="#fd7a7a"/><path d="M280.738 386.583v112.569c-9.908 1.219-20 1.848-30.238 1.848a246.518 246.518 0 01-43.178-3.793V337.178a18.527 18.527 0 0112.195-17.411l27.285-9.922v34.542c0 16.262 11.439 29.853 26.709 33.165 4.232.918 7.227 4.7 7.227 9.031zM87.987 319.767l-27.285-9.922v34.542c0 15.09-9.849 27.878-23.469 32.291 16.012 28.237 37.471 52.98 62.948 72.802V337.178a18.526 18.526 0 00-12.194-17.411zm13.892-74.08v25.716c0 28.136 22.809 50.946 50.946 50.946s50.946-22.81 50.946-50.946v-26.221l-50.02-13.61z" fill="#fd4343"/><path d="M269.538 120.418v18.526c0 10.231-8.294 18.526-18.526 18.526h-4.631c0 36.298-23.198 67.178-55.578 78.622v34.591c0 20.463-16.589 37.052-37.052 37.052s-37.052-16.589-37.052-37.052v-34.591c-32.379-11.444-55.578-42.324-55.578-78.622H56.49c-10.232 0-18.526-8.294-18.526-18.526v-18.526c0-10.231 8.294-18.526 18.526-18.526h4.631V83.366c0-35.811 29.03-64.84 64.84-64.84h55.578c35.81 0 64.84 29.03 64.84 64.84v18.526h4.631c10.234 0 18.528 8.294 18.528 18.526z" fill="#eac0b5"/><path d="M54.262 157.336c-9.181-1.101-16.297-8.916-16.297-18.393v-18.526c0-9.477 7.116-17.292 16.297-18.393a18.443 18.443 0 00-2.403 9.13v37.052c.001 3.32.874 6.436 2.403 9.13zm86.316 113.347v-29.938a83.05 83.05 0 01-23.878-4.654v34.591c0 20.463 16.589 37.052 37.052 37.052 4.177 0 8.193-.692 11.939-1.966-14.606-4.968-25.113-18.799-25.113-35.085z" fill="#e1a595"/><path d="M164.867 240.835c-45.019 0-81.514-36.495-81.514-81.514V83.366c0-35.81 29.03-64.84 64.84-64.84h33.347c35.81 0 64.84 29.03 64.84 64.84v75.956c.001 45.019-36.494 81.513-81.513 81.513z" fill="#efcfc8"/><path d="M158.528 221.427h-9.552c-10.791 0-19.539-8.748-19.539-19.539a6.947 6.947 0 016.947-6.947h34.736a6.947 6.947 0 016.947 6.947c0 10.791-8.748 19.539-19.539 19.539z" fill="#dd9683"/><path d="M148.323 194.941h22.797a6.947 6.947 0 016.947 6.947c0 10.39-8.11 18.886-18.346 19.503-10.235-.616-18.346-9.112-18.346-19.503a6.947 6.947 0 016.948-6.947zm20.249-28.672a6.947 6.947 0 01-6.947 6.947h-1.177a6.95 6.95 0 01-13.394 0h-1.176a6.947 6.947 0 110-13.894h.926v-22.694a6.947 6.947 0 1113.894 0v22.694h.926a6.947 6.947 0 016.948 6.947z" fill="#e1a595"/><path d="M116.758 136.628c0 7.674-6.221 13.894-13.894 13.894s-13.894-6.221-13.894-13.894c0-7.674 6.221-13.895 13.894-13.895s13.894 6.221 13.894 13.895zm86.029-13.895c-7.674 0-13.894 6.221-13.894 13.895s6.221 13.894 13.894 13.894 13.894-6.221 13.894-13.894c.001-7.674-6.22-13.895-13.894-13.895z" fill="#172a7d"/><path d="M136.123 108.839a6.947 6.947 0 01-6.947 6.947H94.44a6.947 6.947 0 110-13.894h34.736a6.947 6.947 0 016.947 6.947zm76.94-6.947h-34.736a6.947 6.947 0 100 13.894h34.736a6.947 6.947 0 100-13.894z" fill="#f4aa39"/><path d="M246.381 74.103H83.354v5.558c0 12.278-9.953 22.231-22.231 22.231V64.84c0-35.81 29.03-64.84 64.84-64.84h55.578c35.81 0 64.84 29.03 64.84 64.84z" fill="#f19b0b"/><path d="M246.381 64.84v37.052c-12.278 0-22.231-9.953-22.231-22.231v-3.558a2 2 0 00-2-2c-4.982 0-9.932.928-14.521 2.867-10.316 4.359-30.574 7.322-53.877 7.322-22.988 0-43.012-2.884-53.452-7.146a40.745 40.745 0 00-15.408-3.043h-1.537V64.84c0-35.81 29.03-64.84 64.84-64.84h33.347c35.809 0 64.839 29.03 64.839 64.84z" fill="#fdbf43"/><path d="M401.064 407.455V306.982h14.511c5.476 0 10.803-1.506 15.644-4.065a32.28 32.28 0 0115.087-3.742h17.198a32.29 32.29 0 0125.613 12.628c-9.506 40.808-29.21 77.699-56.28 107.841-11.16 12.426-31.773 4.511-31.773-12.189zm-170.95-104.538a32.28 32.28 0 00-15.087-3.742h-17.198a32.286 32.286 0 00-29.472 19.103s-26.078 76.476-28.954 82.228a20.836 20.836 0 00-2.199 9.316l16.989 71.524a243.222 243.222 0 0050.307 15.343l55.768-22.974-14.51-166.732c-5.476-.001-10.803-1.507-15.644-4.066z" fill="#b76c54"/><path d="M401.064 406.382v-99.4h14.463c5.413 0 10.721-1.393 15.489-3.957a32.288 32.288 0 0110.384-3.475v85.181a33.773 33.773 0 005.234 18.114 246.42 246.42 0 01-13.108 16.028c-11.346 12.74-32.462 4.57-32.462-12.491zm-210.926-88.104a32.289 32.289 0 0127.173-19.021 32.195 32.195 0 00-2.285-.082h-17.198a32.286 32.286 0 00-29.472 19.103s-26.078 76.476-28.954 82.228a20.836 20.836 0 00-2.199 9.316l16.989 71.524a243.408 243.408 0 0019.131 7.251l-10.453-57.431c-.689-3.786 2.89-6.95 6.563-5.802l15.163 4.738c2.088.653 3.558-2.041 1.879-3.444l-23.956-20.011c-1.785-1.491-2.389-4.022-1.353-6.104l.018-.037c2.877-5.752 28.954-82.228 28.954-82.228z" fill="#a95947"/><path d="M434.258 418.048C389.365 468.916 323.679 501 250.5 501a246.234 246.234 0 01-46.82-4.469V435.66c0-4.331 2.995-8.113 7.227-9.031 15.27-3.312 26.709-16.902 26.709-33.165v-87.497l93.05-25.318 93.05 25.318v87.497c0 9.674 4.048 18.402 10.542 24.584z" fill="#e3f0fb"/><path d="M434.258 418.048a246.3 246.3 0 01-50.021 43.265v-75.058c0-7.79 4.874-14.748 12.195-17.411l27.285-9.921v34.542c-.001 9.673 4.047 18.401 10.541 24.583zm-169.357-49.204l-27.285-9.921v34.542c0 16.262-11.438 29.853-26.709 33.165-4.232.918-7.227 4.7-7.227 9.031v60.872a246.234 246.234 0 0046.82 4.469c8.986 0 17.86-.484 26.596-1.427V386.254c0-7.79-4.874-14.748-12.195-17.41zm13.893-74.08v25.716c0 28.137 22.809 50.946 50.946 50.946s50.946-22.809 50.946-50.946v-26.22l-50.02-13.61z" fill="#22b27f"/><path d="M446.452 169.495v18.526c0 10.232-8.294 18.526-18.526 18.526h-4.631c0 36.298-23.198 67.178-55.578 78.622v34.591c0 20.463-16.589 37.052-37.052 37.052s-37.052-16.589-37.052-37.052v-34.591c-32.379-11.444-55.578-42.324-55.578-78.622h-4.631c-10.232 0-18.526-8.294-18.526-18.526v-18.526c0-10.232 8.294-18.526 18.526-18.526h4.631v-18.526c0-35.81 29.03-64.84 64.84-64.84h55.578c35.81 0 64.84 29.03 64.84 64.84v18.526h4.631c10.234 0 18.528 8.294 18.528 18.526z" fill="#b76c54"/><path d="M231.177 206.413c-9.181-1.101-16.297-8.916-16.297-18.393v-18.526c0-9.477 7.116-17.292 16.297-18.393a18.443 18.443 0 00-2.403 9.13v37.052c0 3.32.874 6.435 2.403 9.13zm86.315 113.346v-29.938a83.083 83.083 0 01-23.878-4.653v34.591c0 20.463 16.589 37.052 37.052 37.052 4.177 0 8.193-.692 11.939-1.966-14.605-4.968-25.113-18.8-25.113-35.086z" fill="#a95947"/><path d="M341.782 289.912c-45.019 0-81.514-36.495-81.514-81.514v-75.956c0-35.81 29.03-64.84 64.84-64.84h33.347c35.81 0 64.84 29.03 64.84 64.84v75.956c0 45.019-36.495 81.514-81.513 81.514z" fill="#c68978"/><path d="M335.442 270.504h-9.552c-10.791 0-19.539-8.748-19.539-19.539a6.947 6.947 0 016.947-6.947h34.736a6.947 6.947 0 016.947 6.947c0 10.791-8.748 19.539-19.539 19.539z" fill="#e1a595"/><path d="M325.237 244.018h22.797a6.947 6.947 0 016.947 6.947c0 10.39-8.11 18.886-18.346 19.503-10.235-.617-18.346-9.113-18.346-19.503a6.948 6.948 0 016.948-6.947z" fill="#eac0b5"/><path d="M352.613 215.346a6.947 6.947 0 01-6.947 6.947h-8.303a6.95 6.95 0 01-13.394 0h-8.303a6.947 6.947 0 110-13.894h8.053v-22.694a6.947 6.947 0 1113.894 0v22.694h8.053a6.947 6.947 0 016.947 6.947z" fill="#a95947"/><path d="M293.672 185.705c0 7.674-6.221 13.894-13.894 13.894s-13.894-6.221-13.894-13.894 6.221-13.894 13.894-13.894 13.894 6.22 13.894 13.894zm86.03-13.895c-7.674 0-13.894 6.221-13.894 13.894s6.221 13.894 13.894 13.894c7.674 0 13.894-6.221 13.894-13.894s-6.221-13.894-13.894-13.894z" fill="#533022"/><path d="M313.038 157.916a6.947 6.947 0 01-6.947 6.947h-34.736a6.947 6.947 0 110-13.894h34.736a6.947 6.947 0 016.947 6.947zm76.94-6.947h-34.736a6.947 6.947 0 100 13.894h34.736a6.947 6.947 0 100-13.894z" fill="#7d402d"/><path d="M109.811 122.733a6.947 6.947 0 110 13.894 6.947 6.947 0 110-13.894zm92.976 6.948a6.947 6.947 0 1013.894 0 6.947 6.947 0 10-13.894 0zm90.885 49.076a6.947 6.947 0 11-13.894 0 6.947 6.947 0 1113.894 0zm92.977-6.947a6.947 6.947 0 100 13.894 6.947 6.947 0 100-13.894z" fill="#fff5f5"/><path d="M428.853 32.129c6.901 1.522 10.903 8.8 8.962 15.595l-16.689 58.412H240.207l-16.689-58.412c-1.941-6.795 2.061-14.073 8.962-15.595.769-.17 1.562-.264 2.372-.264 4.685 0 8.821 1.916 11.288 3.999a3.738 3.738 0 004.8 0c2.467-2.083 6.603-3.999 11.288-3.999s8.821 1.916 11.288 3.999a3.738 3.738 0 004.8 0c2.467-2.083 6.603-3.999 11.288-3.999s8.821 1.916 11.288 3.999a3.738 3.738 0 004.8 0c2.467-2.083 6.603-3.999 11.288-3.999s8.821 1.916 11.288 3.999a3.738 3.738 0 004.8 0c2.467-2.083 6.603-3.999 11.288-3.999s8.821 1.916 11.288 3.999a3.738 3.738 0 004.8 0c2.467-2.083 6.603-3.999 11.288-3.999s8.821 1.916 11.288 3.999a3.738 3.738 0 004.8 0c2.467-2.083 6.603-3.999 11.288-3.999s8.821 1.916 11.288 3.999a3.738 3.738 0 004.8 0c2.467-2.083 6.603-3.999 11.288-3.999.807-.001 1.599.094 2.369.264z" fill="#67382a"/><path d="M240.207 106.136l-16.689-58.412c-1.941-6.795 2.061-14.073 8.962-15.595.769-.17 1.562-.265 2.372-.265 4.685 0 8.821 1.916 11.288 3.999a3.717 3.717 0 002.394.873 12.734 12.734 0 00-1.862 10.869l16.689 58.412z" fill="#533022"/><path d="M430.666 90.048v41.102a5 5 0 01-5 5h-190a5 5 0 01-5-5V90.048a5 5 0 015-5h190a5 5 0 015 5z" fill="#94cfbe"/><path d="M430.666 90.048v41.102a5 5 0 01-5 5H259.5a5 5 0 01-5-5V90.048a5 5 0 015-5h166.166a5 5 0 015 5z" fill="#e3f0fb"/><path d="M430.666 120.599h-200v-20h200z" fill="#57b79d"/><path d="M430.666 120.599H254.5v-20h176.166z" fill="#97d4b8"/></svg>