<svg height="512" viewBox="0 0 501 501" width="512" xmlns="http://www.w3.org/2000/svg"><path d="M5.944 270.878A249.459 249.459 0 015.5 256c0-135.31 109.69-245 245-245s245 109.69 245 245c0 4.996-.15 9.957-.444 14.878z" fill="#63bcfa"/><path d="M33.431 369.712C16.173 336.835 6.165 299.557 5.532 260h489.936c-.957 59.808-23.345 114.409-59.821 156.459H110.849c-32.483 0-62.32-17.986-77.418-46.747z" fill="#05a2f9"/><path d="M374.003 44.36H126.997a244.086 244.086 0 0125.571-13.003h195.866a244.347 244.347 0 0125.569 13.003z" fill="#6caac9"/><path d="M224.156 150.873c-1.918 3.367-6.771 3.367-8.689 0L154.793 44.361V31.357h130.035v13.004z" fill="#fc5426"/><path d="M247.643 70.898c0 14.303-11.595 25.898-25.898 25.898s-25.898-11.595-25.898-25.898S207.441 45 221.744 45c14.304 0 25.899 11.595 25.899 25.898z" fill="#ee4424"/><path d="M143.09 35.738v8.622L82.417 150.873c-1.918 3.367-6.771 3.367-8.689 0l-21.844-38.348c23.526-32.512 54.84-59.02 91.206-76.787z" fill="#2740af"/><path d="M104.585 59.172a25.792 25.792 0 012.801 11.727c0 14.303-11.595 25.898-25.898 25.898a25.77 25.77 0 01-13.76-3.955 246.458 246.458 0 0136.857-33.67z" fill="#172a7d"/><path d="M135.364 337.768c-1.788 27.673-24.799 49.564-52.924 49.564-29.291 0-53.036-23.745-53.036-53.036 0-25.185 17.554-46.269 41.094-51.686 1.788-27.673 24.799-49.564 52.924-49.564 29.291 0 53.036 23.745 53.036 53.036 0 25.185-17.554 46.269-41.094 51.686z" fill="#6d4336"/><path d="M207.692 194.793c3.452 8.036 5.304 16.922 5.154 26.257-.556 34.642-29.174 62.818-63.82 62.863-36.035.047-65.127-29.728-63.964-66.013 1.07-33.389 28.214-60.612 61.6-61.773a64.25 64.25 0 0116.66 1.585 18.165 18.165 0 00-.582 6.492c.756 8.435 7.508 15.334 15.927 16.254 1.257.137 2.49.145 3.69.034a2.957 2.957 0 013.119 2.093c2.209 7.454 9.11 12.892 17.281 12.892a18.01 18.01 0 004.935-.684z" fill="#f5c02c"/><path d="M214.81 196.294a6.116 6.116 0 00-.295-.801l-.042-.113c-.62-1.643-2.524-2.32-4.116-1.579a17.953 17.953 0 01-7.598 1.675c-1.589 0-3.129-.206-4.597-.592a119.76 119.76 0 00-33.095 17.598 151.2 151.2 0 00-4.833-5.039 150.25 150.25 0 00-10.921-9.844 105.202 105.202 0 0014.695-28.223 17.966 17.966 0 01-1.34-6.832c0-2.567.537-5.009 1.504-7.22.758-1.732-.277-3.744-2.135-4.097a70.113 70.113 0 00-13.094-1.228c-20.542 0-39.046 8.895-51.863 23.034a6.106 6.106 0 00-.837.94c-11.694 13.373-18.392 31.218-17.154 50.597 2.247 35.177 30.844 63.45 66.042 65.326 40.321 2.149 73.811-30.037 73.811-69.898a69.696 69.696 0 00-4.132-23.704zm-65.868-34.12c1.527 0 3.04.06 4.538.177a93.05 93.05 0 01-13.897 27.932 152.145 152.145 0 00-27.271-14.995c9.979-8.192 22.74-13.114 36.63-13.114zM91.115 220c0-13.269 4.492-25.507 12.035-35.276a137.792 137.792 0 0128.567 14.975 93.125 93.125 0 01-40.422 24.879 58.286 58.286 0 01-.18-4.578zm2.431 16.607a105.302 105.302 0 0047.974-29.563 141.326 141.326 0 0114.137 13.315 119.875 119.875 0 00-32.646 51.32c-14.069-7.088-24.865-19.753-29.465-35.072zm55.396 41.219c-5.014 0-9.881-.642-14.524-1.847a107.7 107.7 0 0129.121-46.326c8.525 10.979 15.437 23.24 20.345 36.393-9.713 7.389-21.824 11.78-34.942 11.78zm44.445-20.873c-5.184-12.531-12.1-24.402-20.456-35.151a107.594 107.594 0 0131.989-16.325A57.734 57.734 0 01206.767 220c.001 14.039-5.028 26.926-13.38 36.953z" fill="#c98001"/><path d="M250.789 240a224.314 224.314 0 01-3.146-37.439v-3.084c0-24.629 8.382-48.525 23.768-67.758l32.063-40.079a21.63 21.63 0 004.74-13.514V10h75.714v68.126c0 4.912 1.672 9.678 4.74 13.514l32.063 40.079a108.463 108.463 0 0123.768 67.758c0 13.601-1.237 27.164-3.691 40.524H250.789z" fill="#e3f0fb"/><path d="M250.789 240a224.314 224.314 0 01-3.146-37.439v-3.084c0-24.629 8.382-48.525 23.768-67.758l32.063-40.079a21.63 21.63 0 004.74-13.514V10h35.572v68.126c0 4.912-1.672 9.678-4.74 13.514l-32.063 40.079a108.463 108.463 0 00-23.768 67.758v3.084c0 12.552 1.054 25.075 3.146 37.439z" fill="#b3d1e1"/><path d="M444.409 405.766C399.6 463.698 329.406 501 250.5 501c-.954 0-1.906-.006-2.857-.017v-91.56c0-13.871 1.286-27.711 3.842-41.345l4.079-21.755a224.313 224.313 0 00-1.138-88.342l-1.804-8.417a224.277 224.277 0 01-4.98-47.002v-3.086c0-10.036 1.392-19.95 4.082-29.476l13.439-7.009a66.212 66.212 0 0151.558-4.107l10.34 3.447a66.21 66.21 0 0045.529-1.338 66.21 66.21 0 0153.998 2.153l13.83 6.854a108.452 108.452 0 014.082 29.476c0 17.836-2.127 35.609-6.337 52.942a224.326 224.326 0 00-1.437 99.572l2.874 13.524a224.303 224.303 0 014.809 40.252z" fill="#059b7e"/><path d="M291.135 346.328a224.352 224.352 0 00-1.137-88.346l-1.804-8.417a224.303 224.303 0 01-4.98-47.004v-3.084c0-15.226 3.204-30.172 9.285-43.909 8.13-.404 16.344.69 24.222 3.316l10.34 3.447a66.21 66.21 0 0045.529-1.338 66.21 66.21 0 0153.998 2.153l13.83 6.854a108.452 108.452 0 014.082 29.476c0 17.836-2.127 35.609-6.337 52.942a224.326 224.326 0 00-1.437 99.572l2.874 13.524a224.393 224.393 0 014.809 40.252c-38.51 49.788-95.769 84.338-161.195 93.069v-89.414c0-13.87 1.286-27.71 3.842-41.342z" fill="#22b27f"/><path d="M290.071 190c-5.523 0-10-4.477-10-10s4.477-10 10-10 10 4.477 10 10-4.477 10-10 10zm50 20c-5.523 0-10 4.477-10 10s4.477 10 10 10 10-4.477 10-10-4.477-10-10-10zm40 200c-5.523 0-10 4.477-10 10s4.477 10 10 10 10-4.477 10-10-4.477-10-10-10zm-50 40c-5.523 0-10 4.477-10 10s4.477 10 10 10 10-4.477 10-10-4.477-10-10-10zm75-280c-8.284 0-15 6.716-15 15s6.716 15 15 15 15-6.716 15-15-6.716-15-15-15zm-100 220c-8.284 0-15 6.716-15 15s6.716 15 15 15 15-6.716 15-15-6.716-15-15-15z" fill="#059b7e"/><path d="M381.071 50h-70c-5.523 0-10-4.477-10-10V10c0-5.523 4.477-10 10-10h70c5.523 0 10 4.477 10 10v30c0 5.523-4.477 10-10 10zm57.092 202.418a224.326 224.326 0 00-1.437 99.572l2.874 13.524A224.451 224.451 0 01444.171 400h-196.33a224.3 224.3 0 013.644-31.921l4.078-21.751a224.333 224.333 0 00-1.137-88.346l-1.804-8.417a224.304 224.304 0 01-4.3-29.565h195.237a224.33 224.33 0 01-5.396 32.418z" fill="#c92e43"/><path d="M381.071 50h-41c-5.523 0-10-4.477-10-10V10c0-5.523 4.477-10 10-10h41c5.523 0 10 4.477 10 10v30c0 5.523-4.477 10-10 10zM439.6 365.514A224.451 224.451 0 01444.171 400H283.742a224.3 224.3 0 013.644-31.921l4.078-21.751a224.333 224.333 0 00-1.137-88.346l-1.804-8.417a224.304 224.304 0 01-4.3-29.565h159.336a224.327 224.327 0 01-5.395 32.418 224.326 224.326 0 00-1.437 99.572z" fill="#fd4343"/><path d="M377.531 400h-61.464l40-180h61.464z" fill="#fbc56d"/><path d="M417.531 220l-40 180h-34.495l40-180z" fill="#f5dc90"/><path d="M299.405 334.296c0 29.291-23.745 53.036-53.036 53.036-16.509 0-31.255-7.543-40.982-19.37-9.727 11.827-24.474 19.37-40.982 19.37-29.291 0-53.036-23.745-53.036-53.036 0-25.185 17.554-46.269 41.094-51.686 1.788-27.673 24.799-49.564 52.924-49.564s51.136 21.892 52.924 49.564c23.54 5.417 41.094 26.501 41.094 51.686z" fill="#925b44"/><path d="M164.405 485.445v-.002.002l-.748-.283c-40.669-15.42-65.521-56.678-60.661-99.9l5.485-48.781c.379-3.371 4.028-5.307 7.031-3.731l48.786 25.597 48.998-25.597c3.004-1.576 6.652.36 7.031 3.73l13.763 122.396c2.532 22.513-18.004 40.786-40.054 35.585a242.978 242.978 0 01-29.631-9.016z" fill="#fd7d43"/><path d="M296.764 365.884l-47.686 135.111c-19.95-.113-39.334-2.611-57.884-7.223l32.788-124.793 67.566-9.475c3.581-.501 6.42 2.971 5.216 6.38z" fill="#f1ca50"/><path d="M115.513 332.75l48.892 25.653v127.042c-24.942-9.363-47.952-22.677-68.268-39.18l12.345-109.783c.379-3.371 4.028-5.307 7.031-3.732z" fill="#fdf385"/><path d="M33.324 369.508l-1.207-3.42c-1.22-3.457 1.711-6.957 5.329-6.362l67.181 11.045 26.514 99.239c-41.577-23.239-75.684-58.241-97.817-100.502zM174.5 285c0 8.284-8.954 15-20 15s-20-6.716-20-15 8.954-15 20-15 20 6.716 20 15z" fill="#fc5426"/><path d="M274.5 285c0 8.284-8.954 15-20 15s-20-6.716-20-15 8.954-15 20-15 20 6.716 20 15z" fill="#4f66cf"/><path d="M194.5 325c0 8.284-8.954 15-20 15s-20-6.716-20-15 8.954-15 20-15 20 6.716 20 15z" fill="#8694dd"/></svg>