<svg height="512" viewBox="0 0 501 501" width="512" xmlns="http://www.w3.org/2000/svg"><path d="M495.5 256c0 75.577-34.221 143.162-88.013 188.104-.899.751-3.911-1.175-4.82-.437-6.316 5.126-13.353 10.513-20.167 15-1.195.787.17 3.665-1.039 4.432C343.581 487.102 298.663 501 250.5 501s-93.08-13.897-130.96-37.901c-1.795-1.138-.61-5.75-2.374-6.932-5.554-3.725-10.78-7.512-16-11.667-1.521-1.211-6.158.853-7.65-.393C39.723 399.165 5.5 331.579 5.5 256c0-20.871 2.61-41.132 7.52-60.475.453-1.784 5.113-.757 5.605-2.525 2.011-7.231 5.608-15.554 8.25-22.5.581-1.527-4.273-4.624-3.663-6.136C59.498 74.45 147.589 11 250.5 11c135.31 0 245 109.69 245 245z" fill="#172a7d"/><path d="M495.5 256c0 40.609-9.88 78.911-27.368 112.632C434.411 386.12 396.109 396 355.5 396c-135.31 0-245-109.69-245-245 0-40.609 9.88-78.911 27.368-112.632C171.589 20.88 209.891 11 250.5 11c135.31 0 245 109.69 245 245z" fill="#314dc8"/><path d="M194.5 245v80a5 5 0 01-5 5H38.833c-3.775 0-6.188-4.022-4.412-7.353l18.824-35.294a5.002 5.002 0 000-4.706l-18.824-35.294c-1.776-3.331.637-7.353 4.412-7.353H189.5a5 5 0 015 5zm253.255 42.353a5.002 5.002 0 010-4.706l18.824-35.294c1.776-3.331-.637-7.353-4.412-7.353H311.5a5 5 0 00-5 5v80a5 5 0 005 5h150.667c3.775 0 6.188-4.022 4.412-7.353z" fill="#f1ca50"/><path d="M384.048 307.442l23.439 136.662a245.864 245.864 0 01-26.026 18.994l-122.798-64.559a17.54 17.54 0 00-16.326 0l-122.798 64.559a245.864 245.864 0 01-26.026-18.994l23.439-136.662a17.543 17.543 0 00-5.045-15.527L13.02 195.524a243.127 243.127 0 0110.192-31.16L159.8 144.517a17.541 17.541 0 0013.208-9.596l60.885-123.366a248.874 248.874 0 0133.214-.001l60.885 123.366a17.543 17.543 0 0013.208 9.596l136.587 19.847a242.971 242.971 0 0110.192 31.16l-98.887 96.391a17.545 17.545 0 00-5.044 15.528z" fill="#f19b0b"/><path d="M489.024 194.506l-99.932 97.409a17.544 17.544 0 00-5.045 15.527l6.986 40.73c-114.36-7.996-206.87-95.246-222.967-207.184a17.54 17.54 0 004.942-6.068L234.769 9.779c6.435-13.038 25.027-13.038 31.461 0l61.761 125.142a17.543 17.543 0 0013.208 9.596l138.102 20.067c14.39 2.091 20.135 19.773 9.723 29.922z" fill="#f4aa39"/><path d="M389.809 220.691C389.809 297.629 327.438 360 250.5 360s-139.309-62.371-139.309-139.309S173.562 81.382 250.5 81.382s139.309 62.37 139.309 139.309z" fill="#f1ca50"/><path d="M389.809 220.691c0 26.333-7.307 50.958-20.002 71.961-21.003 12.696-45.629 20.002-71.962 20.002-76.938 0-139.309-62.371-139.309-139.31 0-26.333 7.307-50.958 20.002-71.961 21.003-12.696 45.629-20.002 71.962-20.002 76.938.001 139.309 62.371 139.309 139.31z" fill="#fdf385"/><path d="M361.947 220.691c0 61.551-49.897 111.447-111.447 111.447s-111.447-49.897-111.447-111.447S188.949 109.243 250.5 109.243s111.447 49.897 111.447 111.448z" fill="#d63d24"/><path d="M361.947 220.691c0 37.807-18.825 71.216-47.613 91.366a140.615 140.615 0 01-16.907 1.016c-76.938 0-139.309-62.371-139.309-139.309 0-5.723.345-11.364 1.016-16.907 20.15-28.788 53.56-47.613 91.366-47.613 61.551-.001 111.447 49.896 111.447 111.447z" fill="#fc5426"/><path d="M338.758 288.688c-22.372 22.986-53.648 37.264-88.258 37.264-34.914 0-66.433-14.529-88.844-37.871l11.339-36.7a28.732 28.732 0 0121.025-19.66l8.939-2.067 33.181-7.66v-2.271l.002-.198c-19.608-4.184-34.315-21.606-34.315-42.463h-2.412a9.649 9.649 0 01-9.649-9.649v-9.649a9.649 9.649 0 019.649-9.649h2.412v-9.649c0-18.651 15.12-33.771 33.771-33.771h28.947c18.651 0 33.771 15.12 33.771 33.771v9.649h2.412a9.649 9.649 0 019.649 9.649v9.649a9.649 9.649 0 01-9.649 9.649h-2.412c0 20.857-14.706 38.279-34.315 42.463l.002.198v2.263l33.294 7.668.01.029 8.816 2.039a28.732 28.732 0 0121.025 19.66z" fill="#eabe8d"/><path d="M258.271 104.697h6.273c18.651 0 33.771 15.12 33.771 33.771v38.595c0 20.897-14.762 38.345-34.426 42.487a12.058 12.058 0 01-4.962 0c-19.664-4.142-34.426-21.59-34.426-42.487v-38.595c-.001-18.652 15.119-33.771 33.77-33.771z" fill="#f3d6ac"/><path d="M298.314 133.643h-84.91v2.895c0 6.395-5.184 11.579-11.579 11.579v-19.298c0-18.651 15.12-33.771 33.771-33.771h28.947c18.651 0 33.771 15.12 33.771 33.771z" fill="#533022"/><path d="M298.314 128.819v19.298c-6.395 0-11.579-5.184-11.579-11.579v-2.895H224.5v-4.824c0-18.651 15.12-33.771 33.771-33.771h6.273c18.651 0 33.77 15.119 33.77 33.771z" fill="#67382a"/><path d="M300.419 278.872a23.67 23.67 0 016.933 16.737v16.463c-17.008 8.867-36.344 13.88-56.852 13.88-20.854 0-40.497-5.184-57.711-14.332v-16.011c0-6.278 2.494-12.298 6.933-16.737s6.933-10.458 6.933-16.736v-33.335l19.151-4.421v16.38c0 13.624 11.285 24.661 24.999 24.253 13.198-.392 23.53-11.566 23.53-24.769v-15.877l19.151 4.41v33.359a23.667 23.667 0 006.933 16.736z" fill="#bbe0fb"/><path d="M316.587 295.61v11.125a122.704 122.704 0 01-12.315 6.887V295.61a14.35 14.35 0 00-4.227-10.207c-6.215-6.215-9.638-14.478-9.638-23.267v-34.067l6.887 1.586.01.029 5.418 1.253v31.2a20.465 20.465 0 006.03 14.56c5.053 5.051 7.835 11.768 7.835 18.913zm-119.17-64.673v31.2a20.465 20.465 0 01-6.03 14.56c-5.053 5.052-7.835 11.769-7.835 18.914v10.572a122.914 122.914 0 0012.315 7.019V295.61c0-3.854 1.502-7.48 4.229-10.207 6.215-6.215 9.636-14.478 9.636-23.267v-34.045l-6.774 1.564zm73.839 9.307c0 11.625-9.215 21.355-20.544 21.692a21.055 21.055 0 01-15.388-5.98c-4.154-4.032-6.44-9.427-6.44-15.195v-17.092l-12.315 2.844v14.248c0 9.128 3.614 17.662 10.176 24.03 6.29 6.106 14.568 9.469 23.31 9.469.34 0 .681-.004 1.022-.015 17.916-.529 32.494-15.781 32.494-34v-13.751l-12.315-2.836z" fill="#1f3595"/><path d="M405.171 371.887l-42.876 4.824a1000.033 1000.033 0 01-223.59 0l-42.876-4.824a6 6 0 01-5.329-5.962v-79.924a6 6 0 016.671-5.962l41.534 4.673a1000.033 1000.033 0 00223.59 0l41.534-4.673a6 6 0 016.671 5.962v79.924a6 6 0 01-5.329 5.962z" fill="#ffe899"/><path d="M410.5 286v79.925a6 6 0 01-5.329 5.962l-42.876 4.824a1000.06 1000.06 0 01-93.391 6.099c-61.16-15.261-107.966-51.934-122.299-97.243a999.996 999.996 0 00215.69-.856l41.534-4.672A5.999 5.999 0 01410.5 286z" fill="#f9eecf"/><path d="M363.133 321.185c-37.369 4.204-75.001 6.306-112.633 6.306s-75.264-2.102-112.633-6.306a7.501 7.501 0 011.677-14.906 993.999 993.999 0 00221.913 0c4.114-.469 7.829 2.499 8.292 6.614a7.502 7.502 0 01-6.616 8.292zm-44.673 18.982a995.057 995.057 0 01-135.921 0c-4.344-.298-8.04 3.123-8.04 7.477 0 3.934 3.04 7.215 6.965 7.484 22.972 1.575 46.003 2.362 69.035 2.362s46.064-.787 69.035-2.362c3.925-.269 6.965-3.55 6.965-7.484.001-4.355-3.694-7.775-8.039-7.477z" fill="#fdbf43"/></svg>