<svg id="Capa_1" enable-background="new 0 0 501 501" height="512" viewBox="0 0 501 501" width="512" xmlns="http://www.w3.org/2000/svg"><g><path d="m495.5 256c0 75.577-34.221 143.162-88.013 188.104-.899.751-3.911-1.175-4.82-.437-6.316 5.126-13.353 10.513-20.167 15-1.195.787.17 3.665-1.039 4.432-37.88 24.003-82.798 37.901-130.961 37.901s-93.08-13.897-130.96-37.901c-1.795-1.138-.61-5.75-2.374-6.932-5.554-3.725-10.78-7.512-16-11.667-1.521-1.211-6.158.853-7.65-.393-53.793-44.942-88.016-112.528-88.016-188.107 0-20.871 2.61-41.132 7.52-60.475.453-1.784 5.113-.757 5.605-2.525 2.011-7.231 5.608-15.554 8.25-22.5.581-1.527-4.273-4.624-3.663-6.136 36.286-89.914 124.377-153.364 227.288-153.364 135.31 0 245 109.69 245 245z" fill="#172a7d"/><path d="m495.5 256c0 40.609-9.88 78.911-27.368 112.632-33.721 17.488-72.023 27.368-112.632 27.368-135.31 0-245-109.69-245-245 0-40.609 9.88-78.911 27.368-112.632 33.721-17.488 72.023-27.368 112.632-27.368 135.31 0 245 109.69 245 245z" fill="#314dc8"/><path d="m194.5 245v80c0 2.761-2.239 5-5 5h-150.667c-3.775 0-6.188-4.022-4.412-7.353l18.824-35.294c.784-1.471.784-3.235 0-4.706l-18.824-35.294c-1.776-3.331.637-7.353 4.412-7.353h150.667c2.761 0 5 2.239 5 5zm253.255 42.353c-.784-1.471-.784-3.235 0-4.706l18.824-35.294c1.776-3.331-.637-7.353-4.412-7.353h-150.667c-2.761 0-5 2.239-5 5v80c0 2.761 2.239 5 5 5h150.667c3.775 0 6.188-4.022 4.412-7.353z" fill="#f1ca50"/><path d="m384.048 307.442 23.439 136.662c-8.234 6.879-16.927 13.228-26.026 18.994l-122.798-64.559c-5.11-2.687-11.216-2.687-16.326 0l-122.798 64.559c-9.099-5.766-17.792-12.115-26.026-18.994l23.439-136.662c.976-5.691-.911-11.497-5.045-15.527l-98.887-96.391c2.713-10.684 6.127-21.088 10.192-31.16l136.588-19.847c5.714-.83 10.653-4.419 13.208-9.596l60.885-123.366c5.488-.368 11.026-.555 16.607-.555s11.119.187 16.607.554l60.885 123.366c2.555 5.177 7.495 8.766 13.208 9.596l136.587 19.847c4.065 10.072 7.48 20.476 10.192 31.16l-98.887 96.391c-4.134 4.031-6.02 9.837-5.044 15.528z" fill="#f19b0b"/><path d="m489.024 194.506-99.932 97.409c-4.134 4.03-6.021 9.837-5.045 15.527l6.986 40.73c-114.36-7.996-206.87-95.246-222.967-207.184 2.054-1.602 3.755-3.664 4.942-6.068l61.761-125.141c6.435-13.038 25.027-13.038 31.461 0l61.761 125.142c2.555 5.177 7.495 8.766 13.208 9.596l138.102 20.067c14.39 2.091 20.135 19.773 9.723 29.922z" fill="#f4aa39"/><path d="m389.809 220.691c0 76.938-62.371 139.309-139.309 139.309s-139.309-62.371-139.309-139.309 62.371-139.309 139.309-139.309 139.309 62.37 139.309 139.309z" fill="#f1ca50"/><path d="m389.809 220.691c0 26.333-7.307 50.958-20.002 71.961-21.003 12.696-45.629 20.002-71.962 20.002-76.938 0-139.309-62.371-139.309-139.31 0-26.333 7.307-50.958 20.002-71.961 21.003-12.696 45.629-20.002 71.962-20.002 76.938.001 139.309 62.371 139.309 139.31z" fill="#fdf385"/><path d="m361.947 220.691c0 61.551-49.897 111.447-111.447 111.447s-111.447-49.897-111.447-111.447 49.896-111.448 111.447-111.448 111.447 49.897 111.447 111.448z" fill="#d63d24"/><path d="m361.947 220.691c0 37.807-18.825 71.216-47.613 91.366-5.542.671-11.184 1.016-16.907 1.016-76.938 0-139.309-62.371-139.309-139.309 0-5.723.345-11.364 1.016-16.907 20.15-28.788 53.56-47.613 91.366-47.613 61.551-.001 111.447 49.896 111.447 111.447z" fill="#fc5426"/><path d="m338.758 288.688c-22.372 22.986-53.648 37.264-88.258 37.264-34.914 0-66.433-14.529-88.844-37.871l11.339-36.7c2.984-9.845 11.003-17.343 21.025-19.66l8.939-2.067 33.181-7.66v-2.271c0-.066.001-.132.002-.198-19.608-4.184-34.315-21.606-34.315-42.463h-2.412c-5.329 0-9.649-4.32-9.649-9.649v-9.649c0-5.329 4.32-9.649 9.649-9.649h2.412v-9.649c0-18.651 15.12-33.771 33.771-33.771h28.947c18.651 0 33.771 15.12 33.771 33.771v9.649h2.412c5.329 0 9.649 4.32 9.649 9.649v9.649c0 5.329-4.32 9.649-9.649 9.649h-2.412c0 20.857-14.706 38.279-34.315 42.463.001.066.002.132.002.198v2.263l33.294 7.668.01.029 8.816 2.039c10.022 2.317 18.041 9.815 21.025 19.66z" fill="#eabe8d"/><path d="m258.271 104.697h6.273c18.651 0 33.771 15.12 33.771 33.771v38.595c0 20.897-14.762 38.345-34.426 42.487-1.635.344-3.328.344-4.962 0-19.664-4.142-34.426-21.59-34.426-42.487v-38.595c-.001-18.652 15.119-33.771 33.77-33.771z" fill="#f3d6ac"/><path d="m298.314 133.643h-84.91v2.895c0 6.395-5.184 11.579-11.579 11.579v-19.298c0-18.651 15.12-33.771 33.771-33.771h28.947c18.651 0 33.771 15.12 33.771 33.771z" fill="#533022"/><path d="m298.314 128.819v19.298c-6.395 0-11.579-5.184-11.579-11.579v-2.895h-62.235v-4.824c0-18.651 15.12-33.771 33.771-33.771h6.273c18.651 0 33.77 15.119 33.77 33.771z" fill="#67382a"/><path d="m300.419 278.872c4.439 4.439 6.933 10.459 6.933 16.737v16.463c-17.008 8.867-36.344 13.88-56.852 13.88-20.854 0-40.497-5.184-57.711-14.332v-16.011c0-6.278 2.494-12.298 6.933-16.737s6.933-10.458 6.933-16.736v-33.335l19.151-4.421v16.38c0 13.624 11.285 24.661 24.999 24.253 13.198-.392 23.53-11.566 23.53-24.769v-15.877l19.151 4.41v33.359c0 6.278 2.494 12.297 6.933 16.736z" fill="#bbe0fb"/><path d="m316.587 295.61v11.125c-3.957 2.522-8.068 4.823-12.315 6.887v-18.012c0-3.854-1.502-7.48-4.227-10.207-6.215-6.215-9.638-14.478-9.638-23.267v-34.067l6.887 1.586.01.029 5.418 1.253v31.2c0 5.499 2.142 10.669 6.03 14.56 5.053 5.051 7.835 11.768 7.835 18.913zm-119.17-64.673v31.2c0 5.499-2.142 10.669-6.03 14.56-5.053 5.052-7.835 11.769-7.835 18.914v10.572c3.954 2.566 8.065 4.912 12.315 7.019v-17.592c0-3.854 1.502-7.48 4.229-10.207 6.215-6.215 9.636-14.478 9.636-23.267v-34.045l-6.774 1.564zm73.839 9.307c0 11.625-9.215 21.355-20.544 21.692-5.75.171-11.239-1.951-15.388-5.98-4.154-4.032-6.44-9.427-6.44-15.195v-17.092l-12.315 2.844v14.248c0 9.128 3.614 17.662 10.176 24.03 6.29 6.106 14.568 9.469 23.31 9.469.34 0 .681-.004 1.022-.015 17.916-.529 32.494-15.781 32.494-34v-13.751l-12.315-2.836z" fill="#1f3595"/><path d="m405.171 371.887-42.876 4.824c-74.296 8.358-149.294 8.358-223.59 0l-42.876-4.824c-3.035-.341-5.329-2.908-5.329-5.962v-79.924c0-3.579 3.114-6.363 6.671-5.962l41.534 4.673c74.296 8.358 149.294 8.358 223.59 0l41.534-4.673c3.557-.4 6.671 2.383 6.671 5.962v79.924c0 3.054-2.294 5.621-5.329 5.962z" fill="#ffe899"/><path d="m410.5 286v79.925c0 3.054-2.294 5.621-5.329 5.962l-42.876 4.824c-31.042 3.492-62.206 5.525-93.391 6.099-61.16-15.261-107.966-51.934-122.299-97.243 71.709 7.491 144.027 7.206 215.69-.856l41.534-4.672c3.557-.401 6.671 2.382 6.671 5.961z" fill="#f9eecf"/><path d="m363.133 321.185c-37.369 4.204-75.001 6.306-112.633 6.306s-75.264-2.102-112.633-6.306c-4.116-.463-7.078-4.176-6.615-8.292s4.176-7.077 8.292-6.614c73.626 8.283 148.287 8.283 221.913 0 4.114-.469 7.829 2.499 8.292 6.614.462 4.116-2.499 7.829-6.616 8.292zm-44.673 18.982c-45.228 3.098-90.693 3.098-135.921 0-4.344-.298-8.04 3.123-8.04 7.477 0 3.934 3.04 7.215 6.965 7.484 22.972 1.575 46.003 2.362 69.035 2.362s46.064-.787 69.035-2.362c3.925-.269 6.965-3.55 6.965-7.484.001-4.355-3.694-7.775-8.039-7.477z" fill="#fdbf43"/></g></svg>