<svg height="512" viewBox="0 0 501 501" width="512" xmlns="http://www.w3.org/2000/svg"><path d="M495.5 256c0 135.31-109.69 245-245 245S5.5 391.31 5.5 256s109.69-245 245-245 245 109.69 245 245z" fill="#ffdf8e"/><path d="M475.977 160H25.023c14.274-33.482 35.788-63.138 62.575-87h325.804c26.787 23.862 48.301 53.518 62.575 87zM250.5 501c75.102 0 142.311-33.792 187.252-87H63.247c44.942 53.208 112.151 87 187.253 87zm244.687-257.5H5.813c-.208 4.14-.313 8.308-.313 12.5 0 25.976 4.043 51.007 11.533 74.5h466.934c7.49-23.493 11.533-48.524 11.533-74.5 0-4.192-.105-8.36-.313-12.5z" fill="#fdcb6b"/><path d="M324.5 187.273a7.5 7.5 0 01-7.5 7.5H212a7.5 7.5 0 010-15h105a7.5 7.5 0 017.5 7.5zm-77.5 22.5h-35a7.5 7.5 0 000 15h35a7.5 7.5 0 000-15zm-110-30h-25a7.5 7.5 0 000 15h25a7.5 7.5 0 000-15zm-10 30h-15a7.5 7.5 0 000 15h15a7.5 7.5 0 000-15zm45-30a7.5 7.5 0 100 15 7.5 7.5 0 000-15zm0 30a7.5 7.5 0 100 15 7.5 7.5 0 000-15z" fill="#fdbf43"/><path d="M227 475h-86.455a244.657 244.657 0 01-25.772-15H227a7.5 7.5 0 010 15zm7.5-430.273a7.5 7.5 0 00-7.5-7.5h-86.905a244.877 244.877 0 00-25.662 15H227a7.5 7.5 0 007.5-7.5zm20 392.773a7.5 7.5 0 00-7.5-7.5H111.667a7.5 7.5 0 000 15H247a7.5 7.5 0 007.5-7.5zM92.832 108.085l-17.044-2.477a2.165 2.165 0 01-1.63-1.184l-5.97-12.096a246.096 246.096 0 00-22.718 29.503l2.019 1.968c.51.498.743 1.214.623 1.917L45.2 142.691c-.303 1.769 1.553 3.117 3.141 2.282l15.245-8.015a2.163 2.163 0 012.015 0l15.245 8.015c1.588.835 3.445-.514 3.141-2.282l-2.911-16.975a2.167 2.167 0 01.623-1.917l12.333-12.022c1.285-1.252.575-3.434-1.2-3.692zM66.535 259.48l7.622 15.444a2.163 2.163 0 001.63 1.184l17.044 2.477c1.776.258 2.485 2.44 1.2 3.693L81.698 294.3a2.167 2.167 0 00-.623 1.916l2.911 16.975c.303 1.769-1.553 3.117-3.141 2.282L65.6 307.458a2.163 2.163 0 00-2.015 0l-15.245 8.015c-1.588.835-3.445-.514-3.141-2.282l2.911-16.975a2.164 2.164 0 00-.623-1.916l-12.333-12.022c-1.285-1.253-.576-3.435 1.2-3.693l17.044-2.477a2.163 2.163 0 001.63-1.184l7.622-15.444c.797-1.609 3.091-1.609 3.885 0z" fill="#f19b0b"/><path d="M317 110H212a7.5 7.5 0 010-15h105a7.5 7.5 0 010 15zm-62.5 22.5a7.5 7.5 0 00-7.5-7.5h-35a7.5 7.5 0 000 15h35a7.5 7.5 0 007.5-7.5zm-110-30A7.5 7.5 0 00137 95h-25a7.5 7.5 0 000 15h25a7.5 7.5 0 007.5-7.5zm-10 30a7.5 7.5 0 00-7.5-7.5h-15a7.5 7.5 0 000 15h15a7.5 7.5 0 007.5-7.5zm45-30a7.5 7.5 0 10-15 0 7.5 7.5 0 0015 0zm0 30a7.5 7.5 0 10-15 0 7.5 7.5 0 0015 0zm-35 140.5a7.5 7.5 0 00-7.5-7.5h-25a7.5 7.5 0 000 15h25a7.5 7.5 0 007.5-7.5zm-10 30a7.5 7.5 0 00-7.5-7.5h-15a7.5 7.5 0 000 15h15a7.5 7.5 0 007.5-7.5z" fill="#f4aa39"/><path d="M35.156 196.551c-1.285-1.253-.576-3.435 1.2-3.693l17.044-2.477a2.163 2.163 0 001.63-1.184l7.622-15.444c.794-1.609 3.089-1.609 3.883 0l7.622 15.444a2.163 2.163 0 001.63 1.184l17.044 2.477c1.776.258 2.485 2.44 1.2 3.693l-12.333 12.022a2.167 2.167 0 00-.623 1.916l2.911 16.975c.303 1.769-1.553 3.117-3.141 2.282L65.6 221.731a2.163 2.163 0 00-2.015 0l-15.245 8.015c-1.588.835-3.445-.514-3.141-2.282l2.911-16.975a2.164 2.164 0 00-.623-1.916zm57.676 166.307l-17.044-2.477a2.163 2.163 0 01-1.63-1.184l-7.622-15.445c-.794-1.609-3.089-1.609-3.883 0l-7.622 15.445a2.163 2.163 0 01-1.63 1.184l-17.044 2.477c-1.776.258-2.485 2.44-1.2 3.693l12.333 12.022c.51.497.743 1.214.623 1.916L46.25 391.35a244.54 244.54 0 004.804 6.971l12.533-6.589a2.163 2.163 0 012.015 0l15.245 8.015c1.588.835 3.445-.514 3.141-2.282l-2.911-16.975a2.164 2.164 0 01.623-1.916l12.333-12.022c1.284-1.254.574-3.436-1.201-3.694z" fill="#fff5f5"/><path d="M243.25 370h-57.5c-8.284 0-15-6.716-15-15V135c0-8.284 6.716-15 15-15h57.5c8.284 0 15 6.716 15 15v220c0 8.284-6.716 15-15 15z" fill="#6c7fd7"/><path d="M219.75 370h-34c-8.284 0-15-6.716-15-15V135c0-8.284 6.716-15 15-15h34c-8.284 0-15 6.716-15 15v220c0 8.284 6.716 15 15 15z" fill="#314dc8"/><path d="M495.5 250c0 .4-.016.797-.047 1.189.031 1.6.047 3.203.047 4.811 0 50.931-15.541 98.232-42.139 137.42C439.613 413.676 408 404.095 408 379.614V250.01 67.25c0-8.284 6.716-15 15-15h57.5c8.284 0 15 6.716 15 15z" fill="#63bcfa"/><path d="M441.5 386.454l-.301.374C430.148 400.509 408 392.565 408 374.979V250.01 67.25c0-8.284 6.716-15 15-15h34c-8.284 0-15 6.716-15 15z" fill="#05a2f9"/><path d="M360.155 305h-57.5c-8.284 0-15-6.716-15-15V15c0-8.284 6.716-15 15-15h57.5c8.284 0 15 6.716 15 15v275c0 8.284-6.715 15-15 15z" fill="#22b27f"/><path d="M336.655 305h-34c-8.284 0-15-6.716-15-15V15c0-8.284 6.716-15 15-15h34c-8.284 0-15 6.716-15 15v275c0 8.284 6.716 15 15 15z" fill="#08856c"/><path d="M250.5 501c-62.53 0-119.588-23.425-162.878-61.979A186.016 186.016 0 0184.5 405c0-102.173 82.827-185 185-185 97.925 0 178.08 76.084 184.574 172.363C410.101 457.881 335.336 501 250.5 501z" fill="#fd7d43"/><path d="M361.295 244.345c-122.74 7.812-223.225 97.499-247.438 215.041a246.083 246.083 0 01-26.235-20.365 186.035 186.035 0 01-3.122-34.022c0-102.173 82.827-185 185-185 33.406.001 64.744 8.856 91.795 24.346z" fill="#f16b38"/><path d="M444.377 405.808c-38.458-16.781-73.806-40.793-104.349-71.335a349.655 349.655 0 01-6.281-6.446 412.108 412.108 0 00-47.631 33.677c29.724 33.005 43.278 77.983 38.451 127.902a243.263 243.263 0 01-20.781 5.584c.167-1.222.321-2.445.464-3.668 5.369-45.931-6.437-87.126-33.302-116.77-36.456 32.929-66.985 72.301-89.776 116.301a243.346 243.346 0 01-19.341-6.591c20.487-40.44 47.16-77.205 79.543-109.589a437.358 437.358 0 0114.736-14.066c-24.171-19.31-55.032-29.459-89.399-29.459-6.986 0-14.119.419-21.368 1.267-17.213 2.012-34.351 6.339-51.032 12.787a183.953 183.953 0 0110.471-24.706c12.608-3.773 25.398-6.445 38.239-7.945 49.741-5.813 94.823 6.487 128.404 34.747a426.96 426.96 0 0148.579-34.834c-23.56-27.98-42.209-59.2-55.507-92.595a187.575 187.575 0 0122.197.722c12.9 29.779 30.2 57.226 51.075 81.516a430.84 430.84 0 0140.276-19.537 431.137 431.137 0 0122.189-8.663c5.14 5.134 9.98 10.57 14.49 16.277a407.837 407.837 0 00-62.86 27.292c28.886 29.521 63.425 53.488 101.846 70.132.139 1.514.26 3.034.363 4.558a245.885 245.885 0 01-9.696 13.442z" fill="#c64b1a"/></svg>