<svg id="Capa_1" enable-background="new 0 0 501 501" height="512" viewBox="0 0 501 501" width="512" xmlns="http://www.w3.org/2000/svg"><g><path d="m495.5 256c0 135.31-109.69 245-245 245s-245-109.69-245-245 109.69-245 245-245 245 109.69 245 245z" fill="#ffdf8e"/><path d="m475.977 160h-450.954c14.274-33.482 35.788-63.138 62.575-87h325.804c26.787 23.862 48.301 53.518 62.575 87zm-225.477 341c75.102 0 142.311-33.792 187.252-87h-374.505c44.942 53.208 112.151 87 187.253 87zm244.687-257.5h-489.374c-.208 4.14-.313 8.308-.313 12.5 0 25.976 4.043 51.007 11.533 74.5h466.934c7.49-23.493 11.533-48.524 11.533-74.5 0-4.192-.105-8.36-.313-12.5z" fill="#fdcb6b"/><path d="m324.5 187.273c0 4.142-3.358 7.5-7.5 7.5h-105c-4.142 0-7.5-3.358-7.5-7.5 0-4.142 3.358-7.5 7.5-7.5h105c4.142 0 7.5 3.358 7.5 7.5zm-77.5 22.5h-35c-4.142 0-7.5 3.358-7.5 7.5 0 4.142 3.358 7.5 7.5 7.5h35c4.142 0 7.5-3.358 7.5-7.5 0-4.142-3.358-7.5-7.5-7.5zm-110-30h-25c-4.142 0-7.5 3.358-7.5 7.5 0 4.142 3.358 7.5 7.5 7.5h25c4.142 0 7.5-3.358 7.5-7.5 0-4.142-3.358-7.5-7.5-7.5zm-10 30h-15c-4.142 0-7.5 3.358-7.5 7.5s3.358 7.5 7.5 7.5h15c4.142 0 7.5-3.358 7.5-7.5s-3.358-7.5-7.5-7.5zm45-30c-4.142 0-7.5 3.358-7.5 7.5s3.358 7.5 7.5 7.5 7.5-3.358 7.5-7.5-3.358-7.5-7.5-7.5zm0 30c-4.142 0-7.5 3.358-7.5 7.5s3.358 7.5 7.5 7.5 7.5-3.358 7.5-7.5-3.358-7.5-7.5-7.5z" fill="#fdbf43"/><path d="m227 475h-86.455c-8.916-4.485-17.521-9.499-25.772-15h112.227c4.142 0 7.5 3.358 7.5 7.5 0 4.142-3.358 7.5-7.5 7.5zm7.5-430.273c0-4.142-3.358-7.5-7.5-7.5h-86.905c-8.878 4.489-17.445 9.503-25.662 15h112.567c4.142 0 7.5-3.358 7.5-7.5zm20 392.773c0-4.142-3.358-7.5-7.5-7.5h-135.333c-4.142 0-7.5 3.358-7.5 7.5s3.358 7.5 7.5 7.5h135.333c4.142 0 7.5-3.358 7.5-7.5zm-161.668-329.415-17.044-2.477c-.705-.103-1.315-.545-1.63-1.184l-5.97-12.096c-8.29 9.229-15.89 19.09-22.718 29.503l2.019 1.968c.51.498.743 1.214.623 1.917l-2.912 16.975c-.303 1.769 1.553 3.117 3.141 2.282l15.245-8.015c.631-.332 1.384-.332 2.015 0l15.245 8.015c1.588.835 3.445-.514 3.141-2.282l-2.911-16.975c-.12-.702.112-1.419.623-1.917l12.333-12.022c1.285-1.252.575-3.434-1.2-3.692zm-26.297 151.395 7.622 15.444c.315.639.925 1.082 1.63 1.184l17.044 2.477c1.776.258 2.485 2.44 1.2 3.693l-12.333 12.022c-.51.497-.743 1.214-.623 1.916l2.911 16.975c.303 1.769-1.553 3.117-3.141 2.282l-15.245-8.015c-.631-.332-1.384-.332-2.015 0l-15.245 8.015c-1.588.835-3.445-.514-3.141-2.282l2.911-16.975c.12-.702-.112-1.419-.623-1.916l-12.333-12.022c-1.285-1.253-.576-3.435 1.2-3.693l17.044-2.477c.705-.102 1.315-.545 1.63-1.184l7.622-15.444c.797-1.609 3.091-1.609 3.885 0z" fill="#f19b0b"/><path d="m317 110h-105c-4.142 0-7.5-3.358-7.5-7.5 0-4.142 3.358-7.5 7.5-7.5h105c4.142 0 7.5 3.358 7.5 7.5 0 4.142-3.358 7.5-7.5 7.5zm-62.5 22.5c0-4.142-3.358-7.5-7.5-7.5h-35c-4.142 0-7.5 3.358-7.5 7.5 0 4.142 3.358 7.5 7.5 7.5h35c4.142 0 7.5-3.358 7.5-7.5zm-110-30c0-4.142-3.358-7.5-7.5-7.5h-25c-4.142 0-7.5 3.358-7.5 7.5 0 4.142 3.358 7.5 7.5 7.5h25c4.142 0 7.5-3.358 7.5-7.5zm-10 30c0-4.142-3.358-7.5-7.5-7.5h-15c-4.142 0-7.5 3.358-7.5 7.5 0 4.142 3.358 7.5 7.5 7.5h15c4.142 0 7.5-3.358 7.5-7.5zm45-30c0-4.142-3.358-7.5-7.5-7.5-4.142 0-7.5 3.358-7.5 7.5 0 4.142 3.358 7.5 7.5 7.5 4.142 0 7.5-3.358 7.5-7.5zm0 30c0-4.142-3.358-7.5-7.5-7.5-4.142 0-7.5 3.358-7.5 7.5 0 4.142 3.358 7.5 7.5 7.5 4.142 0 7.5-3.358 7.5-7.5zm-35 140.5c0-4.142-3.358-7.5-7.5-7.5h-25c-4.142 0-7.5 3.358-7.5 7.5 0 4.142 3.358 7.5 7.5 7.5h25c4.142 0 7.5-3.358 7.5-7.5zm-10 30c0-4.142-3.358-7.5-7.5-7.5h-15c-4.142 0-7.5 3.358-7.5 7.5 0 4.142 3.358 7.5 7.5 7.5h15c4.142 0 7.5-3.358 7.5-7.5z" fill="#f4aa39"/><path d="m35.156 196.551c-1.285-1.253-.576-3.435 1.2-3.693l17.044-2.477c.705-.102 1.315-.545 1.63-1.184l7.622-15.444c.794-1.609 3.089-1.609 3.883 0l7.622 15.444c.315.639.925 1.082 1.63 1.184l17.044 2.477c1.776.258 2.485 2.44 1.2 3.693l-12.333 12.022c-.51.497-.743 1.214-.623 1.916l2.911 16.975c.303 1.769-1.553 3.117-3.141 2.282l-15.245-8.015c-.631-.332-1.384-.332-2.015 0l-15.245 8.015c-1.588.835-3.445-.514-3.141-2.282l2.911-16.975c.12-.702-.112-1.419-.623-1.916zm57.676 166.307-17.044-2.477c-.705-.102-1.315-.545-1.63-1.184l-7.622-15.445c-.794-1.609-3.089-1.609-3.883 0l-7.622 15.445c-.315.639-.925 1.082-1.63 1.184l-17.044 2.477c-1.776.258-2.485 2.44-1.2 3.693l12.333 12.022c.51.497.743 1.214.623 1.916l-1.863 10.861c1.562 2.353 3.164 4.677 4.804 6.971l12.533-6.589c.631-.332 1.384-.332 2.015 0l15.245 8.015c1.588.835 3.445-.514 3.141-2.282l-2.911-16.975c-.12-.702.112-1.419.623-1.916l12.333-12.022c1.284-1.254.574-3.436-1.201-3.694z" fill="#fff5f5"/><path d="m243.25 370h-57.5c-8.284 0-15-6.716-15-15v-220c0-8.284 6.716-15 15-15h57.5c8.284 0 15 6.716 15 15v220c0 8.284-6.716 15-15 15z" fill="#6c7fd7"/><path d="m219.75 370h-34c-8.284 0-15-6.716-15-15v-220c0-8.284 6.716-15 15-15h34c-8.284 0-15 6.716-15 15v220c0 8.284 6.716 15 15 15z" fill="#314dc8"/><path d="m495.5 250c0 .4-.016.797-.047 1.189.031 1.6.047 3.203.047 4.811 0 50.931-15.541 98.232-42.139 137.42-13.748 20.256-45.361 10.675-45.361-13.806v-129.604c0-.003 0-.007 0-.01v-182.75c0-8.284 6.716-15 15-15h57.5c8.284 0 15 6.716 15 15z" fill="#63bcfa"/><path d="m441.5 386.454c-.1.125-.201.249-.301.374-11.051 13.681-33.199 5.737-33.199-11.849v-124.969c0-.003 0-.007 0-.01v-182.75c0-8.284 6.716-15 15-15h34c-8.284 0-15 6.716-15 15z" fill="#05a2f9"/><path d="m360.155 305h-57.5c-8.284 0-15-6.716-15-15v-275c0-8.284 6.716-15 15-15h57.5c8.284 0 15 6.716 15 15v275c0 8.284-6.715 15-15 15z" fill="#22b27f"/><path d="m336.655 305h-34c-8.284 0-15-6.716-15-15v-275c0-8.284 6.716-15 15-15h34c-8.284 0-15 6.716-15 15v275c0 8.284 6.716 15 15 15z" fill="#08856c"/><path d="m250.5 501c-62.53 0-119.588-23.425-162.878-61.979-2.05-11.027-3.122-22.399-3.122-34.021 0-102.173 82.827-185 185-185 97.925 0 178.08 76.084 184.574 172.363-43.973 65.518-118.738 108.637-203.574 108.637z" fill="#fd7d43"/><path d="m361.295 244.345c-122.74 7.812-223.225 97.499-247.438 215.041-9.208-6.199-17.972-13.006-26.235-20.365-2.05-11.028-3.122-22.4-3.122-34.022 0-102.173 82.827-185 185-185 33.406.001 64.744 8.856 91.795 24.346z" fill="#f16b38"/><path d="m444.377 405.808c-38.458-16.781-73.806-40.793-104.349-71.335-2.125-2.125-4.219-4.275-6.281-6.446-16.689 10.107-32.604 21.37-47.631 33.677 29.724 33.005 43.278 77.983 38.451 127.902-6.803 2.155-13.735 4.021-20.781 5.584.167-1.222.321-2.445.464-3.668 5.369-45.931-6.437-87.126-33.302-116.77-36.456 32.929-66.985 72.301-89.776 116.301-6.566-1.934-13.017-4.135-19.341-6.591 20.487-40.44 47.16-77.205 79.543-109.589 4.816-4.816 9.729-9.505 14.736-14.066-24.171-19.31-55.032-29.459-89.399-29.459-6.986 0-14.119.419-21.368 1.267-17.213 2.012-34.351 6.339-51.032 12.787 2.902-8.532 6.409-16.785 10.471-24.706 12.608-3.773 25.398-6.445 38.239-7.945 49.741-5.813 94.823 6.487 128.404 34.747 15.402-12.763 31.615-24.388 48.579-34.834-23.56-27.98-42.209-59.2-55.507-92.595 1.662-.044 3.33-.067 5.003-.067 5.798 0 11.533.268 17.194.789 12.9 29.779 30.2 57.226 51.075 81.516 13.028-7.181 26.462-13.699 40.276-19.537 7.334-3.099 14.732-5.987 22.189-8.663 5.14 5.134 9.98 10.57 14.49 16.277-21.829 7.365-42.841 16.521-62.86 27.292 28.886 29.521 63.425 53.488 101.846 70.132.139 1.514.26 3.034.363 4.558-3.082 4.592-6.317 9.075-9.696 13.442z" fill="#c64b1a"/></g></svg>