<svg id="Capa_1" enable-background="new 0 0 501 501" height="512" viewBox="0 0 501 501" width="512" xmlns="http://www.w3.org/2000/svg"><g><path d="m23.364 348.01c-11.519-28.408-17.864-59.468-17.864-92.01 0-135.31 109.69-245 245-245s245 109.69 245 245c0 32.542-6.345 63.602-17.864 92.01z" fill="#63bcfa"/><path d="m23.364 348.01c-11.519-28.408-17.864-59.468-17.864-92.01 0-26.841 4.317-52.675 12.293-76.843 17.751 6.5 30.539 23.297 31.13 43.157 4.942-.905 10.036-1.378 15.239-1.378 30.652 0 57.472 16.405 72.159 40.913 13.643-9.558 30.256-15.167 48.179-15.167 46.428 0 84.065 37.637 84.065 84.065 0 5.917-.612 11.692-1.775 17.264h-243.426zm454.271 0c11.52-28.409 17.865-59.469 17.865-92.01 0-24.295-3.536-47.765-10.122-69.922-35.786 2.124-65.546 26.633-75.473 59.72-43.458 3.249-77.708 39.539-77.708 83.828 0 6.315.697 12.467 2.017 18.385h143.421z" fill="#22b27f"/><path d="m493.379 288.379c.845-6.402 1.443-12.881 1.784-19.429l-18.39-18.39 17.652-17.653c-.591-6.317-1.421-12.564-2.482-18.732l-25.778 25.778-32.727-32.727 32.727-32.727 22.077 22.077c-2.674-10.732-6.055-21.185-10.092-31.305l-1.379-1.379.585-.585c-2.031-4.967-4.222-9.852-6.564-14.65l-4.628 4.628-32.727-32.727.563-.558h-21.213l-33.287 33.287-32.727-32.727.561-.561h-22.334l.561.561-32.727 32.727-32.727-32.727.561-.561h-22.334l.561.561-32.727 32.727-32.727-32.727.559-.56h-22.334l.561.561-32.727 32.726-33.287-33.287h-21.213l.561.561-32.727 32.727-3.281-3.281c-6.703 13.947-12.124 28.627-16.111 43.886l19.391-19.393 32.727 32.727-32.727 32.727-24.065-24.066c-1.023 6.209-1.812 12.498-2.358 18.855l15.817 15.817-16.483 16.483c.292 6.592.846 13.117 1.649 19.564l25.44-25.44 32.727 32.727-45.501 45.501c1.294 3.575 2.669 7.11 4.122 10.605h6.486l45.5-45.5 32.727 32.727-12.774 12.773h21.213l2.166-2.166 2.166 2.166h21.213l-12.773-12.773 32.727-32.727 32.727 32.727-12.772 12.773h21.213l2.166-2.166 2.166 2.166h21.213l-12.773-12.773 32.728-32.727 32.727 32.727-12.773 12.773h21.213l2.166-2.166 2.167 2.166h21.213l-12.773-12.773 32.727-32.727 32.727 32.727-12.773 12.773h21.213l2.166-2.166 2.166 2.166h21.213l-12.773-12.773 32.727-32.727 45.5 45.5h8.486c1.254-3.017 2.451-6.064 3.587-9.141l-46.965-46.965 32.727-32.727zm-70.546-157.212 32.727 32.727-32.727 32.727-32.727-32.727zm-10.606 76.06-32.727 32.727-32.727-32.727 32.727-32.727zm-76.06-76.06 32.727 32.727-32.727 32.727-32.727-32.727zm-10.607 76.06-32.727 32.727-32.727-32.727 32.727-32.727zm-76.06-76.06 32.727 32.727-32.727 32.727-32.727-32.727zm-43.333 43.333 32.727 32.727-32.727 32.727-32.727-32.727zm-43.334-43.333 32.727 32.727-32.727 32.727-32.727-32.727zm-10.606 76.06-32.727 32.727-32.727-32.727 32.727-32.727zm-108.787-43.333 32.727-32.727 32.727 32.727-32.727 32.727zm0 86.667 32.727-32.727 32.727 32.727-32.727 32.727zm76.06 76.06-32.727-32.727 32.727-32.727 32.727 32.727zm43.333-43.334-32.727-32.727 32.727-32.727 32.727 32.727zm43.334 43.334-32.727-32.727 32.727-32.727 32.727 32.727zm10.606-76.06 32.727-32.727 32.727 32.727-32.727 32.726zm76.06 76.06-32.727-32.727 32.727-32.727 32.727 32.727zm10.607-76.06 32.727-32.727 32.727 32.727-32.727 32.727zm76.06 76.06-32.727-32.727 32.727-32.727 32.727 32.727zm43.333-43.334-32.727-32.727 32.727-32.727 32.727 32.727z" fill="#57b79d"/><path d="m53.735 110h393.53c4.78 6.431 9.252 13.105 13.394 20h-420.318c4.142-6.895 8.614-13.569 13.394-20z" fill="#458fa4"/><path d="m250.5 300c-8.284 0-15-6.716-15-15v-140c0-8.284 6.716-15 15-15 8.284 0 15 6.716 15 15v140c0 8.284-6.716 15-15 15z" fill="#174550"/><path d="m373.763 150.956c0 11.996-9.725 21.72-21.72 21.72h-203.085c-11.996 0-21.72-9.725-21.72-21.72v-107.203c0-8.543 5.023-16.257 12.793-19.807 33.647-15.377 71.057-23.946 110.469-23.946s76.822 8.569 110.47 23.945c7.77 3.551 12.793 11.265 12.793 19.807z" fill="#fff5f5"/><path d="m193.654 172.676h-44.696c-11.996 0-21.72-9.725-21.72-21.72v-107.203c0-8.543 5.023-16.257 12.793-19.807 9.404-4.297 19.102-8.063 29.055-11.258-.733 2.391-1.122 4.911-1.122 7.496v126.802c-.001 14.188 11.501 25.69 25.69 25.69z" fill="#ffe899"/><path d="m331.951 35.296h-162.902c-4.498 0-8.145 3.647-8.145 8.145v97.741c0 4.498 3.647 8.145 8.145 8.145h162.902c4.498 0 8.145-3.647 8.145-8.145v-97.741c0-4.499-3.646-8.145-8.145-8.145zm-8.145 97.741h-146.612v-81.451h146.612z" fill="#fdac89"/><path d="m311.41 139.804c-2.078-1.144-4.689-.387-5.833 1.692-3.318 6.03-6.211 12.285-8.664 18.71-9.583-.099-19.446-7.973-19.446-17.637 0-2.372-1.923-4.295-4.295-4.295-1.057 0-2.024.382-2.772 1.014-2.195.192-3.917 2.034-3.917 4.278 0 9.226-1.458 18.025-4.096 26.042-5.363-6.288-8.608-14.461-8.608-23.384 0-2.372-1.923-4.295-4.295-4.295-.311 0-.615.033-.907.097-.293-.063-.596-.097-.907-.097-2.372 0-4.295 1.923-4.295 4.295 0 8.338-2.833 16.022-7.581 22.124-2.525-7.676-3.913-16.037-3.913-24.782 0-1.929-1.271-3.56-3.021-4.103-.771-.737-1.816-1.19-2.967-1.19-2.372 0-4.295 1.923-4.295 4.295 0 9.726-7.842 17.639-17.482 17.639-.009 0-.019 0-.028 0-2.453-6.426-5.346-12.682-8.664-18.712-1.143-2.078-3.755-2.836-5.833-1.692-2.078 1.143-2.836 3.755-1.692 5.833 11.496 20.889 17.572 44.65 17.572 68.716v33.868c0 2.372 1.923 4.295 4.295 4.295s4.295-1.923 4.295-4.295v-2.748c12.568-.311 24.721-3.271 35.954-8.702 11.556 5.596 24.083 8.575 36.925 8.723v2.727c0 2.372 1.923 4.295 4.295 4.295s4.295-1.923 4.295-4.295v-33.868c0-24.065 6.076-47.827 17.572-68.716 1.143-2.077.386-4.688-1.692-5.832zm-45.604 44.041c5.822 3.714 12.561 6.096 19.791 6.721-3.476 6.636-7.673 12.708-12.46 18.115-6.265-2.068-12.096-5.415-17.285-9.793.519-.609 1.032-1.23 1.537-1.863 3.224-4.046 6.038-8.466 8.417-13.18zm-17.229-20.538c2.376 5.731 5.909 10.86 10.305 15.087-2.536 5.35-5.639 10.218-9.2 14.467-4.033-4.541-7.51-9.79-10.293-15.579 3.879-4.003 7.017-8.737 9.188-13.975zm-15.971 19.706c2.61 5.06 5.742 9.792 9.363 14.099.557.663 1.123 1.312 1.697 1.948-4.932 4.366-10.471 7.691-16.42 9.724-4.905-5.522-9.211-11.744-12.776-18.568 6.644-1.024 12.806-3.543 18.136-7.203zm-21.944-.993c-.045-.097-.093-.191-.144-.283-.971-4.42-2.137-8.793-3.497-13.102 7.097-.796 13.343-4.469 17.556-9.83.961 5.607 2.452 11.04 4.443 16.212-5.208 3.922-11.512 6.442-18.358 7.003zm3.363 29.048c-.039-1.812-.111-3.622-.215-5.428 1.255 1.788 2.564 3.53 3.926 5.223-1.226.123-2.464.192-3.711.205zm.035 25.813v-17.223c3.549-.034 7.049-.435 10.471-1.188 3.703 3.733 7.695 7.152 11.95 10.218 1.363.982 2.746 1.922 4.147 2.821-8.379 3.255-17.324 5.115-26.568 5.372zm19.79-21.411c5.698-2.444 11.078-5.927 15.987-10.373 5.121 4.41 10.727 7.874 16.663 10.314-5.018 4.566-10.518 8.491-16.39 11.692-5.806-3.183-11.264-7.088-16.26-11.633zm53.09 21.434c-9.524-.124-18.793-2.007-27.484-5.42 2.721-1.744 5.373-3.646 7.947-5.703 2.918-2.332 5.695-4.824 8.321-7.464 3.662.817 7.411 1.267 11.216 1.334zm.036-25.843c-1.505-.031-2.995-.134-4.469-.305 1.67-2.067 3.26-4.203 4.764-6.404-.148 2.231-.247 4.468-.295 6.709zm5.62-37.788c-.018.053-.036.107-.052.161-.888 2.981-1.907 5.886-3.049 8.707-.029-.001-.057-.001-.086-.001-7.45 0-14.373-2.317-20.097-6.274 2.224-5.882 3.828-12.111 4.77-18.558 4.706 6.123 12.078 10.394 19.903 11.306-.489 1.546-.951 3.099-1.389 4.659z" fill="#f8bb5e"/><path d="m312.85 149.718h-128.579c-4.932 0-8.93-3.998-8.93-8.93v-1.536c0-4.932 3.998-8.93 8.93-8.93h128.579c4.932 0 8.93 3.998 8.93 8.93v1.536c0 4.932-3.998 8.93-8.93 8.93z" fill="#ee4424"/><path d="m316.729 149.718h-108.213c-4.932 0-8.93-3.998-8.93-8.93v-1.536c0-4.932 3.998-8.93 8.93-8.93h108.214c4.932 0 8.93 3.998 8.93 8.93v1.536c-.001 4.932-3.999 8.93-8.931 8.93z" fill="#fc6930"/><path d="m340.5 325v40c0 8.284-6.716 15-15 15h-150c-8.284 0-15-6.716-15-15v-40c0-8.284 6.716-15 15-15h39v-15c0-8.284 6.716-15 15-15h42c8.284 0 15 6.716 15 15v15h39c8.284 0 15 6.716 15 15z" fill="#f19b0b"/><path d="m325.5 350h-121c-11.046 0-20-8.954-20-20 0-11.046 8.954-20 20-20h121c8.284 0 15 6.716 15 15v10c0 8.284-6.716 15-15 15z" fill="#f4aa39"/><path d="m480.721 340c-3.127 8.567-6.718 16.91-10.743 25-.876 1.76-3.129.965-4.394 2.417-2.073 2.379-3.308 6.89-4.917 9.667-.256.442 1.441 2.476 1.182 2.917-27.923 47.49-71.395 84.738-123.421 104.749-2.772 1.066-5.109-4.049-7.928-3.082-12.571 4.313-26.063 13.764-39.464 15.996-13.185 2.194-26.727 3.336-40.536 3.336-13.464 0-26.675-1.086-39.549-3.176-16.079-2.609-21.771-7.309-36.639-12.887-.6-.225-11.061.072-11.659-.157-52.06-20.003-95.562-57.264-123.5-104.777-.496-.844 1.458-2.153.971-3.003-1.885-3.295-3.141-6.299-4.875-9.688-.414-.809-3.822-1.498-4.227-2.312-4.025-8.09-7.617-16.433-10.743-25z" fill="#2b6c7e"/><path d="m441.06 410c-5.66 6.995-11.697 13.672-18.081 20h-158.479c-5.523 0-10-4.477-10-10s4.477-10 10-10zm-216.56-20c0-5.523-4.477-10-10-10h-175.348c4.051 6.889 8.429 13.563 13.113 20h162.235c5.523 0 10-4.477 10-10zm60 60h-80c-5.523 0-10 4.477-10 10s4.477 10 10 10h80c5.523 0 10-4.477 10-10s-4.477-10-10-10z" fill="#174550"/><path d="m461.848 380h-83.848v12.5c0 36.249-15.205 69.012-39.572 92.249-15.434 5.937-31.622 10.356-48.379 13.076 42.58-16.042 72.951-57.203 72.951-105.325v-12.5h-225v12.5c0 48.122 30.371 89.283 72.951 105.324-16.757-2.719-32.944-7.139-48.379-13.076-24.367-23.236-39.572-55.999-39.572-92.248v-12.5h-83.848c-2.877-4.894-5.59-9.896-8.129-15h438.955c-2.54 5.104-5.252 10.106-8.13 15z" fill="#e3f0fb"/><path d="m390.152 340c0 25.213-20.439 45.652-45.652 45.652s-45.652-20.439-45.652-45.652 20.439-45.652 45.652-45.652 45.652 20.439 45.652 45.652z" fill="#fc6930"/><path d="m384.081 362.763c-7.884 13.68-22.657 22.889-39.581 22.889-25.213 0-45.652-20.439-45.652-45.652 0-16.924 9.209-31.696 22.889-39.581-3.862 6.701-6.071 14.474-6.071 22.763 0 25.213 20.439 45.652 45.652 45.652 8.289 0 16.062-2.209 22.763-6.071z" fill="#fc5426"/><path d="m391.549 323.067c-.058-.198-.128-.389-.21-.572-7.111-18.962-25.424-32.495-46.839-32.495-14.673 0-27.89 6.353-37.045 16.453-.22.201-.421.425-.598.672-7.691 8.795-12.357 20.3-12.357 32.875 0 27.57 22.43 50 50 50s50-22.43 50-50c0-5.941-1.042-11.643-2.951-16.933zm-10.135-1.59c-9.259 2.965-17.82 7.445-25.396 13.153-1.123-1.227-2.274-2.427-3.453-3.599-2.482-2.469-5.087-4.816-7.801-7.032 5.138-7.021 9.091-14.975 11.57-23.577 10.955 3.283 20.013 10.999 25.08 21.055zm-33.673-22.655c-2.192 7.26-5.576 13.985-9.927 19.951-6.114-4.227-12.656-7.828-19.48-10.71 7.129-5.851 16.244-9.367 26.165-9.367 1.092 0 2.173.042 3.242.126zm-35.949 15.981c7.227 2.76 14.071 6.368 20.405 10.696-7.818 8.198-17.714 14.393-28.873 17.77-.085-1.079-.128-2.169-.128-3.269 0-9.478 3.208-18.219 8.596-25.197zm-6.861 37.059c13.332-3.853 25.111-11.246 34.267-21.116 3.58 2.935 6.955 6.114 10.098 9.511-10.647 9.879-18.766 22.443-23.319 36.657-10.048-5.063-17.759-14.11-21.046-25.052zm29.195 28.123c4.024-12.817 11.269-24.157 20.801-33.09 6.089 7.842 11.026 16.6 14.532 25.995-6.938 5.278-15.589 8.414-24.959 8.414-3.582 0-7.058-.458-10.374-1.319zm42.121-13.59c-3.703-8.951-8.643-17.43-14.612-25.108 6.825-5.076 14.527-9.048 22.85-11.661.861 3.316 1.319 6.793 1.319 10.374 0 10.028-3.592 19.233-9.557 26.395z" fill="#ee4424"/></g></svg>