<svg height="512" viewBox="0 0 501 501" width="512" xmlns="http://www.w3.org/2000/svg"><path d="M23.364 348.01C11.845 319.602 5.5 288.542 5.5 256c0-135.31 109.69-245 245-245s245 109.69 245 245c0 32.542-6.345 63.602-17.864 92.01z" fill="#63bcfa"/><path d="M23.364 348.01C11.845 319.602 5.5 288.542 5.5 256c0-26.841 4.317-52.675 12.293-76.843 17.751 6.5 30.539 23.297 31.13 43.157a84.552 84.552 0 0115.239-1.378c30.652 0 57.472 16.405 72.159 40.913 13.643-9.558 30.256-15.167 48.179-15.167 46.428 0 84.065 37.637 84.065 84.065a84.43 84.43 0 01-1.775 17.264H23.364zm454.271 0c11.52-28.409 17.865-59.469 17.865-92.01 0-24.295-3.536-47.765-10.122-69.922-35.786 2.124-65.546 26.633-75.473 59.72-43.458 3.249-77.708 39.539-77.708 83.828 0 6.315.697 12.467 2.017 18.385h143.421z" fill="#22b27f"/><path d="M493.379 288.379a246.366 246.366 0 001.784-19.429l-18.39-18.39 17.652-17.653a245.23 245.23 0 00-2.482-18.732l-25.778 25.778-32.727-32.727 32.727-32.727 22.077 22.077a243.11 243.11 0 00-10.092-31.305l-1.379-1.379.585-.585a243.475 243.475 0 00-6.564-14.65l-4.628 4.628-32.727-32.727L434 120h-21.213L379.5 153.287l-32.727-32.727.561-.561H325l.561.561-32.727 32.727-32.727-32.727.561-.561h-22.334l.561.561-32.727 32.727-32.727-32.727.559-.56h-22.334l.561.561-32.727 32.726L86.213 120H65l.561.561-32.727 32.727-3.281-3.281a243.253 243.253 0 00-16.111 43.886L32.833 174.5l32.727 32.727-32.727 32.727-24.065-24.066a244.877 244.877 0 00-2.358 18.855l15.817 15.817-16.483 16.483a246.54 246.54 0 001.649 19.564l25.44-25.44 32.727 32.727-45.501 45.501A243.582 243.582 0 0024.181 350h6.486l45.5-45.5 32.727 32.727L96.12 350h21.213l2.166-2.166 2.166 2.166h21.213l-12.773-12.773 32.727-32.727 32.727 32.727L182.787 350H204l2.166-2.166 2.166 2.166h21.213l-12.773-12.773L249.5 304.5l32.727 32.727L269.454 350h21.213l2.166-2.166L295 350h21.213l-12.773-12.773 32.727-32.727 32.727 32.727L356.121 350h21.213l2.166-2.166 2.166 2.166h21.213l-12.773-12.773 32.727-32.727 45.5 45.5h8.486a243.959 243.959 0 003.587-9.141l-46.965-46.965 32.727-32.727zm-70.546-157.212l32.727 32.727-32.727 32.727-32.727-32.727zm-10.606 76.06L379.5 239.954l-32.727-32.727L379.5 174.5zm-76.06-76.06l32.727 32.727-32.727 32.727-32.727-32.727zm-10.607 76.06l-32.727 32.727-32.727-32.727 32.727-32.727zm-76.06-76.06l32.727 32.727-32.727 32.727-32.727-32.727zM206.167 174.5l32.727 32.727-32.727 32.727-32.727-32.727zm-43.334-43.333l32.727 32.727-32.727 32.727-32.727-32.727zm-10.606 76.06L119.5 239.954l-32.727-32.727L119.5 174.5zM43.44 163.894l32.727-32.727 32.727 32.727-32.727 32.727zm0 86.667l32.727-32.727 32.727 32.727-32.727 32.727zm76.06 76.06l-32.727-32.727 32.727-32.727 32.727 32.727zm43.333-43.334l-32.727-32.727 32.727-32.727 32.727 32.727zm43.334 43.334l-32.727-32.727 32.727-32.727 32.727 32.727zm10.606-76.06l32.727-32.727 32.727 32.727-32.727 32.726zm76.06 76.06l-32.727-32.727 32.727-32.727 32.727 32.727zm10.607-76.06l32.727-32.727 32.727 32.727-32.727 32.727zm76.06 76.06l-32.727-32.727 32.727-32.727 32.727 32.727zm43.333-43.334l-32.727-32.727 32.727-32.727 32.727 32.727z" fill="#57b79d"/><path d="M53.735 110h393.53a245.149 245.149 0 0113.394 20H40.341a245.149 245.149 0 0113.394-20z" fill="#458fa4"/><path d="M250.5 300c-8.284 0-15-6.716-15-15V145c0-8.284 6.716-15 15-15 8.284 0 15 6.716 15 15v140c0 8.284-6.716 15-15 15z" fill="#174550"/><path d="M373.763 150.956c0 11.996-9.725 21.72-21.72 21.72H148.958c-11.996 0-21.72-9.725-21.72-21.72V43.753c0-8.543 5.023-16.257 12.793-19.807C173.678 8.569 211.088 0 250.5 0s76.822 8.569 110.47 23.945c7.77 3.551 12.793 11.265 12.793 19.807z" fill="#fff5f5"/><path d="M193.654 172.676h-44.696c-11.996 0-21.72-9.725-21.72-21.72V43.753c0-8.543 5.023-16.257 12.793-19.807a264.231 264.231 0 0129.055-11.258 25.549 25.549 0 00-1.122 7.496v126.802c-.001 14.188 11.501 25.69 25.69 25.69z" fill="#ffe899"/><path d="M331.951 35.296H169.049a8.145 8.145 0 00-8.145 8.145v97.741a8.145 8.145 0 008.145 8.145h162.902a8.145 8.145 0 008.145-8.145V43.441a8.144 8.144 0 00-8.145-8.145zm-8.145 97.741H177.194V51.586h146.612z" fill="#fdac89"/><path d="M311.41 139.804a4.293 4.293 0 00-5.833 1.692 149.204 149.204 0 00-8.664 18.71c-9.583-.099-19.446-7.973-19.446-17.637a4.295 4.295 0 00-7.067-3.281 4.296 4.296 0 00-3.917 4.278c0 9.226-1.458 18.025-4.096 26.042a35.928 35.928 0 01-8.608-23.384 4.295 4.295 0 00-5.202-4.198 4.295 4.295 0 00-5.202 4.198 35.917 35.917 0 01-7.581 22.124c-2.525-7.676-3.913-16.037-3.913-24.782a4.297 4.297 0 00-3.021-4.103 4.295 4.295 0 00-7.262 3.105c0 9.726-7.842 17.639-17.482 17.639h-.028a149.164 149.164 0 00-8.664-18.712 4.294 4.294 0 10-7.525 4.141c11.496 20.889 17.572 44.65 17.572 68.716v33.868a4.295 4.295 0 008.59 0v-2.748a87.212 87.212 0 0035.954-8.702c11.556 5.596 24.083 8.575 36.925 8.723v2.727a4.295 4.295 0 008.59 0v-33.868c0-24.065 6.076-47.827 17.572-68.716a4.294 4.294 0 00-1.692-5.832zm-45.604 44.041a43.739 43.739 0 0019.791 6.721 91.022 91.022 0 01-12.46 18.115c-6.265-2.068-12.096-5.415-17.285-9.793a74.58 74.58 0 001.537-1.863c3.224-4.046 6.038-8.466 8.417-13.18zm-17.229-20.538a44.69 44.69 0 0010.305 15.087c-2.536 5.35-5.639 10.218-9.2 14.467-4.033-4.541-7.51-9.79-10.293-15.579a44.675 44.675 0 009.188-13.975zm-15.971 19.706a76.089 76.089 0 009.363 14.099 72.823 72.823 0 001.697 1.948c-4.932 4.366-10.471 7.691-16.42 9.724-4.905-5.522-9.211-11.744-12.776-18.568a43.796 43.796 0 0018.136-7.203zm-21.944-.993a4.415 4.415 0 00-.144-.283 151.626 151.626 0 00-3.497-13.102c7.097-.796 13.343-4.469 17.556-9.83a85.186 85.186 0 004.443 16.212 35.248 35.248 0 01-18.358 7.003zm3.363 29.048a150.91 150.91 0 00-.215-5.428 99.815 99.815 0 003.926 5.223 41.506 41.506 0 01-3.711.205zm.035 25.813v-17.223a50.933 50.933 0 0010.471-1.188 95.352 95.352 0 0011.95 10.218 93.185 93.185 0 004.147 2.821 79.328 79.328 0 01-26.568 5.372zm19.79-21.411c5.698-2.444 11.078-5.927 15.987-10.373 5.121 4.41 10.727 7.874 16.663 10.314a84.368 84.368 0 01-16.39 11.692 84.675 84.675 0 01-16.26-11.633zm53.09 21.434c-9.524-.124-18.793-2.007-27.484-5.42a93.864 93.864 0 007.947-5.703 98.252 98.252 0 008.321-7.464 55.977 55.977 0 0011.216 1.334zm.036-25.843a47.198 47.198 0 01-4.469-.305 99.659 99.659 0 004.764-6.404 149.831 149.831 0 00-.295 6.709zm5.62-37.788a4.317 4.317 0 00-.052.161 97.006 97.006 0 01-3.049 8.707l-.086-.001a35.224 35.224 0 01-20.097-6.274c2.224-5.882 3.828-12.111 4.77-18.558 4.706 6.123 12.078 10.394 19.903 11.306a149.016 149.016 0 00-1.389 4.659z" fill="#f8bb5e"/><path d="M312.85 149.718H184.271a8.93 8.93 0 01-8.93-8.93v-1.536a8.93 8.93 0 018.93-8.93H312.85a8.93 8.93 0 018.93 8.93v1.536a8.93 8.93 0 01-8.93 8.93z" fill="#ee4424"/><path d="M316.729 149.718H208.516a8.93 8.93 0 01-8.93-8.93v-1.536a8.93 8.93 0 018.93-8.93H316.73a8.93 8.93 0 018.93 8.93v1.536a8.931 8.931 0 01-8.931 8.93z" fill="#fc6930"/><path d="M340.5 325v40c0 8.284-6.716 15-15 15h-150c-8.284 0-15-6.716-15-15v-40c0-8.284 6.716-15 15-15h39v-15c0-8.284 6.716-15 15-15h42c8.284 0 15 6.716 15 15v15h39c8.284 0 15 6.716 15 15z" fill="#f19b0b"/><path d="M325.5 350h-121c-11.046 0-20-8.954-20-20s8.954-20 20-20h121c8.284 0 15 6.716 15 15v10c0 8.284-6.716 15-15 15z" fill="#f4aa39"/><path d="M480.721 340a243.736 243.736 0 01-10.743 25c-.876 1.76-3.129.965-4.394 2.417-2.073 2.379-3.308 6.89-4.917 9.667-.256.442 1.441 2.476 1.182 2.917-27.923 47.49-71.395 84.738-123.421 104.749-2.772 1.066-5.109-4.049-7.928-3.082-12.571 4.313-26.063 13.764-39.464 15.996A246.822 246.822 0 01250.5 501a246.679 246.679 0 01-39.549-3.176c-16.079-2.609-21.771-7.309-36.639-12.887-.6-.225-11.061.072-11.659-.157-52.06-20.003-95.562-57.264-123.5-104.777-.496-.844 1.458-2.153.971-3.003-1.885-3.295-3.141-6.299-4.875-9.688-.414-.809-3.822-1.498-4.227-2.312a243.515 243.515 0 01-10.743-25z" fill="#2b6c7e"/><path d="M441.06 410a246.34 246.34 0 01-18.081 20H264.5c-5.523 0-10-4.477-10-10s4.477-10 10-10zM224.5 390c0-5.523-4.477-10-10-10H39.152a245.45 245.45 0 0013.113 20H214.5c5.523 0 10-4.477 10-10zm60 60h-80c-5.523 0-10 4.477-10 10s4.477 10 10 10h80c5.523 0 10-4.477 10-10s-4.477-10-10-10z" fill="#174550"/><path d="M461.848 380H378v12.5c0 36.249-15.205 69.012-39.572 92.249a243.241 243.241 0 01-48.379 13.076C332.629 481.783 363 440.622 363 392.5V380H138v12.5c0 48.122 30.371 89.283 72.951 105.324a243.192 243.192 0 01-48.379-13.076C138.205 461.512 123 428.749 123 392.5V380H39.152a244.336 244.336 0 01-8.129-15h438.955a244.349 244.349 0 01-8.13 15z" fill="#e3f0fb"/><path d="M390.152 340c0 25.213-20.439 45.652-45.652 45.652S298.848 365.213 298.848 340s20.439-45.652 45.652-45.652 45.652 20.439 45.652 45.652z" fill="#fc6930"/><path d="M384.081 362.763c-7.884 13.68-22.657 22.889-39.581 22.889-25.213 0-45.652-20.439-45.652-45.652 0-16.924 9.209-31.696 22.889-39.581a45.442 45.442 0 00-6.071 22.763c0 25.213 20.439 45.652 45.652 45.652a45.442 45.442 0 0022.763-6.071z" fill="#fc5426"/><path d="M391.549 323.067a4.473 4.473 0 00-.21-.572C384.228 303.533 365.915 290 344.5 290c-14.673 0-27.89 6.353-37.045 16.453-.22.201-.421.425-.598.672-7.691 8.795-12.357 20.3-12.357 32.875 0 27.57 22.43 50 50 50s50-22.43 50-50a49.79 49.79 0 00-2.951-16.933zm-10.135-1.59a85.545 85.545 0 00-25.396 13.153 107.18 107.18 0 00-11.254-10.631 75.135 75.135 0 0011.57-23.577c10.955 3.283 20.013 10.999 25.08 21.055zm-33.673-22.655a66.432 66.432 0 01-9.927 19.951 108.608 108.608 0 00-19.48-10.71c7.129-5.851 16.244-9.367 26.165-9.367 1.092 0 2.173.042 3.242.126zm-35.949 15.981a98.445 98.445 0 0120.405 10.696 66.512 66.512 0 01-28.873 17.77 41.617 41.617 0 01-.128-3.269 41.095 41.095 0 018.596-25.197zm-6.861 37.059a75.21 75.21 0 0034.267-21.116 100.983 100.983 0 0110.098 9.511 85.64 85.64 0 00-23.319 36.657c-10.048-5.063-17.759-14.11-21.046-25.052zm29.195 28.123a76.918 76.918 0 0120.801-33.09c6.089 7.842 11.026 16.6 14.532 25.995a41.092 41.092 0 01-24.959 8.414c-3.582 0-7.058-.458-10.374-1.319zm42.121-13.59a108.733 108.733 0 00-14.612-25.108 76.844 76.844 0 0122.85-11.661A41.233 41.233 0 01385.804 340c0 10.028-3.592 19.233-9.557 26.395z" fill="#ee4424"/></svg>