<svg height="512" viewBox="0 0 501 501" width="512" xmlns="http://www.w3.org/2000/svg"><path d="M76.678 405.342c-9.372 3.863-20.15.685-26.022-7.577C22.22 357.75 5.5 308.828 5.5 256c0-135.31 109.69-245 245-245s245 109.69 245 245c0 52.808-16.708 101.714-45.125 141.72-5.889 8.29-16.702 11.475-26.104 7.601-51.066-21.042-110.431-33.094-173.771-33.094-63.361 0-122.744 12.06-173.822 33.115z" fill="#91cefb"/><path d="M450.656 397.323C406.287 460.048 333.176 501 250.5 501c-27.328 0-53.611-4.475-78.156-12.73V238.281h278.313v159.042z" fill="#fdcb6b"/><path d="M343.906 324.063v-40.031c0-5.264 4.267-9.531 9.531-9.531s9.531 4.267 9.531 9.531v40.031c0 5.264-4.267 9.531-9.531 9.531s-9.531-4.268-9.531-9.531zm42.891 9.531a9.53 9.53 0 009.531-9.531v-40.031c0-5.264-4.267-9.531-9.531-9.531s-9.531 4.267-9.531 9.531v40.031c0 5.263 4.267 9.531 9.531 9.531zm33.359-59.094a9.53 9.53 0 00-9.531 9.531v40.031c0 5.264 4.267 9.531 9.531 9.531s9.531-4.267 9.531-9.531v-40.031c.001-5.264-4.267-9.531-9.531-9.531zm0 78.156H315.313c-5.264 0-9.531 4.267-9.531 9.531s4.267 9.531 9.531 9.531h104.844a9.53 9.53 0 10-.001-19.062z" fill="#fdbf43"/><path d="M344.683 482.243a9.49 9.49 0 01-.777-3.774v-78.156a9.53 9.53 0 019.531-9.531h66.719a9.53 9.53 0 019.531 9.531v22.772c-23.621 25.321-52.545 45.63-85.004 59.158z" fill="#f4aa39"/><path d="M450.656 25.294v222.519H172.344V25.294c0-13.638 10.802-25.107 24.439-25.291 9.623-.13 18.008 5.226 22.226 13.14 3.062 5.746 8.872 9.494 15.383 9.494h1.679c6.411 0 12.334-3.531 15.279-9.225C255.471 5.445 263.787 0 273.375 0s17.904 5.445 22.025 13.412c2.945 5.695 8.868 9.225 15.279 9.225h1.642c6.411 0 12.334-3.531 15.279-9.225C331.721 5.445 340.037 0 349.625 0s17.904 5.445 22.025 13.412c2.945 5.695 8.868 9.225 15.279 9.225h1.679c6.511 0 12.321-3.748 15.383-9.494 4.218-7.914 12.602-13.27 22.226-13.14 13.638.183 24.439 11.652 24.439 25.291z" fill="#fd7d43"/><path d="M210.469 354.479a24.667 24.667 0 01-13.344 3.896c-13.686 0-24.781-11.095-24.781-24.781V24.781C172.344 11.095 183.439 0 197.125 0c4.913 0 9.492 1.43 13.344 3.896-6.878 4.404-11.438 12.112-11.438 20.885v308.813c0 8.773 4.559 16.481 11.438 20.885z" fill="#f16b38"/><path d="M372.417 142.969c0 33.644-27.273 60.917-60.917 60.917s-60.917-27.273-60.917-60.917 27.273-60.917 60.917-60.917 60.917 27.273 60.917 60.917z" fill="#fc5426"/><path d="M374.281 120.374a5.825 5.825 0 00-.281-.763c-9.487-25.303-33.924-43.361-62.5-43.361-19.579 0-37.216 8.478-49.431 21.955a5.782 5.782 0 00-.798.896c-10.263 11.737-16.489 27.089-16.489 43.868 0 36.789 29.93 66.719 66.719 66.719s66.719-29.93 66.719-66.719a66.451 66.451 0 00-3.939-22.595zm-13.524-2.122a114.124 114.124 0 00-33.887 17.552 143.266 143.266 0 00-15.016-14.185 100.255 100.255 0 0015.439-31.46c14.617 4.378 26.703 14.674 33.464 28.093zm-44.932-30.23a88.661 88.661 0 01-13.246 26.622 144.92 144.92 0 00-25.993-14.292c9.513-7.808 21.676-12.499 34.914-12.499 1.455 0 2.898.057 4.325.169zm-47.969 21.324a131.299 131.299 0 0127.228 14.273 88.752 88.752 0 01-38.527 23.712 55.723 55.723 0 01-.171-4.363c-.001-12.646 4.28-24.311 11.47-33.622zm-9.155 49.451a100.366 100.366 0 0045.725-28.177 134.702 134.702 0 0113.474 12.691 114.264 114.264 0 00-31.116 48.914c-13.408-6.755-23.698-18.827-28.083-33.428zm38.956 37.527a102.656 102.656 0 0127.756-44.154c8.125 10.464 14.713 22.15 19.392 34.687-9.258 7.043-20.802 11.228-33.305 11.228a55.061 55.061 0 01-13.843-1.761zm56.205-18.134c-4.941-11.944-11.533-23.258-19.497-33.504a102.536 102.536 0 0130.49-15.56 55.015 55.015 0 011.76 13.843c0 13.381-4.793 25.663-12.753 35.221zM450.656 257.344H172.344v-19.063h278.313v19.063z" fill="#c64b1a"/><path d="M50.344 388.281h278.313v99.988C304.111 496.525 277.828 501 250.5 501c-82.676 0-155.787-40.952-200.156-103.677z" fill="#f9eecf"/><path d="M183.781 491.805v-57.774c0-5.264 4.267-9.531 9.531-9.531s9.531 4.267 9.531 9.531v62.336a243.06 243.06 0 01-19.062-4.562z" fill="#f8bb5e"/><path d="M164.719 434.031v51.531c-24.303-9.085-46.777-21.92-66.719-37.799v-13.732a9.53 9.53 0 019.531-9.531h47.656c5.264 0 9.532 4.267 9.532 9.531z" fill="#fbc56d"/><path d="M50.344 388.281h26.688v40.732a246.355 246.355 0 01-26.688-31.69zM231.438 424.5a9.53 9.53 0 00-9.531 9.531v40.031c0 5.264 4.267 9.531 9.531 9.531s9.531-4.267 9.531-9.531v-40.031c0-5.264-4.268-9.531-9.531-9.531zm33.359 0a9.53 9.53 0 00-9.531 9.531v40.031c0 5.264 4.267 9.531 9.531 9.531s9.531-4.267 9.531-9.531v-40.031a9.53 9.53 0 00-9.531-9.531zm33.359 0a9.53 9.53 0 00-9.531 9.531v40.031c0 5.264 4.267 9.531 9.531 9.531s9.531-4.267 9.531-9.531v-40.031c.001-5.264-4.267-9.531-9.531-9.531z" fill="#ffdf8e"/><path d="M50.691 397.813l-.347-.489v-222.03c0-13.638 10.802-25.107 24.439-25.291 9.623-.13 18.008 5.226 22.226 13.14 3.062 5.746 8.873 9.494 15.383 9.494h1.679c6.411 0 12.334-3.531 15.279-9.225 4.121-7.967 12.437-13.412 22.025-13.412s17.904 5.445 22.025 13.412c2.946 5.695 8.868 9.225 15.279 9.225h1.642c6.411 0 12.334-3.531 15.279-9.225 4.121-7.967 12.437-13.412 22.025-13.412s17.904 5.445 22.025 13.412c2.946 5.695 8.868 9.225 15.279 9.225h1.679c6.511 0 12.321-3.749 15.383-9.494 4.218-7.914 12.602-13.27 22.226-13.14 13.637.184 24.439 11.653 24.439 25.291v222.519z" fill="#57bd91"/><path d="M50.692 397.813l-.348-.489V174.781c0-13.686 11.095-24.781 24.781-24.781 4.913 0 9.492 1.43 13.344 3.896-6.878 4.404-11.438 12.112-11.438 20.885v223.031H50.692z" fill="#2cac8d"/><path d="M250.417 292.969c0 33.644-27.273 60.917-60.917 60.917s-60.917-27.273-60.917-60.917 27.273-60.917 60.917-60.917 60.917 27.273 60.917 60.917z" fill="#08856c"/><path d="M252.281 270.374a5.825 5.825 0 00-.281-.763c-9.488-25.303-33.925-43.361-62.5-43.361-19.579 0-37.216 8.477-49.431 21.955a5.782 5.782 0 00-.798.896c-10.263 11.736-16.489 27.089-16.489 43.868 0 36.789 29.93 66.719 66.719 66.719s66.719-29.93 66.719-66.719a66.451 66.451 0 00-3.939-22.595zm-13.524-2.121a114.124 114.124 0 00-33.887 17.552 143.266 143.266 0 00-15.016-14.185 100.255 100.255 0 0015.439-31.46c14.617 4.377 26.703 14.673 33.464 28.093zm-49.257-30.4c1.455 0 2.898.057 4.325.168a88.661 88.661 0 01-13.246 26.622 144.92 144.92 0 00-25.993-14.292c9.513-7.806 21.676-12.498 34.914-12.498zm-55.115 55.116c0-12.647 4.281-24.312 11.471-33.623a131.299 131.299 0 0127.228 14.273 88.761 88.761 0 01-38.528 23.713 55.277 55.277 0 01-.171-4.363zm2.316 15.828a100.366 100.366 0 0045.725-28.177 134.81 134.81 0 0113.474 12.691 114.264 114.264 0 00-31.116 48.914c-13.408-6.755-23.698-18.827-28.083-33.428zm52.799 39.287a55.06 55.06 0 01-13.843-1.76 102.656 102.656 0 0127.756-44.154c8.125 10.464 14.713 22.15 19.392 34.687-9.258 7.042-20.802 11.227-33.305 11.227zm42.362-19.894a145.108 145.108 0 00-19.497-33.504 102.56 102.56 0 0130.49-15.56 55.015 55.015 0 011.76 13.843c0 13.381-4.793 25.663-12.753 35.221z" fill="#026841"/><path d="M50.344 388.281h278.313v19.063H57.821a245.876 245.876 0 01-7.478-10.021v-9.042z" fill="#08856c"/></svg>