<svg id="Capa_1" enable-background="new 0 0 501 501" height="512" viewBox="0 0 501 501" width="512" xmlns="http://www.w3.org/2000/svg"><g><path d="m76.678 405.342c-9.372 3.863-20.15.685-26.022-7.577-28.436-40.015-45.156-88.937-45.156-141.765 0-135.31 109.69-245 245-245s245 109.69 245 245c0 52.808-16.708 101.714-45.125 141.72-5.889 8.29-16.702 11.475-26.104 7.601-51.066-21.042-110.431-33.094-173.771-33.094-63.361 0-122.744 12.06-173.822 33.115z" fill="#91cefb"/><path d="m450.656 397.323c-44.369 62.725-117.48 103.677-200.156 103.677-27.328 0-53.611-4.475-78.156-12.73v-249.989h278.313v159.042z" fill="#fdcb6b"/><path d="m343.906 324.063v-40.031c0-5.264 4.267-9.531 9.531-9.531s9.531 4.267 9.531 9.531v40.031c0 5.264-4.267 9.531-9.531 9.531s-9.531-4.268-9.531-9.531zm42.891 9.531c5.264 0 9.531-4.267 9.531-9.531v-40.031c0-5.264-4.267-9.531-9.531-9.531s-9.531 4.267-9.531 9.531v40.031c0 5.263 4.267 9.531 9.531 9.531zm33.359-59.094c-5.264 0-9.531 4.267-9.531 9.531v40.031c0 5.264 4.267 9.531 9.531 9.531s9.531-4.267 9.531-9.531v-40.031c.001-5.264-4.267-9.531-9.531-9.531zm0 78.156h-104.843c-5.264 0-9.531 4.267-9.531 9.531s4.267 9.531 9.531 9.531h104.844c5.264 0 9.531-4.267 9.531-9.531 0-5.263-4.268-9.531-9.532-9.531z" fill="#fdbf43"/><path d="m344.683 482.243c-.5-1.157-.777-2.433-.777-3.774v-78.156c0-5.264 4.267-9.531 9.531-9.531h66.719c5.264 0 9.531 4.267 9.531 9.531v22.772c-23.621 25.321-52.545 45.63-85.004 59.158z" fill="#f4aa39"/><path d="m450.656 25.294v222.519h-278.312v-222.519c0-13.638 10.802-25.107 24.439-25.291 9.623-.13 18.008 5.226 22.226 13.14 3.062 5.746 8.872 9.494 15.383 9.494h1.679c6.411 0 12.334-3.531 15.279-9.225 4.121-7.967 12.437-13.412 22.025-13.412s17.904 5.445 22.025 13.412c2.945 5.695 8.868 9.225 15.279 9.225h1.642c6.411 0 12.334-3.531 15.279-9.225 4.121-7.967 12.437-13.412 22.025-13.412s17.904 5.445 22.025 13.412c2.945 5.695 8.868 9.225 15.279 9.225h1.679c6.511 0 12.321-3.748 15.383-9.494 4.218-7.914 12.602-13.27 22.226-13.14 13.638.183 24.439 11.652 24.439 25.291z" fill="#fd7d43"/><path d="m210.469 354.479c-3.852 2.466-8.431 3.896-13.344 3.896-13.686 0-24.781-11.095-24.781-24.781v-308.813c0-13.686 11.095-24.781 24.781-24.781 4.913 0 9.492 1.43 13.344 3.896-6.878 4.404-11.438 12.112-11.438 20.885v308.813c0 8.773 4.559 16.481 11.438 20.885z" fill="#f16b38"/><path d="m372.417 142.969c0 33.644-27.273 60.917-60.917 60.917s-60.917-27.273-60.917-60.917 27.273-60.917 60.917-60.917 60.917 27.273 60.917 60.917z" fill="#fc5426"/><path d="m374.281 120.374c-.077-.264-.171-.519-.281-.763-9.487-25.303-33.924-43.361-62.5-43.361-19.579 0-37.216 8.478-49.431 21.955-.294.268-.562.568-.798.896-10.263 11.737-16.489 27.089-16.489 43.868 0 36.789 29.93 66.719 66.719 66.719s66.719-29.93 66.719-66.719c-.001-7.927-1.391-15.536-3.939-22.595zm-13.524-2.122c-12.356 3.957-23.779 9.935-33.887 17.552-1.498-1.637-3.035-3.238-4.607-4.802-3.312-3.294-6.788-6.426-10.409-9.383 6.857-9.369 12.131-19.983 15.439-31.46 14.617 4.378 26.703 14.674 33.464 28.093zm-44.932-30.23c-2.926 9.688-7.44 18.661-13.246 26.622-8.158-5.641-16.888-10.446-25.993-14.292 9.513-7.808 21.676-12.499 34.914-12.499 1.455 0 2.898.057 4.325.169zm-47.969 21.324c9.643 3.682 18.776 8.497 27.228 14.273-10.432 10.94-23.637 19.205-38.527 23.712-.113-1.439-.171-2.894-.171-4.363-.001-12.646 4.28-24.311 11.47-33.622zm-9.155 49.451c17.789-5.141 33.507-15.007 45.725-28.177 4.777 3.916 9.281 8.159 13.474 12.691-14.208 13.183-25.041 29.947-31.116 48.914-13.408-6.755-23.698-18.827-28.083-33.428zm38.956 37.527c5.37-17.102 15.038-32.234 27.756-44.154 8.125 10.464 14.713 22.15 19.392 34.687-9.258 7.043-20.802 11.228-33.305 11.228-4.779-.001-9.418-.612-13.843-1.761zm56.205-18.134c-4.941-11.944-11.533-23.258-19.497-33.504 9.107-6.773 19.385-12.074 30.49-15.56 1.149 4.425 1.76 9.064 1.76 13.843 0 13.381-4.793 25.663-12.753 35.221z" fill="#c64b1a"/><path d="m450.656 257.344h-278.312v-19.063h278.313v19.063z" fill="#c64b1a"/><path d="m50.344 388.281h278.313v99.988c-24.546 8.256-50.829 12.731-78.157 12.731-82.676 0-155.787-40.952-200.156-103.677z" fill="#f9eecf"/><path d="m183.781 491.805v-57.774c0-5.264 4.267-9.531 9.531-9.531s9.531 4.267 9.531 9.531v62.336c-6.448-1.271-12.806-2.795-19.062-4.562z" fill="#f8bb5e"/><path d="m164.719 434.031v51.531c-24.303-9.085-46.777-21.92-66.719-37.799v-13.732c0-5.264 4.267-9.531 9.531-9.531h47.656c5.264 0 9.532 4.267 9.532 9.531z" fill="#fbc56d"/><path d="m50.344 388.281h26.688v40.732c-9.755-9.781-18.688-20.381-26.688-31.69zm181.094 36.219c-5.264 0-9.531 4.267-9.531 9.531v40.031c0 5.264 4.267 9.531 9.531 9.531s9.531-4.267 9.531-9.531v-40.031c0-5.264-4.268-9.531-9.531-9.531zm33.359 0c-5.264 0-9.531 4.267-9.531 9.531v40.031c0 5.264 4.267 9.531 9.531 9.531s9.531-4.267 9.531-9.531v-40.031c0-5.264-4.267-9.531-9.531-9.531zm33.359 0c-5.264 0-9.531 4.267-9.531 9.531v40.031c0 5.264 4.267 9.531 9.531 9.531s9.531-4.267 9.531-9.531v-40.031c.001-5.264-4.267-9.531-9.531-9.531z" fill="#ffdf8e"/><path d="m50.691 397.813c-.116-.163-.232-.326-.347-.489v-222.03c0-13.638 10.802-25.107 24.439-25.291 9.623-.13 18.008 5.226 22.226 13.14 3.062 5.746 8.873 9.494 15.383 9.494h1.679c6.411 0 12.334-3.531 15.279-9.225 4.121-7.967 12.437-13.412 22.025-13.412s17.904 5.445 22.025 13.412c2.946 5.695 8.868 9.225 15.279 9.225h1.642c6.411 0 12.334-3.531 15.279-9.225 4.121-7.967 12.437-13.412 22.025-13.412s17.904 5.445 22.025 13.412c2.946 5.695 8.868 9.225 15.279 9.225h1.679c6.511 0 12.321-3.749 15.383-9.494 4.218-7.914 12.602-13.27 22.226-13.14 13.637.184 24.439 11.653 24.439 25.291v222.519z" fill="#57bd91"/><path d="m50.692 397.813c-.116-.163-.232-.326-.348-.489v-222.543c0-13.686 11.095-24.781 24.781-24.781 4.913 0 9.492 1.43 13.344 3.896-6.878 4.404-11.438 12.112-11.438 20.885v223.031h-26.339z" fill="#2cac8d"/><path d="m250.417 292.969c0 33.644-27.273 60.917-60.917 60.917s-60.917-27.273-60.917-60.917 27.273-60.917 60.917-60.917 60.917 27.273 60.917 60.917z" fill="#08856c"/><path d="m252.281 270.374c-.077-.264-.171-.519-.281-.763-9.488-25.303-33.925-43.361-62.5-43.361-19.579 0-37.216 8.477-49.431 21.955-.294.268-.562.568-.798.896-10.263 11.736-16.489 27.089-16.489 43.868 0 36.789 29.93 66.719 66.719 66.719s66.719-29.93 66.719-66.719c-.001-7.927-1.391-15.536-3.939-22.595zm-13.524-2.121c-12.356 3.957-23.779 9.935-33.887 17.552-1.499-1.637-3.034-3.238-4.607-4.802-3.312-3.294-6.788-6.426-10.409-9.383 6.857-9.369 12.131-19.983 15.439-31.46 14.617 4.377 26.703 14.673 33.464 28.093zm-49.257-30.4c1.455 0 2.898.057 4.325.168-2.926 9.688-7.44 18.661-13.246 26.622-8.158-5.641-16.888-10.446-25.993-14.292 9.513-7.806 21.676-12.498 34.914-12.498zm-55.115 55.116c0-12.647 4.281-24.312 11.471-33.623 9.643 3.682 18.776 8.497 27.228 14.273-10.432 10.94-23.637 19.205-38.528 23.713-.114-1.44-.171-2.895-.171-4.363zm2.316 15.828c17.789-5.141 33.507-15.007 45.725-28.177 4.776 3.916 9.281 8.159 13.474 12.691-14.208 13.183-25.041 29.947-31.116 48.914-13.408-6.755-23.698-18.827-28.083-33.428zm52.799 39.287c-4.779 0-9.418-.612-13.843-1.76 5.37-17.102 15.038-32.234 27.756-44.154 8.125 10.464 14.713 22.15 19.392 34.687-9.258 7.042-20.802 11.227-33.305 11.227zm42.362-19.894c-4.941-11.944-11.533-23.259-19.497-33.504 9.107-6.773 19.385-12.073 30.49-15.56 1.149 4.425 1.76 9.064 1.76 13.843 0 13.381-4.793 25.663-12.753 35.221z" fill="#026841"/><path d="m50.344 388.281h278.313v19.063h-270.836c-2.575-3.274-5.069-6.615-7.478-10.021v-9.042z" fill="#08856c"/></g></svg>