<svg id="Capa_1" enable-background="new 0 0 512 512" height="512" viewBox="0 0 512 512" width="512" xmlns="http://www.w3.org/2000/svg"><g><path d="m11.155 247.203c4.632-131.235 112.48-236.203 244.845-236.203s240.213 104.968 244.845 236.203z" fill="#fd4343"/><path d="m11.662 237.853h488.676c.439 5.992.662 12.043.662 18.147 0 83.251-41.523 156.804-104.988 201.078h-208.117c-65.528 0-125.636-37.401-153.595-96.664-14.944-31.675-23.3-67.069-23.3-104.414 0-6.104.223-12.155.662-18.147z" fill="#e43950"/><path d="m382.327 450-26.796-42.104c-1.611-2.532-5.531-1.391-5.531 1.611v40.493h-85.988v-145.071h85.988c31.094 1.968 58.426 22.056 69.656 51.449l32.944 86.23c1.363 3.567-1.271 7.392-5.089 7.392zm-349.268-92.999-.077.574c18.318 40.155 47.162 74.498 83.005 99.502v-152.148h-23.454c-30.073 0-55.501 22.263-59.474 52.072z" fill="#eabe8d"/><path d="m367.525 396.323 34.162 53.677h-19.36l-26.796-42.104c-1.611-2.532-5.531-1.391-5.531 1.611v40.493h-85.988v-145.071h65.313v55.096c0 18.768 15.214 33.982 33.982 33.982 1.71 0 3.301.874 4.218 2.316zm-311.491 1.269c-8.881-12.52-16.616-25.909-23.051-40.016l.077-.574c3.313-24.855 21.542-44.463 44.943-50.294-11.676 9.369-19.823 23.06-21.931 38.875z" fill="#e3ac6e"/><path d="m436.063 194.321c-5.573-.125-11.127-.724-16.598-1.787 4.859 5.904 9.81 11.334 14.819 16.125 5.987 5.726 1.684 16.348-5.49 20.49-22.672 13.09-48.403 16.085-71.987 10.38 4.335 4.339 8.888 8.318 13.611 11.917 2.488 1.896.76 5.856-2.325 5.341-27.866-4.654-53.511-21.268-68.74-47.645l-87.341-151.276c-2.009-3.48-2.465-7.429-1.584-11.047l-2.768-4.795c-4.142-7.174-1.684-16.348 5.49-20.49l19.871-11.472c35.872-20.711 81.741-8.42 102.452 27.452 0 0 18.204 47.611 44.772 95.506l15.461 19.649c12.073 15.343 26.486 27.453 41.897 36.035 2.733 1.521 1.587 5.688-1.54 5.617z" fill="#174550"/><path d="m250 15v10c0 8.284-6.716 15-15 15h-40c-8.284 0-15-6.716-15-15v-10c0-8.284 6.716-15 15-15h40c8.284 0 15 6.716 15 15z" fill="#314dc8"/><path d="m250 15v10c0 8.284-6.716 15-15 15h-10c-8.284 0-15-6.716-15-15v-10c0-8.284 6.716-15 15-15h10c8.284 0 15 6.716 15 15z" fill="#6c7fd7"/><path d="m352.091 444.939v36.5c-29.505 12.592-61.984 19.561-96.091 19.561-64.913 0-123.93-25.245-167.768-66.453 15.208-4.457 26.314-18.512 26.314-35.161v-94.457l100.454-27.336 100.455 27.335v94.457c0 17.556 12.349 32.228 28.834 35.804 4.569.991 7.802 5.075 7.802 9.75z" fill="#e3f0fb"/><path d="m157.167 391.602v88.646c-25.57-11.286-48.846-26.818-68.935-45.701 15.208-4.457 26.314-18.512 26.314-35.161v-37.291l29.456 10.711c7.903 2.874 13.165 10.386 13.165 18.796zm187.122 43.588c-16.486-3.576-28.834-18.248-28.834-35.804v-37.291l-29.456 10.711c-7.904 2.874-13.165 10.386-13.165 18.796v108.829c27.968-1.898 54.647-8.489 79.258-18.992v-36.5c-.001-4.675-3.234-8.759-7.803-9.749zm-185.289-142.359v27.762c0 30.375 24.624 55 55 55s55-24.625 55-55v-28.307l-54-14.693z" fill="#91cefb"/><path d="m340 157.593v20c0 11.046-8.954 20-20 20h-5c0 39.187-25.044 72.524-60 84.879v36.554c0 22.429-18.355 41.211-40.78 40.783-21.731-.416-39.22-18.162-39.22-39.993v-37.344c-34.956-12.355-60-45.692-60-84.879h-5c-11.046 0-20-8.954-20-20v-20c0-11.046 8.954-20 20-20h5c0-49.706 40.294-90 90-90h20c49.706 0 90 40.294 90 90h5c11.046 0 20 8.955 20 20z" fill="#eabe8d"/><path d="m107.594 197.45c-9.911-1.189-17.594-9.625-17.594-19.857v-20c0-10.231 7.683-18.668 17.594-19.856-1.651 2.909-2.594 6.273-2.594 9.856v40c0 3.584.943 6.948 2.594 9.857zm93.184 122.366v-32.32c-9.001-.416-17.657-2.153-25.778-5.024v37.344c0 22.091 17.909 40 40 40 4.51 0 8.845-.747 12.889-2.122-15.768-5.364-27.111-20.296-27.111-37.878z" fill="#e3ac6e"/><path d="m227 287.593c-48.601 0-88-39.399-88-88v-82c0-38.66 31.34-70 70-70h15.547c49.956 0 90.453 40.497 90.453 90.453v61.547c0 48.602-39.399 88-88 88z" fill="#f3d6ac"/><path d="m282.938 175.093c0 8.284-6.716 15-15 15s-15-6.716-15-15 6.716-15 15-15 15 6.716 15 15zm-122.875-15c-8.284 0-15 6.716-15 15s6.716 15 15 15 15-6.716 15-15-6.716-15-15-15z" fill="#533022"/><path d="m175.063 167.593c0 4.142-3.358 7.5-7.5 7.5s-7.5-3.358-7.5-7.5 3.358-7.5 7.5-7.5 7.5 3.358 7.5 7.5zm100.375-7.5c-4.142 0-7.5 3.358-7.5 7.5s3.358 7.5 7.5 7.5 7.5-3.358 7.5-7.5-3.358-7.5-7.5-7.5z" fill="#fff5f5"/><path d="m220.156 266.64h-10.313c-11.65 0-21.094-9.444-21.094-21.094 0-4.142 3.358-7.5 7.5-7.5h37.5c4.142 0 7.5 3.358 7.5 7.5.001 11.65-9.443 21.094-21.093 21.094zm-24.187-121.547c0 4.142-3.358 7.5-7.5 7.5h-37.5c-4.142 0-7.5-3.358-7.5-7.5s3.358-7.5 7.5-7.5h37.5c4.142 0 7.5 3.358 7.5 7.5zm83.062-7.5h-37.5c-4.142 0-7.5 3.358-7.5 7.5s3.358 7.5 7.5 7.5h37.5c4.142 0 7.5-3.358 7.5-7.5s-3.358-7.5-7.5-7.5z" fill="#e3ac6e"/><path d="m220.156 266.64c-11.65 0-21.094-9.444-21.094-21.094 0-4.142 3.358-7.5 7.5-7.5h27.188c4.142 0 7.5 3.358 7.5 7.5 0 11.65-9.444 21.094-21.094 21.094zm10.844-59.547c0 4.142-3.358 7.5-7.5 7.5h-1.27c-.875 3.171-3.78 5.5-7.23 5.5s-6.354-2.329-7.23-5.5h-1.27c-4.142 0-7.5-3.358-7.5-7.5s3.358-7.5 7.5-7.5h1v-24.5c0-4.142 3.358-7.5 7.5-7.5s7.5 3.358 7.5 7.5v24.5h1c4.142 0 7.5 3.358 7.5 7.5z" fill="#eabe8d"/><path d="m315 103.593h-176v10c0 13.255-10.745 24-24 24v-46c0-38.66 31.34-70 70-70h60c38.66 0 70 31.34 70 70z" fill="#174550"/><path d="m315 91.593v46c-13.255 0-24-10.745-24-24v-10h-152v-12c0-38.66 31.34-70 70-70h36c38.66 0 70 31.34 70 70z" fill="#024c67"/><path d="m321.917 75v41.102c0 2.761-2.239 5-5 5h-203.834c-2.761 0-5-2.239-5-5v-41.102c0-2.761 2.239-5 5-5h203.834c2.761 0 5 2.239 5 5z" fill="#bbe0fb"/><path d="m321.917 75v41.102c0 2.761-2.239 5-5 5h-180c-2.761 0-5-2.239-5-5v-41.102c0-2.761 2.239-5 5-5h180c2.761 0 5 2.239 5 5z" fill="#e3f0fb"/><path d="m321.917 105.551h-213.834v-20h213.834z" fill="#49b4fa"/><path d="m321.917 105.551h-190v-20h190z" fill="#91cefb"/><path d="m330 485c0 1.559-.031 3.111-.093 4.655-23.321 7.37-48.15 11.345-73.907 11.345-56.688 0-108.879-19.253-150.391-51.576 14.982-46.1 58.295-79.424 109.391-79.424 63.513 0 115 51.487 115 115z" fill="#fd7d43"/><path d="m272.062 385.133c-58.125 3.699-108.22 36.937-135.442 84.865-10.875-6.08-21.239-12.965-31.012-20.574 14.983-46.1 58.296-79.424 109.392-79.424 20.766 0 40.246 5.504 57.062 15.133z" fill="#f16b38"/><path d="m329.509 474.312c.324 3.52.491 7.084.491 10.688 0 1.04-.014 2.077-.042 3.11-26.331-10.485-50.487-26.322-71.117-46.952-1.321-1.321-2.623-2.657-3.905-4.007-10.375 6.282-20.267 13.284-29.609 20.935 10.806 11.998 18.174 26.542 21.829 42.757-4.37-.155-8.712-.424-13.021-.806-3.443-12.815-9.583-24.292-18.237-33.841-8.946 8.081-17.318 16.787-25.047 26.046-4.4-1.21-8.75-2.541-13.047-3.987 6.132-7.646 12.707-14.979 19.711-21.984 2.994-2.994 6.048-5.909 9.16-8.744-15.025-12.003-34.209-18.313-55.572-18.313-4.343 0-8.777.261-13.283.788-10.7 1.25-21.354 3.941-31.722 7.949 1.804-5.304 3.984-10.434 6.509-15.358 7.837-2.346 15.788-4.006 23.77-4.939 30.92-3.614 58.944 4.032 79.819 21.599 9.574-7.934 19.653-15.16 30.198-21.653-14.645-17.393-26.238-36.8-34.504-57.56 1.033-.027 2.07-.042 3.11-.042 3.604 0 7.169.167 10.688.491 8.019 18.511 18.773 35.573 31.749 50.672 8.099-4.464 16.449-8.516 25.037-12.145 4.559-1.927 9.158-3.722 13.793-5.385 3.195 3.191 6.204 6.57 9.008 10.118-13.569 4.578-26.631 10.27-39.075 16.965 17.956 18.353 39.426 33.251 63.309 43.598z" fill="#c64b1a"/><path d="m340 502c0 5.523-4.477 10-10 10h-40c-5.523 0-10-4.477-10-10v-40c0-5.523 4.477-10 10-10h10c0-5.523 4.477-10 10-10h20c4.664 0 8.582 3.193 9.688 7.512l113.085-6.373 5.364 21.947c4.4 18.004-8.469 36.044-26.984 36.883-.458.021-91.153.031-91.153.031z" fill="#eabe8d"/><path d="m302.375 512h-12.375c-5.523 0-10-4.477-10-10v-40c0-5.523 4.477-10 10-10h6.667s-4.292 1.167-4.292 8.625v41.375c0 5.523 4.477 10 10 10z" fill="#e3ac6e"/></g></svg>