<svg height="512" viewBox="0 0 501 501" width="512" xmlns="http://www.w3.org/2000/svg"><path d="M490 250.5c0 135.31-109.69 245-245 245-86.245 0-162.082-44.563-205.74-111.92C14.423 345.261.362 235.048 1.069 227.464 12.679 102.957 117.459 5.5 245 5.5c135.31 0 245 109.69 245 245z" fill="#22b27f"/><path d="M430.171 410.932a714.244 714.244 0 00-60.778-27.08c-30.011 44.278-71.967 79.268-121.031 99.968a8.657 8.657 0 01-6.724 0c-48.648-20.525-90.308-55.098-120.265-98.844A713.797 713.797 0 0060.062 411.2a245.913 245.913 0 01-20.802-27.621c-23.181-35.765 7.262-144.413 32.032-153.624a298.32 298.32 0 01.047-18.371c1.037-31.059 8.022-57.913 19.343-80.561 1.78-3.56 4.675-6.44 8.277-8.134 42.27-19.87 92.351-31.37 146.041-31.37s103.771 11.5 146.042 31.371c3.602 1.693 6.497 4.574 8.277 8.134 11.321 22.648 18.306 49.501 19.343 80.561a298.823 298.823 0 01.087 16.835c24.694 9.51 49.052 20.095 71.084 31.233-2.123 57.775-24.25 110.443-59.662 151.279z" fill="#08856c"/><path d="M224.274 196.409c1.231 0 2.462.004 3.692.011v163.637a756.97 756.97 0 00-3.692-.009c-63.582 0-126.069 8.021-185.011 23.536C14.424 345.264 0 299.566 0 250.5c0-7.768.362-15.452 1.069-23.036 63.363-20.409 156.579-31.055 223.205-31.055z" fill="#f19b0b"/><path d="M494.917 396.846c-71.456-24.186-149.462-36.797-229.191-36.797-1.231 0-2.462.003-3.692.009V196.42c1.23-.007 2.46-.011 3.692-.011 69.819 0 168.839 11.691 232.104 34.057 2.366.837 3.601 3.401 2.844 5.794-15.245 48.236-3.468 130.348.273 155.537.507 3.409-2.766 6.154-6.03 5.049zM1.371 227.368a243.395 243.395 0 0019.393 72.79c8.767 19.857 30.298 30.885 51.534 26.393 49.047-10.374 100.148-15.703 151.977-15.703 1.231 0 2.462.003 3.692.009V196.42c-1.23-.007-2.46-.011-3.692-.011-66.522 0-159.547 10.613-222.904 30.959z" fill="#f4aa39"/><path d="M500.675 236.261c-12.143 38.421-7.142 98.334-2.713 133.854-30.098-16.557-50.858-51.615-50.858-92.187 0-21.496 5.828-41.443 15.783-57.912 12.464 3.173 24.218 6.658 34.944 10.45 2.366.837 3.6 3.401 2.844 5.795z" fill="#fdbf43"/><path d="M245 65.22c53.69 0 103.771 11.5 146.042 31.371 3.602 1.693 6.497 4.574 8.277 8.134 11.321 22.648 18.306 49.501 19.343 80.56.11 3.302.166 6.619.166 9.949 0 118.559-70.471 220.099-170.466 262.287a8.666 8.666 0 01-6.724 0C141.643 415.333 71.172 313.793 71.172 195.234c0-3.33.056-6.647.166-9.949 1.037-31.059 8.022-57.913 19.343-80.56 1.78-3.56 4.675-6.441 8.277-8.134C141.229 76.719 191.31 65.22 245 65.22z" fill="#fdcb6b"/><path d="M354.362 377.74c-19.943 16.252-42.124 29.699-65.986 39.767a8.657 8.657 0 01-6.724 0c-99.995-42.189-170.466-143.729-170.466-262.288 0-3.33.056-6.647.166-9.949.714-21.383 4.247-40.773 10.073-58.169C158.552 73.106 200.538 65.219 245 65.219c53.69 0 103.771 11.5 146.042 31.371 3.602 1.693 6.497 4.573 8.277 8.134 11.321 22.648 18.306 49.501 19.343 80.56.11 3.302.166 6.619.166 9.949 0 69.538-24.243 133.22-64.466 182.507z" fill="#f5dc90"/><path d="M88.865 185.871c-1.321-32.001 11.271-60.765 15.907-70.184a9.943 9.943 0 014.785-4.677C150.173 92.516 196.92 82.756 245 82.756c48.334 0 95.322 9.864 136.055 28.529a9.89 9.89 0 014.227 3.686c4.751 7.47 17.511 31.415 15.852 70.901-.13 3.1.157 6.25.157 9.362 0 107.283-61.217 202.885-156.291 244.642-95.075-41.758-156.291-137.359-156.291-244.642 0-3.109.284-6.26.156-9.363z" fill="#fc5426"/><path d="M353.391 350.251a262.781 262.781 0 01-10.564 14.209 143.068 143.068 0 01-13.03-14.338c-23.583-29.698-36.571-69.066-36.571-110.854s12.988-81.156 36.571-110.854c8.4-10.578 17.789-19.496 27.915-26.624a294.976 294.976 0 0120.262 8.104c-39.447 21.256-67.212 71.242-67.212 129.374 0 45.103 16.713 85.301 42.629 110.983zM236.232 82.865v352.962a259.446 259.446 0 008.768 4.05 253.826 253.826 0 008.768-4.05V82.865a355.337 355.337 0 00-17.536 0zm-103.94 18.929a295.078 295.078 0 00-20.262 8.104c39.445 21.258 67.208 71.242 67.208 129.371 0 45.102-16.714 85.301-42.629 110.983a263.176 263.176 0 0010.564 14.209 143.068 143.068 0 0013.03-14.338c23.584-29.698 36.572-69.066 36.572-110.854s-12.988-81.156-36.572-110.854c-8.399-10.577-17.787-19.493-27.911-26.621z" fill="#c64b1a"/><path d="M244.998 211.643c64.587 0 127.784-10.173 185.712-29.688 3.22-1.085 6.566 1.309 6.582 4.707l.003 1.482c0 43.91-8.738 85.709-24.515 123.641a9.893 9.893 0 01-5.784 5.498c-50.174 18.045-105.442 27.475-161.999 27.475-56.563 0-111.838-9.433-161.991-27.466a9.895 9.895 0 01-5.785-5.498c-15.778-37.934-24.518-79.736-24.518-123.649 0-.492.001-.983.003-1.474.015-3.398 3.361-5.792 6.582-4.707 57.91 19.503 121.115 29.679 185.71 29.679z" fill="#fdbf43"/><path d="M411.427 221.611l-.019.184c-.347 3.327-2.596 6.164-5.779 7.191-50.319 16.244-104.897 24.698-160.631 24.698-55.739 0-110.323-8.457-160.626-24.691-3.183-1.027-5.432-3.865-5.779-7.191l-.019-.185c-.624-6.01 5.121-10.723 10.891-8.931 48.885 15.182 101.67 23.079 155.534 23.079 53.858 0 106.637-7.896 155.537-23.085 5.77-1.793 11.514 2.921 10.891 8.931zm-25.276 61.111c-44.798 12.425-92.536 18.858-141.152 18.858-48.62 0-96.361-6.434-141.148-18.853-6.514-1.806-12.38 4.322-10.327 10.762l.121.38a8.396 8.396 0 005.675 5.498c46.092 13.256 95.416 20.133 145.679 20.133 50.26 0 99.58-6.876 145.684-20.139a8.4 8.4 0 005.675-5.498l.121-.379c2.053-6.44-3.814-12.569-10.328-10.762zm9.15-35.541c-47.422 14.148-98.361 21.492-150.302 21.492-51.946 0-102.889-7.345-150.299-21.486-6.101-1.82-11.979 3.514-10.703 9.751l.053.26c.621 3.027 2.806 5.507 5.757 6.421 48.789 15.113 101.453 22.973 155.191 22.973 53.733 0 106.392-7.859 155.196-22.98 2.951-.914 5.135-3.395 5.757-6.421l.053-.259c1.276-6.238-4.602-11.571-10.703-9.751z" fill="#fdcb6b"/><path d="M341.957 270.396c0 53.548-43.409 96.957-96.957 96.957s-96.957-43.409-96.957-96.957 43.409-96.957 96.957-96.957 96.957 43.409 96.957 96.957z" fill="#f5c02c"/><path d="M341.957 270.396c0 17.286-4.524 33.515-12.452 47.569-14.054 7.928-30.283 12.452-47.569 12.452-53.548 0-96.957-43.409-96.957-96.957 0-17.286 4.524-33.515 12.452-47.569 14.054-7.928 30.283-12.452 47.569-12.452 53.548 0 96.957 43.409 96.957 96.957z" fill="#f1ca50"/><path d="M344.922 234.431a9.438 9.438 0 00-.444-1.208c-15.099-40.275-53.995-69.018-99.478-69.018-31.163 0-59.234 13.493-78.677 34.945a9.156 9.156 0 00-1.27 1.427c-16.334 18.68-26.243 43.114-26.243 69.82 0 58.554 47.637 106.191 106.191 106.191s106.191-47.637 106.191-106.191c-.001-12.619-2.213-24.729-6.27-35.966zm-21.524-3.374a181.655 181.655 0 00-53.936 27.936 227.029 227.029 0 00-23.9-22.578 159.597 159.597 0 0024.573-50.073c23.266 6.97 42.502 23.357 53.263 44.715zM245 182.673c2.316 0 4.612.091 6.884.268a141.158 141.158 0 01-21.082 42.373 230.725 230.725 0 00-41.371-22.747c15.14-12.427 34.499-19.894 55.569-19.894zm-87.723 87.723c0-20.128 6.815-38.695 18.257-53.514 15.348 5.861 29.885 13.524 43.336 22.716a141.276 141.276 0 01-61.321 37.742 88.665 88.665 0 01-.272-6.944zm3.686 25.193a159.737 159.737 0 0072.777-44.847 214.612 214.612 0 0121.446 20.199 181.858 181.858 0 00-49.525 77.853c-21.34-10.752-37.718-29.966-44.698-53.205zM245 358.119c-7.607 0-14.99-.973-22.032-2.802a163.383 163.383 0 0144.177-70.277c12.932 16.655 23.418 35.255 30.864 55.208-14.735 11.21-33.109 17.871-53.009 17.871zm67.425-31.665c-7.864-19.01-18.356-37.019-31.032-53.325a163.213 163.213 0 0148.528-24.766 87.597 87.597 0 012.802 22.033c0 21.297-7.629 40.846-20.298 56.058zM246.941 98.756l7.621 15.442a2.163 2.163 0 001.63 1.184l17.041 2.476c1.775.258 2.484 2.44 1.2 3.692l-12.331 12.02a2.167 2.167 0 00-.623 1.916l2.911 16.972c.303 1.768-1.553 3.117-3.141 2.282l-15.242-8.013a2.163 2.163 0 00-2.015 0l-15.242 8.013c-1.588.835-3.444-.514-3.141-2.282l2.911-16.972a2.164 2.164 0 00-.623-1.916l-12.331-12.02c-1.285-1.252-.576-3.434 1.2-3.692l17.041-2.476a2.163 2.163 0 001.63-1.184l7.621-15.442c.795-1.609 3.089-1.609 3.883 0z" fill="#f7e6b0"/><path d="M197.847 147.367l-9.889 5.408a1.994 1.994 0 00-.795.795l-5.408 9.889c-.759 1.387-2.751 1.387-3.509 0l-5.409-9.889a1.994 1.994 0 00-.795-.795l-9.889-5.408c-1.387-.759-1.387-2.751 0-3.51l9.889-5.408c.336-.183.612-.459.795-.795l5.409-9.889c.759-1.387 2.751-1.387 3.509 0l5.408 9.889a2 2 0 00.795.795l9.889 5.408c1.387.76 1.387 2.752 0 3.51zm130-3.509l-9.889-5.408a1.988 1.988 0 01-.795-.795l-5.408-9.889c-.759-1.387-2.751-1.387-3.509 0l-5.408 9.889a2 2 0 01-.795.795l-9.889 5.408c-1.387.759-1.387 2.751 0 3.51l9.889 5.408c.336.184.612.459.795.795l5.408 9.889c.759 1.387 2.751 1.387 3.509 0l5.408-9.889a2 2 0 01.795-.795l9.889-5.408c1.387-.759 1.387-2.751 0-3.51z" fill="#fdcb6b"/></svg>