<svg id="Capa_1" enable-background="new 0 0 501 501" height="512" viewBox="0 0 501 501" width="512" xmlns="http://www.w3.org/2000/svg"><g><path d="m490 250.5c0 135.31-109.69 245-245 245-86.245 0-162.082-44.563-205.74-111.92-24.837-38.319-38.898-148.532-38.191-156.116 11.61-124.507 116.39-221.964 243.931-221.964 135.31 0 245 109.69 245 245z" fill="#22b27f"/><path d="m430.171 410.932c-19.656-9.889-39.95-18.932-60.778-27.08-30.011 44.278-71.967 79.268-121.031 99.968-2.146.906-4.578.906-6.724 0-48.648-20.525-90.308-55.098-120.265-98.844-20.995 7.85-41.468 16.607-61.311 26.224-7.558-8.691-14.514-17.919-20.802-27.621-23.181-35.765 7.262-144.413 32.032-153.624-.079-2.797-.119-5.605-.119-8.422 0-3.33.056-6.647.166-9.949 1.037-31.059 8.022-57.913 19.343-80.561 1.78-3.56 4.675-6.44 8.277-8.134 42.27-19.87 92.351-31.37 146.041-31.37s103.771 11.5 146.042 31.371c3.602 1.693 6.497 4.574 8.277 8.134 11.321 22.648 18.306 49.501 19.343 80.561.11 3.302.166 6.619.166 9.949 0 2.302-.027 4.597-.079 6.886 24.694 9.51 49.052 20.095 71.084 31.233-2.123 57.775-24.25 110.443-59.662 151.279z" fill="#08856c"/><path d="m224.274 196.409c1.231 0 2.462.004 3.692.011v163.637c-1.23-.006-2.461-.009-3.692-.009-63.582 0-126.069 8.021-185.011 23.536-24.839-38.32-39.263-84.018-39.263-133.084 0-7.768.362-15.452 1.069-23.036 63.363-20.409 156.579-31.055 223.205-31.055z" fill="#f19b0b"/><path d="m494.917 396.846c-71.456-24.186-149.462-36.797-229.191-36.797-1.231 0-2.462.003-3.692.009v-163.638c1.23-.007 2.46-.011 3.692-.011 69.819 0 168.839 11.691 232.104 34.057 2.366.837 3.601 3.401 2.844 5.794-15.245 48.236-3.468 130.348.273 155.537.507 3.409-2.766 6.154-6.03 5.049zm-493.546-169.478c2.713 25.652 9.385 50.123 19.393 72.79 8.767 19.857 30.298 30.885 51.534 26.393 49.047-10.374 100.148-15.703 151.977-15.703 1.231 0 2.462.003 3.692.009v-114.437c-1.23-.007-2.46-.011-3.692-.011-66.522 0-159.547 10.613-222.904 30.959z" fill="#f4aa39"/><path d="m500.675 236.261c-12.143 38.421-7.142 98.334-2.713 133.854-30.098-16.557-50.858-51.615-50.858-92.187 0-21.496 5.828-41.443 15.783-57.912 12.464 3.173 24.218 6.658 34.944 10.45 2.366.837 3.6 3.401 2.844 5.795z" fill="#fdbf43"/><path d="m245 65.22c53.69 0 103.771 11.5 146.042 31.371 3.602 1.693 6.497 4.574 8.277 8.134 11.321 22.648 18.306 49.501 19.343 80.56.11 3.302.166 6.619.166 9.949 0 118.559-70.471 220.099-170.466 262.287-2.146.905-4.578.905-6.724 0-99.995-42.188-170.466-143.728-170.466-262.287 0-3.33.056-6.647.166-9.949 1.037-31.059 8.022-57.913 19.343-80.56 1.78-3.56 4.675-6.441 8.277-8.134 42.271-19.872 92.352-31.371 146.042-31.371z" fill="#fdcb6b"/><path d="m354.362 377.74c-19.943 16.252-42.124 29.699-65.986 39.767-2.146.906-4.578.906-6.724 0-99.995-42.189-170.466-143.729-170.466-262.288 0-3.33.056-6.647.166-9.949.714-21.383 4.247-40.773 10.073-58.169 37.127-13.995 79.113-21.882 123.575-21.882 53.69 0 103.771 11.5 146.042 31.371 3.602 1.693 6.497 4.573 8.277 8.134 11.321 22.648 18.306 49.501 19.343 80.56.11 3.302.166 6.619.166 9.949 0 69.538-24.243 133.22-64.466 182.507z" fill="#f5dc90"/><path d="m88.865 185.871c-1.321-32.001 11.271-60.765 15.907-70.184 1.015-2.062 2.694-3.725 4.785-4.677 40.616-18.494 87.363-28.254 135.443-28.254 48.334 0 95.322 9.864 136.055 28.529 1.736.795 3.202 2.075 4.227 3.686 4.751 7.47 17.511 31.415 15.852 70.901-.13 3.1.157 6.25.157 9.362 0 107.283-61.217 202.885-156.291 244.642-95.075-41.758-156.291-137.359-156.291-244.642 0-3.109.284-6.26.156-9.363z" fill="#fc5426"/><path d="m353.391 350.251c-3.363 4.856-6.886 9.596-10.564 14.209-4.561-4.371-8.914-9.155-13.03-14.338-23.583-29.698-36.571-69.066-36.571-110.854s12.988-81.156 36.571-110.854c8.4-10.578 17.789-19.496 27.915-26.624 6.899 2.47 13.66 5.173 20.262 8.104-39.447 21.256-67.212 71.242-67.212 129.374 0 45.103 16.713 85.301 42.629 110.983zm-117.159-267.386v352.962c2.89 1.401 5.813 2.751 8.768 4.05 2.956-1.298 5.879-2.648 8.768-4.05v-352.962c-2.917-.072-5.84-.109-8.768-.109s-5.851.037-8.768.109zm-103.94 18.929c-6.898 2.47-13.658 5.172-20.262 8.104 39.445 21.258 67.208 71.242 67.208 129.371 0 45.102-16.714 85.301-42.629 110.983 3.363 4.856 6.886 9.595 10.564 14.209 4.561-4.371 8.914-9.155 13.03-14.338 23.584-29.698 36.572-69.066 36.572-110.854s-12.988-81.156-36.572-110.854c-8.399-10.577-17.787-19.493-27.911-26.621z" fill="#c64b1a"/><path d="m244.998 211.643c64.587 0 127.784-10.173 185.712-29.688 3.22-1.085 6.566 1.309 6.582 4.707.002.494.003.988.003 1.482 0 43.91-8.738 85.709-24.515 123.641-1.066 2.562-3.173 4.559-5.784 5.498-50.174 18.045-105.442 27.475-161.999 27.475-56.563 0-111.838-9.433-161.991-27.466-2.611-.939-4.719-2.936-5.785-5.498-15.778-37.934-24.518-79.736-24.518-123.649 0-.492.001-.983.003-1.474.015-3.398 3.361-5.792 6.582-4.707 57.91 19.503 121.115 29.679 185.71 29.679z" fill="#fdbf43"/><path d="m411.427 221.611c-.006.061-.013.123-.019.184-.347 3.327-2.596 6.164-5.779 7.191-50.319 16.244-104.897 24.698-160.631 24.698-55.739 0-110.323-8.457-160.626-24.691-3.183-1.027-5.432-3.865-5.779-7.191-.006-.062-.013-.123-.019-.185-.624-6.01 5.121-10.723 10.891-8.931 48.885 15.182 101.67 23.079 155.534 23.079 53.858 0 106.637-7.896 155.537-23.085 5.77-1.793 11.514 2.921 10.891 8.931zm-25.276 61.111c-44.798 12.425-92.536 18.858-141.152 18.858-48.62 0-96.361-6.434-141.148-18.853-6.514-1.806-12.38 4.322-10.327 10.762.04.126.081.253.121.38.852 2.662 2.989 4.726 5.675 5.498 46.092 13.256 95.416 20.133 145.679 20.133 50.26 0 99.58-6.876 145.684-20.139 2.686-.773 4.823-2.837 5.675-5.498.04-.126.081-.253.121-.379 2.053-6.44-3.814-12.569-10.328-10.762zm9.15-35.541c-47.422 14.148-98.361 21.492-150.302 21.492-51.946 0-102.889-7.345-150.299-21.486-6.101-1.82-11.979 3.514-10.703 9.751.018.087.035.173.053.26.621 3.027 2.806 5.507 5.757 6.421 48.789 15.113 101.453 22.973 155.191 22.973 53.733 0 106.392-7.859 155.196-22.98 2.951-.914 5.135-3.395 5.757-6.421.018-.086.035-.173.053-.259 1.276-6.238-4.602-11.571-10.703-9.751z" fill="#fdcb6b"/><path d="m341.957 270.396c0 53.548-43.409 96.957-96.957 96.957s-96.957-43.409-96.957-96.957 43.409-96.957 96.957-96.957 96.957 43.409 96.957 96.957z" fill="#f5c02c"/><path d="m341.957 270.396c0 17.286-4.524 33.515-12.452 47.569-14.054 7.928-30.283 12.452-47.569 12.452-53.548 0-96.957-43.409-96.957-96.957 0-17.286 4.524-33.515 12.452-47.569 14.054-7.928 30.283-12.452 47.569-12.452 53.548 0 96.957 43.409 96.957 96.957z" fill="#f1ca50"/><path d="m344.922 234.431c-.122-.418-.271-.821-.444-1.208-15.099-40.275-53.995-69.018-99.478-69.018-31.163 0-59.234 13.493-78.677 34.945-.468.426-.894.904-1.27 1.427-16.334 18.68-26.243 43.114-26.243 69.82 0 58.554 47.637 106.191 106.191 106.191s106.191-47.637 106.191-106.191c-.001-12.619-2.213-24.729-6.27-35.966zm-21.524-3.374c-19.665 6.298-37.847 15.812-53.936 27.936-2.385-2.605-4.83-5.154-7.333-7.644-5.271-5.243-10.804-10.228-16.567-14.934 10.913-14.912 19.307-31.805 24.573-50.073 23.266 6.97 42.502 23.357 53.263 44.715zm-78.398-48.384c2.316 0 4.612.091 6.884.268-4.656 15.419-11.843 29.701-21.082 42.373-12.985-8.978-26.879-16.625-41.371-22.747 15.14-12.427 34.499-19.894 55.569-19.894zm-87.723 87.723c0-20.128 6.815-38.695 18.257-53.514 15.348 5.861 29.885 13.524 43.336 22.716-16.604 17.412-37.622 30.568-61.321 37.742-.18-2.292-.272-4.607-.272-6.944zm3.686 25.193c28.314-8.182 53.33-23.885 72.777-44.847 7.603 6.233 14.771 12.986 21.446 20.199-22.614 20.982-39.856 47.664-49.525 77.853-21.34-10.752-37.718-29.966-44.698-53.205zm84.037 62.53c-7.607 0-14.99-.973-22.032-2.802 8.547-27.22 23.934-51.305 44.177-70.277 12.932 16.655 23.418 35.255 30.864 55.208-14.735 11.21-33.109 17.871-53.009 17.871zm67.425-31.665c-7.864-19.01-18.356-37.019-31.032-53.325 14.495-10.781 30.853-19.216 48.528-24.766 1.828 7.043 2.802 14.426 2.802 22.033 0 21.297-7.629 40.846-20.298 56.058z" fill="#f7e6b0"/><path d="m246.941 98.756 7.621 15.442c.315.639.925 1.082 1.63 1.184l17.041 2.476c1.775.258 2.484 2.44 1.2 3.692l-12.331 12.02c-.51.497-.743 1.214-.623 1.916l2.911 16.972c.303 1.768-1.553 3.117-3.141 2.282l-15.242-8.013c-.631-.332-1.384-.332-2.015 0l-15.242 8.013c-1.588.835-3.444-.514-3.141-2.282l2.911-16.972c.12-.702-.112-1.419-.623-1.916l-12.331-12.02c-1.285-1.252-.576-3.434 1.2-3.692l17.041-2.476c.705-.102 1.315-.545 1.63-1.184l7.621-15.442c.795-1.609 3.089-1.609 3.883 0z" fill="#f7e6b0"/><path d="m197.847 147.367-9.889 5.408c-.336.184-.612.459-.795.795l-5.408 9.889c-.759 1.387-2.751 1.387-3.509 0l-5.409-9.889c-.183-.336-.459-.611-.795-.795l-9.889-5.408c-1.387-.759-1.387-2.751 0-3.51l9.889-5.408c.336-.183.612-.459.795-.795l5.409-9.889c.759-1.387 2.751-1.387 3.509 0l5.408 9.889c.184.336.459.611.795.795l9.889 5.408c1.387.76 1.387 2.752 0 3.51zm130-3.509-9.889-5.408c-.336-.183-.612-.459-.795-.795l-5.408-9.889c-.759-1.387-2.751-1.387-3.509 0l-5.408 9.889c-.184.336-.459.611-.795.795l-9.889 5.408c-1.387.759-1.387 2.751 0 3.51l9.889 5.408c.336.184.612.459.795.795l5.408 9.889c.759 1.387 2.751 1.387 3.509 0l5.408-9.889c.184-.336.459-.611.795-.795l9.889-5.408c1.387-.759 1.387-2.751 0-3.51z" fill="#fdcb6b"/></g></svg>