<svg height="512" viewBox="0 0 501 501" width="512" xmlns="http://www.w3.org/2000/svg"><path d="M490 256c0 135.31-109.69 245-245 245S0 391.31 0 256 109.69 11 245 11s245 109.69 245 245z" fill="#63bcfa"/><path d="M490 256c0 44.646-11.942 86.503-32.806 122.55-36.048 20.864-77.904 32.806-122.55 32.806-135.31 0-245-109.69-245-245 0-44.646 11.942-86.503 32.806-122.55C158.497 22.942 200.354 11 245 11c135.31 0 245 109.69 245 245z" fill="#91cefb"/><path d="M99 265v187.765a246.314 246.314 0 01-30-26.328V265a5 5 0 015-5h20a5 5 0 015 5z" fill="#ce9047"/><path d="M84 400c-8.284 0-15-6.716-15-15V15c0-8.284 6.716-15 15-15 8.284 0 15 6.716 15 15v370c0 8.284-6.716 15-15 15z" fill="#dca050"/><path d="M99 319.08H69v-300h30l326.769 136.154c12.308 5.128 12.308 22.564 0 27.692z" fill="#fc5426"/><path d="M99 319.08H69v-300h30zm160-149.54c0 35.899-29.101 65-65 65s-65-29.101-65-65 29.101-65 65-65 65 29.102 65 65z" fill="#d63d24"/><path d="M224.654 94.918l13.999 25.596a5.172 5.172 0 002.058 2.058l25.596 13.999c3.59 1.964 3.59 7.12 0 9.084l-25.596 13.999a5.172 5.172 0 00-2.058 2.058l-13.999 25.596c-1.964 3.59-7.12 3.59-9.084 0l-13.999-25.596a5.172 5.172 0 00-2.058-2.058l-25.596-13.999c-3.59-1.964-3.59-7.12 0-9.084l25.596-13.999a5.172 5.172 0 002.058-2.058l13.999-25.596c1.964-3.591 7.121-3.591 9.084 0z" fill="#fdbf43"/><path d="M153.287 174.868l8.117 14.841c.275.504.69.918 1.193 1.193l14.841 8.117c2.082 1.139 2.082 4.128 0 5.267l-14.841 8.117c-.504.275-.918.69-1.193 1.193l-8.117 14.841c-1.139 2.082-4.128 2.082-5.267 0l-8.117-14.841a2.997 2.997 0 00-1.193-1.193l-14.841-8.117c-2.082-1.139-2.082-4.128 0-5.267l14.841-8.117c.504-.275.918-.69 1.193-1.193l8.117-14.841c1.139-2.081 4.128-2.081 5.267 0z" fill="#f7e6b0"/><path d="M220.082 342.541v157.207A244.76 244.76 0 01195 495.894V342.541c0-6.926 5.615-12.541 12.541-12.541s12.541 5.615 12.541 12.541z" fill="#174550"/><path d="M207.541 460c-6.926 0-12.541-5.615-12.541-12.541V166.148c0-6.926 5.615-12.541 12.541-12.541s12.541 5.615 12.541 12.541v281.311c0 6.926-5.615 12.541-12.541 12.541z" fill="#235967"/><path d="M220.082 420.378H195v-250.82h25.082l273.201 113.834c10.29 4.288 10.29 18.865 0 23.153z" fill="#6c7fd7"/><path d="M220.082 420.378H195v-250.82h25.082zM353.852 295.353c0 30.014-24.331 54.344-54.344 54.344-30.014 0-54.344-24.331-54.344-54.344s24.331-54.344 54.344-54.344c30.014 0 54.344 24.331 54.344 54.344z" fill="#314dc8"/><path d="M329.706 233.194l12.901 23.589a4.77 4.77 0 001.896 1.896l23.589 12.901c3.309 1.81 3.309 6.562 0 8.371l-23.589 12.901a4.77 4.77 0 00-1.896 1.896l-12.901 23.589c-1.81 3.309-6.562 3.309-8.371 0l-12.901-23.589a4.77 4.77 0 00-1.896-1.896l-23.589-12.901c-3.309-1.81-3.309-6.562 0-8.371l23.589-12.901a4.77 4.77 0 001.896-1.896l12.901-23.589c1.809-3.308 6.561-3.308 8.371 0z" fill="#e3f0fb"/></svg>