<svg height="512" viewBox="0 0 501 501" width="512" xmlns="http://www.w3.org/2000/svg"><path d="M495.5 256c0 135.31-109.69 245-245 245S5.5 391.31 5.5 256s109.69-245 245-245 245 109.69 245 245z" fill="#91cefb"/><path d="M487.056 320C458.914 424.272 363.668 501 250.5 501S42.086 424.272 13.944 320z" fill="#63bcfa"/><path d="M494.94 272.698c-2.448 36.372-12.834 70.568-29.44 100.871V275a5 5 0 015-5h20a5 5 0 014.44 2.698zM440.5 155h-20a5 5 0 00-5 5v277.109a246.401 246.401 0 0030-32.764V160a5 5 0 00-5-5zm-360 40h-20a5 5 0 00-5 5v204.346a246.401 246.401 0 0030 32.764V200a5 5 0 00-5-5zm-50 35h-20c-1.53 0-2.9.688-3.817 1.771A247.942 247.942 0 005.5 255.962v.075c.006 42.59 10.881 82.642 30 117.531V235a5 5 0 00-5-5z" fill="#6caac9"/><path d="M119.5 0h262c8.284 0 15 6.716 15 15v418c0 8.284-6.716 15-15 15h-262c-8.284 0-15-6.716-15-15V15c0-8.284 6.716-15 15-15z" fill="#172a7d"/><path d="M381.5 0h-212c-8.284 0-15 6.716-15 15v418c0 8.284 6.716 15 15 15h212c8.284 0 15-6.716 15-15V15c0-8.284-6.716-15-15-15zm-131 36.667c-5.523 0-10-4.478-10-10 0-5.523 4.477-10 10-10s10 4.477 10 10c0 5.522-4.477 10-10 10z" fill="#2740af"/><path d="M144.5 50h212c5.523 0 10 4.477 10 10v390c0 5.523-4.477 10-10 10h-212c-5.523 0-10-4.477-10-10V60c0-5.523 4.477-10 10-10z" fill="#ffe899"/><path d="M154.5 50h207a5 5 0 015 5v405h-212z" fill="#f9eecf"/><path d="M184.5 80c0 5.523-4.477 10-10 10h-.623c-5.523 0-10-4.477-10-10s4.477-10 10-10h.623c5.523 0 10 4.477 10 10zm150.624-10h-.624c-5.523 0-10 4.477-10 10s4.477 10 10 10h.624c5.523 0 10-4.477 10-10s-4.478-10-10-10zM250.5 245.47c-5.523 0-10 4.477-10 10 0 5.522 4.477 10 10 10s10-4.478 10-10c0-5.523-4.477-10-10-10zm0 40c-5.523 0-10 4.477-10 10 0 5.522 4.477 10 10 10s10-4.478 10-10c0-5.523-4.477-10-10-10z" fill="#fbc56d"/><path d="M104.5 420h292v32.765C355.725 483.07 305.207 501 250.5 501s-105.225-17.93-146-48.235z" fill="#2740af"/><path d="M154.5 420v61.477c29.481 12.568 61.928 19.523 96 19.523 54.707 0 105.225-17.93 146-48.235V420zm121 50h-50c-5.523 0-10-4.477-10-10s4.477-10 10-10h50c5.523 0 10 4.477 10 10s-4.477 10-10 10z" fill="#4f66cf"/><path d="M208.877 390h-35c-5.523 0-10-4.477-10-10s4.477-10 10-10h35c5.523 0 10 4.477 10 10s-4.477 10-10 10zm10-50c0-5.523-4.477-10-10-10h-35c-5.523 0-10 4.477-10 10s4.477 10 10 10h35c5.523 0 10-4.477 10-10zm-53.165-93.548a3.116 3.116 0 00-1.455 1.429c-1.99 3.98-3.217 8.699-3.399 14.157-.019.58-.029 1.163-.029 1.748 0 20.835 12.384 38.679 29.957 46.094.377.159.805.159 1.182 0 17.573-7.414 29.957-25.258 29.957-46.094 0-.585-.01-1.168-.029-1.748-.182-5.458-1.41-10.177-3.399-14.157a3.107 3.107 0 00-1.455-1.429c-7.428-3.492-16.23-5.513-25.665-5.513-9.436 0-18.237 2.021-25.665 5.513z" fill="#22b27f"/><path d="M192.628 309.596a65.53 65.53 0 01-.66.285 1.524 1.524 0 01-1.182 0c-17.573-7.414-29.957-25.258-29.957-46.094 0-.585.01-1.168.029-1.748.182-5.458 1.41-10.177 3.399-14.157a3.107 3.107 0 011.455-1.429c5.736-2.697 12.292-4.516 19.325-5.205a202.576 202.576 0 00-.116 4.429c-.019 1.287-.029 2.58-.029 3.878 0 22.141 2.842 42.759 7.736 60.041z" fill="#059b7e"/><path d="M327.124 390h-35c-5.523 0-10-4.477-10-10s4.477-10 10-10h35c5.523 0 10 4.477 10 10s-4.478 10-10 10zm10-50c0-5.523-4.477-10-10-10h-35c-5.523 0-10 4.477-10 10s4.477 10 10 10h35c5.522 0 10-4.477 10-10zm-53.165-93.548a3.116 3.116 0 00-1.455 1.429c-1.99 3.98-3.217 8.699-3.399 14.157-.019.58-.029 1.163-.029 1.748 0 20.835 12.384 38.679 29.957 46.094.377.159.805.159 1.182 0 17.573-7.414 29.957-25.258 29.957-46.094 0-.585-.01-1.168-.029-1.748-.182-5.458-1.41-10.177-3.399-14.157a3.107 3.107 0 00-1.455-1.429c-7.428-3.492-16.23-5.513-25.665-5.513s-18.237 2.021-25.665 5.513z" fill="#fc6930"/><path d="M310.874 309.596a65.53 65.53 0 01-.66.285 1.524 1.524 0 01-1.182 0c-17.573-7.414-29.957-25.258-29.957-46.094 0-.585.01-1.168.029-1.748.182-5.458 1.41-10.177 3.399-14.157a3.107 3.107 0 011.455-1.429c5.736-2.697 12.292-4.516 19.325-5.205a202.576 202.576 0 00-.116 4.429c-.019 1.287-.029 2.58-.029 3.878.001 22.141 2.843 42.759 7.736 60.041z" fill="#ee4424"/><path d="M314.413 150c0 35.298-28.615 63.913-63.913 63.913S186.587 185.298 186.587 150s28.615-63.913 63.913-63.913 63.913 28.615 63.913 63.913z" fill="#fc6930"/><path d="M316.368 126.294a6.116 6.116 0 00-.295-.801C306.12 98.946 280.481 80 250.5 80c-20.542 0-39.046 8.895-51.862 23.035a6.06 6.06 0 00-.837.94c-10.768 12.313-17.3 28.42-17.3 46.025 0 38.598 31.402 70 70 70s70-31.402 70-70a69.699 69.699 0 00-4.133-23.706zm-14.189-2.226a119.734 119.734 0 00-35.554 18.415A150.04 150.04 0 00250.87 127.6a105.215 105.215 0 0016.199-33.007c15.336 4.594 28.017 15.396 35.11 29.475zM250.5 92.174c1.527 0 3.04.06 4.538.177a93.015 93.015 0 01-13.897 27.932 152.078 152.078 0 00-27.271-14.994c9.98-8.193 22.741-13.115 36.63-13.115zM192.674 150c0-13.269 4.492-25.507 12.035-35.276a137.744 137.744 0 0128.567 14.975 93.123 93.123 0 01-40.422 24.878 58.242 58.242 0 01-.18-4.577zm2.43 16.607a105.302 105.302 0 0047.974-29.563 141.435 141.435 0 0114.137 13.315 119.872 119.872 0 00-32.646 51.32c-14.068-7.088-24.864-19.753-29.465-35.072zm55.396 41.219c-5.014 0-9.881-.642-14.523-1.847a107.694 107.694 0 0129.121-46.326c8.525 10.979 15.437 23.24 20.345 36.393-9.713 7.39-21.825 11.78-34.943 11.78zm44.446-20.873c-5.184-12.531-12.1-24.402-20.456-35.151a107.588 107.588 0 0131.99-16.325A57.734 57.734 0 01308.327 150c-.001 14.039-5.03 26.926-13.381 36.953z" fill="#ee4424"/><path d="M192.582 253.793l4.732 9.588c.196.397.574.672 1.012.735l10.581 1.538c1.102.16 1.543 1.515.745 2.293l-7.657 7.463a1.347 1.347 0 00-.387 1.19l1.807 10.538c.188 1.098-.964 1.935-1.95 1.417l-9.464-4.976a1.343 1.343 0 00-1.251 0l-9.464 4.976c-.986.518-2.138-.319-1.95-1.417l1.807-10.538a1.344 1.344 0 00-.387-1.19l-7.657-7.463c-.798-.778-.358-2.132.745-2.293l10.581-1.538a1.346 1.346 0 001.012-.735l4.732-9.588c.495-.999 1.92-.999 2.413 0zm115.836 0l-4.732 9.588a1.342 1.342 0 01-1.012.735l-10.581 1.538c-1.102.16-1.543 1.515-.745 2.293l7.657 7.463c.317.309.461.754.387 1.19l-1.807 10.538c-.188 1.098.964 1.935 1.95 1.417l9.464-4.976a1.343 1.343 0 011.251 0l9.464 4.976c.986.518 2.138-.319 1.95-1.417l-1.807-10.538c-.075-.436.07-.881.387-1.19l7.657-7.463c.798-.778.358-2.132-.745-2.293l-10.581-1.538a1.346 1.346 0 01-1.012-.735l-4.732-9.588c-.495-.999-1.92-.999-2.413 0z" fill="#fdf385"/></svg>