<svg id="Capa_1" enable-background="new 0 0 501 501" height="512" viewBox="0 0 501 501" width="512" xmlns="http://www.w3.org/2000/svg"><g><path d="m468.956 367.029c-41.021 0-74.275 33.254-74.275 74.275v12.8c-23.417 17.073-49.977 30.093-78.649 38.033-9.156-2.173-19.376-3.387-30.157-3.387-20.741 0-54.789 11.489-55.975 11.389-126.742-10.639-226.299-118.561-224.372-247.863 1.99-133.593 110.906-241.276 244.972-241.276 135.132 0 244.204 108.401 244.996 243.531.237 40.511-9.358 78.76-26.54 112.498z" fill="#49b4fa"/><path d="m337.768 41.684c17.987 35.182 28.169 75.273 28.169 117.818 0 139.64-109.69 252.84-245 252.84-23.057 0-45.37-3.287-66.523-9.432-30.715-40.932-48.914-91.796-48.914-146.91 0-125.736 94.718-229.35 216.695-243.382.469-.003.939-.004 1.409-.004 41.225-.001 80.072 10.508 114.164 29.07z" fill="#63bcfa"/><path d="m368.752 342.692c-7.336 19.61-20.669 45.587-38.001 72.78-2.362 3.706-4.736 7.336-7.11 10.879-8.017 11.961-11.542 26.372-10.082 40.696l2.555 25.068c-20.883 5.79-42.887 8.885-65.614 8.885-6.938 0-13.809-.289-20.601-.854l.555-51.076c-5.757-7.596-11.596-15.749-17.384-24.33-18.035-26.732-32.04-52.352-39.885-71.765-4.675-11.569 9.838-21.347 18.814-12.68 6.566 6.34 13.786 14.206 21.337 23.276-8.372-24.528-14.098-47.019-16.667-64.305-1.843-12.399 14.497-18.567 21.226-7.991 7.476 11.751 15.605 27.323 23.528 45.332-1.352-32.108.129-61.161 3.598-81.748 2.072-12.297 19.558-13.038 22.667-.962 5.22 20.276 9.173 49.204 10.544 81.419.168 3.943.293 7.841.377 11.683 4.742-29.957 11.403-56.486 18.376-75.13 4.379-11.708 21.694-9.163 22.453 3.314 1.272 20.899-.347 50.052-5.124 81.943-1.141 7.616-2.409 15.03-3.777 22.172 13.784-20.032 27.438-36.951 39.062-48.778 8.755-8.906 23.529.473 19.153 12.172z" fill="#dd9683"/><path d="m253.901 500.976c-1.132.015-2.265.024-3.401.024-6.938 0-13.809-.289-20.601-.854l.331-30.498c.141-13.015-3.822-25.73-11.297-36.384-1.957-2.789-3.913-5.632-5.864-8.524-18.034-26.731-32.039-52.35-39.884-71.762-4.051-10.023 6.141-18.664 14.813-15.287 9.755 22.546 25.612 51 45.573 80.588 3.679 5.454 7.376 10.764 11.065 15.908 6.376 8.889 9.777 19.562 9.658 30.501zm35.283-75.439c-4.673-10.695.227-23.198 10.922-27.87 3.796-1.658 5.528-6.08 3.87-9.875-1.658-3.796-6.08-5.528-9.875-3.87-18.274 7.984-26.646 29.347-18.661 47.621 1.658 3.796 6.08 5.528 9.875 3.87 3.794-1.659 5.527-6.081 3.869-9.876z" fill="#d27d69"/><path d="m254.172 310c-85.604 0-155-69.396-155-155s69.396-155 155-155 155 69.396 155 155-69.396 155-155 155z" fill="#fd7d43"/><path d="m119.569 231.91c-12.978-22.665-20.397-48.921-20.397-76.91 0-85.604 69.396-155 155-155 27.989 0 54.245 7.419 76.91 20.397-113.501 7.224-204.289 98.012-211.513 211.513z" fill="#f16b38"/><path d="m283.286 227.491c4.498-38.483-5.393-72.998-27.902-97.834-43.852 39.61-77.471 90.347-96.359 147.712-4.809-3.744-9.391-7.766-13.723-12.041 2.484-7.085 5.196-14.107 8.135-21.061 18.133-42.91 44.097-81.436 77.169-114.509 4.035-4.035 8.151-7.964 12.346-11.785-20.251-16.179-46.108-24.682-74.902-24.682-5.853 0-11.83.351-17.903 1.062-14.422 1.686-28.781 5.311-42.756 10.713 2.431-7.149 5.37-14.063 8.773-20.7 10.563-3.161 21.28-5.4 32.038-6.657 41.675-4.871 79.446 5.435 107.582 29.112 12.905-10.693 26.489-20.433 40.702-29.185-19.739-23.443-35.364-49.601-46.506-77.58 1.393-.037 2.79-.056 4.192-.056 4.857 0 9.662.224 14.406.661 10.808 24.95 25.303 47.946 42.792 68.297 10.915-6.016 22.171-11.478 33.745-16.369 6.145-2.597 12.343-5.016 18.591-7.258 4.307 4.302 8.361 8.856 12.141 13.637-18.289 6.171-35.893 13.842-52.666 22.866 24.202 24.733 53.14 44.814 85.33 58.759.437 4.743.661 9.549.661 14.406 0 1.402-.019 2.799-.056 4.192-35.49-14.132-68.048-35.477-95.853-63.282-1.781-1.781-3.535-3.582-5.263-5.401-13.983 8.468-27.317 17.905-39.907 28.216 25.607 28.433 36.891 67.472 31.837 110.711-3.202 27.393-12.758 54.517-27.737 79.527-5.912.684-11.925 1.037-18.02 1.037-.829 0-1.657-.007-2.483-.02 17.301-25.584 28.256-53.913 31.596-82.488z" fill="#c64b1a"/><path d="m253.394 239.084c-13.624 20.964-35.886 47.8-63.125 75.019-5.86 5.856-11.702 11.481-17.472 16.84-5.504 5.112-9.215 11.852-10.57 19.24l-22.789 124.257c-37.296-19-69.079-47.272-92.311-81.778l19.873-65.681c2.429-8.028 1.855-16.649-1.553-24.313-3.733-8.395-7.42-17.185-11.001-26.279-14.111-35.829-23.812-69.32-27.937-93.979-2.466-14.743 16.917-22.441 25.17-9.979 10.941 16.522 23.107 39.501 34.713 66.172.025-8.683.231-17.662.631-26.85 1.674-38.424 6.42-72.929 12.667-97.13 3.737-14.477 24.618-13.653 27.087 1.093 3.926 23.448 5.685 56.087 4.407 92.312.975-4.484 2.011-9.024 3.107-13.608 8.959-37.451 20.193-70.459 30.939-93.034 6.438-13.524 26.725-8.677 26.346 6.296-.631 24.923-5.524 59.319-14.435 96.649 13.399-19.306 26.484-35.709 37.93-47.778 10.293-10.853 28.032.118 23.046 14.221-6.955 19.674-18.797 44.73-34.207 71.57 10.928-8.916 21.193-16.493 30.34-22.427 12.567-8.151 27.305 6.609 19.144 19.167z" fill="#a95947"/><path d="m111.198 104.326c3.301 11.483 3.35 37.723-.419 67.852-5.001 39.979-14.83 71.667-21.954 70.776-2.391-.299-2.432-4.18-2.432-4.35.032-8.524.239-17.842.631-26.85 1.674-38.424 6.42-72.929 12.667-97.13 1.608-6.227 6.386-9.623 11.507-10.298zm-30.82 168.561c-14.662-37.228-24.742-72.027-29.029-97.65-.206-1.233-.266-2.418-.196-3.548-8.552-11.354-27.06-3.725-24.643 10.726 4.125 24.659 13.826 58.148 27.936 93.975 3.581 9.094 7.268 17.883 11.001 26.279 3.408 7.663 3.982 16.285 1.553 24.313l-19.874 65.681c5.707 8.476 11.929 16.576 18.623 24.254l28.893-95.487c1.738-5.744 1.363-11.931-1.111-17.398-4.467-9.871-8.882-20.3-13.153-31.145zm90.108-177.478c-2.122 1.301-3.965 3.271-5.254 5.978-10.746 22.575-21.98 55.583-30.939 93.034-.924 3.865-2.26 9.536-3.098 13.331-.156.706-2.195 33.627 4.588 35.414 7.829 2.063 21.247-31.456 29.725-73.809 6.628-33.114 8.341-62.113 4.978-73.948zm64.577 61.08c-5.031-5.112-13.84-6.419-19.99.066-11.446 12.069-24.531 28.471-37.93 47.778.342-1.433-16.597 33.734-12.309 36.61 5.962 3.999 28.99-19.884 51.435-53.344 7.362-10.978 13.748-21.621 18.794-31.11zm-.81 63.429c-8.974 5.822-19.643 13.73-30.34 22.427-14.403 17.517-22.442 32.211-19.243 35.03 3.624 3.193 21.091-10.707 39.013-31.047 9.2-10.441 16.731-20.548 21.392-28.346-3.387-.861-7.195-.418-10.822 1.936z" fill="#954d3b"/><path d="m119.669 175.87c-.07 2.547-2.191 4.555-4.737 4.486l-9.223-.252c-2.547-.07-4.555-2.191-4.486-4.737.07-2.547 2.191-4.555 4.737-4.486l9.223.252c2.547.069 4.555 2.19 4.486 4.737zm-3.982-23.184-9.223-.252c-2.547-.07-4.668 1.939-4.737 4.485-.07 2.547 1.939 4.668 4.486 4.737l9.223.252c2.547.07 4.668-1.939 4.737-4.486.069-2.545-1.939-4.666-4.486-4.736zm-50.487 71.007-8.597 3.349c-2.374.925-3.549 3.599-2.624 5.973s3.599 3.549 5.973 2.624l8.597-3.349c2.374-.925 3.549-3.599 2.624-5.973s-3.599-3.549-5.973-2.624zm138.05-30.356 7.475 5.408c2.064 1.494 4.948 1.031 6.442-1.033s1.031-4.948-1.033-6.442l-7.475-5.409c-2.064-1.494-4.948-1.031-6.442 1.033-1.494 2.065-1.031 4.949 1.033 6.443zm-138.775 15.785c-.925-2.374-3.599-3.549-5.973-2.624l-8.597 3.349c-2.374.925-3.549 3.599-2.624 5.973s3.599 3.549 5.973 2.624l8.597-3.349c2.374-.924 3.549-3.599 2.624-5.973zm102.222-42.787-8.973-2.146c-2.478-.593-4.967.936-5.56 3.413-.593 2.478.935 4.967 3.413 5.56l8.973 2.147c2.478.593 4.967-.936 5.56-3.413s-.935-4.968-3.413-5.561zm60.393 86.09-6.556-6.492c-1.81-1.793-4.731-1.778-6.524.032-1.793 1.811-1.778 4.731.032 6.524l6.556 6.492c1.81 1.793 4.731 1.778 6.524-.032s1.779-4.731-.032-6.524zm-19.54 6.62c-1.81-1.793-4.731-1.778-6.524.032-1.793 1.81-1.778 4.731.032 6.524l6.556 6.492c1.81 1.793 4.731 1.778 6.524-.032 1.793-1.811 1.778-4.731-.032-6.524zm-36.56-110.656-8.973-2.146c-2.478-.593-4.967.935-5.56 3.413s.935 4.967 3.413 5.56l8.973 2.146c2.478.593 4.967-.935 5.56-3.413s-.935-4.968-3.413-5.56zm35.359 64.273c1.494-2.064 1.031-4.948-1.033-6.442l-7.475-5.409c-2.064-1.493-4.948-1.031-6.442 1.033s-1.031 4.948 1.033 6.442l7.475 5.409c2.065 1.494 4.949 1.031 6.442-1.033z" fill="#7d402d"/><path d="m186.336 106.795c-.029 1.134-.071 2.3-.128 3.495-.177 3.734-3.715 6.389-7.35 5.519l-6.497-1.554c-3.635-.87-5.589-4.838-4.057-8.248.49-1.091.98-2.15 1.467-3.174 4.039-8.485 16.802-5.432 16.565 3.962zm46.544 63.958c4.274-8.369-5.917-16.638-13.226-10.732-.882.713-1.781 1.456-2.695 2.229-2.855 2.413-2.808 6.836.094 9.191l5.187 4.209c2.903 2.355 7.24 1.49 9.013-1.801.569-1.053 1.111-2.086 1.627-3.096zm3.474 55.195c-.919.666-1.855 1.361-2.808 2.085-2.977 2.26-3.162 6.68-.386 9.183l4.96 4.475c2.775 2.504 7.152 1.866 9.095-1.327.622-1.022 1.217-2.025 1.785-3.007 4.707-8.134-5.038-16.924-12.646-11.409zm-115.39-109.404c-2.843-8.957-15.904-7.674-16.951 1.664-.126 1.127-.243 2.288-.35 3.479-.334 3.723 2.808 6.836 6.528 6.471l6.648-.653c3.72-.365 6.197-4.03 5.145-7.617-.337-1.147-.677-2.263-1.02-3.344zm-73.116 59.979c-4.76-8.102-17.21-3.953-16.159 5.385.127 1.127.271 2.285.431 3.47.5 3.704 4.255 6.042 7.801 4.86l6.338-2.112c3.546-1.182 5.148-5.305 3.326-8.569-.583-1.044-1.163-2.056-1.737-3.034z" fill="#e1a595"/><path d="m468.956 367.029c-17.602 34.564-43.166 64.395-74.276 87.075l-21.588-60.27c-2.533-7.071-7.286-13.121-13.545-17.275-6.561-4.354-13.237-8.96-19.967-13.791-31.289-22.455-57.604-45.336-74.441-63.82-10.084-11.07 2.069-28.017 15.785-22.008 9.989 4.376 21.348 10.193 33.578 17.225-19.551-23.993-35.293-46.802-45.34-65.091-7.205-13.115 8.529-26.805 20.447-17.757 13.248 10.057 28.812 24.124 45.157 41.004-14.837-35.4-25.234-68.555-29.889-93.048-2.796-14.712 16.435-22.777 24.976-10.476 14.259 20.538 30.69 51.296 45.594 86.808 1.213 2.889 2.396 5.764 3.548 8.62.196.485.923.267.824-.247-6.522-33.739-9.768-64.467-9.696-87.218.048-14.978 20.506-19.216 26.549-5.51 10.084 22.872 20.353 56.157 28.225 93.809 1.802 8.617 3.397 17.075 4.784 25.294.043.254.398.26.461.01 7.075-27.748 15.253-51.995 23.273-69.838 6.127-13.631 26.496-9.173 26.45 5.772-.078 25.003-4.231 59.626-12.358 97.271-2.063 9.553-4.278 18.824-6.603 27.713-2.123 8.114-1.294 16.715 2.402 24.244z" fill="#f3d6ac"/><path d="m413.645 438.784c-6.058 5.411-12.387 10.526-18.964 15.321l-21.588-60.271c-2.533-7.071-7.286-13.121-13.545-17.275-6.561-4.354-13.237-8.96-19.967-13.79-31.285-22.452-57.597-45.331-74.434-63.813-5.922-6.501-4.176-15.029 1.052-19.745.615.977 1.369 1.923 2.273 2.822 18.851 18.752 47.996 41.679 82.401 63.892 7.402 4.779 14.734 9.322 21.93 13.604 6.865 4.085 12.231 10.263 15.291 17.642zm39.768-238.25c-8.02 17.845-16.199 42.096-23.273 69.846.927 12.509 3.335 20.41 7.05 20.893 7.753 1.007 18.261-30.679 23.472-70.774 1.277-9.828 2.117-19.25 2.544-27.888-4.002.759-7.716 3.301-9.793 7.923zm-77.047-55.366c-3.619 2.275-6.224 6.233-6.241 11.554-.079 23.622 2.662 51.981 9.696 87.256 7.181 19.493 15.413 35.684 20.333 34.521 7.608-1.799 6.235-35.154-3.067-74.502-6.012-25.43-13.864-47.138-20.721-58.829zm-22.758 176.88c6.031-4.974-9.934-34.293-35.66-65.485-17.306-20.983-34.619-37.469-45.935-44.498-4.382 3.955-6.397 10.554-2.85 17.011 10.048 18.289 25.789 41.098 45.339 65.09-.757-.437 34.35 31.805 39.106 27.882zm-45.196-174.96c-2.875 2.928-4.486 7.174-3.532 12.194 4.656 24.492 15.052 57.643 29.887 93.039-.526-.543 19.368 30.558 24.293 28.521 7.224-2.988.554-35.698-14.898-73.062-12.479-30.175-26.869-54.155-35.75-60.692z" fill="#eabe8d"/><path d="m327.576 153.861c2.063 3.117.778 7.349-2.669 8.796l-6.16 2.585c-3.447 1.447-7.367-.601-8.147-4.257-.249-1.17-.48-2.313-.692-3.428-1.755-9.232 10.346-14.31 15.705-6.592.649.933 1.303 1.898 1.963 2.896zm-38.911 63.375c-1.027-.614-2.034-1.202-3.02-1.763-8.169-4.645-16.886 5.164-11.314 12.731.673.914 1.375 1.845 2.105 2.792 2.282 2.96 6.703 3.112 9.186.318l4.438-4.993c2.482-2.794 1.812-7.166-1.395-9.085zm-5.722 67.602c-1.057-.56-2.094-1.094-3.108-1.603-8.401-4.211-16.593 6.04-10.633 13.305.72.877 1.469 1.77 2.248 2.678 2.434 2.837 6.856 2.758 9.19-.162l4.171-5.219c2.334-2.92 1.436-7.251-1.868-8.999zm110.051-129.342c-2.545-9.046-15.641-8.198-16.997 1.101-.164 1.123-.319 2.278-.465 3.466-.457 3.71 2.58 6.925 6.31 6.684l6.666-.432c3.73-.242 6.327-3.822 5.395-7.442-.299-1.159-.602-2.285-.909-3.377zm81.817 54.648c-.034-1.196-.079-2.361-.137-3.494-.474-9.385-13.431-11.464-16.817-2.698-.409 1.058-.817 2.151-1.223 3.276-1.269 3.516.978 7.325 4.669 7.917l6.596 1.059c3.691.591 7.017-2.324 6.912-6.06z" fill="#f8e6cc"/><path d="m353.472 212.031c.986 2.349-.119 5.053-2.468 6.039l-8.508 3.571c-2.349.986-5.053-.119-6.039-2.469-.986-2.349.119-5.053 2.469-6.039l8.508-3.571c2.349-.985 5.052.12 6.038 2.469zm-7.141-17.015c-.986-2.349-3.69-3.454-6.039-2.469l-8.508 3.571c-2.349.986-3.454 3.69-2.468 6.039s3.69 3.455 6.039 2.469l8.508-3.571c2.349-.985 3.454-3.689 2.468-6.039zm58.668 16.432c-.481-2.502-2.899-4.141-5.401-3.66l-9.061 1.741c-2.502.481-4.141 2.899-3.66 5.401s2.899 4.141 5.401 3.66l9.061-1.741c2.502-.481 4.14-2.899 3.66-5.401zm-16.203-10.979 9.061-1.741c2.502-.481 4.141-2.899 3.66-5.401-.481-2.502-2.899-4.14-5.401-3.66l-9.061 1.741c-2.502.481-4.141 2.899-3.66 5.401.48 2.503 2.899 4.141 5.401 3.66zm68.598 54.752-9.026-1.913c-2.492-.528-4.941 1.064-5.47 3.556-.528 2.492 1.064 4.941 3.556 5.47l9.026 1.913c2.492.528 4.941-1.064 5.47-3.556.528-2.493-1.064-4.942-3.556-5.47zm3.827-18.052-9.026-1.914c-2.492-.528-4.941 1.064-5.47 3.556s1.064 4.941 3.556 5.47l9.026 1.914c2.492.528 4.941-1.064 5.47-3.556s-1.064-4.941-3.556-5.47zm-147.403 28.075 6.501-6.547c1.795-1.808 1.785-4.729-.023-6.524s-4.729-1.785-6.524.023l-6.501 6.547c-1.795 1.808-1.785 4.729.023 6.524s4.729 1.785 6.524-.023zm-19.618-12.979c1.808 1.795 4.729 1.785 6.524-.023l6.501-6.547c1.795-1.808 1.785-4.729-.023-6.524s-4.729-1.785-6.524.023l-6.501 6.547c-1.795 1.808-1.785 4.729.023 6.524zm25.859 57.944c-2.062-1.496-4.947-1.038-6.443 1.024l-5.419 7.468c-1.496 2.062-1.038 4.947 1.024 6.443s4.947 1.038 6.443-1.024l5.419-7.467c1.497-2.063 1.038-4.947-1.024-6.444zm-14.935-10.838c-2.062-1.496-4.947-1.038-6.443 1.024l-5.419 7.467c-1.496 2.062-1.038 4.947 1.024 6.443s4.947 1.038 6.443-1.024l5.419-7.468c1.497-2.061 1.038-4.945-1.024-6.442z" fill="#e3ac6e"/></g></svg>