<svg id="Capa_1" enable-background="new 0 0 501 501" height="512" viewBox="0 0 501 501" width="512" xmlns="http://www.w3.org/2000/svg"><g><path d="m80.063 80c44.097-42.712 104.197-69 170.437-69s126.34 26.288 170.438 69z" fill="#91cefb"/><path d="m91.029 70h318.942c13.863 11.897 26.381 25.316 37.294 40h-393.53c10.913-14.684 23.431-28.103 37.294-40z" fill="#08856c"/><path d="m70.307 90h360.386c40.233 43.651 64.807 101.956 64.807 166 0 135.31-109.69 245-245 245s-245-109.69-245-245c0-64.044 24.574-122.349 64.807-166z" fill="#57bd91"/><path d="m74.5 150c0-16.569 13.431-30 30-30h292c16.569 0 30 13.431 30 30v276.438c-44.537 45.98-106.93 74.562-176 74.562s-131.463-28.582-176-74.563z" fill="#94cfbe"/><path d="m380.5 175v165l-2 5 2 5v113.704c-17.039 10.687-35.486 19.336-55 25.604-.763.245-1.4-.962-2.167-.724-2.01.624-4.032 1.223-6.064 1.796-.546.154-1.221 1.755-1.769 1.905-9.377 2.574-18.979 4.604-28.769 6.055-.793.118-1.518-1.45-2.314-1.34-2.797.387-5.609.726-8.436 1.017-.378.039-.825 1.758-1.204 1.795-7.986.786-16.084 1.188-24.277 1.188-8.192 0-16.29-.402-24.276-1.188-1.977-.194-3.636-2.009-5.599-2.25-2.025-.249-4.353 1.074-6.363.776-9.788-1.451-19.387-3.481-28.762-6.054-.972-.267-.97-2.1-1.938-2.378-1.928-.555-3.847-1.133-5.756-1.734-.446-.141-1.863 1.278-2.308 1.135-19.513-6.268-37.96-14.916-54.998-25.603v-113.704l2-4.25-2-5.75v-165c0-8.284 6.716-15 15-15h40l4.332 1 5.667-1h20.277l5.224 1 4.857-1h69.286l5.524 1 4.556-1h20.277l5 1 5-1h40c8.284 0 15 6.716 15 15z" fill="#024c67"/><path d="m144.5 476.944c-8.268-3.974-16.279-8.398-24-13.241v-113.703l2-4.687-2-5.313v-165c0-8.284 6.716-15 15-15h24c-8.284 0-15 6.716-15 15z" fill="#174550"/><path d="m256.5 135v40c0 2.761-2.239 5-5 5h-2c-2.761 0-5-2.239-5-5v-40c0-2.761 2.239-5 5-5h2c2.761 0 5 2.239 5 5z" fill="#c64b1a"/><path d="m280.5 150h-60c-2.761 0-5-2.239-5-5v-40c0-2.761 2.239-5 5-5h60c2.761 0 5 2.239 5 5v40c0 2.761-2.239 5-5 5z" fill="#f7e6b0"/><path d="m280.5 150h-51c-2.761 0-5-2.239-5-5v-40c0-2.761 2.239-5 5-5h51c2.761 0 5 2.239 5 5v40c0 2.761-2.239 5-5 5z" fill="#f9eecf"/><path d="m261.5 140h-22c-2.761 0-5-2.239-5-5v-20c0-2.761 2.239-5 5-5h22c2.761 0 5 2.239 5 5v20c0 2.761-2.239 5-5 5z" fill="#fdc3ab"/><path d="m265.5 140h-30c-2.761 0-5-2.239-5-5 0-2.761 2.239-5 5-5h30c2.761 0 5 2.239 5 5 0 2.761-2.239 5-5 5z" fill="#fd7d43"/><path d="m495.5 256c0 46.188-12.781 89.391-35 126.265v-252.53c22.219 36.874 35 80.077 35 126.265zm-455 126.265v-252.53c-22.219 36.874-35 80.077-35 126.265s12.781 89.391 35 126.265z" fill="#059b7e"/><path d="m295.223 340c-2.495-22.469-21.6-40-44.723-40s-42.228 17.531-44.723 40h-85.277v10h85.277c2.495 22.469 21.6 40 44.723 40s42.228-17.531 44.723-40h85.277v-10zm-44.723-30c17.602 0 32.21 13.061 34.643 30h-69.287c2.434-16.939 17.042-30 34.644-30zm0 70c-17.602 0-32.21-13.061-34.643-30h69.287c-2.434 16.939-17.042 30-34.644 30zm65-120h-130c-5.523 0-10-4.477-10-10v-90h10v88c0 1.105.895 2 2 2h126c1.105 0 2-.895 2-2v-88h10v90c0 5.523-4.477 10-10 10zm-110-95c0-1.69.094-3.358.277-5h10.08c-.235 1.633-.357 3.303-.357 5 0 19.299 15.701 35 35 35s35-15.701 35-35c0-1.697-.122-3.367-.357-5h10.08c.182 1.642.277 3.31.277 5 0 24.813-20.187 45-45 45s-45-20.187-45-45zm-20 265h130c5.523 0 10 4.477 10 10v49.307c-3.303 1.061-6.637 2.054-10 2.977v-50.284c0-1.105-.895-2-2-2h-126c-1.105 0-2 .895-2 2v50.284c-3.363-.923-6.697-1.916-10-2.977v-49.307c0-5.523 4.477-10 10-10zm101.231 68.339c-3.955.586-7.94 1.078-11.953 1.473-6.299-6.072-14.86-9.812-24.278-9.812s-17.979 3.74-24.277 9.812c-4.014-.395-7.999-.887-11.953-1.473 8.201-11.115 21.387-18.339 36.23-18.339s28.029 7.224 36.231 18.339z" fill="#f9eecf"/><path d="m80.523 141.026 3.977 7.271c.135.247.338.45.585.585l7.271 3.977c1.02.558 1.02 2.023 0 2.58l-7.271 3.977c-.247.135-.45.338-.585.585l-3.977 7.271c-.558 1.02-2.023 1.02-2.58 0l-3.977-7.272c-.135-.247-.338-.45-.585-.585l-7.271-3.977c-1.02-.558-1.02-2.023 0-2.58l7.271-3.977c.247-.135.45-.338.585-.585l3.977-7.271c.558-1.019 2.022-1.019 2.58.001zm378.799 179.739-3.977 7.271c-.135.247-.338.45-.585.585l-7.271 3.977c-1.02.558-1.02 2.023 0 2.58l7.271 3.977c.247.135.45.338.585.585l3.977 7.271c.558 1.02 2.023 1.02 2.58 0l3.977-7.271c.135-.247.338-.45.585-.585l7.271-3.977c1.02-.558 1.02-2.023 0-2.58l-7.271-3.977c-.247-.135-.45-.338-.585-.585l-3.977-7.271c-.557-1.02-2.022-1.02-2.58 0z" fill="#bbe0fb"/><path d="m429.678 142.99 3.977 7.271c.135.247.338.45.585.585l7.271 3.977c1.02.558 1.02 2.023 0 2.58l-7.271 3.977c-.247.135-.45.338-.585.585l-3.977 7.271c-.558 1.02-2.023 1.02-2.58 0l-3.977-7.271c-.135-.247-.338-.45-.585-.585l-7.271-3.977c-1.02-.558-1.02-2.023 0-2.58l7.271-3.977c.247-.135.45-.338.585-.585l3.977-7.271c.557-1.02 2.022-1.02 2.58 0z" fill="#059b7e"/><path d="m31.642 252.144 3.977 7.271c.135.247.338.45.585.585l7.271 3.977c1.02.558 1.02 2.023 0 2.58l-7.271 3.977c-.247.135-.45.338-.585.585l-3.977 7.271c-.558 1.02-2.023 1.02-2.58 0l-3.977-7.271c-.135-.247-.338-.45-.585-.585l-7.271-3.977c-1.02-.558-1.02-2.023 0-2.58l7.271-3.977c.247-.135.45-.338.585-.585l3.977-7.271c.557-1.02 2.022-1.02 2.58 0zm395.716 10-3.977 7.271c-.135.247-.338.45-.585.585l-7.271 3.977c-1.02.558-1.02 2.023 0 2.58l7.271 3.977c.247.135.45.338.585.585l3.977 7.271c.558 1.02 2.023 1.02 2.58 0l3.977-7.271c.135-.247.338-.45.585-.585l7.271-3.977c1.02-.558 1.02-2.023 0-2.58l-7.271-3.977c-.247-.135-.45-.338-.585-.585l-3.977-7.271c-.557-1.02-2.022-1.02-2.58 0z" fill="#f9eecf"/><path d="m313.667 80h-126.334c-8.284 0-15-6.716-15-15v-50c0-8.284 6.716-15 15-15h126.333c8.284 0 15 6.716 15 15v50c.001 8.284-6.715 15-14.999 15z" fill="#f16b38"/><path d="m313.667 80h-104.167c-8.284 0-15-6.716-15-15v-50c0-8.284 6.716-15 15-15h104.167c8.284 0 15 6.716 15 15v50c0 8.284-6.716 15-15 15z" fill="#fd7d43"/><path d="m260.5 25v-10c0-2.761 2.239-5 5-5h16c2.761 0 5 2.239 5 5v10c0 2.761-2.239 5-5 5h-16c-2.761 0-5-2.239-5-5zm-25 15h-40c-2.761 0-5 2.239-5 5v15.725c0 2.761 2.239 5 5 5h40c2.761 0 5-2.239 5-5v-15.725c0-2.761-2.239-5-5-5zm70 0h-40c-2.761 0-5 2.239-5 5v15.725c0 2.761 2.239 5 5 5h40c2.761 0 5-2.239 5-5v-15.725c0-2.761-2.239-5-5-5zm-70-30h-16c-2.761 0-5 2.239-5 5v10c0 2.761 2.239 5 5 5h16c2.761 0 5-2.239 5-5v-10c0-2.761-2.239-5-5-5z" fill="#024c67"/><path d="m276.583 30h-11.083c-2.761 0-5-2.239-5-5v-10c0-2.761 2.239-5 5-5h11.083c-2.761 0-5 2.239-5 5v10c0 2.761 2.239 5 5 5zm-46-20h-11.083c-2.761 0-5 2.239-5 5v10c0 2.761 2.239 5 5 5h11.083c-2.761 0-5-2.239-5-5v-10c0-2.761 2.239-5 5-5zm46 30h-11.083c-2.761 0-5 2.239-5 5v15.725c0 2.761 2.239 5 5 5h11.083c-2.761 0-5-2.239-5-5v-15.725c0-2.761 2.239-5 5-5zm-70 0h-11.083c-2.761 0-5 2.239-5 5v15.725c0 2.761 2.239 5 5 5h11.083c-2.761 0-5-2.239-5-5v-15.725c0-2.761 2.239-5 5-5z" fill="#174550"/><path d="m276 58v-10c0-1.381 1.119-2.5 2.5-2.5 1.381 0 2.5 1.119 2.5 2.5v10c0 1.381-1.119 2.5-2.5 2.5-1.381 0-2.5-1.119-2.5-2.5zm-8 2.5c1.381 0 2.5-1.119 2.5-2.5v-10c0-1.381-1.119-2.5-2.5-2.5-1.381 0-2.5 1.119-2.5 2.5v10c0 1.381 1.119 2.5 2.5 2.5zm0-40.5c1.381 0 2.5-1.119 2.5-2.5 0-1.381-1.119-2.5-2.5-2.5-1.381 0-2.5 1.119-2.5 2.5 0 1.381 1.119 2.5 2.5 2.5z" fill="#94cfbe"/><path d="m230 58v-10c0-1.381 1.119-2.5 2.5-2.5 1.381 0 2.5 1.119 2.5 2.5v10c0 1.381-1.119 2.5-2.5 2.5-1.381 0-2.5-1.119-2.5-2.5zm-8 2.5c1.381 0 2.5-1.119 2.5-2.5v-10c0-1.381-1.119-2.5-2.5-2.5-1.381 0-2.5 1.119-2.5 2.5v10c0 1.381 1.119 2.5 2.5 2.5zm11-40.5c1.381 0 2.5-1.119 2.5-2.5 0-1.381-1.119-2.5-2.5-2.5-1.381 0-2.5 1.119-2.5 2.5 0 1.381 1.119 2.5 2.5 2.5z" fill="#fdac89"/></g></svg>