<svg height="512" viewBox="0 0 501 501" width="512" xmlns="http://www.w3.org/2000/svg"><path d="M80.063 80C124.16 37.288 184.26 11 250.5 11s126.34 26.288 170.438 69z" fill="#91cefb"/><path d="M91.029 70h318.942a246.422 246.422 0 0137.294 40H53.735a246.422 246.422 0 0137.294-40z" fill="#08856c"/><path d="M70.307 90h360.386c40.233 43.651 64.807 101.956 64.807 166 0 135.31-109.69 245-245 245S5.5 391.31 5.5 256c0-64.044 24.574-122.349 64.807-166z" fill="#57bd91"/><path d="M74.5 150c0-16.569 13.431-30 30-30h292c16.569 0 30 13.431 30 30v276.438C381.963 472.418 319.57 501 250.5 501s-131.463-28.582-176-74.563z" fill="#94cfbe"/><path d="M380.5 175v165l-2 5 2 5v113.704a243.849 243.849 0 01-55 25.604c-.763.245-1.4-.962-2.167-.724a241.77 241.77 0 01-6.064 1.796c-.546.154-1.221 1.755-1.769 1.905a243.553 243.553 0 01-28.769 6.055c-.793.118-1.518-1.45-2.314-1.34-2.797.387-5.609.726-8.436 1.017-.378.039-.825 1.758-1.204 1.795A247.795 247.795 0 01250.5 501c-8.192 0-16.29-.402-24.276-1.188-1.977-.194-3.636-2.009-5.599-2.25-2.025-.249-4.353 1.074-6.363.776a243.637 243.637 0 01-28.762-6.054c-.972-.267-.97-2.1-1.938-2.378a243.24 243.24 0 01-5.756-1.734c-.446-.141-1.863 1.278-2.308 1.135a243.831 243.831 0 01-54.998-25.603V350l2-4.25-2-5.75V175c0-8.284 6.716-15 15-15h40l4.332 1 5.667-1h20.277l5.224 1 4.857-1h69.286l5.524 1 4.556-1H315.5l5 1 5-1h40c8.284 0 15 6.716 15 15z" fill="#024c67"/><path d="M144.5 476.944a244.496 244.496 0 01-24-13.241V350l2-4.687-2-5.313V175c0-8.284 6.716-15 15-15h24c-8.284 0-15 6.716-15 15z" fill="#174550"/><path d="M256.5 135v40a5 5 0 01-5 5h-2a5 5 0 01-5-5v-40a5 5 0 015-5h2a5 5 0 015 5z" fill="#c64b1a"/><path d="M280.5 150h-60a5 5 0 01-5-5v-40a5 5 0 015-5h60a5 5 0 015 5v40a5 5 0 01-5 5z" fill="#f7e6b0"/><path d="M280.5 150h-51a5 5 0 01-5-5v-40a5 5 0 015-5h51a5 5 0 015 5v40a5 5 0 01-5 5z" fill="#f9eecf"/><path d="M261.5 140h-22a5 5 0 01-5-5v-20a5 5 0 015-5h22a5 5 0 015 5v20a5 5 0 01-5 5z" fill="#fdc3ab"/><path d="M265.5 140h-30a5 5 0 010-10h30a5 5 0 010 10z" fill="#fd7d43"/><path d="M495.5 256c0 46.188-12.781 89.391-35 126.265v-252.53c22.219 36.874 35 80.077 35 126.265zm-455 126.265v-252.53C18.281 166.609 5.5 209.812 5.5 256s12.781 89.391 35 126.265z" fill="#059b7e"/><path d="M295.223 340c-2.495-22.469-21.6-40-44.723-40s-42.228 17.531-44.723 40H120.5v10h85.277c2.495 22.469 21.6 40 44.723 40s42.228-17.531 44.723-40H380.5v-10zM250.5 310c17.602 0 32.21 13.061 34.643 30h-69.287c2.434-16.939 17.042-30 34.644-30zm0 70c-17.602 0-32.21-13.061-34.643-30h69.287c-2.434 16.939-17.042 30-34.644 30zm65-120h-130c-5.523 0-10-4.477-10-10v-90h10v88a2 2 0 002 2h126a2 2 0 002-2v-88h10v90c0 5.523-4.477 10-10 10zm-110-95c0-1.69.094-3.358.277-5h10.08a35.094 35.094 0 00-.357 5c0 19.299 15.701 35 35 35s35-15.701 35-35c0-1.697-.122-3.367-.357-5h10.08a45.37 45.37 0 01.277 5c0 24.813-20.187 45-45 45s-45-20.187-45-45zm-20 265h130c5.523 0 10 4.477 10 10v49.307a242.944 242.944 0 01-10 2.977V442a2 2 0 00-2-2h-126a2 2 0 00-2 2v50.284a242.944 242.944 0 01-10-2.977V440c0-5.523 4.477-10 10-10zm101.231 68.339c-3.955.586-7.94 1.078-11.953 1.473-6.299-6.072-14.86-9.812-24.278-9.812s-17.979 3.74-24.277 9.812a245.576 245.576 0 01-11.953-1.473C222.471 487.224 235.657 480 250.5 480s28.029 7.224 36.231 18.339z" fill="#f9eecf"/><path d="M80.523 141.026l3.977 7.271c.135.247.338.45.585.585l7.271 3.977c1.02.558 1.02 2.023 0 2.58l-7.271 3.977a1.47 1.47 0 00-.585.585l-3.977 7.271c-.558 1.02-2.023 1.02-2.58 0L73.966 160a1.47 1.47 0 00-.585-.585l-7.271-3.977c-1.02-.558-1.02-2.023 0-2.58l7.271-3.977a1.47 1.47 0 00.585-.585l3.977-7.271a1.47 1.47 0 012.58.001zm378.799 179.739l-3.977 7.271a1.47 1.47 0 01-.585.585l-7.271 3.977c-1.02.558-1.02 2.023 0 2.58l7.271 3.977c.247.135.45.338.585.585l3.977 7.271c.558 1.02 2.023 1.02 2.58 0l3.977-7.271a1.47 1.47 0 01.585-.585l7.271-3.977c1.02-.558 1.02-2.023 0-2.58l-7.271-3.977a1.47 1.47 0 01-.585-.585l-3.977-7.271c-.557-1.02-2.022-1.02-2.58 0z" fill="#bbe0fb"/><path d="M429.678 142.99l3.977 7.271c.135.247.338.45.585.585l7.271 3.977c1.02.558 1.02 2.023 0 2.58l-7.271 3.977a1.47 1.47 0 00-.585.585l-3.977 7.271c-.558 1.02-2.023 1.02-2.58 0l-3.977-7.271a1.47 1.47 0 00-.585-.585l-7.271-3.977c-1.02-.558-1.02-2.023 0-2.58l7.271-3.977a1.47 1.47 0 00.585-.585l3.977-7.271c.557-1.02 2.022-1.02 2.58 0z" fill="#059b7e"/><path d="M31.642 252.144l3.977 7.271c.135.247.338.45.585.585l7.271 3.977c1.02.558 1.02 2.023 0 2.58l-7.271 3.977a1.47 1.47 0 00-.585.585l-3.977 7.271c-.558 1.02-2.023 1.02-2.58 0l-3.977-7.271a1.47 1.47 0 00-.585-.585l-7.271-3.977c-1.02-.558-1.02-2.023 0-2.58L24.5 260a1.47 1.47 0 00.585-.585l3.977-7.271c.557-1.02 2.022-1.02 2.58 0zm395.716 10l-3.977 7.271a1.47 1.47 0 01-.585.585l-7.271 3.977c-1.02.558-1.02 2.023 0 2.58l7.271 3.977c.247.135.45.338.585.585l3.977 7.271c.558 1.02 2.023 1.02 2.58 0l3.977-7.271a1.47 1.47 0 01.585-.585l7.271-3.977c1.02-.558 1.02-2.023 0-2.58L434.5 270a1.47 1.47 0 01-.585-.585l-3.977-7.271c-.557-1.02-2.022-1.02-2.58 0z" fill="#f9eecf"/><path d="M313.667 80H187.333c-8.284 0-15-6.716-15-15V15c0-8.284 6.716-15 15-15h126.333c8.284 0 15 6.716 15 15v50c.001 8.284-6.715 15-14.999 15z" fill="#f16b38"/><path d="M313.667 80H209.5c-8.284 0-15-6.716-15-15V15c0-8.284 6.716-15 15-15h104.167c8.284 0 15 6.716 15 15v50c0 8.284-6.716 15-15 15z" fill="#fd7d43"/><path d="M260.5 25V15a5 5 0 015-5h16a5 5 0 015 5v10a5 5 0 01-5 5h-16a5 5 0 01-5-5zm-25 15h-40a5 5 0 00-5 5v15.725a5 5 0 005 5h40a5 5 0 005-5V45a5 5 0 00-5-5zm70 0h-40a5 5 0 00-5 5v15.725a5 5 0 005 5h40a5 5 0 005-5V45a5 5 0 00-5-5zm-70-30h-16a5 5 0 00-5 5v10a5 5 0 005 5h16a5 5 0 005-5V15a5 5 0 00-5-5z" fill="#024c67"/><path d="M276.583 30H265.5a5 5 0 01-5-5V15a5 5 0 015-5h11.083a5 5 0 00-5 5v10a5 5 0 005 5zm-46-20H219.5a5 5 0 00-5 5v10a5 5 0 005 5h11.083a5 5 0 01-5-5V15a5 5 0 015-5zm46 30H265.5a5 5 0 00-5 5v15.725a5 5 0 005 5h11.083a5 5 0 01-5-5V45a5 5 0 015-5zm-70 0H195.5a5 5 0 00-5 5v15.725a5 5 0 005 5h11.083a5 5 0 01-5-5V45a5 5 0 015-5z" fill="#174550"/><path d="M276 58V48a2.5 2.5 0 115 0v10a2.5 2.5 0 11-5 0zm-8 2.5a2.5 2.5 0 002.5-2.5V48a2.5 2.5 0 10-5 0v10a2.5 2.5 0 002.5 2.5zm0-40.5a2.5 2.5 0 100-5 2.5 2.5 0 000 5z" fill="#94cfbe"/><path d="M230 58V48a2.5 2.5 0 115 0v10a2.5 2.5 0 11-5 0zm-8 2.5a2.5 2.5 0 002.5-2.5V48a2.5 2.5 0 10-5 0v10a2.5 2.5 0 002.5 2.5zM233 20a2.5 2.5 0 100-5 2.5 2.5 0 000 5z" fill="#fdac89"/></svg>