<svg height="512" viewBox="0 0 501 501" width="512" xmlns="http://www.w3.org/2000/svg"><path d="M445.726 96.952c32.241 42.449 50.954 95.734 49.716 153.432C492.591 383.286 383.195 490.125 250.264 490 115.062 489.872 5.5 380.231 5.5 245c0-55.615 18.531-106.902 49.755-148.023 5.177-6.818 14.684-8.68 22.03-4.284C125.984 121.828 185.819 139 250.5 139s124.517-17.172 173.216-46.308c7.337-4.39 16.839-2.548 22.01 4.26z" fill="#0191f8"/><path d="M493.32 277.777C477.22 397.665 373.926 490.117 250.264 490c-124.089-.117-226.581-92.487-242.59-212.223z" fill="#05a2f9"/><path d="M396.5 319v10c0 11.046-8.954 20-20 20h-110v140.486c-5.289.341-10.625.514-16 .514s-10.711-.173-16-.514V349h-110c-11.046 0-20-8.954-20-20v-10c0-11.046 8.954-20 20-20h252c11.046 0 20 8.954 20 20z" fill="#174550"/><path d="M446.5 97.977v199.051c0 11.046-8.954 20-20 20h-352c-11.046 0-20-8.954-20-20V97.977C99.199 38.482 170.355 0 250.5 0s151.301 38.482 196 97.977z" fill="#e3f0fb"/><path d="M446.5 227.31v69.717c0 11.046-8.954 20-20 20h-352c-11.046 0-20-8.954-20-20V97.977c26.09-34.726 61.193-62.292 101.837-79.227C148.687 39.041 144.5 61.032 144.5 84c0 102.173 82.827 185 185 185 44.386 0 85.12-15.632 117-41.69z" fill="#bbe0fb"/><path d="M400.5 51.272A244.788 244.788 0 00345.264 19H155.736A244.766 244.766 0 00100.5 51.272V269h300zM366.5 239h-232V49h232z" fill="#fdc3ab"/><path d="M329.5 269h-229V51.272a244.826 244.826 0 0155.623-32.434l.12.162c-3.722 9.916-4.279 8.295-8.436 30H134.5v190h93.967c29.046 18.972 63.752 30 101.033 30z" fill="#fdac89"/><path d="M347.611 20H153.389C183.165 7.131 216 0 250.5 0s67.335 7.131 97.111 20zm46.915 26.783l.011 210.994H106.476V46.782a246.1 246.1 0 00-20 16.224v194.771c0 11.028 8.972 20 20 20h288.049c11.028 0 20-8.972 20-20V63.006a246.073 246.073 0 00-19.999-16.223z" fill="#fc5426"/><path d="M367.563 322.578c-13.897 46.642-40.999 86.844-77.706 116.172-37.596 30.039-82.327 45.916-129.356 45.916-5.522 0-10-4.477-10-10s4.478-10 10-10c85.843 0 161.563-59.424 187.895-147.799 1.578-5.292 7.142-8.308 12.439-6.728 5.292 1.577 8.305 7.146 6.728 12.439z" fill="#f4aa39"/><path d="M396.261 252.145c-26.767 48.638-40.915 103.964-40.915 159.997V491c0 5.523-4.478 10-10 10s-10-4.477-10-10v-6.348c-42.028-.485-82.603-13.99-117.488-39.132-34.493-24.859-61.618-59.67-78.441-100.668-2.097-5.109.346-10.951 5.455-13.048 5.11-2.099 10.95.347 13.047 5.455 31.438 76.614 100.903 126.392 177.428 127.391v-40.172c-39.691-.705-76.798-19.278-104.711-52.48-28.042-33.357-43.486-77.634-43.486-124.675 0-5.523 4.478-10 10-10s10 4.477 10 10c0 85.757 57.339 155.693 128.281 157.153a354.13 354.13 0 014.222-47.348c-56.109-.779-101.517-46.961-101.517-103.616 0-5.523 4.478-10 10-10s10 4.477 10 10c0 46.112 37.215 83.626 82.959 83.626.77 0 1.519.087 2.239.252a353.51 353.51 0 018.415-31.745c-30.729-3.58-58.459-29.412-58.459-60.645 0-5.523 4.478-10 10-10s10 4.477 10 10c0 22.502 22.966 40.835 45.278 41.067a347.055 347.055 0 0120.173-43.565c2.663-4.839 8.744-6.602 13.582-3.939 4.837 2.662 6.601 8.743 3.938 13.582z" fill="#f8bb5e"/><path d="M307.715 247.323c0 46.946-14.623 91.151-41.175 124.472-26.813 33.649-62.601 52.331-100.886 52.699V491c0 5.523-4.478 10-10 10s-10-4.477-10-10v-78.858c0-56.033-14.148-111.359-40.915-159.997-2.663-4.838-.899-10.919 3.939-13.582 4.838-2.664 10.92-.899 13.582 3.939a347.1 347.1 0 0120.174 43.568l.065-.001c22.445 0 40.705-18.424 40.705-41.069 0-5.523 4.478-10 10-10s10 4.477 10 10c0 31.373-23.638 57.296-53.938 60.692 3.234 10.254 6 20.661 8.289 31.183 42.668-3.404 76.354-39.492 76.354-83.364 0-5.523 4.478-10 10-10s10 4.477 10 10c0 53.635-40.696 97.884-92.642 103.11a354.166 354.166 0 014.302 47.872c67.45-.736 122.144-70.958 122.144-157.17 0-5.523 4.478-10 10-10s10.002 4.477 10.002 10z" fill="#f4aa39"/><path d="M396.468 261.645H95.5c-11.046 0-20-8.954-20-20v-5.161c0-11.046 8.954-20 20-20h300.968c11.046 0 20 8.954 20 20v5.161c0 11.046-8.955 20-20 20z" fill="#059b7e"/><path d="M405.5 261.645H151.952c-11.046 0-20-8.954-20-20v-5.161c0-11.046 8.954-20 20-20H405.5c11.046 0 20 8.954 20 20v5.161c0 11.046-8.954 20-20 20z" fill="#22b27f"/></svg>