<svg height="512" viewBox="0 0 501 501" width="512" xmlns="http://www.w3.org/2000/svg"><path d="M154.5 471.26c0 4.843-5.055 8.047-9.425 5.961C62.531 437.812 5.5 353.566 5.5 256c0-101.238 61.404-188.134 149-225.477z" fill="#57b79d"/><path d="M114.5 52.183a244.493 244.493 0 0140-21.66V471.26c0 4.843-5.055 8.047-9.425 5.961a244.66 244.66 0 01-30.575-17.403z" fill="#2cac8d"/><path d="M495.5 256c0 135.31-109.69 245-245 245-37.97 0-73.923-8.638-106-24.055V35.055C176.577 19.638 212.53 11 250.5 11c135.31 0 245 109.69 245 245z" fill="#e3f0fb"/><path d="M144.5 60h30v428.983a243.337 243.337 0 01-30-12.039z" fill="#bbe0fb"/><path d="M440.246 101H144.5c-5.523 0-10-4.477-10-10V21c0-5.523 4.477-10 10-10h110c.341 0 .679.017 1.011.051a245.454 245.454 0 0148.989 5.921 5.403 5.403 0 005.403 5.403h14.596A243.42 243.42 0 01364.5 39.084c0 6.504 5.273 11.777 11.777 11.777h8.222A246.279 246.279 0 01440.246 101z" fill="#fd4343"/><path d="M174.5 101h-30c-5.523 0-10-4.477-10-10V21c0-5.523 4.477-10 10-10h30c-5.523 0-10 4.477-10 10v70c0 5.523 4.477 10 10 10z" fill="#c92e43"/><path d="M264.5 5v70a5 5 0 01-5 5h-10a5 5 0 01-5-5V5a5 5 0 015-5h10a5 5 0 015 5zm-65-5h-10a5 5 0 00-5 5v70a5 5 0 005 5h10a5 5 0 005-5V5a5 5 0 00-5-5zm105 75a5 5 0 005 5h10a5 5 0 005-5V22.374a243.134 243.134 0 00-20-5.403zm60-35.917V75a5 5 0 005 5h10a5 5 0 005-5V50.859a244.572 244.572 0 00-20-11.776z" fill="#f8bb5e"/><path d="M264.5 5v50a5 5 0 01-5 5h-10a5 5 0 01-5-5V5a5 5 0 015-5h10a5 5 0 015 5zm-65-5h-10a5 5 0 00-5 5v50a5 5 0 005 5h10a5 5 0 005-5V5a5 5 0 00-5-5zm105 55a5 5 0 005 5h10a5 5 0 005-5V22.374a243.134 243.134 0 00-20-5.403zm60-15.917V55a5 5 0 005 5h10a5 5 0 005-5v-4.141a244.572 244.572 0 00-20-11.776z" fill="#ffdf8e"/><path d="M217 160h258.977c12.568 29.481 19.523 61.928 19.523 96 0 85.11-43.398 160.084-109.273 204H217z" fill="#f5f0eb"/><path d="M394.5 260v50h-60v-50zm0 100h60v-50h-60zm-120 0v50h60v-50zm60 100h51.727a246.128 246.128 0 008.273-5.764V410h-60zm60-300v50h60v-50z" fill="#fdc3ab"/><path d="M214.5 310h60v50h-60zm270.492-100H454.5v50h33.6c4.106 0 7.429-3.358 7.376-7.464v-.036a246.343 246.343 0 00-3.195-36.314 7.384 7.384 0 00-7.289-6.186z" fill="#fd7d43"/><path d="M495.235 267.5a249.269 249.269 0 00.24-15h-37.642v-35h34.659a244.553 244.553 0 00-2.851-15h-31.808v-35h21.195a243.128 243.128 0 00-6.399-15H217a7.5 7.5 0 00-7.5 7.5v300a7.5 7.5 0 007.5 7.5h157.242a245.583 245.583 0 0025.258-17v-33h35.24a245.748 245.748 0 0023.093-30.911V367.5h10.883a243.865 243.865 0 007.047-15h-17.93v-35h29.884a243.265 243.265 0 003.376-15h-33.26v-35zm-227.402 185H224.5v-35h43.333zm0-50H224.5v-35h43.333zm0-50H224.5v-35h43.333zm0-50H224.5v-35h43.333zm0-50H224.5v-35h43.333zm0-50H224.5v-35h43.333zm58.334 250h-43.334v-35h43.334zm0-50h-43.334v-35h43.334zm0-50h-43.334v-35h43.334zm0-50h-43.334v-35h43.334zm0-50h-43.334v-35h43.334zm0-50h-43.334v-35h43.334zm58.333 250h-43.333v-35H384.5zm0-50h-43.333v-35H384.5zm0-50h-43.333v-35H384.5zm0-50h-43.333v-35H384.5zm0-50h-43.333v-35H384.5zm0-50h-43.333v-35H384.5zm58.333 200H399.5v-35h43.333zm0-50H399.5v-35h43.333zm0-50H399.5v-35h43.333zm0-50H399.5v-35h43.333zm0-50H399.5v-35h43.333z" fill="#91cefb"/><path d="M88.161 172.904c0 14.818-12.013 26.831-26.831 26.831S34.5 187.723 34.5 172.904c0-14.818 12.013-26.831 26.831-26.831s26.83 12.013 26.83 26.831zm-26.83-13.415c-7.409 0-13.415 6.006-13.415 13.415s6.006 13.415 13.415 13.415 13.415-6.006 13.415-13.415-6.006-13.415-13.415-13.415z" fill="#d63d24"/><path d="M329.638 155.03v47.147a10 10 0 01-8.319 9.858l-92.94 15.85a98.28 98.28 0 011.091 14.63c0 53.839-43.646 97.485-97.485 97.485S34.5 296.355 34.5 242.515s43.646-97.485 97.485-97.485c1.801 0 3.59.049 5.366.146v-.146h182.287c5.522 0 10 4.477 10 10z" fill="#fc5426"/><path d="M174.351 145.03v.146a99.46 99.46 0 00-5.366-.146zm-37 .146a99.46 99.46 0 00-5.366-.146c-53.839 0-97.485 43.645-97.485 97.485S78.146 340 131.985 340c6.325 0 12.51-.603 18.5-1.753-44.992-8.643-78.985-48.218-78.985-95.732 0-53.839 43.646-97.485 97.485-97.485h-31.634z" fill="#ee4424"/><path d="M197.13 242.515c0 35.979-29.166 65.145-65.145 65.145S66.84 278.494 66.84 242.515s29.166-65.145 65.145-65.145 65.145 29.167 65.145 65.145z" fill="#d63d24"/><path d="M222.774 171.861h-.917a8.485 8.485 0 01-8.485-8.485V145.03h17.887v18.346a8.486 8.486 0 01-8.485 8.485zm-65.644 70.654c0-13.887-11.258-25.145-25.145-25.145s-25.145 11.258-25.145 25.145 11.258 25.145 25.145 25.145 25.145-11.258 25.145-25.145zm-22.642-65.098c-11.973-.449-23.261 2.336-33.059 7.549a9.818 9.818 0 00-4.467 4.883l-.16.39c-3.472 8.632 5.813 16.749 14.03 12.383a44.946 44.946 0 0121.151-5.252c24.833-.001 45.147 20.313 45.146 45.146 0 7.643-1.9 14.842-5.252 21.151-4.366 8.217 3.751 17.502 12.383 14.03.132-.053.262-.106.39-.16a9.813 9.813 0 004.883-4.467c5.213-9.798 7.997-21.085 7.549-33.057-1.265-33.824-28.769-61.329-62.594-62.596z" fill="#fd7d43"/></svg>