<svg id="Capa_1" enable-background="new 0 0 501 501" height="512" viewBox="0 0 501 501" width="512" xmlns="http://www.w3.org/2000/svg"><g><path d="m154.5 471.26c0 4.843-5.055 8.047-9.425 5.961-82.544-39.409-139.575-123.655-139.575-221.221 0-101.238 61.404-188.134 149-225.477z" fill="#57b79d"/><path d="m114.5 52.183c12.562-8.399 25.944-15.667 40-21.66v440.737c0 4.843-5.055 8.047-9.425 5.961-10.638-5.079-20.852-10.902-30.575-17.403z" fill="#2cac8d"/><path d="m495.5 256c0 135.31-109.69 245-245 245-37.97 0-73.923-8.638-106-24.055v-441.89c32.077-15.417 68.03-24.055 106-24.055 135.31 0 245 109.69 245 245z" fill="#e3f0fb"/><path d="m144.5 60h30v428.983c-10.318-3.364-20.335-7.393-30-12.039z" fill="#bbe0fb"/><path d="m440.246 101h-295.746c-5.523 0-10-4.477-10-10v-70c0-5.523 4.477-10 10-10h110c.341 0 .679.017 1.011.051 16.799.337 33.183 2.365 48.989 5.921 0 2.984 2.419 5.403 5.403 5.403h14.596c13.912 4.402 27.287 10.013 40.001 16.709 0 6.504 5.273 11.777 11.777 11.777h8.222c21.057 13.781 39.864 30.718 55.747 50.139z" fill="#fd4343"/><path d="m174.5 101h-30c-5.523 0-10-4.477-10-10v-70c0-5.523 4.477-10 10-10h30c-5.523 0-10 4.477-10 10v70c0 5.523 4.477 10 10 10z" fill="#c92e43"/><path d="m264.5 5v70c0 2.761-2.239 5-5 5h-10c-2.761 0-5-2.239-5-5v-70c0-2.761 2.239-5 5-5h10c2.761 0 5 2.239 5 5zm-65-5h-10c-2.761 0-5 2.239-5 5v70c0 2.761 2.239 5 5 5h10c2.761 0 5-2.239 5-5v-70c0-2.761-2.239-5-5-5zm105 75c0 2.761 2.239 5 5 5h10c2.761 0 5-2.239 5-5v-52.626c-6.552-2.073-13.223-3.879-20-5.403zm60-35.917v35.917c0 2.761 2.239 5 5 5h10c2.761 0 5-2.239 5-5v-24.141c-6.461-4.229-13.134-8.161-20-11.776z" fill="#f8bb5e"/><path d="m264.5 5v50c0 2.761-2.239 5-5 5h-10c-2.761 0-5-2.239-5-5v-50c0-2.761 2.239-5 5-5h10c2.761 0 5 2.239 5 5zm-65-5h-10c-2.761 0-5 2.239-5 5v50c0 2.761 2.239 5 5 5h10c2.761 0 5-2.239 5-5v-50c0-2.761-2.239-5-5-5zm105 55c0 2.761 2.239 5 5 5h10c2.761 0 5-2.239 5-5v-32.626c-6.552-2.073-13.223-3.879-20-5.403zm60-15.917v15.917c0 2.761 2.239 5 5 5h10c2.761 0 5-2.239 5-5v-4.141c-6.461-4.229-13.134-8.161-20-11.776z" fill="#ffdf8e"/><path d="m217 160h258.977c12.568 29.481 19.523 61.928 19.523 96 0 85.11-43.398 160.084-109.273 204h-169.227z" fill="#f5f0eb"/><path d="m394.5 260v50h-60v-50zm0 100h60v-50h-60zm-120 0v50h60v-50zm60 100h51.727c2.799-1.866 5.557-3.788 8.273-5.764v-44.236h-60zm60-300v50h60v-50z" fill="#fdc3ab"/><path d="m214.5 310h60v50h-60zm270.492-100h-30.492v50h33.6c4.106 0 7.429-3.358 7.376-7.464 0-.012 0-.024 0-.036-.173-12.347-1.259-24.473-3.195-36.314-.583-3.569-3.674-6.186-7.289-6.186z" fill="#fd7d43"/><path d="m495.235 267.5c.176-3.811.265-7.645.265-11.5 0-1.169-.009-2.335-.025-3.5h-37.642v-35h34.659c-.798-5.053-1.75-10.055-2.851-15h-31.808v-35h21.195c-1.97-5.084-4.105-10.086-6.399-15h-255.629c-4.142 0-7.5 3.358-7.5 7.5v300c0 4.142 3.358 7.5 7.5 7.5h157.242c8.783-5.15 17.218-10.832 25.258-17v-33h35.24c8.476-9.661 16.204-19.995 23.093-30.911v-19.089h10.883c2.512-4.906 4.863-9.909 7.047-15h-17.93v-35h29.884c1.277-4.941 2.405-9.943 3.376-15h-33.26v-35zm-227.402 185h-43.333v-35h43.333zm0-50h-43.333v-35h43.333zm0-50h-43.333v-35h43.333zm0-50h-43.333v-35h43.333zm0-50h-43.333v-35h43.333zm0-50h-43.333v-35h43.333zm58.334 250h-43.334v-35h43.334zm0-50h-43.334v-35h43.334zm0-50h-43.334v-35h43.334zm0-50h-43.334v-35h43.334zm0-50h-43.334v-35h43.334zm0-50h-43.334v-35h43.334zm58.333 250h-43.333v-35h43.333zm0-50h-43.333v-35h43.333zm0-50h-43.333v-35h43.333zm0-50h-43.333v-35h43.333zm0-50h-43.333v-35h43.333zm0-50h-43.333v-35h43.333zm58.333 200h-43.333v-35h43.333zm0-50h-43.333v-35h43.333zm0-50h-43.333v-35h43.333zm0-50h-43.333v-35h43.333zm0-50h-43.333v-35h43.333z" fill="#91cefb"/><path d="m88.161 172.904c0 14.818-12.013 26.831-26.831 26.831s-26.83-12.012-26.83-26.831c0-14.818 12.013-26.831 26.831-26.831s26.83 12.013 26.83 26.831zm-26.83-13.415c-7.409 0-13.415 6.006-13.415 13.415s6.006 13.415 13.415 13.415 13.415-6.006 13.415-13.415-6.006-13.415-13.415-13.415z" fill="#d63d24"/><path d="m329.638 155.03v47.147c0 4.874-3.514 9.038-8.319 9.858l-92.94 15.85c.718 4.772 1.091 9.657 1.091 14.63 0 53.839-43.646 97.485-97.485 97.485s-97.485-43.645-97.485-97.485 43.646-97.485 97.485-97.485c1.801 0 3.59.049 5.366.146v-.146h182.287c5.522 0 10 4.477 10 10z" fill="#fc5426"/><path d="m174.351 145.03v.146c-1.777-.096-3.566-.146-5.366-.146zm-37 .146c-1.777-.096-3.566-.146-5.366-.146-53.839 0-97.485 43.645-97.485 97.485s43.646 97.485 97.485 97.485c6.325 0 12.51-.603 18.5-1.753-44.992-8.643-78.985-48.218-78.985-95.732 0-53.839 43.646-97.485 97.485-97.485h-31.634z" fill="#ee4424"/><path d="m197.13 242.515c0 35.979-29.166 65.145-65.145 65.145s-65.145-29.166-65.145-65.145 29.166-65.145 65.145-65.145 65.145 29.167 65.145 65.145z" fill="#d63d24"/><path d="m222.774 171.861h-.917c-4.686 0-8.485-3.799-8.485-8.485v-18.346h17.887v18.346c-.001 4.686-3.799 8.485-8.485 8.485zm-65.644 70.654c0-13.887-11.258-25.145-25.145-25.145s-25.145 11.258-25.145 25.145 11.258 25.145 25.145 25.145 25.145-11.258 25.145-25.145zm-22.642-65.098c-11.973-.449-23.261 2.336-33.059 7.549-2.004 1.066-3.596 2.786-4.467 4.883-.053.129-.107.259-.16.39-3.472 8.632 5.813 16.749 14.03 12.383 6.309-3.352 13.508-5.252 21.151-5.252 24.833-.001 45.147 20.313 45.146 45.146 0 7.643-1.9 14.842-5.252 21.151-4.366 8.217 3.751 17.502 12.383 14.03.132-.053.262-.106.39-.16 2.097-.87 3.816-2.462 4.883-4.467 5.213-9.798 7.997-21.085 7.549-33.057-1.265-33.824-28.769-61.329-62.594-62.596z" fill="#fd7d43"/></g></svg>