<svg height="512" viewBox="0 0 501 501" width="512" xmlns="http://www.w3.org/2000/svg"><path d="M50.199 134.5c-4.541 0-7.361-4.947-5.044-8.852C87.841 53.716 166.29 5.5 256 5.5c5.956 0 11.862.213 17.711.63 82.198 5.872 77.361 128.37-5.046 128.37z" fill="#2740af"/><path d="M332.809 74.5c-2.058 30.654-23.81 60-64.144 60H50.199c-4.541 0-7.361-4.947-5.044-8.852A246.078 246.078 0 0185.562 74.5z" fill="#172a7d"/><path d="M45.841 124.5H466.16c22.12 36.816 34.84 79.922 34.84 126 0 29.509-5.217 57.8-14.779 84H25.779C16.217 308.3 11 280.009 11 250.5c0-46.078 12.72-89.184 34.841-126z" fill="#f8bb5e"/><path d="M500.486 234.5c.341 5.289.514 10.624.514 16 0 135.31-109.69 245-245 245S11 385.81 11 250.5c0-5.376.173-10.711.514-16z" fill="#f5dc90"/><path d="M324.159 458c0 7.456-6.044 13.5-13.5 13.5H150.115a245.048 245.048 0 01-43.764-27h204.308c7.456 0 13.5 6.044 13.5 13.5zm89.341-83.5c-7.456 0-13.5 6.044-13.5 13.5s6.044 13.5 13.5 13.5h35.448a245.634 245.634 0 0018.4-27z" fill="#fbc56d"/><path d="M355 234.5h30v224.328a244.198 244.198 0 01-30 15.846z" fill="#f9eecf"/><path d="M501 250.5c0 16.721-1.675 33.051-4.867 48.831C463.678 327.471 421.328 344.5 375 344.5c-102.173 0-185-82.827-185-185 0-63.922 32.419-120.271 81.713-153.504C399.701 14.097 501 120.468 501 250.5z" fill="#fd7d43"/><path d="M466.795 320.155C439.744 335.645 408.406 344.5 375 344.5c-102.173 0-185-82.827-185-185 0-33.406 8.855-64.744 24.345-91.795 8.622 135.468 116.982 243.828 252.45 252.45z" fill="#f16b38"/><path d="M500.461 266.875a245.884 245.884 0 01-2.254 20.739 431.674 431.674 0 01-14.662-5.882 430.72 430.72 0 01-40.276-19.537c-20.875 24.29-38.174 51.737-51.075 81.516a187.22 187.22 0 01-22.197.722c13.298-33.395 31.947-64.615 55.507-92.596a426.96 426.96 0 01-48.579-34.834c-33.581 28.26-78.663 40.56-128.404 34.747-12.84-1.501-25.631-4.172-38.238-7.945a183.824 183.824 0 01-10.471-24.706c16.68 6.447 33.819 10.775 51.032 12.787a183.939 183.939 0 0021.368 1.267c34.366 0 65.228-10.149 89.399-29.459a438.392 438.392 0 01-14.736-14.067c-39.473-39.474-70.462-85.457-92.105-136.672a430.939 430.939 0 01-9.709-25.137 186.117 186.117 0 0116.379-14.371c22.543 68.468 62.669 129.025 115.009 176.302 26.865-29.643 38.671-70.838 33.302-116.769a198.467 198.467 0 00-2.365-15.126 246.395 246.395 0 0122.991 20.547c3.873 48.517-9.733 92.166-38.76 124.396a412.006 412.006 0 0047.632 33.678 346.523 346.523 0 016.281-6.446c14.907-14.907 30.959-28.258 47.959-39.973a243.822 243.822 0 014.462 21.673 322.603 322.603 0 00-40.584 35.098 408.221 408.221 0 0043.094 20.048z" fill="#c64b1a"/><path d="M175.767 234.034h-30.904c-10.667 0-19.315-8.648-19.315-19.315v-30.904c0-10.667 8.648-19.315 19.315-19.315h30.904c10.667 0 19.315 8.648 19.315 19.315v30.904c0 10.668-8.647 19.315-19.315 19.315zm-83.055-32.835v21.247c0 10.667-8.648 19.315-19.315 19.315s-19.315-8.648-19.315-19.315v-21.247c0-10.667 8.648-19.315 19.315-19.315s19.315 8.647 19.315 19.315z" fill="#bbe0fb"/><path d="M175.767 234.034h-1.932c-10.667 0-19.315-8.648-19.315-19.315v-30.904c0-10.667 8.648-19.315 19.315-19.315h1.932c10.667 0 19.315 8.648 19.315 19.315v30.904c0 10.668-8.647 19.315-19.315 19.315zm71.466-52.15c-10.667 0-19.315 8.648-19.315 19.315v21.247c0 10.667 8.648 19.315 19.315 19.315s19.315-8.648 19.315-19.315v-21.247c0-10.668-8.648-19.315-19.315-19.315z" fill="#e3f0fb"/><path d="M262.685 446.5H57.945C25.943 446.5 0 420.557 0 388.555v-127.48c0-32.002 25.943-57.945 57.945-57.945h204.74c32.002 0 57.945 25.943 57.945 57.945v127.479c0 32.003-25.943 57.946-57.945 57.946z" fill="#059b7e"/><path d="M262.685 446.5h-102.37C93.11 446.5 38.63 392.02 38.63 324.815c0-67.205 54.48-121.685 121.685-121.685h102.37c32.002 0 57.945 25.943 57.945 57.945v127.479c0 32.003-25.943 57.946-57.945 57.946z" fill="#22b27f"/><path d="M243.37 393.602H77.26a9.658 9.658 0 01-9.658-9.658V265.686a9.658 9.658 0 019.658-9.658h166.11a9.658 9.658 0 019.658 9.658v118.258c-.001 5.334-4.324 9.658-9.658 9.658z" fill="#172a7d"/><path d="M243.37 393.602H99.658A9.658 9.658 0 0190 383.944V265.686a9.658 9.658 0 019.658-9.658H243.37a9.658 9.658 0 019.658 9.658v118.258c-.001 5.334-4.324 9.658-9.658 9.658z" fill="#2740af"/><path d="M174.801 335.921a7.243 7.243 0 11-14.487 0 7.243 7.243 0 0114.487 0zm-38.63-7.243c-4 0-7.243 3.243-7.243 7.243v24.144a7.243 7.243 0 0014.486 0v-24.144c0-4-3.242-7.243-7.243-7.243zm0-48.288h-19.315a7.243 7.243 0 000 14.486h12.072v16.901a7.243 7.243 0 0014.486 0v-24.144c0-4-3.242-7.243-7.243-7.243zm-41.044 48.288c-4 0-7.243 3.243-7.243 7.243v24.144a7.243 7.243 0 0014.486 0v-24.144c0-4-3.243-7.243-7.243-7.243zm0-48.288c-4 0-7.243 3.243-7.243 7.243v24.144a7.243 7.243 0 0014.486 0v-24.144c0-4-3.243-7.243-7.243-7.243zm72.431 24.144a7.243 7.243 0 100 14.487 7.243 7.243 0 000-14.487zm57.945-24.144c-4 0-7.243 3.243-7.243 7.243v24.144a7.243 7.243 0 0014.486 0v-24.144a7.242 7.242 0 00-7.243-7.243zm0 48.288c-4 0-7.243 3.243-7.243 7.243v24.144a7.243 7.243 0 0014.486 0v-24.144a7.242 7.242 0 00-7.243-7.243zm-28.972-48.288c-4 0-7.243 3.243-7.243 7.243v24.144a7.243 7.243 0 0014.486 0v-24.144c0-4-3.243-7.243-7.243-7.243zm0 48.288c-4 0-7.243 3.243-7.243 7.243v24.144a7.243 7.243 0 0014.486 0v-24.144c0-4-3.243-7.243-7.243-7.243z" fill="#49b4fa"/></svg>