<svg height="512" viewBox="0 0 501 501" width="512" xmlns="http://www.w3.org/2000/svg"><path d="M68.994 407.239a13.353 13.353 0 01-14.851-4.691C23.592 361.678 5.5 310.952 5.5 256c0-135.31 109.69-245 245-245s245 109.69 245 245c0 54.791-17.986 105.382-48.376 146.189-3.583 4.812-9.839 6.768-15.544 4.911-54.173-17.632-115.763-27.6-181.08-27.6-65.489 0-127.229 10.02-181.506 27.739z" fill="#6c7fd7"/><path d="M316.297 0H326.5v98.5c0 33.966-27.534 61.5-61.5 61.5h-29c-33.966 0-61.5-27.534-61.5-61.5V0h10.203c20.175 12.869 42.422 20 65.797 20s45.623-7.131 65.797-20z" fill="#e55920"/><path d="M326.5 0v30h-10.203c-20.175 12.869-42.422 20-65.797 20s-45.623-7.131-65.797-20H174.5V0h10.203c20.175 12.869 42.422 20 65.797 20s45.623-7.131 65.797-20z" fill="#fc6930"/><path d="M447.25 201.5v124.197c0 69.606-42.082 132.714-106.824 158.273C312.585 494.961 282.248 501 250.5 501c-31.855 0-62.29-6.079-90.208-17.141C95.752 458.286 53.75 395.423 53.75 326.001V201.5c0-6.372 5.214-11.491 11.586-11.5 33.098-.046 59.914-26.891 59.914-60V15c0-8.284 6.716-15 15-15H189v87.583c0 33.8 26.887 61.973 60.684 62.411C284.023 150.44 312 122.737 312 88.5V0h48.75c8.284 0 15 6.716 15 15v115c0 33.108 26.816 59.954 59.914 60 6.372.009 11.586 5.128 11.586 11.5z" fill="#fd7d43"/><path d="M104.5 175.382c12.709-11.002 20.75-27.253 20.75-45.382V15c0-8.284 6.716-15 15-15H181c-8.284 0-15 6.716-15 15v145c0 20.87-10.655 39.251-26.822 50 0 0-45.199-25.51-34.678-34.618z" fill="#f16b38"/><path d="M325.5 285c0 41.421-33.579 75-75 75s-75-33.579-75-75 33.579-75 75-75 75 33.579 75 75z" fill="#fc6930"/><path d="M336.5 0v89c0 47.497-38.503 86-86 86s-86-38.503-86-86V0H189v88.5c0 33.966 27.534 61.5 61.5 61.5S312 122.466 312 88.5V0z" fill="#fdcbbb"/><path d="M447.25 201.5v200.52c-27.046 36.383-63.946 65.006-106.75 81.92V218.85c0-5.976 2.673-11.64 7.286-15.439l42.127-34.693C400.919 181.735 417.369 190 435.75 190c6.351 0 11.5 5.149 11.5 11.5zm-294.036 1.912l-42.127-34.693C100.081 181.735 83.631 190 65.25 190c-6.351 0-11.5 5.149-11.5 11.5v200.52c27.046 36.383 63.946 65.006 106.75 81.92V218.85a20 20 0 00-7.286-15.438z" fill="#f9eecf"/><path d="M111.087 168.719l38.927 32.058C139.056 212.6 123.392 220 106 220c-6.351 0-11.5 5.149-11.5 11.5l-40.75-30c0-6.351 5.149-11.5 11.5-11.5 18.379 0 34.828-8.264 45.835-21.279l.002-.002z" fill="#f7e6b0"/><path d="M405.5 181.827c8.881 5.195 19.218 8.173 30.25 8.173 6.351 0 11.5 5.149 11.5 11.5v200.52a246.47 246.47 0 01-41.75 43.726z" fill="#ffdf8e"/><path d="M95.5 181.827v263.918a246.436 246.436 0 01-41.75-43.726V201.5c0-6.351 5.149-11.5 11.5-11.5 11.032 0 21.369-2.978 30.25-8.173z" fill="#fbc56d"/><path d="M359.5 470h-50a5 5 0 01-5-5v-50a5 5 0 015-5h50a5 5 0 015 5v50a5 5 0 01-5 5z" fill="#c64b1a"/><path d="M441.06 410c-19.623 24.251-43.781 44.681-71.184 60H339.5a5 5 0 01-5-5v-50a5 5 0 015-5z" fill="#fc5426"/><path d="M368.25 420v40a2.5 2.5 0 01-2.5 2.5h-2.5a2.5 2.5 0 01-2.5-2.5v-40a2.5 2.5 0 012.5-2.5h2.5a2.5 2.5 0 012.5 2.5zm11.25 34.5v2.5a2.5 2.5 0 002.5 2.5h4.974a245.562 245.562 0 0010.55-7.5H382a2.5 2.5 0 00-2.5 2.5zm0-15.75v2.5a2.5 2.5 0 002.5 2.5h25.909a246.956 246.956 0 008.529-7.5H382a2.5 2.5 0 00-2.5 2.5zm2.5-17.5a2.5 2.5 0 00-2.5 2.5v2.5a2.5 2.5 0 002.5 2.5h42.231c2.436-2.449 4.82-4.95 7.151-7.5z" fill="#c64b1a"/><path d="M335.142 422.153l5.408 9.889a2 2 0 00.795.795l9.889 5.408c1.387.759 1.387 2.751 0 3.509l-9.889 5.408a2 2 0 00-.795.795l-5.408 9.889c-.759 1.387-2.751 1.387-3.509 0l-5.408-9.889a2 2 0 00-.795-.795l-9.889-5.408c-1.387-.759-1.387-2.751 0-3.509l9.889-5.408c.336-.184.612-.459.795-.795l5.408-9.889c.758-1.387 2.751-1.387 3.509 0z" fill="#fcf498"/><path d="M258.601 246.7v136.148c0 4.142-3.357 7.5-7.5 7.5s-7.5-3.358-7.5-7.5V254.2H222c-4.143 0-7.5-3.358-7.5-7.5s3.357-7.5 7.5-7.5h29.101a7.5 7.5 0 017.5 7.5z" fill="#f5f0eb"/></svg>