<svg id="Capa_1" enable-background="new 0 0 501 501" height="512" viewBox="0 0 501 501" width="512" xmlns="http://www.w3.org/2000/svg"><g><path d="m68.341 407c-6.923 0-13.457-3.305-17.476-8.943-28.563-40.068-45.365-89.1-45.365-142.057 0-135.31 109.69-245 245-245s245 109.69 245 245c0 53.09-16.886 102.235-45.581 142.359-3.892 5.442-10.199 8.641-16.89 8.641z" fill="#172a7d"/><path d="m427.367 133.265 5.408 9.889c.184.336.459.611.795.795l9.889 5.408c1.387.759 1.387 2.751 0 3.509l-9.889 5.408c-.336.184-.612.459-.795.795l-5.408 9.889c-.759 1.387-2.751 1.387-3.509 0l-5.408-9.889c-.184-.336-.459-.611-.795-.795l-9.889-5.408c-1.387-.759-1.387-2.751 0-3.509l9.889-5.408c.336-.184.611-.459.795-.795l5.408-9.889c.758-1.387 2.751-1.387 3.509 0z" fill="#0680ae"/><path d="m87.367 133.265 5.408 9.889c.184.336.459.611.795.795l9.889 5.408c1.387.759 1.387 2.751 0 3.509l-9.889 5.408c-.336.184-.611.459-.795.795l-5.408 9.889c-.759 1.387-2.751 1.387-3.509 0l-5.408-9.889c-.184-.336-.459-.611-.795-.795l-9.889-5.408c-1.387-.759-1.387-2.751 0-3.509l9.889-5.408c.336-.184.611-.459.795-.795l5.408-9.889c.758-1.387 2.751-1.387 3.509 0z" fill="#05a2f9"/><path d="m450.5 385v12.544c-25.496 35.961-60.447 64.745-101.231 82.732-13.146 5.798-27.924-3.757-27.924-18.125v-92.151h114.155c8.284 0 15 6.716 15 15z" fill="#2cac8d"/><path d="m352 479.05c-7.117 3.244-14.416 6.157-21.878 8.721-4.297 1.476-8.776-1.696-8.776-6.24v-111.531h30.654z" fill="#059b7e"/><path d="m400.476 349.024c-35.898 0-65-29.101-65-65s29.102-65 65-65 65 29.101 65 65-29.102 65-65 65z" fill="#57b79d"/><path d="m344.029 316.277c-5.442-9.505-8.554-20.515-8.554-32.252 0-35.898 29.102-65 65-65 11.737 0 22.748 3.111 32.252 8.554-47.596 3.028-85.668 41.101-88.698 88.698z" fill="#22b27f"/><path d="m405.829 439.409c1.032 1.166 1.944 2.441 2.716 3.805-3.973 3.357-8.054 6.59-12.238 9.693-.575-3.4-3.541-5.998-7.103-5.998-4.143 0-7.5-3.358-7.5-7.5s3.357-7.5 7.5-7.5c3.973 0 7.204-3.232 7.204-7.205s-3.231-7.205-7.204-7.205c-3.437 0-6.409 2.439-7.069 5.8-.799 4.064-4.735 6.71-8.805 5.914-4.064-.798-6.712-4.74-5.914-8.805 2.038-10.377 11.201-17.909 21.788-17.909 12.243 0 22.204 9.961 22.204 22.205.001 5.635-2.108 10.786-5.579 14.705zm-23.759 15.728c-.047-.339-.07-.684-.07-1.023 0-4.142-3.357-7.5-7.5-7.5s-7.5 3.358-7.5 7.5c0 1.025.071 2.061.214 3.088.604 4.331 2.462 8.239 5.172 11.376 4.516-2.595 8.942-5.33 13.271-8.198-1.893-1.076-3.271-2.982-3.587-5.243zm83.381-172.909c-12.835-7.876-24.829-17.32-35.741-28.233-1.207-1.206-2.395-2.426-3.565-3.659-9.472 5.736-18.505 12.129-27.034 19.114 17.347 19.261 24.99 45.707 21.567 74.998-.056.478-.115.955-.177 1.432-3.812 1.233-7.777 2.124-11.861 2.635.298-1.793.553-3.588.763-5.385 3.047-26.069-3.654-49.45-18.901-66.275-15.585 14.077-29.261 30.229-40.59 48.015-2.628-3.249-4.949-6.756-6.919-10.478 8.919-13.404 19.182-25.926 30.724-37.468 2.733-2.733 5.522-5.395 8.364-7.984-10.836-8.657-24.042-14.07-38.725-15.962 2.012-3.695 4.373-7.173 7.037-10.39 15.242 2.85 28.979 9.203 40.38 18.798 8.742-7.244 17.944-13.842 27.572-19.771-6.036-7.169-11.504-14.712-16.382-22.575 5.235.118 10.318.854 15.177 2.139 3.519 5.045 7.287 9.904 11.287 14.558 3.093-1.705 6.227-3.344 9.4-4.917 3.422 2.407 6.602 5.136 9.494 8.142-3.685 1.739-7.317 3.573-10.894 5.497 8.18 8.36 17.159 15.935 26.812 22.601 1.309 4.856 2.07 9.934 2.212 15.168z" fill="#08856c"/><path d="m171.843 488.1c-49.41-16.739-91.747-48.813-121.343-90.556v-42.544c0-8.284 6.716-15 15-15h112v144.041c0 2.93-2.882 4.999-5.657 4.059z" fill="#fc5426"/><path d="m181.95 254.024c0 35.899-29.101 65-65 65s-65-29.101-65-65 29.101-65 65-65 65 29.102 65 65z" fill="#fc5426"/><path d="m149.202 310.471c-9.505 5.442-20.515 8.554-32.252 8.554-35.899 0-65-29.101-65-65 0-11.737 3.111-22.748 8.554-32.252 3.029 47.596 41.101 85.668 88.698 88.698z" fill="#e55920"/><path d="m78 429.979c-10.069-9.984-19.276-20.836-27.5-32.435v-42.544c0-8.284 6.716-15 15-15h27.5c-8.284 0-15 6.716-15 15zm99.374-196.156c-29.292-3.424-55.737 4.22-74.998 21.567-6.986-8.529-13.378-17.562-19.114-27.034 1.232-1.17 2.452-2.359 3.659-3.565 10.913-10.913 20.357-22.907 28.232-35.741-5.233.142-10.312.903-15.166 2.211-6.666 9.653-14.241 18.632-22.601 26.812-1.924-3.576-3.758-7.209-5.497-10.894-3.007 2.893-5.735 6.072-8.142 9.494 1.573 3.173 3.212 6.307 4.917 9.4-4.654 4-9.513 7.768-14.558 11.287-1.285 4.859-2.021 9.942-2.139 15.177 7.863-4.877 15.406-10.345 22.575-16.382 5.929 9.628 12.527 18.83 19.771 27.572-9.595 11.401-15.948 25.138-18.798 40.38 3.217 2.665 6.695 5.025 10.39 7.037 1.892-14.683 7.305-27.889 15.962-38.725 2.589 2.842 5.25 5.63 7.984 8.364 11.542 11.542 24.064 21.806 37.468 30.724 3.722-1.97 7.229-4.292 10.478-6.919-17.786-11.329-33.938-25.005-48.015-40.59 16.824-15.248 40.205-21.948 66.274-18.901 1.797.21 3.593.465 5.385.763-.511-4.083-3.589-11.981-4.067-12.037zm-41.303 188.545c-.032 0-.064 0-.096 0-5.067.063-10.416.108-15.086.125 3.086-4.155 7.178-9.784 12.494-17.38 3.745-5.352 6.192-10.426 7.271-15.082.058-.247.478-3.601.478-3.917 0-12.244-9.961-22.205-22.204-22.205-10.587 0-19.75 7.532-21.788 17.909-.798 4.064 1.85 8.006 5.914 8.805 4.067.799 8.007-1.849 8.805-5.914.66-3.36 3.633-5.8 7.069-5.8 3.841 0 6.989 3.021 7.193 6.812l-.159 1.25c-.691 2.681-2.369 5.97-4.868 9.541-9.09 12.988-14.514 20.09-17.428 23.905-3.696 4.84-5.551 7.27-4.291 11.366.747 2.429 2.583 4.292 5.037 5.11 1.012.337 1.868.623 13.037.623 4.412 0 10.437-.044 18.713-.148 4.143-.052 7.458-3.452 7.405-7.594-.049-4.11-3.397-7.406-7.496-7.406z" fill="#c64b1a"/><path d="m250.5 270c-74.558 0-135-60.442-135-135s60.442-135 135-135 135 60.442 135 135-60.442 135-135 135z" fill="#fdbf43"/><path d="m133.265 201.986c-11.303-19.74-17.765-42.608-17.765-66.986 0-74.558 60.442-135 135-135 24.378 0 47.246 6.462 66.986 17.765-98.856 6.292-177.929 85.365-184.221 184.221z" fill="#f4aa39"/><path d="m385.5 135c0 1.221-.017 2.438-.049 3.651-30.91-12.309-59.268-30.9-83.485-55.117-1.551-1.551-3.079-3.119-4.584-4.704-12.179 7.375-23.792 15.594-34.758 24.576 22.303 24.764 32.131 58.766 27.729 96.426-2.789 23.858-11.112 47.482-24.158 69.266-5.149.595-10.386.902-15.695.902-.722 0-1.443-.006-2.162-.018 15.069-22.284 24.611-46.957 27.52-71.845 3.917-33.518-4.697-63.579-24.302-85.21-38.194 34.499-67.475 78.69-83.925 128.653-4.188-3.261-8.179-6.764-11.952-10.487 2.164-6.171 4.525-12.287 7.085-18.343 15.793-37.373 38.407-70.928 67.212-99.734 3.514-3.514 7.099-6.936 10.753-10.265-17.639-14.091-40.159-21.498-65.238-21.498-5.098 0-10.303.306-15.593.925-12.561 1.468-25.067 4.626-37.239 9.331 2.117-6.226 4.677-12.249 7.641-18.029 9.2-2.753 18.534-4.703 27.904-5.798 36.298-4.242 69.195 4.734 93.7 25.356 11.239-9.313 23.071-17.796 35.45-25.419-17.192-20.418-30.801-43.201-40.505-67.57 1.213-.032 2.43-.049 3.651-.049 4.231 0 8.416.195 12.547.576 9.414 21.731 22.038 41.759 37.271 59.484 9.507-5.24 19.31-9.997 29.391-14.257 5.352-2.262 10.75-4.369 16.192-6.322 3.751 3.747 7.283 7.713 10.574 11.878-15.929 5.375-31.262 12.056-45.871 19.916 21.079 21.542 46.283 39.032 74.32 51.177.381 4.132.576 8.317.576 12.548z" fill="#ce9047"/><path d="m330.5 305v182.641c-25.071 8.657-51.987 13.359-80 13.359s-54.929-4.702-80-13.359v-182.641c0-8.284 6.716-15 15-15h130c8.284 0 15 6.716 15 15z" fill="#f4aa39"/><path d="m185.5 290h34c-8.284 0-15 6.716-15 15v191.688c-11.646-2.212-23-5.249-34-9.047v-182.641c0-8.284 6.716-15 15-15z" fill="#d98800"/><path d="m261.101 330.929v136.148c0 4.142-3.357 7.5-7.5 7.5s-7.5-3.358-7.5-7.5v-128.648h-21.601c-4.143 0-7.5-3.358-7.5-7.5s3.357-7.5 7.5-7.5h29.101c4.142 0 7.5 3.358 7.5 7.5z" fill="#f9eecf"/><path d="m473.46 264.867-9.889 5.408c-.336.184-.612.459-.795.795l-5.408 9.889c-.759 1.387-2.751 1.387-3.509 0l-5.409-9.889c-.183-.336-.459-.612-.795-.795l-9.889-5.408c-1.387-.759-1.387-2.751 0-3.509l9.889-5.408c.336-.184.612-.459.795-.795l5.409-9.889c.759-1.387 2.751-1.387 3.509 0l5.408 9.889c.184.336.459.611.795.795l9.889 5.408c1.387.758 1.387 2.751 0 3.509zm-129.725 77.73-7.271-3.977c-.247-.135-.449-.338-.584-.585l-3.977-7.271c-.558-1.02-2.023-1.02-2.581 0l-3.977 7.271c-.135.247-.338.45-.584.585l-7.271 3.977c-1.02.558-1.02 2.023 0 2.58l7.271 3.977c.247.135.449.338.584.585l3.977 7.271c.558 1.02 2.023 1.02 2.581 0l3.977-7.271c.135-.247.338-.45.584-.585l7.271-3.977c1.02-.557 1.02-2.022 0-2.58z" fill="#f5dc90"/><path d="m41.057 291.026 3.977 7.271c.135.247.338.45.585.585l7.271 3.977c1.02.558 1.02 2.023 0 2.58l-7.271 3.977c-.247.135-.45.338-.585.585l-3.977 7.271c-.558 1.02-2.023 1.02-2.58 0l-3.977-7.272c-.135-.247-.338-.45-.585-.585l-7.271-3.977c-1.02-.558-1.02-2.023 0-2.58l7.271-3.977c.247-.135.45-.338.585-.585l3.977-7.271c.557-1.019 2.022-1.019 2.58.001z" fill="#f4aa39"/><path d="m304.213 274.99 5.408 9.889c.184.336.459.611.795.795l9.889 5.408c1.387.759 1.387 2.751 0 3.509l-9.889 5.409c-.336.184-.611.459-.795.795l-5.408 9.889c-.759 1.387-2.751 1.387-3.509 0l-5.408-9.889c-.184-.336-.459-.612-.795-.795l-9.889-5.408c-1.387-.759-1.387-2.751 0-3.509l9.889-5.408c.336-.184.612-.459.795-.795l5.408-9.889c.758-1.388 2.75-1.388 3.509-.001z" fill="#fff5f5"/></g></svg>