<svg height="512" viewBox="0 0 501 501" width="512" xmlns="http://www.w3.org/2000/svg"><path d="M68.341 407c-6.923 0-13.457-3.305-17.476-8.943C22.302 357.989 5.5 308.957 5.5 256c0-135.31 109.69-245 245-245s245 109.69 245 245c0 53.09-16.886 102.235-45.581 142.359-3.892 5.442-10.199 8.641-16.89 8.641z" fill="#172a7d"/><path d="M427.367 133.265l5.408 9.889a2 2 0 00.795.795l9.889 5.408c1.387.759 1.387 2.751 0 3.509l-9.889 5.408a1.994 1.994 0 00-.795.795l-5.408 9.889c-.759 1.387-2.751 1.387-3.509 0l-5.408-9.889a2 2 0 00-.795-.795l-9.889-5.408c-1.387-.759-1.387-2.751 0-3.509l9.889-5.408a2 2 0 00.795-.795l5.408-9.889c.758-1.387 2.751-1.387 3.509 0z" fill="#0680ae"/><path d="M87.367 133.265l5.408 9.889a2 2 0 00.795.795l9.889 5.408c1.387.759 1.387 2.751 0 3.509l-9.889 5.408a2 2 0 00-.795.795l-5.408 9.889c-.759 1.387-2.751 1.387-3.509 0l-5.408-9.889a2 2 0 00-.795-.795l-9.889-5.408c-1.387-.759-1.387-2.751 0-3.509l9.889-5.408a2 2 0 00.795-.795l5.408-9.889c.758-1.387 2.751-1.387 3.509 0z" fill="#05a2f9"/><path d="M450.5 385v12.544c-25.496 35.961-60.447 64.745-101.231 82.732-13.146 5.798-27.924-3.757-27.924-18.125V370H435.5c8.284 0 15 6.716 15 15z" fill="#2cac8d"/><path d="M352 479.05a243.62 243.62 0 01-21.878 8.721c-4.297 1.476-8.776-1.696-8.776-6.24V370H352z" fill="#059b7e"/><path d="M400.476 349.024c-35.898 0-65-29.101-65-65s29.102-65 65-65 65 29.101 65 65-29.102 65-65 65z" fill="#57b79d"/><path d="M344.029 316.277c-5.442-9.505-8.554-20.515-8.554-32.252 0-35.898 29.102-65 65-65 11.737 0 22.748 3.111 32.252 8.554-47.596 3.028-85.668 41.101-88.698 88.698z" fill="#22b27f"/><path d="M405.829 439.409a22.363 22.363 0 012.716 3.805 246.159 246.159 0 01-12.238 9.693c-.575-3.4-3.541-5.998-7.103-5.998-4.143 0-7.5-3.358-7.5-7.5s3.357-7.5 7.5-7.5c3.973 0 7.204-3.232 7.204-7.205s-3.231-7.205-7.204-7.205c-3.437 0-6.409 2.439-7.069 5.8a7.5 7.5 0 11-14.719-2.891c2.038-10.377 11.201-17.909 21.788-17.909 12.243 0 22.204 9.961 22.204 22.205a22.106 22.106 0 01-5.579 14.705zm-23.759 15.728a7.483 7.483 0 01-.07-1.023c0-4.142-3.357-7.5-7.5-7.5s-7.5 3.358-7.5 7.5a22.036 22.036 0 005.386 14.464 245.448 245.448 0 0013.271-8.198c-1.893-1.076-3.271-2.982-3.587-5.243zm83.381-172.909c-12.835-7.876-24.829-17.32-35.741-28.233a191.86 191.86 0 01-3.565-3.659 233.885 233.885 0 00-27.034 19.114c17.347 19.261 24.99 45.707 21.567 74.998-.056.478-.115.955-.177 1.432a64.566 64.566 0 01-11.861 2.635c.298-1.793.553-3.588.763-5.385 3.047-26.069-3.654-49.45-18.901-66.275a234.49 234.49 0 00-40.59 48.015 65.054 65.054 0 01-6.919-10.478c8.919-13.404 19.182-25.926 30.724-37.468a248.42 248.42 0 018.364-7.984c-10.836-8.657-24.042-14.07-38.725-15.962a65.124 65.124 0 017.037-10.39c15.242 2.85 28.979 9.203 40.38 18.798a242.388 242.388 0 0127.572-19.771 193.087 193.087 0 01-16.382-22.575 65.04 65.04 0 0115.177 2.139 182.639 182.639 0 0011.287 14.558 243.544 243.544 0 019.4-4.917 65.351 65.351 0 019.494 8.142 232.164 232.164 0 00-10.894 5.497 183.036 183.036 0 0026.812 22.601 64.984 64.984 0 012.212 15.168z" fill="#08856c"/><path d="M171.843 488.1c-49.41-16.739-91.747-48.813-121.343-90.556V355c0-8.284 6.716-15 15-15h112v144.041c0 2.93-2.882 4.999-5.657 4.059zM181.95 254.024c0 35.899-29.101 65-65 65s-65-29.101-65-65 29.101-65 65-65 65 29.102 65 65z" fill="#fc5426"/><path d="M149.202 310.471c-9.505 5.442-20.515 8.554-32.252 8.554-35.899 0-65-29.101-65-65 0-11.737 3.111-22.748 8.554-32.252 3.029 47.596 41.101 85.668 88.698 88.698z" fill="#e55920"/><path d="M78 429.979a246.315 246.315 0 01-27.5-32.435V355c0-8.284 6.716-15 15-15H93c-8.284 0-15 6.716-15 15zm99.374-196.156c-29.292-3.424-55.737 4.22-74.998 21.567a233.763 233.763 0 01-19.114-27.034 201.233 201.233 0 003.659-3.565c10.913-10.913 20.357-22.907 28.232-35.741a65.011 65.011 0 00-15.166 2.211 183.036 183.036 0 01-22.601 26.812 231.676 231.676 0 01-5.497-10.894 65.343 65.343 0 00-8.142 9.494 243.544 243.544 0 004.917 9.4c-4.654 4-9.513 7.768-14.558 11.287a65.04 65.04 0 00-2.139 15.177 192.856 192.856 0 0022.575-16.382 242.388 242.388 0 0019.771 27.572c-9.595 11.401-15.948 25.138-18.798 40.38a65.058 65.058 0 0010.39 7.037c1.892-14.683 7.305-27.889 15.962-38.725 2.589 2.842 5.25 5.63 7.984 8.364 11.542 11.542 24.064 21.806 37.468 30.724a65.121 65.121 0 0010.478-6.919 234.49 234.49 0 01-48.015-40.59c16.824-15.248 40.205-21.948 66.274-18.901 1.797.21 3.593.465 5.385.763-.511-4.083-3.589-11.981-4.067-12.037zm-41.303 188.545h-.096c-5.067.063-10.416.108-15.086.125 3.086-4.155 7.178-9.784 12.494-17.38 3.745-5.352 6.192-10.426 7.271-15.082.058-.247.478-3.601.478-3.917 0-12.244-9.961-22.205-22.204-22.205-10.587 0-19.75 7.532-21.788 17.909a7.501 7.501 0 005.914 8.805 7.498 7.498 0 008.805-5.914c.66-3.36 3.633-5.8 7.069-5.8 3.841 0 6.989 3.021 7.193 6.812l-.159 1.25c-.691 2.681-2.369 5.97-4.868 9.541-9.09 12.988-14.514 20.09-17.428 23.905-3.696 4.84-5.551 7.27-4.291 11.366.747 2.429 2.583 4.292 5.037 5.11 1.012.337 1.868.623 13.037.623 4.412 0 10.437-.044 18.713-.148a7.499 7.499 0 007.405-7.594 7.496 7.496 0 00-7.496-7.406z" fill="#c64b1a"/><path d="M250.5 270c-74.558 0-135-60.442-135-135S175.942 0 250.5 0s135 60.442 135 135-60.442 135-135 135z" fill="#fdbf43"/><path d="M133.265 201.986C121.962 182.246 115.5 159.378 115.5 135c0-74.558 60.442-135 135-135 24.378 0 47.246 6.462 66.986 17.765-98.856 6.292-177.929 85.365-184.221 184.221z" fill="#f4aa39"/><path d="M385.5 135c0 1.221-.017 2.438-.049 3.651-30.91-12.309-59.268-30.9-83.485-55.117a253.749 253.749 0 01-4.584-4.704 300.527 300.527 0 00-34.758 24.576c22.303 24.764 32.131 58.766 27.729 96.426-2.789 23.858-11.112 47.482-24.158 69.266a136.683 136.683 0 01-17.857.884c15.069-22.284 24.611-46.957 27.52-71.845 3.917-33.518-4.697-63.579-24.302-85.21-38.194 34.499-67.475 78.69-83.925 128.653a135.83 135.83 0 01-11.952-10.487 313.796 313.796 0 017.085-18.343c15.793-37.373 38.407-70.928 67.212-99.734a319.653 319.653 0 0110.753-10.265C223.09 88.66 200.57 81.253 175.491 81.253c-5.098 0-10.303.306-15.593.925-12.561 1.468-25.067 4.626-37.239 9.331A134.166 134.166 0 01130.3 73.48c9.2-2.753 18.534-4.703 27.904-5.798 36.298-4.242 69.195 4.734 93.7 25.356a311.65 311.65 0 0135.45-25.419c-17.192-20.418-30.801-43.201-40.505-67.57a136.591 136.591 0 0116.198.527c9.414 21.731 22.038 41.759 37.271 59.484a314.36 314.36 0 0129.391-14.257 314.237 314.237 0 0116.192-6.322 135.75 135.75 0 0110.574 11.878 297.693 297.693 0 00-45.871 19.916c21.079 21.542 46.283 39.032 74.32 51.177.381 4.132.576 8.317.576 12.548z" fill="#ce9047"/><path d="M330.5 305v182.641c-25.071 8.657-51.987 13.359-80 13.359s-54.929-4.702-80-13.359V305c0-8.284 6.716-15 15-15h130c8.284 0 15 6.716 15 15z" fill="#f4aa39"/><path d="M185.5 290h34c-8.284 0-15 6.716-15 15v191.688a243.203 243.203 0 01-34-9.047V305c0-8.284 6.716-15 15-15z" fill="#d98800"/><path d="M261.101 330.929v136.148c0 4.142-3.357 7.5-7.5 7.5s-7.5-3.358-7.5-7.5V338.429H224.5c-4.143 0-7.5-3.358-7.5-7.5s3.357-7.5 7.5-7.5h29.101a7.5 7.5 0 017.5 7.5z" fill="#f9eecf"/><path d="M473.46 264.867l-9.889 5.408a1.994 1.994 0 00-.795.795l-5.408 9.889c-.759 1.387-2.751 1.387-3.509 0l-5.409-9.889a1.988 1.988 0 00-.795-.795l-9.889-5.408c-1.387-.759-1.387-2.751 0-3.509l9.889-5.408c.336-.184.612-.459.795-.795l5.409-9.889c.759-1.387 2.751-1.387 3.509 0l5.408 9.889a2 2 0 00.795.795l9.889 5.408c1.387.758 1.387 2.751 0 3.509zm-129.725 77.73l-7.271-3.977a1.468 1.468 0 01-.584-.585l-3.977-7.271a1.471 1.471 0 00-2.581 0l-3.977 7.271c-.135.247-.338.45-.584.585l-7.271 3.977c-1.02.558-1.02 2.023 0 2.58l7.271 3.977c.247.135.449.338.584.585l3.977 7.271a1.471 1.471 0 002.581 0l3.977-7.271c.135-.247.338-.45.584-.585l7.271-3.977c1.02-.557 1.02-2.022 0-2.58z" fill="#f5dc90"/><path d="M41.057 291.026l3.977 7.271c.135.247.338.45.585.585l7.271 3.977c1.02.558 1.02 2.023 0 2.58l-7.271 3.977a1.47 1.47 0 00-.585.585l-3.977 7.271c-.558 1.02-2.023 1.02-2.58 0L34.5 310a1.47 1.47 0 00-.585-.585l-7.271-3.977c-1.02-.558-1.02-2.023 0-2.58l7.271-3.977a1.47 1.47 0 00.585-.585l3.977-7.271c.557-1.019 2.022-1.019 2.58.001z" fill="#f4aa39"/><path d="M304.213 274.99l5.408 9.889a2 2 0 00.795.795l9.889 5.408c1.387.759 1.387 2.751 0 3.509L310.416 300a2 2 0 00-.795.795l-5.408 9.889c-.759 1.387-2.751 1.387-3.509 0l-5.408-9.889a1.994 1.994 0 00-.795-.795l-9.889-5.408c-1.387-.759-1.387-2.751 0-3.509l9.889-5.408c.336-.184.612-.459.795-.795l5.408-9.889c.758-1.388 2.75-1.388 3.509-.001z" fill="#fff5f5"/></svg>