<svg height="512" viewBox="0 0 501 501" width="512" xmlns="http://www.w3.org/2000/svg"><path d="M495.5 256c0 135.31-109.69 245-245 245S5.5 391.31 5.5 256s109.69-245 245-245 245 109.69 245 245z" fill="#bbe0fb"/><path d="M113.5 140h-11a2 2 0 01-2-2V2a2 2 0 012-2h11a2 2 0 012 2v136a2 2 0 01-2 2zm172-2V2a2 2 0 00-2-2h-11a2 2 0 00-2 2v136a2 2 0 002 2h11a2 2 0 002-2z" fill="#f4aa39"/><path d="M228.5 80h-86a2 2 0 01-2-2V2a2 2 0 012-2h86a2 2 0 012 2v76a2 2 0 01-2 2z" fill="#e43950"/><path d="M198.5 90h-96a2 2 0 01-2-2V12a2 2 0 012-2h96a2 2 0 012 2v76a2 2 0 01-2 2z" fill="#fd5757"/><path d="M175.5 50c0 13.807-11.193 25-25 25s-25-11.193-25-25 11.193-25 25-25 25 11.193 25 25z" fill="#c92e43"/><path d="M115.5 90h-15V10h15z" fill="#e43950"/><path d="M398.5 80h-86a2 2 0 01-2-2V2a2 2 0 012-2h86a2 2 0 012 2v76a2 2 0 01-2 2z" fill="#059b7e"/><path d="M368.5 90h-96a2 2 0 01-2-2V12a2 2 0 012-2h96a2 2 0 012 2v76a2 2 0 01-2 2z" fill="#57bd91"/><path d="M344.5 50c0 13.807-11.193 25-25 25s-25-11.193-25-25 11.193-25 25-25 25 11.193 25 25z" fill="#08856c"/><path d="M170.607 27.428l6.84 12.507a2.53 2.53 0 001.005 1.005l12.507 6.84c1.754.959 1.754 3.479 0 4.438l-12.507 6.84a2.53 2.53 0 00-1.005 1.005l-6.84 12.507c-.959 1.754-3.479 1.754-4.438 0l-6.84-12.507a2.53 2.53 0 00-1.005-1.005l-12.507-6.84c-1.754-.959-1.754-3.479 0-4.438l12.507-6.84a2.53 2.53 0 001.005-1.005l6.84-12.507c.959-1.754 3.478-1.754 4.438 0zm164.561 0l-6.84 12.507a2.53 2.53 0 01-1.005 1.005l-12.507 6.84c-1.754.959-1.754 3.479 0 4.438l12.507 6.84a2.53 2.53 0 011.005 1.005l6.84 12.507c.959 1.754 3.479 1.754 4.438 0l6.84-12.507a2.53 2.53 0 011.005-1.005l12.507-6.84c1.754-.959 1.754-3.479 0-4.438l-12.507-6.84a2.53 2.53 0 01-1.005-1.005l-6.84-12.507c-.959-1.754-3.478-1.754-4.438 0z" fill="#fff5f5"/><path d="M285.5 90h-15V10h15z" fill="#059b7e"/><path d="M450.5 397.544C406.116 460.144 333.079 501 250.5 501s-155.616-40.856-200-103.456V200h400z" fill="#f4aa39"/><path d="M50.5 280h24v146.438a246.302 246.302 0 01-24-28.894z" fill="#d98800"/><path d="M450.5 310h-400V140h400z" fill="#0191f8"/><path d="M74.5 310h-24V140h24z" fill="#0280e3"/><path d="M214.5 140l-50 170h-20l50-170zm100 0l-50 170h70l50-170zm-60 0l-50 170h40l50-170z" fill="#a1ade5"/><path d="M202.5 240v70h-66v-70a5 5 0 015-5h56a5 5 0 015 5zm-66-30a5 5 0 005 5h56a5 5 0 005-5v-70h-66zm258-70v70a5 5 0 005 5h51v-75zm-283 95h-32a5 5 0 00-5 5v70h42v-70a5 5 0 00-5-5zm172 0h-56a5 5 0 00-5 5v70h66v-70a5 5 0 00-5-5zm-209-25a5 5 0 005 5h32a5 5 0 005-5v-70h-42zm320 30v70h56v-75h-51a5 5 0 00-5 5zm-172-30a5 5 0 005 5h56a5 5 0 005-5v-70h-66zm86 0a5 5 0 005 5h56a5 5 0 005-5v-70h-66zm61 25h-56a5 5 0 00-5 5v70h66v-70a5 5 0 00-5-5z" fill="#49b4fa"/><path d="M254.5 140h34v20.4L272.441 215h-40zm-110 170h20l22.059-75h-20zm170-170l-6 20.4V210a5 5 0 005 5h48.941l12.059-41v-34zm-142.059 75h20l10.059-34.2V140h-8zM308.5 240v70h26l22.059-75H313.5a5 5 0 00-5 5zm-22.194-4.139L264.5 310h24v-70c0-1.721-.87-3.24-2.194-4.139zM227.5 235a5.07 5.07 0 00-.969.094L222.5 248.8V310h22l22.059-75z" fill="#91cefb"/><path d="M476.5 130v10c0 5.523-4.477 10-10 10h-432c-5.523 0-10-4.477-10-10v-10c0-5.523 4.477-10 10-10h432c5.523 0 10 4.477 10 10z" fill="#f4aa39"/><path d="M476.5 130v10c0 5.523-4.477 10-10 10h-392c-5.523 0-10-4.477-10-10v-10c0-5.523 4.477-10 10-10h392c5.523 0 10 4.477 10 10z" fill="#f1ca50"/><path d="M306.5 350v93.5h-112V350c0-8.284 6.716-15 15-15h82c8.284 0 15 6.716 15 15zm89-15h-52c-8.284 0-15 6.716-15 15v93.5h79.706c.769-.647 1.534-1.299 2.294-1.955V350c0-8.284-6.716-15-15-15zm-238 0h-52c-8.284 0-15 6.716-15 15v91.545c.761.656 1.526 1.308 2.294 1.955H172.5V350c0-8.284-6.716-15-15-15z" fill="#2740af"/><path d="M209.5 335h21c-8.284 0-15 6.716-15 15v93.5h-21V350c0-8.284 6.716-15 15-15zm134 0c-8.284 0-15 6.716-15 15v93.5h21V350c0-8.284 6.716-15 15-15zm-253 15v91.545c.761.656 1.526 1.308 2.294 1.955h21a238.673 238.673 0 01-2.294-1.955V350c0-8.284 6.716-15 15-15h-21c-8.284 0-15 6.716-15 15z" fill="#172a7d"/><path d="M412.273 440c-43.154 37.971-99.774 61-161.773 61s-118.619-23.029-161.773-61z" fill="#3691bb"/><path d="M131.124 470h238.752c-35.321 19.746-76.034 31-119.376 31s-84.055-11.254-119.376-31z" fill="#0680ae"/></svg>