<svg height="512" viewBox="0 0 501 501" width="512" xmlns="http://www.w3.org/2000/svg"><path d="M73.884 75.2C118.46 28.846 181.111.001 250.498 0 385.769-.001 495.501 109.732 495.5 245.003c-.001 69.492-28.934 132.227-75.41 176.815-2.894 2.776-7.491 2.694-10.327-.142L74.03 85.944c-2.95-2.951-3.038-7.736-.146-10.744z" fill="#172a7d"/><path d="M436.708 163.833c-13.897 46.642-40.248 86.855-76.955 116.183-37.596 30.039-82.327 45.916-129.356 45.916-5.522 0-10-4.477-10-10s4.478-10 10-10c77.574 0 146.594-48.49 178.602-123.049.958-2.231 2.986-.106 3.877-2.383 2.282-5.834 3.238-16.198 5.063-22.32 1.578-5.292 7.142-8.308 12.439-6.728 5.292 1.576 7.907 7.088 6.33 12.381z" fill="#0680ae"/><path d="M465.261 94.661c-26.767 48.638-40.915 103.964-40.915 159.997v78.858c0 5.523-4.478 10-10 10s-10-4.477-10-10v-6.348c-42.028-.485-82.603-13.99-117.488-39.132-34.493-24.859-61.618-59.67-78.441-100.668-2.097-5.109.346-10.951 5.455-13.048 5.11-2.099 10.95.347 13.047 5.455 31.438 76.614 100.903 126.392 177.428 127.391v-40.172c-39.691-.705-76.798-19.278-104.711-52.48-28.042-33.357-43.486-77.634-43.486-124.675 0-5.523 4.478-10 10-10s10 4.477 10 10c0 85.757 57.339 155.693 128.281 157.153a354.13 354.13 0 014.222-47.348c-56.109-.779-101.517-46.961-101.517-103.616 0-5.523 4.478-10 10-10s10 4.477 10 10c0 46.112 37.215 83.626 82.959 83.626.77 0 1.519.087 2.239.252a353.51 353.51 0 018.415-31.745c-30.729-3.58-58.459-29.412-58.459-60.645 0-5.523 4.478-10 10-10s10 4.477 10 10c0 22.502 22.966 40.835 45.278 41.067a347.055 347.055 0 0120.173-43.565c2.663-4.839 8.744-6.602 13.582-3.939 4.837 2.662 6.601 8.743 3.938 13.582z" fill="#3691bb"/><path d="M376.715 89.839c0 46.946-14.623 91.151-41.175 124.472-26.813 33.649-62.601 52.331-100.886 52.699v66.506c0 5.523-4.478 10-10 10s-10-4.477-10-10v-78.858c0-56.033-14.148-111.359-40.915-159.997-2.663-4.838-.899-10.919 3.939-13.582 4.838-2.664 10.92-.899 13.582 3.939a347.1 347.1 0 0120.174 43.568l.065-.001c22.445 0 40.705-18.424 40.705-41.069 0-5.523 4.478-10 10-10s10 4.477 10 10c0 31.373-23.638 57.296-53.938 60.692 3.234 10.254 6 20.661 8.289 31.183 42.668-3.404 76.354-39.492 76.354-83.364 0-5.523 4.478-10 10-10s10 4.477 10 10c0 53.635-40.696 97.884-92.642 103.11a354.166 354.166 0 014.302 47.872c67.45-.736 122.144-70.958 122.144-157.17 0-5.523 4.478-10 10-10s10.002 4.477 10.002 10z" fill="#0680ae"/><path d="M465.468 109H164.5c-11.046 0-20-8.954-20-20v-5.161c0-11.046 8.954-20 20-20h300.968c11.046 0 20 8.954 20 20V89c0 11.046-8.955 20-20 20z" fill="#f16b38"/><path d="M474.5 109H220.952c-11.046 0-20-8.954-20-20v-5.161c0-11.046 8.954-20 20-20H474.5c11.046 0 20 8.954 20 20V89c0 11.046-8.954 20-20 20z" fill="#fd7d43"/><path d="M250.5 490c-135.31 0-245-109.69-245-245 0-65.887 26.009-125.7 68.319-169.732l346.413 346.413C376.2 463.991 316.387 490 250.5 490z" fill="#49b4fa"/><path d="M311.321 238.563c-4.838-2.662-10.919-.9-13.582 3.939a347.055 347.055 0 00-20.173 43.565c-22.312-.232-45.278-18.565-45.278-41.067 0-5.523-4.478-10-10-10s-10 4.477-10 10c0 31.234 27.73 57.065 58.459 60.645a351.7 351.7 0 00-3.208 10.762c-.059.166-.115.335-.166.506a226.065 226.065 0 01-7.081 20.227c-.066-.001-.132-.003-.199-.003-45.744 0-82.959-37.515-82.959-83.626 0-5.523-4.478-10-10-10s-10 4.477-10 10c0 54.132 41.453 98.702 94.087 103.245-8.091 15.453-17.859 29.591-29.002 42.182-55.309-18.251-96.072-79.309-96.072-151.615 0-5.523-4.478-10-10-10s-10 4.477-10 10c0 47.042 15.444 91.318 43.486 124.675 16.337 19.432 35.822 33.853 57.132 42.613-11.684 10.632-24.492 19.773-38.165 27.224-39.876-21.864-72.707-58.331-91.683-104.576-2.097-5.108-7.937-7.554-13.047-5.455-5.109 2.097-7.552 7.938-5.455 13.048 16.823 40.998 43.948 75.809 78.441 100.668a215.172 215.172 0 009.662 6.573c-21.063 8.178-43.666 12.573-67.019 12.573-5.522 0-10 4.477-10 10s4.478 10 10 10c31.093 0 61.182-6.941 88.868-20.326 26.906 13.03 56.074 19.966 85.977 20.311V491c0 5.523 4.478 10 10 10s10-4.477 10-10v-78.858c0-56.033 14.148-111.359 40.915-159.997 2.665-4.839.901-10.92-3.938-13.582zm-56.975 226.088c-22.175-.289-43.757-4.675-63.992-12.623a218.815 218.815 0 0018.503-13.278 228.85 228.85 0 0019.377-17.378 130.488 130.488 0 0026.112 3.106zm-10.316-60.886a231.079 231.079 0 0011.085-14.905 354.673 354.673 0 00-.686 15.616 109.444 109.444 0 01-10.399-.711z" fill="#f16b38"/><path d="M213.908 421.152c3.787 4.14 3.38 10.615-.92 14.219a227.615 227.615 0 01-4.131 3.38c-36.22 28.939-79.063 44.734-124.202 45.852V491c0 5.523-4.478 10-10 10s-10-4.477-10-10v-78.858c0-56.033-14.148-111.359-40.915-159.997-2.663-4.838-.899-10.919 3.939-13.582 4.838-2.664 10.92-.899 13.582 3.939a347.1 347.1 0 0120.174 43.568l.065-.001c22.445 0 40.705-18.424 40.705-41.069 0-5.523 4.478-10 10-10s10 4.477 10 10c0 31.373-23.638 57.296-53.938 60.692 3.234 10.254 6 20.661 8.289 31.183 42.668-3.404 76.354-39.492 76.354-83.364 0-5.523 4.478-10 10-10s10 4.477 10 10c0 53.635-40.696 97.884-92.642 103.11a354.166 354.166 0 014.302 47.872c67.45-.736 122.144-70.958 122.144-157.17 0-5.523 4.478-10 10-10s10 4.477 10 10c0 46.946-14.623 91.151-41.175 124.472-26.813 33.649-62.601 52.331-100.886 52.699v40.101c42.979-1.193 83.191-17.263 115.64-44.342 4.057-3.385 10.049-2.999 13.615.899z" fill="#e55920"/><path d="M128.686 149.904l-32.983 48.531c-1.984 2.919-6.287 2.919-8.271 0l-32.983-48.531c-2.256-3.32.122-7.81 4.135-7.81h12.983V59.52a5 5 0 015-5h30a5 5 0 015 5v82.574h12.983c4.014-.001 6.392 4.49 4.136 7.81z" fill="#fc6930"/><path d="M90.576 200.526a4.945 4.945 0 01-3.144-2.091l-32.983-48.531c-2.256-3.32.122-7.81 4.135-7.81h12.983V59.52a5 5 0 015-5h14.009z" fill="#e55920"/><path d="M335.468 239v5.161c0 11.046-8.954 20-20 20H14.5a19.92 19.92 0 01-8.397-1.843c-.4-5.721-.603-11.496-.603-17.318 0-8.242.407-16.39 1.202-24.423A19.947 19.947 0 0114.5 219h300.968c11.045 0 20 8.954 20 20z" fill="#bbe0fb"/><path d="M381.07 393.338h-12.983v82.574a5 5 0 01-5 5h-30a5 5 0 01-5-5v-82.574h-12.983c-4.014 0-6.391-4.491-4.135-7.81l32.983-48.531c1.984-2.919 6.287-2.919 8.271 0l32.983 48.531c2.256 3.32-.122 7.81-4.136 7.81zM344.5 244.161V239c0-11.046-8.954-20-20-20H70.952c-11.046 0-20 8.954-20 20v5.161c0 11.046 8.954 20 20 20H324.5c11.046 0 20-8.954 20-20z" fill="#e3f0fb"/><path d="M347.096 480.912h-14.009a5 5 0 01-5-5v-82.574h-12.983c-4.014 0-6.391-4.491-4.135-7.81l32.983-48.531a4.945 4.945 0 013.144-2.091z" fill="#bbe0fb"/></svg>