<svg id="Capa_1" enable-background="new 0 0 501 501" height="512" viewBox="0 0 501 501" width="512" xmlns="http://www.w3.org/2000/svg"><g><path d="m51.841 388.133c-3.641 1.359-7.75-.033-9.796-3.337-23.17-37.422-36.545-81.547-36.545-128.796 0-135.164 109.453-244.763 244.561-245 133.689-.234 243.54 107.808 245.414 241.485.681 48.569-12.774 93.952-36.513 132.297-2.049 3.31-6.161 4.711-9.808 3.349-58.17-21.716-126.096-34.185-198.655-34.185-72.559.001-140.487 12.47-198.658 34.187z" fill="#05a2f9"/><path d="m9.173 213.5h482.632c2.233 12.688 3.484 25.71 3.67 38.985.681 48.569-12.774 93.952-36.513 132.297-2.049 3.31-6.161 4.711-9.808 3.349-58.17-21.716-126.096-34.185-198.655-34.185-72.56 0-140.488 12.47-198.659 34.187-3.641 1.359-7.75-.033-9.796-3.337-23.169-37.422-36.544-81.547-36.544-128.796 0-14.495 1.259-28.696 3.673-42.5z" fill="#0280e3"/><path d="m459.357 384.143c-18.118 29.468-42.298 54.808-70.802 74.286h-62.055v-180h15.614c5.802 0 11.513-1.449 16.614-4.214 5.101-2.766 10.811-4.214 16.614-4.214h18.567c13.744 0 26.205 8.077 31.817 20.623l22.683 50.708c2.557 5.715 3.878 11.906 3.878 18.167 0 6.907 1.608 13.719 4.697 19.897zm-317.085-109.929c-5.101-2.766-10.811-4.214-16.614-4.214h-18.567c-13.744 0-26.205 8.077-31.817 20.623l-22.682 50.707c-2.557 5.715-3.878 11.906-3.878 18.167 0 6.907-1.608 13.719-4.697 19.897l-2.374 4.748c18.118 29.468 42.298 54.808 70.802 74.286h62.055v-180h-15.614c-5.802.001-11.513-1.448-16.614-4.214z" fill="#eac0b5"/><path d="m406.682 420-80.182 38.429 15.614-180c5.802 0 11.513-1.449 16.614-4.214 3.537-1.918 7.367-3.202 11.318-3.809v91.959c0 17.556 12.349 32.228 28.834 35.804 1.159.251 29.754.183 41.762.143 1.94-.006 2.729 2.482 1.146 3.603-10.54 7.465-35.106 18.085-35.106 18.085z" fill="#e1a595"/><path d="m379.789 407.596c4.569.991 7.802 5.074 7.802 9.749v41.739c-39.124 26.462-86.303 41.916-137.091 41.916s-97.967-15.454-137.091-41.916v-41.739c0-4.675 3.233-8.758 7.802-9.749 16.486-3.576 28.834-18.248 28.834-35.804v-94.459l100.455-27.333 100.455 27.333v94.459c-.001 17.557 12.348 32.229 28.834 35.804z" fill="#f9eecf"/><path d="m67.018 371.583c-1.816 6.213.13 12.917 5.098 17.067l23.564 19.685c1.67 1.395.227 4.077-1.857 3.451-14.861-4.468-42.286-12.789-42.79-13.493-.001-.002-.003-.004-.004-.006-3.286-4.598-6.417-9.315-9.386-14.142l2.374-4.748c3.105-6.21 4.714-13.06 4.697-20.004-.015-6.225 1.336-12.377 3.878-18.06l22.683-50.708c5.612-12.548 18.073-20.625 31.817-20.625h18.567c.239 0 .478.003.717.008-13.459.275-25.586 8.288-31.1 20.615l-22.684 50.707c-2.636 5.892-3.832 12.287-3.879 18.742-.028 3.874-.614 7.71-1.671 11.422-.007.03-.016.059-.024.089z" fill="#e1a595"/><path d="m387.591 417.345v41.739c-23.777 16.082-50.529 28.098-79.258 35.05v-130.125c0-8.41 5.261-15.922 13.165-18.796l29.456-10.711v37.291c0 17.556 12.349 32.228 28.834 35.804 4.57.99 7.803 5.073 7.803 9.748zm-208.089-72.132-29.456-10.711v37.291c0 17.556-12.349 32.228-28.834 35.804-4.569.991-7.802 5.074-7.802 9.749v41.739c23.777 16.082 50.529 28.098 79.258 35.05v-130.126c-.001-8.411-5.263-15.922-13.166-18.796zm14.998-79.976v27.763c0 30.376 24.624 55 55 55 30.376 0 55-24.624 55-55v-28.307l-54-14.693z" fill="#ffdf8e"/><path d="m375.5 130v20c0 11.046-8.954 20-20 20h-5c0 39.187-25.044 72.523-60 84.879v37.344c0 22.091-17.909 40-40 40-22.091 0-40-17.909-40-40v-37.344c-34.956-12.355-60-45.692-60-84.879h-5c-11.046 0-20-8.954-20-20v-20c0-11.046 8.954-20 20-20h5v-20c0-38.66 31.34-70 70-70h60c38.66 0 70 31.34 70 70v20h5c11.046 0 20 8.954 20 20z" fill="#eac0b5"/><path d="m143.094 169.856c-9.911-1.188-17.594-9.625-17.594-19.856v-20c0-10.231 7.683-18.668 17.594-19.856-1.651 2.909-2.594 6.273-2.594 9.856v40c0 3.584.943 6.947 2.594 9.856zm93.184 122.366v-32.32c-9.001-.416-17.657-2.153-25.778-5.024v37.344c0 22.091 17.909 40 40 40 4.51 0 8.845-.747 12.889-2.122-15.768-5.364-27.111-20.296-27.111-37.878z" fill="#e1a595"/><path d="m262.5 260c-48.601 0-88-39.399-88-88v-82c0-38.66 31.34-70 70-70h36c38.66 0 70 31.34 70 70v82c0 48.601-39.399 88-88 88z" fill="#efcfc8"/><path d="m255.656 239.047h-10.313c-11.65 0-21.094-9.444-21.094-21.094 0-4.142 3.358-7.5 7.5-7.5h37.5c4.142 0 7.5 3.358 7.5 7.5.001 11.65-9.443 21.094-21.093 21.094z" fill="#dd9683"/><path d="m255.656 239.047h-.063c-11.65 0-21.094-9.444-21.094-21.094 0-4.142 3.358-7.5 7.5-7.5h27.25c4.142 0 7.5 3.358 7.5 7.5.001 11.65-9.443 21.094-21.093 21.094z" fill="#e1a595"/><path d="m266.5 179.5c0 4.142-3.358 7.5-7.5 7.5h-1.27c-.875 3.171-3.78 5.5-7.23 5.5-3.449 0-6.354-2.329-7.23-5.5h-1.27c-4.142 0-7.5-3.358-7.5-7.5s3.358-7.5 7.5-7.5h1v-24.5c0-4.142 3.358-7.5 7.5-7.5 4.142 0 7.5 3.358 7.5 7.5v24.5h1c4.142 0 7.5 3.358 7.5 7.5z" fill="#dd9683"/><path d="m223.969 110h-37.5c-4.142 0-7.5 3.358-7.5 7.5s3.358 7.5 7.5 7.5h37.5c4.142 0 7.5-3.358 7.5-7.5s-3.358-7.5-7.5-7.5zm90.562 0h-37.5c-4.142 0-7.5 3.358-7.5 7.5s3.358 7.5 7.5 7.5h37.5c4.142 0 7.5-3.358 7.5-7.5s-3.358-7.5-7.5-7.5z" fill="#b76c54"/><path d="m210.562 147.5c0 8.284-6.716 15-15 15s-15-6.716-15-15 6.716-15 15-15c8.285 0 15 6.716 15 15zm92.875-15c-8.284 0-15 6.716-15 15s6.716 15 15 15 15-6.716 15-15-6.715-15-15-15z" fill="#533022"/><path d="m203.062 132.5c4.142 0 7.5 3.358 7.5 7.5s-3.358 7.5-7.5 7.5-7.5-3.358-7.5-7.5 3.358-7.5 7.5-7.5zm100.375 7.5c0 4.142 3.358 7.5 7.5 7.5s7.5-3.358 7.5-7.5-3.358-7.5-7.5-7.5-7.5 3.358-7.5 7.5z" fill="#fff5f5"/><path d="m350.5 80h-176v6c0 13.255-10.745 24-24 24v-40c0-38.66 31.34-70 70-70h60c38.66 0 70 31.34 70 70z" fill="#7d402d"/><path d="m350.5 70v40c-13.255 0-24-10.745-24-24v-4c0-1.105-.895-2-2-2h-4.573c-3.304 0-6.534.838-9.5 2.294-10.469 5.14-33.366 8.706-59.927 8.706s-49.458-3.566-59.927-8.706c-2.966-1.456-6.196-2.294-9.5-2.294h-6.573v-10c0-38.66 31.34-70 70-70h36c38.66 0 70 31.34 70 70z" fill="#954d3b"/><path d="m135.896 472.598c4.885-59.013 54.329-105.384 114.604-105.384s109.718 46.371 114.604 105.384c-34.197 18.132-73.201 28.402-114.604 28.402s-80.407-10.27-114.604-28.402z" fill="#fd7d43"/><path d="m307.562 382.348c-65.088 4.142-120.109 45.324-144.215 102.698-9.444-3.596-18.608-7.758-27.451-12.447 4.885-59.013 54.329-105.384 114.604-105.384 20.766-.001 40.246 5.504 57.062 15.133z" fill="#f16b38"/><path d="m365.103 472.599c-4.415 2.341-8.91 4.551-13.481 6.624-20.976-10.171-40.32-23.891-57.28-40.851-1.321-1.321-2.623-2.657-3.905-4.007-10.374 6.283-20.267 13.284-29.609 20.935 10.989 12.202 18.423 27.037 22.012 43.584-4.123.544-8.279.985-12.464 1.321-3.262-14.008-9.664-26.518-18.977-36.794-11.949 10.793-22.874 22.7-32.61 35.555-4.723-.61-9.404-1.355-14.039-2.231 8.451-11.767 17.886-22.87 28.265-33.249 2.994-2.994 6.048-5.908 9.16-8.744-15.025-12.004-34.209-18.313-55.572-18.313-4.343 0-8.777.261-13.283.788-10.7 1.251-21.354 3.941-31.722 7.949 1.804-5.304 3.984-10.434 6.509-15.358 7.837-2.345 15.788-4.006 23.77-4.939 30.92-3.614 58.944 4.032 79.819 21.599 9.574-7.934 19.653-15.16 30.198-21.654-14.645-17.393-26.238-36.8-34.504-57.559 1.033-.027 2.07-.042 3.11-.042 3.604 0 7.169.166 10.688.491 8.019 18.511 18.773 35.573 31.749 50.672 8.099-4.464 16.449-8.516 25.037-12.145 4.559-1.927 9.158-3.722 13.793-5.385 3.195 3.192 6.204 6.57 9.008 10.118-13.569 4.578-26.631 10.27-39.075 16.965 17.956 18.351 39.426 33.249 63.31 43.596.032.358.063.716.093 1.074z" fill="#c64b1a"/><path d="m338.777 484.614-13.331-1.447c-5.111-.555-8.804-5.147-8.25-10.258l3.902-35.957c.556-5.12 5.223-9.308 10.373-9.308 1.109-10.222 10.295-17.609 20.516-16.499l27.762 3.013c2.81.305 5.191 1.831 6.674 3.992l63.545-19.858c-27.621 38.65-66.197 68.936-111.191 86.322zm-158.875-47.662c-.556-5.12-5.223-9.308-10.373-9.308-1.109-10.222-10.295-17.609-20.516-16.499l-27.762 3.013c-2.81.305-5.191 1.831-6.674 3.992l-63.545-19.858s0 .001.001.001c.036.05.072.101.108.151 27.614 38.578 66.147 68.808 111.083 86.171l13.331-1.447c5.111-.555 8.804-5.147 8.25-10.258z" fill="#eac0b5"/><path d="m362.576 412.293c-6.269 2.439-10.995 8.201-11.771 15.35-5.15 0-9.817 4.189-10.373 9.308l-3.902 35.957c-.496 4.566 2.4 8.718 6.667 9.947-1.466.6-2.939 1.186-4.419 1.758l-13.331-1.447c-5.111-.555-8.804-5.147-8.25-10.258l3.902-35.957c.556-5.12 5.223-9.308 10.373-9.308 1.109-10.222 10.295-17.609 20.516-16.499z" fill="#e1a595"/></g></svg>