<svg height="512" viewBox="0 0 501 501" width="512" xmlns="http://www.w3.org/2000/svg"><path d="M51.841 388.133c-3.641 1.359-7.75-.033-9.796-3.337C18.875 347.374 5.5 303.249 5.5 256c0-135.164 109.453-244.763 244.561-245 133.689-.234 243.54 107.808 245.414 241.485.681 48.569-12.774 93.952-36.513 132.297a8.177 8.177 0 01-9.808 3.349c-58.17-21.716-126.096-34.185-198.655-34.185-72.559.001-140.487 12.47-198.658 34.187z" fill="#05a2f9"/><path d="M9.173 213.5h482.632a244.573 244.573 0 013.67 38.985c.681 48.569-12.774 93.952-36.513 132.297a8.177 8.177 0 01-9.808 3.349c-58.17-21.716-126.096-34.185-198.655-34.185-72.56 0-140.488 12.47-198.659 34.187-3.641 1.359-7.75-.033-9.796-3.337C18.875 347.374 5.5 303.249 5.5 256c0-14.495 1.259-28.696 3.673-42.5z" fill="#0280e3"/><path d="M459.357 384.143a246.304 246.304 0 01-70.802 74.286H326.5v-180h15.614a34.866 34.866 0 0016.614-4.214 34.851 34.851 0 0116.614-4.214h18.567a34.855 34.855 0 0131.817 20.623l22.683 50.708a44.483 44.483 0 013.878 18.167 44.49 44.49 0 004.697 19.897zM142.272 274.214A34.851 34.851 0 00125.658 270h-18.567a34.855 34.855 0 00-31.817 20.623L52.592 341.33a44.483 44.483 0 00-3.878 18.167 44.49 44.49 0 01-4.697 19.897l-2.374 4.748a246.304 246.304 0 0070.802 74.286H174.5v-180h-15.614a34.843 34.843 0 01-16.614-4.214z" fill="#eac0b5"/><path d="M406.682 420L326.5 458.429l15.614-180a34.866 34.866 0 0016.614-4.214 34.84 34.84 0 0111.318-3.809v91.959c0 17.556 12.349 32.228 28.834 35.804 1.159.251 29.754.183 41.762.143 1.94-.006 2.729 2.482 1.146 3.603C431.248 409.38 406.682 420 406.682 420z" fill="#e1a595"/><path d="M379.789 407.596c4.569.991 7.802 5.074 7.802 9.749v41.739C348.467 485.546 301.288 501 250.5 501s-97.967-15.454-137.091-41.916v-41.739c0-4.675 3.233-8.758 7.802-9.749 16.486-3.576 28.834-18.248 28.834-35.804v-94.459L250.5 250l100.455 27.333v94.459c-.001 17.557 12.348 32.229 28.834 35.804z" fill="#f9eecf"/><path d="M67.018 371.583c-1.816 6.213.13 12.917 5.098 17.067l23.564 19.685c1.67 1.395.227 4.077-1.857 3.451-14.861-4.468-42.286-12.789-42.79-13.493l-.004-.006a245.83 245.83 0 01-9.386-14.142l2.374-4.748a44.485 44.485 0 004.697-20.004c-.015-6.225 1.336-12.377 3.878-18.06l22.683-50.708A34.854 34.854 0 01107.092 270h18.567c.239 0 .478.003.717.008a34.855 34.855 0 00-31.1 20.615L72.592 341.33c-2.636 5.892-3.832 12.287-3.879 18.742-.028 3.874-.614 7.71-1.671 11.422-.007.03-.016.059-.024.089z" fill="#e1a595"/><path d="M387.591 417.345v41.739c-23.777 16.082-50.529 28.098-79.258 35.05V364.009a20 20 0 0113.165-18.796l29.456-10.711v37.291c0 17.556 12.349 32.228 28.834 35.804 4.57.99 7.803 5.073 7.803 9.748zm-208.089-72.132l-29.456-10.711v37.291c0 17.556-12.349 32.228-28.834 35.804-4.569.991-7.802 5.074-7.802 9.749v41.739c23.777 16.082 50.529 28.098 79.258 35.05V364.009a20.002 20.002 0 00-13.166-18.796zm14.998-79.976V293c0 30.376 24.624 55 55 55s55-24.624 55-55v-28.307L250.5 250z" fill="#ffdf8e"/><path d="M375.5 130v20c0 11.046-8.954 20-20 20h-5c0 39.187-25.044 72.523-60 84.879v37.344c0 22.091-17.909 40-40 40s-40-17.909-40-40v-37.344c-34.956-12.355-60-45.692-60-84.879h-5c-11.046 0-20-8.954-20-20v-20c0-11.046 8.954-20 20-20h5V90c0-38.66 31.34-70 70-70h60c38.66 0 70 31.34 70 70v20h5c11.046 0 20 8.954 20 20z" fill="#eac0b5"/><path d="M143.094 169.856c-9.911-1.188-17.594-9.625-17.594-19.856v-20c0-10.231 7.683-18.668 17.594-19.856A19.907 19.907 0 00140.5 120v40c0 3.584.943 6.947 2.594 9.856zm93.184 122.366v-32.32a89.656 89.656 0 01-25.778-5.024v37.344c0 22.091 17.909 40 40 40 4.51 0 8.845-.747 12.889-2.122-15.768-5.364-27.111-20.296-27.111-37.878z" fill="#e1a595"/><path d="M262.5 260c-48.601 0-88-39.399-88-88V90c0-38.66 31.34-70 70-70h36c38.66 0 70 31.34 70 70v82c0 48.601-39.399 88-88 88z" fill="#efcfc8"/><path d="M255.656 239.047h-10.313c-11.65 0-21.094-9.444-21.094-21.094a7.5 7.5 0 017.5-7.5h37.5a7.5 7.5 0 017.5 7.5c.001 11.65-9.443 21.094-21.093 21.094z" fill="#dd9683"/><path d="M255.656 239.047h-.063c-11.65 0-21.094-9.444-21.094-21.094a7.5 7.5 0 017.5-7.5h27.25a7.5 7.5 0 017.5 7.5c.001 11.65-9.443 21.094-21.093 21.094z" fill="#e1a595"/><path d="M266.5 179.5a7.5 7.5 0 01-7.5 7.5h-1.27a7.502 7.502 0 01-14.46 0H242a7.5 7.5 0 010-15h1v-24.5a7.5 7.5 0 0115 0V172h1a7.5 7.5 0 017.5 7.5z" fill="#dd9683"/><path d="M223.969 110h-37.5a7.5 7.5 0 000 15h37.5a7.5 7.5 0 000-15zm90.562 0h-37.5a7.5 7.5 0 000 15h37.5a7.5 7.5 0 000-15z" fill="#b76c54"/><path d="M210.562 147.5c0 8.284-6.716 15-15 15s-15-6.716-15-15 6.716-15 15-15c8.285 0 15 6.716 15 15zm92.875-15c-8.284 0-15 6.716-15 15s6.716 15 15 15 15-6.716 15-15-6.715-15-15-15z" fill="#533022"/><path d="M203.062 132.5a7.5 7.5 0 110 15 7.5 7.5 0 010-15zm100.375 7.5a7.5 7.5 0 1015 0 7.5 7.5 0 00-15 0z" fill="#fff5f5"/><path d="M350.5 80h-176v6c0 13.255-10.745 24-24 24V70c0-38.66 31.34-70 70-70h60c38.66 0 70 31.34 70 70z" fill="#7d402d"/><path d="M350.5 70v40c-13.255 0-24-10.745-24-24v-4a2 2 0 00-2-2h-4.573c-3.304 0-6.534.838-9.5 2.294C299.958 87.434 277.061 91 250.5 91s-49.458-3.566-59.927-8.706c-2.966-1.456-6.196-2.294-9.5-2.294H174.5V70c0-38.66 31.34-70 70-70h36c38.66 0 70 31.34 70 70z" fill="#954d3b"/><path d="M135.896 472.598c4.885-59.013 54.329-105.384 114.604-105.384s109.718 46.371 114.604 105.384C330.907 490.73 291.903 501 250.5 501s-80.407-10.27-114.604-28.402z" fill="#fd7d43"/><path d="M307.562 382.348c-65.088 4.142-120.109 45.324-144.215 102.698a243.734 243.734 0 01-27.451-12.447c4.885-59.013 54.329-105.384 114.604-105.384 20.766-.001 40.246 5.504 57.062 15.133z" fill="#f16b38"/><path d="M365.103 472.599a243.181 243.181 0 01-13.481 6.624c-20.976-10.171-40.32-23.891-57.28-40.851a216.636 216.636 0 01-3.905-4.007 256.232 256.232 0 00-29.609 20.935c10.989 12.202 18.423 27.037 22.012 43.584-4.123.544-8.279.985-12.464 1.321-3.262-14.008-9.664-26.518-18.977-36.794a257.076 257.076 0 00-32.61 35.555 243.643 243.643 0 01-14.039-2.231 268.523 268.523 0 0128.265-33.249 273.089 273.089 0 019.16-8.744c-15.025-12.004-34.209-18.313-55.572-18.313-4.343 0-8.777.261-13.283.788-10.7 1.251-21.354 3.941-31.722 7.949a114.352 114.352 0 016.509-15.358c7.837-2.345 15.788-4.006 23.77-4.939 30.92-3.614 58.944 4.032 79.819 21.599a265.448 265.448 0 0130.198-21.654c-14.645-17.393-26.238-36.8-34.504-57.559a116.197 116.197 0 0113.798.449 199.37 199.37 0 0031.749 50.672 267.743 267.743 0 0125.037-12.145 267.2 267.2 0 0113.793-5.385 115.79 115.79 0 019.008 10.118 253.547 253.547 0 00-39.075 16.965c17.956 18.351 39.426 33.249 63.31 43.596l.093 1.074z" fill="#c64b1a"/><path d="M338.777 484.614l-13.331-1.447a9.309 9.309 0 01-8.25-10.258l3.902-35.957c.556-5.12 5.223-9.308 10.373-9.308 1.109-10.222 10.295-17.609 20.516-16.499l27.762 3.013a9.289 9.289 0 016.674 3.992l63.545-19.858c-27.621 38.65-66.197 68.936-111.191 86.322zm-158.875-47.662c-.556-5.12-5.223-9.308-10.373-9.308-1.109-10.222-10.295-17.609-20.516-16.499l-27.762 3.013a9.289 9.289 0 00-6.674 3.992l-63.545-19.858.001.001.108.151c27.614 38.578 66.147 68.808 111.083 86.171l13.331-1.447a9.309 9.309 0 008.25-10.258z" fill="#eac0b5"/><path d="M362.576 412.293c-6.269 2.439-10.995 8.201-11.771 15.35-5.15 0-9.817 4.189-10.373 9.308l-3.902 35.957c-.496 4.566 2.4 8.718 6.667 9.947-1.466.6-2.939 1.186-4.419 1.758l-13.331-1.447a9.309 9.309 0 01-8.25-10.258l3.902-35.957c.556-5.12 5.223-9.308 10.373-9.308 1.109-10.222 10.295-17.609 20.516-16.499z" fill="#e1a595"/></svg>