<svg height="512" viewBox="0 0 501 501" width="512" xmlns="http://www.w3.org/2000/svg"><path d="M490 256c0 56.056-18.826 107.716-50.5 149-.777 1.012-4.208 1.333-5 2.333-6.526 8.237-13.153 15.171-20.667 22.5-1.246 1.216-.276 3.978-1.548 5.167-43.788 40.94-102.61 66-167.285 66-22.933 0-45.131-3.151-66.183-9.044-1.236-.346-2.214-3.217-3.442-3.581-13.657-4.057-23.579-7.24-36.125-13.5-1.279-.638-6.042-.804-7.308-1.464A245.657 245.657 0 0177.714 435c-.708-.662-.264-3.579-.965-4.25-7.849-7.514-12.454-13.382-19.25-21.875-1.048-1.309-5.976-2.541-6.997-3.871a245.264 245.264 0 01-21.853-33.932c-.669-1.256 1.373-2.178.725-3.447-3.554-6.958-7.362-15.302-10.25-22.625-.493-1.249-3.1-1.651-3.572-2.911C5.499 315.306 0 286.295 0 256 0 120.69 109.69 11 245 11s245 109.69 245 245z" fill="#91cefb"/><path d="M162 227H1.698a244.162 244.162 0 014.731-27H162c7.456 0 13.5 6.044 13.5 13.5S169.456 227 162 227zm-59.5-100h183c7.456 0 13.5-6.044 13.5-13.5s-6.044-13.5-13.5-13.5h-183c-7.456 0-13.5 6.044-13.5 13.5s6.044 13.5 13.5 13.5zM119 273.5c0-7.456-6.044-13.5-13.5-13.5H.032a246.97 246.97 0 001.911 27H105.5c7.456 0 13.5-6.044 13.5-13.5zM109.273 460h271.454a246.052 246.052 0 0031.795-25.222c.677-.635.22-1.778-.708-1.778H75.601a246.153 246.153 0 0033.672 27zM102.5 320c-7.456 0-13.5 6.044-13.5 13.5s6.044 13.5 13.5 13.5h370.043a243.102 243.102 0 009.013-27z" fill="#63bcfa"/><path d="M439.5 405a246.38 246.38 0 01-27.214 30H247.798c-4.943 21.164-25.646 39.871-59.532 53.425a225.736 225.736 0 01-9.449 3.531 243.432 243.432 0 01-46.875-18.545c16.592-3.195 31.851-7.508 45.183-12.841 18.658-7.463 32.204-16.657 38.274-25.57H77.715a246.38 246.38 0 01-27.214-30h155.092c-7.095-5.54-16.778-10.895-28.467-15.57C145.802 376.9 103.833 370 58.952 370c-10.285 0-20.416.362-30.301 1.072a243.628 243.628 0 01-13.098-28.982c14.059-1.38 28.605-2.09 43.399-2.09 48.607 0 94.532 7.662 129.314 21.575 28.441 11.376 47.596 26.382 55.94 43.425z" fill="#f5f0eb"/><path d="M369 420c0 22.091-64.919 40-145 40S79 442.091 79 420s64.919-40 145-40 145 17.909 145 40z" fill="#6c7fd7"/><path d="M244.206 405h114.253c6.797 4.632 10.541 9.695 10.541 15s-3.744 10.368-10.541 15H247.798c-2.054 8.793-6.828 17.161-14.137 24.912-3.193.058-6.415.088-9.661.088-14.441 0-28.388-.582-41.551-1.667 15.911-7.021 27.474-15.292 32.951-23.333H89.541C82.744 430.368 79 425.305 79 420s3.744-10.368 10.541-15h116.052c-7.095-5.54-16.778-10.895-28.467-15.57a209.406 209.406 0 00-15.665-5.528c18.442-2.436 39.042-3.828 60.793-3.899 10.166 7.612 17.558 16.022 21.952 24.997z" fill="#a1ade5"/><path d="M131 185C131 82.827 213.827 0 316 0s185 82.827 185 185-82.827 185-185 185-185-82.827-185-185z" fill="#fd7d43"/><path d="M407.795 345.655C380.744 361.145 349.406 370 316 370c-102.173 0-185-82.827-185-185 0-33.406 8.855-64.744 24.345-91.795 8.622 135.468 116.982 243.828 252.45 252.45z" fill="#f16b38"/><path d="M313.037.024a187.168 187.168 0 0124.471 1.213c17.878 29.851 29.285 62.225 33.106 94.92 6.032 51.609-7.436 98.203-37.999 132.139a412.006 412.006 0 0047.632 33.678 346.523 346.523 0 016.281-6.446c33.187-33.187 72.047-58.663 114.405-75.531a187.575 187.575 0 01-.722 22.197c-38.421 16.644-72.96 40.611-101.846 70.132a407.837 407.837 0 0062.86 27.292 186.218 186.218 0 01-14.49 16.277 431.137 431.137 0 01-22.189-8.663 430.72 430.72 0 01-40.276-19.537c-20.875 24.29-38.174 51.737-51.075 81.516a187.613 187.613 0 01-22.198.722c13.298-33.395 31.947-64.615 55.507-92.596a426.96 426.96 0 01-48.579-34.834c-33.581 28.26-78.663 40.56-128.404 34.747-12.84-1.501-25.631-4.172-38.238-7.945a183.824 183.824 0 01-10.471-24.706c16.68 6.447 33.819 10.775 51.032 12.787a183.939 183.939 0 0021.368 1.267c34.366 0 65.228-10.149 89.399-29.459a438.392 438.392 0 01-14.736-14.067c-39.473-39.474-70.462-85.457-92.105-136.672a430.939 430.939 0 01-9.709-25.137 186.117 186.117 0 0116.379-14.371c22.543 68.468 62.669 129.025 115.009 176.302 26.865-29.643 38.671-70.838 33.302-116.769-3.988-34.107-17.064-67.919-37.714-98.456z" fill="#c64b1a"/></svg>