<svg height="512" viewBox="0 0 501 501" width="512" xmlns="http://www.w3.org/2000/svg"><path d="M490 256c0 135.31-109.69 245-245 245S0 391.31 0 256 109.69 11 245 11s245 109.69 245 245z" fill="#f5dc90"/><path d="M1.363 281.992A247.962 247.962 0 010 256c0-73.613 32.466-139.644 83.86-184.555 15.498-2.677 29.577-1.795 40.528 4.003 7.569 4.008 11.083 9.009 16.531 16 34.222 43.92 78.867 81.847 101.388 95 53.226 31.085 87.951-14.84 196.163-1 10.359 1.325 25.912 3.314 43.171 6.866a243.687 243.687 0 014.06 17.748c.05.266.1.542.149.829 6.391 37.207-22.641 71.101-60.393 71.101z" fill="#f8bb5e"/><path d="M74.916 297.5c-43.114 0-76.887-37.542-71.802-80.355.095-.802.196-1.52.301-2.145 6.371-37.812 21.403-72.683 42.987-102.501 5.997-3.691 12.14-5.58 18.264-4.832 6.259.764 12.525 5.65 25.059 15.422 33.683 26.263 36.279 44.159 54.667 47.333 20.648 3.564 25.663-9.197 46.667-11.333 42.534-4.325 58.888 44.258 118 73.333 4.803 2.363 56.087 26.813 115.333 18 27.053-4.023 47.42-13.741 63.847-23.943a247.57 247.57 0 011.76 29.521v.424c-.039 22.743-18.686 41.076-41.429 41.076z" fill="#f4aa39"/><path d="M490 256c0 59.936-21.522 114.846-57.26 157.421-7.308 8.707-20.948 3.729-16.161-3.421-4.787-7.151-4.48-120-7.579-120-11.046 0-20-8.954-20-20s8.954-20 20-20c1.105 0 2.189.09 3.245.262C417.808 238.296 429.935 230 444 230a34.862 34.862 0 0115.051 3.393C459.879 220.335 470.733 210 484 210c.571 0 1.138.02 1.699.057A246.346 246.346 0 01490 256z" fill="#08856c"/><path d="M478.235 331.225c-11.767 36.513-31.871 69.283-58.068 96.068-6.158 6.296-16.856.62-14.997-7.989l.049-.224c1.647-7.447-8.469-80.831 42.766-77.596 5.378.34 9.981 3.455 13.963 6.563 2.363-8.185 8.627-14.325 16.287-16.822z" fill="#026841"/><path d="M359 340h-40V140h40z" fill="#235967"/><path d="M349 310c-5.523 0-10-4.477-10-10v-80c0-5.523 4.477-10 10-10s10 4.477 10 10v80c0 5.523-4.477 10-10 10z" fill="#328091"/><path d="M209 185V15c0-8.284 6.716-15 15-15h230c8.284 0 15 6.716 15 15v170c0 8.284-6.716 15-15 15H224c-8.284 0-15-6.716-15-15z" fill="#2740af"/><path d="M241.778 185V15c0-8.284 6.716-15 15-15H454c8.284 0 15 6.716 15 15v170c0 8.284-6.716 15-15 15H256.778c-8.285 0-15-6.716-15-15z" fill="#4f66cf"/><path d="M231.778 170V30c0-5.523 4.477-10 10-10h194.444c5.523 0 10 4.477 10 10v140c0 5.523-4.477 10-10 10H241.778c-5.523 0-10-4.477-10-10z" fill="#bbe0fb"/><path d="M251.778 155V45a5 5 0 015-5h164.444a5 5 0 015 5v110a5 5 0 01-5 5H256.778a5 5 0 01-5-5z" fill="#e3f0fb"/><path d="M279.181 52.99l3.977 7.271c.135.247.338.45.585.585l7.271 3.977c1.02.558 1.02 2.023 0 2.58l-7.271 3.977a1.47 1.47 0 00-.585.585l-3.977 7.271c-.558 1.02-2.023 1.02-2.58 0l-3.977-7.271a1.47 1.47 0 00-.585-.585l-7.271-3.977c-1.02-.558-1.02-2.023 0-2.58l7.271-3.977a1.47 1.47 0 00.585-.585l3.977-7.271c.557-1.02 2.022-1.02 2.58 0z" fill="#63bcfa"/><path d="M426.222 70.892V155a5 5 0 01-5 5H272.956a95.702 95.702 0 01-1.178-15c0-52.467 42.533-95 95-95 22.498 0 43.17 7.821 59.444 20.892z" fill="#fd7d43"/><path d="M366.778 50c17.155 0 33.247 4.547 47.138 12.501-58.446 3.72-107.065 43.592-123.74 97.499h-17.22a95.702 95.702 0 01-1.178-15c0-52.467 42.533-95 95-95z" fill="#f16b38"/><path d="M426.222 128.334a176.467 176.467 0 01-23.227-19.551 179.444 179.444 0 01-3.226-3.31 211.631 211.631 0 00-24.459 17.294c9.349 10.381 15.583 23.069 18.441 37.233H383.23c-2.685-11.628-7.985-22.01-15.709-30.533A212.354 212.354 0 00339.709 160h-12.844a221.576 221.576 0 0125.469-30.471 224.606 224.606 0 017.567-7.223c-12.412-9.916-28.26-15.128-45.907-15.128-3.587 0-7.25.215-10.973.651-8.839 1.033-17.64 3.255-26.206 6.566a94.409 94.409 0 015.377-12.687 115.103 115.103 0 0119.636-4.08c25.543-2.985 48.693 3.331 65.937 17.843a219.362 219.362 0 0124.946-17.888c-12.098-14.368-21.675-30.4-28.503-47.549a96.157 96.157 0 0111.398.371 164.66 164.66 0 0026.228 41.859 221.108 221.108 0 0124.387-11.559V91.91a209.685 209.685 0 00-17.149 8.247 165.786 165.786 0 0017.149 15.254v12.923z" fill="#c64b1a"/><path d="M424.645 103.265l5.408 9.889a2 2 0 00.795.795l9.889 5.408c1.387.759 1.387 2.751 0 3.509l-9.889 5.408a1.994 1.994 0 00-.795.795l-5.408 9.889c-.759 1.387-2.751 1.387-3.509 0l-5.408-9.889a2 2 0 00-.795-.795l-9.889-5.408c-1.387-.759-1.387-2.751 0-3.509l9.889-5.408a2 2 0 00.795-.795l5.408-9.889c.758-1.387 2.75-1.387 3.509 0zm-60.27 39.725l-3.977 7.271a1.47 1.47 0 01-.585.585l-7.271 3.977c-1.02.558-1.02 2.023 0 2.58l7.271 3.977c.247.135.45.338.585.585l3.977 7.271c.558 1.02 2.023 1.02 2.58 0l3.977-7.271a1.47 1.47 0 01.585-.585l7.271-3.977c1.02-.558 1.02-2.023 0-2.58l-7.271-3.977a1.47 1.47 0 01-.585-.585l-3.977-7.271c-.557-1.02-2.022-1.02-2.58 0z" fill="#fff5f5"/><path d="M447 290l-25.092 135.495C377.314 472.028 314.541 501 245 501 109.69 501 0 391.31 0 256c0-8.782.462-17.457 1.364-26H207l150 60z" fill="#0191f8"/><path d="M102.68 374.167h328.734l-6.79 36.667H102.947a18.165 18.165 0 01-14.49-7.205l-.266-.353c-9.023-11.976-.504-29.109 14.489-29.109zm31.323 75.563c.38.295.762.589 1.144.882 14.475 11.088 32.312 16.888 50.546 16.888h183.049a245.941 245.941 0 0047.893-36.667h-276.13c-10.05 0-14.444 12.739-6.502 18.897zM56.326 317.5c-4.851 0-8.333 4.683-6.932 9.328a243.262 243.262 0 0010.065 27.339h375.658l6.79-36.667zm184.442 179.697a245.092 245.092 0 0023.732 3.038 243.839 243.839 0 0060.907-12.735h-83.748c-5.947 0-6.746 8.655-.891 9.697zm27.61-199.697c6.104 0 7.829-8.364 2.222-10.779l-.28-.121c-44.786-19.309-92.222-29.101-140.977-29.101H55.979c-9.507 0-16.977 8.107-16.246 17.586.205 2.662.453 5.311.742 7.948.905 8.242 7.903 14.466 16.195 14.466h211.708z" fill="#49b4fa"/><path d="M143.233 226.992l19.646 3.749-44.813 234.855a245.879 245.879 0 01-18.055-12.083zM209 498.374c6.585.97 13.255 1.677 20 2.112V240h-20zM59 415.471a246.552 246.552 0 0020 20.722V227.32H59zM426 290l-30.567 159.391.008-.006a246.42 246.42 0 0026.467-23.89L447 290zm-67 182.917a244.869 244.869 0 0020-11.777V280h-20zm-115.63 28.078a248.546 248.546 0 0020.497-.711L309 263.749 289.354 260z" fill="#88b9d3"/><path d="M209 430.833h20V467.5h-20zM129.78 297.5h20.361l7.422-38.896a359.257 359.257 0 00-20.167-1.015zM209 354.167h20V317.5h-20zm0-56.667h20v-25.798a353.05 353.05 0 00-20-5.218zm0 113.333h20v-36.667h-20zM59 297.5h20v-40H59zm59.967 56.667h20.361l6.996-36.667h-20.361zM59 353.111l.459 1.056H79V317.5H59zm49.155 57.722h20.361l6.996-36.667h-20.361zm135.835 86.916a245.835 245.835 0 0019.896 2.437l2.421-12.686h-20.361zm158.838-86.916h21.796l2.965-16.011 3.825-20.656H409.86zM359 354.167h20V317.5h-20zM249.761 467.5h20.361l6.996-36.667h-20.361zm170.965-150l-7.031 36.667h21.422l2.158-11.655 4.632-25.012zm-25.293 131.891a246.371 246.371 0 0021.2-18.557h-17.641zm-124.046-95.224h20.361l6.996-36.667h-20.361zm-10.813 56.666h20.361l6.996-36.667H267.57zm98.426 0h20v-36.667h-20zm0 56.667h9.742A245.166 245.166 0 00379 461.141v-30.307h-20zM3.416 215H89v30H.243a245.621 245.621 0 013.173-30z" fill="#bbe0fb"/><path d="M501 285v10c0 5.523-4.477 10-10 10h-56.843c-52.012 0-103.575-10.307-151.338-30.899C238.034 254.792 190.597 245 141.843 245H54c-8.284 0-15-6.716-15-15s6.716-15 15-15h87.843c52.012 0 103.575 10.307 151.338 30.899C337.966 265.208 385.403 275 434.157 275H491c5.523 0 10 4.477 10 10z" fill="#e3f0fb"/></svg>