<svg id="Capa_1" enable-background="new 0 0 501 501" height="512" viewBox="0 0 501 501" width="512" xmlns="http://www.w3.org/2000/svg"><g><path d="m9.261 299.025c-2.471-13.962-3.761-28.332-3.761-43.003 0-135.322 109.69-245.021 245-245.021s245 109.699 245 245.021c0 14.672-1.29 29.042-3.761 43.004h-482.478z" fill="#fd7d43"/><path d="m493.395 288.238c-7.627 57.999-35.492 109.607-76.328 147.467 0 0-122.015 61.254-122.354 61.315-14.341 2.614-29.118 3.98-44.214 3.98-124.375 0-227.104-92.687-242.894-212.762z" fill="#fc5426"/><path d="m204.5 0c102.173 0 185 82.834 185 185.016s-82.827 185.016-185 185.016-185-82.834-185-185.016 82.827-185.016 185-185.016z" fill="#4f66cf"/><path d="m43.845 276.819c-15.49-27.054-24.345-58.394-24.345-91.803 0-102.182 82.827-185.016 185-185.016 33.406 0 64.744 8.856 91.795 24.347-135.468 8.623-243.828 116.992-252.45 252.472z" fill="#2740af"/><path d="m389.476 182.052c.016.986.024 1.974.024 2.963 0 7.276-.421 14.453-1.237 21.51-29.851 17.88-62.225 29.287-94.92 33.109-51.609 6.033-98.203-7.436-132.139-38.002-12.308 15.029-23.571 30.945-33.678 47.636 2.172 2.062 4.321 4.156 6.446 6.282 33.187 33.189 58.663 72.053 75.531 114.415-1.662.044-3.33.067-5.003.067-5.798 0-11.533-.268-17.194-.789-16.644-38.424-40.611-72.966-70.132-101.854-10.771 20.021-19.927 41.035-27.292 62.865-5.707-4.511-11.143-9.351-16.277-14.492 2.676-7.458 5.564-14.856 8.663-22.191 5.838-13.816 12.356-27.25 19.537-40.28-24.29-20.877-51.737-38.178-81.516-51.079-.522-5.662-.789-11.397-.789-17.195 0-1.673.023-3.341.067-5.003 33.395 13.299 64.615 31.95 92.596 55.512 10.446-16.965 22.071-33.18 34.834-48.583-28.26-33.584-40.56-78.669-34.747-128.415 1.501-12.841 4.172-25.633 7.945-38.242 7.921-4.063 16.174-7.57 24.706-10.472-6.447 16.682-10.775 33.821-12.787 51.036-.848 7.25-1.267 14.384-1.267 21.37 0 34.369 10.149 65.233 29.459 89.406 4.562-5.008 9.251-9.921 14.067-14.737 39.474-39.476 85.457-70.468 136.672-92.113 8.3-3.508 16.681-6.745 25.137-9.71 5.102 5.171 9.902 10.641 14.371 16.381-68.468 22.545-129.025 62.674-176.302 115.018 29.643 26.868 70.838 38.674 116.769 33.305 34.107-3.989 67.919-17.066 98.456-37.718z" fill="#172a7d"/><path d="m414.308 331.626c-1.625 4.06-2.355 8.416-2.121 12.783l4.881 91.296c-33.452 31.03-75.583 52.831-122.346 61.356l10.366-175.439c.426-7.217-1.759-14.344-6.177-20.066-6.628-8.585-13.326-17.693-19.984-27.219-23.911-34.214-42.582-67.076-53.148-92.032-6.318-14.925 12.177-27.917 24.024-16.857 14.541 13.577 31.585 32.728 49.085 55.495-.897-8.362-1.667-16.985-2.293-25.803-2.956-41.638-2.11-79.424 1.634-106.265 2.24-16.054 24.782-17.704 29.27-2.128 3.507 12.171 6.725 26.802 9.46 43.188.178 1.068 1.741.987 1.8-.094 1.42-26.314 4.28-49.671 8.131-67.827 3.365-15.861 26.01-15.962 29.381-.102 4.041 19.01 6.994 43.739 8.341 71.602.051 1.062 1.57 1.19 1.791.15 2.152-10.132 4.481-19.371 6.926-27.506 4.664-15.515 27.242-13.727 29.286 2.344 1.888 14.842 2.852 33.009 2.755 53.305-.004.946 1.256 1.265 1.706.433.099-.182.197-.364.295-.544 7.749-14.246 29.432-7.817 28.148 8.349-2.145 27.016-9.487 64.093-21.373 104.107-6.172 20.787-12.942 40.241-19.838 57.474z" fill="#eac0b5"/><path d="m318.757 285.112c8.547 11.374 12.787 25.403 11.948 39.606l-9.812 166.06c-8.537 2.557-17.27 4.661-26.171 6.283l10.366-175.439c.426-7.217-1.759-14.344-6.177-20.066-6.628-8.585-13.326-17.693-19.984-27.219-23.908-34.21-42.578-67.067-53.144-92.022-5.491-12.97 7.721-24.435 19.065-20.016.136.394.288.789.456 1.186 11.458 27.062 31.704 62.694 57.631 99.793 5.266 7.532 10.556 14.826 15.822 21.834zm-15.922-60.635c7.296 0 13.21-34.329 13.21-76.676 0-32.058-3.39-59.52-8.202-70.973-4.776 1.711-8.74 5.782-9.614 12.045-3.745 26.841-4.59 64.628-1.634 106.265.626 8.818 1.396 17.441 2.293 25.803-.033-.044-.067-.087-.1-.13 1.275 2.381 2.636 3.666 4.047 3.666zm45.061-29.46c6.133 0 11.104-33.47 11.104-74.756 0-29.68-2.569-55.32-6.292-67.391-2.785 1.99-4.947 5.039-5.817 9.144-3.852 18.155-6.712 41.513-8.131 67.827-.059 1.081-1.622 1.162-1.8.094-.028-.168-.056-.337-.084-.505.671 36.96 5.349 65.587 11.02 65.587zm89.572-40.93c-3.97.775-7.698 3.203-10.095 7.608-.098.181-.197.362-.295.545-.45.832-1.711.512-1.706-.433 0-.069.001-.138.001-.207-3.581 7.763-7.282 18.804-10.251 31.27-5.923 24.869-6.688 45.99-1.709 47.177 4.979 1.186 13.818-18.012 19.741-42.881 4.496-18.882 6.02-35.602 4.314-43.079zm-46.951 60.542c5.43.255 11.402-32.971 13.34-74.212.783-16.657.787-32.074.157-44.552-4.722 1.133-8.946 4.511-10.683 10.291-2.446 8.135-4.775 17.375-6.926 27.506-.221 1.04-1.74.912-1.791-.15-.016-.333-.032-.665-.049-.997-.136 2.297-.26 4.624-.37 6.978-1.939 41.242.892 74.881 6.322 75.136z" fill="#e1a595"/><path d="m371.602 67.15c.755 3.981-2.305 7.672-6.356 7.672h-7.24c-4.051 0-7.111-3.691-6.356-7.672.241-1.274.49-2.513.746-3.716 2.118-9.963 16.342-9.963 18.46 0 .256 1.202.505 2.442.746 3.716zm45.587 41.636c-2.119-9.963-16.342-9.963-18.46 0-.256 1.203-.504 2.442-.746 3.716-.755 3.981 2.305 7.672 6.356 7.672h7.24c4.051 0 7.111-3.691 6.356-7.672-.241-1.273-.49-2.513-.746-3.716zm32.262 64.755c-.109-1.292-.229-2.551-.359-3.773-1.08-10.128-15.228-11.595-18.362-1.904-.378 1.17-.754 2.377-1.125 3.619-1.161 3.882 1.501 7.868 5.531 8.286l7.202.747c4.03.418 7.454-2.938 7.113-6.975zm-127.041-84.284c-2.639-9.838-16.843-9.09-18.435.971-.192 1.214-.375 2.465-.55 3.75-.544 4.015 2.705 7.54 6.75 7.327l7.23-.381c4.046-.213 6.907-4.059 5.944-7.995-.307-1.26-.62-2.484-.939-3.672zm-74.328 81.948c-7.434-6.962-19.103 1.171-15.145 10.556.478 1.133.982 2.292 1.512 3.475 1.656 3.698 6.277 4.976 9.601 2.66l5.94-4.14c3.324-2.316 3.724-7.094.829-9.928-.927-.908-1.84-1.783-2.737-2.623z" fill="#f8e6cc"/><path d="m418.5 410.035h-118c-3.314 0-6-2.686-6-6v-68.007c0-3.314 2.686-6 6-6h118c3.314 0 6 2.686 6 6v68.007c0 3.313-2.686 6-6 6z" fill="#b3d1e1"/><path d="m418.5 410.035h-94.542c-3.427 0-6.157-2.865-5.993-6.288l3.261-68.006c.153-3.199 2.791-5.713 5.993-5.713h91.281c3.314 0 6 2.686 6 6v68.006c0 3.314-2.686 6.001-6 6.001z" fill="#e3f0fb"/><path d="m424.5 383.532h-130v-27.002h130z" fill="#8694dd"/><path d="m320.229 356.53h104.271v27.002h-105.565z" fill="#63bcfa"/><path d="m371.535 134.375c0 2.761-2.239 5-5 5h-10c-2.761 0-5-2.239-5-5 0-2.762 2.239-5 5-5h10c2.761-.001 5 2.238 5 5zm-5-25.002h-10c-2.761 0-5 2.238-5 5 0 2.761 2.239 5 5 5h10c2.761 0 5-2.239 5-5 0-2.762-2.239-5-5-5zm42.333 46.761h-10c-2.762 0-5 2.239-5 5s2.238 5 5 5h10c2.761 0 5-2.239 5-5s-2.239-5-5-5zm0-20.001h-10c-2.762 0-5 2.239-5 5s2.238 5 5 5h10c2.761 0 5-2.239 5-5s-2.239-5-5-5zm21.445 79.061-9.62-2.731c-2.656-.754-5.421.788-6.176 3.445-.754 2.656.788 5.421 3.445 6.176l9.62 2.731c2.656.754 5.421-.788 6.175-3.445s-.788-5.422-3.444-6.176zm5.461-19.242-9.62-2.731c-2.656-.754-5.421.788-6.175 3.445s.788 5.422 3.445 6.176l9.62 2.731c2.656.754 5.421-.788 6.175-3.445.754-2.656-.788-5.421-3.445-6.176zm-112.387-50.394-9.925 1.226c-2.741.338-4.688 2.835-4.35 5.576.338 2.741 2.834 4.688 5.575 4.35l9.925-1.226c2.741-.338 4.688-2.835 4.35-5.576s-2.834-4.688-5.575-4.35zm-11.15-8.699 9.925-1.226c2.74-.338 4.688-2.835 4.35-5.576-.339-2.741-2.834-4.688-5.575-4.35l-9.925 1.226c-2.741.338-4.688 2.835-4.35 5.576.339 2.74 2.835 4.688 5.575 4.35zm-41.2 75.368-8.139 5.811c-2.248 1.605-2.769 4.728-1.164 6.975 1.604 2.248 4.727 2.769 6.974 1.164l8.139-5.811c2.248-1.605 2.769-4.728 1.164-6.975-1.604-2.248-4.727-2.769-6.974-1.164zm-13.949-2.329 8.139-5.811c2.247-1.605 2.769-4.728 1.164-6.975-1.605-2.248-4.727-2.769-6.975-1.164l-8.139 5.811c-2.248 1.605-2.769 4.728-1.164 6.975s4.727 2.768 6.975 1.164z" fill="#dd9683"/></g></svg>