<svg height="512" viewBox="0 0 501 501" width="512" xmlns="http://www.w3.org/2000/svg"><path d="M9.261 299.025A246.607 246.607 0 015.5 256.022c0-135.322 109.69-245.021 245-245.021s245 109.699 245 245.021a246.61 246.61 0 01-3.761 43.004H9.261z" fill="#fd7d43"/><path d="M493.395 288.238c-7.627 57.999-35.492 109.607-76.328 147.467 0 0-122.015 61.254-122.354 61.315a246.407 246.407 0 01-44.214 3.98C126.124 501 23.395 408.313 7.605 288.238z" fill="#fc5426"/><path d="M204.5 0c102.173 0 185 82.834 185 185.016s-82.827 185.016-185 185.016-185-82.834-185-185.016S102.327 0 204.5 0z" fill="#4f66cf"/><path d="M43.845 276.819C28.355 249.765 19.5 218.425 19.5 185.016 19.5 82.834 102.327 0 204.5 0c33.406 0 64.744 8.856 91.795 24.347C160.827 32.97 52.467 141.339 43.845 276.819z" fill="#2740af"/><path d="M389.476 182.052a187.203 187.203 0 01-1.213 24.473c-29.851 17.88-62.225 29.287-94.92 33.109-51.609 6.033-98.203-7.436-132.139-38.002a412.053 412.053 0 00-33.678 47.636 343.425 343.425 0 016.446 6.282c33.187 33.189 58.663 72.053 75.531 114.415a187.575 187.575 0 01-22.197-.722c-16.644-38.424-40.611-72.966-70.132-101.854a407.935 407.935 0 00-27.292 62.865 186.078 186.078 0 01-16.277-14.492 431.204 431.204 0 018.663-22.191 430.91 430.91 0 0119.537-40.28c-24.29-20.877-51.737-38.178-81.516-51.079a187.258 187.258 0 01-.722-22.198c33.395 13.299 64.615 31.95 92.596 55.512a427.005 427.005 0 0134.834-48.583c-28.26-33.584-40.56-78.669-34.747-128.415 1.501-12.841 4.172-25.633 7.945-38.242a183.828 183.828 0 0124.706-10.472c-6.447 16.682-10.775 33.821-12.787 51.036a183.986 183.986 0 00-1.267 21.37c0 34.369 10.149 65.233 29.459 89.406a437.465 437.465 0 0114.067-14.737c39.474-39.476 85.457-70.468 136.672-92.113a430.238 430.238 0 0125.137-9.71 186.143 186.143 0 0114.371 16.381c-68.468 22.545-129.025 62.674-176.302 115.018 29.643 26.868 70.838 38.674 116.769 33.305 34.107-3.989 67.919-17.066 98.456-37.718z" fill="#172a7d"/><path d="M414.308 331.626a30.057 30.057 0 00-2.121 12.783l4.881 91.296c-33.452 31.03-75.583 52.831-122.346 61.356l10.366-175.439a29.935 29.935 0 00-6.177-20.066 713.362 713.362 0 01-19.984-27.219c-23.911-34.214-42.582-67.076-53.148-92.032-6.318-14.925 12.177-27.917 24.024-16.857 14.541 13.577 31.585 32.728 49.085 55.495a720.811 720.811 0 01-2.293-25.803c-2.956-41.638-2.11-79.424 1.634-106.265 2.24-16.054 24.782-17.704 29.27-2.128 3.507 12.171 6.725 26.802 9.46 43.188.178 1.068 1.741.987 1.8-.094 1.42-26.314 4.28-49.671 8.131-67.827 3.365-15.861 26.01-15.962 29.381-.102 4.041 19.01 6.994 43.739 8.341 71.602.051 1.062 1.57 1.19 1.791.15 2.152-10.132 4.481-19.371 6.926-27.506 4.664-15.515 27.242-13.727 29.286 2.344 1.888 14.842 2.852 33.009 2.755 53.305-.004.946 1.256 1.265 1.706.433l.295-.544c7.749-14.246 29.432-7.817 28.148 8.349-2.145 27.016-9.487 64.093-21.373 104.107-6.172 20.787-12.942 40.241-19.838 57.474z" fill="#eac0b5"/><path d="M318.757 285.112a60.03 60.03 0 0111.948 39.606l-9.812 166.06a243.072 243.072 0 01-26.171 6.283l10.366-175.439a29.935 29.935 0 00-6.177-20.066 713.362 713.362 0 01-19.984-27.219c-23.908-34.21-42.578-67.067-53.144-92.022-5.491-12.97 7.721-24.435 19.065-20.016.136.394.288.789.456 1.186 11.458 27.062 31.704 62.694 57.631 99.793a788.156 788.156 0 0015.822 21.834zm-15.922-60.635c7.296 0 13.21-34.329 13.21-76.676 0-32.058-3.39-59.52-8.202-70.973-4.776 1.711-8.74 5.782-9.614 12.045-3.745 26.841-4.59 64.628-1.634 106.265a720.811 720.811 0 002.293 25.803l-.1-.13c1.275 2.381 2.636 3.666 4.047 3.666zm45.061-29.46c6.133 0 11.104-33.47 11.104-74.756 0-29.68-2.569-55.32-6.292-67.391-2.785 1.99-4.947 5.039-5.817 9.144-3.852 18.155-6.712 41.513-8.131 67.827-.059 1.081-1.622 1.162-1.8.094l-.084-.505c.671 36.96 5.349 65.587 11.02 65.587zm89.572-40.93c-3.97.775-7.698 3.203-10.095 7.608l-.295.545c-.45.832-1.711.512-1.706-.433l.001-.207c-3.581 7.763-7.282 18.804-10.251 31.27-5.923 24.869-6.688 45.99-1.709 47.177 4.979 1.186 13.818-18.012 19.741-42.881 4.496-18.882 6.02-35.602 4.314-43.079zm-46.951 60.542c5.43.255 11.402-32.971 13.34-74.212.783-16.657.787-32.074.157-44.552-4.722 1.133-8.946 4.511-10.683 10.291-2.446 8.135-4.775 17.375-6.926 27.506-.221 1.04-1.74.912-1.791-.15a316.96 316.96 0 00-.049-.997c-.136 2.297-.26 4.624-.37 6.978-1.939 41.242.892 74.881 6.322 75.136z" fill="#e1a595"/><path d="M371.602 67.15c.755 3.981-2.305 7.672-6.356 7.672h-7.24c-4.051 0-7.111-3.691-6.356-7.672.241-1.274.49-2.513.746-3.716 2.118-9.963 16.342-9.963 18.46 0 .256 1.202.505 2.442.746 3.716zm45.587 41.636c-2.119-9.963-16.342-9.963-18.46 0a172.836 172.836 0 00-.746 3.716c-.755 3.981 2.305 7.672 6.356 7.672h7.24c4.051 0 7.111-3.691 6.356-7.672-.241-1.273-.49-2.513-.746-3.716zm32.262 64.755a173.86 173.86 0 00-.359-3.773c-1.08-10.128-15.228-11.595-18.362-1.904a170.61 170.61 0 00-1.125 3.619c-1.161 3.882 1.501 7.868 5.531 8.286l7.202.747c4.03.418 7.454-2.938 7.113-6.975zM322.41 89.257c-2.639-9.838-16.843-9.09-18.435.971a176.514 176.514 0 00-.55 3.75c-.544 4.015 2.705 7.54 6.75 7.327l7.23-.381c4.046-.213 6.907-4.059 5.944-7.995-.307-1.26-.62-2.484-.939-3.672zm-74.328 81.948c-7.434-6.962-19.103 1.171-15.145 10.556.478 1.133.982 2.292 1.512 3.475 1.656 3.698 6.277 4.976 9.601 2.66l5.94-4.14c3.324-2.316 3.724-7.094.829-9.928-.927-.908-1.84-1.783-2.737-2.623z" fill="#f8e6cc"/><path d="M418.5 410.035h-118a6 6 0 01-6-6v-68.007a6 6 0 016-6h118a6 6 0 016 6v68.007a6 6 0 01-6 6z" fill="#b3d1e1"/><path d="M418.5 410.035h-94.542a6 6 0 01-5.993-6.288l3.261-68.006a6 6 0 015.993-5.713H418.5a6 6 0 016 6v68.006a6 6 0 01-6 6.001z" fill="#e3f0fb"/><path d="M424.5 383.532h-130V356.53h130z" fill="#8694dd"/><path d="M320.229 356.53H424.5v27.002H318.935z" fill="#63bcfa"/><path d="M371.535 134.375a5 5 0 01-5 5h-10a5 5 0 010-10h10a5 5 0 015 5zm-5-25.002h-10a5 5 0 100 10h10a5 5 0 000-10zm42.333 46.761h-10a5 5 0 100 10h10a5 5 0 000-10zm0-20.001h-10a5 5 0 100 10h10a5 5 0 000-10zm21.445 79.061l-9.62-2.731a5.001 5.001 0 00-2.731 9.621l9.62 2.731a5 5 0 002.731-9.621zm5.461-19.242l-9.62-2.731a5 5 0 10-2.73 9.621l9.62 2.731a5 5 0 102.73-9.621zm-112.387-50.394l-9.925 1.226a5 5 0 001.225 9.926l9.925-1.226a5 5 0 00-1.225-9.926zm-11.15-8.699l9.925-1.226a5.002 5.002 0 00-1.225-9.926l-9.925 1.226a5 5 0 001.225 9.926zm-41.2 75.368l-8.139 5.811a5 5 0 105.81 8.139l8.139-5.811a5 5 0 10-5.81-8.139zm-13.949-2.329l8.139-5.811a5 5 0 00-5.811-8.139l-8.139 5.811a5 5 0 105.811 8.139z" fill="#dd9683"/></svg>