<svg height="512" viewBox="0 0 501 501" width="512" xmlns="http://www.w3.org/2000/svg"><path d="M495.5 245c0 135.31-109.69 245-245 245S5.5 380.31 5.5 245 115.19 0 250.5 0s245 109.69 245 245z" fill="#017259"/><path d="M491.403 289.854C470.332 403.743 370.489 490 250.5 490S30.668 403.743 9.597 289.854C30.668 175.965 130.511 89.708 250.5 89.708s219.832 86.257 240.903 200.146z" fill="#059b7e"/><path d="M261.692 135.015a14.946 14.946 0 013.806 9.985c0 8.284-6.716 15-15 15-4.265 0-8.114-1.78-10.845-4.637-1.862-1.948-72.252-78.937-111.071-122.922a243.47 243.47 0 0161.115-24.837c24.762 42.172 69.949 125.118 71.995 127.411z" fill="#fc5426"/><path d="M128.583 32.441a243.858 243.858 0 0137.503-17.51c28.521 49.796 66.171 118.266 81.177 144.719a14.977 14.977 0 01-7.61-4.287c-1.861-1.948-72.252-78.937-111.07-122.922z" fill="#c64b1a"/><path d="M271.391 172.31c7.992-6.415 13.109-16.265 13.109-27.31 0-19.33-15.67-35-35-35s-35 15.67-35 35c0 11.176 5.238 21.128 13.394 27.537C147.463 183.557 85.5 252.542 85.5 336c0 91.127 73.873 165 165 165s165-73.873 165-165c0-84.05-62.845-153.422-144.109-163.69zM250.5 130c8.284 0 15 6.716 15 15s-6.716 15-15 15-15-6.716-15-15 6.716-15 15-15z" fill="#f5c02c"/><path d="M372.416 32.44c-38.818 43.985-109.21 120.975-111.071 122.923A14.958 14.958 0 01250.5 160c-8.284 0-15-6.716-15-15 0-3.835 1.439-7.333 3.806-9.985 2.046-2.292 47.233-85.239 71.994-127.411a243.46 243.46 0 0161.116 24.836z" fill="#f16b38"/><path d="M372.416 32.44c-38.818 43.985-109.21 120.975-111.071 122.923a14.978 14.978 0 01-7.609 4.287c15.006-26.453 52.656-94.924 81.177-144.72a243.814 243.814 0 0137.503 17.51z" fill="#fd7d43"/><path d="M415.5 336c0 23.539-4.929 45.927-13.812 66.188C381.427 411.07 359.039 416 335.5 416c-91.127 0-165-73.873-165-165 0-23.54 4.929-45.927 13.812-66.188a163.724 163.724 0 0127.825-9.329A9.948 9.948 0 01210.5 170c0-5.523 4.477-10 10-10h60c5.523 0 10 4.477 10 10a9.945 9.945 0 01-1.637 5.483C361.489 192.776 415.5 258.081 415.5 336z" fill="#f1ca50"/><path d="M244.5 180h-24c-5.523 0-10-4.477-10-10s4.165-10.35 9.688-10.35l24.312.35c-5.523 0-10 4.477-10 10s4.477 10 10 10zM355.5 336c0 57.99-47.01 105-105 105s-105-47.01-105-105 47.01-105 105-105 105 47.01 105 105z" fill="#f5c02c"/><path d="M342.015 387.515C324.004 419.442 289.77 441 250.5 441c-57.99 0-105-47.01-105-105 0-39.27 21.558-73.504 53.485-91.515C190.399 259.704 185.5 277.28 185.5 296c0 57.99 47.01 105 105 105 18.72 0 36.295-4.899 51.515-13.485z" fill="#f19b0b"/><path d="M250.5 221c-63.411 0-115 51.589-115 115s51.589 115 115 115 115-51.589 115-115-51.589-115-115-115zm84.901 72.398a196.712 196.712 0 00-58.41 30.253 246.195 246.195 0 00-7.941-8.278 246.821 246.821 0 00-17.941-16.173 172.818 172.818 0 0026.611-54.227c25.196 7.548 46.028 25.295 57.681 48.425zm-77.446-52.108a152.871 152.871 0 01-22.831 45.888 249.799 249.799 0 00-44.803-24.634C206.718 249.087 227.682 241 250.5 241c2.509 0 4.995.098 7.455.29zm-82.683 36.757c16.621 6.347 32.364 14.646 46.931 24.601a152.997 152.997 0 01-66.408 40.873 95.96 95.96 0 01-.295-7.52c0-21.799 7.38-41.906 19.772-57.954zm-15.78 85.235c30.662-8.861 57.754-25.867 78.814-48.567a232.335 232.335 0 0123.225 21.875c-24.49 22.722-43.162 51.618-53.632 84.311-23.112-11.643-40.848-32.451-48.407-57.619zm67.148 64.684a176.941 176.941 0 0147.842-76.107c14.005 18.037 25.361 38.18 33.425 59.789C291.949 423.786 272.051 431 250.5 431a94.84 94.84 0 01-23.86-3.034zm96.878-31.258c-8.517-20.587-19.879-40.09-33.606-57.748a176.74 176.74 0 0152.554-26.821A94.848 94.848 0 01345.5 336c0 23.064-8.262 44.235-21.982 60.708z" fill="#fdf385"/><path d="M333.777 415.231c20.17-21.19 32.36-50.043 31.697-81.686-1.285-61.318-51.203-111.236-112.521-112.52-31.642-.663-60.495 11.527-81.685 31.697.136 9.252 3.539 25.925 4.003 25.324 16.621 6.347 32.364 14.646 46.931 24.601a153.213 153.213 0 01-23.865 20.373c-4.318 2.98-5.642 8.804-2.902 13.278l.105.171c2.97 4.836 9.364 6.313 14.038 3.093a173.304 173.304 0 0028.727-24.847 232.335 232.335 0 0123.225 21.875 197.31 197.31 0 00-27.393 31.422c-3.017 4.306-2.126 10.256 2.053 13.447l.243.185c4.496 3.421 10.885 2.405 14.129-2.221a177.252 177.252 0 0123.919-27.565c14.005 18.037 25.361 38.18 33.425 59.789-.421.321 16.619 3.448 25.871 3.584zm-98.653-128.053a249.799 249.799 0 00-44.803-24.634C206.718 249.087 227.682 241 250.5 241c2.509 0 4.995.098 7.455.29a152.836 152.836 0 01-22.831 45.888zm33.926 28.195a246.821 246.821 0 00-17.941-16.173 172.818 172.818 0 0026.611-54.227c25.196 7.548 46.028 25.294 57.681 48.425a196.712 196.712 0 00-58.41 30.253 246.195 246.195 0 00-7.941-8.278zm20.862 23.587a176.74 176.74 0 0152.554-26.821A94.848 94.848 0 01345.5 336c0 23.064-8.262 44.235-21.982 60.708-8.517-20.587-19.879-40.089-33.606-57.748z" fill="#fff5f5"/><path d="M192.789 208.504l-4.309 7.08c-.146.24-.22.517-.214.798l.192 8.285c.027 1.162-1.242 1.895-2.235 1.291l-7.079-4.309a1.467 1.467 0 00-.799-.214l-8.285.192c-1.162.027-1.895-1.242-1.29-2.235l4.309-7.079c.146-.24.22-.518.214-.799l-.192-8.285c-.027-1.162 1.242-1.895 2.235-1.29l7.079 4.309c.24.146.517.22.799.214l8.285-.192c1.162-.027 1.895 1.241 1.29 2.234zM330.94 447.789l-8.285.191a1.48 1.48 0 01-.799-.214l-7.08-4.309a1.471 1.471 0 00-2.235 1.29l.192 8.285a1.47 1.47 0 01-.214.799l-4.309 7.079c-.604.993.128 2.262 1.29 2.235l8.285-.191c.281-.007.558.067.799.214l7.079 4.309a1.471 1.471 0 002.235-1.29l-.191-8.286a1.466 1.466 0 01.214-.798l4.309-7.08c.605-.993-.128-2.262-1.29-2.234zm51.039-190.48l-8.285.192a1.48 1.48 0 01-.799-.214l-7.079-4.309a1.471 1.471 0 00-2.235 1.291l.192 8.285c.006.281-.068.558-.214.798l-4.309 7.08c-.604.993.128 2.262 1.29 2.235l8.285-.192a1.48 1.48 0 01.799.214l7.079 4.309c.993.604 2.262-.128 2.235-1.29l-.192-8.285a1.47 1.47 0 01.214-.799l4.309-7.079c.604-.995-.128-2.263-1.29-2.236zM140.46 396.75l-8.285.191a1.463 1.463 0 01-.799-.214l-7.079-4.309c-.993-.604-2.262.128-2.235 1.29l.192 8.286c.007.281-.068.558-.214.798l-4.309 7.08a1.471 1.471 0 001.29 2.235l8.285-.192a1.48 1.48 0 01.799.214l7.079 4.309c.993.604 2.262-.128 2.235-1.29l-.192-8.285a1.478 1.478 0 01.214-.799l4.309-7.08c.605-.993-.128-2.261-1.29-2.234z" fill="#f5dc90"/><path d="M192.789 460.911c.604.993-.128 2.262-1.29 2.235l-8.285-.191a1.463 1.463 0 00-.799.214l-7.079 4.309c-.993.604-2.262-.128-2.235-1.29l.192-8.286a1.475 1.475 0 00-.214-.798l-4.309-7.08c-.604-.993.128-2.262 1.29-2.234l8.285.191a1.48 1.48 0 00.799-.214l7.079-4.309c.993-.604 2.262.128 2.235 1.29l-.192 8.285a1.47 1.47 0 00.214.799zm-55.347-197.559a1.475 1.475 0 01-.214-.798l.192-8.285c.027-1.162-1.242-1.895-2.235-1.291l-7.079 4.309c-.24.146-.517.221-.799.214l-8.285-.192c-1.162-.027-1.895 1.242-1.29 2.235l4.309 7.079c.146.24.22.518.214.799l-.192 8.285c-.027 1.162 1.242 1.895 2.235 1.29l7.079-4.309c.24-.146.517-.22.799-.214l8.285.192c1.162.027 1.895-1.242 1.29-2.235zm-13.26 70.066l-7.271-3.977a1.47 1.47 0 01-.585-.585l-3.977-7.271c-.558-1.02-2.023-1.02-2.58 0l-3.977 7.271c-.135.247-.338.45-.584.585l-7.271 3.977a1.47 1.47 0 000 2.58l7.271 3.977c.247.135.45.338.584.584l3.977 7.271a1.47 1.47 0 002.58 0l3.977-7.271c.135-.247.338-.45.585-.584l7.271-3.977c1.02-.558 1.02-2.023 0-2.58zm139.441 139.44l-7.271-3.977a1.468 1.468 0 01-.585-.584l-3.977-7.271c-.558-1.02-2.023-1.02-2.58 0l-3.977 7.271c-.135.247-.338.45-.585.584l-7.271 3.977a1.47 1.47 0 000 2.58l7.271 3.977c.247.135.45.338.585.584l3.977 7.271c.558 1.02 2.023 1.02 2.58 0l3.977-7.271c.135-.247.338-.45.585-.584l7.271-3.977c1.019-.557 1.019-2.022 0-2.58zm64.298-260.545a1.478 1.478 0 01-.214-.799l.191-8.285c.027-1.162-1.242-1.895-2.235-1.29l-7.079 4.309c-.24.146-.518.22-.799.214l-8.285-.192c-1.162-.027-1.895 1.242-1.29 2.235l4.309 7.08c.146.24.22.517.214.798l-.192 8.285c-.027 1.162 1.242 1.895 2.235 1.291l7.08-4.309c.24-.146.517-.221.799-.214l8.285.192c1.162.027 1.895-1.242 1.29-2.235zm75.143 121.105l-7.271-3.977a1.468 1.468 0 01-.584-.585l-3.977-7.271a1.47 1.47 0 00-2.58 0l-3.977 7.271c-.135.247-.338.45-.584.585l-7.271 3.977a1.47 1.47 0 000 2.58l7.271 3.977c.247.135.45.338.584.584l3.977 7.271c.558 1.02 2.023 1.02 2.58 0l3.977-7.271c.135-.247.338-.45.584-.584l7.271-3.977c1.019-.558 1.019-2.023 0-2.58zm-24.104 69.375a1.477 1.477 0 01-.214-.798l.192-8.286c.027-1.162-1.242-1.895-2.235-1.29l-7.079 4.309c-.24.146-.517.221-.799.214l-8.285-.191c-1.162-.027-1.895 1.242-1.29 2.234l4.309 7.08c.146.24.22.518.214.799l-.192 8.285c-.027 1.162 1.242 1.895 2.235 1.29l7.079-4.309c.24-.146.517-.22.799-.214l8.285.192c1.162.026 1.895-1.242 1.29-2.235zM263.623 193.977L256.351 190a1.474 1.474 0 01-.585-.584l-3.977-7.271c-.558-1.02-2.023-1.02-2.58 0l-3.977 7.271a1.468 1.468 0 01-.585.584l-7.271 3.977c-1.02.558-1.02 2.022 0 2.581l7.271 3.977c.247.135.45.338.585.584l3.977 7.271c.558 1.02 2.023 1.02 2.58 0l3.977-7.271c.135-.247.338-.45.585-.584l7.271-3.977c1.02-.559 1.02-2.023.001-2.581z" fill="#f19b0b"/><path d="M100.855 181.929c3.905 3.905 3.905 10.237 0 14.142s-10.237 3.905-14.142 0l-28.284-28.284c-3.905-3.905-3.905-10.237 0-14.142s10.237-3.905 14.142 0zM65.5 219h-30c-5.523 0-10 4.477-10 10s4.477 10 10 10h30c5.523 0 10-4.477 10-10s-4.477-10-10-10zm70-100c-5.523 0-10 4.477-10 10v30c0 5.523 4.477 10 10 10s10-4.477 10-10v-30c0-5.523-4.477-10-10-10zm307.071 34.645c-3.905-3.905-10.237-3.905-14.142 0l-28.284 28.284c-3.905 3.905-3.905 10.237 0 14.142s10.237 3.905 14.142 0l28.284-28.284c3.905-3.906 3.905-10.237 0-14.142zM465.5 219h-30c-5.523 0-10 4.477-10 10s4.477 10 10 10h30c5.523 0 10-4.477 10-10s-4.477-10-10-10zm-100-100c-5.523 0-10 4.477-10 10v30c0 5.523 4.477 10 10 10s10-4.477 10-10v-30c0-5.523-4.477-10-10-10z" fill="#fff5f5"/></svg>