<svg id="Capa_1" enable-background="new 0 0 501 501" height="512" viewBox="0 0 501 501" width="512" xmlns="http://www.w3.org/2000/svg"><g><path d="m495.5 245c0 135.31-109.69 245-245 245s-245-109.69-245-245 109.69-245 245-245 245 109.69 245 245z" fill="#017259"/><path d="m491.403 289.854c-21.071 113.889-120.914 200.146-240.903 200.146s-219.832-86.257-240.903-200.146c21.071-113.889 120.914-200.146 240.903-200.146s219.832 86.257 240.903 200.146z" fill="#059b7e"/><path d="m261.692 135.015c2.367 2.652 3.806 6.151 3.806 9.985 0 8.284-6.716 15-15 15-4.265 0-8.114-1.78-10.845-4.637-1.862-1.948-72.252-78.937-111.071-122.922 18.926-10.879 39.443-19.303 61.115-24.837 24.762 42.172 69.949 125.118 71.995 127.411z" fill="#fc5426"/><path d="m128.583 32.441c11.908-6.845 24.445-12.717 37.503-17.51 28.521 49.796 66.171 118.266 81.177 144.719-2.959-.65-5.59-2.174-7.61-4.287-1.861-1.948-72.252-78.937-111.07-122.922z" fill="#c64b1a"/><path d="m271.391 172.31c7.992-6.415 13.109-16.265 13.109-27.31 0-19.33-15.67-35-35-35s-35 15.67-35 35c0 11.176 5.238 21.128 13.394 27.537-80.431 11.02-142.394 80.005-142.394 163.463 0 91.127 73.873 165 165 165s165-73.873 165-165c0-84.05-62.845-153.422-144.109-163.69zm-20.891-42.31c8.284 0 15 6.716 15 15s-6.716 15-15 15-15-6.716-15-15 6.716-15 15-15z" fill="#f5c02c"/><path d="m372.416 32.44c-38.818 43.985-109.21 120.975-111.071 122.923-2.731 2.857-6.58 4.637-10.845 4.637-8.284 0-15-6.716-15-15 0-3.835 1.439-7.333 3.806-9.985 2.046-2.292 47.233-85.239 71.994-127.411 21.673 5.534 42.19 13.957 61.116 24.836z" fill="#f16b38"/><path d="m372.416 32.44c-38.818 43.985-109.21 120.975-111.071 122.923-2.02 2.113-4.651 3.637-7.609 4.287 15.006-26.453 52.656-94.924 81.177-144.72 13.058 4.793 25.596 10.665 37.503 17.51z" fill="#fd7d43"/><path d="m415.5 336c0 23.539-4.929 45.927-13.812 66.188-20.261 8.882-42.649 13.812-66.188 13.812-91.127 0-165-73.873-165-165 0-23.54 4.929-45.927 13.812-66.188 8.893-3.899 18.195-7.036 27.825-9.329-1.035-1.575-1.637-3.458-1.637-5.483 0-5.523 4.477-10 10-10h60c5.523 0 10 4.477 10 10 0 2.025-.602 3.909-1.637 5.483 72.626 17.293 126.637 82.598 126.637 160.517z" fill="#f1ca50"/><path d="m244.5 180h-24c-5.523 0-10-4.477-10-10s4.165-10.35 9.688-10.35l24.312.35c-5.523 0-10 4.477-10 10s4.477 10 10 10z" fill="#f5c02c"/><path d="m355.5 336c0 57.99-47.01 105-105 105s-105-47.01-105-105 47.01-105 105-105 105 47.01 105 105z" fill="#f5c02c"/><path d="m342.015 387.515c-18.011 31.927-52.245 53.485-91.515 53.485-57.99 0-105-47.01-105-105 0-39.27 21.558-73.504 53.485-91.515-8.586 15.219-13.485 32.795-13.485 51.515 0 57.99 47.01 105 105 105 18.72 0 36.295-4.899 51.515-13.485z" fill="#f19b0b"/><path d="m250.5 221c-63.411 0-115 51.589-115 115s51.589 115 115 115 115-51.589 115-115-51.589-115-115-115zm84.901 72.398c-21.297 6.82-40.987 17.124-58.41 30.253-2.583-2.821-5.231-5.582-7.941-8.278-5.708-5.678-11.7-11.076-17.941-16.173 11.818-16.149 20.909-34.443 26.611-54.227 25.196 7.548 46.028 25.295 57.681 48.425zm-77.446-52.108c-5.043 16.698-12.825 32.165-22.831 45.888-14.062-9.723-29.109-18.005-44.803-24.634 16.397-13.457 37.361-21.544 60.179-21.544 2.509 0 4.995.098 7.455.29zm-82.683 36.757c16.621 6.347 32.364 14.646 46.931 24.601-17.981 18.857-40.743 33.103-66.408 40.873-.195-2.481-.295-4.989-.295-7.52 0-21.799 7.38-41.906 19.772-57.954zm-15.78 85.235c30.662-8.861 57.754-25.867 78.814-48.567 8.233 6.75 15.997 14.063 23.225 21.875-24.49 22.722-43.162 51.618-53.632 84.311-23.112-11.643-40.848-32.451-48.407-57.619zm67.148 64.684c9.256-29.478 25.92-55.561 47.842-76.107 14.005 18.037 25.361 38.18 33.425 59.789-15.958 12.138-35.856 19.352-57.407 19.352-8.238 0-16.233-1.054-23.86-3.034zm96.878-31.258c-8.517-20.587-19.879-40.09-33.606-57.748 15.697-11.675 33.412-20.811 52.554-26.821 1.98 7.627 3.034 15.623 3.034 23.861 0 23.064-8.262 44.235-21.982 60.708z" fill="#fdf385"/><path d="m333.777 415.231c20.17-21.19 32.36-50.043 31.697-81.686-1.285-61.318-51.203-111.236-112.521-112.52-31.642-.663-60.495 11.527-81.685 31.697.136 9.252 3.539 25.925 4.003 25.324 16.621 6.347 32.364 14.646 46.931 24.601-7.224 7.576-15.219 14.407-23.865 20.373-4.318 2.98-5.642 8.804-2.902 13.278.035.057.07.114.105.171 2.97 4.836 9.364 6.313 14.038 3.093 10.474-7.216 20.106-15.554 28.727-24.847 8.233 6.75 15.997 14.063 23.225 21.875-10.197 9.461-19.385 19.992-27.393 31.422-3.017 4.306-2.126 10.256 2.053 13.447.081.062.162.124.243.185 4.496 3.421 10.885 2.405 14.129-2.221 7.014-10.003 15.035-19.239 23.919-27.565 14.005 18.037 25.361 38.18 33.425 59.789-.421.321 16.619 3.448 25.871 3.584zm-98.653-128.053c-14.062-9.723-29.109-18.005-44.803-24.634 16.397-13.457 37.361-21.544 60.179-21.544 2.509 0 4.995.098 7.455.29-5.042 16.699-12.825 32.165-22.831 45.888zm33.926 28.195c-5.708-5.678-11.7-11.076-17.941-16.173 11.818-16.149 20.909-34.443 26.611-54.227 25.196 7.548 46.028 25.294 57.681 48.425-21.297 6.82-40.987 17.124-58.41 30.253-2.583-2.821-5.231-5.582-7.941-8.278zm20.862 23.587c15.697-11.675 33.412-20.811 52.554-26.821 1.98 7.627 3.034 15.623 3.034 23.861 0 23.064-8.262 44.235-21.982 60.708-8.517-20.587-19.879-40.089-33.606-57.748z" fill="#fff5f5"/><path d="m192.789 208.504-4.309 7.08c-.146.24-.22.517-.214.798l.192 8.285c.027 1.162-1.242 1.895-2.235 1.291l-7.079-4.309c-.24-.146-.517-.221-.799-.214l-8.285.192c-1.162.027-1.895-1.242-1.29-2.235l4.309-7.079c.146-.24.22-.518.214-.799l-.192-8.285c-.027-1.162 1.242-1.895 2.235-1.29l7.079 4.309c.24.146.517.22.799.214l8.285-.192c1.162-.027 1.895 1.241 1.29 2.234zm138.151 239.285-8.285.191c-.281.006-.558-.068-.799-.214l-7.08-4.309c-.993-.604-2.261.128-2.235 1.29l.192 8.285c.007.281-.068.559-.214.799l-4.309 7.079c-.604.993.128 2.262 1.29 2.235l8.285-.191c.281-.007.558.067.799.214l7.079 4.309c.993.604 2.261-.128 2.235-1.29l-.191-8.286c-.007-.281.068-.558.214-.798l4.309-7.08c.605-.993-.128-2.262-1.29-2.234zm51.039-190.48-8.285.192c-.281.006-.558-.068-.799-.214l-7.079-4.309c-.993-.604-2.262.128-2.235 1.291l.192 8.285c.006.281-.068.558-.214.798l-4.309 7.08c-.604.993.128 2.262 1.29 2.235l8.285-.192c.281-.006.558.068.799.214l7.079 4.309c.993.604 2.262-.128 2.235-1.29l-.192-8.285c-.007-.281.068-.559.214-.799l4.309-7.079c.604-.995-.128-2.263-1.29-2.236zm-241.519 139.441-8.285.191c-.281.007-.558-.067-.799-.214l-7.079-4.309c-.993-.604-2.262.128-2.235 1.29l.192 8.286c.007.281-.068.558-.214.798l-4.309 7.08c-.604.993.128 2.261 1.29 2.235l8.285-.192c.281-.006.558.068.799.214l7.079 4.309c.993.604 2.262-.128 2.235-1.29l-.192-8.285c-.006-.281.068-.559.214-.799l4.309-7.08c.605-.993-.128-2.261-1.29-2.234z" fill="#f5dc90"/><path d="m192.789 460.911c.604.993-.128 2.262-1.29 2.235l-8.285-.191c-.281-.007-.558.067-.799.214l-7.079 4.309c-.993.604-2.262-.128-2.235-1.29l.192-8.286c.006-.281-.068-.558-.214-.798l-4.309-7.08c-.604-.993.128-2.262 1.29-2.234l8.285.191c.281.006.558-.068.799-.214l7.079-4.309c.993-.604 2.262.128 2.235 1.29l-.192 8.285c-.007.281.068.559.214.799zm-55.347-197.559c-.146-.24-.22-.517-.214-.798l.192-8.285c.027-1.162-1.242-1.895-2.235-1.291l-7.079 4.309c-.24.146-.517.221-.799.214l-8.285-.192c-1.162-.027-1.895 1.242-1.29 2.235l4.309 7.079c.146.24.22.518.214.799l-.192 8.285c-.027 1.162 1.242 1.895 2.235 1.29l7.079-4.309c.24-.146.517-.22.799-.214l8.285.192c1.162.027 1.895-1.242 1.29-2.235zm-13.26 70.066-7.271-3.977c-.247-.135-.45-.338-.585-.585l-3.977-7.271c-.558-1.02-2.023-1.02-2.58 0l-3.977 7.271c-.135.247-.338.45-.584.585l-7.271 3.977c-1.02.558-1.02 2.022 0 2.58l7.271 3.977c.247.135.45.338.584.584l3.977 7.271c.558 1.02 2.022 1.02 2.58 0l3.977-7.271c.135-.247.338-.45.585-.584l7.271-3.977c1.02-.558 1.02-2.023 0-2.58zm139.441 139.44-7.271-3.977c-.247-.135-.45-.337-.585-.584l-3.977-7.271c-.558-1.02-2.023-1.02-2.58 0l-3.977 7.271c-.135.247-.338.45-.585.584l-7.271 3.977c-1.02.558-1.02 2.022 0 2.58l7.271 3.977c.247.135.45.338.585.584l3.977 7.271c.558 1.02 2.023 1.02 2.58 0l3.977-7.271c.135-.247.338-.45.585-.584l7.271-3.977c1.019-.557 1.019-2.022 0-2.58zm64.298-260.545c-.146-.24-.22-.518-.214-.799l.191-8.285c.027-1.162-1.242-1.895-2.235-1.29l-7.079 4.309c-.24.146-.518.22-.799.214l-8.285-.192c-1.162-.027-1.895 1.242-1.29 2.235l4.309 7.08c.146.24.22.517.214.798l-.192 8.285c-.027 1.162 1.242 1.895 2.235 1.291l7.08-4.309c.24-.146.517-.221.799-.214l8.285.192c1.162.027 1.895-1.242 1.29-2.235zm75.143 121.105-7.271-3.977c-.247-.135-.449-.338-.584-.585l-3.977-7.271c-.558-1.02-2.022-1.02-2.58 0l-3.977 7.271c-.135.247-.338.45-.584.585l-7.271 3.977c-1.02.558-1.02 2.022 0 2.58l7.271 3.977c.247.135.45.338.584.584l3.977 7.271c.558 1.02 2.023 1.02 2.58 0l3.977-7.271c.135-.247.338-.45.584-.584l7.271-3.977c1.019-.558 1.019-2.023 0-2.58zm-24.104 69.375c-.146-.24-.22-.518-.214-.798l.192-8.286c.027-1.162-1.242-1.895-2.235-1.29l-7.079 4.309c-.24.146-.517.221-.799.214l-8.285-.191c-1.162-.027-1.895 1.242-1.29 2.234l4.309 7.08c.146.24.22.518.214.799l-.192 8.285c-.027 1.162 1.242 1.895 2.235 1.29l7.079-4.309c.24-.146.517-.22.799-.214l8.285.192c1.162.026 1.895-1.242 1.29-2.235zm-115.337-208.816-7.272-3.977c-.247-.135-.45-.338-.585-.584l-3.977-7.271c-.558-1.02-2.023-1.02-2.58 0l-3.977 7.271c-.135.247-.338.449-.585.584l-7.271 3.977c-1.02.558-1.02 2.022 0 2.581l7.271 3.977c.247.135.45.338.585.584l3.977 7.271c.558 1.02 2.023 1.02 2.58 0l3.977-7.271c.135-.247.338-.45.585-.584l7.271-3.977c1.02-.559 1.02-2.023.001-2.581z" fill="#f19b0b"/><path d="m100.855 181.929c3.905 3.905 3.905 10.237 0 14.142s-10.237 3.905-14.142 0l-28.284-28.284c-3.905-3.905-3.905-10.237 0-14.142s10.237-3.905 14.142 0zm-35.355 37.071h-30c-5.523 0-10 4.477-10 10s4.477 10 10 10h30c5.523 0 10-4.477 10-10s-4.477-10-10-10zm70-100c-5.523 0-10 4.477-10 10v30c0 5.523 4.477 10 10 10s10-4.477 10-10v-30c0-5.523-4.477-10-10-10zm307.071 34.645c-3.905-3.905-10.237-3.905-14.142 0l-28.284 28.284c-3.905 3.905-3.905 10.237 0 14.142s10.237 3.905 14.142 0l28.284-28.284c3.905-3.906 3.905-10.237 0-14.142zm22.929 65.355h-30c-5.523 0-10 4.477-10 10s4.477 10 10 10h30c5.523 0 10-4.477 10-10s-4.477-10-10-10zm-100-100c-5.523 0-10 4.477-10 10v30c0 5.523 4.477 10 10 10s10-4.477 10-10v-30c0-5.523-4.477-10-10-10z" fill="#fff5f5"/></g></svg>