<svg id="Capa_1" enable-background="new 0 0 501 501" height="512" viewBox="0 0 501 501" width="512" xmlns="http://www.w3.org/2000/svg"><g><path d="m495.5 255.978c0 135.298-109.69 244.979-245 244.979s-245-109.68-245-244.979 109.69-244.979 245-244.979 245 109.681 245 244.979z" fill="#63bcfa"/><path d="m379.5 339.971h101.221c-3.775 10.343-8.227 20.36-13.303 29.997h-87.918c-8.284 0-15-6.715-15-14.999s6.716-14.998 15-14.998zm40-99.991h75.486c-1.342-20.813-5.283-40.918-11.502-59.995h-23.984c-8.284 0-15 6.715-15 14.999s-6.716 14.999-15 14.999h-9.576c-8.077 0-15.026 6.207-15.406 14.273-.407 8.613 6.457 15.724 14.982 15.724zm-200 109.99h-195.319c4.316 10.379 9.326 20.398 14.971 29.997h180.348c8.284 0 15-6.715 15-14.999s-6.716-14.998-15-14.998z" fill="#91cefb"/><path d="m493.159 289.975h-18.393l-.677.677-.677-.677h-28.284l14.819 14.818-33.255 33.253-33.255-33.253 14.819-14.818h-28.284l-.677.677-.677-.677h-28.284l14.819 14.818-33.255 33.253-33.255-33.253 14.819-14.818h-28.284l-.677.677-.677-.677h-28.284l14.819 14.818-33.255 33.253-33.255-33.253 14.819-14.818h-28.284l-.677.677-.677-.677h-28.284l14.819 14.818-33.255 33.253-33.255-33.253 14.819-14.818h-28.287l-.677.677-.677-.677h-28.283l14.819 14.818-33.255 33.253-38.073-38.07c2.408 13.278 5.887 26.184 10.343 38.624l13.588 13.586-5.722 5.722c2.928 6.39 6.123 12.632 9.57 18.713l10.295-10.294 33.255 33.253-16.08 16.077c4.353 5.06 8.909 9.94 13.656 14.627l16.565-16.564 33.255 33.253-13.15 13.149c5.707 3.795 11.582 7.356 17.612 10.671l9.68-9.679 25.564 25.561c12.441 4.456 25.348 7.934 38.627 10.342l-2.651-2.651 33.255-33.252 33.255 33.252-6.218 6.218c12.28-.674 24.319-2.252 36.052-4.669l-1.549-1.549 33.255-33.252 18.584 18.582c6.435-2.88 12.723-6.029 18.85-9.433l-23.292-23.29 33.255-33.253 29.363 29.361c5.098-4.313 10.016-8.83 14.744-13.539l-29.965-29.963 33.255-33.253 26.828 26.825c3.835-5.664 7.439-11.496 10.799-17.484l-23.484-23.482 33.255-33.253 10.276 10.275c2.294-7.332 4.253-14.813 5.858-22.424l-1.993-1.992 2.989-2.989c.741-3.909 1.388-7.852 1.939-11.827zm-208.659 28.959 33.255 33.253-33.255 33.252-33.255-33.253zm-94.795 0 33.255 33.253-33.255 33.253-33.255-33.253zm-128.049 33.252 33.255-33.253 33.255 33.253-33.255 33.253zm47.397 47.394 33.255-33.253 33.255 33.253-33.255 33.253zm80.652 80.645-33.255-33.252 33.255-33.253 33.255 33.253zm14.142-80.645 33.255-33.253 33.255 33.253-33.255 33.253zm80.653 80.645-33.255-33.252 33.255-33.253 33.255 33.253zm47.397-47.393-33.255-33.253 33.255-33.253 33.255 33.253zm47.398-47.393-33.255-33.253 33.255-33.253 33.255 33.253zm56.495-289.7c-39.372-9.583-116.282-10.975-198.767-3.19-5.503.524-10.376-3.517-10.896-9.015-.519-5.498 3.518-10.376 9.016-10.895 36.574-3.452 71.764-5.141 103.347-5.141 27.527 0 52.321 1.282 72.935 3.795 8.682 7.569 16.825 15.739 24.365 24.446z" fill="#6caac9"/><path d="m5.894 269.977h489.213c-.573 10.178-1.768 20.189-3.547 29.997h-482.12c-1.778-9.808-2.973-19.819-3.546-29.997z" fill="#0680ae"/><path d="m495.106 269.977c-.573 10.178-1.768 20.189-3.547 29.997h-410.768c-7.482 0-13.802-5.564-14.74-12.986-.013-.1-.025-.199-.038-.299-1.11-8.87 5.8-16.712 14.74-16.712z" fill="#3691bb"/><path d="m292.194 301.454c-80.875 28.057-169.183-14.755-197.243-95.623s14.757-169.17 95.632-197.226 169.183 14.755 197.243 95.623c28.059 80.868-14.757 169.169-95.632 197.226z" fill="#fd7d43"/><path d="m139.431 271.8c-19.69-17.157-35.305-39.529-44.48-65.969-28.058-80.869 14.757-169.17 95.632-197.226 26.443-9.173 53.68-10.77 79.347-5.938-104.863 44.023-160.877 159.544-130.499 269.133z" fill="#f16b38"/><path d="m292.655 213.967c-8.364-37.828-29.022-67.192-58.428-83.276-28.446 51.791-43.577 110.74-42.618 171.122-5.771-1.961-11.418-4.258-16.912-6.877.025-7.507.285-15.03.782-22.562 3.067-46.479 14.968-91.384 35.372-133.466 2.489-5.134 5.091-10.195 7.801-15.18-24.435-8.646-51.651-8.205-78.854 1.232-5.53 1.918-11.061 4.209-16.566 6.871-13.073 6.319-25.45 14.45-36.883 24.134-.046-7.55.464-15.045 1.504-22.43 8.944-6.448 18.334-12.075 28.086-16.789 37.776-18.26 76.839-20.904 111.181-7.758 8.687-14.331 18.328-27.984 28.887-40.911-26.333-15.676-49.668-35.266-69.366-58.046 1.304-.491 2.618-.967 3.942-1.427 4.589-1.592 9.202-2.955 13.827-4.097 18.389 20.027 39.62 37 62.814 50.493 8.34-9.261 17.184-18.109 26.515-26.523 4.954-4.467 10.017-8.784 15.185-12.95 5.479 2.652 10.802 5.625 15.94 8.904-15.256 11.824-29.373 24.84-42.262 38.863 30.972 15.433 64.893 24.918 99.876 27.541 1.968 4.338 3.755 8.803 5.347 13.392.459 1.324.899 2.65 1.321 3.978-38.161-1.718-75.917-11.212-111.3-28.365-2.266-1.099-4.514-2.225-6.742-3.377-10.435 12.582-19.939 25.867-28.454 39.735 33.512 18.467 56.969 51.648 66.367 94.152 5.954 26.927 5.816 55.682-.138 84.218-5.361 2.584-10.926 4.888-16.685 6.886-.783.272-1.567.536-2.352.795 7.96-29.841 9.024-60.193 2.813-88.282z" fill="#c64b1a"/><path d="m143.024 250.244c-50.724 0-92.168-4.352-115.275-12.741-5.191-1.885-7.872-7.62-5.987-12.811 1.884-5.19 7.619-7.871 12.813-5.986 34.389 12.486 118.749 15.092 209.917 6.488 5.503-.524 10.376 3.517 10.896 9.015.519 5.498-3.518 10.376-9.016 10.895-36.576 3.452-71.765 5.14-103.348 5.14z" fill="#b3d1e1"/><path d="m385.775 179.122c-37.087 10.664-86.79 19.3-139.954 24.317-31.41 2.965-61.873 4.463-89.466 4.463-19.11 0-36.842-.718-52.566-2.165-45.657-4.202-67.629-13.653-69.148-29.744-1.405-14.878 15.429-27.451 52.805-39.278-.849 7.071-1.213 14.233-1.069 21.439-20.446 7.12-28.865 13.044-31.251 15.905 3.769 3.094 18.671 9.409 57.125 12.318 36.335 2.751 83.104 1.739 131.69-2.847 48.587-4.586 94.719-12.343 129.898-21.842 37.23-10.053 50.688-19.044 53.811-22.789-2.868-2.355-12.183-6.574-33.416-9.738-1.191-6.977-2.875-13.948-5.072-20.869 38.76 4.634 57.573 13.828 58.975 28.674 1.518 16.091-18.298 29.486-62.362 42.156z" fill="#fff5f5"/><path d="m366.539 430.061c-1.045 13.151-3.159 28.372-6.286 45.042-33.016 16.57-70.295 25.897-109.753 25.897-31.824 0-62.23-6.067-90.126-17.108-10.156-17.702-18.439-34.098-24.452-48.283-7.285-17.184 14.038-32.223 27.678-19.482 10.824 10.11 22.85 22.898 35.443 37.756-.273-8.609-.415-17.437-.415-26.43 0-48.062 4.051-91.392 10.54-121.922 3.886-18.287 29.939-18.309 33.827-.023 4.922 23.15 8.442 53.666 9.857 88.025.036.886 1.294 1.014 1.517.155 1.134-4.375 2.297-8.542 3.484-12.484 5.381-17.87 31.346-15.729 33.703 2.784.681 5.354 1.258 11.084 1.726 17.147.066.86 1.276.978 1.509.147.547-1.953 1.1-3.857 1.659-5.712 5.378-17.863 31.34-15.759 33.698 2.746.882 6.92 1.589 14.468 2.111 22.552.05.772 1.078 1.005 1.446.324.129-.238.258-.476.386-.713 8.898-16.368 33.924-8.991 32.448 9.582z" fill="#a95947"/><path d="m195.463 494.794c-12.06-2.768-23.781-6.426-35.089-10.902-10.181-17.747-18.48-34.18-24.498-48.39-5.416-12.79 4.962-24.309 16.261-24.164.073 2.072.537 4.235 1.469 6.436 9.147 21.601 23.567 48.341 41.857 77.02zm62.388-113.59c-1.187 3.942-2.35 8.109-3.484 12.484-.223.858-1.201 54.609 10.505 54.609 6.698 0 12.128-27.467 12.128-61.349 0-6.239-.184-12.26-.526-17.932-7.645-.899-15.856 2.998-18.623 12.188zm61.647 3.256c-.122 1.344-.255 2.698-.397 4.062-3.511 33.7-11.758 60.457-18.419 59.763-5.586-.582-8.284-20.282-6.94-46.499.389.16.903.009 1.046-.503.547-1.952 1.1-3.857 1.659-5.712 3.314-11.007 14.444-14.433 23.051-11.111zm-105.304-88.086c7.934 11.478 13.639 43.298 13.639 80.755 0 47.124-9.029 85.325-20.167 85.325-3.263 0-6.344-3.278-9.071-9.098.149.175.298.351.447.527-.273-8.609-.415-17.437-.415-26.43 0-48.062 4.051-91.393 10.54-121.922.823-3.871 2.639-6.923 5.027-9.157zm141.884 116.458c-4.096 25.645-10.741 44.098-16.288 43.52-4.73-.493-7.39-14.694-7.277-34.952.342.298.93.273 1.189-.208.129-.238.258-.476.386-.713 4.844-8.908 14.465-10.783 21.99-7.647z" fill="#954d3b"/><path d="m236.082 376.668c0 2.761-2.239 5-5 5h-10c-2.761 0-5-2.239-5-5s2.239-5 5-5h10c2.762 0 5 2.238 5 5zm-5-24.998h-10c-2.761 0-5 2.238-5 5 0 2.761 2.239 5 5 5h10c2.761 0 5-2.239 5-5 0-2.762-2.238-5-5-5zm-50.345 111.472-8.625 5.06c-2.382 1.397-3.18 4.461-1.782 6.842 1.397 2.382 4.461 3.179 6.843 1.782l8.625-5.06c2.382-1.397 3.18-4.461 1.782-6.842s-4.462-3.179-6.843-1.782zm-3.279-15.466c-1.397-2.382-4.461-3.179-6.843-1.782l-8.625 5.06c-2.382 1.397-3.18 4.461-1.782 6.842 1.397 2.382 4.461 3.179 6.843 1.783l8.625-5.06c2.382-1.398 3.18-4.461 1.782-6.843zm102.957-46.01h-10c-2.761 0-5 2.238-5 5 0 2.761 2.239 5 5 5h10c2.761 0 5-2.239 5-5 0-2.762-2.238-5-5-5zm0-19.999h-10c-2.761 0-5 2.238-5 5 0 2.761 2.239 5 5 5h10c2.761 0 5-2.239 5-5 0-2.762-2.238-5-5-5zm38.334 33.664h-10c-2.761 0-5 2.239-5 5s2.239 5 5 5h10c2.761 0 5-2.238 5-5 0-2.761-2.239-5-5-5zm0-19.998h-10c-2.761 0-5 2.239-5 5s2.239 5 5 5h10c2.761 0 5-2.238 5-5s-2.239-5-5-5zm38.3 28.02-9.674-2.531c-2.672-.699-5.404.9-6.103 3.572-.699 2.671.9 5.403 3.572 6.103l9.674 2.531c2.672.699 5.404-.9 6.103-3.571.699-2.673-.9-5.406-3.572-6.104z" fill="#7d402d"/><path d="m230.78 323.126h-9.395c-5.257 0-9.227-4.789-8.248-9.953.313-1.653.636-3.26.968-4.821 2.749-12.926 21.205-12.926 23.954 0 .332 1.561.655 3.169.968 4.821.98 5.164-2.99 9.953-8.247 9.953zm-69.157 98.914c-9.649-9.03-24.788 1.525-19.649 13.7.62 1.47 1.275 2.973 1.964 4.508 2.151 4.796 8.146 6.454 12.459 3.447l7.707-5.374c4.312-3.007 4.83-9.205 1.072-12.881-1.203-1.175-2.388-2.309-3.553-3.4z" fill="#e1a595"/></g></svg>