<svg height="512" viewBox="0 0 501 501" width="512" xmlns="http://www.w3.org/2000/svg"><path d="M500.999 251.206c-.11 38.86-9.266 75.593-25.475 108.202-30.414 0-55.07 24.656-55.07 55.07v17.629c-44.028 39.894-102.627 64-166.862 63.382-135.33-1.3-244.475-113.191-242.567-248.514C12.911 113.234 121.958 5.41 256.168 5.5c33.237.022 65.187 6.689 94.128 18.804.3.125 87.568 62.026 87.568 62.026 39.294 43.651 63.313 101.747 63.135 164.876z" fill="#172a7d"/><path d="M150 39.304V79.5c0 8.284-6.716 15-15 15H69.862c-8.284 0-15-6.716-15-15V39.304c0-8.284 6.716-15 15-15H135c8.284 0 15 6.716 15 15z" fill="#f5dc90"/><path d="M437.436 85.858c.461.508.505 1.263.129 1.837C434.887 91.793 430.26 94.5 425 94.5H115c-8.284 0-15-6.716-15-15V39.304c0-8.284 6.716-15 15-15h235.296c33.449 13.961 63.142 35.125 87.14 61.554zM65 93.694c1.525.522 3.16.806 4.862.806H85V24.304H69.862c-1.702 0-3.337.284-4.862.806z" fill="#f7e6b0"/><path d="M118 104.304H98v-80h20zm264 0h-20V29.555a244.366 244.366 0 0120 10.785zm-33-80h-20v80h20zm46 24.417v55.583h20V64.097a245.777 245.777 0 00-20-15.376zM250 24.304h-20v80h20zm-33 80h-20v-80h20zm-33 0h-20v-80h20zm-33 0h-20v-80h20zm165 0h-20v-80h20zm-33 0h-20v-80h20z" fill="#f9eecf"/><path d="M428.059 424.915a245.901 245.901 0 01-7.605 7.191l-143.247 42.009c-5.598 1.642-11.327-2.151-12-7.946L241 257.992l-24.207 208.177c-.674 5.795-6.402 9.588-12 7.946l-153.85-45.119L92.402 72.452H391s39.347 350.206 37.059 352.463z" fill="#fd7d43"/><path d="M53.384 429.712L6.766 416.041a9.415 9.415 0 01-6.677-10.32L44.93 80.58a9.415 9.415 0 019.326-8.128h40.67z" fill="#f5f0eb"/><path d="M17.557 419.206l-10.792-3.165a9.415 9.415 0 01-6.677-10.32L44.93 80.58a9.415 9.415 0 019.326-8.128h11.123z" fill="#f7e6b0"/><path d="M428.059 424.916L387.074 72.452h37.223a246.674 246.674 0 0113.566 13.878l33.598 243.619c2.931 21.254-2.078 42.913-14.349 60.512a246.243 246.243 0 01-29.053 34.455z" fill="#f5f0eb"/><path d="M94.524 72.452H145v51.221c0 29.33-21.205 54.362-50.136 59.184l-13.283 2.214c-3.445.574-6.581-2.082-6.581-5.575v-87.52c0-10.783 8.741-19.524 19.524-19.524zm292.848 0H337v51.221c0 29.33 21.205 54.362 50.136 59.184l14.535 2.422a4.72 4.72 0 005.495-4.655V92.247c.001-10.933-8.862-19.795-19.794-19.795zm-138.808 140.54L322.1 460.95l-44.893 13.166c-5.598 1.642-11.327-2.151-12-7.946l-19.24-165.464c-.686-5.897-9.247-5.897-9.933 0l-19.24 165.464c-.674 5.795-6.402 9.588-12.001 7.946L159.9 460.95l73.536-247.958a7.889 7.889 0 0115.128 0z" fill="#f16b38"/><path d="M54.256 72.452h40.67l-13.09 112.576-52.517 8.753L44.93 80.58a9.415 9.415 0 019.326-8.128zM437.863 86.33a246.336 246.336 0 00-13.566-13.878h-37.223l13.09 112.576 52.517 8.753z" fill="#fbc56d"/><path d="M125 312v93.571c0 4.142-3.357 7.5-7.5 7.5s-7.5-3.358-7.5-7.5V319.5H97.5c-4.143 0-7.5-3.358-7.5-7.5s3.357-7.5 7.5-7.5h20a7.5 7.5 0 017.5 7.5z" fill="#f5f0eb"/><path d="M402.167 388.786H370a5 5 0 01-5-5v-50a5 5 0 015-5h32.167a5 5 0 015 5v50a5 5 0 01-5 5z" fill="#c64b1a"/><path d="M458.271 388.786H400a5 5 0 01-5-5v-50a5 5 0 015-5h71.301l4.223 30.622a244.883 244.883 0 01-17.253 29.378z" fill="#fc5426"/><path d="M467.5 370.786c.628 0 1.201.232 1.641.614a244.229 244.229 0 01-4.064 6.886H442.5a2.5 2.5 0 01-2.5-2.5v-2.5a2.5 2.5 0 012.5-2.5zm-25-23.25h31.386l-1.034-7.5H442.5a2.5 2.5 0 00-2.5 2.5v2.5a2.5 2.5 0 002.5 2.5zm-16.25-11.25h-2.5a2.5 2.5 0 00-2.5 2.5v40a2.5 2.5 0 002.5 2.5h2.5a2.5 2.5 0 002.5-2.5v-40a2.5 2.5 0 00-2.5-2.5zm48.671 18.75H442.5a2.5 2.5 0 00-2.5 2.5v2.5a2.5 2.5 0 002.5 2.5h31.441a241.044 241.044 0 001.583-3.128z" fill="#c64b1a"/><path d="M395.642 340.939l5.408 9.889a2 2 0 00.795.795l9.889 5.408c1.387.759 1.387 2.751 0 3.509l-9.889 5.408a1.994 1.994 0 00-.795.795l-5.408 9.889c-.759 1.387-2.751 1.387-3.509 0l-5.408-9.889a1.994 1.994 0 00-.795-.795l-9.889-5.408c-1.387-.759-1.387-2.751 0-3.509l9.889-5.408a2 2 0 00.795-.795l5.408-9.889c.758-1.388 2.751-1.388 3.509 0z" fill="#fcf498"/></svg>