<svg id="Capa_1" enable-background="new 0 0 501 501" height="512" viewBox="0 0 501 501" width="512" xmlns="http://www.w3.org/2000/svg"><g><path d="m500.999 251.206c-.11 38.86-9.266 75.593-25.475 108.202-30.414 0-55.07 24.656-55.07 55.07v17.629c-44.028 39.894-102.627 64-166.862 63.382-135.33-1.3-244.475-113.191-242.567-248.514 1.886-133.741 110.933-241.565 245.143-241.475 33.237.022 65.187 6.689 94.128 18.804.3.125 87.568 62.026 87.568 62.026 39.294 43.651 63.313 101.747 63.135 164.876z" fill="#172a7d"/><path d="m150 39.304v40.196c0 8.284-6.716 15-15 15h-65.138c-8.284 0-15-6.716-15-15v-40.196c0-8.284 6.716-15 15-15h65.138c8.284 0 15 6.716 15 15z" fill="#f5dc90"/><path d="m437.436 85.858c.461.508.505 1.263.129 1.837-2.678 4.098-7.305 6.805-12.565 6.805h-310c-8.284 0-15-6.716-15-15v-40.196c0-8.284 6.716-15 15-15h190 .01 45.286c33.449 13.961 63.142 35.125 87.14 61.554z" fill="#f7e6b0"/><path d="m65 93.694c1.525.522 3.16.806 4.862.806h15.138v-70.196h-15.138c-1.702 0-3.337.284-4.862.806z" fill="#f7e6b0"/><path d="m118 104.304h-20v-80h20zm264 0h-20v-74.749c6.85 3.292 13.522 6.893 20 10.785zm-33-80h-20v80h20zm46 24.417v55.583h20v-40.207c-6.391-5.457-13.066-10.591-20-15.376zm-145-24.417h-20v80h20zm-33 80h-20v-80h20zm-33 0h-20v-80h20zm-33 0h-20v-80h20zm165 0h-20v-80h20zm-33 0h-20v-80h20z" fill="#f9eecf"/><path d="m428.059 424.915c-2.483 2.45-5.019 4.848-7.605 7.191l-143.247 42.009c-5.598 1.642-11.327-2.151-12-7.946l-24.207-208.177-24.207 208.177c-.674 5.795-6.402 9.588-12 7.946l-153.85-45.119 41.459-356.544h298.598s39.347 350.206 37.059 352.463z" fill="#fd7d43"/><path d="m53.384 429.712-46.618-13.671c-4.474-1.312-7.313-5.701-6.677-10.32l44.841-325.141c.643-4.658 4.624-8.128 9.326-8.128h40.67z" fill="#f5f0eb"/><path d="m17.557 419.206-10.792-3.165c-4.474-1.312-7.313-5.701-6.677-10.32l44.842-325.141c.643-4.658 4.624-8.128 9.326-8.128h11.123z" fill="#f7e6b0"/><path d="m428.059 424.916-40.985-352.464h37.223c4.702 4.446 9.228 9.076 13.566 13.878l33.598 243.619c2.931 21.254-2.078 42.913-14.349 60.512-8.621 12.366-18.354 23.899-29.053 34.455z" fill="#f5f0eb"/><path d="m94.524 72.452h50.476v51.221c0 29.33-21.205 54.362-50.136 59.184l-13.283 2.214c-3.445.574-6.581-2.082-6.581-5.575v-87.52c0-10.783 8.741-19.524 19.524-19.524zm292.848 0h-50.372v51.221c0 29.33 21.205 54.362 50.136 59.184l14.535 2.422c2.877.479 5.495-1.739 5.495-4.655v-88.377c.001-10.933-8.862-19.795-19.794-19.795zm-138.808 140.54 73.536 247.958-44.893 13.166c-5.598 1.642-11.327-2.151-12-7.946l-19.24-165.464c-.686-5.897-9.247-5.897-9.933 0l-19.24 165.464c-.674 5.795-6.402 9.588-12.001 7.946l-44.893-13.166 73.536-247.958c.993-3.349 4.07-5.646 7.564-5.646 3.493 0 6.57 2.297 7.564 5.646z" fill="#f16b38"/><path d="m54.256 72.452h40.67l-13.09 112.576-52.517 8.753 15.611-113.201c.643-4.658 4.624-8.128 9.326-8.128zm383.607 13.878c-4.338-4.803-8.864-9.432-13.566-13.878h-37.223l13.09 112.576 52.517 8.753z" fill="#fbc56d"/><path d="m125 312v93.571c0 4.142-3.357 7.5-7.5 7.5s-7.5-3.358-7.5-7.5v-86.071h-12.5c-4.143 0-7.5-3.358-7.5-7.5s3.357-7.5 7.5-7.5h20c4.143 0 7.5 3.358 7.5 7.5z" fill="#f5f0eb"/><path d="m402.167 388.786h-32.167c-2.761 0-5-2.239-5-5v-50c0-2.761 2.239-5 5-5h32.167c2.761 0 5 2.239 5 5v50c0 2.761-2.239 5-5 5z" fill="#c64b1a"/><path d="m458.271 388.786h-58.271c-2.761 0-5-2.239-5-5v-50c0-2.761 2.239-5 5-5h71.301l4.223 30.622c-5.079 10.218-10.851 20.031-17.253 29.378z" fill="#fc5426"/><path d="m467.5 370.786c.628 0 1.201.232 1.641.614-1.318 2.319-2.673 4.615-4.064 6.886h-22.577c-1.381 0-2.5-1.12-2.5-2.5v-2.5c0-1.381 1.119-2.5 2.5-2.5zm-25-23.25h31.386l-1.034-7.5h-30.352c-1.381 0-2.5 1.119-2.5 2.5v2.5c0 1.38 1.119 2.5 2.5 2.5zm-16.25-11.25h-2.5c-1.381 0-2.5 1.119-2.5 2.5v40c0 1.38 1.119 2.5 2.5 2.5h2.5c1.381 0 2.5-1.12 2.5-2.5v-40c0-1.381-1.119-2.5-2.5-2.5zm48.671 18.75h-32.421c-1.381 0-2.5 1.119-2.5 2.5v2.5c0 1.38 1.119 2.5 2.5 2.5h31.441c.535-1.039 1.063-2.081 1.583-3.128z" fill="#c64b1a"/><path d="m395.642 340.939 5.408 9.889c.184.336.459.611.795.795l9.889 5.408c1.387.759 1.387 2.751 0 3.509l-9.889 5.408c-.336.184-.612.459-.795.795l-5.408 9.889c-.759 1.387-2.751 1.387-3.509 0l-5.408-9.889c-.184-.336-.459-.612-.795-.795l-9.889-5.408c-1.387-.759-1.387-2.751 0-3.509l9.889-5.408c.336-.184.611-.459.795-.795l5.408-9.889c.758-1.388 2.751-1.388 3.509 0z" fill="#fcf498"/></g></svg>