<svg id="svg8" height="512" viewBox="0 0 16.933333 16.933333" width="512" xmlns="http://www.w3.org/2000/svg" xmlns:svg="http://www.w3.org/2000/svg"><g id="layer2"><path id="path2150" d="m13.260728.4328167-12.32225071 12.3243123c-.0348.03499-.0592.07902-.0703.127124l-.86143998 3.726388c-.0433.190645.12796.360803.31831999.316259l3.7248398-.859379c.0487-.01084.0933-.0352.1286701-.07028l12.3222508-12.3237954c.57673-.576726.57673-1.5172029 0-2.0939289l-1.14618-1.1467c-.57928-.57928098-1.51706-.57684698-2.09391 0zm1.72083.37517101 1.1467 1.14669999c.3759.3759039.3759.96975 0 1.3456539l-.67283.6728272-2.49236-2.4923541.67283-.67282699c.38925-.38924599.99019-.35546198 1.34566 0zm-2.39314 1.04748099 2.49236 2.4918378-1.05782 1.0583331-2.49236-2.4923541zm-1.43195 1.4319541 2.49235 2.4923548-9.2407806 9.2407794-.1550302-.97255c-.020601-.128412-.1314299-.222829-.26148-.222726h-.88109v-.880566c.0002-.130917-.0954-.2423-.22479-.262l-.9699699-.154512zm-.379831 1.5027507-6.9220598 6.9220585c-.2603198.248656.1230202.634112.3731102.375171l6.9220606-6.9220583c.25059-.2505932-.12632-.621952-.373111-.3751712zm.935351.9358601-6.9220608 6.9215414c-.2603101.248656.1230101.634104.3731001.375171l6.9220607-6.9220585c.24971-.2497108-.12273-.6250199-.3731-.3746539zm-10.2577807 7.2636394 1.12707.179834v.921908c.0005794.145313.1182299.262968.2635499.26355h.9198401l.1819 1.127063-.0879.08785-1.1446399.26355-1.6123-1.612304.26458-1.1436zm-.49299 1.840715 1.14257 1.143082-1.48569999.342098z" font-variant-ligatures="normal" font-variant-position="normal" font-variant-caps="normal" font-variant-numeric="normal" font-variant-alternates="normal" font-feature-settings="normal" text-indent="0" text-align="start" text-decoration-line="none" text-decoration-style="solid" text-decoration-color="rgb(0,0,0)" text-transform="none" text-orientation="mixed" white-space="normal" shape-padding="0" isolation="auto" mix-blend-mode="normal" solid-color="rgb(0,0,0)" solid-opacity="1" vector-effect="none"/></g></svg>