<svg id="Layer_1" enable-background="new 0 0 64 64" height="512" viewBox="0 0 64 64" width="512" xmlns="http://www.w3.org/2000/svg"><path d="m24.929 40.071c-.256 0-.512-.098-.707-.293-.391-.391-.391-1.023 0-1.414l14.143-14.143c.391-.391 1.023-.391 1.414 0s.391 1.023 0 1.414l-14.143 14.143c-.196.196-.451.293-.707.293z"/><path d="m31.203 42.968c-.061 0-.121-.005-.183-.017-.543-.101-.902-.622-.802-1.165.422-2.282-.272-4.59-1.904-6.332-1.631-1.741-3.888-2.589-6.196-2.312-.556.068-1.045-.328-1.11-.876-.064-.548.327-1.046.876-1.11 2.945-.348 5.819.721 7.891 2.931 2.07 2.21 2.949 5.148 2.411 8.063-.089.481-.51.818-.983.818z"/><path d="m40.467 32.34c-2.338 0-4.598-.895-6.381-2.567-2.21-2.071-3.278-4.947-2.93-7.889.065-.549.555-.943 1.11-.876.549.065.94.563.876 1.11-.273 2.305.569 4.563 2.311 6.195 1.741 1.632 4.051 2.327 6.333 1.905.551-.104 1.065.26 1.165.802.101.543-.259 1.064-.802 1.165-.561.104-1.125.155-1.682.155z"/><path d="m32.026 42.997c-4.225 0-8.232-2.454-10.049-6.461-1.99-4.395-.84-9.672 2.798-12.834 3.729-3.239 9.201-3.595 13.312-.867 3.957 2.626 5.8 7.649 4.481 12.216-.153.531-.706.836-1.238.684-.53-.153-.837-.708-.684-1.238 1.079-3.736-.428-7.847-3.665-9.995-3.31-2.197-7.892-1.897-10.894.711-2.976 2.586-3.917 6.903-2.288 10.499 1.819 4.015 6.552 6.171 10.771 4.914.529-.159 1.087.143 1.244.672.158.529-.143 1.086-.672 1.244-1.031.308-2.079.455-3.116.455z"/><path d="m38.364 40.714c-.288 0-.574-.124-.772-.363-.352-.426-.291-1.057.135-1.408.465-.384.891-.813 1.266-1.275.349-.429.978-.496 1.406-.148.43.348.496.978.148 1.406-.459.567-.979 1.092-1.547 1.561-.187.152-.412.227-.636.227z"/><path d="m18.211 46.789c-.256 0-.512-.098-.707-.293-7.993-7.993-7.993-20.999 0-28.992.391-.391 1.023-.391 1.414 0s.391 1.023 0 1.414c-3.494 3.494-5.419 8.141-5.419 13.082s1.925 9.588 5.419 13.082c.391.391.391 1.023 0 1.414-.195.195-.451.293-.707.293z"/><path d="m21.394 43.606c-.256 0-.512-.098-.707-.293-3.023-3.021-4.687-7.04-4.687-11.313s1.664-8.292 4.687-11.313c.391-.391 1.023-.391 1.414 0s.391 1.023 0 1.414c-2.645 2.644-4.101 6.16-4.101 9.899s1.456 7.255 4.101 9.899c.391.391.391 1.023 0 1.414-.196.196-.452.293-.707.293z"/><path d="m15.029 49.971c-.256 0-.512-.098-.707-.293-9.747-9.747-9.747-25.608 0-35.355.391-.391 1.023-.391 1.414 0s.391 1.023 0 1.414c-8.967 8.968-8.967 23.56 0 32.527.391.391.391 1.023 0 1.414-.195.195-.451.293-.707.293z"/><path d="m48.971 49.971c-.256 0-.512-.098-.707-.293-.391-.391-.391-1.023 0-1.414 8.967-8.968 8.967-23.56 0-32.527-.391-.391-.391-1.023 0-1.414s1.023-.391 1.414 0c9.747 9.747 9.747 25.608 0 35.355-.196.195-.451.293-.707.293z"/><path d="m42.606 43.606c-.256 0-.512-.098-.707-.293-.391-.391-.391-1.023 0-1.414 2.645-2.644 4.101-6.16 4.101-9.899s-1.456-7.255-4.101-9.899c-.391-.391-.391-1.023 0-1.414s1.023-.391 1.414 0c3.023 3.021 4.687 7.04 4.687 11.313s-1.664 8.292-4.687 11.313c-.195.196-.451.293-.707.293z"/><path d="m45.789 46.789c-.256 0-.512-.098-.707-.293-.391-.391-.391-1.023 0-1.414 3.494-3.494 5.419-8.141 5.419-13.082s-1.925-9.588-5.419-13.082c-.391-.391-.391-1.023 0-1.414s1.023-.391 1.414 0c7.993 7.993 7.993 20.999 0 28.992-.195.195-.451.293-.707.293z"/><path d="m39.071 40.071c-.256 0-.512-.098-.707-.293l-14.142-14.142c-.391-.391-.391-1.023 0-1.414s1.023-.391 1.414 0l14.143 14.143c.391.391.391 1.023 0 1.414-.196.195-.452.292-.708.292z"/></svg>