<svg id="Layer_1" enable-background="new 0 0 64 64" height="512" viewBox="0 0 64 64" width="512" xmlns="http://www.w3.org/2000/svg"><path d="m46 25h-28c-.553 0-1-.448-1-1s.447-1 1-1h28c.553 0 1 .448 1 1s-.447 1-1 1z"/><path d="m18 45h-7c-.553 0-1-.448-1-1s.447-1 1-1h7c.553 0 1 .448 1 1s-.447 1-1 1z"/><path d="m25 45h-7c-.553 0-1-.448-1-1s.447-1 1-1h7c.553 0 1 .448 1 1s-.447 1-1 1z"/><path d="m56 57h-6c-.553 0-1-.448-1-1v-6c0-.552.447-1 1-1h6c.553 0 1 .448 1 1v6c0 .552-.447 1-1 1zm-5-2h4v-4h-4z"/><path d="m42 57h-6c-.553 0-1-.448-1-1v-6c0-.552.447-1 1-1h6c.553 0 1 .448 1 1v6c0 .552-.447 1-1 1zm-5-2h4v-4h-4z"/><path d="m53 45h-14c-.553 0-1-.448-1-1s.447-1 1-1h14c.553 0 1 .448 1 1s-.447 1-1 1z"/><path d="m46 45c-.553 0-1-.448-1-1v-6c0-.552.447-1 1-1s1 .448 1 1v6c0 .552-.447 1-1 1z"/><path d="m39 51c-.553 0-1-.448-1-1v-6c0-.552.447-1 1-1s1 .448 1 1v6c0 .552-.447 1-1 1z"/><path d="m53 51c-.553 0-1-.448-1-1v-6c0-.552.447-1 1-1s1 .448 1 1v6c0 .552-.447 1-1 1z"/><path d="m11 51c-.553 0-1-.448-1-1v-6c0-.552.447-1 1-1s1 .448 1 1v6c0 .552-.447 1-1 1z"/><path d="m25 51c-.553 0-1-.448-1-1v-6c0-.552.447-1 1-1s1 .448 1 1v6c0 .552-.447 1-1 1z"/><path d="m18 45c-.553 0-1-.448-1-1v-6c0-.552.447-1 1-1s1 .448 1 1v6c0 .552-.447 1-1 1z"/><path d="m14 57h-6c-.553 0-1-.448-1-1v-6c0-.552.447-1 1-1h6c.553 0 1 .448 1 1v6c0 .552-.447 1-1 1zm-5-2h4v-4h-4z"/><path d="m18 31c-.553 0-1-.448-1-1v-6c0-.552.447-1 1-1s1 .448 1 1v6c0 .552-.447 1-1 1z"/><path d="m46 31c-.553 0-1-.448-1-1v-6c0-.552.447-1 1-1s1 .448 1 1v6c0 .552-.447 1-1 1z"/><path d="m32 25c-.553 0-1-.448-1-1v-6c0-.552.447-1 1-1s1 .448 1 1v6c0 .552-.447 1-1 1z"/><path d="m50 39h-8c-.553 0-1-.448-1-1v-8c0-.552.447-1 1-1h8c.553 0 1 .448 1 1v8c0 .552-.447 1-1 1zm-7-2h6v-6h-6z"/><path d="m37 19h-10c-.553 0-1-.448-1-1v-10c0-.552.447-1 1-1h10c.553 0 1 .448 1 1v10c0 .552-.447 1-1 1zm-9-2h8v-8h-8z"/><path d="m22 39h-8c-.553 0-1-.448-1-1v-8c0-.552.447-1 1-1h8c.553 0 1 .448 1 1v8c0 .552-.447 1-1 1zm-7-2h6v-6h-6z"/><path d="m28 57h-6c-.553 0-1-.448-1-1v-6c0-.552.447-1 1-1h6c.553 0 1 .448 1 1v6c0 .552-.447 1-1 1zm-5-2h4v-4h-4z"/></svg>