<?xml version="1.0" encoding="iso-8859-1"?>
<!-- Generator: Adobe Illustrator 19.0.0, SVG Export Plug-In . SVG Version: 6.00 Build 0)  -->
<svg version="1.1" id="Capa_1" xmlns="http://www.w3.org/2000/svg" xmlns:xlink="http://www.w3.org/1999/xlink" x="0px" y="0px"
	 viewBox="0 0 512 512" style="enable-background:new 0 0 512 512;" xml:space="preserve">
<path style="fill:#FF4C4C;" d="M256.921,168.842V7.601L442,85.689c2.24,0.945,2.24,4.12,0,5.065L256.921,168.842z"/>
<path style="fill:#EA2828;" d="M442.001,85.689L401.65,68.665l-144.73,61.063v39.114L442,90.754
	C444.241,89.809,444.241,86.634,442.001,85.689z"/>
<path style="fill:#2D5872;" d="M256.921,322.27c-4.195,0-7.597-3.401-7.597-7.597V7.597c0-4.196,3.401-7.597,7.597-7.597
	s7.597,3.401,7.597,7.597v307.077C264.517,318.869,261.116,322.27,256.921,322.27z"/>
<path style="fill:#B9BBC1;" d="M503.456,342.848h-162.88v-42.426c0-3.464-2.808-6.272-6.272-6.272H177.695
	c-3.464,0-6.272,2.808-6.272,6.272v42.426H8.543c-3.464,0-6.272,2.808-6.272,6.272v156.608c0,3.464,2.808,6.272,6.272,6.272h162.88
	h169.152h162.88c3.464,0,6.272-2.808,6.272-6.272V349.12C509.728,345.656,506.92,342.848,503.456,342.848z"/>
<g>
	<path style="fill:#A0A3AA;" d="M503.456,342.848h-31.185V512l0,0h31.186c3.464,0,6.272-2.808,6.272-6.272V349.12
		C509.728,345.656,506.92,342.848,503.456,342.848z"/>
	<polygon style="fill:#A0A3AA;" points="171.423,342.848 133.965,342.848 133.965,512 133.965,512 171.423,512 	"/>
</g>
<path style="fill:#B9BBC1;" d="M340.576,512H171.423V300.422c0-3.464,2.808-6.272,6.272-6.272h156.608
	c3.464,0,6.272,2.808,6.272,6.272L340.576,512L340.576,512z"/>
<path style="fill:#A0A3AA;" d="M334.303,294.15h-29.873V512h36.145V300.422C340.576,296.958,337.768,294.15,334.303,294.15z"/>
<path style="fill:#FED130;" d="M84.341,485.059c-31.78,0-57.635-25.855-57.635-57.635c0-31.781,25.855-57.636,57.635-57.636h0.849
	c31.78,0,57.635,25.855,57.635,57.636c0,31.78-25.855,57.635-57.635,57.635L84.341,485.059L84.341,485.059z"/>
<path style="fill:#F7BC14;" d="M85.19,369.788h-0.849c-5.467,0-10.751,0.781-15.766,2.21c22.948,7.968,39.469,29.8,39.469,55.426
	s-16.521,47.457-39.469,55.425c5.015,1.429,10.299,2.21,15.766,2.21h0.849c31.78,0,57.635-25.855,57.635-57.635
	C142.826,395.643,116.97,369.788,85.19,369.788z"/>
<path style="fill:#FED130;" d="M256.505,460.711c-31.781,0-57.636-25.855-57.636-57.636c0-31.78,25.855-57.635,57.636-57.635h0.848
	c31.78,0,57.635,25.855,57.635,57.635c0,31.781-25.855,57.636-57.635,57.636H256.505z"/>
<path style="fill:#F7BC14;" d="M257.354,345.44h-0.848c-5.538,0-10.889,0.801-15.961,2.265c22.871,8.01,39.322,29.799,39.322,55.37
	s-16.452,47.36-39.323,55.37c5.073,1.465,10.424,2.266,15.961,2.266h0.848c31.78,0,57.635-25.855,57.635-57.636
	C314.989,371.295,289.134,345.44,257.354,345.44z"/>
<path style="fill:#FED130;" d="M426.809,485.059c-31.78,0-57.635-25.855-57.635-57.635c0-31.781,25.855-57.636,57.635-57.636h0.849
	c31.78,0,57.635,25.855,57.635,57.636c0,31.78-25.855,57.635-57.635,57.635L426.809,485.059L426.809,485.059z"/>
<path style="fill:#F7BC14;" d="M427.659,369.788h-0.849c-5.52,0-10.854,0.796-15.912,2.252c22.89,7.999,39.359,29.8,39.359,55.384
	c0,25.585-16.469,47.384-39.359,55.383c5.058,1.456,10.392,2.252,15.912,2.252h0.849c31.78,0,57.635-25.855,57.635-57.635
	C485.294,395.643,459.439,369.788,427.659,369.788z"/>
<g>
	<path style="fill:#2D5872;" d="M427.777,459.748c11.602,0,21.095-5.362,21.095-19.513v-1.67c0-7.295-3.78-11.251-8.965-13.272
		c4.307-2.021,6.856-7.647,6.856-14.591c0-11.69-7.911-15.733-18.546-15.733c-14.855,0-19.249,9.053-19.249,15.294
		c0,3.692,0.791,4.923,5.889,4.923c4.219,0,5.45-1.758,5.45-4.395c0-3.516,2.109-5.889,7.823-5.889c4.746,0,7.735,1.934,7.735,7.735
		c0,7.559-3.691,8.613-8.086,8.613c-2.549,0-3.428,2.286-3.428,4.483c0,2.285,0.879,4.483,3.428,4.483
		c5.625,0,9.669,1.846,9.669,8.35v1.67c0,6.68-2.813,9.492-9.405,9.492c-5.625,0-9.141-2.461-9.141-6.416
		c0-2.813-1.23-4.043-5.889-4.043c-3.955,0-5.45,0.967-5.45,4.483C407.561,450.87,413.362,459.748,427.777,459.748z"/>
	<path style="fill:#2D5872;" d="M69.823,459.484h31.291c1.934,0,3.604-2.461,3.604-5.098s-1.67-4.922-3.604-4.922H76.679v-2.11
		c0-9.141,27.863-15.294,27.863-34.279c0-11.163-9.493-17.843-19.689-17.843c-9.757,0-18.898,6.153-18.898,16.173
		c0,4.746,2.197,6.153,5.186,6.153c3.78,0,5.977-2.109,5.977-4.219c0-5.45,3.516-7.735,7.823-7.735c5.801,0,8.174,4.219,8.174,7.823
		c0,12.394-28.303,19.865-28.303,33.928v8.526C64.813,458.078,67.801,459.484,69.823,459.484z"/>
	<path style="fill:#2D5872;" d="M247.029,385.678c0.615,0,1.406-0.176,2.109-0.791l2.813-2.813v46.936
		c0,2.373,2.813,3.604,5.713,3.604c2.813,0,5.713-1.231,5.713-3.604v-57.132c0-2.286-2.725-3.692-5.098-3.692
		c-0.967,0-1.758,0.352-2.374,0.879l-10.372,7.911c-1.406,0.879-2.197,2.549-2.197,4.131
		C243.337,383.392,244.831,385.678,247.029,385.678z"/>
</g>
<g>
</g>
<g>
</g>
<g>
</g>
<g>
</g>
<g>
</g>
<g>
</g>
<g>
</g>
<g>
</g>
<g>
</g>
<g>
</g>
<g>
</g>
<g>
</g>
<g>
</g>
<g>
</g>
<g>
</g>
</svg>
