<?xml version="1.0" encoding="iso-8859-1"?>
<!-- Generator: Adobe Illustrator 19.0.0, SVG Export Plug-In . SVG Version: 6.00 Build 0)  -->
<svg version="1.1" id="Capa_1" xmlns="http://www.w3.org/2000/svg" xmlns:xlink="http://www.w3.org/1999/xlink" x="0px" y="0px"
	 viewBox="0 0 512.002 512.002" style="enable-background:new 0 0 512.002 512.002;" xml:space="preserve">
<path style="fill:#10C4C4;" d="M508.329,334.041H3.672c-2.409,0-4.165-2.282-3.547-4.611l19.235-72.489
	c0.164-0.617,0.164-1.266,0-1.882L0.126,182.57c-0.618-2.329,1.138-4.611,3.547-4.611H508.33c2.409,0,4.165,2.282,3.547,4.611
	l-19.235,72.489c-0.164,0.617-0.164,1.266,0,1.882l19.235,72.489C512.494,331.759,510.739,334.041,508.329,334.041z"/>
<path style="fill:#04AFAF;" d="M492.641,256.941c-0.164-0.617-0.164-1.266,0-1.882l19.235-72.489
	c0.618-2.328-1.138-4.611-3.547-4.611h-32.462L455.16,256l20.708,78.041h32.462c2.409,0,4.165-2.282,3.547-4.611L492.641,256.941z"
	/>
<path style="fill:#FFB125;" d="M401.517,144.171L401.517,144.171c0.712,12.252,7.646,23.287,18.375,29.244l0,0
	c15.895,8.825,22.66,28.157,15.735,44.968l0,0c-4.674,11.347-3.215,24.298,3.867,34.32l0,0c10.492,14.848,8.199,35.201-5.334,47.342
	l0,0c-9.135,8.195-13.439,20.496-11.407,32.6l0,0c3.011,17.93-7.886,35.272-25.347,40.339l0,0
	c-11.786,3.42-21.001,12.636-24.422,24.422l0,0c-5.067,17.461-22.409,28.357-40.339,25.347l0,0
	c-12.103-2.032-24.404,2.272-32.6,11.407l0,0c-12.141,13.533-32.494,15.826-47.342,5.334l0,0
	c-10.023-7.082-22.973-8.541-34.32-3.867l0,0c-16.81,6.925-36.142,0.16-44.968-15.735l0,0c-5.957-10.73-16.992-17.663-29.244-18.375
	l0,0c-18.15-1.055-32.633-15.537-33.687-33.687l0,0c-0.712-12.252-7.646-23.287-18.375-29.244l0,0
	c-15.895-8.825-22.66-28.157-15.735-44.968l0,0c4.674-11.347,3.215-24.298-3.867-34.32l0,0
	c-10.492-14.848-8.199-35.201,5.334-47.342l0,0c9.135-8.195,13.439-20.496,11.407-32.6l0,0c-3.011-17.93,7.886-35.272,25.347-40.339
	l0,0c11.786-3.42,21.002-12.636,24.422-24.422l0,0c5.067-17.461,22.409-28.357,40.339-25.347l0,0
	c12.103,2.032,24.404-2.272,32.6-11.407l0,0c12.141-13.533,32.494-15.826,47.342-5.334l0,0c10.023,7.082,22.973,8.541,34.32,3.867
	l0,0c16.81-6.925,36.142-0.16,44.968,15.735l0,0c5.957,10.73,16.992,17.663,29.244,18.375l0,0
	C385.98,111.538,400.463,126.021,401.517,144.171z"/>
<path style="fill:#FF901D;" d="M439.494,252.703L439.494,252.703c-7.082-10.023-8.541-22.973-3.867-34.321l0,0
	c6.925-16.81,0.16-36.142-15.735-44.968l0,0c-10.73-5.957-17.663-16.992-18.375-29.244l0,0
	c-1.055-18.15-15.537-32.633-33.687-33.687l0,0c-12.252-0.712-23.287-7.646-29.244-18.375l0,0
	c-8.825-15.895-28.157-22.66-44.968-15.735l0,0c-4.205,1.732-8.63,2.617-13.044,2.691c5.04,3.126,9.362,7.535,12.42,13.044l0,0
	c5.957,10.73,16.992,17.663,29.244,18.375l0,0c18.15,1.055,32.633,15.537,33.687,33.687l0,0
	c0.712,12.252,7.646,23.287,18.375,29.244l0,0c15.895,8.825,22.66,28.157,15.735,44.968l0,0
	c-4.675,11.347-3.215,24.298,3.867,34.321l0,0c10.492,14.848,8.199,35.2-5.334,47.342l0,0c-9.135,8.196-13.439,20.496-11.407,32.6
	l0,0c3.011,17.93-7.886,35.272-25.347,40.339l0,0c-11.786,3.42-21.002,12.636-24.422,24.422l0,0
	c-5.067,17.461-22.409,28.357-40.339,25.347l0,0c-12.103-2.032-24.404,2.272-32.599,11.407l0,0
	c-1.264,1.409-2.621,2.688-4.048,3.852c0.779,0.466,1.549,0.953,2.298,1.482l0,0c14.848,10.492,35.201,8.199,47.342-5.334l0,0
	c8.195-9.135,20.496-13.439,32.599-11.407l0,0c17.93,3.011,35.272-7.886,40.339-25.347l0,0c3.42-11.786,12.636-21.001,24.422-24.422
	l0,0c17.461-5.067,28.357-22.409,25.347-40.339l0,0c-2.032-12.103,2.272-24.404,11.407-32.6l0,0
	C447.693,287.904,449.986,267.551,439.494,252.703z"/>
<circle style="fill:#E1EFFB;" cx="256.001" cy="256" r="146.51"/>
<path style="fill:#C3D8E5;" d="M256.001,109.488c-8.293,0-16.421,0.7-24.337,2.024C300.995,123.105,353.839,183.376,353.839,256
	s-52.843,132.895-122.175,144.489c7.917,1.324,16.045,2.024,24.337,2.024c80.917,0,146.512-65.596,146.512-146.512
	S336.918,109.488,256.001,109.488z"/>
<circle style="fill:#E1EFFB;" cx="256.001" cy="256" r="146.51"/>
<path style="fill:#C3D8E5;" d="M256.001,109.488c-8.293,0-16.421,0.7-24.337,2.024C300.995,123.105,353.839,183.376,353.839,256
	s-52.843,132.895-122.175,144.489c7.917,1.324,16.045,2.024,24.337,2.024c80.917,0,146.512-65.596,146.512-146.512
	S336.918,109.488,256.001,109.488z"/>
<path style="fill:#FED9A8;" d="M344.663,205.571h-57.67h-21.197l10.703-26.136c4.34-8.968,2.752-19.679-4.003-27.002l0,0
	c-4.997-5.417-13.768-4.635-17.728,1.581l-36.459,60.262c-1.366,2.144-3.733,3.442-6.275,3.442h-18.957v90.119h21.798
	c0.817,0,1.628,0.135,2.401,0.398l28.997,9.886c11.226,3.827,23.006,5.78,34.867,5.78h10.52h27.902h8.297
	c6.19,0,11.208-5.018,11.208-11.208v-7.167c0-6.19-5.018-11.208-11.208-11.208h7.183c6.19,0,11.208-5.018,11.208-11.208v-7.167
	c0-6.19-5.018-11.208-11.208-11.208h5.709c6.19,0,11.208-5.018,11.208-11.208v-7.167c0-6.19-5.018-11.208-11.208-11.208h3.911
	c6.19,0,11.208-5.018,11.208-11.208v-7.167C355.871,210.589,350.853,205.571,344.663,205.571z"/>
<path style="fill:#F2CA91;" d="M338.968,265.457c-0.7,5.517-5.401,9.786-11.108,9.786h-8.297h-27.902h-10.52
	c-11.861,0-23.64-1.953-34.867-5.78l-28.997-9.886c-0.773-0.264-1.585-0.398-2.401-0.398h-21.798v48.659h21.798
	c0.817,0,1.628,0.134,2.401,0.398l28.997,9.886c11.226,3.827,23.006,5.78,34.867,5.78h10.521h27.902h8.297
	c6.19,0,11.208-5.018,11.208-11.208v-7.167c0-6.19-5.018-11.208-11.208-11.208h7.183c6.19,0,11.208-5.018,11.208-11.208v-7.167
	C346.252,271.137,343.22,267.049,338.968,265.457z"/>
<path style="fill:#FF4C4C;" d="M204.765,318.262h-32.323c-3.117,0-5.644-2.527-5.644-5.644v-98.779c0-3.129,2.545-5.661,5.674-5.644
	l32.323,0.171c3.106,0.016,5.614,2.539,5.614,5.644v98.608C210.409,315.735,207.882,318.262,204.765,318.262z"/>
<path style="fill:#EA2828;" d="M166.798,312.617c0,3.117,2.527,5.644,5.644,5.644h32.323c3.117,0,5.644-2.527,5.644-5.644v-42.555
	h-43.611V312.617z"/>
<g>
	<path style="fill:#F2CA91;" d="M351.871,245.009c-0.033-0.271-0.071-0.54-0.123-0.805c-0.02-0.101-0.044-0.2-0.067-0.3
		c-0.056-0.25-0.118-0.497-0.191-0.741c-0.028-0.094-0.058-0.188-0.088-0.281c-0.036-0.109-0.079-0.214-0.118-0.322
		c-1.567,4.301-5.69,7.372-10.533,7.372h-23.408c-8.169,0-14.791,6.622-14.791,14.791l0,0h38.2c6.19,0,11.208-5.018,11.208-11.208
		v-7.154c0-0.369-0.02-0.734-0.055-1.094C351.897,245.18,351.881,245.096,351.871,245.009z"/>
	<path style="fill:#F2CA91;" d="M355.82,215.772c-0.011-0.119-0.025-0.237-0.04-0.354c-0.025-0.21-0.058-0.417-0.095-0.624
		c-0.025-0.137-0.047-0.274-0.077-0.409c-0.058-0.265-0.125-0.527-0.202-0.785c-0.005-0.015-0.008-0.031-0.012-0.045
		c-1.617,4.202-5.686,7.187-10.457,7.187h-23.408c-8.041,0-14.569,6.42-14.772,14.412h34.013c-0.006,0-0.011-0.001-0.017-0.001
		h3.911c6.19,0,11.208-5.018,11.208-11.208v-7.166c0-0.001,0-0.002,0-0.003C355.871,216.438,355.85,216.104,355.82,215.772z"/>
	<path style="fill:#F2CA91;" d="M346.204,274.989c-0.089-0.969-0.299-1.902-0.618-2.784c-1.56,4.313-5.69,7.396-10.542,7.396
		h-17.699c-8.169,0-14.791,6.622-14.791,14.791l0,0h26.554c-0.41-0.045-0.825-0.073-1.246-0.073h7.183
		c6.19,0,11.208-5.018,11.208-11.208v-7.094c0-0.189-0.015-0.373-0.025-0.56C346.22,275.301,346.217,275.144,346.204,274.989z"/>
	<path style="fill:#F2CA91;" d="M339.014,304.453c-0.012-0.121-0.032-0.24-0.048-0.361c-0.029-0.229-0.061-0.458-0.104-0.683
		c-0.027-0.142-0.061-0.281-0.093-0.421c-0.046-0.199-0.096-0.397-0.152-0.591c-0.042-0.144-0.087-0.286-0.134-0.428
		c-0.027-0.08-0.058-0.159-0.087-0.238c-1.565,4.304-5.69,7.379-10.535,7.379h-10.516c-8.169,0-14.791,6.622-14.791,14.791h17.01
		h8.297c2.321,0,4.478-0.706,6.266-1.914c0.298-0.201,0.586-0.417,0.863-0.645c0.553-0.457,1.062-0.966,1.519-1.519
		c0.457-0.554,0.862-1.152,1.207-1.787c0.863-1.588,1.353-3.408,1.353-5.342v-7.167l0,0
		C339.068,305.164,339.048,304.807,339.014,304.453z"/>
</g>
<g>
</g>
<g>
</g>
<g>
</g>
<g>
</g>
<g>
</g>
<g>
</g>
<g>
</g>
<g>
</g>
<g>
</g>
<g>
</g>
<g>
</g>
<g>
</g>
<g>
</g>
<g>
</g>
<g>
</g>
</svg>
