<?xml version="1.0" encoding="iso-8859-1"?>
<!-- Generator: Adobe Illustrator 19.0.0, SVG Export Plug-In . SVG Version: 6.00 Build 0)  -->
<svg version="1.1" id="Capa_1" xmlns="http://www.w3.org/2000/svg" xmlns:xlink="http://www.w3.org/1999/xlink" x="0px" y="0px"
	 viewBox="0 0 512 512" style="enable-background:new 0 0 512 512;" xml:space="preserve">
<path style="fill:#FF6D3A;" d="M511.108,301.69c-166.343-78.685-343.873-78.684-510.216-0.002c-1.054,0.498-1.207,1.935-0.283,2.645
	c14.806,11.39,29.314,23.593,43.494,36.456c0.449,0.407,0.622,1.039,0.442,1.618c-6.587,21.266-12.752,42.678-18.527,64.401
	c-0.341,1.281,0.974,2.373,2.174,1.809c148.754-69.841,306.854-69.842,455.61,0c1.2,0.563,2.515-0.528,2.174-1.809
	c-5.774-21.721-11.939-43.135-18.527-64.403c-0.179-0.578-0.007-1.209,0.44-1.617c14.166-12.904,28.71-25.03,43.503-36.454
	C512.315,303.623,512.16,302.188,511.108,301.69z"/>
<path style="fill:#ED5729;" d="M511.393,304.335c0.922-0.712,0.767-2.147-0.286-2.645c-12.008-5.68-24.075-10.936-36.192-15.796
	c-15.8,12.184-31.33,25.129-46.442,38.935c7.016,22.603,13.561,45.37,19.693,68.464c11.931,4.669,23.813,9.774,35.636,15.325
	c1.2,0.563,2.515-0.528,2.174-1.809c-5.774-21.721-11.939-43.135-18.527-64.403c-0.179-0.578-0.007-1.209,0.44-1.617
	C482.056,327.885,496.6,315.759,511.393,304.335z"/>
<path style="fill:#FED130;" d="M489.686,321.775c-16.834-6.185-31.413-11.288-31.413-11.288
	c-66.204-25.769-134.065-38.806-202.274-38.806c-68.219,0-136.08,13.037-202.291,38.812c0,0-14.665,5.491-30.708,11.864
	c7.11,5.974,14.146,12.123,21.103,18.433c0.449,0.407,0.622,1.039,0.442,1.618c-3.266,10.543-6.426,21.123-9.489,31.759
	c16.837-6.647,34.367-13.949,34.367-13.949c61.123-21.909,123.663-32.985,186.575-32.985s125.45,11.074,186.575,32.984
	c0,0,17.448,6.779,34.042,12.845c-2.962-10.263-6.012-20.478-9.165-30.656c-0.179-0.578-0.007-1.209,0.44-1.617
	C475.064,334.254,482.335,327.921,489.686,321.775z"/>
<path style="fill:#E1EFFB;" d="M280.053,458.673l-22.115,11.624c-1.215,0.639-2.667,0.639-3.882,0l-22.115-11.624
	C126.741,403.38,61.959,301.345,61.959,190.941V117.61c0-2.24,1.772-4.062,4.01-4.163c40.652-1.832,73.279-31.362,75.481-68.244
	c0.133-2.226,1.94-3.979,4.169-3.979h220.756c2.23,0,4.036,1.753,4.169,3.979c2.202,36.882,34.829,66.412,75.481,68.244
	c2.238,0.101,4.01,1.923,4.01,4.163v73.331C450.036,301.345,385.255,403.38,280.053,458.673z"/>
<path style="fill:#C3D8E5;" d="M446.026,113.447c-40.652-1.832-73.28-31.362-75.482-68.244c-0.133-2.226-1.94-3.979-4.169-3.979
	h-42.454c2.172,71.207,56.037,104.063,79.5,104.063v68.444c0,103.187-56.593,199.058-149.881,256.295l0.517,0.271
	c1.215,0.639,2.667,0.638,3.882,0l22.115-11.624c105.201-55.294,169.983-157.328,169.983-267.732V117.61
	C450.036,115.37,448.264,113.548,446.026,113.447z"/>
<path style="fill:#61AFF6;" d="M249.807,424.681c-45.687-24.013-83.686-58.52-109.887-99.79
	c-25.879-40.762-39.559-87.081-39.559-133.95v-42.154c0-1.671,1.076-3.137,2.656-3.682c31.437-10.863,56.471-33.86,68.732-63.057
	c0.612-1.457,2.015-2.422,3.595-2.422h161.307c1.58,0,2.984,0.965,3.595,2.422c12.262,29.197,37.296,52.193,68.732,63.057
	c1.58,0.546,2.655,2.011,2.655,3.682v42.154c0,46.869-13.68,93.188-39.558,133.95c-26.203,41.27-64.202,75.777-109.89,99.79
	l-4.382,2.304c-1.131,0.595-2.482,0.595-3.614,0L249.807,424.681z"/>
<path style="fill:#49A0E8;" d="M408.978,145.105c-31.436-10.864-56.471-33.861-68.732-63.057c-0.612-1.457-2.016-2.422-3.595-2.422
	h-43.657c3.723,44.707,38.824,69.425,69.37,79.981c1.58,0.546,2.655,2.011,2.655,3.682v42.154c0,46.869-13.68,93.188-39.558,133.95
	c-20.439,32.192-48.056,60.267-80.9,82.459c1.738,0.957,3.484,1.904,5.246,2.83l4.383,2.304c1.131,0.595,2.482,0.595,3.614,0
	l4.382-2.304c45.688-24.013,83.687-58.52,109.89-99.79c25.878-40.762,39.558-87.081,39.558-133.95v-42.154
	C411.634,147.116,410.558,145.651,408.978,145.105z"/>
<path style="fill:#E1EFFB;" d="M278.903,298.334V131.377c0-1.49-1.208-2.697-2.697-2.697h-31.514c-0.634,0-1.248,0.223-1.734,0.631
	l-57.255,48.049c-1.113,0.934-1.286,2.582-0.391,3.727l18.778,24.031c0.936,1.197,2.675,1.386,3.846,0.417l23.935-19.817
	c1.758-1.456,4.418-0.205,4.418,2.078v110.539c0,1.49-1.208,2.697-2.697,2.697h-33.096c-1.49,0-2.697,1.208-2.697,2.697v28.581
	c0,1.49,1.208,2.697,2.697,2.697H309.2c1.49,0,2.697-1.208,2.697-2.697v-28.581c0-1.49-1.208-2.697-2.697-2.697h-27.596
	C280.111,301.031,278.903,299.824,278.903,298.334z"/>
<path style="fill:#F7BC14;" d="M458.273,310.488c-3.131-1.219-6.267-2.4-9.405-3.561c-6.871,5.806-13.676,11.765-20.394,17.903
	c3.503,11.285,6.888,22.612,10.164,34c1.312,0.46,2.624,0.918,3.935,1.388c0,0,17.448,6.779,34.042,12.845
	c-1.481-5.129-2.983-10.247-4.509-15.354c-1.529-5.11-3.079-10.211-4.656-15.302c-0.179-0.578-0.007-1.209,0.44-1.617
	c1.791-1.631,3.588-3.25,5.391-4.857c0.097-0.086,0.195-0.171,0.292-0.257c5.323-4.739,10.696-9.371,16.113-13.9
	C472.852,315.591,458.273,310.488,458.273,310.488z"/>
<g>
</g>
<g>
</g>
<g>
</g>
<g>
</g>
<g>
</g>
<g>
</g>
<g>
</g>
<g>
</g>
<g>
</g>
<g>
</g>
<g>
</g>
<g>
</g>
<g>
</g>
<g>
</g>
<g>
</g>
</svg>
