<?xml version="1.0" encoding="iso-8859-1"?>
<!-- Generator: Adobe Illustrator 19.0.0, SVG Export Plug-In . SVG Version: 6.00 Build 0)  -->
<svg version="1.1" id="Capa_1" xmlns="http://www.w3.org/2000/svg" xmlns:xlink="http://www.w3.org/1999/xlink" x="0px" y="0px"
	 viewBox="0 0 512 512" style="enable-background:new 0 0 512 512;" xml:space="preserve">
<path style="fill:#77D057;" d="M361.868,183.683l21.976-21.976l-33.551-33.551l-21.976,21.976
	c-37.193,37.193-81.942,65.965-131.217,84.367l0,0c-23.35,8.72-44.555,22.354-62.18,39.979L11.21,398.188
	c-14.947,14.947-14.947,39.18,0,54.127l48.475,48.475c14.947,14.947,39.18,14.947,54.127,0l123.71-123.71
	c17.625-17.625,31.259-38.83,39.979-62.18l0,0C295.903,265.625,324.674,220.876,361.868,183.683z"/>
<path style="fill:#62B240;" d="M277.501,314.9L277.501,314.9c18.402-49.276,47.173-94.024,84.367-131.217l21.976-21.976
	l-33.534-33.534l-21.976,21.976c-37.193,37.193-65.965,81.942-84.367,131.217l0,0c-8.72,23.35-22.354,44.555-39.979,62.18
	l-123.71,123.71c-14.947,14.947-39.18,14.947-54.127,0l33.534,33.534c14.947,14.947,39.18,14.947,54.127,0l123.71-123.71
	C255.147,359.455,268.781,338.25,277.501,314.9z"/>
<path style="fill:#FFB125;" d="M350.293,128.156l-21.976,21.976c-27.562,27.562-59.275,50.495-93.904,68.013
	c-16.494,8.344-20.141,30.276-7.07,43.347l23.166,23.166c13.071,13.071,35.003,9.424,43.347-7.07
	c17.518-34.629,40.45-66.342,68.013-93.904l21.976-21.976L350.293,128.156z"/>
<path style="fill:#D9DDE2;" d="M444.147,58.346l9.508,9.508c5.831,5.831,15.284,5.831,21.115,0l17.088-17.088l-30.623-30.623
	L444.147,37.23C438.316,43.061,438.316,52.515,444.147,58.346z"/>
<path style="fill:#FF901D;" d="M487.67,58.546L453.454,24.33c-1.863-1.863-1.863-4.884,0-6.747L469.64,1.397
	c1.863-1.863,4.884-1.863,6.747,0l34.216,34.216c1.863,1.863,1.863,4.884,0,6.747l-16.186,16.186
	C492.554,60.409,489.533,60.409,487.67,58.546z"/>
<ellipse transform="matrix(0.7071 -0.7071 0.7071 0.7071 -227.055 205.8735)" style="fill:#F2F2F2;" cx="134.984" cy="377.016" rx="62.479" ry="47.42"/>
<path style="fill:#D9DDE2;" d="M179.159,332.841c-5.823-5.823-13.255-9.34-21.466-10.673c2.907,17.906-4.589,39.519-21.318,56.247
	s-38.341,24.224-56.247,21.318c1.333,8.211,4.85,15.643,10.673,21.466c18.52,18.52,53.313,13.754,77.713-10.645
	C192.913,386.155,197.679,351.361,179.159,332.841z"/>
<g>
	<path style="fill:#FF901D;" d="M244.864,279.013l5.644,5.645c13.068,13.068,34.994,9.425,43.341-7.061
		c2.189-4.328,4.463-8.61,6.82-12.844c0.007-0.012,0.014-0.024,0.02-0.036c1.151-2.068,2.323-4.123,3.514-6.168
		c0.037-0.063,0.073-0.127,0.11-0.19c1.201-2.058,2.42-4.105,3.66-6.139c0.025-0.041,0.051-0.082,0.076-0.123
		c1.183-1.939,2.386-3.866,3.605-5.783c0.1-0.158,0.199-0.316,0.3-0.473c1.253-1.963,2.522-3.915,3.812-5.855
		c0.048-0.072,0.097-0.143,0.144-0.215c1.211-1.817,2.439-3.622,3.682-5.418c0.166-0.24,0.331-0.481,0.498-0.721
		c1.3-1.869,2.615-3.727,3.95-5.572c0.071-0.098,0.143-0.194,0.214-0.292c1.238-1.707,2.493-3.401,3.76-5.087
		c0.233-0.31,0.465-0.62,0.699-0.93c1.344-1.776,2.702-3.543,4.079-5.296c0.089-0.114,0.181-0.226,0.27-0.34
		c1.272-1.614,2.56-3.216,3.859-4.81c0.293-0.359,0.586-0.719,0.88-1.077c1.391-1.693,2.794-3.378,4.216-5.047
		c0.092-0.108,0.186-0.215,0.278-0.323c1.325-1.551,2.666-3.089,4.017-4.619c0.341-0.386,0.683-0.772,1.026-1.157
		c1.445-1.621,2.899-3.234,4.373-4.831c0.067-0.072,0.135-0.143,0.202-0.216c1.407-1.521,2.831-3.028,4.264-4.527
		c0.378-0.395,0.756-0.789,1.135-1.182c1.505-1.559,3.019-3.111,4.553-4.644l21.976-21.976l-33.534-33.534l-21.976,21.976
		C291.734,186.749,263.298,230.667,244.864,279.013z"/>
	<path style="fill:#FF901D;" d="M370.993,175.223l-34.216-34.216c-1.863-1.863-1.863-4.884,0-6.747l16.186-16.186
		c1.863-1.863,4.884-1.863,6.747,0l34.216,34.216c1.863,1.863,1.863,4.884,0,6.747l-16.186,16.186
		C375.876,177.087,372.856,177.087,370.993,175.223z"/>
</g>
<g>
	<path style="fill:#FED130;" d="M434.25,77.751c-3.018-3.016-7.909-3.016-10.928,0l-27.307,27.307
		c-3.017,3.018-3.017,7.909,0,10.928c1.509,1.508,3.487,2.263,5.464,2.263s3.955-0.755,5.464-2.263l27.307-27.307
		C437.267,85.66,437.267,80.769,434.25,77.751z"/>
	<path style="fill:#FED130;" d="M461.055,134.238l-35.738,2.937c-4.253,0.349-7.418,4.08-7.067,8.333
		c0.332,4.037,3.711,7.094,7.691,7.094c0.212,0,0.427-0.008,0.642-0.026l35.738-2.937c4.253-0.349,7.418-4.08,7.067-8.333
		S465.304,133.876,461.055,134.238z"/>
	<path style="fill:#FED130;" d="M366.492,93.751c0.215,0.018,0.429,0.026,0.642,0.026c3.98,0,7.359-3.056,7.691-7.094l2.937-35.738
		c0.35-4.253-2.815-7.984-7.067-8.333c-4.234-0.35-7.983,2.814-8.333,7.067l-2.937,35.738
		C359.074,89.67,362.239,93.401,366.492,93.751z"/>
</g>
<g>
</g>
<g>
</g>
<g>
</g>
<g>
</g>
<g>
</g>
<g>
</g>
<g>
</g>
<g>
</g>
<g>
</g>
<g>
</g>
<g>
</g>
<g>
</g>
<g>
</g>
<g>
</g>
<g>
</g>
</svg>
