<?xml version="1.0" encoding="iso-8859-1"?>
<!-- Generator: Adobe Illustrator 19.0.0, SVG Export Plug-In . SVG Version: 6.00 Build 0)  -->
<svg version="1.1" id="Capa_1" xmlns="http://www.w3.org/2000/svg" xmlns:xlink="http://www.w3.org/1999/xlink" x="0px" y="0px"
	 viewBox="0 0 512 512" style="enable-background:new 0 0 512 512;" xml:space="preserve">
<polygon style="fill:#FFB125;" points="305.669,440.203 206.331,440.203 244.35,121.542 267.65,121.542 "/>
<path style="fill:#FF901D;" d="M267.65,121.542h-23.3l0,0c-7.743,64.903-7.743,130.497,0,195.4l14.706,123.26h46.613L267.65,121.542
	z"/>
<path style="fill:#FF6D3A;" d="M341.59,446.014H170.41l9.997-62.609c0.527-3.304,3.377-5.735,6.723-5.735h137.741
	c3.346,0,6.195,2.431,6.723,5.735L341.59,446.014z"/>
<path style="fill:#ED5729;" d="M331.593,383.406c-0.528-3.304-3.377-5.735-6.723-5.735h-40.806l10.912,68.343h46.613
	L331.593,383.406z"/>
<path style="fill:#2D5872;" d="M382.366,512H129.634c-4.755,0-8.379-4.258-7.619-8.952l13.721-84.721
	c0.605-3.738,3.833-6.484,7.619-6.484h225.29c3.786,0,7.014,2.747,7.619,6.484l13.721,84.721
	C390.745,507.742,387.121,512,382.366,512z"/>
<path style="fill:#1D4859;" d="M389.985,503.048l-13.721-84.721c-0.605-3.738-3.833-6.484-7.619-6.484h-41.136L343.731,512h38.636
	C387.121,512,390.745,507.742,389.985,503.048z"/>
<path style="fill:#E1EFFB;" d="M157.776,476.307l4.868-30.057c0.316-1.949,1.998-3.381,3.972-3.381h178.767
	c1.974,0,3.656,1.432,3.972,3.381l4.868,30.057c0.396,2.447-1.493,4.667-3.972,4.667H161.749
	C159.27,480.974,157.38,478.754,157.776,476.307z"/>
<path style="fill:#C3D8E5;" d="M354.223,476.307l-4.868-30.057c-0.316-1.949-1.998-3.381-3.972-3.381h-43.961l6.172,38.105h42.658
	C352.73,480.974,354.62,478.754,354.223,476.307z"/>
<path style="fill:#E1EFFB;" d="M369.166,82.267c-0.005-0.018-0.008-0.036-0.014-0.054l0,0c-0.358-1.106-1.293-2.026-2.631-2.22
	l-74.35-10.804l-33.25-67.373C258.324,0.605,257.162,0,256,0c-1.162,0-2.324,0.605-2.921,1.816l-33.25,67.373l-74.35,10.804
	c-0.036,0.005-0.068,0.016-0.103,0.023c-0.129,0.023-0.258,0.047-0.379,0.083c-0.051,0.015-0.098,0.038-0.148,0.056
	c-0.1,0.035-0.201,0.068-0.295,0.112c-0.039,0.018-0.073,0.042-0.111,0.062c-0.099,0.051-0.198,0.101-0.29,0.161
	c-0.014,0.009-0.026,0.021-0.04,0.03c-0.111,0.075-0.218,0.155-0.317,0.242c-0.004,0.003-0.007,0.007-0.01,0.01
	c-0.107,0.095-0.208,0.197-0.301,0.304c-0.005,0.006-0.009,0.013-0.014,0.019c-0.28,0.33-0.491,0.711-0.623,1.119l0,0
	c-0.358,1.104-0.141,2.395,0.825,3.336l53.8,52.442l-12.701,74.05c-0.012,0.068-0.012,0.133-0.02,0.199
	c-0.011,0.098-0.026,0.196-0.029,0.292c-0.001,0.038,0.005,0.074,0.005,0.112c0.001,0.122,0.003,0.243,0.017,0.361
	c0.003,0.028,0.012,0.053,0.016,0.081c0.019,0.125,0.04,0.25,0.072,0.369c0.003,0.01,0.007,0.019,0.01,0.029
	c0.079,0.28,0.194,0.545,0.341,0.787c0.002,0.004,0.005,0.007,0.007,0.01c0.151,0.247,0.334,0.472,0.542,0.669
	c0.001,0.001,0.002,0.002,0.004,0.003c0.104,0.099,0.215,0.191,0.331,0.275l0,0l0,0c0.94,0.682,2.235,0.875,3.429,0.247L256,180.513
	l66.501,34.962c0.149,0.078,0.3,0.144,0.452,0.198c0.149,0.053,0.298,0.093,0.448,0.122c0.003,0.001,0.005,0.002,0.008,0.002
	c0.136,0.027,0.272,0.041,0.408,0.05c0.016,0.001,0.031,0.005,0.047,0.006c0.125,0.006,0.249,0,0.372-0.008
	c0.025-0.002,0.051,0.001,0.076-0.002c0.122-0.011,0.242-0.034,0.36-0.059c0.025-0.005,0.051-0.007,0.076-0.012
	c0.277-0.065,0.543-0.168,0.792-0.301c0.007-0.004,0.016-0.007,0.023-0.011c0.104-0.056,0.202-0.121,0.299-0.188
	c0.023-0.016,0.047-0.028,0.07-0.044l0,0c0.941-0.683,1.526-1.856,1.298-3.187l-12.701-74.05l0,0l53.8-52.442l0,0
	c0.121-0.118,0.23-0.241,0.328-0.369c0.032-0.041,0.055-0.085,0.084-0.128c0.061-0.088,0.124-0.176,0.175-0.267
	c0.07-0.125,0.128-0.254,0.179-0.384c0.004-0.01,0.01-0.02,0.014-0.031c0.041-0.107,0.069-0.216,0.098-0.325
	c0.009-0.035,0.023-0.069,0.031-0.104c0.028-0.125,0.045-0.252,0.058-0.378c0.002-0.019,0.007-0.039,0.009-0.058
	C369.338,83.086,369.288,82.665,369.166,82.267z"/>
<g>
	<path style="fill:#C1D8E5;" d="M369.166,82.267c-0.005-0.018-0.008-0.036-0.014-0.054l0,0c-0.358-1.106-1.293-2.026-2.631-2.22
		l-39.306-5.712l-50.357,49.086l0,0l12.84,74.862l32.803,17.245c0.149,0.078,0.3,0.144,0.452,0.198
		c0.149,0.053,0.298,0.093,0.448,0.122c0.003,0.001,0.005,0.002,0.008,0.002c0.136,0.027,0.272,0.041,0.408,0.05
		c0.016,0.001,0.031,0.005,0.047,0.006c0.125,0.006,0.249,0,0.372-0.008c0.025-0.002,0.051,0.001,0.076-0.002
		c0.122-0.011,0.242-0.034,0.361-0.059c0.025-0.005,0.051-0.006,0.076-0.012c0.277-0.065,0.543-0.168,0.792-0.301
		c0.007-0.004,0.015-0.007,0.023-0.011c0.104-0.056,0.202-0.121,0.299-0.188c0.023-0.016,0.047-0.028,0.07-0.044l0,0
		c0.941-0.683,1.526-1.856,1.298-3.187l-12.701-74.05l0,0l53.8-52.442l0,0c0.121-0.118,0.23-0.241,0.328-0.369
		c0.032-0.041,0.055-0.085,0.084-0.128c0.061-0.088,0.124-0.176,0.175-0.267c0.07-0.125,0.128-0.254,0.179-0.384
		c0.004-0.01,0.01-0.02,0.014-0.031c0.041-0.107,0.069-0.216,0.098-0.325c0.009-0.035,0.023-0.069,0.031-0.104
		c0.028-0.125,0.045-0.252,0.058-0.378c0.002-0.019,0.007-0.039,0.009-0.058C369.338,83.086,369.288,82.665,369.166,82.267z"/>
	<path style="fill:#C1D8E5;" d="M256,0c-1.162,0-2.324,0.605-2.921,1.816L236.075,36.27l8.385,16.99
		c3.009,6.097,8.829,10.321,15.559,11.292l32.153,4.637l-33.25-67.373C258.324,0.605,257.162,0,256,0z"/>
</g>
<g>
</g>
<g>
</g>
<g>
</g>
<g>
</g>
<g>
</g>
<g>
</g>
<g>
</g>
<g>
</g>
<g>
</g>
<g>
</g>
<g>
</g>
<g>
</g>
<g>
</g>
<g>
</g>
<g>
</g>
</svg>
