<svg height="512pt" viewBox="0 0 512 512" width="512pt" xmlns="http://www.w3.org/2000/svg"><path d="m512 0v301c-33.601562-49.5-68.5-120-151-120h-346v-60h76l30 30 30-30h150l30 30 30-30c85.800781 0 120.097656-75.398438 151-121zm0 0" fill="#ff9f00"/><path d="m512 0v301c-33.601562-49.5-68.5-120-151-120h-135v-60h75l30 30 30-30c85.800781 0 120.097656-75.398438 151-121zm0 0" fill="#ff7816"/><path d="m301 121v90h-150v-90h-60v391l135-101.398438 135 101.398438v-391zm0 0" fill="#e63950"/><path d="m301 121v90h-75v199.601562l135 101.398438v-391zm0 0" fill="#cc2e43"/><path d="m0 91h30v120h-30zm0 0" fill="#fdbf00"/><path d="m151 301h150v30h-150zm0 0" fill="#fde4e4"/><path d="m226 301h75v30h-75zm0 0" fill="#fdd0d0"/></svg>