<svg height="512pt" viewBox="0 -31 512 512" width="512pt" xmlns="http://www.w3.org/2000/svg"><path d="m226 450h-226v-60l130.375-30 95.625 30 30 30.9375zm0 0" fill="#bfe436"/><path d="m286 390 122.8125-30 103.1875 30v60h-226l-30-25.3125zm0 0" fill="#a4d95e"/><path d="m226 390h-226v-60l130.375-30 95.625 30 30 30.9375zm0 0" fill="#a4d95e"/><path d="m286 330 122.8125-30 103.1875 30v60h-226l-30-25.3125zm0 0" fill="#84bf7e"/><path d="m286 330v120h-60v-120l28.199219-30 1.800781 1.800781zm0 0" fill="#eaeaf9"/><path d="m256 301.800781 30 28.199219v120h-30zm0 0" fill="#d8d8fc"/><path d="m0 0h512v330h-512zm0 0" fill="#bfe436"/><path d="m256 0h256v330h-256zm0 0" fill="#a4d95e"/><path d="m441.097656 88.199219c-8.699218-3-15.296875-9.597657-18.296875-18.300781l-3.601562-9.898438h-326.398438l-3.601562 9.898438c-3 8.703124-9.597657 15.300781-18.300781 18.300781l-9.898438 3.601562v146.398438l9.902344 3.601562c8.699218 3 15.296875 9.597657 18.296875 18.300781l3.601562 9.898438h326.398438l3.601562-9.902344c3-8.699218 9.597657-15.296875 18.300781-18.296875l9.898438-3.601562v-146.398438zm0 0" fill="#a4d95e"/><path d="m451 91.800781v146.398438l-9.902344 3.601562c-8.699218 3-15.296875 9.597657-18.296875 18.300781l-3.601562 9.898438h-163.199219v-210h163.199219l3.601562 9.898438c3 8.703124 9.597657 15.300781 18.300781 18.300781zm0 0" fill="#84bf7e"/><path d="m256 120c-24.902344 0-45 20.097656-45 45 0 24.898438 20.097656 45 45 45s45-20.101562 45-45c0-24.902344-20.097656-45-45-45zm0 0" fill="#bfe436"/><path d="m346 150h30v30h-30zm0 0" fill="#a4d95e"/><path d="m136 150h30v30h-30zm0 0" fill="#bfe436"/><path d="m301 165c0 24.898438-20.097656 45-45 45v-90c24.902344 0 45 20.097656 45 45zm0 0" fill="#a4d95e"/></svg>