<svg height="512pt" viewBox="0 0 512 512" width="512pt" xmlns="http://www.w3.org/2000/svg"><path d="m241 346h30v106h-30zm0 0" fill="#485c8c"/><path d="m256 346h15v106h-15zm0 0" fill="#2d344a"/><path d="m30 45h452v301h-452zm0 0" fill="#eaeaf9"/><path d="m256 45h226v301h-226zm0 0" fill="#d8d8fc"/><path d="m296.5 146.5-40.5 40.800781-30 30-30-30-49.5 49.199219-21-21 70.5-70.800781 30 30 30-29.699219 19.5-19.5zm0 0" fill="#e63950"/><path d="m296.5 146.5-40.5 40.800781v-42.300781l19.5-19.5zm0 0" fill="#cc2e43"/><path d="m392 0h30v45h-30zm0 0" fill="#2d344a"/><path d="m91 0h30v45h-30zm0 0" fill="#485c8c"/><path d="m256 422c-24.902344 0-45 20.097656-45 45 0 24.898438 20.097656 45 45 45s45-20.101562 45-45c0-24.902344-20.097656-45-45-45zm0 60c-8.402344 0-15-6.601562-15-15 0-8.402344 6.597656-15 15-15s15 6.597656 15 15c0 8.398438-6.597656 15-15 15zm0 0" fill="#e63950"/><path d="m121 90h30v211h-30zm0 0" fill="#799ce3"/><g fill="#a3a3d1"><path d="m331 121h91v30h-91zm0 0"/><path d="m331 181h91v30h-91zm0 0"/><path d="m331 241h91v30h-91zm0 0"/></g><path d="m301 467c0 24.898438-20.097656 45-45 45v-30c8.402344 0 15-6.601562 15-15 0-8.402344-6.597656-15-15-15v-30c24.902344 0 45 20.097656 45 45zm0 0" fill="#cc2e43"/><path d="m91 241h210v30h-210zm0 0" fill="#799ce3"/><path d="m256 241h45v30h-45zm0 0" fill="#485c8c"/><path d="m0 331h512v30h-512zm0 0" fill="#799ce3"/><path d="m256 331h256v30h-256zm0 0" fill="#485c8c"/><path d="m0 30h512v30h-512zm0 0" fill="#799ce3"/><path d="m256 30h256v30h-256zm0 0" fill="#485c8c"/></svg>