<svg height="512pt" viewBox="-91 0 512 512" width="512pt" xmlns="http://www.w3.org/2000/svg"><path d="m330 497v15h-330v-15c0-52.800781 39.300781-97.601562 90-104.800781l75 28.800781 75-28.800781c50.699219 7.199219 90 52 90 104.800781zm0 0" fill="#e63950"/><path d="m330 497v15h-165v-91l75-28.800781c50.699219 7.199219 90 52 90 104.800781zm0 0" fill="#cc2e43"/><path d="m240 359.800781v32.398438l-75 58.800781-75-58.800781v-32.398438zm0 0" fill="#fdd0d0"/><path d="m240 359.800781v32.398438l-75 58.800781v-91.199219zm0 0" fill="#faaaaa"/><path d="m300 226v30c0 74.398438-60.601562 135-135 135s-135-60.601562-135-135v-30zm0 0" fill="#fde4e4"/><path d="m165 391v-165h135v30c0 74.398438-60.601562 135-135 135zm0 0" fill="#fdd0d0"/><path d="m218.101562 309.097656c-14.101562 14.101563-33.003906 21.902344-53.101562 21.902344s-39-7.800781-53.101562-21.902344l21.300781-21.296875c8.398437 8.398438 20.101562 12.898438 31.800781 12.898438s23.402344-4.5 31.800781-12.898438zm0 0" fill="#fdd0d0"/><path d="m300 0v226h-270v-226l73.800781 107.800781 61.199219-107.800781 61.199219 107.800781zm0 0" fill="#ff9f00"/><path d="m300 226h-135v-226l61.199219 107.800781 73.800781-107.800781zm0 0" fill="#ff7816"/><path d="m143.695312 165.988281 21.300782-21.300781 21.296875 21.300781-21.296875 21.296875zm0 0" fill="#e63950"/><path d="m186.300781 166-21.300781 21.300781v-42.601562zm0 0" fill="#cc2e43"/><path d="m0 211h330v30h-330zm0 0" fill="#fdbf00"/><path d="m165 211h165v30h-165zm0 0" fill="#ff9f00"/><path d="m218.101562 309.097656c-14.101562 14.101563-33.003906 21.902344-53.101562 21.902344v-30.300781c11.699219 0 23.402344-4.5 31.800781-12.898438zm0 0" fill="#faaaaa"/></svg>