<svg height="512pt" viewBox="0 0 512 512" width="512pt" xmlns="http://www.w3.org/2000/svg"><path d="m451 210v302h-180l-15-30-15 30h-181v-302zm0 0" fill="#e63950"/><path d="m451 210v302h-180l-15-30v-272zm0 0" fill="#cc2e43"/><path d="m0 120h512v120h-512zm0 0" fill="#ec5569"/><path d="m256 120h256v120h-256zm0 0" fill="#e63950"/><path d="m241 150h30v362h-30zm0 0" fill="#fdbf00"/><path d="m256 150h15v362h-15zm0 0" fill="#ff9f00"/><path d="m346 0c-45 0-74.097656 48.898438-90 87.597656-15.902344-38.699218-45-87.597656-90-87.597656-41.398438 0-75 33.601562-75 75s33.601562 75 75 75h69.300781l-53.398437 160.199219 28.195312 9.601562 45.902344-137.402343 45.902344 137.402343 28.195312-9.601562-53.398437-160.199219h69.300781c41.398438 0 75-33.601562 75-75s-33.601562-75-75-75zm-180 120c-24.902344 0-45-20.101562-45-45 0-24.902344 20.097656-45 45-45 32.402344 0 57.898438 54.898438 69.902344 90zm180 0h-69.902344c12.003906-35.101562 37.5-90 69.902344-90 24.902344 0 45 20.097656 45 45 0 24.898438-20.097656 45-45 45zm0 0" fill="#fdbf00"/><path d="m346 0c-45 0-74.097656 48.898438-90 87.597656v94.800782l45.902344 137.402343 28.195312-9.601562-53.398437-160.199219h69.300781c41.398438 0 75-33.601562 75-75s-33.601562-75-75-75zm0 120h-69.902344c12.003906-35.101562 37.5-90 69.902344-90 24.902344 0 45 20.097656 45 45 0 24.898438-20.097656 45-45 45zm0 0" fill="#ff9f00"/></svg>