<svg height="512pt" viewBox="-16 0 512 512" width="512pt" xmlns="http://www.w3.org/2000/svg"><path d="m390 30v452c0 16.570312-13.429688 30-30 30h-360v-482zm0 0" fill="#799ce3"/><path d="m390 30v452c0 16.570312-13.429688 30-30 30h-165v-482zm0 0" fill="#485c8c"/><path d="m30 60h330v422h-330zm0 0" fill="#eaeaf9"/><path d="m195 60h165v422h-165zm0 0" fill="#d8d8fc"/><path d="m225 30v-30h-60v30h-60v60h180v-60zm0 0" fill="#e63950"/><g fill="#d8d8fc"><path d="m60 152h270v30h-270zm0 0"/><path d="m60 212h240v30h-240zm0 0"/><path d="m60 272h180v30h-180zm0 0"/><path d="m60 332h120v30h-120zm0 0"/></g><path d="m360 272c-66.300781 0-120 53.699219-120 120s53.699219 120 120 120 120-53.699219 120-120-53.699219-120-120-120zm0 0" fill="#a4d95e"/><path d="m480 392c0 66.300781-53.699219 120-120 120v-240c66.300781 0 120 53.699219 120 120zm0 0" fill="#84bf7e"/><path d="m415.5 372.5-55.5 55.800781-15 15-40.5-40.800781 21-21 19.5 19.199219 15-15 34.5-34.199219zm0 0" fill="#eaeaf9"/><path d="m415.5 372.5-55.5 55.800781v-42.601562l34.5-34.199219zm0 0" fill="#d8d8fc"/><path d="m285 30v60h-90v-90h30v30zm0 0" fill="#cc2e43"/><path d="m195 272h45v30h-45zm0 0" fill="#a3a3d1"/><path d="m195 212h105v30h-105zm0 0" fill="#a3a3d1"/><path d="m195 152h135v30h-135zm0 0" fill="#a3a3d1"/></svg>