<svg height="512pt" viewBox="-15 0 512 512" width="512pt" xmlns="http://www.w3.org/2000/svg"><path d="m267.601562 384.800781-42.300781 42.300781-21.296875-21.300781-42.304687 42.601563 21 20.996094-42.300781 42.601562-72.996094-73 126.199218-128.199219zm0 0" fill="#ff7816"/><path d="m446.503906 35.101562c-46.800781-46.800781-123.003906-46.800781-169.804687 0-66.296875 66.597657-19.195313 143.097657-18.898438 146.097657-89.699219 90-168.101562 169.101562-257.800781 259.101562l21.300781 21 21 21.296875c90-89.699218 168.101563-169.097656 258.101563-258.796875 6.296875 2.398438 28.199218 17.398438 65.398437 16.199219 30.898438-1.199219 59.398438-13.800781 80.703125-35.101562 46.796875-46.800782 46.796875-123 0-169.796876zm-53.101562 116.699219c-17.703125 17.699219-46.199219 17.699219-63.601563 0-17.398437-17.402343-17.699219-45.898437 0-63.601562 16.5-16.5 47.101563-16.5 63.601563 0 17.699218 17.703125 17.699218 46.199219 0 63.601562zm0 0" fill="#fdbf00"/><path d="m446.503906 204.898438c-21.304687 21.300781-49.804687 33.902343-80.703125 35.101562-37.199219 1.199219-59.101562-13.800781-65.398437-16.199219-90 89.699219-168.101563 169.097657-258.101563 258.796875l-21-21.296875 308.5-309.5c17.402344 17.699219 45.898438 17.699219 63.601563 0 17.699218-17.402343 17.699218-45.898437 0-63.601562l53.101562-53.097657c46.796875 46.796876 46.796875 122.996094 0 169.796876zm0 0" fill="#ff9f00"/><path d="m414.703125 66.898438c-28.5-28.199219-77.703125-28.199219-106.203125 0-29.398438 29.402343-29.097656 76.800781 0 106.199218 29.402344 29.101563 76.800781 29.402344 106.203125 0 14.097656-14.097656 21.898437-32.996094 21.898437-53.097656s-7.800781-39-21.898437-53.101562zm-53.101563 74.402343-21.300781-21.300781 21.300781-21.300781 21.300782 21.300781zm0 0" fill="#ff9f00"/><path d="m436.601562 120c0 20.097656-7.800781 39-21.898437 53.097656-29.402344 29.402344-76.800781 29.101563-106.199219 0l42.597656-42.296875 10.5 10.5 21.300782-21.300781-10.5-10.5 42.300781-42.601562c14.097656 14.101562 21.898437 33.003906 21.898437 53.101562zm0 0" fill="#ff7816"/></svg>