<svg height="512pt" viewBox="0 -16 512 512" width="512pt" xmlns="http://www.w3.org/2000/svg"><path d="m181 15h30v90h-30zm0 0" fill="#485c8c"/><path d="m301 15h30v90h-30zm0 0" fill="#2d344a"/><path d="m512 231.300781v248.699219h-512v-248.699219l68.699219 38.699219h374.601562zm0 0" fill="#485c8c"/><path d="m512 231.300781v248.699219h-256v-210h187.300781zm0 0" fill="#2d344a"/><path d="m512 90v141.300781l-68.699219 68.699219h-374.601562l-68.699219-68.699219v-141.300781zm0 0" fill="#799ce3"/><path d="m512 90v141.300781l-68.699219 68.699219h-187.300781v-210zm0 0" fill="#485c8c"/><path d="m361 390h91v30h-91zm0 0" fill="#a3a3d1"/><path d="m151 0h210v30h-210zm0 0" fill="#799ce3"/><path d="m226 240h60v90h-60zm0 0" fill="#fdbf00"/><path d="m256 240h30v90h-30zm0 0" fill="#ff9f00"/><path d="m256 0h105v30h-105zm0 0" fill="#485c8c"/></svg>