<svg height="512pt" viewBox="-121 0 512 512" width="512pt" xmlns="http://www.w3.org/2000/svg"><path d="m240 421v91h-210v-91l18-13h175zm0 0" fill="#799ce3"/><path d="m240 421v91h-105v-104h88zm0 0" fill="#485c8c"/><path d="m0 271v78.601562l30 71.398438h105l60-105 41.699219-120-205.214844 5.023438zm0 0" fill="#faaaaa"/><path d="m270 0v181l-45 60h-158v30h-67v-120h67v-30h68v-30h67v-91zm0 0" fill="#fdd0d0"/><path d="m270 0v181l-45 60h-90v-150h67v-91zm0 0" fill="#faaaaa"/><path d="m135 181v15c0 23.785156 19.441406 45 45 45h30c-41.398438 0-75 33.601562-75 75v105h105l30-71.398438v-168.601562zm0 0" fill="#fde4e4"/></svg>