<svg height="512pt" viewBox="-61 0 512 512" width="512pt" xmlns="http://www.w3.org/2000/svg"><path d="m330 136h-30v-66.726562l-51.710938-25.855469 13.421876-26.835938 68.289062 34.144531zm0 0" fill="#d8d8fc"/><path d="m90 136h-30v-85.273438l68.289062-34.144531 13.421876 26.835938-51.710938 25.855469zm0 0" fill="#eaeaf9"/><path d="m60 181h270v301h-270zm0 0" fill="#485c8c"/><path d="m195 181h135v301h-135zm0 0" fill="#2d344a"/><path d="m195 271c-33 0-60 27-60 60s27 60 60 60 60-27 60-60-27-60-60-60zm0 0" fill="#fdbf00"/><path d="m240 60c-16.539062 0-30-13.460938-30-30s13.460938-30 30-30 30 13.460938 30 30-13.460938 30-30 30zm0 0" fill="#485c8c"/><g fill="#799ce3"><path d="m150 60c-16.539062 0-30-13.460938-30-30s13.460938-30 30-30 30 13.460938 30 30-13.460938 30-30 30zm0 0"/><path d="m390 121-30 90h-330l-30-90zm0 0"/><path d="m30 452h330v60h-330zm0 0"/></g><path d="m195 391v-120c33 0 60 27 60 60s-27 60-60 60zm0 0" fill="#ff9f00"/><path d="m195 452h165v60h-165zm0 0" fill="#485c8c"/><path d="m390 121-30 90h-165v-90zm0 0" fill="#485c8c"/></svg>