<svg height="512pt" viewBox="0 0 512 512" width="512pt" xmlns="http://www.w3.org/2000/svg"><path d="m256 0c-140.699219 0-256 115.300781-256 256s115.300781 256 256 256 256-115.300781 256-256-115.300781-256-256-256zm0 0" fill="#ffd400"/><path d="m512 256c0 140.699219-115.300781 256-256 256v-512c140.699219 0 256 115.300781 256 256zm0 0" fill="#fdbf00"/><path d="m211 181h-30v-45c0-8.277344-6.722656-15-15-15s-15 6.722656-15 15v45h-30v-45c0-24.8125 20.1875-45 45-45s45 20.1875 45 45zm0 0" fill="#485c8c"/><path d="m391 181h-30v-45c0-8.277344-6.722656-15-15-15s-15 6.722656-15 15v45h-30v-45c0-24.8125 20.1875-45 45-45s45 20.1875 45 45zm0 0" fill="#2d344a"/><path d="m361 211v60l-104.097656 30-.902344-.300781-105-29.699219v-60zm0 0" fill="#eaeaf9"/><path d="m361 211v60l-104.097656 30-.902344-.300781v-89.699219zm0 0" fill="#d8d8fc"/><path d="m361 271v45c0 57.898438-47.101562 105-105 105s-105-47.101562-105-105v-45zm0 0" fill="#e63950"/><path d="m361 271v45c0 57.898438-47.101562 105-105 105v-150zm0 0" fill="#cc2e43"/></svg>