<svg height="512pt" viewBox="0 0 512 512" width="512pt" xmlns="http://www.w3.org/2000/svg"><path d="m421 165c0 62.398438-35.097656 118.800781-90 147v63h-150v-63c-54.902344-28.199219-90-84.601562-90-147 0-90.902344 74.097656-165 165-165s165 74.097656 165 165zm0 0" fill="#fdbf00"/><path d="m421 165c0 62.398438-35.097656 118.800781-90 147v63h-75v-375c90.902344 0 165 74.097656 165 165zm0 0" fill="#ff9f00"/><path d="m211 436h90v76h-90zm0 0" fill="#799ce3"/><path d="m0 150h61v30h-61zm0 0" fill="#fdbf00"/><path d="m451 150h61v30h-61zm0 0" fill="#ff9f00"/><path d="m42.660156 305.492188-15-25.984376 51.957032-30 15 25.984376zm0 0" fill="#fdbf00"/><path d="m432.382812 80.492188-15-25.984376 51.957032-30 15 25.984376zm0 0" fill="#ff9f00"/><path d="m79.617188 80.492188-51.957032-30 15-25.984376 51.957032 30zm0 0" fill="#fdbf00"/><path d="m469.339844 305.492188-51.957032-30 15-25.984376 51.957032 30zm0 0" fill="#ff9f00"/><path d="m363.699219 134.699219-74.699219-10.5-33-65.398438-33 65.398438-74.699219 10.5 54 51.601562-12.601562 72.300781 66.300781-34.203124 66.300781 34.203124-12.601562-72.300781zm0 0" fill="#ff9f00"/><path d="m309.699219 186.300781 12.601562 72.300781-66.300781-34.203124v-165.597657l33 65.398438 74.699219 10.5zm0 0" fill="#ff7816"/><path d="m256 436h45v76h-45zm0 0" fill="#485c8c"/><path d="m181 375h150v76h-150zm0 0" fill="#d8d8fc"/><path d="m256 375h75v76h-75zm0 0" fill="#a3a3d1"/><path d="m151 360h210v30h-210zm0 0" fill="#eaeaf9"/><path d="m256 360h105v30h-105zm0 0" fill="#d8d8fc"/></svg>