<svg height="511pt" viewBox="1 -35 511.999 511" width="511pt" xmlns="http://www.w3.org/2000/svg"><path d="m313.898438 378.199219c18.601562 12.300781 33.300781 30.300781 41.101562 52.199219l-28.199219 10.199218c-10.5-30-39-50.097656-70.800781-50.097656s-60.300781 20.097656-70.800781 50.097656l-28.199219-10.199218c7.800781-21.898438 22.5-39.898438 41.101562-52.199219-69-30-117.601562-112.800781-117.601562-212.699219h30c0 54.597656 15.898438 103.5 42.300781 138.597656 26.097657 35.101563 62.398438 56.402344 103.199219 56.402344 81.597656 0 145.5-85.5 145.5-195h30c0 99.898438-48.601562 182.699219-117.601562 212.699219zm0 0" fill="#ff9f00"/><path d="m313.898438 378.199219c18.601562 12.300781 33.300781 30.300781 41.101562 52.199219l-28.199219 10.199218c-10.5-30-39-50.097656-70.800781-50.097656v-30c81.597656 0 145.5-85.5 145.5-195h30c0 99.898438-48.601562 182.699219-117.601562 212.699219zm0 0" fill="#ff7816"/><g fill="#ff9f00"><path d="m397.226562 391.570312c-11.820312 0-40.039062-.703124-80.128906-45 27.234375-30.09375 51.839844-45 80.128906-45 11.816407 0 40.039063.714844 80.140626 45-27.253907 30.09375-51.863282 45-80.140626 45zm0 0"/><path d="m381.15625 278.542969c5.054688-40.265625 16.65625-66.597657 39.8125-82.824219 9.6875-6.769531 32.777344-22.363281 91.03125-9.109375-5.054688 40.28125-16.222656 66.613281-39.394531 82.835937-27.691407 19.394532-60.875 16.152344-91.449219 9.097657zm0 0"/><path d="m407.992188 183.75c-15.753907-37.425781-18.863282-66.023438-6.914063-91.652344 4.992187-10.710937 17.5625-35.984375 74.648437-53.601562 15.75 37.414062 18.859376 66.011718 6.914063 91.640625-4.996094 10.710937-17.570313 35.972656-74.648437 53.613281zm0 0"/></g><path d="m114.730469 391.570312c-11.820313 0-40.039063-.703124-80.128907-45 27.234376-30.09375 51.839844-45 80.128907-45 11.816406 0 40.039062.714844 80.140625 45-27.253906 30.09375-51.863282 45-80.140625 45zm0 0" fill="#fdbf00"/><path d="m39.335938 269.445312c-9.683594-6.777343-31.898438-23.558593-39.335938-82.835937 39.527344-8.992187 67.777344-7.101563 90.957031 9.109375 9.679688 6.78125 32.386719 23.546875 39.828125 82.824219-3.128906.289062-53.058594 17.769531-91.449218-9.097657zm0 0" fill="#fdbf00"/><path d="m103.949219 183.75c-38.78125-11.984375-62.695313-27.984375-74.648438-53.613281-4.992187-10.710938-16.269531-36.578125 6.914063-91.640625 38.777344 11.96875 62.699218 27.96875 74.648437 53.601562 4.992188 10.710938 16.265625 36.589844-6.914062 91.652344zm0 0" fill="#fdbf00"/><path d="m241 135.5h30v105h-30zm0 0" fill="#ff9f00"/><path d="m256 135.5h15v105h-15zm0 0" fill="#ff7816"/><path d="m196 210.5h120v60h-120zm0 0" fill="#799ce3"/><path d="m152.523438 30.5h58.476562l-30-30h-60v15c0 47.269531 31.832031 88.945312 77.386719 101.324219l7.882812-28.945313c-27.613281-7.5-48.164062-30.074218-53.746093-57.378906zm0 0" fill="#ff9f00"/><path d="m331 .5-30 29.988281h58.476562c-5.582031 27.304688-26.132812 49.890625-53.746093 57.390625l7.882812 28.945313c45.554688-12.378907 77.386719-54.054688 77.386719-101.324219v-15zm0 0" fill="#ff7816"/><path d="m256 210.5h60v60h-60zm0 0" fill="#485c8c"/><path d="m181 .5v75c0 41.398438 33.601562 75 75 75s75-33.601562 75-75v-75zm0 0" fill="#fdbf00"/><path d="m256 150.5v-150h75v75c0 41.398438-33.601562 75-75 75zm0 0" fill="#ff9f00"/></svg>