<svg height="512pt" viewBox="0 0 512 512" width="512pt" xmlns="http://www.w3.org/2000/svg"><path d="m512 512h-91l-77.394531-105.394531-13.507813-94.90625 45.902344-101.699219zm0 0" fill="#84bf7e"/><path d="m271 90v120h-30v-90zm0 0" fill="#799ce3"/><path d="m271 210h-15v-105l15-15zm0 0" fill="#485c8c"/><path d="m464.023438 150h-133.023438v-120h133.023438l-39.992188 60zm0 0" fill="#cc2e43"/><path d="m181.902344 311.699219-16.316406 101.039062-74.585938 99.261719h-91l136-302zm0 0" fill="#a4d95e"/><path d="m421 512h-330l90.902344-200.300781 25.796875-56.097657h96.601562l25.796875 56.097657zm0 0" fill="#bfe436"/><path d="m421 512h-165v-256.398438h48.300781l25.796875 56.097657zm0 0" fill="#a4d95e"/><path d="m241 0h120v120h-120zm0 0" fill="#ec5569"/><path d="m256 0h105v120h-105zm0 0" fill="#e63950"/><path d="m304.300781 255.601562c-13.800781 9-30.601562 14.398438-48.300781 14.398438s-34.5-5.398438-48.300781-14.398438l48.300781-105.601562zm0 0" fill="#eaeaf9"/><path d="m256 150 48.300781 105.601562c-13.800781 9-30.601562 14.398438-48.300781 14.398438zm0 0" fill="#d8d8fc"/></svg>