<svg height="512pt" viewBox="-31 0 512 512" width="512pt" xmlns="http://www.w3.org/2000/svg"><path d="m420 421v91h-210v-91l30-14h152zm0 0" fill="#799ce3"/><path d="m420 421v91h-105v-105h77zm0 0" fill="#485c8c"/><path d="m135 181h60v90h-60zm0 0" fill="#485c8c"/><path d="m450 0v349.601562l-30 71.398438h-105l-60-105-41.699219-120 101.699219 3 37.5 1.199219 29.5-79.199219v-121zm0 0" fill="#faaaaa"/><path d="m450 0v349.601562l-30 71.398438h-105v-222l37.5 1.199219 29.5-79.199219v-121zm0 0" fill="#f49898"/><path d="m150 301h-75c-41.351562 0-75-33.648438-75-75s33.648438-75 75-75h75zm0 0" fill="#d8d8fc"/><path d="m60 136h30v180h-30zm0 0" fill="#a3a3d1"/><path d="m382 121v120h-157l-45-60v-181h67v121zm0 0" fill="#fdd0d0"/><path d="m315 121h67v120h-67zm0 0" fill="#faaaaa"/><path d="m315 181v15c0 23.785156-19.441406 45-45 45h-30c41.398438 0 75 33.601562 75 75v105h-105l-30-71.398438v-168.601562zm0 0" fill="#fde4e4"/></svg>