<svg height="512pt" viewBox="-61 0 512 512.00031" width="512pt" xmlns="http://www.w3.org/2000/svg"><path d="m120 60h150v121h-150zm0 0" fill="#bfe436"/><path d="m195 60h75v121h-75zm0 0" fill="#84bf7e"/><path d="m390 287v150c0 41.398438-33.601562 75-75 75h-240c-41.398438 0-75-33.601562-75-75v-150c0-74.402344 60.601562-136 135-136h120c74.398438 0 135 61.597656 135 136zm0 0" fill="#799ce3"/><path d="m390 287v150c0 41.398438-33.601562 75-75 75h-120v-361h60c74.398438 0 135 61.597656 135 136zm0 0" fill="#485c8c"/><path d="m240 377c0 19.5-12.597656 36-30 42.300781v32.699219h-30v-32.699219c-17.402344-6.300781-30-22.800781-30-42.300781h30c0 8.398438 6.597656 15 15 15s15-6.601562 15-15c0-8.402344-6.597656-15-15-15-24.902344 0-45-20.101562-45-45 0-19.5 12.597656-36 30-42.300781v-32.699219h30v32.699219c17.402344 6.300781 30 22.800781 30 42.300781h-30c0-8.402344-6.597656-15-15-15s-15 6.597656-15 15c0 8.398438 6.597656 15 15 15 24.902344 0 45 20.097656 45 45zm0 0" fill="#bfe436"/><path d="m240 377c0 19.5-12.597656 36-30 42.300781v32.699219h-15v-60c8.402344 0 15-6.601562 15-15 0-8.402344-6.597656-15-15-15v-30c24.902344 0 45 20.097656 45 45zm0 0" fill="#84bf7e"/><path d="m240 317h-30c0-8.402344-6.597656-15-15-15v-60h15v32.699219c17.402344 6.300781 30 22.800781 30 42.300781zm0 0" fill="#84bf7e"/><path d="m300 20.566406v39.433594c0 16.5-13.5 30-30 30h-38.699219l-1.800781-25.5-34.5 21.601562-6.300781 3.898438h-68.699219c-16.5 0-30-13.5-30-30v-59.230469l20.398438 13.496094c22.800781 15 53.101562 17.703125 75.902343 2.402344 2.699219-1.800781 5.699219-3.601563 8.699219-5.097657 30.902344-16.800781 68.402344-15.300781 98.402344 4.496094zm0 0" fill="#799ce3"/><path d="m300 20.566406v39.433594c0 16.5-13.5 30-30 30h-38.699219l-1.800781-25.5-34.5 21.601562v-74.535156c30.902344-16.800781 68.402344-15.300781 98.402344 4.5zm0 0" fill="#485c8c"/><path d="m229.394531 49.394531-40.605469 40.605469h42.421876l19.394531-19.394531zm0 0" fill="#2d344a"/></svg>