<svg height="512pt" viewBox="0 0 512 512" width="512pt" xmlns="http://www.w3.org/2000/svg"><path d="m482 512h30v-181l-30-30zm0 0" fill="#2d344a"/><path d="m0 331v181h30v-211zm0 0" fill="#485c8c"/><g fill="#a4d95e"><path d="m256 0c-33 0-60 28-60 61s27 60 60 60 60-27 60-60-27-61-60-61zm0 0"/><path d="m452 121v60h-136v120h-120v-120h-135v-60zm0 0"/><path d="m316 331v120h-60v61h-60v-181l60-30zm0 0"/></g><path d="m452 121v60h-136v120h-60v-180zm0 0" fill="#84bf7e"/><path d="m256 121v-121c33 0 60 28 60 61s-27 60-60 60zm0 0" fill="#84bf7e"/><path d="m316 331v120h-60v-150zm0 0" fill="#84bf7e"/><path d="m0 241h512v90h-512zm0 0" fill="#e63950"/><path d="m256 241h256v90h-256zm0 0" fill="#cc2e43"/></svg>