<svg height="512pt" viewBox="-38 0 512 512" width="512pt" xmlns="http://www.w3.org/2000/svg"><path d="m433.800781 271-110.101562 211h-189.898438l-37.800781 30-96-96 88.199219-84h212.402343l-31.5 60h-104.101562v30h122.398438l53.101562-102.699219c15.597656-29.699219 46.199219-48.300781 79.800781-48.300781zm0 0" fill="#fde4e4"/><path d="m317.699219 198.101562-64.199219-9.300781-28.5-56.101562-28.5 56.101562-64.199219 9.300781 46.5 44.398438-10.800781 62.097656 57-29.398437 57 29.398437-10.800781-62.097656zm0 0" fill="#fdbf00"/><path d="m287.914062 169.558594 10.914063-62.121094-46.613281-44.359375 64.382812-9.152344 28.402344-53.925781 28.402344 53.925781 61.597656 9.152344-43.828125 44.355469 10.914063 62.109375-57.085938-29.296875zm0 0" fill="#ff9f00"/><path d="m47.914062 169.558594 10.914063-62.121094-43.828125-44.359375 61.597656-9.152344 28.402344-53.925781 28.402344 53.925781 64.378906 9.152344-46.609375 44.355469 10.914063 62.109375-57.085938-29.296875zm0 0" fill="#fdbf00"/><path d="m269.097656 392h-44.097656v-60h75.601562zm0 0" fill="#fdd0d0"/><path d="m282 304.601562-57-29.402343v-142.5l28.5 56.101562 64.199219 9.300781-46.5 44.398438zm0 0" fill="#ff9f00"/><path d="m433.800781 271-110.101562 211h-98.699219v-60h62.398438l53.101562-102.699219c15.597656-29.699219 46.199219-48.300781 79.800781-48.300781zm0 0" fill="#fdd0d0"/></svg>