<svg height="512pt" viewBox="0 0 512 512" width="512pt" xmlns="http://www.w3.org/2000/svg"><path d="m512 180-97.597656 320.898438-66.902344-50.398438-61.5 61.5-61.5-61.5-66.902344 50.398438-96.597656-320.898438 19.800781-15h412.597657zm0 0" fill="#eaeaf9"/><path d="m512 180-97.597656 320.898438-66.902344-50.398438-61.5 61.5v-347h207.398438zm0 0" fill="#d8d8fc"/><path d="m450.097656 180c-2.996094 34.199219-16.5 65.398438-37.199218 90.300781-3.300782 3.898438-36.296876-22.5-39.898438-19.199219-3.601562 3.898438 22.5 37.5 18.300781 40.796876-24.902343 20.703124-56.101562 34.203124-90.300781 37.203124-4.800781 0-9.902344-29.101562-15-29.101562s-10.199219 29.101562-15 29.101562c-34.199219-3-65.398438-16.5-90.300781-37.203124-3.898438-3.296876 22.199219-36.597657 18.601562-40.199219-3.601562-3.597657-36.898437 22.5-40.199219 18.601562-20.699218-24.902343-34.199218-56.101562-37.199218-90.300781 0-4.796875 29.097656-9.898438 29.097656-15 0-5.097656-29.097656-10.199219-29.097656-15 2.996094-34.199219 16.5-65.398438 37.199218-90.300781 3.597657-4.199219 36.898438 21.902343 40.800782 18.300781 3.296875-3.597656-23.101563-36.898438-19.203125-39.898438 24.902343-20.699218 56.101562-34.199218 90.300781-37.199218 4.800781 0 9.902344 29.097656 15 29.097656 5.101562 0 10.203125-29.097656 15-29.097656 34.199219 3 65.402344 16.5 90.300781 37.199218 3.898438 3.300782-22.199219 36.597657-18.601562 40.199219 3.601562 3.601563 36.902343-22.5 40.199219-18.601562 20.703124 24.902343 34.203124 56.101562 37.203124 90.300781 0 4.800781-29.101562 9.902344-29.101562 15 0 5.101562 29.097656 10.199219 29.097656 15zm0 0" fill="#fdbf00"/><path d="m286 300v-270c5.097656 0 10.199219-29.097656 15-29.097656 34.199219 2.996094 65.398438 16.5 90.300781 37.199218 3.898438 3.300782-22.199219 36.597657-18.601562 40.199219 3.601562 3.597657 36.898437-22.5 40.199219-18.601562 20.699218 24.902343 34.199218 56.101562 37.199218 90.300781 0 4.800781-29.097656 9.902344-29.097656 15s29.097656 10.199219 29.097656 15c-2.996094 34.199219-16.5 65.398438-37.199218 90.300781-3.300782 3.898438-36.296876-22.5-39.898438-19.199219-3.601562 3.898438 22.5 37.5 18.300781 40.796876-24.902343 20.703124-56.101562 34.203124-90.300781 37.203124-4.800781-.003906-9.902344-29.101562-15-29.101562zm0 0" fill="#ff7816"/><path d="m301 180v30.902344c45 3.898437 84.601562 26.398437 111.898438 59.398437-6.597657 7.800781-13.796876 15-21.597657 21.597657-21.898437-27.296876-53.703125-46.199219-90.300781-50.398438v87.597656c-4.800781.601563-9.902344.902344-15 .902344s-10.199219-.300781-15-.902344v-87.597656c-36.597656 4.199219-68.402344 23.101562-90.300781 50.398438-7.800781-6.597657-15-13.796876-21.597657-21.597657 27.296876-33 66.898438-55.5 111.898438-59.398437v-30.902344h-149.097656c-.601563-4.800781-.902344-9.902344-.902344-15s.300781-10.199219.902344-15h149.097656v-30.902344c-45-3.898437-84.601562-26.398437-111.898438-59.398437 6.597657-7.800781 13.796876-15 21.597657-21.597657 21.898437 27.296876 53.703125 46.199219 90.300781 50.398438v-87.597656c4.800781-.601563 9.902344-.902344 15-.902344s10.199219.300781 15 .902344v87.597656c36.597656-4.199219 68.402344-23.101562 90.300781-50.398438 7.800781 6.597657 15 13.796876 21.597657 21.597657-27.296876 33-66.898438 55.5-111.898438 59.398437v30.902344h149.097656c.601563 4.800781.902344 9.902344.902344 15s-.300781 10.199219-.902344 15zm0 0" fill="#fde4e4"/><path d="m301 180v30.902344c45 3.898437 84.601562 26.398437 111.898438 59.398437-6.597657 7.800781-13.796876 15-21.597657 21.597657-21.898437-27.296876-53.703125-46.199219-90.300781-50.398438v87.597656c-4.800781.601563-9.902344.902344-15 .902344v-330c5.097656 0 10.199219.300781 15 .902344v87.597656c36.597656-4.199219 68.402344-23.101562 90.300781-50.398438 7.800781 6.597657 15 13.796876 21.597657 21.597657-27.296876 33-66.898438 55.5-111.898438 59.398437v30.902344h149.097656c.601563 4.800781.902344 9.902344.902344 15s-.300781 10.199219-.902344 15zm0 0" fill="#faaaaa"/><path d="m15 150h497v30h-497zm0 0" fill="#799ce3"/><g fill="#485c8c"><path d="m286 150h226v30h-226zm0 0"/><path d="m0 15h30v482h-30zm0 0"/></g></svg>