<svg height="512pt" viewBox="-39 0 512 512" width="512pt" xmlns="http://www.w3.org/2000/svg"><path d="m255 152h-120l-120-152h120zm0 0" fill="#e63950"/><path d="m165 152h120l120-152h-120zm0 0" fill="#cc2e43"/><path d="m210 92c-57.898438 0-105 47.101562-105 105s47.101562 105 105 105 105-47.101562 105-105-47.101562-105-105-105zm0 0" fill="#fdbf00"/><path d="m210 302v-210c57.898438 0 105 47.101562 105 105s-47.101562 105-105 105zm0 0" fill="#ff9f00"/><path d="m210 122c-41.398438 0-75 33.601562-75 75s33.601562 75 75 75 75-33.601562 75-75-33.601562-75-75-75zm0 0" fill="#ff9f00"/><path d="m285 197c0 41.398438-33.601562 75-75 75v-150c41.398438 0 75 33.601562 75 75zm0 0" fill="#ff7816"/><path d="m240 212v30h-60v-30h15v-30h-15v-30h45v60zm0 0" fill="#fdbf00"/><path d="m433.800781 272-110.101562 210h-189.898438l-37.800781 30-96-96 88.199219-84h212.402343l-31.503906 60h-104.097656v30h122.398438l53.101562-101.699219c15.601562-29.699219 46.199219-48.300781 79.800781-48.300781zm0 0" fill="#fde4e4"/><path d="m269.097656 392h-59.097656v-60h90.601562zm0 0" fill="#fdd0d0"/><path d="m433.800781 272-110.101562 210h-113.699219v-60h77.398438l53.101562-101.699219c15.601562-29.699219 46.199219-48.300781 79.800781-48.300781zm0 0" fill="#fdd0d0"/><path d="m240 212v30h-30v-90h15v60zm0 0" fill="#ff9f00"/></svg>