<svg height="512pt" viewBox="-89 0 512 512" width="512pt" xmlns="http://www.w3.org/2000/svg"><path d="m256.816406 421v91h-210v-91l34-11h147zm0 0" fill="#799ce3"/><path d="m256.816406 421v91h-105v-102h76zm0 0" fill="#485c8c"/><path d="m16.816406 271v78.601562l30 71.398438h105l60-105 41.699219-120-205.210937 5.023438zm0 0" fill="#faaaaa"/><path d="m286.816406 121v60l-135 30v60h-135v-120h68v-30h67v-30h68v30zm0 0" fill="#fdd0d0"/><path d="m286.816406 121v60l-135 30v-120h68v30zm0 0" fill="#faaaaa"/><path d="m151.816406 181v15c0 23.785156 19.445313 45 45 45h30c-41.398437 0-75 33.601562-75 75v105h105l30-71.398438v-168.601562zm0 0" fill="#fde4e4"/><path d="m106.816406 0h30v61h-30zm0 0" fill="#fdbf00"/><path d="m196.816406 0h30v61h-30zm0 0" fill="#ff9f00"/><path d="m312.421875 29.179688 21.210937 21.210937-42.421874 42.421875-21.210938-21.210938zm0 0" fill="#ff9f00"/><path d="m21.210938 29.183594 42.421874 42.421875-21.210937 21.210937-42.421875-42.421875zm0 0" fill="#fdbf00"/></svg>