<svg height="512pt" viewBox="-91 0 512 512" width="512pt" xmlns="http://www.w3.org/2000/svg"><path d="m135 211c0 24.8125-20.1875 45-45 45h-32.972656l33.222656 182.679688 59.5-5.359376 32.84375-89.398437zm0 0" fill="#ff9f00"/><path d="m240 256c-24.8125 0-45-20.1875-45-45l-17.59375 102.921875 2.84375 119.398437 59.5 5.359376 33.222656-182.679688zm0 0" fill="#ff7816"/><path d="m135 151h60v300h-60zm0 0" fill="#fdbf00"/><path d="m165 151h30v300h-30zm0 0" fill="#ff9f00"/><path d="m287.699219 88.597656-84.898438-12-37.800781-76.597656-37.800781 76.597656-84.898438 12.003906 61.5 58.800782-14.402343 82.199218 75.601562-39 75.601562 39-14.402343-82.199218zm0 0" fill="#ffd400"/><path d="m240.601562 229.601562-75.601562-39v-190.601562l37.800781 76.597656 84.898438 12-61.5 58.800782zm0 0" fill="#fdbf00"/><path d="m298.5 490.398438h-267l34.199219-69.398438h198.601562zm0 0" fill="#485c8c"/><path d="m298.5 490.398438h-133.5v-69.398438h99.300781zm0 0" fill="#2d344a"/><path d="m0 482h330v30h-330zm0 0" fill="#799ce3"/><path d="m165 482h165v30h-165zm0 0" fill="#485c8c"/></svg>