<svg height="512pt" viewBox="0 0 512 512" width="512pt" xmlns="http://www.w3.org/2000/svg"><path d="m0 0h512v361h-512zm0 0" fill="#799ce3"/><path d="m256 0h256v361h-256zm0 0" fill="#485c8c"/><path d="m30 30h452v301h-452zm0 0" fill="#eaeaf9"/><g fill="#d8d8fc"><path d="m256 30h226v301h-226zm0 0"/><path d="m151 60h210v30h-210zm0 0"/><path d="m211 121h90v30h-90zm0 0"/><path d="m60 241h181v30h-181zm0 0"/><path d="m60 181h391v30h-391zm0 0"/></g><path d="m256 121h45v30h-45zm0 0" fill="#a3a3d1"/><path d="m256 60h105v30h-105zm0 0" fill="#a3a3d1"/><path d="m256 181h195v30h-195zm0 0" fill="#a3a3d1"/><path d="m421 512-75-30-75 30v-151h150zm0 0" fill="#cc2e43"/><path d="m346 421c-49.628906 0-90-40.371094-90-90s40.371094-90 90-90 90 40.371094 90 90-40.371094 90-90 90zm0 0" fill="#fdbf00"/><path d="m346 271c-33.089844 0-60 26.910156-60 60s26.910156 60 60 60 60-26.910156 60-60-26.910156-60-60-60zm0 0" fill="#ff9f00"/><path d="m346 361c-16.539062 0-30-13.460938-30-30s13.460938-30 30-30 30 13.460938 30 30-13.460938 30-30 30zm0 0" fill="#fdbf00"/></svg>