<svg height="512pt" viewBox="-26 0 512 512" width="512pt" xmlns="http://www.w3.org/2000/svg"><path d="m460.199219 439.601562-102.300781-27.300781-27.300782 99.699219-100.5-166.902344-100.496094 166.902344-27.300781-99.699219-102.300781 27.300781 105-181.800781h250.199219zm0 0" fill="#e63950"/><path d="m460.199219 439.601562-102.300781-27.300781-27.300782 99.699219-100.5-166.902344v-87.296875h125.101563zm0 0" fill="#cc2e43"/><path d="m230.097656 0c-90.898437 0-165 75.097656-165 166s74.101563 165 165 165c90.902344 0 165-74.097656 165-165s-74.097656-166-165-166zm0 0" fill="#fdbf00"/><path d="m395.097656 166c0 90.902344-74.097656 165-165 165v-331c90.902344 0 165 75.097656 165 166zm0 0" fill="#ff9f00"/><path d="m230.097656 30c-74.398437 0-135 61.601562-135 136s60.601563 135 135 135c74.398438 0 135-60.601562 135-135s-60.601562-136-135-136zm0 0" fill="#ff9f00"/><path d="m365.097656 166c0 74.398438-60.601562 135-135 135v-271c74.398438 0 135 61.601562 135 136zm0 0" fill="#ff7816"/><path d="m337.800781 135.699219-74.703125-10.5-33-65.398438-32.996094 65.398438-74.703124 10.5 54 51.601562-12.601563 72.300781 66.300781-34.203124 66.300782 34.203124-12.597657-72.300781zm0 0" fill="#fdbf00"/><path d="m283.796875 187.300781 12.601563 72.300781-66.300782-34.203124v-165.597657l33 65.398438 74.703125 10.5zm0 0" fill="#ff9f00"/></svg>