<svg height="512pt" viewBox="-61 0 512 512" width="512pt" xmlns="http://www.w3.org/2000/svg"><path d="m150 121 75 30 45-30 120-121h-120zm0 0" fill="#cc2e43"/><path d="m240 121-45 22.199219-15.902344 7.800781-59.097656-30-120-121h120zm0 0" fill="#ec5569"/><path d="m240 121-45 22.199219v-67.199219zm0 0" fill="#e63950"/><path d="m120 121h150v90h-150zm0 0" fill="#ff9f00"/><path d="m195 121h75v90h-75zm0 0" fill="#ff7816"/><path d="m195 181c-90.902344 0-165 74.097656-165 165s74.097656 166 165 166 165-75.097656 165-166-74.097656-165-165-165zm0 0" fill="#fdbf00"/><path d="m360 346c0 90.902344-74.097656 166-165 166v-331c90.902344 0 165 74.097656 165 165zm0 0" fill="#ff9f00"/><path d="m195 211c-74.398438 0-135 60.601562-135 135s60.601562 135 135 135 135-60.601562 135-135-60.601562-135-135-135zm0 0" fill="#ff9f00"/><path d="m330 346c0 74.398438-60.601562 135-135 135v-270c74.398438 0 135 60.601562 135 135zm0 0" fill="#ff7816"/><path d="m302.699219 315.699219-74.699219-10.5-33-65.398438-33 65.398438-74.699219 10.5 54 51.601562-12.601562 72.300781 66.300781-34.203124 66.300781 34.203124-12.601562-72.300781zm0 0" fill="#fdbf00"/><path d="m248.699219 367.300781 12.601562 72.300781-66.300781-34.203124v-165.597657l33 65.398438 74.699219 10.5zm0 0" fill="#ff9f00"/></svg>