<svg height="512pt" viewBox="0 0 512 512" width="512pt" xmlns="http://www.w3.org/2000/svg"><path d="m436 60c-100.800781 0-142.5-39.601562-180-60-48 36.300781-117.597656 60-180 60h-15v144.699219c0 129.902343 72.300781 245.800781 188.402344 304l6.597656 3.300781 6.898438-3.300781c116.101562-58.199219 188.101562-174.097657 188.101562-304v-144.699219zm0 0" fill="#799ce3"/><path d="m451 60v144.699219c0 129.902343-72 245.800781-188.101562 304l-6.898438 3.300781v-512c37.5 20.398438 79.199219 60 180 60zm0 0" fill="#485c8c"/><path d="m378.402344 115.199219c-40.503906-6.898438-79.203125-21-114.902344-41.699219l-7.5-4.5-7.5 4.5c-35.699219 20.699219-74.398438 34.800781-114.902344 41.699219l-12.597656 2.101562v87.398438c0 95.402343 47.402344 184 126.898438 235.902343l8.101562 5.097657 8.402344-5.097657c79.195312-51.902343 126.597656-140.800781 126.597656-235.902343v-87.398438zm0 0" fill="#eaeaf9"/><path d="m391 117.300781v87.398438c0 95.097656-47.402344 184-126.597656 235.902343l-8.402344 5.097657v-376.699219l7.5 4.5c35.699219 20.699219 74.398438 34.800781 114.902344 41.699219zm0 0" fill="#d8d8fc"/><path d="m326.5 190.898438-70.5 70.800781-15 15-55.5-55.800781 21-21 34.5 34.199218 15-15 49.5-49.199218zm0 0" fill="#a4d95e"/><path d="m0 422 30 45-30 45h151l-39.375-69.375-50.625-20.625zm0 0" fill="#cc2e43"/><path d="m61 422 90 90v-90l-31.25-30zm0 0" fill="#e63950"/><path d="m512 422-30 45 30 45h-151l45.625-75.625 44.375-14.375zm0 0" fill="#ae2538"/><path d="m451 422-90 90v-90l40-30zm0 0" fill="#cc2e43"/><path d="m326.5 190.898438-70.5 70.800781v-42.601563l49.5-49.199218zm0 0" fill="#84bf7e"/><path d="m61 332h390v90h-390zm0 0" fill="#ec5569"/><path d="m256 332h195v90h-195zm0 0" fill="#e63950"/></svg>