<svg height="512pt" viewBox="-41 0 512 512" width="512pt" xmlns="http://www.w3.org/2000/svg"><path d="m430.273438 61h-160.273438v150h160.273438l-37.5-75zm0 0" fill="#cc2e43"/><path d="m150 0h150v151h-150l-30-26.25v-97.25zm0 0" fill="#ec5569"/><path d="m90 0h60v272h-60zm0 0" fill="#485c8c"/><path d="m330 272h90v210h-90l-14-19v-160zm0 0" fill="#799ce3"/><path d="m180 512h78.601562l71.398438-30v-105l-105-60-120-41.699219 5.023438 205.214844zm0 0" fill="#faaaaa"/><path d="m90 242h-60v67h-30v68h30v67h30v68h120v-225zm0 0" fill="#fdd0d0"/><path d="m90 377h15c23.785156 0 45-19.441406 45-45v-30c0 41.398438 33.601562 75 75 75h105v-105l-71.398438-30h-168.601562zm0 0" fill="#fde4e4"/></svg>