<svg height="512pt" viewBox="0 0 512 512" width="512pt" xmlns="http://www.w3.org/2000/svg"><path d="m190.910156 469.675781-42.324218 42.324219-74.445313-74.144531-74.140625-74.445313 42.324219-42.320312 104.460937 44.125zm0 0" fill="#bfe436"/><path d="m146.785156 365.214844 44.125 104.460937-42.324218 42.324219-74.445313-74.144531zm0 0" fill="#84bf7e"/><path d="m318.785156 272.160156c-2.402344 8.703125-3.902344 18.007813-3.902344 27.613282v48.628906l-39.019531 36.324218-99.660156-39.625-3-6.304687-45.929687-102.660156 36.324218-39.019531h48.628906c9.605469 0 18.910157-1.503907 27.613282-3.902344l30.019531 48.925781zm0 0" fill="#bfe436"/><path d="m269.859375 242.140625 48.925781 30.019531c-2.402344 8.703125-3.902344 18.007813-3.902344 27.613282v48.628906l-39.019531 36.324218-99.660156-39.625-3-6.304687zm0 0" fill="#84bf7e"/><path d="m480.179688 31.820312-31.816407-31.820312-66.238281 66.238281 63.636719 63.636719 66.238281-66.238281zm0 0" fill="#799ce3"/><path d="m424.449219 151.1875-42.328125 42.625-51.328125 21.011719-16.808594-16.808594-16.8125-16.808594 21.011719-51.332031 42.628906-42.324219zm0 0" fill="#bfe436"/><path d="m392.632812 119.367188 31.816407 31.820312-42.328125 42.625-51.328125 21.011719-16.808594-16.808594zm0 0" fill="#84bf7e"/><path d="m413.933594 98.054688 66.238281-66.238282 31.820313 31.820313-66.238282 66.238281zm0 0" fill="#485c8c"/><path d="m201.570312 310.429688-74.296874-74.292969-84.949219 84.953125 74.292969 74.289062 74.292968 74.296875 84.953125-84.949219zm0 0" fill="#fdbf00"/><path d="m201.574219 310.429688 74.292969 74.292968-84.949219 84.949219-74.292969-74.292969zm0 0" fill="#ff7816"/><path d="m382.121094 193.8125-44.421875 44.125c-9.605469 9.910156-15.613281 21.613281-18.914063 34.222656h-78.945312v-78.945312c12.605468-3.304688 24.316406-9.308594 34.222656-18.914063l44.121094-44.421875 32.121094 32.113282zm0 0" fill="#fdbf00"/><path d="m382.121094 193.8125-44.421875 44.125c-9.605469 9.910156-15.613281 21.613281-18.914063 34.222656h-78.945312l110.464844-110.167968zm0 0" fill="#ff7816"/></svg>