<svg height="512pt" viewBox="0 -15 512 512" width="512pt" xmlns="http://www.w3.org/2000/svg"><path d="m466 451-87.300781 15-17.699219-2.101562-105-12.898438 30-151 45-30 30 30h75zm0 0" fill="#fdbf00"/><path d="m466 451-87.300781 15-17.699219-2.101562v-163.898438h75zm0 0" fill="#ff9f00"/><path d="m256 451-105 13.199219-14.097656 1.800781-90.902344-15 30-151h75l30-30 45 30zm0 0" fill="#fdbf00"/><path d="m256 451-105 13.199219v-164.199219l30-30 45 30zm0 0" fill="#ff9f00"/><path d="m361 300h-210l30-150h150zm0 0" fill="#fdbf00"/><path d="m361 300h-105v-150h75zm0 0" fill="#ff9f00"/><path d="m61 90h30v30h-30zm0 0" fill="#fdbf00"/><path d="m91 120h30v30h-30zm0 0" fill="#fdbf00"/><path d="m91 60h30v30h-30zm0 0" fill="#fdbf00"/><path d="m121 90h30v30h-30zm0 0" fill="#fdbf00"/><g fill="#ff9f00"><path d="m211 30h30v30h-30zm0 0"/><path d="m241 60h30v30h-30zm0 0"/><path d="m241 0h30v30h-30zm0 0"/><path d="m271 30h30v30h-30zm0 0"/><path d="m361 90h30v30h-30zm0 0"/><path d="m391 120h30v30h-30zm0 0"/><path d="m391 60h30v30h-30zm0 0"/><path d="m421 90h30v30h-30zm0 0"/></g><path d="m0 451h512v30h-512zm0 0" fill="#ec5569"/><path d="m256 451h256v30h-256zm0 0" fill="#e63950"/></svg>