<svg height="512pt" viewBox="-39 0 512 512" width="512pt" xmlns="http://www.w3.org/2000/svg"><path d="m433.898438 300h-73.898438v30l-30 15 30 15v60h-90v92h-210v-197.902344c-38.101562-34.199218-60-82.5-60-134.097656 0-99.300781 80.699219-180 180-180s180 80.699219 180 180v10.5zm0 0" fill="#fde4e4"/><path d="m433.898438 300h-73.898438v30l-30 15 30 15v60h-90v92h-90v-512c99.300781 0 180 80.699219 180 180v10.5zm0 0" fill="#fdd0d0"/><path d="m300 330v-15h-30v45h90v-30zm0 0" fill="#faaaaa"/><path d="m180 60c-66.300781 0-120 53.699219-120 120s53.699219 120 120 120 120-53.699219 120-120-53.699219-120-120-120zm0 0" fill="#a4d95e"/><path d="m300 180c0 66.300781-53.699219 120-120 120v-240c66.300781 0 120 53.699219 120 120zm0 0" fill="#84bf7e"/><path d="m235.5 160.5-55.5 55.800781-15 15-40.5-40.800781 21-21 19.5 19.199219 15-15 34.5-34.199219zm0 0" fill="#eaeaf9"/><path d="m235.5 160.5-55.5 55.800781v-42.601562l34.5-34.199219zm0 0" fill="#d8d8fc"/></svg>