<svg height="512pt" viewBox="-7 0 512 512" width="512pt" xmlns="http://www.w3.org/2000/svg"><path d="m430.5 311.5-45 45h-21l-45-45 21-21 34.5 34.199219 34.5-34.199219zm0 0" fill="#a4d95e"/><path d="m409.5 290.5 21 21-45 45h-10.5v-31.800781zm0 0" fill="#84bf7e"/><path d="m360 256h30v90h-30zm0 0" fill="#bfe436"/><path d="m375 256h15v90h-15zm0 0" fill="#a4d95e"/><path d="m90 271h30v75h-30zm0 0" fill="#bfe436"/><path d="m105 271h15v75h-15zm0 0" fill="#a4d95e"/><path d="m210 331-30 181h-150l-30-181zm0 0" fill="#eaeaf9"/><path d="m210 331-30 181h-75v-181zm0 0" fill="#d8d8fc"/><path d="m480 331-30 181h-150l-30-181zm0 0" fill="#eaeaf9"/><path d="m480 331-30 181h-75v-181zm0 0" fill="#d8d8fc"/><path d="m465.699219 136c27.300781-17.101562 39.601562-46.199219 27.300781-67.5-6.601562-11.101562-18.898438-18.300781-34.199219-19.199219-12-.902343-26.5 2.398438-39.101562 9-.898438-32.402343-20.097657-58.300781-44.699219-58.300781s-43.800781 25.898438-44.699219 58.300781c-12.300781-6.601562-25.800781-9.902343-38.101562-9-15.300781.898438-27.597657 8.097657-34.199219 19.199219-12.300781 21.296875 0 50.398438 27.300781 67.5-27.300781 17.097656-39.601562 46.199219-27.300781 67.5 7.800781 13.199219 22.5 19.496094 37.800781 19.496094 11.398438 0 23.398438-3.597656 34.5-9.597656.898438 32.402343 20.097657 57.601562 44.699219 57.601562s43.800781-25.203125 44.699219-57.601562c11.101562 6 24.101562 9.597656 35.5 9.597656 15.300781 0 30-6.296875 37.800781-19.496094 12.300781-21.300781 0-50.398438-27.300781-67.5zm0 0" fill="#e63950"/><path d="m493 203.5c-7.800781 13.199219-22.5 19.5-37.800781 19.5-11.398438 0-24.398438-3.601562-35.5-9.601562-.898438 32.402343-20.097657 57.601562-44.699219 57.601562v-271c24.601562 0 43.800781 25.898438 44.699219 58.300781 12.601562-6.601562 27.101562-9.902343 39.101562-9 15.300781.898438 27.597657 8.097657 34.199219 19.199219 12.300781 21.296875 0 50.398438-27.300781 67.5 27.300781 17.101562 39.601562 46.199219 27.300781 67.5zm0 0" fill="#cc2e43"/><path d="m375 91c-24.902344 0-45 20.097656-45 45 0 24.898438 20.097656 45 45 45s45-20.101562 45-45c0-24.902344-20.097656-45-45-45zm0 0" fill="#fdbf00"/><path d="m420 136c0 24.898438-20.097656 45-45 45v-90c24.902344 0 45 20.097656 45 45zm0 0" fill="#ff9f00"/></svg>