<svg xmlns="http://www.w3.org/2000/svg" viewBox="0 0 511.995 511.995"><path d="M411.76 134.849a8.614 8.614 0 01-4.803-1.454 94.03 94.03 0 00-52.31-15.853H157.391a94.045 94.045 0 00-52.354 15.853 8.718 8.718 0 01-8.653.545L61.77 116.633l7.736-15.49 30.287 15.126a111.303 111.303 0 0157.598-16.035h197.256a111.341 111.341 0 0157.658 16.035l30.244-15.126 7.736 15.49-34.614 17.307a8.63 8.63 0 01-3.911.909z" fill="#91562f"/><path d="M377.146 506.948H134.849c0-19.116 15.498-34.614 34.614-34.614h173.069c19.116 0 34.614 15.498 34.614 34.614z" fill="#f9b44d"/><path d="M342.532 472.334h-69.228c19.116 0 34.614 15.498 34.614 34.614h69.228c0-19.116-15.498-34.614-34.614-34.614z" fill="#fa982f"/><path fill="#f9b44d" d="M307.918 472.334H204.076l34.614-34.614h34.614z"/><path fill="#91562f" d="M238.69 74.274h34.614V437.72H238.69z"/><path d="M273.304 74.274H238.69l-8.913-35.644c-3.626-14.477 5.175-29.154 19.661-32.779a27.042 27.042 0 016.559-.805c14.927 0 27.025 12.098 27.025 27.025 0 2.215-.268 4.413-.805 6.559l-8.913 35.644z" fill="#f9b44d"/><path d="M255.997 5.047c-2.76.043-5.495.511-8.117 1.385 13.603 4.258 21.539 18.371 18.103 32.2l-8.904 35.644h16.225l8.913-35.644c3.626-14.477-5.175-29.154-19.661-32.779a27.325 27.325 0 00-6.559-.806z" fill="#fa982f"/><path fill="#f9b44d" d="M212.73 65.621h86.535v17.307H212.73z"/><path d="M183.949 312.314l-83.714-182.657-83.714 182.657c-1.99 4.344-7.13 6.248-11.475 4.258-4.344-1.99-6.248-7.13-4.258-11.474l91.58-199.817c1.99-4.344 7.13-6.248 11.475-4.257a8.644 8.644 0 014.258 4.257l91.58 199.817c1.99 4.344.087 9.484-4.258 11.474-4.344 1.999-9.476.086-11.474-4.258zm311.525 0L411.76 129.657l-83.714 182.657c-1.99 4.344-7.13 6.248-11.475 4.258-4.344-1.99-6.248-7.13-4.258-11.474l91.58-199.817c1.99-4.344 7.13-6.248 11.474-4.257a8.644 8.644 0 014.258 4.257l91.58 199.817c1.99 4.344.087 9.484-4.258 11.474-4.343 1.999-9.475.086-11.473-4.258z" fill="#f0e4d6"/><path d="M316.572 316.572h190.376c0 28.678-23.243 51.921-51.921 51.921h-86.535c-28.668-.001-51.92-23.244-51.92-51.921z" fill="#f9b44d"/><path d="M455.027 316.572c0 28.678-23.243 51.921-51.921 51.921h51.921c28.678 0 51.921-23.243 51.921-51.921h-51.921z" fill="#fa982f"/><path d="M5.047 316.572h190.376c0 28.678-23.243 51.921-51.921 51.921H56.967c-28.668-.001-51.92-23.244-51.92-51.921z" fill="#f9b44d"/><path d="M143.502 316.572c0 28.678-23.243 51.921-51.921 51.921h51.921c28.678 0 51.921-23.243 51.921-51.921h-51.921z" fill="#fa982f"/></svg>