<svg xmlns="http://www.w3.org/2000/svg" viewBox="0 0 512 512"><path d="M255.113 154.224c-42.519 0-77.112-34.592-77.112-77.112S212.594 0 255.113 0s77.112 34.592 77.112 77.112-34.592 77.112-77.112 77.112zm0-138.825c-34.029 0-61.713 27.685-61.713 61.713s27.684 61.713 61.713 61.713 61.713-27.685 61.713-61.713-27.684-61.713-61.713-61.713z" fill="#c1e2ff"/><path d="M390.58 210.954l-20.455-20.455 13.507-13.507c4.695-4.695 12.307-4.695 17.002 0l3.453 3.453c4.695 4.695 4.695 12.307 0 17.002l-13.507 13.507z" fill="#4e6284"/><path d="M407.239 186.753c-7.46 7.46-19.555 7.46-27.015 0l-3.177-3.177-6.923 6.923 20.455 20.455 13.507-13.507a12.006 12.006 0 003.289-10.845c-.046.049-.087.103-.136.151z" fill="#213244"/><path d="M119.008 211.341l-13.582-13.582c-4.741-4.741-4.741-12.428 0-17.169l3.515-3.515c4.741-4.741 12.428-4.741 17.169 0l13.582 13.582-20.684 20.684z" fill="#4e6284"/><path d="M134.166 185.132l-2.474 2.474c-7.501 7.501-19.663 7.501-27.164 0a12.124 12.124 0 01-1.93-2.538c-1.538 4.285-.604 9.258 2.829 12.691l13.582 13.582 20.683-20.683-5.526-5.526zM240.65 117.27h28.928v32.594H240.65z" fill="#213244"/><circle cx="256" cy="329.63" r="182.37" fill="#0098ff"/><path d="M73.703 332.435C75.203 431.86 156.254 512 256.035 512c99.782 0 180.833-80.14 182.333-179.565H73.703z" fill="#0073d1"/><path d="M277.267 118.945H232.96a9.432 9.432 0 01-9.432-9.432V91.167a9.432 9.432 0 019.432-9.432h44.307a9.432 9.432 0 019.432 9.432v18.346a9.432 9.432 0 01-9.432 9.432z" fill="#4e6284"/><path d="M277.267 81.735h-17.122a9.432 9.432 0 019.432 9.432v18.346a9.432 9.432 0 01-9.432 9.432h17.122c5.21 0 9.433-4.223 9.433-9.432V91.167c-.001-5.209-4.224-9.432-9.433-9.432z" fill="#213244"/><circle cx="255.11" cy="329.63" r="162.24" fill="#0073d1"/><path d="M417.277 332.435H92.878c1.497 88.306 73.537 159.432 162.199 159.432s160.702-71.127 162.2-159.432z" fill="#0098ff"/><circle cx="256.04" cy="329.63" r="147.35" fill="#ffdfac"/><path d="M347.65 214.222c19.382 24.947 30.929 56.285 30.929 90.323 0 81.381-65.972 147.354-147.354 147.354-34.628 0-66.462-11.951-91.615-31.944 26.959 34.699 69.081 57.031 116.425 57.031 81.381 0 147.354-65.973 147.354-147.354 0-46.753-21.778-88.415-55.739-115.41z" fill="#fbce7d"/><g fill="#4e6284"><circle cx="256.04" cy="329.63" r="19.21"/><path d="M256.031 335.384a7.665 7.665 0 01-4.931-1.79l-80.072-66.878a7.7 7.7 0 019.871-11.819l80.072 66.878a7.699 7.699 0 01-4.94 13.609z"/><path d="M256.035 335.384a7.698 7.698 0 01-7.699-7.699v-78.01a7.7 7.7 0 0115.398 0v78.01a7.698 7.698 0 01-7.699 7.699z"/></g><g fill="#213244"><circle cx="141.74" cy="329.63" r="7.699"/><circle cx="370.88" cy="329.63" r="7.699"/><circle cx="256.04" cy="215.06" r="7.699"/><circle cx="256.04" cy="444.2" r="7.699"/></g></svg>