<svg height="512" viewBox="0 0 497 497" width="512" xmlns="http://www.w3.org/2000/svg"><path d="M404.655 29.28c-3.113 0-6.11.492-8.922 1.397l-11.895 90.043 41.453-41.529a29.173 29.173 0 008.547-20.674c0-16.147-13.066-29.237-29.183-29.237z" fill="#1c77db"/><path d="M403.838 58.517c0-13.029-3.404-24.063-8.105-27.84a29.19 29.19 0 00-11.895 7.357c-5.295-5.401-12.664-8.754-20.817-8.754-16.117 0-29.183 13.09-29.183 29.237a29.173 29.173 0 008.547 20.674l41.453 41.529 16.581-41.529c2.112-5.291 3.419-12.6 3.419-20.674z" fill="#1e8aff"/><path d="M269.317 29.28c-3.113 0-6.11.492-8.922 1.397L248.5 120.72l41.452-41.529a29.173 29.173 0 008.547-20.674c.001-16.147-13.065-29.237-29.182-29.237z" fill="#b33e78"/><path d="M268.5 58.517c0-13.029-3.404-24.063-8.105-27.84a29.19 29.19 0 00-11.895 7.357c-5.295-5.401-12.664-8.754-20.817-8.754-16.117 0-29.183 13.09-29.183 29.237a29.173 29.173 0 008.547 20.674L248.5 120.72l16.581-41.529c2.112-5.291 3.419-12.6 3.419-20.674z" fill="#ff2b59"/><path d="M133.322 29.28c-3.113 0-6.11.492-8.922 1.397l-11.895 90.043 41.453-41.529a29.173 29.173 0 008.547-20.674c-.001-16.147-13.066-29.237-29.183-29.237z" fill="#ffb739"/><path d="M132.504 58.517c0-13.029-3.404-24.063-8.105-27.84a29.19 29.19 0 00-11.895 7.357c-5.295-5.401-12.664-8.754-20.817-8.754-16.117 0-29.183 13.09-29.183 29.237a29.173 29.173 0 008.547 20.674l41.453 41.529 16.581-41.529c2.113-5.291 3.419-12.6 3.419-20.674zM30 150.72v-75c0-8.284-6.716-15-15-15s-15 6.716-15 15v75c0 16.569 13.431 30 30 30h60v-30z" fill="#ffd17e"/><path d="M467 150.72v-75c0-8.284 6.716-15 15-15s15 6.716 15 15v75c0 16.569-13.431 30-30 30h-60v-30z" fill="#1e8aff"/><path d="M165.667 302.731l30-152.011H90c-16.569 0-30 13.431-30 30v267.63c0 10.257 7.976 18.993 18.227 19.358 10.762.383 19.606-8.228 19.606-18.904V302.731h30V448.35c0 10.257 7.976 18.993 18.227 19.358 10.762.383 19.606-8.228 19.606-18.904z" fill="#ffd17e"/><path d="M301.333 150.72l30 152.011.001 145.619c0 10.257 7.976 18.993 18.227 19.358 10.762.383 19.606-8.228 19.606-18.904V302.731h30V448.35c0 10.257 7.976 18.993 18.227 19.358 10.761.382 19.606-8.228 19.606-18.905V180.72c0-16.569-13.431-30-30-30z" fill="#1e8aff"/><path d="M301.333 150.72h-30l30 152.511c0 8.28 6.71 14.5 15 14.5 8.28 0 15-6.22 15-14.5V180.72c0-16.5-13.5-30-30-30z" fill="#b33e78"/><path d="M195.667 150.72h30l-30 152.011c0 8.28-6.72 15-15 15s-15-6.72-15-15V180.72c0-16.5 13.5-30 30-30z" fill="#ff4e51"/><path d="M301.333 180.72c0-16.5-13.5-30-30-30h-45.667c-16.5 0-30 13.5-30 30v268.084c0 10.447 8.469 18.916 18.917 18.916 10.447 0 18.917-8.469 18.917-18.916V302.731h30v146.073c0 10.447 8.469 18.916 18.917 18.916 10.447 0 18.916-8.469 18.916-18.916z" fill="#ff2b59"/></svg>