<svg id="Capa_1" enable-background="new 0 0 497 497" height="512" viewBox="0 0 497 497" width="512" xmlns="http://www.w3.org/2000/svg"><g><path d="m404.655 29.28c-3.113 0-6.11.492-8.922 1.397l-11.895 90.043 41.453-41.529c5.281-5.291 8.547-12.6 8.547-20.674 0-16.147-13.066-29.237-29.183-29.237z" fill="#1c77db"/><path d="m403.838 58.517c0-13.029-3.404-24.063-8.105-27.84-4.554 1.465-8.622 4.019-11.895 7.357-5.295-5.401-12.664-8.754-20.817-8.754-16.117 0-29.183 13.09-29.183 29.237 0 8.074 3.266 15.383 8.547 20.674l41.453 41.529 16.581-41.529c2.112-5.291 3.419-12.6 3.419-20.674z" fill="#1e8aff"/><path d="m269.317 29.28c-3.113 0-6.11.492-8.922 1.397l-11.895 90.043 41.452-41.529c5.281-5.291 8.547-12.6 8.547-20.674.001-16.147-13.065-29.237-29.182-29.237z" fill="#b33e78"/><path d="m268.5 58.517c0-13.029-3.404-24.063-8.105-27.84-4.554 1.465-8.622 4.019-11.895 7.357-5.295-5.401-12.664-8.754-20.817-8.754-16.117 0-29.183 13.09-29.183 29.237 0 8.074 3.266 15.383 8.547 20.674l41.453 41.529 16.581-41.529c2.112-5.291 3.419-12.6 3.419-20.674z" fill="#ff2b59"/><path d="m133.322 29.28c-3.113 0-6.11.492-8.922 1.397l-11.895 90.043 41.453-41.529c5.281-5.291 8.547-12.6 8.547-20.674-.001-16.147-13.066-29.237-29.183-29.237z" fill="#ffb739"/><path d="m132.504 58.517c0-13.029-3.404-24.063-8.105-27.84-4.554 1.465-8.622 4.019-11.895 7.357-5.295-5.401-12.664-8.754-20.817-8.754-16.117 0-29.183 13.09-29.183 29.237 0 8.074 3.266 15.383 8.547 20.674l41.453 41.529 16.581-41.529c2.113-5.291 3.419-12.6 3.419-20.674z" fill="#ffd17e"/><path d="m30 150.72v-75c0-8.284-6.716-15-15-15s-15 6.716-15 15v75c0 16.569 13.431 30 30 30h60v-30z" fill="#ffd17e"/><path d="m467 150.72v-75c0-8.284 6.716-15 15-15s15 6.716 15 15v75c0 16.569-13.431 30-30 30h-60v-30z" fill="#1e8aff"/><path d="m165.667 302.731 30-152.011h-105.667c-16.569 0-30 13.431-30 30v267.63c0 10.257 7.976 18.993 18.227 19.358 10.762.383 19.606-8.228 19.606-18.904v-146.073h30v145.619c0 10.257 7.976 18.993 18.227 19.358 10.762.383 19.606-8.228 19.606-18.904z" fill="#ffd17e"/><path d="m301.333 150.72 30 152.011.001 145.619c0 10.257 7.976 18.993 18.227 19.358 10.762.383 19.606-8.228 19.606-18.904v-146.073h30v145.619c0 10.257 7.976 18.993 18.227 19.358 10.761.382 19.606-8.228 19.606-18.905v-268.083c0-16.569-13.431-30-30-30z" fill="#1e8aff"/><path d="m301.333 150.72h-30l30 152.511c0 8.28 6.71 14.5 15 14.5 8.28 0 15-6.22 15-14.5v-122.511c0-16.5-13.5-30-30-30z" fill="#b33e78"/><path d="m195.667 150.72h30l-30 152.011c0 8.28-6.72 15-15 15s-15-6.72-15-15v-122.011c0-16.5 13.5-30 30-30z" fill="#ff4e51"/><path d="m301.333 180.72c0-16.5-13.5-30-30-30h-45.667c-16.5 0-30 13.5-30 30v268.084c0 10.447 8.469 18.916 18.917 18.916 10.447 0 18.917-8.469 18.917-18.916v-146.073h30v146.073c0 10.447 8.469 18.916 18.917 18.916 10.447 0 18.916-8.469 18.916-18.916z" fill="#ff2b59"/></g></svg>