<?xml version="1.0" encoding="iso-8859-1"?>
<!-- Generator: Adobe Illustrator 19.0.0, SVG Export Plug-In . SVG Version: 6.00 Build 0)  -->
<svg xmlns="http://www.w3.org/2000/svg" xmlns:xlink="http://www.w3.org/1999/xlink" version="1.1" id="Layer_1" x="0px" y="0px" viewBox="0 0 512 512" style="enable-background:new 0 0 512 512;" xml:space="preserve">
<path style="fill:#b17902;" d="M162.625,9.322v16.503c0,32.274,26.163,58.437,58.437,58.437h69.873  c32.274,0,58.437-26.163,58.437-58.437V9.322c0-5.149,4.174-9.322,9.322-9.322h16.021c5.871,0,10.28,5.361,9.147,11.122  l-25.347,128.839l-84.177,61.074h-50.512l-75.797-68.163L127.75,10.851C126.806,5.17,131.188,0,136.947,0h16.356  C158.452,0,162.625,4.174,162.625,9.322z"/>
<path style="fill:#fdc64e;" d="M358.695,0c-5.149,0-9.322,4.174-9.322,9.322v62.346c0,12.742-2.552,24.888-7.174,35.955  c-14.082,33.721-47.373,57.418-86.2,57.418l0,0c-51.569,0-93.374-41.805-93.374-93.374V9.322c0-5.149-4.174-9.322-9.322-9.322  H135.27c-5.149,0-9.322,4.174-9.322,9.322v92.261c0,23.749-19.252,43.002-43.002,43.002l0,0v345.396  c0,12.161,9.858,22.019,22.019,22.019h302.07c12.161,0,22.019-9.858,22.019-22.019V144.585c-23.749,0-43.002-19.253-43.002-43.002  V9.322c0-5.149-4.174-9.322-9.322-9.322H358.695z"/>
<path style="fill:#FDB927;" d="M403.017,135.801v7.27c0,176.771-143.301,320.071-320.071,320.071l0,0v26.839  c0,12.161,9.858,22.019,22.019,22.019h302.07c12.161,0,22.019-9.858,22.019-22.019V144.585  C419.264,144.585,410.244,141.309,403.017,135.801z"/>
<path style="fill:#8e4ccc;" d="M386.027,512h21.007c12.161,0,22.019-9.858,22.019-22.019V144.585  c-23.749,0-43.002-19.253-43.002-43.002L386.027,512z"/>
<path style="fill:#552583;" d="M403.017,135.801v7.271c0,36.073-5.973,70.75-16.974,103.102L386.029,512h21.005  c12.161,0,22.019-9.858,22.019-22.019V144.585c-9.788,0-18.808-3.276-26.035-8.784L403.017,135.801z"/>
<g>
	<path style="fill:#552583;" d="M125.947,101.583c0,23.749-19.252,43.002-43.002,43.002v345.396   c0,12.161,9.858,22.019,22.019,22.019h21.03L125.947,101.583z"/>
	<path style="fill:#552583;" d="M269.412,427.668h-26.576c-13.374,0-23.61-3.685-30.713-11.063   c-7.106-7.374-10.655-18.249-10.655-32.629v-12.883c0-17.176,5.515-28.471,16.547-33.889   c-11.031-5.041-16.547-16.428-16.547-34.169v-12.043c0-14.376,3.549-25.206,10.655-32.488c7.103-7.282,17.339-10.923,30.713-10.923   h26.576c13.201,0,23.355,3.641,30.461,10.923c7.103,7.282,10.656,18.113,10.656,32.488v12.043c0,8.779-1.504,16.244-4.513,22.406   c-3.009,6.161-6.937,10.082-11.784,11.763c10.863,4.858,16.296,16.244,16.296,34.169v12.603c0,14.38-3.553,25.255-10.656,32.629   C292.767,423.983,282.614,427.668,269.412,427.668z M249.15,392.938h13.949c4.375,0,7.452-0.992,9.231-2.979   c1.775-1.984,2.666-5.345,2.666-10.082v-10.541c0-4.887-0.891-8.478-2.666-10.77c-1.779-2.292-4.856-3.437-9.231-3.437H249.15   c-4.378,0-7.455,1.146-9.23,3.437c-1.779,2.292-2.667,5.883-2.667,10.77v10.541c0,4.737,0.888,8.099,2.667,10.082   C241.695,391.947,244.772,392.938,249.15,392.938z M249.025,316.505h13.949c4.375,0,7.452-0.992,9.231-2.979   c1.775-1.984,2.666-5.345,2.666-10.082v-10.541c0-4.887-0.891-8.478-2.666-10.77c-1.779-2.292-4.856-3.437-9.231-3.437h-13.949   c-4.378,0-7.455,1.146-9.23,3.437c-1.779,2.292-2.667,5.883-2.667,10.77v10.541c0,4.737,0.888,8.099,2.667,10.082   C241.57,315.513,244.647,316.505,249.025,316.505z"/>
</g>
<g>
</g>
<g>
</g>
<g>
</g>
<g>
</g>
<g>
</g>
<g>
</g>
<g>
</g>
<g>
</g>
<g>
</g>
<g>
</g>
<g>
</g>
<g>
</g>
<g>
</g>
<g>
</g>
<g>
</g>
</svg>
