<svg xmlns="http://www.w3.org/2000/svg" viewBox="0 0 512 512"><path d="M162.625 9.322v16.503c0 32.274 26.163 58.437 58.437 58.437h69.873c32.274 0 58.437-26.163 58.437-58.437V9.322A9.322 9.322 0 01358.694 0h16.021c5.871 0 10.28 5.361 9.147 11.122l-25.347 128.839-84.177 61.074h-50.512l-75.797-68.163L127.75 10.851C126.806 5.17 131.188 0 136.947 0h16.356a9.322 9.322 0 019.322 9.322z" fill="#b17902"/><path d="M358.695 0a9.322 9.322 0 00-9.322 9.322v62.346c0 12.742-2.552 24.888-7.174 35.955-14.082 33.721-47.373 57.418-86.2 57.418-51.569 0-93.374-41.805-93.374-93.374V9.322A9.322 9.322 0 00153.303 0H135.27a9.322 9.322 0 00-9.322 9.322v92.261c0 23.749-19.252 43.002-43.002 43.002v345.396c0 12.161 9.858 22.019 22.019 22.019h302.07c12.161 0 22.019-9.858 22.019-22.019V144.585c-23.749 0-43.002-19.253-43.002-43.002V9.322A9.322 9.322 0 00376.73 0h-18.035z" fill="#fdc64e"/><path d="M403.017 135.801v7.27c0 176.771-143.301 320.071-320.071 320.071v26.839c0 12.161 9.858 22.019 22.019 22.019h302.07c12.161 0 22.019-9.858 22.019-22.019V144.585c-9.79 0-18.81-3.276-26.037-8.784z" fill="#fdb927"/><path d="M386.027 512h21.007c12.161 0 22.019-9.858 22.019-22.019V144.585c-23.749 0-43.002-19.253-43.002-43.002L386.027 512z" fill="#8e4ccc"/><path d="M403.017 135.801v7.271c0 36.073-5.973 70.75-16.974 103.102L386.029 512h21.005c12.161 0 22.019-9.858 22.019-22.019V144.585a42.8 42.8 0 01-26.035-8.784h-.001zM125.947 101.583c0 23.749-19.252 43.002-43.002 43.002v345.396c0 12.161 9.858 22.019 22.019 22.019h21.03l-.047-410.417zm143.465 326.085h-26.576c-13.374 0-23.61-3.685-30.713-11.063-7.106-7.374-10.655-18.249-10.655-32.629v-12.883c0-17.176 5.515-28.471 16.547-33.889-11.031-5.041-16.547-16.428-16.547-34.169v-12.043c0-14.376 3.549-25.206 10.655-32.488 7.103-7.282 17.339-10.923 30.713-10.923h26.576c13.201 0 23.355 3.641 30.461 10.923 7.103 7.282 10.656 18.113 10.656 32.488v12.043c0 8.779-1.504 16.244-4.513 22.406-3.009 6.161-6.937 10.082-11.784 11.763 10.863 4.858 16.296 16.244 16.296 34.169v12.603c0 14.38-3.553 25.255-10.656 32.629-7.105 7.378-17.258 11.063-30.46 11.063zm-20.262-34.73h13.949c4.375 0 7.452-.992 9.231-2.979 1.775-1.984 2.666-5.345 2.666-10.082v-10.541c0-4.887-.891-8.478-2.666-10.77-1.779-2.292-4.856-3.437-9.231-3.437H249.15c-4.378 0-7.455 1.146-9.23 3.437-1.779 2.292-2.667 5.883-2.667 10.77v10.541c0 4.737.888 8.099 2.667 10.082 1.775 1.988 4.852 2.979 9.23 2.979zm-.125-76.433h13.949c4.375 0 7.452-.992 9.231-2.979 1.775-1.984 2.666-5.345 2.666-10.082v-10.541c0-4.887-.891-8.478-2.666-10.77-1.779-2.292-4.856-3.437-9.231-3.437h-13.949c-4.378 0-7.455 1.146-9.23 3.437-1.779 2.292-2.667 5.883-2.667 10.77v10.541c0 4.737.888 8.099 2.667 10.082 1.775 1.987 4.852 2.979 9.23 2.979z" fill="#552583"/></svg>