<svg xmlns="http://www.w3.org/2000/svg" viewBox="0 0 512 512"><path d="M412.765 512H99.235c-14.057 0-25.453-11.396-25.453-25.453V62.143c0-14.057 11.396-25.453 25.453-25.453h313.53c14.057 0 25.453 11.396 25.453 25.453v424.404c0 14.057-11.395 25.453-25.453 25.453z" fill="#0098ff"/><path d="M412.765 36.69H353.56c14.057 0 25.453 11.396 25.453 25.453v424.404c0 14.057-11.396 25.453-25.453 25.453h59.205c14.057 0 25.453-11.396 25.453-25.453V62.143c0-14.057-11.395-25.453-25.453-25.453z" fill="#0073d1"/><path d="M396.483 482.123H115.517a8.715 8.715 0 01-8.715-8.715V78.954a8.715 8.715 0 018.715-8.715h280.967a8.715 8.715 0 018.715 8.715v394.454a8.715 8.715 0 01-8.716 8.715z" fill="#c1e2ff"/><path d="M396.586 70.239h-17.47v411.884h17.47a8.715 8.715 0 008.715-8.715V78.954a8.715 8.715 0 00-8.715-8.715zm-79.649 36.399H187.238c-10.798 0-19.552-8.754-19.552-19.552v-56.18c0-10.798 8.754-19.552 19.552-19.552h129.699c10.798 0 19.552 8.754 19.552 19.552v56.18c0 10.798-8.754 19.552-19.552 19.552z" fill="#97ceff"/><path d="M316.937 95.284H187.238c-10.798 0-19.552-8.754-19.552-19.552v-56.18C167.686 8.754 176.439 0 187.238 0h129.699c10.798 0 19.552 8.754 19.552 19.552v56.18c0 10.798-8.754 19.552-19.552 19.552z" fill="#fcd872"/><path d="M316.937 0h-33.723c10.798 0 19.552 8.754 19.552 19.552v56.18c0 10.798-8.754 19.552-19.552 19.552h33.723c10.798 0 19.552-8.754 19.552-19.552v-56.18C336.489 8.754 327.735 0 316.937 0z" fill="#fac231"/><g fill="#45d28a"><circle cx="158.86" cy="384.96" r="18.12"/><circle cx="336.49" cy="421.9" r="18.12"/><circle cx="244.17" cy="251.04" r="18.12"/><circle cx="163.81" cy="168.95" r="18.12"/><circle cx="269.59" cy="150.83" r="18.12"/></g><g fill="#4e6284"><circle cx="302.77" cy="47.642" r="7.921"/><circle cx="252.09" cy="47.642" r="7.921"/><circle cx="204.72" cy="47.642" r="7.921"/><path d="M284.988 431.884c-27.683 0-50.205-22.522-50.205-50.205v-80.257a7.921 7.921 0 0115.842 0v80.257c0 18.948 15.415 34.363 34.363 34.363a7.921 7.921 0 010 15.842z"/><path d="M269.586 336.225a7.898 7.898 0 01-5.601-2.32l-21.281-21.281-21.281 21.281a7.922 7.922 0 01-11.202-11.202l26.882-26.882a7.922 7.922 0 0111.202 0l26.882 26.882a7.92 7.92 0 010 11.202 7.896 7.896 0 01-5.601 2.32z"/></g><g fill="#213244"><path d="M271.428 392.88h-66.124a7.921 7.921 0 010-15.842h66.124c31.507 0 57.14-25.633 57.14-57.14v-31.916a7.921 7.921 0 0115.842 0v31.916c0 40.242-32.739 72.982-72.982 72.982z"/><path d="M363.371 322.785a7.9 7.9 0 01-5.601-2.32l-21.281-21.281-21.281 21.281a7.922 7.922 0 01-11.202-11.202l26.882-26.882a7.922 7.922 0 0111.202 0l26.882 26.882a7.92 7.92 0 01-5.601 13.522z"/></g><g fill="#ff5c5c"><path d="M354.606 251.063a7.9 7.9 0 01-5.601-2.32l-14.56-14.56-14.56 14.56a7.922 7.922 0 01-11.202-11.202l20.161-20.161a7.922 7.922 0 0111.202 0l20.162 20.161a7.92 7.92 0 01-5.602 13.522z"/><path d="M334.444 230.902a7.918 7.918 0 01-5.601-2.32l-20.161-20.162c-3.094-3.094-3.094-8.109 0-11.202s8.109-3.094 11.202 0l14.56 14.56 14.56-14.56a7.922 7.922 0 0111.202 11.202l-20.162 20.162a7.918 7.918 0 01-5.6 2.32z"/></g></svg>