<?xml version="1.0" encoding="iso-8859-1"?>
<!-- Generator: Adobe Illustrator 19.0.0, SVG Export Plug-In . SVG Version: 6.00 Build 0)  -->
<svg xmlns="http://www.w3.org/2000/svg" xmlns:xlink="http://www.w3.org/1999/xlink" version="1.1" id="Layer_1" x="0px" y="0px" viewBox="0 0 512 512" style="enable-background:new 0 0 512 512;" xml:space="preserve">
<path style="fill:#0098FF;" d="M412.765,512H99.235c-14.057,0-25.453-11.396-25.453-25.453V62.143  c0-14.057,11.396-25.453,25.453-25.453h313.53c14.057,0,25.453,11.396,25.453,25.453v424.404  C438.218,500.604,426.823,512,412.765,512z"/>
<path style="fill:#0073D1;" d="M412.765,36.69H353.56c14.057,0,25.453,11.396,25.453,25.453v424.404  c0,14.057-11.396,25.453-25.453,25.453h59.205c14.057,0,25.453-11.396,25.453-25.453V62.143  C438.218,48.086,426.823,36.69,412.765,36.69z"/>
<path style="fill:#C1E2FF;" d="M396.483,482.123H115.517c-4.813,0-8.715-3.902-8.715-8.715V78.954c0-4.813,3.902-8.715,8.715-8.715  h280.967c4.813,0,8.715,3.902,8.715,8.715v394.454C405.199,478.221,401.297,482.123,396.483,482.123z"/>
<g>
	<path style="fill:#97CEFF;" d="M396.586,70.239h-17.47v411.884h17.47c4.813,0,8.715-3.902,8.715-8.715V78.954   C405.301,74.141,401.399,70.239,396.586,70.239z"/>
	<path style="fill:#97CEFF;" d="M316.937,106.638H187.238c-10.798,0-19.552-8.754-19.552-19.552v-56.18   c0-10.798,8.754-19.552,19.552-19.552h129.699c10.798,0,19.552,8.754,19.552,19.552v56.18   C336.489,97.884,327.735,106.638,316.937,106.638z"/>
</g>
<path style="fill:#FCD872;" d="M316.937,95.284H187.238c-10.798,0-19.552-8.754-19.552-19.552v-56.18  C167.686,8.754,176.439,0,187.238,0h129.699c10.798,0,19.552,8.754,19.552,19.552v56.18  C336.489,86.53,327.735,95.284,316.937,95.284z"/>
<path style="fill:#FAC231;" d="M316.937,0h-33.723c10.798,0,19.552,8.754,19.552,19.552v56.18c0,10.798-8.754,19.552-19.552,19.552  h33.723c10.798,0,19.552-8.754,19.552-19.552v-56.18C336.489,8.754,327.735,0,316.937,0z"/>
<g>
	<circle style="fill:#45D28A;" cx="158.86" cy="384.96" r="18.12"/>
	<circle style="fill:#45D28A;" cx="336.49" cy="421.9" r="18.12"/>
	<circle style="fill:#45D28A;" cx="244.17" cy="251.04" r="18.12"/>
	<circle style="fill:#45D28A;" cx="163.81" cy="168.95" r="18.12"/>
	<circle style="fill:#45D28A;" cx="269.59" cy="150.83" r="18.12"/>
</g>
<g>
	<circle style="fill:#4E6284;" cx="302.77" cy="47.642" r="7.921"/>
	<circle style="fill:#4E6284;" cx="252.09" cy="47.642" r="7.921"/>
	<circle style="fill:#4E6284;" cx="204.72" cy="47.642" r="7.921"/>
	<path style="fill:#4E6284;" d="M284.988,431.884c-27.683,0-50.205-22.522-50.205-50.205v-80.257c0-4.375,3.547-7.921,7.921-7.921   c4.374,0,7.921,3.547,7.921,7.921v80.257c0,18.948,15.415,34.363,34.363,34.363c4.375,0,7.921,3.547,7.921,7.921   C292.909,428.338,289.363,431.884,284.988,431.884z"/>
	<path style="fill:#4E6284;" d="M269.586,336.225c-2.027,0-4.055-0.774-5.601-2.32l-21.281-21.281l-21.281,21.281   c-3.093,3.093-8.109,3.093-11.202,0c-3.094-3.093-3.094-8.109,0-11.202l26.882-26.882c3.093-3.093,8.109-3.093,11.202,0   l26.882,26.882c3.094,3.093,3.094,8.109,0,11.202C273.64,335.452,271.613,336.225,269.586,336.225z"/>
</g>
<g>
	<path style="fill:#213244;" d="M271.428,392.88h-66.124c-4.375,0-7.921-3.547-7.921-7.921c0-4.375,3.547-7.921,7.921-7.921h66.124   c31.507,0,57.14-25.633,57.14-57.14v-31.916c0-4.375,3.547-7.921,7.921-7.921c4.375,0,7.921,3.547,7.921,7.921v31.916   C344.41,360.14,311.671,392.88,271.428,392.88z"/>
	<path style="fill:#213244;" d="M363.371,322.785c-2.027,0-4.054-0.774-5.601-2.32l-21.281-21.281l-21.281,21.281   c-3.093,3.093-8.109,3.093-11.202,0c-3.094-3.093-3.094-8.109,0-11.202l26.882-26.882c3.093-3.093,8.109-3.093,11.202,0   l26.882,26.882c3.094,3.093,3.094,8.109,0,11.202C367.425,322.011,365.398,322.785,363.371,322.785z"/>
</g>
<g>
	<path style="fill:#FF5C5C;" d="M354.606,251.063c-2.027,0-4.054-0.774-5.601-2.32l-14.56-14.56l-14.56,14.56   c-3.093,3.093-8.109,3.093-11.202,0c-3.094-3.093-3.094-8.109,0-11.202l20.161-20.161c3.093-3.093,8.109-3.093,11.202,0   l20.162,20.161c3.094,3.093,3.094,8.109,0,11.202C358.66,250.289,356.633,251.063,354.606,251.063z"/>
	<path style="fill:#FF5C5C;" d="M334.444,230.902L334.444,230.902c-2.101,0-4.116-0.834-5.601-2.32l-20.161-20.162   c-3.094-3.094-3.094-8.109,0-11.202s8.109-3.094,11.202,0l14.56,14.56l14.56-14.56c3.093-3.093,8.109-3.093,11.202,0   c3.094,3.093,3.094,8.109,0,11.202l-20.162,20.162C338.56,230.067,336.545,230.902,334.444,230.902z"/>
</g>
<g>
</g>
<g>
</g>
<g>
</g>
<g>
</g>
<g>
</g>
<g>
</g>
<g>
</g>
<g>
</g>
<g>
</g>
<g>
</g>
<g>
</g>
<g>
</g>
<g>
</g>
<g>
</g>
<g>
</g>
</svg>
