<svg xmlns="http://www.w3.org/2000/svg" viewBox="0 0 512.002 512.002"><path d="M151.818 431.726a7.736 7.736 0 01-3.73-.959C77.521 392.058 33.684 318.059 33.684 237.647c0-72.572 35.764-140.455 95.669-181.588a7.77 7.77 0 018.796 12.811c-55.682 38.234-88.924 101.328-88.924 168.778 0 74.737 40.747 143.516 106.338 179.496a7.77 7.77 0 01-3.745 14.582zm207.566.417a7.77 7.77 0 01-3.716-14.599c66.045-35.877 107.073-104.81 107.073-179.896 0-67.449-33.243-130.544-88.924-168.778-3.538-2.429-4.436-7.266-2.007-10.804s7.266-4.437 10.803-2.007c59.905 41.133 95.669 109.016 95.669 181.588 0 80.788-44.14 154.953-115.195 193.553a7.758 7.758 0 01-3.703.943z" fill="#4e6284"/><path d="M150.794 62.398h-17.102V48.123c0-13.912 11.278-25.19 25.19-25.19h13.961a3.14 3.14 0 013.141 3.141v11.135c0 13.912-11.278 25.189-25.19 25.189zm-46.776 24.528L91.925 99.019 81.831 88.925c-9.837-9.837-9.837-25.786 0-35.624l9.872-9.872a3.14 3.14 0 014.442 0l7.873 7.873c9.837 9.838 9.837 25.787 0 35.624zm-36.173 48.656l-8.551 14.811-12.362-7.137c-12.048-6.956-16.176-22.362-9.22-34.41l6.98-12.091a3.14 3.14 0 014.29-1.15l9.642 5.567c12.049 6.956 16.177 22.362 9.221 34.41zm-20.734 53.596l-3.703 16.696-13.936-3.091c-13.582-3.013-22.15-16.465-19.137-30.047l3.023-13.63a3.14 3.14 0 013.746-2.386l10.87 2.411c13.582 3.013 22.15 16.465 19.137 30.047zm-5.85 58.957l1.543 17.032-14.217 1.288c-13.855 1.256-26.105-8.958-27.36-22.814l-1.212-13.37a3.678 3.678 0 013.33-3.994l10.555-.956c13.856-1.255 26.106 8.959 27.361 22.814zm11.459 58.107l6.199 15.939-13.304 5.174c-12.966 5.043-27.565-1.38-32.607-14.346l-4.867-12.511a3.677 3.677 0 012.094-4.76l9.877-3.842c12.966-5.042 27.565 1.381 32.608 14.346zm27.47 53.346l10.226 13.707-8.494 6.337c-12.778 9.533-30.865 6.903-40.399-5.876l-5.829-7.813a3.678 3.678 0 01.748-5.146l8.494-6.337c11.152-8.318 26.935-6.022 35.254 5.128zm41.147 44.059l13.554 10.429-8.705 11.314c-8.484 11.026-24.299 13.087-35.325 4.603l-10.64-8.186a3.678 3.678 0 01-.672-5.157l6.463-8.399c8.483-11.027 24.299-13.088 35.325-4.604zM361.144 62.398h17.102V48.123c0-13.912-11.278-25.19-25.19-25.19h-13.425a3.677 3.677 0 00-3.677 3.677v10.599c0 13.912 11.278 25.189 25.19 25.189zm46.776 24.528l12.093 12.093 10.094-10.094c9.837-9.837 9.837-25.786 0-35.624l-9.362-9.362a3.862 3.862 0 00-5.461 0l-7.363 7.363c-9.838 9.838-9.838 25.787-.001 35.624zm36.173 48.656l8.551 14.811 12.362-7.137c12.048-6.956 16.176-22.362 9.22-34.41l-6.712-11.626a3.677 3.677 0 00-5.023-1.346l-9.178 5.299c-12.048 6.955-16.176 22.361-9.22 34.409zm20.733 53.596l3.703 16.696 13.936-3.091c13.582-3.013 22.15-16.465 19.137-30.047l-2.907-13.106a3.677 3.677 0 00-4.386-2.794l-10.346 2.295c-13.582 3.013-22.149 16.465-19.137 30.047zm5.85 58.957l-1.543 17.032 14.217 1.288c13.855 1.256 26.105-8.958 27.36-22.814l1.212-13.37a3.678 3.678 0 00-3.33-3.994l-10.555-.956c-13.855-1.255-26.105 8.959-27.361 22.814zm-11.458 58.107l-6.199 15.939 13.304 5.174c12.966 5.043 27.565-1.38 32.607-14.346l4.866-12.512a3.677 3.677 0 00-2.094-4.76l-9.877-3.842c-12.965-5.041-27.564 1.382-32.607 14.347zm-27.47 53.346l-10.226 13.707 11.442 8.536c11.151 8.319 26.934 6.023 35.253-5.127l8.028-10.76a3.678 3.678 0 00-.748-5.146l-8.496-6.337c-11.151-8.319-26.934-6.023-35.253 5.127zm-41.147 44.059l-13.554 10.429 8.705 11.314c8.484 11.026 24.299 13.087 35.325 4.603l10.64-8.186a3.678 3.678 0 00.672-5.157l-6.463-8.399c-8.484-11.027-24.299-13.088-35.325-4.604zm-188.184 13.91l19.477 14.986-12.509 16.258c-12.191 15.844-34.917 18.806-50.762 6.615l-16.563-12.744a3.678 3.678 0 01-.672-5.157l10.267-13.343c12.192-15.844 34.918-18.806 50.762-6.615z" fill="#45d28a"/><path d="M202.482 417.557c-8.656-6.66-19.365-8.788-29.29-6.772a36.052 36.052 0 0114.786 6.772l3.219 2.477c8.979 6.909 10.657 19.788 3.749 28.767-5.53 7.188-13.231 11.714-21.471 13.387 13.132 2.688 27.251-2.049 35.976-13.387l12.509-16.258-19.478-14.986z" fill="#31af97"/><circle cx="255.121" cy="436.489" r="34.29" fill="#ffdfac"/><path d="M161.544 22.934v14.275c0 13.912-11.278 25.19-25.19 25.19h14.504c13.912 0 25.19-11.278 25.19-25.19V26.075a3.14 3.14 0 00-3.141-3.141h-11.363zm-57.461 28.369L96.21 43.43a3.14 3.14 0 00-4.442 0l-5.031 5.031 2.842 2.842c9.838 9.837 9.837 25.787 0 35.624l-4.841 4.841 7.252 7.252 12.093-12.093c9.837-9.838 9.837-25.787 0-35.624zm-45.394 49.869l-9.643-5.567a3.14 3.14 0 00-4.29 1.15l-2.056 3.56 1.483.856c12.049 6.956 16.178 22.362 9.221 34.411l-4.925 8.53 10.878 6.281 8.551-14.811c6.957-12.049 2.829-27.454-9.219-34.41zm-30.65 57.959l-10.87-2.411a3.14 3.14 0 00-3.746 2.386l.112.025c13.583 3.02 22.148 16.476 19.134 30.06l-3.021 13.616 13.824 3.066 3.704-16.695c3.013-13.581-5.555-27.034-19.137-30.047zm13.287 89.004c-1.256-13.855-13.505-24.069-27.36-22.814l-6.407.58c10.244 2.434 18.26 11.169 19.262 22.233l1.543 17.032-7.81.708a25.14 25.14 0 008.098.58l14.217-1.288-1.543-17.031zm11.458 58.107c-4.801-12.343-18.26-18.748-30.727-14.985 7.165 2.16 13.3 7.47 16.223 14.985l1.025 2.634c2.858 7.348-.782 15.621-8.13 18.479-.623.242-1.251.45-1.88.64a25.07 25.07 0 0016.384-.64l13.304-5.175-6.199-15.938zm27.47 53.346c-6.511-8.728-17.595-12.029-27.452-9.063a25.068 25.068 0 0112.947 9.063l1.69 2.266c4.714 6.319 3.413 15.263-2.906 19.978a25.165 25.165 0 01-7.8 3.936c7.374 2.207 15.661 1.02 22.305-3.936l11.442-8.536-10.226-13.708zm41.147 44.059c-6.676-5.136-15.106-6.401-22.603-4.157a25.136 25.136 0 018.098 4.157l2.24 1.724c6.248 4.808 7.416 13.77 2.609 20.019a25.066 25.066 0 01-12.722 8.76c9.724 2.925 20.666-.234 27.227-8.76l8.705-11.314-13.554-10.429zM353.12 22.934h-14.504c13.912 0 25.19 11.278 25.19 25.19v14.275h14.504V48.123c0-13.911-11.278-25.189-25.19-25.189zm77.051 30.368l-9.428-9.428a3.77 3.77 0 00-5.329 0l-4.588 4.588 4.841 4.841c9.837 9.837 9.837 25.786 0 35.624l-2.842 2.842 7.252 7.252 10.094-10.094c9.837-9.839 9.837-25.788 0-35.625zm44.12 55.543l-6.712-11.626a3.677 3.677 0 00-5.023-1.346l-7.694 4.442 4.925 8.53c6.956 12.048 2.828 27.454-9.22 34.41l-1.484.857 3.626 6.281 12.362-7.137c12.048-6.957 16.176-22.363 9.22-34.411zm27.376 63.891l-2.907-13.106a3.677 3.677 0 00-4.386-2.794l-10.234 2.27 3.023 13.629c3.013 13.582-5.555 27.034-19.137 30.048l-.112.025.68 3.066 13.936-3.091c13.582-3.013 22.15-16.465 19.137-30.047zm-3.566 52.585a25.168 25.168 0 00-8.098.58l7.81.708-1.543 17.032c-1.003 11.064-9.019 19.8-19.262 22.233l6.407.58c13.855 1.255 26.104-8.959 27.36-22.814l1.212-13.37a3.678 3.678 0 00-3.33-3.994l-10.556-.955zm-6.211 66.576a25.071 25.071 0 00-16.384-.64c.629.19 1.257.398 1.88.64 7.348 2.858 10.987 11.131 8.13 18.479l-1.025 2.635c-2.923 7.515-9.058 12.825-16.223 14.986 12.467 3.762 25.927-2.643 30.727-14.986l4.866-12.512a3.677 3.677 0 00-2.094-4.76l-9.877-3.842zm-24.825 62.564c-6.644-4.957-14.931-6.143-22.305-3.936a25.127 25.127 0 017.801 3.936c6.319 4.714 7.62 13.659 2.906 19.978l-1.69 2.266a25.07 25.07 0 01-12.948 9.063c9.857 2.966 20.941-.335 27.452-9.063l8.028-10.76a3.678 3.678 0 00-.748-5.146l-8.496-6.338zM425.99 408.25c-6.56-8.526-17.503-11.686-27.227-8.76a25.066 25.066 0 0112.722 8.76c4.808 6.248 3.64 15.211-2.609 20.018l-2.241 1.724a25.116 25.116 0 01-8.098 4.157c7.497 2.244 15.927.979 22.602-4.157l10.64-8.187a3.678 3.678 0 00.672-5.157l-6.461-8.398z" fill="#31af97"/><path d="M353.055 418.048l15.126 14.42a3.677 3.677 0 01.124 5.199l-11.617 12.186c-13.794 14.47-36.706 15.018-51.176 1.224l-17.788-16.957 14.154-14.847c13.795-14.471 36.708-15.019 51.177-1.225z" fill="#45d28a"/><path d="M353.119 418.055c-7.906-7.536-18.331-10.781-28.412-9.824a36.058 36.058 0 0113.989 8.294l2.94 2.803c8.2 7.817 8.511 20.802.694 29.002-6.258 6.564-14.393 10.253-22.764 11.048 12.775 4.059 27.316.837 37.187-9.518l11.617-12.186a3.678 3.678 0 00-.124-5.199l-15.127-14.42z" fill="#31af97"/><path d="M255.185 402.2c-2.489 0-4.913.272-7.252.776 15.452 3.329 27.035 17.064 27.035 33.511s-11.583 30.183-27.035 33.511c2.339.504 4.763.775 7.252.775 18.936 0 34.287-15.351 34.287-34.287S274.121 402.2 255.185 402.2z" fill="#fbce7d"/><ellipse cx="253.791" cy="237.649" rx="164.53" ry="164.55" fill="#f37569"/><path d="M345.776 101.191c22.861 28.26 36.563 64.236 36.563 103.418 0 90.88-73.665 164.553-164.535 164.553-34.073 0-65.727-10.358-91.986-28.098 30.164 37.287 76.28 61.135 127.973 61.135 90.87 0 164.535-73.673 164.535-164.553-.001-56.803-28.779-106.884-72.55-136.455z" fill="#d3655c"/><g fill="#ba5852"><path d="M153.883 277.649a8.233 8.233 0 00-11.481 1.945 560.196 560.196 0 00-28.574 44.585 164.861 164.861 0 0010.445 14.963 543.868 543.868 0 0131.555-50.012 8.233 8.233 0 00-1.945-11.481z"/><path d="M418.306 236.148c-.129-14.453-2.121-28.46-5.748-41.795-13.192-12.006-30.859-19.116-50.051-18.499-12.322.386-24.059 3.89-34.341 10.074a304.536 304.536 0 00-29.797-34.809 537.49 537.49 0 0164.457-36.692c-4.55-4.03-9.32-7.815-14.298-11.327a555.908 555.908 0 00-62.387 36.401 303.34 303.34 0 00-22.931-18.661 71.35 71.35 0 008.466-7.487 70.966 70.966 0 0018.65-36.182 163.896 163.896 0 00-16.216-2.829c-1.973 10.314-6.895 19.892-14.303 27.593a54.661 54.661 0 01-11.105 8.868c-16.458-10.69-34.096-19.833-52.717-27.257a163.72 163.72 0 00-21.236 9.75c19.156 6.416 37.32 14.721 54.283 24.707a55.164 55.164 0 01-5.042.562c-51.671.031-82.171 18.055-98.567 27.746-5.088 3.007-10.117 6.604-14.974 10.511a163.544 163.544 0 00-15.518 37.869c10.397-11.674 24.575-25.751 38.873-34.202 20.84-12.317 46.718-25.454 90.308-25.454h.131c.177-.01.334-.005.503-.015a71.134 71.134 0 0022.72-5.192 286.473 286.473 0 0124.764 19.359c-37.943 27.274-72.581 59.306-102.548 95.076a8.235 8.235 0 0012.624 10.578c29.801-35.572 64.358-67.336 102.249-94.223a287.921 287.921 0 0130.574 35.371 73.517 73.517 0 00-2.234 2.266c-13.006 13.848-19.84 31.932-19.244 50.92.005.167.015.335.031.502 4.03 43.48-6.69 70.489-17.055 92.393-11.33 23.944-36.899 48.927-47.114 58.345a165.549 165.549 0 0021.929 1.757c12.893-12.998 30.561-32.96 40.072-53.057 8.146-17.217 23.299-49.24 18.591-100.696-.4-14.825 5.183-28.455 14.55-38.574 27.208 42.17 43.5 91.631 45.602 144.036a165.476 165.476 0 0015.297-17.665c-4.791-49.659-21.647-96.362-47.973-136.682a54.298 54.298 0 0125.445-7.216c27.022-.854 50.123 18.165 55.28 43.83z"/></g><g fill="#4e6284"><circle cx="255.331" cy="436.489" r="7.77"/><circle cx="213.081" cy="481.299" r="7.77"/><circle cx="297.191" cy="481.299" r="7.77"/></g></svg>