<?xml version="1.0" encoding="iso-8859-1"?>
<!-- Generator: Adobe Illustrator 19.0.0, SVG Export Plug-In . SVG Version: 6.00 Build 0)  -->
<svg xmlns="http://www.w3.org/2000/svg" xmlns:xlink="http://www.w3.org/1999/xlink" version="1.1" id="Layer_1" x="0px" y="0px" viewBox="0 0 512 512" style="enable-background:new 0 0 512 512;" xml:space="preserve">
<path style="fill:#E84B4B;" d="M93.394,0.081L93.447,0H422.68l0,0c18.486,28.04-1.624,65.386-35.21,65.386H128.657  C95.116,65.386,74.997,28.127,93.394,0.081z"/>
<path style="fill:#FF5C5C;" d="M258.594,273.184l-46.235-46.235L422.68,0l0,0c25.119,38.454,19.849,89.249-12.629,121.727  L258.594,273.184z"/>
<path style="fill:#E84B4B;" d="M273.848,160.599L273.848,160.599l-61.488,66.35l46.235,46.235l151.457-151.457  c17.776-17.776,27.38-41.039,28.333-64.763L334.75,160.599C317.932,177.417,290.665,177.417,273.848,160.599z"/>
<path style="fill:#FF5C5C;" d="M305.262,226.949l-46.235,46.235L96.871,111.029c-26.339-26.34-30.932-67.406-11.064-98.914L93.447,0  L305.262,226.949z"/>
<circle style="fill:#FAC231;" cx="263.29" cy="374.53" r="137.47"/>
<path style="fill:#E7AB00;" d="M318.409,248.569c17.568,23.091,28.004,51.902,28.004,83.155  c0,75.922-61.547,137.469-137.469,137.469c-19.604,0-38.245-4.113-55.12-11.508C178.934,490.689,218.62,512,263.289,512  c75.922,0,137.469-61.547,137.469-137.469C400.759,318.213,366.888,269.814,318.409,248.569z"/>
<circle style="fill:#FFDFAC;" cx="263.29" cy="374.53" r="102.56"/>
<path style="fill:#FBCE7D;" d="M345.095,312.666c0.865,6.229,1.318,12.591,1.318,19.058c0,71.43-54.482,130.129-124.157,136.825  c12.566,5.492,26.442,8.546,41.033,8.546c56.645,0,102.564-45.92,102.564-102.564C365.854,351.293,358.121,329.864,345.095,312.666z  "/>
<path style="fill:#FFEDD7;" d="M361.216,405.111c1.747-5.601,3.026-11.408,3.793-17.376c-5.882-2.59-10.876-6.877-14.353-12.221  c4.813-7.087,9.158-14.457,13.023-22.065c-1.777-8.507-4.611-16.625-8.353-24.215c-2.854,7.292-6.14,14.402-9.898,21.272  c-0.62-22.223-6.375-38.293-13.262-51.971c-10.866-9.854-23.854-17.409-38.197-21.9c6.928,6.719,14.794,15.389,19.498,23.95  c7.457,13.57,15.337,30.38,14.447,58.219c-0.001,0.171-0.001,0.346-0.002,0.517c0.144,5.025,1.015,9.852,2.502,14.388  c-3.163,4.167-6.492,8.179-9.971,12.043c-16.336-24.428-34.311-48.267-47.788-63.589c-1.654-1.879-3.934-2.872-6.253-2.957  c-0.399-0.463-0.85-0.893-1.358-1.277c-8.773-6.622-32.13-23.359-48.789-34.564c-5.695,2.944-11.079,6.405-16.089,10.322  c15.767,10.246,44.708,30.945,54.334,38.21c1.487,1.123,3.218,1.679,4.948,1.742c0.023,0.027,0.042,0.055,0.065,0.082  c13.462,15.305,31.937,39.917,48.358,64.71c-5.549,5.078-18.214,14.825-28.143,21.989c-0.746-1.423-1.877-2.642-3.3-3.482  c-0.975-0.576-1.825-0.817-2.158-0.908c0,0-8.327-2.254-46.219-13.022c-7.508-2.134-17.938-6.237-29.747-14.978  c-1.591-1.037-3.179-2.072-4.77-3.109c-12.345-7.004-24.723-19.637-31.45-27.09c-0.89,5.435-1.36,11.01-1.36,16.696  c0,2.432,0.091,4.843,0.257,7.233c7.692,7.266,17.126,14.983,26.729,19.902l0.183,0.094c7.964,4.976,17.407,10.134,28.325,14.825  c16.85,7.239,32.381,11.287,45.107,13.617c-19.292,7.277-48.771,14.95-70.899,16.507c5.763,5.818,12.218,10.948,19.231,15.259  c20.997-3.456,43.901-9.939,59.99-16.214c1.486-0.58,2.718-1.526,3.647-2.688c0.506,0.09,1.017,0.151,1.532,0.151  c1.625,0,3.269-0.452,4.736-1.399c8.818-5.688,30.142-21.581,37.91-28.482c7.359,11.777,13.913,23.172,18.875,33.171  c4.461-4.528,8.508-9.465,12.071-14.756c-5.127-9.636-11.337-20.148-18.119-30.867c3.231-3.427,6.347-6.971,9.343-10.629  C345.299,396.964,352.71,402.132,361.216,405.111z"/>
<path style="fill:#E7AB00;" d="M225.437,343.954V323.99c0-2.758,1.217-4.869,3.652-6.33l22.155-13.878  c3.732-2.271,6.897-3.409,9.496-3.409h19.477c3.409,0,5.113,1.704,5.113,5.113V451.81c0,1.948-0.366,3.287-1.096,4.017  c-0.731,0.731-1.99,1.096-3.774,1.096h-20.938c-3.409,0-5.113-1.704-5.113-5.113V333.242l-23.86,13.634  C227.142,348.337,225.437,347.363,225.437,343.954z"/>
<g>
</g>
<g>
</g>
<g>
</g>
<g>
</g>
<g>
</g>
<g>
</g>
<g>
</g>
<g>
</g>
<g>
</g>
<g>
</g>
<g>
</g>
<g>
</g>
<g>
</g>
<g>
</g>
<g>
</g>
</svg>
