<svg xmlns="http://www.w3.org/2000/svg" viewBox="0 0 512 512"><path d="M93.394.081L93.447 0H422.68c18.486 28.04-1.624 65.386-35.21 65.386H128.657c-33.541 0-53.66-37.259-35.263-65.305z" fill="#e84b4b"/><path d="M258.594 273.184l-46.235-46.235L422.68 0c25.119 38.454 19.849 89.249-12.629 121.727L258.594 273.184z" fill="#ff5c5c"/><path d="M273.848 160.599l-61.488 66.35 46.235 46.235 151.457-151.457c17.776-17.776 27.38-41.039 28.333-64.763L334.75 160.599c-16.818 16.818-44.085 16.818-60.902 0z" fill="#e84b4b"/><path d="M305.262 226.949l-46.235 46.235L96.871 111.029c-26.339-26.34-30.932-67.406-11.064-98.914L93.447 0l211.815 226.949z" fill="#ff5c5c"/><circle cx="263.29" cy="374.53" r="137.47" fill="#fac231"/><path d="M318.409 248.569c17.568 23.091 28.004 51.902 28.004 83.155 0 75.922-61.547 137.469-137.469 137.469-19.604 0-38.245-4.113-55.12-11.508C178.934 490.689 218.62 512 263.289 512c75.922 0 137.469-61.547 137.469-137.469.001-56.318-33.87-104.717-82.349-125.962z" fill="#e7ab00"/><circle cx="263.29" cy="374.53" r="102.56" fill="#ffdfac"/><path d="M345.095 312.666a138.495 138.495 0 011.318 19.058c0 71.43-54.482 130.129-124.157 136.825 12.566 5.492 26.442 8.546 41.033 8.546 56.645 0 102.564-45.92 102.564-102.564.001-23.238-7.732-44.667-20.758-61.865z" fill="#fbce7d"/><path d="M361.216 405.111a101.99 101.99 0 003.793-17.376c-5.882-2.59-10.876-6.877-14.353-12.221a202.585 202.585 0 0013.023-22.065 101.815 101.815 0 00-8.353-24.215c-2.854 7.292-6.14 14.402-9.898 21.272-.62-22.223-6.375-38.293-13.262-51.971-10.866-9.854-23.854-17.409-38.197-21.9 6.928 6.719 14.794 15.389 19.498 23.95 7.457 13.57 15.337 30.38 14.447 58.219l-.002.517a50.785 50.785 0 002.502 14.388 186.702 186.702 0 01-9.971 12.043c-16.336-24.428-34.311-48.267-47.788-63.589a8.722 8.722 0 00-6.253-2.957 8.784 8.784 0 00-1.358-1.277c-8.773-6.622-32.13-23.359-48.789-34.564a102.675 102.675 0 00-16.089 10.322c15.767 10.246 44.708 30.945 54.334 38.21a8.689 8.689 0 004.948 1.742c.023.027.042.055.065.082 13.462 15.305 31.937 39.917 48.358 64.71-5.549 5.078-18.214 14.825-28.143 21.989a8.763 8.763 0 00-3.3-3.482 8.692 8.692 0 00-2.158-.908s-8.327-2.254-46.219-13.022c-7.508-2.134-17.938-6.237-29.747-14.978l-4.77-3.109c-12.345-7.004-24.723-19.637-31.45-27.09a103.24 103.24 0 00-1.36 16.696c0 2.432.091 4.843.257 7.233 7.692 7.266 17.126 14.983 26.729 19.902l.183.094a209.598 209.598 0 0028.325 14.825 210.099 210.099 0 0045.107 13.617c-19.292 7.277-48.771 14.95-70.899 16.507a102.993 102.993 0 0019.231 15.259c20.997-3.456 43.901-9.939 59.99-16.214a8.71 8.71 0 003.647-2.688 8.75 8.75 0 001.532.151 8.706 8.706 0 004.736-1.399c8.818-5.688 30.142-21.581 37.91-28.482 7.359 11.777 13.913 23.172 18.875 33.171a103.05 103.05 0 0012.071-14.756c-5.127-9.636-11.337-20.148-18.119-30.867a202.959 202.959 0 009.343-10.629 49.64 49.64 0 0021.574 14.86z" fill="#ffedd7"/><path d="M225.437 343.954V323.99c0-2.758 1.217-4.869 3.652-6.33l22.155-13.878c3.732-2.271 6.897-3.409 9.496-3.409h19.477c3.409 0 5.113 1.704 5.113 5.113V451.81c0 1.948-.366 3.287-1.096 4.017-.731.731-1.99 1.096-3.774 1.096h-20.938c-3.409 0-5.113-1.704-5.113-5.113V333.242l-23.86 13.634c-3.407 1.461-5.112.487-5.112-2.922z" fill="#e7ab00"/></svg>