<svg xmlns="http://www.w3.org/2000/svg" viewBox="0 0 512 512"><path d="M419.284 0h-30.905v512h30.905C470.278 512 512 470.278 512 419.284V92.716C512 41.722 470.278 0 419.284 0z" fill="#e0230d"/><path d="M481.095 92.716v326.567c0 50.994-41.722 92.716-92.716 92.716H92.716C41.722 512 0 470.278 0 419.284V92.716C0 41.722 41.722 0 92.716 0h295.662c50.994 0 92.717 41.722 92.717 92.716z" fill="#ff5440"/><path d="M256 61.811c-47.858 0-86.793 38.935-86.793 86.793v214.793c0 47.858 38.935 86.793 86.793 86.793s86.793-38.935 86.793-86.793V148.604c0-47.858-38.935-86.793-86.793-86.793zm45.586 301.585c0 25.135-20.45 45.586-45.586 45.586-25.135 0-45.586-20.45-45.586-45.586V148.604c0-25.135 20.45-45.586 45.586-45.586s45.586 20.45 45.586 45.586v214.792z" fill="#fff"/></svg>