<svg height="512pt" viewBox="-10 0 511 512" width="512pt" xmlns="http://www.w3.org/2000/svg"><path d="M159.008 186.938v-4.985h-23.082c-10.2 0-18.496-8.207-18.496-18.297v-43.941h41.578V93.133H97.03c-3.578 0-6.48 2.87-6.48 6.41v64.113c0 24.75 20.355 44.88 45.375 44.88h25.097a116.168 116.168 0 01-2.015-21.599zm0 0" fill="#fcdb67"/><path d="M378.742 139.3c-2.015-1.523-3.715-4.937-3.715-7.46V56.113H164.605c-3.726 0-6.75 2.992-6.75 6.676v124.148c0 58.262 43.118 106.743 99.454 115.88v58.456h38.566v-58.457c35.328-5.726 65.453-26.93 83.012-56.308-8.149-10.445-13.012-23.516-13.012-37.695 0-22.11 12.078-42.68 31.52-53.684l1.328-.75zm0 0" fill="#ffc502"/><path d="M330.227 360.113h-87.77a109.35 109.35 0 017.906 40.918c0 16.188-3.52 31.567-9.828 45.414h105.16v-70.879c0-8.5-6.96-15.453-15.468-15.453zm0 0" fill="#fcdb67"/><path d="M364.79 445.445H240.976a110.459 110.459 0 01-26.957 37.176h150.77c2.831 0 5.151-2.316 5.151-5.148v-26.875c.004-2.832-2.32-5.153-5.152-5.153zm0 0" fill="#ffc502"/><path d="M305.406 380.844h-56.91a109.542 109.542 0 011.742 15h55.168a7.5 7.5 0 100-15zm0 0M296.543 407.422h-39.902c-3.02 0-5.614 1.789-6.805 4.355a105.255 105.255 0 01-.55 4.61c.683 3.441 3.714 6.035 7.35 6.035h39.907a7.5 7.5 0 100-15zm0 0" fill="#775436"/><path d="M304.836 218.352c-1.3 0-2.606-.305-3.8-.926l-24.442-12.653-24.442 12.653a8.25 8.25 0 01-3.804.926 8.25 8.25 0 01-4.801-1.54c-2.516-1.796-3.777-4.847-3.25-7.867l4.668-26.797-19.774-18.976a7.952 7.952 0 01-2.066-8.246c.96-2.91 3.516-5.035 6.594-5.477l27.328-3.91 12.219-24.379c1.379-2.746 4.218-4.484 7.328-4.484s5.949 1.738 7.324 4.484l12.223 24.38 27.328 3.91c3.074.44 5.633 2.566 6.594 5.476.96 2.91.16 6.105-2.067 8.246l-19.773 18.976 4.668 26.797a7.987 7.987 0 01-3.25 7.868 8.253 8.253 0 01-4.805 1.539zm0 0" fill="#f7931e"/><path d="M478.668 89.89L432.52 124.72c-2.266 1.707-5.97 1.707-8.23 0L378.14 89.89c-2.261-1.707-4.113-5.422-4.113-8.254v50.207c0 2.832 1.852 6.547 4.114 8.254l19.652 14.828a62.702 62.702 0 0130.61-7.946 62.664 62.664 0 0130.613 7.946l19.652-14.828c2.266-1.707 4.117-5.422 4.117-8.258V81.637c0 2.832-1.851 6.547-4.117 8.254zm0 0" fill="#fb8276"/><path d="M374.027 10.945c0-2.836 2.32-5.152 5.157-5.152h98.445c2.836 0 5.156 2.316 5.156 5.152v71.77c0 2.832-1.855 6.547-4.117 8.254l-46.148 34.828c-2.266 1.707-5.97 1.707-8.23 0l-46.15-34.828c-2.261-1.707-4.113-5.422-4.113-8.254zm0 0" fill="#ef5050"/><path d="M491.934 208.813c0 34.703-28.442 62.835-63.532 62.835-35.082 0-63.527-28.132-63.527-62.836 0-34.699 28.445-62.832 63.527-62.832 35.09 0 63.532 28.133 63.532 62.833zm0 0" fill="#c6a07d"/><path d="M466.09 208.813c0 20.585-16.871 37.277-37.688 37.277-20.812 0-37.683-16.692-37.683-37.278s16.87-37.273 37.683-37.273c20.817 0 37.688 16.688 37.688 37.274zm0 0" fill="#775436"/><path d="M140.328 290.063c-53.812 0-98.683 38.269-108.86 89.066l9.759-.024c2.593 0 6.343 1.493 8.207 3.258l16.605 15.739c.793.753 1.23 1.753 1.23 2.82s-.437 2.066-1.23 2.82L49.33 419.59c-1.868 1.773-5.63 3.273-8.208 3.281l-9.664.024C41.617 473.71 86.5 512 140.328 512c61.324 0 111.035-49.68 111.035-110.969 0-61.285-49.71-110.968-111.035-110.968zm0 0" fill="#ef5050"/><path d="M140.328 324.473c-40.039 0-72.969 30.879-76.285 70.058h75.23a6.51 6.51 0 016.5 6.5c0 3.586-2.918 6.5-6.5 6.5h-75.23c3.316 39.18 36.246 70.063 76.285 70.063 42.242 0 76.606-34.348 76.606-76.563s-34.364-76.558-76.606-76.558zm0 0" fill="#fff"/><path d="M140.328 358.879c-21.039 0-38.531 15.484-41.668 35.652h40.61c3.585 0 6.5 2.914 6.5 6.5 0 3.582-2.915 6.5-6.5 6.5H98.66c3.137 20.168 20.63 35.653 41.668 35.653 23.262 0 42.176-18.91 42.176-42.153s-18.914-42.152-42.176-42.152zm0 0" fill="#ef5050"/><path d="M140.328 385.79c-6.078 0-11.32 3.581-13.77 8.741h12.712c3.585 0 6.5 2.914 6.5 6.5 0 3.582-2.915 6.5-6.5 6.5h-12.711c2.445 5.156 7.691 8.742 13.77 8.742 8.41 0 15.25-6.836 15.25-15.242 0-8.402-6.84-15.242-15.25-15.242zm0 0" fill="#fff"/><path d="M139.273 393.531H61.22l4.82 4.57c.793.754 1.23 1.754 1.23 2.82s-.437 2.067-1.23 2.821l-5.05 4.79h78.28a7.5 7.5 0 007.5-7.5 7.496 7.496 0 00-7.496-7.5zm0 0" fill="#08375e"/><path d="M3.16 423.957c-2.836.008-3.512-1.621-1.5-3.621l15.785-15.676a5.123 5.123 0 000-7.262l-15.68-15.566c-2.011-1.996-1.335-3.637 1.5-3.645l37.962-.082c2.832-.007 6.836 1.583 8.894 3.532l16.606 15.738a4.842 4.842 0 010 7.09l-16.711 15.848c-2.055 1.949-6.059 3.55-8.895 3.558zm0 0" fill="#75eae7"/><g fill="#f7931e"><path d="M384.078 363.14a3.729 3.729 0 01-3.441-2.296c-7.082-17.098-12.309-22.32-29.418-29.403a3.72 3.72 0 010-6.87c17.11-7.083 22.336-12.305 29.418-29.403a3.724 3.724 0 016.879 0c7.086 17.098 12.312 22.32 29.418 29.402a3.724 3.724 0 012.296 3.438c0 1.504-.906 2.86-2.296 3.433-17.106 7.082-22.332 12.305-29.418 29.403a3.724 3.724 0 01-3.438 2.297zm0 0M128.465 57.738a3.062 3.062 0 01-2.828-1.886c-5.82-14.051-10.114-18.34-24.172-24.16a3.055 3.055 0 010-5.645c14.058-5.82 18.351-10.113 24.172-24.16A3.066 3.066 0 01128.465 0c1.234 0 2.351.746 2.82 1.887 5.824 14.047 10.117 18.34 24.176 24.16a3.05 3.05 0 011.887 2.82 3.05 3.05 0 01-1.887 2.824c-14.059 5.82-18.352 10.11-24.176 24.16a3.051 3.051 0 01-2.82 1.887zm0 0"/></g></svg>