<svg height="512" viewBox="0 0 50 50" width="512" xmlns="http://www.w3.org/2000/svg"><path d="M8.484 18.232h20.84a1 1 0 100-2H8.485a1 1 0 100 2zM8.484 23.41h20.84a1 1 0 100-2H8.485a1 1 0 100 2z"/><path d="M47.212 7.477a4.006 4.006 0 00-5.555 1.117l-2.899 4.358s-.002.001-.002.003l-1.947 2.925v-5.029c0-.777-.3-1.506-.847-2.054l-6.712-6.7-.006-.006a2.871 2.871 0 00-2.043-.848H3.899c-1.599 0-2.9 1.3-2.9 2.9v41.715c0 1.599 1.301 2.9 2.9 2.9h30.01c1.6 0 2.9-1.301 2.9-2.9v-15.51l7.953-11.955a2.572 2.572 0 01-.003 2.85l-6.004 9.027a1 1 0 001.666 1.108l6.004-9.027a4.546 4.546 0 00.676-3.436 4.542 4.542 0 00-1.185-2.257l2.412-3.626a4.003 4.003 0 00-1.116-5.555zM28.345 39.46l-.946-.629-2.394-1.593 14.862-22.342 3.341 2.222zm-4.06-.298l2.394 1.593-3.098 1.66zm5.248-33.956l4.841 4.835H29.52zm5.276 40.653c0 .496-.404.9-.9.9H3.899a.9.9 0 01-.9-.9V4.143c0-.496.404-.9.9-.9h23.302a.88.88 0 01.336.067l-.02 7.727a.999.999 0 001 1.003h6.292v6.847l-5.166 7.766a.982.982 0 00-.318-.064H8.484a1 1 0 100 2h19.87l-2.113 3.178H8.48a1 1 0 100 2h16.43l-2.126 3.195c-.007.011-.008.025-.015.036a.996.996 0 00-.13.306l-1.27 5.87c-.092.429.012.869.286 1.207a1.436 1.436 0 001.803.368l5.637-3.021c.135-.072.302-.24.36-.328l5.353-8.046zm11.854-33.934l-2.346 3.528-3.34-2.222 2.346-3.528c.59-.888 1.885-1.157 2.781-.559a2.004 2.004 0 01.559 2.781z"/></svg>