<svg id="Layer_1" enable-background="new 0 0 50 50" height="512" viewBox="0 0 50 50" width="512" xmlns="http://www.w3.org/2000/svg"><g><path d="m8.48404 18.232h20.8408c.5527 0 1-.4473 1-1 0-.5528-.4473-1-1-1h-20.8408c-.5527 0-1 .4472-1 1 0 .5527.4473 1 1 1z"/><path d="m8.48404 23.4107h20.8408c.5527 0 1-.4473 1-1 0-.5528-.4473-1-1-1h-20.8408c-.5527 0-1 .4472-1 1 0 .5527.4473 1 1 1z"/><path d="m47.21154 7.4771c-1.8504-1.2291-4.3334-.7195-5.5547 1.1172l-2.89838 4.3574c-.00082.0011-.00212.0017-.00292.0029l-1.9463 2.9257v-5.0292c0-.7773-.30078-1.5059-.8477-2.0537l-6.7119-6.7012c-.0019-.0019-.0037-.0037-.0056-.0056l-.0002-.0002c-.5469-.5469-1.2725-.8477-2.043-.8477h-23.3018c-1.59858 0-2.8994 1.3008-2.8994 2.9004v41.7148c0 1.5987 1.30082 2.8994 2.8994 2.8994h30.0098c1.59962 0 2.9004-1.3007 2.9004-2.8994v-15.5099l7.9531-11.9548c.1815.2741.31112.5828.3779.9149.1358.6748.001 1.3623-.38078 1.9356l-6.00492 9.0263c-.3057.46-.1807 1.0801.2793 1.3868.4542.3028 1.0774.1846 1.3867-.2793l6.00492-9.0264c.67678-1.0176.917-2.2383.67578-3.4365-.17378-.8641-.5896-1.6358-1.1849-2.2563l2.4114-3.6265c1.2248-1.8372.7326-4.3236-1.1162-5.5547zm-18.8662 31.9824-.9466-.6295-2.394-1.5926 14.8621-22.3424c.1002.0666 3.5622 2.3688 3.34162 2.2221zm-4.0606-.2983 2.3941 1.5925-3.0981 1.6599zm5.2478-33.9557 4.8418 4.8341h-4.8542zm5.2767 40.6524c0 .4961-.4043.8994-.9004.8994h-30.0098c-.4961 0-.8994-.4033-.8994-.8994v-41.7148c0-.4961.4033-.9004.8994-.9004h23.3018c.1171 0 .2308.0234.3365.067l-.0201 7.7269c-.001.2657.1045.5215.292.709.1875.1885.4424.294.708.294h6.292v6.8473l-5.1666 7.7665c-.1011-.0343-.2051-.064-.3178-.064h-20.8408c-.5527 0-1 .4472-1 1 0 .5527.4473 1 1 1h19.8708l-2.114 3.1777h-17.7607c-.55268 0-1 .4473-1 1s.44732 1 1 1h16.43032l-2.12562 3.1953c-.0073.011-.0075.0241-.01438.0352-.05782.0945-.10592.1954-.13022.3066l-1.2705 5.8701c-.0918.4287.0118.8682.2862 1.2071.4388.5461 1.1924.6936 1.8027.3672l5.6377-3.0206c.1347-.0722.30212-.2407.3604-.3281l5.3525-8.0456zm11.8535-33.9336-2.3457 3.5274-3.3408-2.2217 2.3467-3.5283c.5898-.8877 1.8847-1.1563 2.7812-.5586.9319.6199 1.1676 1.8687.5586 2.7812z"/></g></svg>