<svg id="Capa_1" enable-background="new 0 0 512 512" height="512" viewBox="0 0 512 512" width="512" xmlns="http://www.w3.org/2000/svg"><g id="XMLID_1444_"><g id="XMLID_88_"><path id="XMLID_473_" d="m502 438h-10v-57c0-5.522-4.478-10-10-10s-10 4.478-10 10v57h-130.667v-204h130.667v57c0 5.522 4.478 10 10 10s10-4.478 10-10v-67c0-5.522-4.478-10-10-10h-140.667v-38c0-5.522-4.478-10-10-10h-17.778c21.574-17.046 35.445-43.433 35.445-73 0-51.28-41.72-93-93-93s-93 41.72-93 93c0 29.567 13.871 55.954 35.445 73h-17.778c-5.522 0-10 4.478-10 10v86h-140.667c-5.522 0-10 4.478-10 10v166h-10c-5.522 0-10 4.478-10 10v54c0 5.522 4.478 10 10 10h492c5.522 0 10-4.478 10-10v-54c0-5.522-4.478-10-10-10zm-236-417.298c13.98 1.925 26.707 7.815 37.006 16.507-10.492 8.967-23.357 14.761-37.006 16.678zm-20 33.185c-13.649-1.917-26.514-7.711-37.006-16.677 10.3-8.692 23.026-14.582 37.006-16.507zm20 78.226c13.649 1.917 26.514 7.711 37.006 16.677-10.3 8.692-23.026 14.582-37.006 16.507zm-20 33.185c-13.98-1.925-26.707-7.815-37.006-16.507 10.492-8.967 23.357-14.761 37.006-16.677zm70.417-31.373c-14.168-12.25-31.793-19.943-50.417-21.984v-37.883c18.624-2.041 36.248-9.734 50.417-21.984 7.937 11.681 12.583 25.77 12.583 40.926s-4.646 29.245-12.583 40.925zm-120.834-81.85c14.168 12.25 31.793 19.943 50.417 21.984v37.884c-18.624 2.041-36.248 9.734-50.417 21.984-7.937-11.682-12.583-25.771-12.583-40.927s4.646-29.245 12.583-40.925zm-4.916 133.925h130.666v252h-130.666zm-150.667 96h130.667v156h-130.667zm452 210h-472v-34h472z"/><path id="XMLID_592_" d="m246.812 328.022h8.377v75.978c0 5.522 4.478 10 10 10s10-4.478 10-10v-85.978c0-5.522-4.478-10-10-10h-18.377c-5.522 0-10 4.478-10 10s4.477 10 10 10z"/><path id="XMLID_593_" d="m408.88 354.93c-5.996 8.567-11.998 17.129-18.023 25.675-3.011 4.271-6.026 8.54-9.063 12.793-1.016 1.422-2.029 2.847-3.065 4.255-.87 1.181-1.581 2.436-1.948 3.872-1.299 5.091 1.706 10.461 6.716 12.022 1.584.493 3.174.453 4.802.453h40.821c2.167 0 4.239-.224 6.172-1.344 4.033-2.339 5.939-7.302 4.505-11.74-1.337-4.137-5.243-6.865-9.549-6.916-1.778-.021-3.558 0-5.337 0-5.928 0-11.857 0-17.785 0-.414 0-.828 0-1.242 0 4.541-6.437 9.069-12.884 13.59-19.334 5.861-8.361 12.085-16.621 15.35-26.419.911-2.734 1.413-5.454 1.733-8.305.434-3.866-.41-8.081-1.673-11.725-2.477-7.144-7.522-13.281-14.032-17.123-6.761-3.99-14.911-5.347-22.603-3.775-7.631 1.559-14.552 5.959-19.227 12.184-2.362 3.145-4.133 6.724-5.196 10.511-1.093 3.897-1.089 7.824 1.732 11.019 2.633 2.983 6.927 4.131 10.697 2.853 1.805-.612 3.42-1.745 4.61-3.233 1.319-1.648 1.683-3.432 2.264-5.396 2.343-7.93 12.26-11.136 18.81-6.1 2.686 2.065 4.965 5.794 4.647 9.297-.323 3.558-1.966 6.941-3.661 10.035-1.221 2.223-2.591 4.363-4.045 6.441z"/><path id="XMLID_594_" d="m105.333 306c-15.257 0-28.463 10.854-31.399 25.809-1.064 5.419 2.466 10.675 7.886 11.739s10.675-2.467 11.739-7.886c1.1-5.599 6.052-9.662 11.774-9.662 6.617 0 12 5.383 12 12s-5.383 12-12 12c-5.522 0-10 4.478-10 10s4.478 10 10 10c6.617 0 12 5.383 12 12s-5.383 12-12 12c-5.954 0-11.063-4.434-11.884-10.32-.077-.549-.116-1.114-.116-1.68 0-5.522-4.478-10-10-10s-10 4.478-10 10c0 1.491.104 2.991.309 4.45 2.19 15.706 15.815 27.55 31.691 27.55 17.645 0 32-14.355 32-32 0-8.516-3.351-16.26-8.795-22 5.445-5.74 8.795-13.484 8.795-22 0-17.645-14.355-32-32-32z"/><path id="XMLID_595_" d="m482 326c-2.63 0-5.21 1.069-7.07 2.93s-2.93 4.44-2.93 7.07 1.069 5.21 2.93 7.069c1.86 1.86 4.44 2.931 7.07 2.931s5.21-1.07 7.069-2.931c1.861-1.859 2.931-4.439 2.931-7.069s-1.07-5.21-2.931-7.07c-1.859-1.861-4.439-2.93-7.069-2.93z"/></g></g></svg>