<svg height="512" width="512" xmlns="http://www.w3.org/2000/svg"><path d="M502 438h-10v-57c0-5.522-4.478-10-10-10s-10 4.478-10 10v57H341.333V234H472v57c0 5.522 4.478 10 10 10s10-4.478 10-10v-67c0-5.522-4.478-10-10-10H341.333v-38c0-5.522-4.478-10-10-10h-17.778C335.129 148.954 349 122.567 349 93c0-51.28-41.72-93-93-93s-93 41.72-93 93c0 29.567 13.871 55.954 35.445 73h-17.778c-5.522 0-10 4.478-10 10v86H30c-5.522 0-10 4.478-10 10v166H10c-5.522 0-10 4.478-10 10v54c0 5.522 4.478 10 10 10h492c5.522 0 10-4.478 10-10v-54c0-5.522-4.478-10-10-10zM266 20.702c13.98 1.925 26.707 7.815 37.006 16.507A72.546 72.546 0 01266 53.887zm-20 33.185a72.553 72.553 0 01-37.006-16.677c10.3-8.692 23.026-14.582 37.006-16.507zm20 78.226a72.553 72.553 0 0137.006 16.677c-10.3 8.692-23.026 14.582-37.006 16.507zm-20 33.185c-13.98-1.925-26.707-7.815-37.006-16.507A72.537 72.537 0 01246 132.114zm70.417-31.373A92.616 92.616 0 00266 111.941V74.058a92.619 92.619 0 0050.417-21.984C324.354 63.755 329 77.844 329 93s-4.646 29.245-12.583 40.925zm-120.834-81.85A92.616 92.616 0 00246 74.059v37.884a92.619 92.619 0 00-50.417 21.984C187.646 122.245 183 108.156 183 93s4.646-29.245 12.583-40.925zM190.667 186h130.666v252H190.667zM40 282h130.667v156H40zm452 210H20v-34h472z"/><path d="M246.812 328.022h8.377V404c0 5.522 4.478 10 10 10s10-4.478 10-10v-85.978c0-5.522-4.478-10-10-10h-18.377c-5.522 0-10 4.478-10 10s4.477 10 10 10zM408.88 354.93a9162.039 9162.039 0 01-18.023 25.675c-3.011 4.271-6.026 8.54-9.063 12.793-1.016 1.422-2.029 2.847-3.065 4.255-.87 1.181-1.581 2.436-1.948 3.872-1.299 5.091 1.706 10.461 6.716 12.022 1.584.493 3.174.453 4.802.453h40.821c2.167 0 4.239-.224 6.172-1.344 4.033-2.339 5.939-7.302 4.505-11.74-1.337-4.137-5.243-6.865-9.549-6.916-1.778-.021-3.558 0-5.337 0h-19.027a7809.545 7809.545 0 0013.59-19.334c5.861-8.361 12.085-16.621 15.35-26.419.911-2.734 1.413-5.454 1.733-8.305.434-3.866-.41-8.081-1.673-11.725-2.477-7.144-7.522-13.281-14.032-17.123-6.761-3.99-14.911-5.347-22.603-3.775-7.631 1.559-14.552 5.959-19.227 12.184a31.898 31.898 0 00-5.196 10.511c-1.093 3.897-1.089 7.824 1.732 11.019 2.633 2.983 6.927 4.131 10.697 2.853a10.074 10.074 0 004.61-3.233c1.319-1.648 1.683-3.432 2.264-5.396 2.343-7.93 12.26-11.136 18.81-6.1 2.686 2.065 4.965 5.794 4.647 9.297-.323 3.558-1.966 6.941-3.661 10.035-1.221 2.223-2.591 4.363-4.045 6.441zM105.333 306c-15.257 0-28.463 10.854-31.399 25.809-1.064 5.419 2.466 10.675 7.886 11.739s10.675-2.467 11.739-7.886c1.1-5.599 6.052-9.662 11.774-9.662 6.617 0 12 5.383 12 12s-5.383 12-12 12c-5.522 0-10 4.478-10 10s4.478 10 10 10c6.617 0 12 5.383 12 12s-5.383 12-12 12c-5.954 0-11.063-4.434-11.884-10.32a12.135 12.135 0 01-.116-1.68c0-5.522-4.478-10-10-10s-10 4.478-10 10c0 1.491.104 2.991.309 4.45 2.19 15.706 15.815 27.55 31.691 27.55 17.645 0 32-14.355 32-32 0-8.516-3.351-16.26-8.795-22 5.445-5.74 8.795-13.484 8.795-22 0-17.645-14.355-32-32-32zM482 326c-2.63 0-5.21 1.069-7.07 2.93S472 333.37 472 336s1.069 5.21 2.93 7.069c1.86 1.86 4.44 2.931 7.07 2.931s5.21-1.07 7.069-2.931C490.93 341.21 492 338.63 492 336s-1.07-5.21-2.931-7.07A10.067 10.067 0 00482 326z"/></svg>