<svg enable-background="new 0 0 520 520" height="512" viewBox="0 0 520 520" width="512" xmlns="http://www.w3.org/2000/svg"><g id="_x31_565_x2C__Account_x2C__Employee_x2C__User_x2C__Work_x2C_"><path d="m312.59 237.844c39.88-19.526 67.41-60.529 67.41-107.844 0-66.168-53.832-120-120-120s-120 53.832-120 120c0 47.315 27.53 88.318 67.41 107.844-73.676 22.552-127.41 91.193-127.41 172.156v90c0 5.522 4.477 10 10 10h340c5.522 0 10-4.478 10-10v-90c0-80.963-53.734-149.604-127.41-172.156zm-152.59-107.844c0-55.14 44.86-100 100-100 55.141 0 100 44.86 100 100s-44.859 100-100 100c-55.14 0-100-44.86-100-100zm260 360h-320v-80c0-88.225 71.776-160 160-160 88.225 0 160 71.775 160 160z"/></g></svg>