<svg height="512" viewBox="0 0 520 520" width="512" xmlns="http://www.w3.org/2000/svg"><path d="M312.59 237.844C352.47 218.318 380 177.315 380 130c0-66.168-53.832-120-120-120S140 63.832 140 130c0 47.315 27.53 88.318 67.41 107.844C133.734 260.396 80 329.037 80 410v90c0 5.522 4.477 10 10 10h340c5.522 0 10-4.478 10-10v-90c0-80.963-53.734-149.604-127.41-172.156zM160 130c0-55.14 44.86-100 100-100 55.141 0 100 44.86 100 100s-44.859 100-100 100c-55.14 0-100-44.86-100-100zm260 360H100v-80c0-88.225 71.776-160 160-160 88.225 0 160 71.775 160 160z"/></svg>