<?xml version="1.0" encoding="iso-8859-1"?>
<!-- Generator: Adobe Illustrator 19.0.0, SVG Export Plug-In . SVG Version: 6.00 Build 0)  -->
<svg version="1.1" id="Capa_1" xmlns="http://www.w3.org/2000/svg" xmlns:xlink="http://www.w3.org/1999/xlink" x="0px" y="0px"
	 viewBox="0 0 512 512" style="enable-background:new 0 0 512 512;" xml:space="preserve">
<g>
	<g>
		<path d="M276.119,363.459h-8.161l2.511-13.393c-0.105-3.662-3.139-5.127-6.278-5.127c-2.616,0-5.232,1.047-5.546,2.826
			l-2.826,15.695h-11.51l2.407-13.393c0-3.662-3.035-5.127-6.173-5.129c-2.616,0-5.232,1.047-5.65,2.826l-2.826,15.695h-10.255
			c-2.301,0-3.766,2.198-3.766,5.128c0,3.034,1.465,4.918,3.871,4.918h8.162l-2.301,12.87h-10.15c-2.197,0-3.766,2.303-3.766,5.232
			c0,2.931,1.464,4.918,3.766,4.918h8.162l-2.512,14.858c0,3.349,3.663,5.022,6.592,5.022c2.093,0,4.919-1.255,5.232-3.139
			l3.035-16.742h11.3l-2.615,14.858c0,3.349,3.767,5.022,6.697,5.022c2.301,0,5.022-1.255,5.336-3.139l3.034-16.742h10.15
			c1.884,0,3.976-2.092,3.976-5.127c0-2.824-2.092-5.022-4.08-5.022h-8.162l2.407-12.87h10.044c1.988,0,3.872-2.093,3.872-5.022
			C280.096,365.552,278.107,363.459,276.119,363.459z M251.424,386.376h-11.3l2.301-12.87h11.406L251.424,386.376z"/>
	</g>
</g>
<g>
	<g>
		<path d="M300.495,342.846c-1.152,0-2.092,0.419-2.825,1.047l-12.347,9.418c-1.674,1.047-2.616,3.034-2.616,4.918
			c0,2.721,1.779,5.441,4.394,5.441c0.733,0,1.675-0.209,2.512-0.942l3.348-3.348h0.001v55.874c0,2.825,3.349,4.29,6.801,4.29
			c3.349,0,6.801-1.465,6.801-4.29v-68.013C306.564,344.52,303.321,342.846,300.495,342.846z"/>
	</g>
</g>
<g>
	<g>
		<path d="M352.693,210.981c-7.391-0.586-14.593,1.254-20.711,5.207c-3.605-13.226-15.191-23.425-29.62-24.567l-0.783-0.062
			c-7.799-0.616-15.384,1.456-21.709,5.867c-4.101-12.391-15.305-21.772-29.11-22.865l-0.783-0.062
			c-7.697-0.613-15.191,1.408-21.469,5.708l-2.577-131.189c-0.264-13.289-11.291-24.133-24.581-24.172l-12.919-0.04
			c-0.027,0-0.053,0-0.08,0c-13.419,0-24.239,10.489-24.646,23.913l-2.183,71.891c-0.125,4.108,3.104,7.54,7.212,7.664
			c4.099,0.142,7.54-3.105,7.664-7.212l2.183-71.891c0.162-5.323,4.452-9.481,9.773-9.481c0.01,0,0.021,0,0.031,0l12.919,0.04
			c5.269,0.016,9.641,4.315,9.746,9.582l3.027,154.128c0.005,0.237,0.023,0.471,0.049,0.702c-0.039,0.352-0.081,0.702-0.109,1.056
			l-0.704,8.93l-39.747,0.195l1.774-58.43c0.125-4.108-3.104-7.54-7.212-7.664c-0.077-0.003-0.153-0.004-0.23-0.004
			c-4.006,0-7.312,3.185-7.434,7.216l-1.84,60.61c-6.632,1.973-12.717,5.61-17.744,10.715c-8.096,8.22-12.487,19.171-12.367,30.838
			l0.416,40.351c0.094,9.178,2.446,18.261,6.803,26.284l45.841,97.406l-3.444,41.983c-0.497,6.048,1.577,12.077,5.689,16.542
			c4.112,4.464,9.952,7.024,16.022,7.024h124.014c4.324,0,8.357-1.714,11.358-4.826c3.002-3.112,4.569-7.205,4.413-11.526
			l-1.106-30.579c-0.354-8.392,2.562-16.421,8.212-22.608c2.48-2.716,4.887-5.504,7.154-8.285c2.597-3.186,2.119-7.874-1.066-10.471
			c-3.187-2.597-7.874-2.12-10.471,1.066c-2.093,2.568-4.317,5.143-6.608,7.654c-8.318,9.109-12.612,20.925-12.093,33.226
			l1.104,30.534c0.009,0.254-0.076,0.474-0.251,0.657c-0.176,0.182-0.393,0.274-0.646,0.274H199.841
			c-1.952,0-3.754-0.791-5.076-2.225c-1.322-1.435-1.961-3.296-1.802-5.24l3.608-43.962h-0.005c0.104-1.256-0.103-2.555-0.678-3.777
			L149.105,317.7c-0.066-0.14-0.136-0.277-0.209-0.412c-3.256-5.932-5.014-12.669-5.082-19.485l-0.416-40.352
			c-0.079-7.676,2.793-14.865,8.087-20.241c4.167-4.231,9.446-6.897,15.141-7.715c0.012-0.001,0.023-0.003,0.034-0.005
			c1.18-0.168,2.378-0.262,3.588-0.268l61.866-0.303c3.871-0.003,7.592,1.511,10.414,4.308c2.99,2.963,4.645,6.961,4.662,11.255
			l0.031,8.089c0.033,8.601-6.66,15.627-14.919,15.662l-15.328,0.064c-0.014,0-0.028,0-0.043,0l-6.543,0.027
			c-7.084,0.03-13.75,2.852-18.77,7.946c-5.163,5.239-7.964,12.216-7.888,19.646c0.023,2.219,1.036,4.312,2.761,5.707
			c6.762,5.472,14.723,12.767,16.278,20.686c0.792,4.033,4.699,6.664,8.736,5.868c4.033-0.792,6.66-4.703,5.868-8.736
			c-2.189-11.146-10.499-20.026-18.417-26.809c0.524-2.23,1.638-4.265,3.264-5.916c2.217-2.249,5.14-3.496,8.232-3.509l0.776-0.003
			c4.588,11.745,15.567,20.141,28.498,21.164l0.783,0.062c0.9,0.072,1.797,0.107,2.69,0.107c6.838,0,13.421-2.077,19.017-5.98
			c4.1,12.394,15.305,21.778,29.111,22.87l0.783,0.062c0.9,0.072,1.797,0.107,2.69,0.107c7.942,0,15.543-2.794,21.649-8.006
			c0.3-0.256,0.588-0.522,0.877-0.786c5.375,8.967,14.849,15.305,26.041,16.19c0.901,0.072,1.796,0.107,2.69,0.107
			c7.333,0,14.373-2.387,20.217-6.855l1.064,17.505c0.003,0.042,0.006,0.083,0.009,0.125c0.766,9.864-1.618,20.758-7.087,32.379
			c-1.75,3.718-0.154,8.152,3.565,9.902c1.024,0.482,2.102,0.71,3.164,0.71c2.793,0,5.47-1.58,6.738-4.275
			c6.57-13.96,9.418-27.352,8.464-39.803l-2.636-43.367l3.828-48.487C384.831,228.563,371.064,212.434,352.693,210.981z
			 M266.611,209.34l-4.982,63.222c-0.39,4.939-2.678,9.43-6.447,12.647c-3.767,3.216-8.562,4.775-13.501,4.383l-0.783-0.062
			c-5-0.396-9.465-2.787-12.58-6.398l4.044-0.017c16.463-0.07,29.805-13.797,29.741-30.602l-0.031-8.089
			c-0.031-8.273-3.252-16.004-9.067-21.769c-5.612-5.563-13-8.621-20.818-8.621c-0.049,0-0.099,0-0.148,0l-3.791,0.019l0.606-7.688
			c0.39-4.939,2.678-9.43,6.447-12.647c3.768-3.216,8.557-4.776,13.501-4.383l0.783,0.062
			C259.776,190.204,267.413,199.151,266.611,209.34z M318.212,226.4l-0.872,11.073c-0.284,1.376-0.494,2.776-0.606,4.2
			l-4.032,51.067c-0.933,3.692-2.962,7.005-5.917,9.528c-3.767,3.217-8.553,4.773-13.501,4.383l-0.782-0.062c0,0-0.001,0-0.002,0
			c-10.19-0.805-17.826-9.752-17.024-19.943l4.981-63.221c0.39-4.939,2.679-9.43,6.447-12.647c3.388-2.891,7.605-4.442,12.01-4.442
			c0.495,0,0.992,0.019,1.491,0.059l0.783,0.062C311.378,207.264,319.014,216.211,318.212,226.4z M368.544,245.764l-4.055,51.365
			c-0.391,4.939-2.68,9.43-6.448,12.646c-3.767,3.217-8.572,4.776-13.501,4.382c-9.988-0.79-17.501-9.403-17.042-19.339
			c0.265-1.32,0.463-2.662,0.57-4.026l4.018-51.003c0.926-3.717,2.96-7.053,5.932-9.589c3.769-3.217,8.571-4.772,13.501-4.382
			C361.711,226.624,369.348,235.572,368.544,245.764z"/>
	</g>
</g>
<g>
	<g>
		<path d="M354.648,186.252c-3.776-0.297-7.55-0.229-11.266,0.19c-9.969-11.3-23.97-18.356-39.062-19.55l-0.78-0.062
			c-4.519-0.359-9.136-0.186-13.629,0.524c-9.861-10.209-22.899-16.387-37.167-17.52l-2.011-101.307
			c-0.529-26.656-22.647-48.408-49.307-48.487L188.354,0c-26.909,0-48.628,21.069-49.443,47.966l-4.625,152.328
			c-19.201,12.54-30.818,34.217-30.577,57.565l0.416,40.35c0.133,12.934,3.396,25.786,9.44,37.179l42.745,90.829l-2.902,35.381
			c-1.062,12.937,3.373,25.832,12.169,35.38C174.37,506.524,186.859,512,199.841,512h124.014c10.958,0,21.606-4.523,29.213-12.41
			c7.607-7.889,11.744-18.694,11.348-29.644l-1.111-30.727c-0.077-1.829,0.527-3.501,1.747-4.837
			c37.525-41.098,43.496-75.579,41.888-97.283l-2.521-41.453l3.693-46.759C410.636,216.881,386.653,188.784,354.648,186.252z
			 M393.273,247.714l-3.733,47.278c-0.027,0.346-0.031,0.692-0.01,1.038l2.555,42.024c0.002,0.035,0.005,0.069,0.007,0.103
			c1.403,18.78-4.056,48.977-38.032,86.188c-3.871,4.237-5.869,9.742-5.629,15.456l1.109,30.683
			c0.251,6.935-2.368,13.778-7.187,18.773c-4.817,4.995-11.56,7.859-18.5,7.859H199.841c-8.834,0-17.334-3.727-23.32-10.224
			c-5.985-6.497-9.004-15.273-8.281-24.077l3.065-37.36c0.107-1.297-0.129-2.6-0.683-3.777l-43.668-92.791
			c-0.053-0.113-0.109-0.225-0.168-0.334c-4.98-9.334-7.67-19.879-7.778-30.496l-0.416-40.35
			c-0.201-19.376,10.02-37.262,26.673-46.68c2.265-1.281,3.696-3.651,3.774-6.252l4.747-156.357
			c0.572-18.804,15.755-33.534,34.545-33.534l13.049,0.04c18.637,0.056,34.101,15.262,34.47,33.898l2.153,108.39
			c0.039,1.996,0.879,3.893,2.33,5.264c1.451,1.371,3.405,2.095,5.389,2.026c1.647-0.065,3.349-0.028,5.03,0.106l0.794,0.063
			c11.746,0.93,22.374,6.455,29.925,15.558c1.813,2.185,4.709,3.151,7.467,2.484c4.37-1.051,8.938-1.402,13.425-1.044l0.784,0.062
			c12.35,0.977,23.724,7.238,31.208,17.178c1.707,2.267,4.56,3.366,7.346,2.832c3.826-0.734,7.793-0.967,11.772-0.65
			C377.3,202.974,395.153,223.891,393.273,247.714z"/>
	</g>
</g>
<g>
</g>
<g>
</g>
<g>
</g>
<g>
</g>
<g>
</g>
<g>
</g>
<g>
</g>
<g>
</g>
<g>
</g>
<g>
</g>
<g>
</g>
<g>
</g>
<g>
</g>
<g>
</g>
<g>
</g>
</svg>
