<?xml version="1.0" encoding="iso-8859-1"?>
<!-- Generator: Adobe Illustrator 19.0.0, SVG Export Plug-In . SVG Version: 6.00 Build 0)  -->
<svg version="1.1" id="Capa_1" xmlns="http://www.w3.org/2000/svg" xmlns:xlink="http://www.w3.org/1999/xlink" x="0px" y="0px"
	 viewBox="0 0 512 512" style="enable-background:new 0 0 512 512;" xml:space="preserve">
<g>
	<g>
		<path d="M435.894,419.679c4.213-1.977,6.706-7.48,6.706-14.272c0-11.435-7.738-15.39-18.141-15.39
			c-14.53,0-18.829,8.856-18.829,14.96c0,3.611,0.774,4.815,5.761,4.815c4.127,0,5.331-1.72,5.331-4.299
			c0-3.439,2.063-5.761,7.652-5.761c4.643,0,7.566,1.892,7.566,7.566c0,7.394-3.611,8.425-7.91,8.425
			c-2.493,0-3.353,2.236-3.353,4.385c0,2.235,0.86,4.385,3.353,4.385c5.503,0,9.458,1.806,9.458,8.168v1.634
			c0,6.534-2.751,9.285-9.2,9.285c-5.503,0-8.942-2.407-8.942-6.276c0-2.751-1.203-3.955-5.761-3.955
			c-3.869,0-5.331,0.946-5.331,4.385c0,6.965,5.675,15.649,19.775,15.649c11.349,0,20.635-5.245,20.635-19.087v-1.634
			C444.664,425.526,440.967,421.657,435.894,419.679z"/>
	</g>
</g>
<g>
	<g>
		<path d="M104.494,443.323H80.593v-2.064c0-8.941,27.255-14.96,27.255-33.531c0-10.92-9.286-17.454-19.259-17.454
			c-9.544,0-18.485,6.019-18.485,15.82c0,4.643,2.149,6.019,5.073,6.019c3.697,0,5.847-2.063,5.847-4.127
			c0-5.331,3.439-7.566,7.652-7.566c5.675,0,7.996,4.127,7.996,7.652c0,12.123-27.685,19.431-27.685,33.188v8.34
			c-0.001,2.149,2.922,3.525,4.899,3.525h30.608c1.892,0,3.525-2.407,3.525-4.987C108.019,445.558,106.386,443.323,104.494,443.323z
			"/>
	</g>
</g>
<g>
	<g>
		<path d="M258.23,363.82c-0.946,0-1.72,0.344-2.322,0.86l-10.145,7.738c-1.375,0.859-2.149,2.493-2.149,4.041
			c0,2.234,1.461,4.47,3.611,4.47c0.601,0,1.375-0.172,2.063-0.774l2.751-2.751v45.912c0,2.321,2.751,3.525,5.589,3.525
			c2.751,0,5.589-1.204,5.589-3.525v-55.885C263.217,365.195,260.552,363.82,258.23,363.82z"/>
	</g>
</g>
<g>
	<g>
		<path d="M498.057,331.529h-94.964c-4.145,0-7.505,3.36-7.505,7.505c0,4.145,3.36,7.505,7.505,7.505h93.594V496.99H346.235V346.539
			h21.938c4.145,0,7.505-3.36,7.505-7.505s-3.36-7.505-7.505-7.505h-21.938v-33.996c0-7.521-6.119-13.64-13.64-13.64h-68.182
			V171.672L442.55,96.514c3.795-1.601,6.247-5.296,6.247-9.415c0-4.118-2.452-7.814-6.247-9.414l-126.992-53.58
			c-3.816-1.61-8.219,0.177-9.832,3.998c-1.611,3.818,0.179,8.22,3.998,9.832L426.252,87.1l-161.84,68.283V18.817l13.337,5.627
			c3.813,1.607,8.219-0.178,9.832-3.998c1.611-3.818-0.179-8.22-3.998-9.832L259.871,0.61c-0.279-0.12-0.569-0.22-0.864-0.306
			c-0.07-0.02-0.141-0.036-0.212-0.054c-0.201-0.052-0.405-0.097-0.613-0.133c-0.097-0.017-0.193-0.032-0.29-0.044
			c-0.184-0.024-0.37-0.04-0.558-0.05c-0.104-0.006-0.207-0.014-0.311-0.016C256.985,0.005,256.948,0,256.909,0
			c-0.18,0-0.355,0.014-0.532,0.027c-0.065,0.005-0.13,0.003-0.195,0.01c-0.289,0.028-0.572,0.073-0.85,0.132
			c-0.042,0.009-0.084,0.022-0.126,0.032c-0.238,0.055-0.472,0.121-0.701,0.199c-0.068,0.023-0.136,0.049-0.203,0.075
			c-0.208,0.077-0.411,0.163-0.609,0.257c-0.066,0.032-0.133,0.062-0.199,0.096c-0.228,0.117-0.45,0.244-0.664,0.383
			c-0.023,0.015-0.048,0.026-0.071,0.041c-0.005,0.003-0.01,0.008-0.015,0.011c-0.236,0.158-0.462,0.33-0.678,0.514
			c-0.061,0.052-0.118,0.108-0.178,0.161c-0.15,0.136-0.296,0.276-0.435,0.424c-0.065,0.069-0.129,0.139-0.192,0.211
			c-0.134,0.154-0.262,0.314-0.383,0.478c-0.045,0.06-0.092,0.119-0.135,0.181c-0.162,0.233-0.313,0.474-0.448,0.725
			c-0.001,0.001-0.001,0.003-0.002,0.004c-0.132,0.246-0.247,0.502-0.352,0.764c-0.026,0.064-0.047,0.129-0.071,0.194
			c-0.075,0.203-0.141,0.409-0.198,0.62c-0.021,0.079-0.042,0.158-0.061,0.238c-0.049,0.207-0.088,0.418-0.119,0.631
			c-0.011,0.077-0.026,0.153-0.035,0.23c-0.033,0.285-0.054,0.574-0.054,0.868v276.389h-70c-7.521,0-13.64,6.119-13.64,13.64v33.996
			H13.943c-7.521,0-13.64,6.119-13.64,13.64V498.36c0,7.522,6.119,13.64,13.64,13.64h484.114c7.521,0,13.64-6.118,13.64-13.64
			V345.169C511.697,337.648,505.577,331.529,498.057,331.529z M15.313,496.99V346.539h150.451V496.99H15.313z M331.226,496.99
			H180.774V298.903h150.452V496.99z"/>
	</g>
</g>
<g>
	<g>
		<path d="M88.918,357.882h-0.831c-35.225,0-63.882,28.658-63.882,63.883c0,35.225,28.657,63.882,63.882,63.882h0.831
			c35.225,0,63.882-28.657,63.882-63.882S124.143,357.882,88.918,357.882z M88.918,470.638h-0.831
			c-26.948,0-48.873-21.924-48.873-48.873c0-26.95,21.925-48.874,48.873-48.874h0.831c26.948,0,48.873,21.924,48.873,48.874
			C137.791,448.713,115.867,470.638,88.918,470.638z"/>
	</g>
</g>
<g>
	<g>
		<path d="M257.324,334.065h-0.83c-35.225,0-63.883,28.657-63.883,63.882s28.658,63.883,63.883,63.883h0.83
			c35.225,0,63.882-28.658,63.882-63.883C321.206,362.722,292.549,334.065,257.324,334.065z M257.324,446.821h-0.83
			c-26.949,0-48.874-21.924-48.874-48.874c0.001-26.949,21.925-48.873,48.874-48.873h0.83c26.948,0,48.873,21.924,48.873,48.873
			C306.197,424.896,284.273,446.821,257.324,446.821z"/>
	</g>
</g>
<g>
	<g>
		<path d="M423.913,357.882h-0.831c-35.225,0-63.882,28.658-63.882,63.883c0,35.225,28.657,63.882,63.882,63.882h0.831
			c35.225,0,63.882-28.657,63.882-63.882S459.138,357.882,423.913,357.882z M423.913,470.638h-0.831
			c-26.948,0-48.873-21.924-48.873-48.873c0.001-26.95,21.925-48.874,48.873-48.874h0.831c26.948,0,48.873,21.924,48.873,48.874
			C472.786,448.713,450.862,470.638,423.913,470.638z"/>
	</g>
</g>
<g>
</g>
<g>
</g>
<g>
</g>
<g>
</g>
<g>
</g>
<g>
</g>
<g>
</g>
<g>
</g>
<g>
</g>
<g>
</g>
<g>
</g>
<g>
</g>
<g>
</g>
<g>
</g>
<g>
</g>
</svg>
