<?xml version="1.0" encoding="iso-8859-1"?>
<!-- Generator: Adobe Illustrator 19.0.0, SVG Export Plug-In . SVG Version: 6.00 Build 0)  -->
<svg version="1.1" id="Capa_1" xmlns="http://www.w3.org/2000/svg" xmlns:xlink="http://www.w3.org/1999/xlink" x="0px" y="0px"
	 viewBox="0 0 512.001 512.001" style="enable-background:new 0 0 512.001 512.001;" xml:space="preserve">
<g>
	<g>
		<path d="M493.221,256.002l18.403-69.353c0.889-3.346,0.188-6.838-1.923-9.582c-2.11-2.744-5.307-4.318-8.768-4.318H456.34
			c-4.142,0-7.5,3.357-7.5,7.5s3.358,7.5,7.5,7.5h39.474l-17.357,65.412c-0.494,1.859-0.494,3.823-0.001,5.679l17.358,65.417
			h-39.782c-4.142,0-7.5,3.357-7.5,7.5c0,4.142,3.358,7.5,7.5,7.5h44.901c3.462,0,6.658-1.574,8.768-4.318
			c2.11-2.746,2.811-6.238,1.923-9.583L493.221,256.002z"/>
	</g>
</g>
<g>
	<g>
		<path d="M55.285,324.255H16.187l17.359-65.419c0.492-1.855,0.492-3.816,0-5.673l-17.359-65.416h39.161
			c4.142,0.001,7.5-3.356,7.5-7.499s-3.358-7.5-7.5-7.5h-44.28c-3.461,0-6.657,1.573-8.767,4.317
			c-2.111,2.744-2.812,6.236-1.924,9.582l18.402,69.354L0.376,325.356c-0.888,3.346-0.187,6.838,1.924,9.582
			c2.11,2.744,5.306,4.317,8.767,4.317h44.218c4.142,0,7.5-3.357,7.5-7.5S59.427,324.255,55.285,324.255z"/>
	</g>
</g>
<g>
	<g>
		<path d="M404.384,235.94c-4.772-35.622-22.321-68.394-49.412-92.28c-27.338-24.102-62.487-37.376-98.972-37.376
			c-36.478,0-71.622,13.27-98.959,37.366c-27.089,23.877-44.64,56.64-49.421,92.254c-0.551,4.106,2.33,7.88,6.436,8.432
			c4.098,0.54,7.879-2.331,8.431-6.435c4.3-32.034,20.094-61.51,44.473-82.999c24.595-21.678,56.217-33.618,89.041-33.618
			c32.83,0,64.456,11.943,89.052,33.628c24.381,21.495,40.172,50.979,44.465,83.02c0.505,3.768,3.725,6.505,7.424,6.505
			c0.332,0,0.667-0.022,1.005-0.067C402.052,243.82,404.934,240.046,404.384,235.94z"/>
	</g>
</g>
<g>
	<g>
		<path d="M398.055,266.207c-4.118-0.505-7.856,2.412-8.365,6.522c-8.326,67.266-65.8,117.99-133.69,117.99
			c-67.94,0-125.419-50.767-133.702-118.088c-0.506-4.11-4.244-7.032-8.36-6.528c-4.111,0.506-7.034,4.249-6.528,8.36
			c9.206,74.828,73.086,131.256,148.59,131.256c75.449,0,139.322-56.381,148.577-131.148
			C405.085,270.46,402.165,266.715,398.055,266.207z"/>
	</g>
</g>
<g>
	<g>
		<path d="M440.239,248.473c-5.422-7.673-6.522-17.442-2.944-26.13c8.172-19.836,0.189-42.648-18.568-53.064
			c-8.215-4.56-13.445-12.884-13.99-22.263v-0.001c-1.245-21.418-18.335-38.507-39.752-39.751
			c-9.38-0.545-17.704-5.775-22.265-13.99c-10.414-18.757-33.227-26.738-53.064-18.568c-8.688,3.581-18.455,2.478-26.129-2.944
			c-17.521-12.382-41.537-9.675-55.865,6.295c-6.273,6.993-15.551,10.242-24.819,8.684c-21.155-3.555-41.622,9.306-47.601,29.911
			c-2.618,9.023-9.569,15.974-18.593,18.592c-20.605,5.98-33.463,26.444-29.91,47.602c1.556,9.266-1.691,18.545-8.685,24.819
			c-15.969,14.327-18.675,38.344-6.294,55.865c5.423,7.674,6.523,17.441,2.944,26.129c-8.172,19.838-0.189,42.65,18.567,53.063
			c8.215,4.561,13.445,12.886,13.99,22.266c1.245,21.418,18.335,38.507,39.752,39.751c9.38,0.545,17.704,5.775,22.265,13.99
			c10.414,18.758,33.227,26.738,53.063,18.567c8.687-3.578,18.456-2.478,26.13,2.944c7.378,5.214,15.905,7.752,24.378,7.751
			c11.649,0,23.193-4.8,31.487-14.045c6.276-6.995,15.553-10.239,24.82-8.684c21.155,3.551,41.621-9.307,47.601-29.911
			c2.618-9.024,9.569-15.974,18.593-18.592c20.605-5.98,33.463-26.444,29.91-47.602c-1.556-9.266,1.691-18.545,8.685-24.82
			C449.914,290.01,452.619,265.993,440.239,248.473z M423.929,293.173c-10.841,9.725-15.873,24.106-13.461,38.469
			c2.292,13.65-6.004,26.854-19.297,30.711c-13.987,4.059-24.76,14.832-28.818,28.818c-3.858,13.294-17.065,21.589-30.711,19.299
			c-14.362-2.414-28.743,2.619-38.469,13.46c-9.243,10.304-24.738,12.05-36.044,4.061c-7.277-5.142-15.768-7.776-24.35-7.776
			c-5.443,0-10.923,1.06-16.15,3.213c-12.8,5.271-27.517,0.122-34.236-11.979c-7.069-12.732-19.969-20.839-34.509-21.683
			c-13.819-0.803-24.845-11.829-25.648-25.647c-0.845-14.539-8.95-27.44-21.683-34.51c-12.102-6.719-17.252-21.436-11.98-34.236
			c5.547-13.466,3.841-28.605-4.563-40.498c-7.988-11.305-6.242-26.8,4.061-36.043c10.841-9.725,15.873-24.106,13.461-38.469
			c-2.292-13.65,6.004-26.854,19.298-30.711c13.987-4.059,24.76-14.833,28.818-28.818c3.858-13.295,17.059-21.593,30.712-19.299
			c14.361,2.414,28.744-2.621,38.468-13.461c9.243-10.305,24.74-12.051,36.044-4.061c11.894,8.404,27.034,10.111,40.499,4.563
			c12.798-5.271,27.517-0.123,34.236,11.98c7.069,12.732,19.969,20.839,34.509,21.683c13.819,0.803,24.845,11.829,25.648,25.648
			v-0.001c0.845,14.54,8.951,27.44,21.683,34.508c12.102,6.72,17.252,21.438,11.98,34.237c-5.547,13.466-3.841,28.606,4.563,40.499
			C435.977,268.434,434.231,283.929,423.929,293.173z"/>
	</g>
</g>
<g>
	<g>
		<path d="M358.169,233.382c0.035-2.19-0.544-4.394-1.768-6.327l-29.12-46.005c-0.968-1.528-2.261-2.758-3.747-3.662
			c-0.015-0.009-0.027-0.021-0.042-0.03c-0.016-0.01-0.032-0.017-0.047-0.027c-0.183-0.109-0.367-0.217-0.556-0.316
			c-0.091-0.047-0.184-0.087-0.276-0.13c-1.545-0.755-3.257-1.181-5.045-1.181H194.432c-1.789,0-3.501,0.427-5.046,1.182
			c-0.092,0.043-0.184,0.083-0.275,0.13c-0.189,0.098-0.371,0.206-0.554,0.315c-0.016,0.01-0.033,0.018-0.049,0.028
			c-0.015,0.01-0.029,0.021-0.044,0.031c-1.485,0.904-2.778,2.134-3.746,3.663l-7.834,12.377c-2.215,3.5-1.174,8.133,2.326,10.348
			c3.499,2.215,8.133,1.174,10.348-2.326l2.694-4.256l18.317,28.755l-36.519,0.001l1.267-2.001
			c2.216-3.502,1.174-8.136-2.326-10.351c-3.5-2.218-8.134-1.175-10.348,2.325l-7.045,11.13c-1.224,1.933-1.803,4.138-1.768,6.328
			c0,0.023-0.003,0.045-0.003,0.068c0,0.038,0.005,0.075,0.006,0.113c0.005,0.147,0.012,0.293,0.022,0.439
			c0.008,0.114,0.017,0.228,0.03,0.341c0.211,2.127,1.005,4.201,2.383,5.956l90.686,115.6c1.764,2.248,4.245,3.708,6.996,4.201
			c0.097,0.018,0.194,0.035,0.292,0.05c0.578,0.088,1.162,0.15,1.758,0.15c0.594,0,1.177-0.061,1.753-0.149
			c0.099-0.015,0.197-0.032,0.295-0.051c2.751-0.493,5.234-1.953,6.998-4.202l90.685-115.598c1.378-1.756,2.171-3.83,2.383-5.956
			c0.013-0.114,0.022-0.229,0.03-0.344c0.01-0.145,0.017-0.291,0.022-0.436c0.001-0.039,0.006-0.076,0.006-0.115
			C358.172,233.427,358.169,233.405,358.169,233.382z M306.098,190.703l-18.337,28.785l-18.337-28.785H306.098z M274.091,225.948
			h-36.674l18.337-28.786L274.091,225.948z M205.901,190.703h36.182l-18.091,28.399L205.901,190.703z M175.842,240.95l42.602-0.002
			l21.204,81.337L175.842,240.95z M272.247,322.417l9.39-36.299c1.037-4.01-1.373-8.101-5.383-9.139
			c-4.012-1.038-8.102,1.371-9.139,5.383l-11.143,43.078l-22.027-84.494h43.884l-4.054,15.674c-1.038,4.01,1.372,8.101,5.382,9.139
			c0.63,0.163,1.262,0.241,1.884,0.241c3.336,0,6.381-2.243,7.256-5.624l5.026-19.429l42.837,0.002L272.247,322.417z
			 M301.431,225.949l18.317-28.755l18.202,28.756L301.431,225.949z"/>
	</g>
</g>
<g>
</g>
<g>
</g>
<g>
</g>
<g>
</g>
<g>
</g>
<g>
</g>
<g>
</g>
<g>
</g>
<g>
</g>
<g>
</g>
<g>
</g>
<g>
</g>
<g>
</g>
<g>
</g>
<g>
</g>
</svg>
