<?xml version="1.0" encoding="iso-8859-1"?>
<!-- Generator: Adobe Illustrator 19.0.0, SVG Export Plug-In . SVG Version: 6.00 Build 0)  -->
<svg version="1.1" id="Capa_1" xmlns="http://www.w3.org/2000/svg" xmlns:xlink="http://www.w3.org/1999/xlink" x="0px" y="0px"
	 viewBox="0 0 512.001 512.001" style="enable-background:new 0 0 512.001 512.001;" xml:space="preserve">
<g>
	<g>
		<path d="M399.391,330.894l-6.565-108.004c-0.308-17.696-14.06-32.648-32.058-34.072c-7.994-0.633-15.779,1.457-22.306,5.911
			c-3.897-13.546-15.858-23.941-30.714-25.117l-0.825-0.065c-7.225-0.576-14.281,1.068-20.395,4.652l6.212-80.806
			c0.317-4.122-2.768-7.72-6.889-8.036c-4.105-0.337-7.719,2.767-8.036,6.888l-8.393,109.175c0,0.003,0,0.006,0,0.009l-0.347,4.471
			c-5.249-3.854-11.528-5.935-18.098-5.935c-0.051,0-0.103,0-0.154,0l-74.043,0.319c-5.412,0.027-10.67,1.067-15.578,3.01
			L128.556,75.119c-0.029-0.112-0.06-0.224-0.094-0.335c-1.577-5.174-1.045-10.653,1.498-15.427
			c2.535-4.757,6.764-8.247,11.913-9.832c10.726-3.028,22.078,3.114,25.422,13.731l27.159,110.437
			c0.033,0.133,0.069,0.265,0.109,0.396c1.652,5.42,4.66,12.936,11.67,15.626c3.054,1.171,8.001,1.784,14.219-1.958
			c6.139-3.696,10.144-10.292,10.712-17.645L241.695,33.72c0.408-5.492,2.956-10.467,7.174-14.009
			c4.216-3.54,9.559-5.186,15.053-4.637c10.823,1.083,18.948,11.075,18.113,22.259l-1.557,20.255
			c-0.317,4.122,2.768,7.72,6.889,8.036c4.101,0.328,7.719-2.767,8.036-6.888l1.558-20.271
			c1.436-19.227-12.717-36.401-31.549-38.286c-9.543-0.951-18.836,1.91-26.17,8.069c-7.336,6.159-11.768,14.812-12.475,24.342
			l-10.529,136.37c-0.196,2.536-1.507,4.769-3.507,5.972c-0.558,0.336-0.963,0.517-1.228,0.612
			c-0.464-0.556-1.455-2.053-2.564-5.633l-27.16-110.444c-0.033-0.133-0.069-0.265-0.109-0.396
			c-5.643-18.506-25.368-29.238-43.969-23.923c-0.042,0.013-0.094,0.027-0.135,0.041c-9,2.742-16.393,8.826-20.817,17.128
			c-4.395,8.25-5.337,17.708-2.659,26.656l33.791,132.674c-0.566,0.518-1.122,1.051-1.665,1.602
			c-8.449,8.578-13.033,20.009-12.907,32.187l0.437,42.433c0.099,9.6,2.559,19.099,7.117,27.487l48.296,102.623l-0.786,14.415
			h-0.879c-9.351,0-16.959,7.608-16.959,16.959v45.688c0,9.351,7.608,16.96,16.959,16.96h158.779c9.351,0,16.959-7.609,16.959-16.96
			v-45.688c0-9.017-7.08-16.392-15.97-16.909l-0.423-10.033l40.75-51.113c0.171-0.214,0.33-0.439,0.477-0.671
			c7.402-11.722,11.323-25.302,11.339-39.271C399.405,331.203,399.4,331.048,399.391,330.894z M333.691,279.774l0.831-10.551
			c0.295-1.43,0.512-2.885,0.629-4.365l3.632-46.109c0.983-4,3.164-7.592,6.359-10.319c4.031-3.442,9.162-5.104,14.447-4.69
			c10.903,0.863,19.074,10.435,18.215,21.338l-4.553,57.811c-0.416,5.284-2.866,10.091-6.898,13.532
			c-4.032,3.442-9.164,5.107-14.447,4.69C341.003,300.249,332.832,290.677,333.691,279.774z M279.846,260.494l0.844-10.865
			c0.003-0.011,0.006-0.023,0.009-0.035c0.209-0.688,0.39-1.389,0.554-2.096c0.034-0.145,0.065-0.29,0.097-0.436
			c0.303-1.398,0.515-2.83,0.63-4.291c0.014-0.172,0.026-0.344,0.037-0.516c0.045-0.717,0.075-1.439,0.072-2.168l-0.031-8.067
			l2.289-29.441c0.414-5.263,2.864-10.041,6.899-13.456c4.042-3.422,9.197-5.073,14.494-4.655l0.823,0.065c0,0,0.001,0,0.002,0
			c10.902,0.862,19.074,10.434,18.214,21.337l-0.831,10.551c-0.295,1.43-0.512,2.885-0.629,4.365l-3.632,46.109
			c-0.983,4-3.164,7.591-6.359,10.318c-4.032,3.442-9.158,5.106-14.445,4.69l-0.824-0.065
			C287.158,280.977,278.986,271.405,279.846,260.494z M375.62,362.298l-41.12,51.578c-1.84,2.305-2.784,5.197-2.66,8.146
			l0.438,10.372h-85.45c-4.134,0-7.485,3.351-7.485,7.485s3.351,7.485,7.485,7.485h99.445c1.097,0,1.99,0.893,1.99,1.989v45.688
			c0,1.097-0.893,1.99-1.99,1.99H187.494c-1.097,0-1.99-0.893-1.99-1.99v-45.688c0-1.096,0.893-1.989,1.99-1.989H212
			c4.134,0,7.485-3.351,7.485-7.485s-3.351-7.485-7.485-7.485h-8.635l0.841-15.438c0.016-0.266,0.018-0.533,0.006-0.801
			c-0.002-0.054-0.011-0.106-0.014-0.159c-0.013-0.19-0.028-0.38-0.055-0.57c-0.017-0.118-0.044-0.233-0.067-0.349
			c-0.024-0.122-0.043-0.244-0.073-0.365c-0.045-0.182-0.101-0.359-0.159-0.536c-0.018-0.055-0.031-0.11-0.05-0.165
			c-0.089-0.252-0.191-0.499-0.305-0.738L154.312,308.78c-0.066-0.14-0.136-0.279-0.211-0.414c-3.45-6.286-5.312-13.427-5.387-20.65
			l-0.437-42.433c-0.084-8.164,2.972-15.81,8.604-21.529c5.363-5.445,12.455-8.463,19.966-8.5l74.044-0.319c0.026,0,0.052,0,0.078,0
			c4.157,0,8.101,1.642,11.114,4.628c3.209,3.181,4.986,7.47,5.004,12.076l0.001,0.137v0.001l0.032,8.368
			c0.002,0.536-0.026,1.064-0.071,1.587c-0.015,0.175-0.042,0.348-0.063,0.523c-0.041,0.346-0.087,0.691-0.147,1.03
			c-0.036,0.202-0.08,0.403-0.124,0.604c-0.067,0.309-0.14,0.615-0.224,0.918c-0.055,0.201-0.113,0.4-0.176,0.599
			c-2.1,6.672-8.115,11.521-15.215,11.551l-32.034,0.096c-7.358,0.031-14.282,2.962-19.497,8.253
			c-5.366,5.445-8.277,12.696-8.198,20.418c0.023,2.232,1.041,4.338,2.777,5.741c8.121,6.571,14.055,14.412,17.639,23.306
			c4.351,10.797,5.348,23.621,2.964,38.116c-0.908,5.522-2.32,11.331-4.195,17.267c-1.246,3.941,0.94,8.147,4.882,9.392
			c3.942,1.243,8.147-0.94,9.392-4.882c2.09-6.614,3.669-13.124,4.692-19.348c2.836-17.238,1.54-32.763-3.85-46.139
			c-4.071-10.103-10.461-19.077-19.02-26.724c0.539-2.506,1.763-4.796,3.579-6.639c2.396-2.431,5.556-3.777,8.889-3.791
			l32.033-0.096c5.133-0.022,9.969-1.328,14.23-3.606c2.773,15.141,15.445,27.172,31.495,28.442l0.825,0.065
			c0.937,0.074,1.871,0.111,2.8,0.111c7,0,13.742-2.092,19.505-6.024c3.896,13.548,15.859,23.944,30.717,25.12
			c0.937,0.074,1.871,0.111,2.8,0.111c8.27,0,16.187-2.91,22.546-8.339c2.526-2.157,4.691-4.623,6.473-7.319l1.889,31.077
			C384.381,342.493,381.337,353.105,375.62,362.298z"/>
	</g>
</g>
<g>
</g>
<g>
</g>
<g>
</g>
<g>
</g>
<g>
</g>
<g>
</g>
<g>
</g>
<g>
</g>
<g>
</g>
<g>
</g>
<g>
</g>
<g>
</g>
<g>
</g>
<g>
</g>
<g>
</g>
</svg>
