<?xml version="1.0" encoding="iso-8859-1"?>
<!-- Generator: Adobe Illustrator 19.0.0, SVG Export Plug-In . SVG Version: 6.00 Build 0)  -->
<svg version="1.1" id="Capa_1" xmlns="http://www.w3.org/2000/svg" xmlns:xlink="http://www.w3.org/1999/xlink" x="0px" y="0px"
	 viewBox="0 0 512.001 512.001" style="enable-background:new 0 0 512.001 512.001;" xml:space="preserve">
<g>
	<g>
		<path d="M375.537,56.733c-0.233-0.34-0.5-0.657-0.787-0.957c-4.59-5.538-9.578-10.784-14.959-15.675
			c-3.074-2.793-7.833-2.567-10.626,0.507c-2.795,3.075-2.567,7.833,0.507,10.627c4.014,3.648,7.782,7.519,11.311,11.571
			l-14.413,50.192l-31.364,12.218c-0.008-0.006-0.016-0.013-0.024-0.018L263.524,89.31V57.833l46.138-32.054
			c4.344,1.81,8.602,3.829,12.74,6.077c3.654,1.986,8.219,0.631,10.202-3.019c1.983-3.651,0.631-8.219-3.02-10.202
			c-5.778-3.139-11.758-5.89-17.888-8.255c-0.24-0.103-0.483-0.195-0.732-0.272C293.497,3.47,274.82,0,256.001,0
			c-19.259,0-37.7,3.556-54.716,10.028c-0.453,0.125-0.895,0.294-1.32,0.503c-24.408,9.542-45.808,25.127-62.361,44.904
			c-0.523,0.478-0.973,1.025-1.34,1.623c-21.635,26.572-34.626,60.448-34.626,97.305c0,0.475,0.008,0.948,0.016,1.421l0.009,0.597
			c0,0.003,0.001,0.006,0.001,0.009c0.38,29.34,8.983,56.729,23.611,79.967c0.27,0.575,0.61,1.109,1.011,1.594
			c19.141,29.6,48.13,52.258,82.294,63.312v4.572c0,12.443,6.819,23.315,16.911,29.1c-1.628,8.505-3.609,16.844-5.948,24.843
			c-1.166,3.988,1.122,8.166,5.109,9.332c0.705,0.206,1.416,0.304,2.115,0.304c3.256,0,6.257-2.131,7.217-5.414
			c2.333-7.979,4.338-16.267,6.001-24.715c0.701,0.044,1.406,0.074,2.118,0.074h27.792c0.709,0,1.41-0.03,2.108-0.073
			c5.896,30.072,15.919,56.832,29.867,79.838h-91.733c4.131-6.829,7.936-14.023,11.371-21.507c1.734-3.776,0.078-8.242-3.698-9.975
			c-3.777-1.735-8.242-0.077-9.975,3.698c-4.54,9.89-9.767,19.216-15.557,27.784h-42.55c-6.776,0-12.636,4.826-13.935,11.476
			l-12.6,64.479c-0.817,4.179,0.267,8.461,2.974,11.749c2.707,3.287,6.703,5.173,10.961,5.173H374.87
			c4.259,0,8.254-1.886,10.961-5.174c2.707-3.287,3.791-7.57,2.973-11.748L376.208,430.6c-1.3-6.65-7.161-11.476-13.936-11.476
			H319.74c-15.887-23.478-27.057-51.749-33.243-84.182c10.099-5.782,16.923-16.659,16.923-29.107v-4.572
			c34.165-11.055,63.155-33.713,82.296-63.314c0.4-0.484,0.739-1.017,1.009-1.59c14.631-23.242,23.235-50.638,23.613-79.984v-0.001
			l0.01-0.609c0.005-0.32,0.008-0.641,0.01-0.962c0-0.147,0.006-0.293,0.006-0.441C410.364,118.643,397.87,84.121,375.537,56.733z
			 M361.573,434.17C361.574,434.17,361.574,434.17,361.573,434.17c0.001,0,0.001,0,0.002,0l12.268,62.784H138.158l12.268-62.784
			c0.002,0,0,0,0.002,0H361.573z M372.339,77.777c12.384,18.84,20.105,40.52,22.312,63.125l-33.365-24.637L372.339,77.777z
			 M304.83,136.328l-18.575,54.666h-60.507l-18.576-54.666l48.829-33.924L304.83,136.328z M256.001,15.046
			c12.166,0,24.264,1.614,35.943,4.722l-35.943,24.971L220.046,19.76C231.521,16.691,243.571,15.046,256.001,15.046z
			 M202.359,25.793l46.119,32.041V89.31l-51.633,35.872l-31.432-12.244l-14.379-50.075
			C164.983,46.881,182.512,34.104,202.359,25.793z M139.669,77.799l11.045,38.466l-33.378,24.648
			C119.563,117.763,127.482,96.255,139.669,77.799z M136.417,225.763c-11.615-19.379-18.65-41.799-19.609-65.758l44.114-32.575
			c0.028-0.021,0.053-0.044,0.08-0.064l31.387,12.227l19.485,57.341l-21.616,30.384L136.417,225.763z M147.082,241.124l41.748,1.206
			l13.84,40.729C180.769,273.95,161.677,259.409,147.082,241.124z M288.374,305.835c0,10.189-8.289,18.478-18.477,18.478h-27.792
			c-10.189,0-18.478-8.289-18.478-18.478v-0.536c10.444,2.238,21.272,3.426,32.374,3.426s21.93-1.188,32.373-3.426V305.835z
			 M291.38,289.122c-11.302,2.969-23.158,4.557-35.379,4.557s-24.078-1.588-35.38-4.557l-18.052-53.126
			c-0.002-0.005-0.004-0.011-0.006-0.016l21.3-29.939h64.267l21.306,29.948c-0.001,0.003-0.002,0.005-0.003,0.007L291.38,289.122z
			 M309.332,283.06l13.84-40.729l41.749-1.206C350.324,259.409,331.233,273.95,309.332,283.06z M375.585,225.763l-53.851,1.556
			l-21.61-30.376l19.466-57.286l31.456-12.254c0.012,0.009,0.022,0.019,0.034,0.027l44.114,32.575
			C394.234,183.964,387.199,206.384,375.585,225.763z"/>
	</g>
</g>
<g>
	<g>
		<path d="M360.383,475.157l-4.552-23.299c-0.981-5.018-5.403-8.66-10.516-8.66h-178.63c-5.113,0-9.536,3.642-10.516,8.66
			l-4.553,23.299c-0.616,3.154,0.202,6.385,2.244,8.866c2.043,2.481,5.058,3.904,8.272,3.904h187.736
			c3.213,0,6.228-1.422,8.27-3.903C360.181,481.543,360.999,478.312,360.383,475.157z M167.392,472.881l2.86-14.637h171.499
			l2.859,14.637H167.392z"/>
	</g>
</g>
<g>
</g>
<g>
</g>
<g>
</g>
<g>
</g>
<g>
</g>
<g>
</g>
<g>
</g>
<g>
</g>
<g>
</g>
<g>
</g>
<g>
</g>
<g>
</g>
<g>
</g>
<g>
</g>
<g>
</g>
</svg>
