<?xml version="1.0" encoding="iso-8859-1"?>
<!-- Generator: Adobe Illustrator 19.0.0, SVG Export Plug-In . SVG Version: 6.00 Build 0)  -->
<svg version="1.1" id="Capa_1" xmlns="http://www.w3.org/2000/svg" xmlns:xlink="http://www.w3.org/1999/xlink" x="0px" y="0px"
	 viewBox="0 0 511.998 511.998" style="enable-background:new 0 0 511.998 511.998;" xml:space="preserve">
<g>
	<g>
		<path d="M256,168.805c-18.453,0-33.467,15.014-33.467,33.467S237.546,235.74,256,235.74s33.467-15.014,33.467-33.468
			C289.467,183.818,274.453,168.805,256,168.805z M256,220.287c-9.934,0-18.015-8.081-18.015-18.015
			c0-9.933,8.081-18.015,18.015-18.015s18.015,8.081,18.015,18.015C274.015,212.206,265.934,220.287,256,220.287z"/>
	</g>
</g>
<g>
	<g>
		<path d="M464.686,171.095c-44.078-40.09-101.745-44.806-166.768-13.636l-0.225,0.117c-0.011,0.003-1.241,0.215-4.284-1.37
			c-5.169-2.693-9.129-7.38-11.152-13.198l-1.261-3.627c3.342-1.615,6.197-4.185,8.206-7.507c3.575-5.915,3.792-13.1,0.579-19.22
			l-3.472-6.614l6.614,3.472c6.12,3.212,13.305,2.995,19.22-0.579c5.915-3.575,9.446-9.837,9.446-16.748V59.279
			c0-6.912-3.532-13.173-9.447-16.749c-5.914-3.574-13.1-3.791-19.219-0.579l-6.614,3.472l3.472-6.615
			c3.213-6.12,2.996-13.305-0.579-19.22c-3.575-5.915-9.837-9.446-16.748-9.446h-32.906c-6.911,0-13.173,3.531-16.748,9.446
			c-3.575,5.915-3.792,13.1-0.579,19.22l3.472,6.614l-6.614-3.472c-6.119-3.212-13.304-2.996-19.22,0.579
			c-5.915,3.575-9.447,9.837-9.447,16.749v32.906c0,6.911,3.531,13.173,9.446,16.748c5.915,3.575,13.1,3.793,19.22,0.579
			l6.614-3.472l-3.472,6.614c-3.213,6.12-2.996,13.305,0.579,19.22c2.006,3.318,4.857,5.886,8.195,7.501l-1.242,3.57
			c-2.033,5.844-6.015,10.541-11.213,13.226c-2.545,1.315-3.829,1.387-4.16,1.387c-0.063,0-0.092-0.003-0.088,0.001l-0.21-0.101
			c-65.023-31.17-122.69-26.453-166.766,13.637C15.303,200.211-0.61,235.369,0.018,275.592c0.233,14.945,2.888,30.636,7.891,46.636
			c1.033,3.305,4.082,5.423,7.372,5.423c0.764,0,1.541-0.114,2.308-0.354c4.072-1.274,6.342-5.607,5.068-9.68
			c-4.56-14.584-6.979-28.804-7.189-42.266c-0.556-35.593,13.657-66.824,42.243-92.825c39.042-35.511,90.803-39.361,149.692-11.133
			l0.207,0.1c5.137,2.466,11.199,1.931,18.02-1.593c8.729-4.51,15.375-12.279,18.715-21.878l2.331-6.702h18.632l2.351,6.762
			c3.322,9.555,9.931,17.307,18.608,21.827c6.816,3.551,12.88,4.099,18.024,1.63l0.306-0.147
			c58.886-28.228,110.647-24.378,149.69,11.134c28.586,26.001,42.799,57.231,42.243,92.825c-0.209,13.401-2.607,27.554-7.126,42.066
			c-1.269,4.074,1.005,8.405,5.079,9.674c4.073,1.27,8.405-1.006,9.674-5.079c4.959-15.923,7.592-31.541,7.823-46.419
			C512.61,235.369,496.697,200.211,464.686,171.095z M261.097,91.261l15.002,28.575c0.974,1.856,0.239,3.446-0.122,4.044
			c-0.361,0.598-1.428,1.987-3.524,1.987h-1.649h-29.619h-1.638c-2.096,0-3.162-1.39-3.524-1.987
			c-0.361-0.598-1.096-2.188-0.122-4.043l15.002-28.575c1.572-2.994,1.014-6.663-1.378-9.055c-1.485-1.485-3.463-2.263-5.466-2.263
			c-1.222,0-2.454,0.29-3.589,0.885L211.895,95.83c-1.855,0.974-3.447,0.239-4.044-0.122c-0.598-0.361-1.987-1.428-1.987-3.524
			V59.279c0-2.096,1.39-3.162,1.987-3.524c0.598-0.362,2.187-1.097,4.044-0.122l28.575,15.001c2.993,1.571,6.663,1.013,9.054-1.378
			c2.391-2.391,2.95-6.06,1.378-9.055L235.9,31.626c-0.974-1.856-0.239-3.446,0.122-4.044c0.361-0.598,1.428-1.987,3.524-1.987
			h32.906c2.096,0,3.162,1.39,3.524,1.987c0.361,0.598,1.096,2.188,0.122,4.043L261.096,60.2c-1.572,2.994-1.014,6.663,1.378,9.055
			c2.391,2.392,6.061,2.95,9.054,1.378l28.576-15.001c1.855-0.975,3.446-0.24,4.043,0.122c0.598,0.361,1.987,1.428,1.987,3.524
			v32.906c0,2.096-1.39,3.162-1.987,3.524c-0.598,0.361-2.189,1.096-4.043,0.122L271.53,80.829
			c-2.996-1.572-6.664-1.014-9.055,1.378C260.083,84.598,259.525,88.267,261.097,91.261z"/>
	</g>
</g>
<g>
	<g>
		<path d="M486.485,346.502c-3.813-1.911-8.458-0.372-10.37,3.443c-11.891,23.71-28.627,47.985-49.752,72.208
			c-11.461-1.995-22.934-3.785-34.418-5.376c7.886-8.295,17.095-18.611,26.264-30.308c18.584-23.709,32.12-46.76,40.258-68.322
			c0.15-0.322,0.277-0.656,0.382-1.001c5.53-14.927,8.455-29.13,8.65-42.329c0.403-27.237-10.308-50.399-32.749-70.809
			c-16.443-14.955-35.048-22.224-56.889-22.224c-0.02-0.001-0.118,0-0.136,0c-5.086,0.015-10.544,0.569-16.223,1.648
			c-51.216,9.731-88.389,55.175-88.389,108.053V407.53c-11.408-0.198-22.817-0.198-34.225,0V291.487
			c0-52.872-37.167-98.314-88.374-108.052c-5.684-1.081-11.148-1.636-16.165-1.651l-0.217-0.001
			c-21.833,0-40.439,7.27-56.881,22.224c-22.44,20.41-33.152,43.572-32.749,70.809c0.195,13.198,3.12,27.4,8.649,42.325
			c0.106,0.348,0.234,0.685,0.385,1.009c8.138,21.56,21.674,44.609,40.256,68.317c9.168,11.696,18.377,22.013,26.264,30.308
			c-11.484,1.591-22.958,3.381-34.418,5.376c-21.105-24.199-37.829-48.452-49.718-72.141c-1.914-3.814-6.557-5.355-10.371-3.44
			c-3.814,1.914-5.354,6.557-3.44,10.371c11.327,22.569,26.758,45.542,45.947,68.433c-1.158,0.223-2.316,0.432-3.474,0.659
			c-8.145,1.597-15.124,6.313-19.649,13.281c-4.532,6.978-6.004,15.286-4.146,23.395l3.553,15.504
			c3.235,14.117,15.625,23.643,29.568,23.642c1.962,0,3.957-0.189,5.959-0.58c116.873-22.836,235.392-22.836,352.268,0
			c16.229,3.172,31.837-6.959,35.527-23.062l3.553-15.504c1.858-8.108,0.386-16.416-4.146-23.394
			c-4.525-6.968-11.504-11.685-19.65-13.281c-1.157-0.227-2.315-0.436-3.473-0.659c19.209-22.916,34.652-45.912,45.982-68.504
			C491.84,353.058,490.299,348.415,486.485,346.502z M364.386,198.613c4.746-0.901,9.25-1.365,13.483-1.377
			c17.811,0,33.017,5.954,46.484,18.203c18.97,17.254,28.029,36.602,27.695,59.149c-0.012,0.796-0.04,1.598-0.075,2.403
			c-5.341-12.222-13.652-23.516-25.033-34.058c-16.448-15.239-34.946-22.646-56.552-22.646c-18.01,0-37.936,5.266-59.196,15.639
			l-0.708,0.342c-2.147,1.006-4.246,1.953-6.309,2.846C317.691,218.5,339.023,203.432,364.386,198.613z M288.564,291.485
			L288.564,291.485c0.001-11.156,1.931-21.922,5.477-31.947c7.313-2.421,14.884-5.474,23.081-9.317l0.816-0.394
			c19.16-9.348,36.807-14.088,52.449-14.088c17.53,0,32.593,6.061,46.051,18.529c18.578,17.211,27.509,36.588,27.316,59.216
			c-7.579,19.783-20.261,41.191-37.709,63.45c-12.154,15.506-24.403,28.518-33.281,37.37c-28.027-3.331-56.106-5.46-84.2-6.389
			V291.485z M59.952,274.588c-0.334-22.547,8.725-41.895,27.695-59.149c13.467-12.249,28.673-18.203,46.582-18.203
			c4.14,0.012,8.648,0.476,13.397,1.38c25.357,4.822,46.684,19.888,60.197,40.499c-2.039-0.883-4.112-1.817-6.227-2.808l-0.7-0.338
			c-21.311-10.405-41.258-15.682-59.285-15.682c-21.606,0-40.104,7.407-56.552,22.645c-11.38,10.544-19.692,21.839-25.033,34.06
			C59.992,276.187,59.964,275.384,59.952,274.588z M105.954,376.935c-17.447-22.258-30.129-43.666-37.709-63.45
			c-0.194-22.625,8.737-42.003,27.317-59.217c13.457-12.468,28.521-18.528,46.05-18.528c15.658,0,33.323,4.749,52.534,14.129
			l0.811,0.391c8.128,3.81,15.689,6.858,23,9.278c3.547,10.026,5.477,20.793,5.477,31.949v116.429
			c-28.094,0.928-56.174,3.057-84.201,6.389C130.356,405.453,118.107,392.441,105.954,376.935z M444.446,441.2
			c4.005,0.785,7.436,3.106,9.662,6.534c2.233,3.438,2.959,7.532,2.043,11.526l-3.553,15.504
			c-1.816,7.926-9.502,12.909-17.502,11.348c-118.84-23.219-239.354-23.219-358.193,0c-8,1.566-15.686-3.422-17.502-11.347
			l-3.553-15.504c-0.915-3.995-0.19-8.088,2.044-11.527c2.226-3.428,5.657-5.748,9.661-6.533c5.497-1.077,10.998-2.09,16.501-3.073
			c0.007-0.001,0.013-0.002,0.02-0.004C141.161,427.931,198.58,422.817,256,422.817C318.962,422.817,381.924,428.945,444.446,441.2z
			"/>
	</g>
</g>
<g>
</g>
<g>
</g>
<g>
</g>
<g>
</g>
<g>
</g>
<g>
</g>
<g>
</g>
<g>
</g>
<g>
</g>
<g>
</g>
<g>
</g>
<g>
</g>
<g>
</g>
<g>
</g>
<g>
</g>
</svg>
