<?xml version="1.0" encoding="iso-8859-1"?>
<!-- Generator: Adobe Illustrator 19.0.0, SVG Export Plug-In . SVG Version: 6.00 Build 0)  -->
<svg xmlns="http://www.w3.org/2000/svg" xmlns:xlink="http://www.w3.org/1999/xlink" version="1.1" id="Layer_1" x="0px" y="0px" viewBox="0 0 512.001 512.001" style="enable-background:new 0 0 512.001 512.001;" xml:space="preserve">
<g>
	<g>
		<path d="M448.499,155.096C432.43,99.021,395.488,52.558,344.475,24.269c-17.683-9.807-36.538-17.103-56.043-21.687    c-4.094-0.965-8.19,1.575-9.151,5.668c-0.962,4.092,1.576,8.189,5.668,9.151c15.746,3.701,31.041,9.308,45.568,16.692    l-9.115,17.331c-24.902-12.643-53.052-19.78-82.839-19.78c-53.954,0-102.544,23.396-136.167,60.572    c-0.626,0.514-1.159,1.117-1.584,1.784c-20.703,23.492-35.513,52.295-42.074,84.082c-0.026,0.106-0.058,0.208-0.08,0.316    c-0.031,0.153-0.048,0.301-0.073,0.452c-2.377,11.77-3.63,23.942-3.63,36.402c0,28.732,6.64,55.94,18.456,80.18    c0.21,0.603,0.497,1.176,0.85,1.709c15.711,31.395,40.154,57.687,70.131,75.671l-10.549,16.531    c-15.573-9.355-29.751-20.67-42.218-33.71c-2.906-3.039-7.724-3.147-10.761-0.242c-3.039,2.905-3.147,7.723-0.242,10.761    c15.161,15.858,32.665,29.343,52.027,40.081c24.338,13.498,50.486,22.073,77.267,25.621v21.419h-35.91    c-15.854,0-28.752,12.898-28.752,28.752v22.364c0,4.204,3.407,7.612,7.611,7.612h174.018c4.204,0,7.612-3.407,7.612-7.612v-22.364    c0-15.854-12.898-28.752-28.752-28.752h-41.057v-21.159c11.402-1.398,22.776-3.704,34.03-6.929    c56.075-16.067,102.538-53.01,130.828-104.023C457.835,270.149,464.566,211.172,448.499,155.096z M251.412,47.646    c2.416,0,4.846,0.156,7.223,0.462c0.289,0.038,0.576,0.055,0.861,0.059c32.69,4.072,62.499,17.551,86.628,37.635    c-51.838,2.686-101.014,18.462-143.657,44.575c-4.399-7.979-6.911-17.139-6.911-26.876    C195.556,72.702,220.613,47.646,251.412,47.646z M344.894,194.769c25.461,13.041,51.582,42.46,59.192,51.422    c-7.955,42.652-32.036,79.696-65.659,104.545c-48.853-28.979-92.768-65.235-130.559-107.867    c-17.172-19.371-32.878-39.83-47.048-61.254c11.724-11.252,24.356-21.498,37.76-30.624c13.021,14.471,31.88,23.589,52.833,23.589    c0.155,0,0.31-0.005,0.465-0.014c23.226-1.424,44.125,1.068,63.891,7.611c0.794,0.263,1.6,0.388,2.392,0.388    c3.193,0,6.167-2.025,7.225-5.222c1.321-3.991-0.843-8.296-4.835-9.617c-21.57-7.14-44.265-9.88-69.363-8.368    c-15.485-0.061-29.498-6.462-39.59-16.729c44.307-26.842,95.952-41.984,150.166-42.026    c28.014,30.083,45.182,70.395,45.182,114.648c0.001,3.629-0.128,7.229-0.356,10.802c-12.473-13.49-33.396-33.893-54.756-44.834    c-3.741-1.917-8.328-0.437-10.245,3.305C339.673,188.265,341.153,192.852,344.894,194.769z M128.773,217.985    c6.58-8.862,13.64-17.313,21.138-25.32c14.099,21.054,29.631,41.197,46.567,60.302c37.216,41.981,80.202,77.962,127.904,107.101    c-25.147,14.959-54.494,23.566-85.818,23.566c-15.919,0-31.327-2.221-45.934-6.368c-11.98-11.069-27.524-27.163-36.345-43.218    c-11.822-21.513-24.314-48.168-22.9-92.391c0.005-0.156,0.005-0.31,0.001-0.465C133.152,233.162,131.568,225.335,128.773,217.985z     M204.25,50.385c-14.659,13.029-23.917,32.007-23.917,53.115c0,12.779,3.407,24.77,9.334,35.143    c-13.145,8.976-25.582,18.98-37.195,29.907c-13.691-22.038-25.795-45.039-36.239-68.886    C139.449,75.108,169.953,57.514,204.25,50.385z M105.265,112.492c10.516,23.18,22.576,45.562,36.106,67.043    c-7.18,7.482-13.989,15.347-20.401,23.564c-2.297-3.344-4.878-6.519-7.757-9.467c-10.304-10.554-23.48-17.549-37.773-20.216    C81.2,150.968,91.491,130.319,105.265,112.492z M70.178,215.248c0.001-9.167,0.748-18.163,2.165-26.938    c11.342,2.053,21.805,7.586,29.978,15.957c3.534,3.619,6.517,7.662,8.917,12.003c-12.155,17.432-22.578,36.282-30.993,56.34    C73.735,254.698,70.178,235.382,70.178,215.248z M88.893,292.345c7.441-20.634,17.065-40.049,28.574-58.007    c0.375,2.328,0.616,4.688,0.694,7.073c-1.606,51.95,15.555,83.177,24.781,99.968c4.09,7.443,9.394,14.808,15.115,21.73    C128.545,346.974,104.366,322.261,88.893,292.345z M305.743,468.496c7.46,0,13.53,6.069,13.53,13.529v14.752H160.478v-14.752    c0-7.46,6.069-13.529,13.529-13.529h43.521h39.547H305.743z M225.14,453.273v-19.945c4.36,0.265,8.729,0.406,13.105,0.406    c3.736,0,7.477-0.098,11.219-0.292v19.831H225.14z M416.232,313.779c-33.696,60.761-94.148,97.484-158.581,103.659    c-0.191-0.014-0.381-0.029-0.575-0.029H218.57c-24.263-2.366-48.442-9.162-71.36-20.714l10.585-16.587    c6.83,3.359,13.895,6.31,21.168,8.813c2.495,1.134,5.402,1.914,8.059,2.562c16.36,4.792,33.654,7.375,51.542,7.375    c38.467,0,74.202-11.9,103.737-32.199c0.652-0.326,1.262-0.741,1.805-1.252c39.226-27.654,67.174-70.269,75.487-119.477    c0.105-0.415,0.175-0.836,0.21-1.262c1.55-9.582,2.367-19.405,2.367-29.417c0-49.098-19.373-93.756-50.875-126.734    c-0.427-0.583-0.933-1.101-1.505-1.541c-10.489-10.73-22.276-20.182-35.109-28.099l9.14-17.377    C436.652,97.679,469.295,218.094,416.232,313.779z"/>
	</g>
</g>
<g>
	<g>
		<circle cx="353.061" cy="7.588" r="7.588"/>
	</g>
</g>
<g>
</g>
<g>
</g>
<g>
</g>
<g>
</g>
<g>
</g>
<g>
</g>
<g>
</g>
<g>
</g>
<g>
</g>
<g>
</g>
<g>
</g>
<g>
</g>
<g>
</g>
<g>
</g>
<g>
</g>
</svg>
