<?xml version="1.0" encoding="iso-8859-1"?>
<!-- Generator: Adobe Illustrator 19.0.0, SVG Export Plug-In . SVG Version: 6.00 Build 0)  -->
<svg xmlns="http://www.w3.org/2000/svg" xmlns:xlink="http://www.w3.org/1999/xlink" version="1.1" id="Layer_1" x="0px" y="0px" viewBox="0 0 511.999 511.999" style="enable-background:new 0 0 511.999 511.999;" xml:space="preserve">
<g>
	<g>
		<path d="M440.34,46.848c-0.552-0.478-1.173-0.874-1.849-1.173c-24.061-15.105-52.497-23.856-82.942-23.856    c-36.469,0-71.561,12.652-99.548,35.762c-19.517-16.115-42.491-27.137-66.975-32.338c-0.363-0.107-0.729-0.178-1.095-0.228    c-10.281-2.107-20.82-3.196-31.478-3.196c-38.543,0-73.868,14.018-101.164,37.212c-0.605,0.385-1.139,0.847-1.596,1.368    c-32.881,28.702-53.69,70.899-53.69,117.869c0,2.253,0.048,4.508,0.128,6.764c-0.228,1.206-0.151,2.398,0.173,3.501    c3.121,57.908,32.601,117.046,87.807,176.177c0.503,0.781,1.133,1.455,1.865,1.991c4.623,4.901,9.402,9.802,14.379,14.702    c54.457,53.622,114.691,91.503,138.06,105.3c3.936,2.324,8.349,3.477,12.752,3.477c5.041,0,10.068-1.511,14.352-4.503    c15.165-10.598,45.959-32.938,80.653-62.687c0.022-0.019,0.044-0.037,0.065-0.056c18.441-15.815,37.98-33.719,56.863-53.072    c69.606-71.341,104.899-135.802,104.899-191.593C511.998,123.229,483.426,74.743,440.34,46.848z M191.729,41.275    c21.854,5.619,42.191,16.437,59.257,31.781c2.852,2.565,7.178,2.565,10.03,0c25.989-23.368,59.563-36.237,94.533-36.237    c18.139,0,35.49,3.436,51.441,9.685c-73.25,6.018-144.055,29.433-206.366,68.456c-8.325-13.55-13.134-29.482-13.134-46.518    C187.49,59.126,188.93,50.019,191.729,41.275z M156.452,36.82c6.895-0.001,13.733,0.507,20.471,1.489    c-2.94,9.728-4.433,19.826-4.433,30.133c0,20.045,5.699,38.782,15.554,54.685c-22.458,15.103-43.489,32.121-62.877,50.802    c-21.362-33.94-40.319-69.471-56.668-106.356C92.663,48.334,123.236,36.82,156.452,36.82z M15.003,178.268    c0-39.131,15.975-74.599,41.743-100.233c16.658,37.013,35.901,72.672,57.532,106.74c-13.009,13.394-25.214,27.558-36.519,42.429    c-2.919-4.816-6.223-9.411-9.914-13.713c-13.83-16.123-32.404-27.676-52.805-33.005C15.031,179.747,15.003,179.007,15.003,178.268    z M15.943,196.356c15.608,5.016,29.741,14.339,40.516,26.901c4.585,5.345,8.449,11.112,11.596,17.202    c-8.873,12.574-17.122,25.608-24.719,39.05C27.906,251.486,18.754,223.719,15.943,196.356z M52.193,294.494    c6.891-12.77,14.393-25.171,22.464-37.168c1.871,6.785,2.955,13.836,3.183,21.074c-0.613,19.58,0.452,37.998,3.22,55.684    C70.065,320.847,60.456,307.646,52.193,294.494z M260.926,473.38c-3.221,2.25-7.494,2.408-10.885,0.406    c-22.893-13.517-81.889-50.616-135.162-103.072c-4.769-4.696-9.349-9.388-13.779-14.078c-6.449-24.333-9.159-49.869-8.26-77.993    c0.005-0.152,0.005-0.305,0.001-0.457c-0.361-12.401-2.977-24.588-7.575-35.973c11.487-15.641,23.978-30.516,37.381-44.528    c56.125,84.956,127.308,159.581,210.459,220.023C300.895,444.836,273.24,464.775,260.926,473.38z M420.8,203.753    c17.34,8.883,37.443,24.116,58.358,44.188c-28.178,58.963-84.876,116.79-134.316,159.729    c-83.799-60.369-155.366-135.329-211.417-220.87c19.473-19.014,40.699-36.271,63.422-51.513    c19.116,22.774,47.778,37.28,79.769,37.28c0.152,0,0.306-0.005,0.457-0.014c40.512-2.477,76.907,2.854,111.282,16.291    c0.896,0.351,1.82,0.517,2.729,0.517c2.998,0,5.83-1.811,6.987-4.771c1.508-3.857-0.396-8.208-4.255-9.716    c-36.379-14.222-74.794-19.88-117.423-17.307c-26.623-0.066-50.536-11.868-66.84-30.492    c67.11-41.788,144.337-64.913,223.65-66.973c38.399,25.32,63.795,68.83,63.795,118.166c0,18.068-4.191,36.558-11.462,55.049    c-20.701-19.399-40.146-33.821-57.898-42.914c-3.686-1.89-8.206-0.432-10.094,3.256    C415.655,197.346,417.113,201.865,420.8,203.753z"/>
	</g>
</g>
<g>
</g>
<g>
</g>
<g>
</g>
<g>
</g>
<g>
</g>
<g>
</g>
<g>
</g>
<g>
</g>
<g>
</g>
<g>
</g>
<g>
</g>
<g>
</g>
<g>
</g>
<g>
</g>
<g>
</g>
</svg>
