<?xml version="1.0" encoding="iso-8859-1"?>
<!-- Generator: Adobe Illustrator 19.0.0, SVG Export Plug-In . SVG Version: 6.00 Build 0)  -->
<svg xmlns="http://www.w3.org/2000/svg" xmlns:xlink="http://www.w3.org/1999/xlink" version="1.1" id="Layer_1" x="0px" y="0px" viewBox="0 0 512 512" style="enable-background:new 0 0 512 512;" xml:space="preserve">
<g>
	<g>
		<path d="M439.112,38.468c-0.359-0.465-0.77-0.886-1.226-1.256C415.389,14.264,384.065,0,349.467,0    c-36.337,0-69.069,15.729-91.748,40.733c-0.491,0.426-0.916,0.911-1.276,1.438c-13.92,15.83-23.877,35.225-28.294,56.623    c-0.017,0.073-0.04,0.143-0.054,0.216c-0.013,0.063-0.016,0.126-0.027,0.189c-1.618,7.975-2.471,16.226-2.471,24.671    c0,19.328,4.453,37.635,12.382,53.953c0.184,0.499,0.424,0.974,0.709,1.424c11.378,22.668,29.504,41.387,51.734,53.492H143.969    c-10.346,0-19.147,6.719-22.286,16.02h-35.79V147.726c0-13.021-10.594-23.615-23.615-23.615s-23.615,10.594-23.615,23.615v229.757    c0,7.865,6.398,14.265,14.264,14.265h1.851V504.5c0,4.143,3.358,7.5,7.5,7.5c4.142,0,7.5-3.357,7.5-7.5V391.747h1.851    c7.865,0,14.264-6.399,14.264-14.265V263.759h35.79c2.462,7.295,8.408,12.997,15.852,15.117l28.527,158.656    c0.733,4.077,4.633,6.783,8.709,6.055c4.077-0.733,6.788-4.632,6.055-8.709l-5.03-27.973l26.05-26.021l38.469,38.47    l-11.639,11.639c-2.929,2.93-2.929,7.678,0,10.607c1.464,1.464,3.384,2.196,5.303,2.196s3.839-0.732,5.303-2.196l11.64-11.64    l11.64,11.64c1.464,1.464,3.384,2.196,5.303,2.196s3.839-0.732,5.303-2.196c2.929-2.93,2.929-7.678,0-10.607l-11.639-11.639    l38.486-38.486l26.038,26.038l-5.03,27.972c-0.733,4.077,1.978,7.976,6.055,8.709c0.449,0.08,0.896,0.119,1.336,0.119    c3.561,0,6.721-2.546,7.373-6.174L364.5,277.84c8.335-3.621,14.18-11.929,14.18-21.581c0-4.109-1.062-7.973-2.921-11.337    c15.859-3.441,30.595-9.926,43.563-18.815c0.505-0.267,0.975-0.597,1.412-0.979c26.414-18.645,45.236-47.351,50.854-80.495    c0.077-0.331,0.135-0.666,0.167-1.005c1.036-6.436,1.583-13.034,1.583-19.759C473.338,90.795,460.308,60.707,439.112,38.468z     M70.893,376.747h-17.23V147.726c0-4.75,3.865-8.615,8.615-8.615s8.615,3.865,8.615,8.615V376.747z M357.963,15.514    c1.491,0,2.992,0.096,4.462,0.285c0.234,0.03,0.466,0.046,0.698,0.055c18.882,2.373,36.272,9.604,50.882,20.394    c-31.398,2.625-61.183,12.428-87.396,28.012c-1.992-4.354-3.111-9.187-3.111-14.28C323.497,30.975,338.958,15.514,357.963,15.514z     M319.221,19.279c-6.704,8.443-10.724,19.109-10.724,30.702c0,8.089,1.964,15.723,5.422,22.472    c-7.286,5.092-14.24,10.656-20.814,16.659c-8.083-13.219-15.306-26.967-21.601-41.148    C284.496,34.624,300.866,24.595,319.221,19.279z M260.836,60.715c6.311,13.483,13.438,26.566,21.314,39.179    c-3.599,3.819-7.056,7.782-10.363,11.883c-1.073-1.359-2.214-2.673-3.437-3.925c-6.54-6.699-14.743-11.34-23.681-13.514    C248.114,82.131,253.639,70.787,260.836,60.715z M240.596,123.87c0-5.029,0.35-9.977,1.014-14.826    c8.704,2.286,16.099,7.949,20.713,15.453c-6.539,9.541-12.311,19.702-17.21,30.414C242.18,145.069,240.596,134.652,240.596,123.87    z M253.194,174.656c3.867-10.531,8.611-20.568,14.132-30.04c-0.23,28.772,7.879,47.689,16.754,63.84    c0.786,1.431,1.644,2.855,2.548,4.271C272.719,202.86,261.221,189.812,253.194,174.656z M152.937,279.778h30.367l-25.739,25.739    L152.937,279.778z M172.564,388.931l-8.183-45.512l26.858,26.859L172.564,388.931z M163.237,321.061l38.486-38.486l38.637,38.638    l-38.508,38.464L163.237,321.061z M220.14,279.779h61.702l-30.869,30.833L220.14,279.779z M329.286,388.926l-18.664-18.665    l26.847-26.847L329.286,388.926z M300.015,359.655l-26.078-26.078c-2.929-2.928-7.678-2.928-10.606,0    c-2.929,2.93-2.929,7.678,0,10.607l26.077,26.077l-38.486,38.486l-38.463-38.464l87.527-87.426l38.598,38.229L300.015,359.655z     M344.268,305.603l-26.074-25.824h30.717L344.268,305.603z M355.161,264.779h-55.223c-0.007,0-0.014,0-0.021,0H143.969    c-4.698,0-8.52-3.822-8.52-8.52s3.822-8.52,8.52-8.52h211.192c4.698,0,8.52,3.822,8.52,8.52S359.859,264.779,355.161,264.779z     M349.467,232.739c-10.092,0-19.865-1.386-29.145-3.967c-7.719-7.176-17.531-17.412-23.096-27.541    c-7.659-13.938-15.753-31.204-14.838-59.823c0.005-0.152,0.005-0.305,0-0.457c-0.149-5.124-1.094-10.126-2.747-14.865    c3.46-4.593,7.122-9.01,10.965-13.247c29.103,42.596,66.95,79.195,110.794,106.694    C385.957,227.952,368.26,232.739,349.467,232.739z M458.322,125.072c-8.482-8.694-20.53-19.598-32.833-25.899    c-3.688-1.892-8.206-0.432-10.094,3.256c-1.888,3.687-0.431,8.206,3.256,10.094c15.685,8.034,31.874,25.839,37.615,32.507    c-5.249,26.537-20.17,49.635-40.927,65.459c-45.488-27.286-84.56-64.679-114.011-108.558c6.699-6.286,13.843-12.069,21.365-17.313    c8.981,9.143,21.471,14.828,35.27,14.828c0.153,0,0.305-0.005,0.458-0.014c13.118-0.803,24.976,0.304,36.248,3.381    c0.662,0.181,1.326,0.267,1.979,0.267c3.298,0,6.321-2.192,7.231-5.527c1.091-3.996-1.265-8.119-5.26-9.21    c-12.811-3.497-26.184-4.77-40.87-3.897c-8.382-0.052-16.06-3.115-22.015-8.154c27.989-16.303,60.278-25.533,94.134-25.749    c17.675,19.363,28.47,45.108,28.47,73.329C458.337,124.272,458.326,124.671,458.322,125.072z"/>
	</g>
</g>
<g>
</g>
<g>
</g>
<g>
</g>
<g>
</g>
<g>
</g>
<g>
</g>
<g>
</g>
<g>
</g>
<g>
</g>
<g>
</g>
<g>
</g>
<g>
</g>
<g>
</g>
<g>
</g>
<g>
</g>
</svg>
