<?xml version="1.0" encoding="iso-8859-1"?>
<!-- Generator: Adobe Illustrator 19.0.0, SVG Export Plug-In . SVG Version: 6.00 Build 0)  -->
<svg xmlns="http://www.w3.org/2000/svg" xmlns:xlink="http://www.w3.org/1999/xlink" version="1.1" id="Layer_1" x="0px" y="0px" viewBox="0 0 511.999 511.999" style="enable-background:new 0 0 511.999 511.999;" xml:space="preserve">
<g>
	<g>
		<path d="M492.304,32.546H86.507c-4.142,0-7.5,3.357-7.5,7.5s3.358,7.5,7.5,7.5h405.796c2.589,0,4.696,2.107,4.696,4.697v350.69    c0,2.59-2.107,4.696-4.696,4.696H19.697c-2.59,0-4.697-2.106-4.697-4.696V52.243c0-2.59,2.107-4.697,4.697-4.697h32.798    c4.142,0,7.5-3.357,7.5-7.5s-3.358-7.5-7.5-7.5H19.697C8.836,32.546,0,41.382,0,52.243v350.69c0,10.86,8.836,19.696,19.697,19.696    h210.167v41.824h-42.53c-4.142,0-7.5,3.357-7.5,7.5s3.358,7.5,7.5,7.5h50.03h37.271h50.03c4.142,0,7.5-3.357,7.5-7.5    s-3.358-7.5-7.5-7.5h-42.53V422.63h210.168c10.86,0,19.696-8.836,19.696-19.696V52.243C512,41.382,503.164,32.546,492.304,32.546z     M267.135,464.454h-22.271v-40.875h22.271V464.454z"/>
	</g>
</g>
<g>
	<g>
		<path d="M472.857,68.953H39.143c-4.142,0-7.5,3.357-7.5,7.5v302.271c0,4.143,3.358,7.5,7.5,7.5h361.16c4.142,0,7.5-3.357,7.5-7.5    s-3.358-7.5-7.5-7.5H46.643V83.953h418.714v287.271h-29.396c-4.142,0-7.5,3.357-7.5,7.5s3.358,7.5,7.5,7.5h36.896    c4.142,0,7.5-3.357,7.5-7.5V76.453C480.357,72.31,476.999,68.953,472.857,68.953z"/>
	</g>
</g>
<g>
	<g>
		<path d="M339.324,148.158c-0.359-0.462-0.768-0.882-1.222-1.251c-22.057-22.496-52.767-36.479-86.686-36.479    c-35.626,0-67.717,15.419-89.954,39.933c-0.486,0.422-0.907,0.903-1.263,1.424c-13.642,15.517-23.402,34.526-27.733,55.499    c-0.018,0.075-0.041,0.148-0.056,0.224c-0.019,0.095-0.032,0.194-0.047,0.291c-1.573,7.788-2.403,15.842-2.403,24.086    c0,18.949,4.365,36.896,12.137,52.895c0.183,0.494,0.421,0.965,0.702,1.41c14.193,28.271,39.097,50.272,69.36,60.636    c0.107,0.042,0.204,0.097,0.314,0.134c1.425,0.482,2.936,0.957,4.617,1.451c0.078,0.023,0.157,0.031,0.235,0.051    c10.821,3.17,22.26,4.878,34.092,4.878c25.388,0,48.978-7.835,68.489-21.208c0.495-0.264,0.958-0.589,1.389-0.964    c25.897-18.281,44.352-46.425,49.861-78.92c0.077-0.329,0.134-0.661,0.166-0.997c1.015-6.309,1.551-12.776,1.551-19.367    C372.873,199.46,360.101,169.962,339.324,148.158z M259.736,125.933c1.451,0,2.914,0.094,4.35,0.278    c0.224,0.029,0.446,0.043,0.667,0.051c18.326,2.301,35.214,9.282,49.436,19.7c-30.561,2.619-59.55,12.174-85.088,27.328    c-1.896-4.203-2.96-8.859-2.96-13.762C226.141,141.004,241.211,125.933,259.736,125.933z M221.372,129.752    c-6.404,8.232-10.232,18.562-10.232,29.775c0,7.898,1.906,15.356,5.264,21.956c-7.049,4.934-13.78,10.318-20.148,16.122    c-7.854-12.859-14.875-26.23-21.001-40.019C187.835,144.694,203.648,134.975,221.372,129.752z M164.594,170.347    c6.138,13.088,13.062,25.79,20.706,38.041c-3.453,3.668-6.772,7.471-9.95,11.405c-1.02-1.281-2.102-2.519-3.257-3.702    c-6.387-6.542-14.387-11.09-23.108-13.241C152.332,191.06,157.663,180.097,164.594,170.347z M144.959,231.885    c0-4.856,0.334-9.635,0.966-14.32c8.378,2.248,15.497,7.707,19.967,14.931c-6.307,9.214-11.887,19.015-16.637,29.342    C146.464,252.332,144.959,242.281,144.959,231.885z M157.309,281.605c3.71-10.093,8.247-19.72,13.512-28.819    c-0.111,27.879,7.787,46.28,16.427,62.004c0.644,1.171,1.333,2.339,2.058,3.5C176.023,308.715,165.029,296.157,157.309,281.605z     M251.416,338.34c-9.855,0-19.398-1.352-28.461-3.869c-7.547-7.017-17.127-17.015-22.561-26.903    c-7.49-13.631-15.405-30.517-14.511-58.5c0-0.144,0.001-0.289,0.001-0.433c-0.143-5.015-1.063-9.912-2.672-14.553    c3.331-4.417,6.853-8.667,10.547-12.748c28.446,41.587,65.403,77.331,108.204,104.22    C286.916,333.706,269.697,338.34,251.416,338.34z M315.91,316.518c-44.448-26.681-82.633-63.222-111.433-106.096    c6.494-6.084,13.415-11.687,20.699-16.772c8.816,8.928,21.05,14.473,34.559,14.473c0.153,0,0.305-0.005,0.458-0.014    c27.946-1.713,45.057,5.713,58.9,12.804c15.294,7.833,31.082,25.172,36.739,31.737    C350.694,278.531,336.144,301.062,315.91,316.518z M357.861,232.686c-8.3-8.478-19.991-19.009-31.93-25.125    c-16.714-8.56-36.332-16.224-66.41-14.439c-8.09-0.051-15.51-2.977-21.29-7.804c27.323-15.874,58.824-24.861,91.85-25.083    c17.255,18.927,27.791,44.082,27.791,71.652C357.871,232.153,357.863,232.418,357.861,232.686z"/>
	</g>
</g>
<g>
</g>
<g>
</g>
<g>
</g>
<g>
</g>
<g>
</g>
<g>
</g>
<g>
</g>
<g>
</g>
<g>
</g>
<g>
</g>
<g>
</g>
<g>
</g>
<g>
</g>
<g>
</g>
<g>
</g>
</svg>
