<?xml version="1.0" encoding="iso-8859-1"?>
<!-- Generator: Adobe Illustrator 19.0.0, SVG Export Plug-In . SVG Version: 6.00 Build 0)  -->
<svg xmlns="http://www.w3.org/2000/svg" xmlns:xlink="http://www.w3.org/1999/xlink" version="1.1" id="Layer_1" x="0px" y="0px" viewBox="0 0 512 512" style="enable-background:new 0 0 512 512;" xml:space="preserve">
<g>
	<g>
		<path d="M511.96,370.589c-0.003-4.146-3.364-7.504-7.509-7.504h-0.005c-4.147,0.003-7.507,3.366-7.504,7.514l0.04,63.536    c0.001,1.413-0.549,2.741-1.546,3.74c-0.998,0.999-2.326,1.55-3.739,1.551l-471.25,0.294c-0.001,0-0.002,0-0.003,0    c-2.915,0-5.287-2.37-5.289-5.285l-0.137-219.78c-0.002-2.916,2.369-5.289,5.285-5.291l43.277-0.027h0.001    c0.001,0,0.003,0,0.005,0l192.342-0.12l235.626-0.147c0.001,0,0.002,0,0.002,0c2.915,0,5.287,2.37,5.289,5.284l0.076,123.013    c0.003,4.146,3.363,7.504,7.509,7.504c0,0,0.003,0,0.005,0c4.147-0.003,7.507-3.366,7.504-7.514l-0.076-123.013    c-0.008-11.192-9.116-20.292-20.306-20.292c-0.004,0-0.009,0-0.013,0l-35.774,0.022L455.7,79.691    c-0.009-12.37-10.074-22.427-22.441-22.427c-0.004,0-0.01,0-0.015,0l-354.82,0.221c-5.994,0.003-11.628,2.341-15.864,6.583    c-4.237,4.241-6.568,9.878-6.564,15.873l0.072,114.383l-35.774,0.022C9.097,194.353-0.006,203.467,0,214.663l0.137,219.78    c0.008,11.192,9.116,20.294,20.307,20.293c0.004,0,0.008,0,0.012,0l471.25-0.294c5.425-0.003,10.523-2.118,14.355-5.956    c3.833-3.838,5.942-8.938,5.939-14.362L511.96,370.589z M73.185,74.681c1.401-1.403,3.266-2.176,5.249-2.177l354.82-0.221    c0.002,0,0.003,0,0.003,0c4.093,0,7.422,3.327,7.425,7.418l0.07,114.383l-184.833,0.115l-184.833,0.115L71.014,79.931    C71.013,77.949,71.783,76.085,73.185,74.681z"/>
	</g>
</g>
<g>
	<g>
		<path d="M225.271,299.991c-0.003-4.146-3.363-7.504-7.509-7.504h-0.005c-4.147,0.003-7.507,3.366-7.504,7.514l0.058,93.472    c0.001,0.945-0.768,1.713-1.711,1.714l-146.209,0.091c-0.001,0-0.001,0-0.001,0c-0.945,0-1.712-0.768-1.713-1.711L60.591,255.47    c-0.001-0.944,0.768-1.713,1.711-1.713l146.212-0.093c0.586,0,0.981,0.272,1.209,0.501c0.228,0.229,0.502,0.624,0.502,1.21    l0.01,15.74c0.003,4.146,3.363,7.504,7.509,7.504c0.001,0,0.003,0,0.003,0c4.149-0.003,7.509-3.366,7.506-7.514l-0.01-15.739    c-0.003-4.469-1.745-8.669-4.907-11.827c-3.159-3.155-7.357-4.893-11.821-4.893c-0.004,0-0.008,0-0.012,0l-146.211,0.091    c-9.224,0.006-16.725,7.516-16.72,16.741l0.086,138.097c0.007,9.221,7.511,16.72,16.731,16.719c0.003,0,0.007,0,0.01,0    l146.211-0.091c9.224-0.007,16.724-7.517,16.719-16.741L225.271,299.991z"/>
	</g>
</g>
<g>
	<g>
		<path d="M466.34,255.103c-0.004-9.223-7.508-16.721-16.731-16.721h-0.01l-146.21,0.091c-9.224,0.006-16.725,7.516-16.72,16.741    l0.086,138.095c0.005,9.222,7.509,16.722,16.731,16.721c0,0,0.007,0,0.01,0l146.21-0.091h0.001    c9.224-0.007,16.724-7.517,16.719-16.741L466.34,255.103z M449.696,394.921l-146.208,0.091h-0.001    c-0.944,0-1.712-0.768-1.713-1.711l-0.086-138.096c-0.001-0.944,0.768-1.713,1.711-1.713l146.209-0.091h0.001    c0.945,0,1.712,0.767,1.713,1.711l0.086,138.095C451.409,394.15,450.641,394.92,449.696,394.921z"/>
	</g>
</g>
<g>
	<g>
		<circle cx="255.98" cy="292.43" r="7.668"/>
	</g>
</g>
<g>
	<g>
		<circle cx="256.02" cy="349.5" r="7.668"/>
	</g>
</g>
<g>
	<g>
		<path d="M160.474,349.418c-0.974-1.279-2.083-1.918-3.325-1.917l-32.438,0.021l-0.002-2.813c-0.002-2.188,1.262-4.496,3.794-6.921    c2.532-2.424,5.604-4.848,9.219-7.275c3.614-2.425,7.247-5.066,10.9-7.921c3.651-2.856,6.741-6.335,9.264-10.44    c2.525-4.106,3.787-8.503,3.784-13.194c-0.005-7.017-2.593-12.64-7.764-16.872c-5.172-4.23-11.294-6.343-18.366-6.338    c-6.699,0.004-12.511,1.985-17.436,5.943c-4.927,3.958-7.385,9.118-7.381,15.475c0.003,5.428,2.257,8.14,6.76,8.137    c2.366-0.001,4.253-0.58,5.665-1.738c1.41-1.159,2.116-2.497,2.115-4.013c-0.002-3.511,0.97-6.147,2.92-7.904    c1.947-1.757,4.443-2.637,7.483-2.639c3.586-0.003,6.296,1.052,8.13,3.161c1.833,2.11,2.751,4.532,2.753,7.268    c0.002,3.05-1.283,6.098-3.854,9.147c-2.574,3.049-5.691,5.943-9.354,8.68l-11.155,8.097c-3.336,2.73-6.173,5.771-8.511,9.123    c-2.341,3.353-3.508,6.746-3.506,10.173l0.007,11.339c0.001,1.325,0.723,2.455,2.168,3.389c1.444,0.935,2.889,1.401,4.334,1.4    l40.588-0.025c1.215-0.001,2.298-0.679,3.248-2.038c0.947-1.357,1.423-2.927,1.422-4.712    C161.935,352.229,161.447,350.697,160.474,349.418z"/>
	</g>
</g>
<g>
	<g>
		<path d="M150.833,137.426c-1.866-3.523-4.172-6.215-6.922-8.074c0.686,0.463,1.364,0.921-0.007-0.005    c-1.369-0.924-0.698-0.471-0.014-0.009c-2.752-1.856-5.734-3.576-8.947-5.162c-3.22-1.586-6.207-2.904-8.958-3.949    c-2.754-1.046-5.062-2.4-6.923-4.067c-1.863-1.665-2.793-3.622-2.794-5.872c-0.002-2.791,1.139-4.983,3.426-6.574    c2.286-1.59,5.524-2.388,9.712-2.391c3.798-0.002,7.249,0.733,10.352,2.203c3.101,1.472,5.004,2.207,5.702,2.207    c1.861-0.001,3.332-0.923,4.417-2.769c1.084-1.846,1.627-3.632,1.626-5.359c-0.002-1.832-0.8-3.424-2.388-4.777    c-2.486-2.11-5.643-2.927-8.764-3.583c-3.378-0.71-6.826-1.127-10.279-1.178c-6.927-0.101-13.856,1.402-19.748,5.143    c-2.791,1.772-5.02,4.253-6.685,7.441c-1.666,3.189-2.496,6.87-2.494,11.041c0.003,3.722,0.683,7.037,2.043,9.944    c1.358,2.907,3.143,5.232,5.355,6.976c5.405,4.263,11.73,6.788,17.923,9.644c5.256,2.424,11.436,5.596,12.001,12.096    c0.224,2.573-0.368,5.262-2.137,7.21c-1.808,1.99-4.519,3.094-7.114,3.575c-5.968,1.106-12.333-0.535-16.769-4.72    c-2.117-1.997-5.081-5.136-8.302-3.975c-2.934,1.057-5.063,4.858-5.061,7.872c0.002,3.568,2.639,6.861,7.916,9.882    c5.274,3.021,11.594,4.529,18.963,4.525c8.296-0.005,14.984-2.168,20.061-6.494c5.075-4.323,7.613-10.462,7.608-18.415    C153.629,145.083,152.695,140.954,150.833,137.426z"/>
	</g>
</g>
<g>
	<g>
		<g>
			<path d="M215.912,145.413c-1.205-1.047-3.161-1.569-5.875-1.567c-4.73,0.003-7.21,1.595-7.441,4.774     c-0.077,1.628-0.251,3.006-0.522,4.129c-0.271,1.125-0.773,2.405-1.509,3.84c-0.737,1.436-1.939,2.542-3.604,3.318     c-1.668,0.777-3.741,1.165-6.222,1.167c-8.298,0.005-12.449-4.45-12.455-13.369l-0.02-32.452     c-0.006-8.917,4.063-13.38,12.204-13.384c3.008-0.002,6.527,0.624,8.787,2.788c2.344,2.245,3.075,5.619,3.319,8.72     c0.078,3.181,2.6,4.767,7.563,4.764c2.713-0.001,4.652-0.527,5.815-1.574c1.163-1.048,1.743-3.005,1.741-5.875     c-0.004-6.668-2.587-12.018-7.745-16.047c-5.161-4.028-11.81-6.042-19.952-6.036c-7.988,0.005-14.463,2.161-19.421,6.467     c-4.961,4.307-7.438,11.037-7.432,20.186l0.02,32.452c0.006,9.151,2.471,15.876,7.399,20.176     c4.927,4.301,11.383,6.449,19.371,6.444c8.218-0.005,14.906-2.103,20.061-6.294c5.153-4.191,7.729-9.775,7.724-16.754     C217.717,148.418,217.114,146.46,215.912,145.413z"/>
			<path d="M210.037,143.847C212.751,143.845,205.306,143.849,210.037,143.847L210.037,143.847z"/>
		</g>
	</g>
</g>
<g>
	<g>
		<path d="M281.555,115.188c-0.007-9.227-2.494-15.972-7.459-20.235c-4.966-4.26-11.597-6.39-19.893-6.385    c-8.299,0.005-14.908,2.143-19.829,6.41c-4.922,4.269-7.379,11.016-7.373,20.244l0.02,32.452    c0.006,9.229,2.471,15.974,7.399,20.235c4.927,4.262,11.538,6.39,19.837,6.385c8.296-0.005,14.925-2.141,19.886-6.41    c4.959-4.267,7.438-11.015,7.432-20.244L281.555,115.188z M254.248,161.034c-8.066,0.005-12.101-4.45-12.107-13.369l-0.02-32.452    c-0.006-8.917,4.022-13.379,12.089-13.384c8.142-0.005,12.216,4.453,12.222,13.369l0.02,32.452    C266.458,156.569,262.39,161.029,254.248,161.034z"/>
	</g>
</g>
<g>
	<g>
		<path d="M349.976,164.349l-15.254-28.256c4.652-1.399,8.352-4.037,11.103-7.916c2.748-3.879,4.123-8.998,4.119-15.357    c-0.01-16.206-9.204-24.305-27.582-24.293l-23.031,0.014c-1.395,0.001-2.559,0.467-3.489,1.399    c-0.93,0.931-1.394,2.018-1.393,3.258l0.047,75.606c0.002,3.638,4.683,4.764,7.563,4.764c2.909,0,7.561-1.094,7.558-4.774    l-0.02-30.359l9.771-0.006l16.538,32.093c0.771,1.495,1.936,2.841,3.584,3.359c1.739,0.547,3.743,0.162,5.371-0.566    c1.838-0.823,3.616-2.21,4.712-3.914C350.445,168.045,351.142,165.748,349.976,164.349z M322.387,126.561l-12.795,0.008    l-0.016-24.776l12.795-0.008c8.296-0.005,12.449,4.142,12.454,12.439C334.83,122.444,330.683,126.556,322.387,126.561z"/>
	</g>
</g>
<g>
	<g>
		<path d="M408.83,160.241l-32.918,0.021l-0.015-23.38l17.68-0.011c6.398-0.004,6.322-11.868-0.007-11.864l-17.68,0.011    l-0.015-23.264l32.918-0.021c6.426-0.004,6.497-13.264-0.008-13.26l-41.409,0.025c-1.785,0.001-3.335,0.43-4.652,1.283    c-1.319,0.855-1.976,2.019-1.975,3.491l0.047,75.49c0.001,1.474,0.659,2.637,1.979,3.488c1.318,0.854,2.869,1.278,4.654,1.276    l41.409-0.025C415.346,173.496,415.254,160.236,408.83,160.241z"/>
	</g>
</g>
<g>
	<g>
		<g>
			<path d="M382.392,276.525C382.345,276.494,382.338,276.489,382.392,276.525L382.392,276.525z"/>
			<path d="M384.847,280.255c0-1.397-0.699-2.56-2.094-3.49c0.174,0.116,0.348,0.231,0.391,0.26     c-0.028-0.019-0.141-0.094-0.393-0.262c-0.199-0.132-0.306-0.203-0.359-0.239c0.068,0.045,0.21,0.14,0.358,0.238     c-1.396-0.929-2.948-1.392-4.652-1.391c-1.164,0.001-2.211,0.39-3.14,1.164l-13.72,10.478c-1.938,1.243-2.906,3.066-2.904,5.469     c0.001,1.553,0.467,2.947,1.397,4.187c0.932,1.241,2.096,1.86,3.492,1.859c1.085,0,2.015-0.35,2.791-1.048l3.72-3.725     l0.038,62.113c0.002,3.68,4.654,4.77,7.564,4.766c2.88-0.004,7.56-1.137,7.558-4.774L384.847,280.255z"/>
		</g>
	</g>
</g>
<g>
</g>
<g>
</g>
<g>
</g>
<g>
</g>
<g>
</g>
<g>
</g>
<g>
</g>
<g>
</g>
<g>
</g>
<g>
</g>
<g>
</g>
<g>
</g>
<g>
</g>
<g>
</g>
<g>
</g>
</svg>
