<?xml version="1.0" encoding="iso-8859-1"?>
<!-- Generator: Adobe Illustrator 19.0.0, SVG Export Plug-In . SVG Version: 6.00 Build 0)  -->
<svg xmlns="http://www.w3.org/2000/svg" xmlns:xlink="http://www.w3.org/1999/xlink" version="1.1" id="Layer_1" x="0px" y="0px" viewBox="0 0 512 512" style="enable-background:new 0 0 512 512;" xml:space="preserve">
<g>
	<g>
		<path d="M434.576,223.046c0.701-3.142,1.317-6.306,1.851-9.487c0.1-0.401,0.169-0.807,0.203-1.219    c1.557-9.668,2.361-19.486,2.361-29.339c0-48.94-19.312-93.454-50.714-126.324c-0.421-0.574-0.92-1.085-1.484-1.52    C353.546,21.148,307.195,0,255.991,0c-53.78,0-102.212,23.322-135.724,60.38c-0.619,0.508-1.146,1.103-1.565,1.763    c-20.635,23.413-35.397,52.119-41.938,83.799c-0.027,0.109-0.132,0.637-0.158,0.793c-2.367,11.726-3.615,23.853-3.615,36.266    c0,28.142,6.411,55.635,18.668,80.593c0.045,0.098,0.093,0.195,0.142,0.291c3.028,6.138,6.404,12.124,10.133,17.926    c17.264,26.864,41.132,48.68,69.297,63.418c-1.777,6.703-2.729,13.7-2.729,20.861v11.964c0,4.143,3.358,7.5,7.5,7.5    c4.142,0,7.5-3.357,7.5-7.5V366.09c0-10.92,2.684-21.383,7.505-30.656c0.881-0.936,1.482-2.051,1.791-3.231    c7.836-13.23,20.189-23.68,35.382-28.967l84.839-29.524c7.472-2.596,15.679,1.362,18.289,8.833    c2.509,7.182-1.029,15.093-8.048,18.008l-57.659,23.885c-3.823,1.583-5.641,5.964-4.063,9.789    c1.579,3.825,5.956,5.647,9.784,4.077l99.81-41.014c1.555-0.64,2.851-1.782,3.678-3.246l36.137-63.918    c1.081-1.911,2.79-2.518,3.713-2.709c0.924-0.19,2.733-0.315,4.484,1.009c0.643,0.486,1.219,0.979,1.739,1.498    c0.061,0.068,0.127,0.13,0.19,0.196c2.929,3.058,3.753,7.237,2.001,17.812l-32.189,70.03c-5.461,11.165-16.29,25.941-51.633,41.36    c-0.066,0.028-0.132,0.059-0.197,0.089l-69.725,32.842c-8.647,4.073-14.235,12.881-14.235,22.439v2.395    c-8.699,1.018-16.167,6.907-20.87,15.641h-50.723v-21.379c0-4.143-3.358-7.5-7.5-7.5c-4.142,0-7.5,3.357-7.5,7.5v28.879v29.258    V504.5c0,4.143,3.358,7.5,7.5,7.5c4.142,0,7.5-3.357,7.5-7.5v-27.518h50.723c4.703,8.734,12.17,14.624,20.87,15.641V504.5    c0,4.143,3.358,7.5,7.5,7.5c4.142,0,7.5-3.357,7.5-7.5v-15.211c9.865-5.966,16.558-18.981,16.558-34.436    c0-15.455-6.694-28.469-16.558-34.436v-5.729c0-3.778,2.208-7.26,5.626-8.869l69.627-32.796    c20.946-9.146,46.555-22.935,59.055-48.566c0.025-0.051,0.049-0.103,0.073-0.154l32.64-71.01c0.271-0.589,0.464-1.21,0.575-1.849    C439.387,241.669,440.393,231.58,434.576,223.046z M229.437,461.982H183.5v-14.258h45.937c-0.321,2.304-0.496,4.684-0.496,7.129    S229.116,459.677,229.437,461.982z M271.651,454.853c0,10.848-5.69,22.935-13.855,22.935c-8.165,0-13.855-12.087-13.855-22.935    c0-10.848,5.69-22.935,13.855-22.935c0.686,0,1.352,0.092,2.001,0.255c0.336,0.135,0.684,0.244,1.042,0.33    C267.34,435.036,271.651,445.412,271.651,454.853z M268.803,15.776c2.411,0,4.839,0.155,7.215,0.461    c0.285,0.037,0.568,0.054,0.848,0.058c32.699,4.071,62.507,17.577,86.615,37.698c-51.794,2.646-100.928,18.398-143.519,44.497    c-4.421-7.988-6.948-17.165-6.948-26.925C213.014,40.803,238.041,15.776,268.803,15.776z M222.1,18.436    c-14.751,12.982-24.085,31.981-24.085,53.13c0,12.756,3.409,24.724,9.337,35.071c-13.181,8.996-25.646,19.028-37.283,29.99    c-13.649-22.018-25.745-45.059-36.18-68.894C157.135,43.121,187.715,25.507,222.1,18.436z M123.091,80.354    c10.508,23.189,22.564,45.615,36.057,67.084c-7.189,7.491-14.006,15.368-20.424,23.599c-2.304-3.369-4.899-6.564-7.795-9.53    c-10.285-10.534-23.443-17.507-37.713-20.15C98.972,118.872,109.281,98.193,123.091,80.354z M98.099,240.47    c-6.653-18.29-10.111-37.702-10.111-57.469c0.002-9.179,0.753-18.185,2.176-26.969c11.363,2.037,21.848,7.571,30.032,15.954    c3.543,3.629,6.532,7.682,8.933,12.037C116.95,201.482,106.513,220.368,98.099,240.47z M114.552,273.701    c-2.875-4.473-5.503-9.075-7.925-13.77c7.455-20.69,17.108-40.154,28.661-58.149c0.397,2.403,0.648,4.841,0.729,7.306    c-1.6,51.777,15.505,82.907,24.701,99.643c3.831,6.972,9.016,14.387,15.415,22.089    C151.169,317.313,129.983,297.713,114.552,273.701z M223.247,289.068c-15.803,5.5-29.093,15.563-38.626,28.392    c-4.381-5.584-7.997-10.929-10.757-15.952c-11.793-21.464-24.258-48.059-22.847-92.179c0.005-0.153,0.005-0.305,0-0.458    c-0.233-8.014-1.818-15.824-4.612-23.157c6.579-8.863,13.638-17.313,21.135-25.319c5.713,8.556,11.647,16.955,17.818,25.169    c24.155,32.151,51.863,61.694,82.469,87.989L223.247,289.068z M423.627,193.992c-12.416-13.445-33.352-33.9-54.722-44.846    c-3.687-1.889-8.206-0.431-10.094,3.256s-0.431,8.206,3.256,10.094c24.523,12.56,49.65,40.339,58.193,50.294    c-2.816-0.626-5.762-0.663-8.651-0.063c-5.804,1.204-10.806,4.854-13.723,10.015L363.027,284.4l-16.16,6.64    c0.574-4.4,0.155-8.991-1.4-13.444c-5.334-15.27-22.102-23.371-37.379-18.052l-23.8,8.282    c-32.445-26.98-61.685-57.663-86.935-91.271c-6.622-8.814-12.975-17.84-19.054-27.058c11.744-11.282,24.403-21.552,37.839-30.694    c12.969,14.445,31.772,23.552,52.667,23.552c0.153,0,0.305-0.005,0.458-0.014c22.237-1.357,42.271,0.863,61.253,6.792    c0.745,0.233,1.498,0.343,2.239,0.343c3.193,0,6.154-2.057,7.156-5.266c1.235-3.954-0.969-8.16-4.922-9.395    c-20.687-6.462-42.412-8.902-66.404-7.461c-15.508-0.06-29.538-6.487-39.624-16.789c44.228-26.818,95.793-41.945,149.925-41.981    c27.967,30.018,45.107,70.25,45.107,114.417C423.993,186.673,423.864,190.338,423.627,193.992z"/>
	</g>
</g>
<g>
</g>
<g>
</g>
<g>
</g>
<g>
</g>
<g>
</g>
<g>
</g>
<g>
</g>
<g>
</g>
<g>
</g>
<g>
</g>
<g>
</g>
<g>
</g>
<g>
</g>
<g>
</g>
<g>
</g>
</svg>
