<?xml version="1.0" encoding="iso-8859-1"?>
<!-- Generator: Adobe Illustrator 19.0.0, SVG Export Plug-In . SVG Version: 6.00 Build 0)  -->
<svg xmlns="http://www.w3.org/2000/svg" xmlns:xlink="http://www.w3.org/1999/xlink" version="1.1" id="Layer_1" x="0px" y="0px" viewBox="0 0 512.002 512.002" style="enable-background:new 0 0 512.002 512.002;" xml:space="preserve">
<g>
	<g>
		<path d="M398.059,370.968c0.352-36.984-13.556-74.077-41.737-102.207c-29.592-29.539-69.04-43.331-107.836-41.389    c-0.714-0.058-1.423-0.011-2.11,0.128c-24.213,1.569-48.098,9.269-69.096,23.111c-0.069,0.043-0.14,0.079-0.208,0.124    c-0.07,0.046-0.13,0.099-0.198,0.146c-7.79,5.174-15.181,11.193-22.038,18.062c-15.722,15.75-26.979,34.294-33.782,54.043    c-0.241,0.516-0.419,1.058-0.54,1.615c-11.674,35.257-9.235,74.196,7.318,107.905c0.836,1.921,1.854,3.829,2.927,5.627    c6.356,11.597,14.437,22.493,24.258,32.297c21.1,21.062,47.212,34.112,74.525,39.168c1.954,0.608,10.534,1.569,12.794,1.781    c4.474,0.419,8.968,0.628,13.462,0.623c28.912-0.026,57.812-8.783,82.374-26.247c0.331-0.199,0.643-0.427,0.94-0.673    c6.091-4.406,11.914-9.345,17.392-14.833c26.891-26.94,40.733-62.046,41.534-97.394    C398.123,372.229,398.13,371.596,398.059,370.968z M352.114,286.916c1.256,1.254,2.439,2.596,3.515,3.988    c0.163,0.211,0.335,0.41,0.515,0.599c14.281,18.347,22.831,39.739,25.659,61.735c-28.57-24.712-62.09-41.724-97.514-50.505    c1.991-5.868,5.307-11.251,9.813-15.765c7.741-7.755,18.038-12.032,28.995-12.042    C334.053,274.916,344.358,279.174,352.114,286.916z M253.127,242.439c0.809-0.016,1.618-0.03,2.427-0.031    c22.31-0.021,44.622,5.776,64.444,17.385c-13.863,0.757-26.789,6.517-36.673,16.418c-6.615,6.627-11.374,14.614-14.018,23.328    c-10.834-1.953-21.801-3.151-32.82-3.578C240.815,277.789,246.37,259.92,253.127,242.439z M236.316,243.884    c-6.242,17.013-11.398,34.365-15.442,51.986c-6.757,0.185-13.517,0.662-20.262,1.431c0.338-2.394,0.533-4.82,0.56-7.267    c0.122-11.02-2.968-21.693-8.795-30.834C206.129,251.321,221.048,246.214,236.316,243.884z M165.611,279.699    c4.443-4.451,9.139-8.496,14.037-12.15c6.047,9.654,7.671,21.374,4.919,32.145c-14.262,2.632-28.384,6.6-42.182,11.943    C148.265,300.126,156.001,289.327,165.611,279.699z M131.388,396.727c-4.657-21.496-3.705-43.972,2.848-65.07    c13.248-6.182,26.894-10.952,40.742-14.341c-0.01,0.011-0.019,0.022-0.029,0.032c-25.752,24.265-34.987,47.209-41.125,68.391    C132.807,389.249,132.011,392.949,131.388,396.727z M165.773,459.654c-8.411-8.397-15.395-17.689-20.96-27.57    c-0.476-12.313-0.161-29.011,3.635-42.108c5.17-17.84,12.727-38.793,37.106-61.701c0.113-0.106,0.223-0.215,0.329-0.328    c4.129-4.384,7.476-9.345,9.98-14.682c7.244-1.045,14.515-1.729,21.786-2.049c-3.527,18.416-5.88,37.09-6.998,55.947    c-2.496,42.096,1.135,84.064,10.754,124.948C201.023,486.447,181.782,475.635,165.773,459.654z M345.728,459.491    c-0.947,0.949-1.91,1.874-2.88,2.787c0.309-14.204-0.434-34.298-5.633-50.367c-1.294-3.999-5.586-6.197-9.586-4.899    c-4,1.294-6.194,5.586-4.899,9.586c6.456,19.953,4.995,48.615,4.249,58.39c-26.551,17.979-58.44,24.836-89.065,20.556    c-10.542-41.624-14.614-84.483-12.065-127.481c1.139-19.218,3.595-38.241,7.326-56.977c11.331,0.299,22.614,1.468,33.746,3.49    c-0.011,0.474-0.034,0.946-0.033,1.422c0.014,15.024,5.877,29.142,16.51,39.756c0.11,0.109,0.223,0.215,0.339,0.318    c12.855,11.354,22.52,23.477,29.547,37.063c1.354,2.619,4.017,4.12,6.775,4.117c1.175-0.001,2.368-0.276,3.484-0.853    c3.734-1.931,5.196-6.525,3.265-10.259c-7.874-15.224-18.608-28.742-32.809-41.319c-7.204-7.267-11.362-16.756-11.837-26.919    c37.18,9.5,72.06,28.703,100.583,56.934C381.486,405.616,369.154,436.023,345.728,459.491z"/>
	</g>
</g>
<g>
	<g>
		<path d="M426.612,124.312c-3.566-5.654-10.079-8.344-16.594-6.856l-40.278,9.202c-0.045,0.011-0.13,0.03-0.241-0.046    c-0.11-0.077-0.121-0.163-0.128-0.21l-8.291-62.457c-0.741-5.582-4.455-10.333-9.692-12.401    c-5.237-2.067-11.195-1.134-15.548,2.437l-41.384,33.934c-0.045,0.037-0.113,0.094-0.256,0.062    c-0.143-0.031-0.182-0.11-0.208-0.162L269.189,37.71c-2.624-5.3-7.927-8.61-13.841-8.639c-5.935-0.076-11.25,3.23-13.925,8.504    l-25.641,50.552c-0.026,0.052-0.066,0.131-0.21,0.16c-0.143,0.03-0.211-0.027-0.256-0.065l-40.269-33.759    c-4.347-3.643-10.329-4.628-15.613-2.569c-5.284,2.059-9.024,6.831-9.76,12.453l-8.153,62.278    c-0.006,0.047-0.018,0.133-0.127,0.209c-0.108,0.076-0.194,0.058-0.24,0.047l-37.955-8.516    c-6.496-1.455-12.983,1.239-16.534,6.867c-3.551,5.629-3.188,12.647,0.924,17.88l31.043,39.504    c2.598,3.306,7.383,3.879,10.689,1.282c3.305-2.598,3.879-7.384,1.282-10.689L99.56,133.705c-0.075-0.096-0.093-0.147-0.094-0.147    c-0.005-0.102,0.133-0.321,0.22-0.359c0-0.001,0.054-0.008,0.179,0.021l37.955,8.516c4.247,0.954,8.728,0.07,12.295-2.423    c3.567-2.493,5.937-6.398,6.502-10.712l8.153-62.278c0.014-0.107,0.024-0.178,0.191-0.244c0.168-0.066,0.223-0.019,0.305,0.05    l40.269,33.758c3.651,3.061,8.421,4.268,13.09,3.314c4.668-0.955,8.581-3.94,10.735-8.19l25.641-50.548    c0.054-0.107,0.085-0.167,0.268-0.167c0.146-0.009,0.221,0.06,0.275,0.169l24.804,50.105c2.113,4.267,5.993,7.289,10.648,8.292    c4.652,1.001,9.434-0.155,13.115-3.173l41.384-33.934c0.08-0.066,0.138-0.114,0.304-0.047c0.167,0.065,0.176,0.14,0.19,0.243    l8.291,62.456c0.573,4.321,2.955,8.224,6.534,10.711c3.581,2.487,8.071,3.356,12.318,2.385l40.278-9.202    c0.119-0.027,0.174-0.022,0.173-0.023c0.094,0.041,0.233,0.26,0.229,0.354c0,0.001-0.017,0.053-0.097,0.154l-64.71,81.717    c-18.524-11.525-51.278-26.967-93.731-26.929c-0.21,0-0.425,0.001-0.635,0.002c-41.571,0.189-73.748,15.229-91.979,26.437    l-11.97-15.234c-2.597-3.306-7.384-3.879-10.689-1.282c-3.306,2.597-3.88,7.383-1.282,10.689l16.253,20.683    c2.468,3.141,6.942,3.839,10.25,1.602c15.158-10.251,46.939-27.477,89.487-27.67c0.194-0.001,0.386-0.001,0.58-0.002    c43.357-0.039,75.652,17.603,91.077,28.155c1.313,0.898,2.813,1.331,4.3,1.33c2.251-0.002,4.471-1,5.966-2.887l69.02-87.159    C429.8,136.999,430.177,129.963,426.612,124.312z"/>
	</g>
</g>
<g>
	<g>
		<circle cx="68.111" cy="106.21" r="8.06"/>
	</g>
</g>
<g>
	<g>
		<circle cx="164.891" cy="181.33" r="8.06"/>
	</g>
</g>
<g>
	<g>
		<circle cx="193.901" cy="171.28" r="8.06"/>
	</g>
</g>
<g>
	<g>
		<circle cx="223.041" cy="165.16" r="8.06"/>
	</g>
</g>
<g>
	<g>
		<circle cx="344.751" cy="181.17" r="8.06"/>
	</g>
</g>
<g>
	<g>
		<circle cx="315.731" cy="171.17" r="8.06"/>
	</g>
</g>
<g>
	<g>
		<circle cx="286.571" cy="165.1" r="8.06"/>
	</g>
</g>
<g>
	<g>
		<circle cx="255.481" cy="163.16" r="8.06"/>
	</g>
</g>
<g>
	<g>
		<circle cx="151.861" cy="33.498" r="8.06"/>
	</g>
</g>
<g>
	<g>
		<circle cx="256.521" cy="8.06" r="8.06"/>
	</g>
</g>
<g>
	<g>
		<circle cx="362.891" cy="32.923" r="8.06"/>
	</g>
</g>
<g>
	<g>
		<circle cx="443.891" cy="108.03" r="8.06"/>
	</g>
</g>
<g>
</g>
<g>
</g>
<g>
</g>
<g>
</g>
<g>
</g>
<g>
</g>
<g>
</g>
<g>
</g>
<g>
</g>
<g>
</g>
<g>
</g>
<g>
</g>
<g>
</g>
<g>
</g>
<g>
</g>
</svg>
