<?xml version="1.0" encoding="iso-8859-1"?>
<!-- Generator: Adobe Illustrator 19.0.0, SVG Export Plug-In . SVG Version: 6.00 Build 0)  -->
<svg xmlns="http://www.w3.org/2000/svg" xmlns:xlink="http://www.w3.org/1999/xlink" version="1.1" id="Layer_1" x="0px" y="0px" viewBox="0 0 512 512" style="enable-background:new 0 0 512 512;" xml:space="preserve">
<g>
	<g>
		<path d="M429.437,355.561c-0.027-0.015-0.055-0.028-0.082-0.043c-5.516-2.904-11.44-5.2-17.709-6.764l-16.933-4.225    c-0.515-0.192-1.055-0.329-1.616-0.403l-37.061-9.247c-9.936-2.479-18.658-7.528-25.531-14.349    c-0.342-0.442-0.738-0.847-1.182-1.21c-7.711-8.143-12.881-18.61-14.488-30.194c27.98-17.977,47.254-48.376,49.975-83.346h7.285    c11.726,0,21.265-9.539,21.265-21.265V160.12v-7.155V87.634C393.359,39.312,354.047,0,305.725,0h-99.451    c-48.322,0-87.634,39.312-87.634,87.634v65.331v7.155v24.397c0,11.726,9.54,21.265,21.265,21.265h7.285    c2.621,33.683,20.602,63.118,46.924,81.304c-2.022,23.232-18.611,42.92-41.515,48.634l-52.244,13.035    c-35.173,8.775-59.738,40.223-59.738,76.474v61.988C40.617,500.882,51.735,512,65.4,512h90.527h0.018h290.654    c13.666,0,24.784-11.118,24.784-24.784v-61.988C471.383,395.471,454.822,368.961,429.437,355.561z M80.945,496.99H65.4    c-5.389,0-9.773-4.384-9.773-9.774v-61.988c0-20.522,9.733-39.133,25.318-50.905V496.99z M114.683,496.99H95.955V365.896    c2.591-1.022,5.27-1.889,8.033-2.578l10.695-2.668V496.99z M129.693,496.99V356.904l18.369-4.583l0.342,144.669H129.693z     M378.349,160.12v24.396c0,3.449-2.806,6.255-6.255,6.255h-6.952V146.71h6.952c3.45,0,6.255,2.806,6.255,6.255V160.12z     M146.857,190.771h-6.952c-3.45,0-6.255-2.806-6.255-6.255V160.12v-7.155c0-3.449,2.806-6.255,6.255-6.255h6.952V190.771z     M146.856,112.25v19.45h-6.952c-2.176,0-4.276,0.332-6.255,0.942V87.634c0.001-40.045,32.58-72.624,72.625-72.624h99.451    c40.045,0,72.624,32.579,72.624,72.624v45.008c-1.979-0.61-4.079-0.942-6.255-0.942h-6.952v-19.45    c0-16.134-3.52-26.373-11.077-32.223c-11.431-8.847-27.621-4.655-48.118,0.654c-14.987,3.881-31.973,8.279-49.948,8.279    c-17.975,0-34.962-4.399-49.948-8.279c-20.498-5.308-36.689-9.5-48.118-0.654C150.376,85.877,146.856,96.115,146.856,112.25z     M161.867,197.235v-58.03V112.25c0-10.654,1.817-17.692,5.254-20.353c1.787-1.383,4.462-1.948,7.772-1.948    c7.073,0,17.04,2.581,27.396,5.263c15.069,3.902,33.823,8.759,53.711,8.759s38.642-4.857,53.711-8.759    c15.202-3.937,29.564-7.654,35.168-3.315c3.438,2.661,5.254,9.699,5.254,20.353v26.955v58.03    c0,51.905-42.228,94.133-94.133,94.133C204.095,291.368,161.867,249.14,161.867,197.235z M182.162,496.99h-18.747l-0.311-131.279    c4.963,6.17,10.994,12.666,19.058,20.304V496.99z M215.899,496.99h-18.728v-97.611c6.213,5.06,12.573,9.57,18.728,13.542V496.99z     M248.495,496.99H230.91v-75.11c6.871,3.8,12.962,6.795,17.585,8.999V496.99z M283.377,496.991h-19.873v-66.465    c6.544-2.786,13.175-6.149,19.873-10.09V496.991z M317.066,496.99h-18.679v-86.271c5.852-4.126,11.74-8.659,17.651-13.61    c0.349-0.292,0.685-0.578,1.028-0.868V496.99z M306.398,385.603c-17.462,14.628-34.559,25.38-50.868,31.996    c-17.078-8.164-36.528-18.664-54.207-34.382c-17.674-15.715-26.475-25.825-33.765-36.819c5.736-2.532,11.032-5.803,15.798-9.671    c6.293,9.348,13.516,18.044,21.577,25.917c1.46,1.426,3.352,2.136,5.243,2.136c1.951,0,3.9-0.756,5.371-2.261    c2.895-2.966,2.839-7.717-0.126-10.613c-8.045-7.856-15.181-16.609-21.277-26.066c6.971-8.784,11.839-19.234,13.975-30.54    c14.466,7.09,30.715,11.078,47.881,11.078c16.016,0,31.236-3.468,44.951-9.692c2.418,10.994,7.393,21.045,14.35,29.459    c-7.363,12.164-16.589,22.944-27.501,32.084c-10.326,8.651-21.875,15.59-34.368,20.656c-6.052-3.009-11.93-6.444-17.512-10.234    c-3.429-2.328-8.095-1.436-10.425,1.993c-2.328,3.429-1.436,8.096,1.994,10.425c7.108,4.826,14.654,9.129,22.428,12.789    c1.01,0.475,2.102,0.715,3.196,0.715c0.896,0,1.794-0.161,2.649-0.483c15.218-5.743,29.24-13.937,41.676-24.354    c11.308-9.472,20.999-20.517,28.905-32.911c5.023,3.888,10.616,7.118,16.67,9.559    C335.703,357.871,325.718,369.419,306.398,385.603z M350.854,496.99h-18.778V382.947c0-0.056-0.007-0.11-0.008-0.166    c8.027-7.753,13.962-14.607,18.786-21.231V496.99z M384.594,496.99h-18.729V352.802l18.729,4.673V496.99z M418.332,496.99h-18.728    V361.22l8.408,2.098c3.584,0.894,7.031,2.08,10.32,3.527V496.99z M456.373,487.216L456.373,487.216    c0,5.389-4.385,9.774-9.774,9.774h-13.257V376.132c14.244,11.823,23.031,29.598,23.031,49.097V487.216z"/>
	</g>
</g>
<g>
	<g>
		<path d="M241.26,154.446h-32.381c-4.145,0-7.505,3.36-7.505,7.505s3.36,7.505,7.505,7.505h32.381    c2.357-0.001,4.349,2.491,4.349,5.44v23.698c0,4.145,3.36,7.505,7.505,7.505s7.505-3.36,7.505-7.505v-23.698    C260.619,163.62,251.935,154.446,241.26,154.446z"/>
	</g>
</g>
<g>
	<g>
		<path d="M306.413,154.128h-21.862c-4.145,0-7.505,3.36-7.505,7.505s3.359,7.505,7.505,7.505h21.862    c4.145,0,7.505-3.36,7.505-7.505S310.558,154.128,306.413,154.128z"/>
	</g>
</g>
<g>
	<g>
		<circle cx="219.81" cy="186.31" r="7.639"/>
	</g>
</g>
<g>
	<g>
		<circle cx="295.48" cy="185.99" r="7.639"/>
	</g>
</g>
<g>
	<g>
		<path d="M280.262,214.594h-45.231c-6.503,0-11.794,5.291-11.794,11.794v1.703c0,18.973,15.436,34.409,34.41,34.409    s34.409-15.436,34.409-34.409v-1.703C292.056,219.885,286.765,214.594,280.262,214.594z M257.646,247.49    c-10.187,0-18.566-7.894-19.341-17.886h38.682C276.212,239.596,267.833,247.49,257.646,247.49z"/>
	</g>
</g>
<g>
</g>
<g>
</g>
<g>
</g>
<g>
</g>
<g>
</g>
<g>
</g>
<g>
</g>
<g>
</g>
<g>
</g>
<g>
</g>
<g>
</g>
<g>
</g>
<g>
</g>
<g>
</g>
<g>
</g>
</svg>
