<?xml version="1.0" encoding="iso-8859-1"?>
<!-- Generator: Adobe Illustrator 19.0.0, SVG Export Plug-In . SVG Version: 6.00 Build 0)  -->
<svg xmlns="http://www.w3.org/2000/svg" xmlns:xlink="http://www.w3.org/1999/xlink" version="1.1" id="Layer_1" x="0px" y="0px" viewBox="0 0 512 512" style="enable-background:new 0 0 512 512;" xml:space="preserve">
<g>
	<g>
		<path d="M511.945,482.717L501.03,335.308c-0.306-4.131-3.888-7.236-8.035-6.927c-4.132,0.306-7.233,3.903-6.927,8.035    l7.508,101.393h-204.07l-14.094-139c-0.036-0.355-0.097-0.706-0.183-1.051c-1.909-7.686-8.47-12.812-16.367-12.812    c-0.066,0-0.134,0-0.201,0.001c-7.986,0.088-14.529,5.382-16.282,13.173c-0.071,0.317-0.121,0.638-0.151,0.962L229.501,437.81    H18.97L49.126,86.85h418.465l15.724,212.367c0.292,3.943,3.582,6.948,7.473,6.948c0.186,0,0.373-0.007,0.562-0.021    c4.132-0.306,7.233-3.903,6.927-8.035L482.059,79.072V28.741c0-11.71-9.527-21.236-21.237-21.236H55.977    c-11.71,0-21.237,9.526-21.237,21.236v50.285L0.074,482.477c-0.485,5.644,1.434,11.276,5.265,15.45s9.277,6.568,14.942,6.568    h199.664c10.551,0,19.233-7.923,20.196-18.429l3.669-39.99l13.303-145.005c0.164-0.462,0.572-1.112,1.715-1.124    c0.012,0,0.022,0,0.033,0c1.095,0,1.517,0.606,1.696,1.056l14.707,145.052c0.001,0.014,0.003,0.028,0.004,0.042l4.072,40.162    c1.054,10.397,9.728,18.236,20.177,18.236H491.72c5.619,0,11.036-2.362,14.86-6.479    C510.404,493.899,512.359,488.322,511.945,482.717z M49.742,28.741c0-3.438,2.796-6.234,6.234-6.234h404.845    c3.438,0,6.234,2.796,6.234,6.234v43.107H49.742V28.741z M225.2,484.698c-0.25,2.733-2.51,4.795-5.256,4.795H20.28    c-1.496,0-2.877-0.607-3.889-1.71c-1.011-1.102-1.497-2.53-1.369-4.021l2.659-30.951h210.444L225.2,484.698z M495.587,487.807    c-1.01,1.088-2.384,1.686-3.868,1.686H299.517c-2.719,0-4.976-2.04-5.251-4.746l-3.238-31.936h203.66l2.296,31.013    C497.093,485.305,496.597,486.719,495.587,487.807z"/>
	</g>
</g>
<g>
	<g>
		<path d="M432.379,316.547c2.082-2.323,3.922-5.114,5.509-8.364c3.468-7.106,5.227-15.677,5.227-25.476v-11.924    c0-16.192-4.266-28.777-12.683-37.406c-8.467-8.678-20.421-13.078-35.529-13.078h-26.314c-15.277,0-27.315,4.4-35.777,13.077    c-8.415,8.623-12.683,21.209-12.683,37.407v11.924c0,15.085,3.719,26.445,11.08,33.931c-7.361,7.577-11.08,18.778-11.08,33.454    v12.756c0,16.182,4.256,28.803,12.647,37.509c8.465,8.794,20.514,13.253,35.814,13.253h26.314c15.13,0,27.095-4.458,35.563-13.251    c8.394-8.714,12.65-21.335,12.65-37.511V350.37C443.117,335.3,439.514,323.977,432.379,316.547z M416.415,323.386    c7.87,3.52,11.696,12.346,11.696,26.984v12.479c0,12.162-2.843,21.28-8.453,27.103c-5.609,5.824-13.707,8.656-24.757,8.656    h-26.314c-11.22,0-19.399-2.831-25.008-8.658c-5.606-5.817-8.45-14.936-8.45-27.101v-12.756c0-14.019,3.987-22.793,12.19-26.821    c2.601-1.278,4.234-3.94,4.193-6.838c-0.04-2.898-1.746-5.514-4.383-6.718c-2.968-1.357-12-5.484-12-27.009v-11.924    c0-12.146,2.832-21.205,8.418-26.93c5.612-5.754,13.803-8.552,25.039-8.552H394.9c11.066,0,19.176,2.798,24.79,8.552    c5.587,5.728,8.419,14.788,8.419,26.93v11.924h0.003c0,7.498-1.247,13.855-3.708,18.893c-2.064,4.226-4.548,6.867-7.384,7.851    c-2.907,1.008-4.903,3.688-5.037,6.762C411.85,319.287,413.606,322.13,416.415,323.386z"/>
	</g>
</g>
<g>
	<g>
		<path d="M403.716,333.09c-3.247-4.183-8.315-6.305-15.065-6.305H374.84c-6.754,0-11.824,2.123-15.065,6.305    c-2.836,3.655-4.216,8.647-4.216,15.263v10.437c0,6.667,1.49,11.571,4.548,14.98c3.233,3.618,8.19,5.453,14.733,5.453h13.811    c6.538,0,11.494-1.833,14.729-5.448c3.064-3.422,4.552-8.324,4.552-14.985v-10.437    C407.932,341.744,406.554,336.752,403.716,333.09z M392.93,358.791L392.93,358.791c0,3.345-0.555,4.638-0.696,4.919    c-0.268,0.131-1.243,0.512-3.583,0.512H374.84c-2.314,0-3.294-0.372-3.572-0.506c-0.172-0.334-0.706-1.637-0.706-4.925v-10.437    c0-4.561,0.955-5.924,1.028-6.027c0.007-0.005,0.742-0.539,3.25-0.539h13.811c2.423,0,3.191,0.499,3.211,0.499c0,0,0,0,0-0.001    c0.113,0.147,1.068,1.522,1.068,6.068V358.791z"/>
	</g>
</g>
<g>
	<g>
		<path d="M403.592,257.412c-3.248-4.184-8.316-6.305-15.065-6.305h-13.812c-6.754,0-11.824,2.123-15.065,6.305    c-2.836,3.655-4.216,8.647-4.216,15.263v10.437c0,6.668,1.49,11.572,4.548,14.98c3.234,3.618,8.191,5.453,14.734,5.453h13.812    c6.537,0,11.493-1.833,14.728-5.447c3.063-3.422,4.552-8.324,4.552-14.986v-10.437    C407.808,266.066,406.43,261.074,403.592,257.412z M392.807,283.111c0,3.346-0.556,4.639-0.696,4.919    c-0.267,0.131-1.241,0.512-3.582,0.512h-13.812c-2.315,0-3.294-0.372-3.572-0.506c-0.172-0.333-0.706-1.637-0.706-4.925v-10.437    h-0.001c0-4.561,0.955-5.924,1.028-6.027c0.007-0.005,0.742-0.539,3.25-0.539h13.812c2.423,0,3.19,0.499,3.211,0.499    c0,0,0,0,0-0.001c0.113,0.147,1.068,1.521,1.068,6.068V283.111z"/>
	</g>
</g>
<g>
</g>
<g>
</g>
<g>
</g>
<g>
</g>
<g>
</g>
<g>
</g>
<g>
</g>
<g>
</g>
<g>
</g>
<g>
</g>
<g>
</g>
<g>
</g>
<g>
</g>
<g>
</g>
<g>
</g>
</svg>
