<?xml version="1.0" encoding="iso-8859-1"?>
<!-- Generator: Adobe Illustrator 19.0.0, SVG Export Plug-In . SVG Version: 6.00 Build 0)  -->
<svg xmlns="http://www.w3.org/2000/svg" xmlns:xlink="http://www.w3.org/1999/xlink" version="1.1" id="Layer_1" x="0px" y="0px" viewBox="0 0 512 512" style="enable-background:new 0 0 512 512;" xml:space="preserve">
<g>
	<g>
		<path d="M323.389,63.471H191.341c-4.142,0-7.5,3.358-7.5,7.5c0,4.142,3.358,7.5,7.5,7.5h132.048c4.142,0,7.5-3.358,7.5-7.5    C330.889,66.829,327.531,63.471,323.389,63.471z"/>
	</g>
</g>
<g>
	<g>
		<path d="M424.076,3.398C424.069,3.386,420.296,0,417.798,0H98.21c-2.525,0-5.003,1.354-6.344,3.5l-7.417,11.76    c-10.231,16.226-14.692,35.66-12.56,54.724c2.132,19.064,10.777,37.032,24.341,50.596l118.195,118.195    c-53.815,19.854-92.291,71.659-92.291,132.284C122.135,448.774,185.361,512,263.076,512c77.716,0,140.942-63.226,140.942-140.942    c0-62.915-41.44-116.329-98.458-134.393l105.281-105.701c16.461-16.461,26.85-38.279,29.252-61.435    C442.495,46.374,436.807,22.888,424.076,3.398z M400.622,15L258.55,168.304L115.469,15H400.622z M106.838,109.973    c-11.167-11.167-18.285-25.961-20.04-41.657c-1.756-15.695,1.917-31.696,10.34-45.055l2.227-3.531l194.027,207.891l-4.814,4.814    c-8.273-1.519-16.796-2.318-25.502-2.318c-11.127,0-21.954,1.302-32.344,3.751L106.838,109.973z M389.018,371.058    c0,69.445-56.497,125.942-125.942,125.942c-69.444,0-125.941-56.497-125.941-125.942c0-69.444,56.497-125.941,125.941-125.941    C332.521,245.117,389.018,301.614,389.018,371.058z M425.174,67.982c-2.048,19.741-10.905,38.342-24.939,52.376l-96.433,96.433    L268.811,179.3L416.383,20.061C423.781,34.796,426.885,51.488,425.174,67.982z"/>
	</g>
</g>
<g>
	<g>
		<path d="M359.446,324.449c-0.174-0.457-0.393-0.896-0.653-1.311c-12.512-24.891-34.447-44.261-61.097-53.393    c-0.099-0.038-0.191-0.089-0.293-0.124c-1.248-0.422-2.579-0.84-4.068-1.278c-0.108-0.032-0.216-0.054-0.325-0.081    c-9.503-2.77-19.547-4.263-29.934-4.263c-22.364,0-43.145,6.897-60.336,18.67c-0.48,0.261-0.935,0.573-1.353,0.939    c-22.771,16.11-38.996,40.879-43.852,69.471c-0.072,0.313-0.126,0.628-0.157,0.947c-0.891,5.549-1.361,11.237-1.361,17.033    c0,28.56,11.242,54.543,29.532,73.758c0.342,0.439,0.73,0.839,1.16,1.192c19.439,19.803,46.491,32.109,76.367,32.109    c31.396,0,59.677-13.585,79.278-35.185c0.437-0.389,0.82-0.825,1.15-1.296c12.018-13.679,20.614-30.433,24.428-48.917    c0.013-0.059,0.032-0.116,0.044-0.176c0.009-0.042,0.01-0.084,0.017-0.126c1.404-6.905,2.143-14.048,2.143-21.361    C370.136,354.361,366.292,338.547,359.446,324.449z M344.26,327.689c-2.756,7.426-6.064,14.624-9.876,21.536    c-0.542-22.016-6.859-37.12-13.881-50.063C330.222,306.941,338.335,316.643,344.26,327.689z M263.076,278.999    c8.443,0,16.621,1.148,24.393,3.287c6.512,6.072,14.706,14.652,19.352,23.108c6.483,11.799,13.335,26.415,12.562,50.625    c-0.005,0.153-0.005,0.305-0.001,0.458c0.127,4.354,0.883,8.537,2.173,12.466c-2.532,3.335-5.192,6.574-7.975,9.707    c-6.662-9.677-13.88-18.996-21.608-27.94v-46.673c0-7.455-5.008-12.463-12.463-12.463h-18.907c-3.959,0-8.249,1.44-13.199,4.453    l-8.719,5.461c-5.807-4.258-11.783-8.331-17.872-12.197C233.476,282.718,247.849,278.999,263.076,278.999z M302.875,389.603    c-3.491,3.253-7.128,6.358-10.903,9.297v-24.449C295.765,379.396,299.4,384.449,302.875,389.603z M233.833,334.126v-11.9    l21.451-13.437c3.465-2.108,5.038-2.215,5.318-2.215h16.37v136.963h-15.015V318.055L233.833,334.126z M206.803,298.253    c6.179,3.726,12.253,7.693,18.169,11.856c-3.968,2.802-6.139,6.977-6.139,11.889v19.379c0,5.582,2.826,8.278,4.51,9.389    c2.104,1.388,5.703,2.572,10.908,0.341l12.707-7.205v47.278c-20.397-0.023-32.504-6.22-42.415-11.297l-0.162-0.083    c-12.96-6.638-26.375-21.228-31.512-27.156C177.348,330.667,189.685,311.516,206.803,298.253z M171.038,372.67    c7.167,7.137,16.736,15.479,26.505,20.482l0.161,0.083c10.817,5.541,25.258,12.939,49.253,12.949v17.356    c-16.731,5.921-34.256,9-52.192,9.164C180.348,416.744,171.436,395.726,171.038,372.67z M263.076,463.118    c-19.369,0-37.356-6.018-52.2-16.274c12.288-1.219,24.351-3.719,36.081-7.477v6.708c0,7.455,5.009,12.463,12.463,12.463h20.324    c3.787,0,6.804-1.097,8.969-3.262c2.162-2.164,3.258-5.259,3.258-9.201v-28.631c6.725-4.567,13.107-9.59,19.11-15.013    c6.479,10.729,12.287,21.858,17.41,33.335C311.795,452.643,288.637,463.118,263.076,463.118z M339.098,422.917    c-5.1-10.751-10.8-21.186-17.053-31.284c2.558-2.75,5.027-5.58,7.404-8.484c5.594,6.684,13.184,11.628,21.927,13.961    C348.628,406.406,344.452,415.094,339.098,422.917z M354.442,382.356c-6.455-2.003-11.942-6.285-15.544-11.865    c4.96-7.294,9.377-14.957,13.196-22.923c1.982,7.502,3.042,15.374,3.042,23.49C355.136,374.882,354.897,378.652,354.442,382.356z"/>
	</g>
</g>
<g>
</g>
<g>
</g>
<g>
</g>
<g>
</g>
<g>
</g>
<g>
</g>
<g>
</g>
<g>
</g>
<g>
</g>
<g>
</g>
<g>
</g>
<g>
</g>
<g>
</g>
<g>
</g>
<g>
</g>
</svg>
