<?xml version="1.0" encoding="iso-8859-1"?>
<!-- Generator: Adobe Illustrator 19.0.0, SVG Export Plug-In . SVG Version: 6.00 Build 0)  -->
<svg xmlns="http://www.w3.org/2000/svg" xmlns:xlink="http://www.w3.org/1999/xlink" version="1.1" id="Layer_1" x="0px" y="0px" viewBox="0 0 512 512" style="enable-background:new 0 0 512 512;" xml:space="preserve">
<g>
	<g>
		<path d="M372.598,130.971h-67.417c-4.142,0-7.5,3.358-7.5,7.5c0,4.142,3.358,7.5,7.5,7.5h67.417c7.4,0,13.421,6.021,13.421,13.421    v324.187c0,7.4-6.021,13.421-13.421,13.421H139.402c-7.4,0-13.421-6.021-13.421-13.421V159.392c0-7.4,6.021-13.421,13.421-13.421    h70.586c4.142,0,7.5-3.358,7.5-7.5c0-4.142-3.358-7.5-7.5-7.5h-70.586c-15.671,0-28.421,12.75-28.421,28.421v324.187    c0,15.671,12.75,28.421,28.421,28.421h233.196c15.671,0,28.421-12.75,28.421-28.421V159.392    C401.02,143.721,388.27,130.971,372.598,130.971z"/>
	</g>
</g>
<g>
	<g>
		<path d="M292.189,162.68h-8.096V7.5c0-4.142-3.358-7.5-7.5-7.5c-4.142,0-7.5,3.358-7.5,7.5v155.18h-24.98V7.5    c0-4.142-3.358-7.5-7.5-7.5c-4.142,0-7.5,3.358-7.5,7.5v155.18h-9.302c-4.143,0-7.5,3.358-7.5,7.5c0,4.142,3.358,7.5,7.5,7.5    h16.802h39.98h15.596c4.142,0,7.5-3.358,7.5-7.5C299.689,166.038,296.331,162.68,292.189,162.68z"/>
	</g>
</g>
<g>
	<g>
		<path d="M334.496,454.262H177.504c-4.142,0-7.5,3.358-7.5,7.5c0,4.142,3.358,7.5,7.5,7.5h156.992c4.142,0,7.5-3.358,7.5-7.5    C341.996,457.62,338.638,454.262,334.496,454.262z"/>
	</g>
</g>
<g>
	<g>
		<g>
			<path d="M327.387,245.629c0.492,2.572,0.725,3.784,0.797,4.163C327.952,248.58,326.278,239.834,327.387,245.629z"/>
			<path d="M328.184,249.792C328.217,249.963,328.22,249.981,328.184,249.792L328.184,249.792z"/>
			<path d="M303.897,339.649c-3.853-1.664-8.203-2.287-11.769-4.564c-5.254-3.463-8.914-10.046-9.521-17.448     c1.371-1.597,2.62-3.303,3.722-5.113c2.933,2.395,5.96,4.559,8.997,6.407c10.484,6.377,23.094,10.392,31.745,10.392     c1.742,0,3.326-0.163,4.697-0.502c3.949-0.978,5.976-3.185,6.98-4.865c4.081-6.824-1.783-12.598-5.663-16.419     c-4.397-4.33-9.869-9.718-11.316-17.717c-1.019-5.63,0.432-9.703,2.441-15.34c2.52-7.079,5.659-15.887,3.177-28.851     c-1.578-8.244-4.836-15.103-9.422-19.835c-7.53-7.772-18.521-11.688-28.69-10.217c-3.792,0.548-7.415,1.814-10.833,3.762     c-6.178-3.804-13.445-6.005-21.218-6.005h-6.738c-21.467,0-39.084,16.755-40.487,37.873c-0.06,0.384-0.101,0.774-0.101,1.174     v27.401c0,2.398,1.13,4.528,2.882,5.901l1.956,11.443c1.001,8.315,4.591,15.746,9.9,21.537     c-0.821,7.751-4.983,14.521-10.786,17.612c-2.848,1.502-6.122,2.095-9.076,3.378c-25.327,10.514-42.523,38.16-42.523,69.606     v3.865c0,8.657,6.519,15.7,14.531,15.7h15.579h123.957h15.579c8.012,0,14.531-7.043,14.531-15.7v-3.865     C346.428,377.809,329.228,350.161,303.897,339.649z M291.42,230.422c5.324-0.768,11.659,1.565,15.771,5.81     c1.454,1.5,4.097,5.083,5.463,12.218c1.714,8.955-0.274,14.535-2.576,20.996c-2.251,6.318-4.803,13.479-3.072,23.046     c1.551,8.568,5.843,15.078,9.994,19.906c-4.188-1.319-9.071-3.356-13.88-6.281c-3.897-2.371-7.803-5.403-11.437-8.848     l1.954-10.773c2.471-1.227,4.173-3.769,4.173-6.714v-27.401c0-0.4-0.04-0.791-0.101-1.174     c-0.507-7.633-3.131-14.692-7.293-20.599C290.749,230.536,291.084,230.471,291.42,230.422z M250.485,228.334h6.738     c5.153,0,11.305,2.117,13.972,4.168c0.411,0.316,3.291,2.645,4.344,3.578c2.609,2.311,4.359,5.484,5.617,8.801h-54.604     C230.214,235.221,239.558,228.334,250.485,228.334z M224.898,259.881h57.913v11.06c-0.441,0.397-0.837,0.845-1.176,1.341h-56.626     c-0.036-0.053-0.073-0.104-0.111-0.156V259.881z M228.398,344.018c4.347-4.244,7.662-9.725,9.568-15.899     c4.691,2.007,9.844,3.119,15.236,3.119c5.716,0,11.185-1.277,16.126-3.561c2.099,6.825,5.92,12.804,10.952,17.205v3.039     c0,17.371-11.637,31.503-25.941,31.503c-14.304,0-25.941-14.132-25.941-31.503V344.018z M228.269,287.281h49.981v0.001     l-1.481,8.169c-0.018,0.102-0.035,0.205-0.049,0.308c-1.62,11.675-11.731,20.479-23.519,20.479     c-12.072,0-22.213-9.044-23.589-21.038c-0.016-0.137-0.035-0.273-0.059-0.409L228.269,287.281z M192.361,387.939     c-4.142,0-7.5,3.358-7.5,7.5v18.385h-7.481c-0.067-0.157-0.129-0.391-0.129-0.699v-3.865c0-20.707,8.96-39.275,23.011-49.869     v18.086C200.262,383.148,196.644,387.939,192.361,387.939z M308.818,413.825H199.861v-12.288     c8.955-3.461,15.401-12.939,15.401-24.06v-15.669c5.211,18.881,20.758,32.617,39.077,32.617     c18.319,0,33.866-13.736,39.078-32.617v15.669c0,11.121,6.446,20.599,15.401,24.06V413.825z M331.427,413.125     c0,0.308-0.062,0.542-0.128,0.7h-7.481V395.44c0-4.142-3.358-7.5-7.5-7.5c-4.283,0-7.901-4.791-7.901-10.462v-18.086     c14.05,10.593,23.01,29.161,23.01,49.868V413.125z"/>
		</g>
	</g>
</g>
<g>
</g>
<g>
</g>
<g>
</g>
<g>
</g>
<g>
</g>
<g>
</g>
<g>
</g>
<g>
</g>
<g>
</g>
<g>
</g>
<g>
</g>
<g>
</g>
<g>
</g>
<g>
</g>
<g>
</g>
</svg>
