<?xml version="1.0" encoding="iso-8859-1"?>
<!-- Generator: Adobe Illustrator 19.0.0, SVG Export Plug-In . SVG Version: 6.00 Build 0)  -->
<svg xmlns="http://www.w3.org/2000/svg" xmlns:xlink="http://www.w3.org/1999/xlink" version="1.1" id="Layer_1" x="0px" y="0px" viewBox="0 0 512 512" style="enable-background:new 0 0 512 512;" xml:space="preserve">
<g>
	<g>
		<path d="M401.655,205.728l7.219-7.22c7.413-7.413,7.413-19.475,0-26.888l-3.944-3.944c-7.413-7.414-19.477-7.413-26.888,0    l-7.642,7.641c-21.518-16.576-46.713-28.595-74.135-34.609c21.518-13.467,35.869-37.37,35.869-64.573    C332.135,34.154,297.98,0,255.999,0c-41.98,0-76.135,34.154-76.135,76.135c0,27.192,14.339,51.085,35.842,64.556    c-21.825,4.773-42.674,13.425-61.62,25.685c-4.429,2.866-8.705,5.928-12.856,9.134l-7.834-7.834    c-7.414-7.413-19.475-7.413-26.889,0l-4.17,4.17c-7.413,7.413-7.413,19.475,0,26.888l7.484,7.484    c-9.377,11.611-17.39,24.341-23.815,37.974c-1.766,3.747-0.16,8.216,3.587,9.981c3.746,1.767,8.217,0.161,9.981-3.587    c7.874-16.707,18.33-31.943,30.913-45.226l6.301-6.301c7.803-7.432,16.303-14.174,25.447-20.091    c23.472-15.19,50.128-24.332,77.878-26.87c0.511,0.11,1.04,0.171,1.583,0.171H270.3c0.558,0,1.1-0.066,1.624-0.181    c87.858,8.066,156.9,82.158,156.9,172.085c0,95.298-77.529,172.827-172.825,172.827S83.174,419.471,83.174,324.174    c0-15.075,1.941-30.032,5.77-44.457c1.063-4.003-1.321-8.11-5.325-9.173c-4.004-1.061-8.11,1.322-9.173,5.325    c-4.161,15.68-6.271,31.932-6.271,48.305C68.174,427.742,152.432,512,255.999,512s187.825-84.258,187.825-187.826    C443.825,279.305,428.002,238.067,401.655,205.728z M126.218,188.419c-2.155,2.059-4.266,4.162-6.319,6.319l-0.171,0.171    l-6.781-6.782c-1.565-1.565-1.565-4.11,0-5.675l4.17-4.17c0.782-0.782,1.81-1.173,2.837-1.173c1.027,0,2.055,0.391,2.837,1.173    l6.782,6.782L126.218,188.419z M262.802,136.485c-2.259-0.081-4.524-0.136-6.802-0.136c-2.272,0-4.539,0.041-6.802,0.122v-13.123    h13.604V136.485z M270.302,108.347h-28.604h-7.604c-1.008,0-1.827-0.819-1.827-1.827V88.38c0-1.007,0.819-1.827,1.827-1.827    h43.811c1.008,0,1.827,0.819,1.827,1.827v18.14c0,1.007-0.819,1.827-1.827,1.827H270.302z M277.802,123.347h0.104    c9.278,0,16.827-7.548,16.827-16.827V88.38c0-9.278-7.549-16.827-16.827-16.827h-43.811c-9.278,0-16.827,7.548-16.827,16.827    v18.14c0,9.278,7.549,16.827,16.827,16.827h0.104v9.89c-22.973-8.801-39.334-31.071-39.334-57.102    c0-33.71,27.425-61.135,61.135-61.135s61.135,27.425,61.135,61.135c0,26.031-16.36,48.301-39.333,57.102V123.347z     M398.266,187.901l-6.555,6.555c-3.135-3.278-6.387-6.443-9.75-9.489l6.687-6.685c1.564-1.564,4.109-1.564,5.674,0l3.944,3.944    C399.831,183.791,399.831,186.336,398.266,187.901z"/>
	</g>
</g>
<g>
	<g>
		<path d="M256.911,170.97c-84.476,0-153.203,68.727-153.203,153.204s68.727,153.204,153.203,153.204    c39.274,0,76.622-14.843,105.165-41.795c3.012-2.844,3.147-7.591,0.304-10.603c-2.846-3.012-7.592-3.147-10.603-0.304    c-25.746,24.312-59.438,37.701-94.866,37.701c-76.205,0-138.203-61.998-138.203-138.204s61.998-138.204,138.203-138.204    s138.203,61.998,138.203,138.204c0,27.697-8.16,54.415-23.599,77.266c-2.318,3.433-1.415,8.096,2.017,10.414    c3.433,2.32,8.095,1.417,10.413-2.016c17.12-25.34,26.169-54.962,26.169-85.663C410.115,239.697,341.388,170.97,256.911,170.97z"/>
	</g>
</g>
<g>
	<g>
		<path d="M264.411,298.769v-53.657c0-4.142-3.357-7.5-7.5-7.5c-4.143,0-7.5,3.358-7.5,7.5v53.657    c-2.072,0.613-4.038,1.472-5.865,2.545l-61.003-50.951c-3.178-2.653-7.908-2.23-10.563,0.949    c-2.655,3.179-2.231,7.909,0.948,10.564l60.33,50.388c-1.812,3.583-2.839,7.628-2.839,11.91c0,14.608,11.885,26.493,26.493,26.493    c14.608,0,26.492-11.885,26.492-26.493C283.405,312.171,275.378,302.012,264.411,298.769z M256.911,335.667    c-6.337,0-11.493-5.156-11.493-11.493c0-0.559,0.054-1.105,0.131-1.643l6.554,5.474c4.757,4.078,12.308,0.414,12.308-5.756v-6.764    c2.44,2.109,3.993,5.218,3.993,8.689C268.405,330.511,263.249,335.667,256.911,335.667z"/>
	</g>
</g>
<g>
	<g>
		<circle cx="143.9" cy="324.17" r="7.613"/>
	</g>
</g>
<g>
	<g>
		<circle cx="370.47" cy="324.17" r="7.613"/>
	</g>
</g>
<g>
	<g>
		<circle cx="256.91" cy="210.89" r="7.613"/>
	</g>
</g>
<g>
	<g>
		<circle cx="256.91" cy="437.46" r="7.613"/>
	</g>
</g>
<g>
</g>
<g>
</g>
<g>
</g>
<g>
</g>
<g>
</g>
<g>
</g>
<g>
</g>
<g>
</g>
<g>
</g>
<g>
</g>
<g>
</g>
<g>
</g>
<g>
</g>
<g>
</g>
<g>
</g>
</svg>
