<?xml version="1.0" encoding="iso-8859-1"?>
<!-- Generator: Adobe Illustrator 19.0.0, SVG Export Plug-In . SVG Version: 6.00 Build 0)  -->
<svg xmlns="http://www.w3.org/2000/svg" xmlns:xlink="http://www.w3.org/1999/xlink" version="1.1" id="Layer_1" x="0px" y="0px" viewBox="0 0 512 512" style="enable-background:new 0 0 512 512;" xml:space="preserve">
<g>
	<g>
		<path d="M423.984,374.235c4.142,0,7.5-3.358,7.5-7.5V147.849c0-4.142-3.358-7.5-7.5-7.5c-18.881,0-34.242-15.361-34.242-34.242    V7.5c0-4.142-3.358-7.5-7.5-7.5h-35.604c-4.142,0-7.5,3.358-7.5,7.5v25.069c0,27.143-22.083,49.225-49.226,49.225h-67.825    c-27.143,0-49.226-22.083-49.226-49.225V7.5c0-4.142-3.358-7.5-7.5-7.5h-35.604c-4.142,0-7.5,3.358-7.5,7.5v98.607    c0,18.881-15.361,34.242-34.242,34.242c-4.142,0-7.5,3.358-7.5,7.5v335.277c0,15.921,12.953,28.874,28.874,28.874h293.22    c15.921,0,28.874-12.953,28.874-28.874v-87.277c0-4.142-3.358-7.5-7.5-7.5c-4.142,0-7.5,3.358-7.5,7.5v87.277    c0,7.65-6.224,13.874-13.874,13.874H109.391c-7.65,0-13.874-6.224-13.874-13.874V154.779    c23.606-3.622,41.742-24.068,41.742-48.672V15h20.604v17.569v44.5c0,27.235,11.463,53.478,31.45,71.999    c3.039,2.816,7.784,2.634,10.599-0.403c2.815-3.038,2.635-7.783-0.403-10.599c-16.933-15.692-26.645-37.924-26.645-60.997v-3.306    c11.791,14.066,29.478,23.031,49.226,23.031h67.825c19.748,0,37.435-8.965,49.226-23.031v3.306    c0,45.843-37.295,83.138-83.138,83.138c-12.637,0-24.769-2.76-36.058-8.203c-3.73-1.8-8.214-0.233-10.013,3.499    c-1.799,3.731-0.232,8.214,3.499,10.013c13.337,6.431,27.661,9.691,42.572,9.691c54.114,0,98.138-44.024,98.138-98.138v-44.5V15    h20.604v91.107c0,24.604,18.136,45.05,41.742,48.672v211.957C416.484,370.877,419.843,374.235,423.984,374.235z"/>
	</g>
</g>
<g>
	<g>
		<path d="M316.434,301.658v-11.69c0-15.914-4.197-28.286-12.476-36.775c-8.331-8.536-20.085-12.864-34.937-12.864h-25.797    c-15.018,0-26.855,4.329-35.181,12.865c-8.278,8.482-12.475,20.855-12.475,36.774v11.69c0,14.764,3.625,25.899,10.803,33.267    c-7.177,7.452-10.803,18.433-10.803,32.797v12.506c0,15.903,4.186,28.31,12.439,36.875c8.328,8.65,20.177,13.037,35.216,13.037    h25.797c14.874,0,26.64-4.386,34.971-13.036c8.255-8.571,12.441-20.978,12.441-36.875v-12.234c0-14.75-3.514-25.851-10.474-33.163    c2.013-2.267,3.794-4.98,5.333-8.132C314.703,319.71,316.434,311.286,316.434,301.658z M290.052,341.672    c7.658,3.425,11.381,12.035,11.381,26.321v12.234c0,11.884-2.774,20.79-8.245,26.47s-13.376,8.441-24.167,8.441h-25.797    c-10.958,0-18.942-2.761-24.413-8.443c-5.47-5.676-8.243-14.581-8.243-26.468v-12.506c0-20.335,8.933-24.722,11.868-26.164    c2.601-1.277,4.233-3.939,4.193-6.836c-0.041-2.897-1.747-5.513-4.382-6.717c-2.889-1.32-11.679-5.337-11.679-26.346v-11.69    c0-11.867,2.762-20.715,8.212-26.3c5.473-5.611,13.469-8.339,24.444-8.339h25.797c10.808,0,18.724,2.729,24.2,8.339    c5.449,5.588,8.212,14.437,8.212,26.3v11.69h0.001c0,7.328-1.218,13.539-3.621,18.458c-2.005,4.107-4.413,6.672-7.155,7.623    c-2.906,1.008-4.903,3.688-5.037,6.761C285.488,337.573,287.244,340.417,290.052,341.672z"/>
	</g>
</g>
<g>
	<g>
		<path d="M277.777,350.962c-3.214-4.138-8.222-6.237-14.885-6.237h-13.54c-6.67,0-11.679,2.101-14.885,6.238    c-2.802,3.61-4.164,8.534-4.164,15.053v10.232c0,6.574,1.474,11.413,4.497,14.785c3.199,3.579,8.095,5.394,14.552,5.394h13.54    c6.452,0,11.346-1.813,14.55-5.391c3.027-3.383,4.499-8.22,4.499-14.788v-10.232C281.941,359.503,280.581,354.581,277.777,350.962    z M266.94,376.248c0,3.136-0.501,4.408-0.641,4.71c-0.291,0.132-1.242,0.468-3.407,0.468h-13.54c-2.135,0-3.09-0.326-3.395-0.461    c-0.175-0.366-0.654-1.647-0.654-4.717v-10.232c0-4.422,0.91-5.723,0.952-5.793c0.007-0.005,0.732-0.498,3.097-0.498h13.54    c2.306,0,3.039,0.463,3.034,0.433c0.118,0.155,1.014,1.478,1.014,5.858V376.248z"/>
	</g>
</g>
<g>
	<g>
		<path d="M277.656,276.767c-3.213-4.139-8.221-6.238-14.885-6.238h-13.54c-6.669,0-11.679,2.101-14.885,6.238    c-2.802,3.61-4.164,8.534-4.164,15.053v10.232c0,6.575,1.474,11.414,4.496,14.784c3.198,3.581,8.094,5.396,14.553,5.396h13.54    c6.452,0,11.347-1.813,14.549-5.39c3.028-3.383,4.5-8.221,4.5-14.789v-10.232C281.82,285.309,280.46,280.387,277.656,276.767z     M266.82,302.055c0,3.136-0.501,4.407-0.642,4.71c-0.291,0.132-1.242,0.468-3.407,0.468h-13.54c-2.136,0-3.091-0.326-3.395-0.461    c-0.175-0.365-0.654-1.647-0.654-4.717v-10.233h0.001c0-4.423,0.91-5.723,0.952-5.793c0.006-0.005,0.732-0.498,3.096-0.498h13.54    c2.307,0,3.042,0.474,3.034,0.434c0.118,0.154,1.015,1.478,1.015,5.858V302.055z"/>
	</g>
</g>
<g>
	<g>
		<path d="M129.805,211.178c-4.142,0-7.5,3.358-7.5,7.5v241.361c0,4.142,3.358,7.5,7.5,7.5c4.142,0,7.5-3.358,7.5-7.5V218.678    C137.305,214.536,133.946,211.178,129.805,211.178z"/>
	</g>
</g>
<g>
	<g>
		<path d="M382.219,210.473c-4.142,0-7.5,3.358-7.5,7.5v241.36c0,4.142,3.358,7.5,7.5,7.5c4.142,0,7.5-3.358,7.5-7.5v-241.36    C389.719,213.831,386.36,210.473,382.219,210.473z"/>
	</g>
</g>
<g>
</g>
<g>
</g>
<g>
</g>
<g>
</g>
<g>
</g>
<g>
</g>
<g>
</g>
<g>
</g>
<g>
</g>
<g>
</g>
<g>
</g>
<g>
</g>
<g>
</g>
<g>
</g>
<g>
</g>
</svg>
