<?xml version="1.0" encoding="iso-8859-1"?>
<!-- Generator: Adobe Illustrator 19.0.0, SVG Export Plug-In . SVG Version: 6.00 Build 0)  -->
<svg xmlns="http://www.w3.org/2000/svg" xmlns:xlink="http://www.w3.org/1999/xlink" version="1.1" id="Layer_1" x="0px" y="0px" viewBox="0 0 512 512" style="enable-background:new 0 0 512 512;" xml:space="preserve">
<g>
	<g>
		<path d="M481.583,72.946H30.417C13.645,72.946,0,86.592,0,103.365v305.272c0,16.772,13.645,30.417,30.417,30.417h451.166    c16.772,0,30.417-13.645,30.417-30.417v-95.686c0-0.013,0-0.026,0-0.039V199.089c0-0.013,0-0.026,0-0.039v-95.687    C512,86.592,498.355,72.946,481.583,72.946z M15,208.016l64.373,12.394c-10.528,8.308-17.305,21.168-17.305,35.59    c0,14.421,6.777,27.281,17.305,35.59L15,303.984V208.016z M99.899,226.608v58.783C86.79,282.045,77.068,270.137,77.068,256    C77.068,241.863,86.79,229.956,99.899,226.608z M248.5,424.054H30.417c-8.501,0-15.417-6.917-15.417-15.417V380.57h47.841    c68.688,0,124.569-55.881,124.569-124.569c0-22.409-6.019-44.383-17.407-63.547c-2.117-3.561-6.718-4.729-10.279-2.616    c-3.561,2.116-4.732,6.718-2.616,10.279c10.011,16.846,15.302,36.171,15.302,55.884c0,60.417-49.152,109.569-109.569,109.569H15    v-46.31l93.223-17.948c24.615-0.443,44.507-20.591,44.507-45.311c0-24.72-19.892-44.868-44.507-45.311L15,192.741v-46.31h47.841    c29.267,0,56.782,11.397,77.477,32.092c1.464,1.464,3.384,2.197,5.303,2.197c1.919,0,3.839-0.732,5.303-2.197    c2.929-2.929,2.929-7.678,0-10.606c-23.528-23.528-54.81-36.485-88.083-36.485H15v-28.067c0-8.501,6.916-15.417,15.417-15.417    H248.5v116.343c-25.273,3.649-44.757,25.443-44.757,51.711s19.484,48.061,44.757,51.711V424.054z M114.899,285.392V226.61    c13.109,3.347,22.831,15.254,22.831,29.391C137.73,270.137,128.008,282.045,114.899,285.392z M256,293.256    c-0.002,0-0.004,0-0.006,0c-20.541-0.004-37.25-16.715-37.25-37.257c0-20.543,16.713-37.257,37.257-37.257    s37.257,16.713,37.257,37.257c0,20.541-16.71,37.253-37.25,37.257C256.004,293.257,256.002,293.256,256,293.256z M497,303.94    l-64.143-12.349c10.528-8.31,17.305-21.17,17.305-35.591c0-14.421-6.777-27.281-17.305-35.59L497,208.061V303.94z     M412.331,285.392V226.61c13.109,3.347,22.832,15.254,22.832,29.392C435.162,270.137,425.44,282.045,412.331,285.392z M497,131.43    h-47.611c-68.688,0-124.569,55.881-124.569,124.569c0,24.022,6.854,47.344,19.82,67.443c1.434,2.223,3.847,3.435,6.309,3.435    c1.393,0,2.802-0.388,4.059-1.199c3.48-2.245,4.482-6.887,2.236-10.368c-11.399-17.67-17.424-38.179-17.424-59.311    c0-60.417,49.152-109.569,109.569-109.569H497v46.354l-92.993,17.904C379.391,211.133,359.5,231.28,359.5,256    c0,24.72,19.892,44.868,44.507,45.311L497,319.215v46.354h-47.611c-26.313,0-51.751-9.465-71.628-26.652    c-3.133-2.709-7.869-2.364-10.579,0.768c-2.709,3.133-2.365,7.87,0.768,10.579c22.602,19.543,51.524,30.306,81.439,30.306H497    v28.067c0,8.5-6.916,15.417-15.417,15.417H263.5V307.711c25.273-3.649,44.757-25.443,44.757-51.711s-19.484-48.061-44.757-51.711    V87.946h218.083c8.501,0,15.417,6.917,15.417,15.417V131.43z M397.331,226.61v58.783C384.222,282.045,374.5,270.137,374.5,256    C374.5,241.863,384.222,229.956,397.331,226.61z"/>
	</g>
</g>
<g>
	<g>
		<circle cx="256" cy="254.76" r="7.515"/>
	</g>
</g>
<g>
</g>
<g>
</g>
<g>
</g>
<g>
</g>
<g>
</g>
<g>
</g>
<g>
</g>
<g>
</g>
<g>
</g>
<g>
</g>
<g>
</g>
<g>
</g>
<g>
</g>
<g>
</g>
<g>
</g>
</svg>
