<?xml version="1.0" encoding="iso-8859-1"?>
<!-- Generator: Adobe Illustrator 19.0.0, SVG Export Plug-In . SVG Version: 6.00 Build 0)  -->
<svg xmlns="http://www.w3.org/2000/svg" xmlns:xlink="http://www.w3.org/1999/xlink" version="1.1" id="Layer_1" x="0px" y="0px" viewBox="0 0 512 512" style="enable-background:new 0 0 512 512;" xml:space="preserve">
<g>
	<g>
		<path d="M332.678,252.332l-2.472-0.719c-10.096-2.938-18.721-10.691-23.98-21.248c14.172-5.976,26.784-15.77,36.068-28.164    c11.307-15.094,17.283-33.006,17.283-51.799v-44.634C359.576,47.448,312.128,0,253.806,0S148.038,47.448,148.038,105.77v44.634    c0,35.762,22.342,67.848,55.241,80.741c-5.257,10.532-13.853,18.248-23.958,21.189c-49.131,14.297-83.444,65.173-83.444,123.722    v6.973c0,12.294,9.055,22.296,20.186,22.296h28.11h223.655h28.11c11.13,0,20.186-10.002,20.186-22.296v-6.973    C416.121,317.506,381.808,266.629,332.678,252.332z M163.037,150.403v-44.634c0-50.051,40.719-90.769,90.769-90.769    s90.769,40.719,90.769,90.77v44.634c0,28.351-17.338,54.297-43.002,65.644c-0.417-2.441-0.666-4.924-0.746-7.436    c8.579-9.272,14.495-21.094,16.362-34.299l10.025-55.281c3.268-2.791,5.349-6.932,5.349-11.556V88.06    c0-7.614-6.194-13.808-13.808-13.808H193.194c-7.642,0-13.967,5.673-15.03,13.025c-0.137,0.634-0.199,1.29-0.164,1.962    c-0.001,0.073-0.011,0.144-0.011,0.217v18.018c0,4.106,1.643,7.83,4.297,10.569l8.217,54.744    c1.72,14.718,8.359,27.768,18.146,37.61c-0.112,2.178-0.352,4.333-0.718,6.457C181.157,205.983,163.037,179.682,163.037,150.403z     M311.31,122.678l-8.905,49.106c-0.018,0.102-0.035,0.205-0.049,0.308c-3.335,24.032-24.147,42.155-48.41,42.155    c-24.849,0.001-45.723-18.616-48.555-43.303c-0.01-0.086-0.021-0.172-0.034-0.258l-7.206-48.008H311.31z M195.9,107.678    l-2.762-18.402c0.02-0.007,0.035-0.024,0.057-0.024h124.176l-3.342,18.426H195.9z M144.171,343.62c-4.142,0-7.5,3.358-7.5,7.5    v39.205h-20.61c-2.81-0.001-5.185-3.342-5.185-7.297v-6.973c0-43.801,21.258-82.643,53.583-101.193v43.848    C164.458,332.445,155.357,343.62,144.171,343.62z M360.327,390.325H151.671v-0.002v-32.612    c15.868-3.898,27.788-19.906,27.788-39.003v-50.679c0.144-0.05,0.289-0.095,0.433-0.144c1.197-0.407,2.401-0.795,3.619-1.149    c0.959-0.279,1.905-0.597,2.845-0.935c0.251-0.09,0.499-0.186,0.748-0.28c0.352-0.133,0.707-0.255,1.056-0.396v0.257    c0,13.47,3.039,26.746,8.79,38.391c1.833,3.713,6.329,5.239,10.045,3.404c3.714-1.833,5.238-6.331,3.404-10.045    c-4.735-9.591-7.239-20.569-7.239-31.749v-9.672c7.678-6.843,13.695-16.043,17.197-26.761c0.031-0.095,0.057-0.192,0.088-0.288    l0.001-0.002c0-0.001,0-0.001,0-0.001c0.815-2.532,1.481-5.109,1.994-7.724c9.331,5.298,20.095,8.313,31.507,8.313    c12.011,0,23.371-3.405,33.091-9.334c0.583,3.05,1.361,6.053,2.355,8.989c3.905,11.535,10.755,21.292,19.445,28.164v8.316    c0,34.669-23.704,62.874-52.838,62.874c-10.758,0-21.115-3.838-29.951-11.1c-3.2-2.629-7.926-2.167-10.556,1.033    c-2.63,3.2-2.167,7.926,1.033,10.556c11.552,9.493,25.202,14.511,39.475,14.511c37.407,0,67.838-34.935,67.838-77.874v-0.055    c0.721,0.248,1.447,0.478,2.178,0.69l2.471,0.719c0.004,0.001,0.008,0.003,0.013,0.004c1.211,0.353,2.408,0.739,3.598,1.143    c0.148,0.05,0.295,0.096,0.442,0.147v50.679c0,19.098,11.92,35.105,27.788,39.003V390.325z M395.935,390.323h-20.61v-39.205    c0-4.142-3.358-7.5-7.5-7.5c-11.187,0-20.288-11.175-20.288-24.911V274.86c32.326,18.55,53.582,57.392,53.582,101.193v6.974h0.001    C401.121,386.982,398.746,390.323,395.935,390.323z"/>
	</g>
</g>
<g>
	<g>
		<path d="M269.821,179.999c-3.458-2.278-8.11-1.322-10.389,2.137c-1.252,1.901-3.355,3.036-5.625,3.036    c-2.168,0-4.216-1.056-5.48-2.825c-2.408-3.371-7.093-4.151-10.462-1.742c-3.37,2.408-4.15,7.092-1.742,10.462    c4.073,5.701,10.684,9.104,17.685,9.104c7.328,0.001,14.114-3.657,18.15-9.783C274.237,186.929,273.28,182.278,269.821,179.999z"/>
	</g>
</g>
<g>
	<g>
		<circle cx="228.737" cy="150.059" r="7.86"/>
	</g>
</g>
<g>
	<g>
		<circle cx="277.996" cy="150.059" r="7.86"/>
	</g>
</g>
<g>
	<g>
		<path d="M296.779,459.995c-1.226-3.772-4.424-6.468-8.349-7.039l-17.221-2.502l-7.702-15.605c-1.755-3.556-5.31-5.766-9.275-5.766    c-3.966,0-7.52,2.209-9.275,5.766l-7.702,15.605l-17.221,2.502c-3.925,0.57-7.125,3.267-8.35,7.039s-0.223,7.835,2.617,10.604    l12.461,12.146l-2.941,17.151c-0.67,3.909,0.906,7.786,4.115,10.117c1.813,1.317,3.935,1.987,6.07,1.987    c1.644,0,3.296-0.397,4.823-1.199l15.403-8.098l15.403,8.098c3.51,1.846,7.684,1.544,10.892-0.787    c3.209-2.331,4.786-6.207,4.116-10.117l-2.942-17.151l12.461-12.147C297.002,467.829,298.005,463.766,296.779,459.995z     M269.477,473.714c-2.438,2.377-3.549,5.799-2.974,9.154l1.761,10.265l-9.219-4.847c-3.015-1.585-6.614-1.584-9.626,0    l-9.219,4.847l1.761-10.265c0.576-3.356-0.537-6.779-2.975-9.155l-7.458-7.27l10.308-1.498c3.37-0.49,6.281-2.606,7.787-5.658    l4.609-9.34l4.609,9.338c1.506,3.053,4.417,5.169,7.789,5.66l10.307,1.498L269.477,473.714z"/>
	</g>
</g>
<g>
	<g>
		<path d="M185.975,459.993c-1.226-3.772-4.425-6.468-8.35-7.038l-17.221-2.502l-7.702-15.605c-1.755-3.556-5.31-5.766-9.275-5.766    c-3.965,0-7.52,2.209-9.275,5.766l-7.701,15.605l-17.222,2.502c-3.924,0.57-7.124,3.267-8.349,7.039    c-1.226,3.771-0.224,7.835,2.617,10.604l12.461,12.147l-2.941,17.151c-0.67,3.909,0.906,7.786,4.115,10.117    c1.813,1.317,3.935,1.987,6.07,1.987c1.644,0,3.296-0.396,4.823-1.199l15.403-8.098l15.403,8.098    c3.512,1.846,7.685,1.542,10.894-0.788c3.208-2.332,4.785-6.208,4.114-10.116l-2.942-17.152l12.462-12.148    C186.199,467.828,187.201,463.765,185.975,459.993z M158.674,473.712c-2.439,2.376-3.551,5.799-2.976,9.155l1.761,10.266    l-9.218-4.846c-1.507-0.793-3.16-1.189-4.814-1.189c-1.653,0-3.307,0.396-4.814,1.188l-9.218,4.846l1.761-10.265    c0.575-3.355-0.536-6.777-2.975-9.155l-7.458-7.27l10.309-1.498c3.368-0.49,6.278-2.604,7.787-5.658l4.609-9.339l4.609,9.338    c1.506,3.054,4.417,5.169,7.789,5.66l10.307,1.498L158.674,473.712z"/>
	</g>
</g>
<g>
	<g>
		<path d="M411.119,459.995c-1.226-3.772-4.427-6.469-8.352-7.039l-17.221-2.502l-7.701-15.605c0,0,0,0,0-0.001    c-1.756-3.556-5.311-5.765-9.276-5.765c-3.965,0-7.52,2.209-9.274,5.766l-7.701,15.605l-17.221,2.502    c-3.925,0.57-7.124,3.267-8.35,7.039s-0.224,7.835,2.617,10.604l12.461,12.147l-2.941,17.151    c-0.67,3.909,0.906,7.786,4.115,10.117c1.813,1.317,3.935,1.987,6.07,1.987c1.644,0,3.296-0.396,4.823-1.199l15.403-8.098    l15.403,8.098c3.512,1.846,7.686,1.542,10.894-0.788c3.208-2.332,4.785-6.208,4.114-10.116l-2.941-17.151l12.462-12.148    C411.343,467.829,412.345,463.766,411.119,459.995z M383.816,473.712c-2.439,2.376-3.551,5.799-2.976,9.155l1.761,10.266    l-9.218-4.846c-1.507-0.793-3.161-1.189-4.814-1.189c-1.653,0-3.307,0.396-4.814,1.188l-9.218,4.846l1.761-10.265    c0.576-3.356-0.537-6.779-2.975-9.155l-7.458-7.27l10.308-1.498c3.368-0.49,6.279-2.604,7.787-5.658l4.609-9.34l4.609,9.338    c1.506,3.054,4.417,5.169,7.789,5.66l10.307,1.498L383.816,473.712z"/>
	</g>
</g>
<g>
</g>
<g>
</g>
<g>
</g>
<g>
</g>
<g>
</g>
<g>
</g>
<g>
</g>
<g>
</g>
<g>
</g>
<g>
</g>
<g>
</g>
<g>
</g>
<g>
</g>
<g>
</g>
<g>
</g>
</svg>
