<?xml version="1.0" encoding="iso-8859-1"?>
<!-- Generator: Adobe Illustrator 19.0.0, SVG Export Plug-In . SVG Version: 6.00 Build 0)  -->
<svg xmlns="http://www.w3.org/2000/svg" xmlns:xlink="http://www.w3.org/1999/xlink" version="1.1" id="Layer_1" x="0px" y="0px" viewBox="0 0 512 512" style="enable-background:new 0 0 512 512;" xml:space="preserve">
<g>
	<g>
		<path d="M403.926,226.727h-30.599c13.933-18.265,23.108-39.493,26.869-62.062c0.052-0.25,0.091-0.501,0.118-0.755    c1.198-7.438,1.818-15.015,1.818-22.681c0-37.733-14.874-72.056-39.066-97.416c-0.378-0.498-0.816-0.946-1.305-1.336    C336.109,16.284,300.375,0,260.903,0c-41.451,0-78.786,17.951-104.645,46.486c-0.536,0.455-0.996,0.98-1.378,1.553    c-15.895,18.062-27.263,40.198-32.301,64.622c-1.495,6.407-2.18,13.075-2.617,19.629c-0.431,6.459-0.374,12.955,0.095,19.41    c1.551,21.483,7.875,41.948,18.627,60.378c0.225,0.388,0.458,0.773,0.686,1.158c0.266,0.445,0.53,0.89,0.801,1.333    c0.37,0.607,0.746,1.21,1.126,1.813c0.12,0.19,0.24,0.381,0.362,0.57c2.129,3.342,4.4,6.605,6.818,9.776h-40.406    c-15.009,0-27.221,12.212-27.221,27.22v4.749c0,13.664,10.121,25.005,23.258,26.93l39.568,220.062    c0.734,4.085,4.647,6.797,8.726,6.067c4.085-0.734,6.8-4.641,6.067-8.726l-7.195-40.013L190.2,424.09l57.041,57.041l-18.04,18.04    c-2.935,2.935-2.935,7.693,0,10.627c1.468,1.467,3.392,2.201,5.314,2.201c1.923,0,3.847-0.733,5.314-2.201l18.04-18.04    l18.04,18.04c1.468,1.467,3.392,2.201,5.314,2.201s3.846-0.733,5.314-2.201c2.935-2.935,2.935-7.693,0-10.627l-18.04-18.04    l40.708-40.709c2.935-2.935,2.935-7.693,0-10.627c-2.936-2.935-7.693-2.935-10.628,0l-40.709,40.708l-57.041-57.041l57.041-57.041    l106.599,106.6l-7.194,40.009c-0.733,4.085,1.982,7.992,6.067,8.726c0.45,0.081,0.898,0.12,1.339,0.12    c3.568,0,6.734-2.551,7.387-6.186l39.726-220.934c11.186-3.384,19.355-13.783,19.355-26.058v-4.749    C431.147,238.939,418.935,226.727,403.926,226.727z M353.731,226.729h-155.94v-0.002c-8.177-15.479-16.045-34.85-15.069-65.38    c0.005-0.153,0.005-0.306,0.001-0.459c-0.173-5.972-1.302-11.8-3.285-17.302c4.376-5.839,9.024-11.444,13.932-16.789    c20.689,30.544,45.307,58.507,73.075,82.785c1.426,1.246,3.188,1.858,4.944,1.858c2.093,0,4.174-0.87,5.66-2.568    c2.732-3.124,2.413-7.871-0.711-10.604c-27.553-24.09-51.898-51.935-72.205-82.385c8.169-7.733,16.914-14.821,26.152-21.201    c10.162,10.693,24.501,17.381,40.382,17.381c0.152,0,0.307-0.005,0.459-0.014c33.111-2.022,53.382,6.765,69.778,15.163    c18.54,9.497,37.627,30.688,43.92,38.039C380.427,188.117,369.773,209.33,353.731,226.729z M180.994,226.727h-12.918    c-2.106-2.284-4.119-4.634-6.037-7.045c-0.038-0.051-0.071-0.105-0.11-0.155c-3.285-4.147-6.28-8.453-8.988-12.893    c-0.113-0.185-0.223-0.372-0.336-0.558c-0.788-1.307-1.551-2.624-2.287-3.954c-0.203-0.368-0.397-0.74-0.596-1.111    c-0.228-0.422-0.444-0.85-0.667-1.275c4.985-13.685,11.249-26.651,18.631-38.782c0.002,0.051,0.007,0.102,0.009,0.154    C166.822,189.612,172.997,209.857,180.994,226.727z M387.103,141.23c0,1.354-0.03,2.703-0.072,4.052    c-9.731-10.188-24.351-23.802-39.279-31.448c-19.457-9.965-42.291-18.897-77.305-16.802c-10.468-0.055-20.013-4.082-27.203-10.648    c32.76-19.391,70.707-30.354,110.517-30.521C374.449,78.349,387.103,108.338,387.103,141.23z M270.665,15.62    c1.761,0,3.534,0.113,5.268,0.337c0.26,0.034,0.52,0.053,0.778,0.06c22.91,2.876,43.926,11.92,61.336,25.409    c-37.39,2.659-72.859,14.206-103.892,32.873c-2.681-5.425-4.195-11.523-4.195-17.973C229.959,33.881,248.22,15.62,270.665,15.62z     M229.277,19.042c-8.912,9.883-14.347,22.959-14.347,37.284c0,9.456,2.375,18.366,6.548,26.176    c-8.989,6.227-17.54,13.079-25.586,20.51c-9.739-15.83-18.409-32.288-25.892-49.229C185.943,37.216,206.354,24.98,229.277,19.042z     M159.261,66.517c7.528,16.268,16.109,32.085,25.654,47.322c-4.639,4.888-9.073,9.985-13.289,15.28    c-1.447-1.928-3.016-3.777-4.721-5.523c-7.638-7.822-17.289-13.148-27.787-15.475C143.253,92.927,150.158,78.867,159.261,66.517z     M137.473,167.753c0.008,0.038,0.012,0.063,0.015,0.078C137.485,167.817,137.481,167.794,137.473,167.753z M140.776,180.065    c-1.51-4.684-2.744-9.464-3.697-14.32c-2.753-14.112-3.126-28.687-1.032-42.914c11.036,2.536,20.412,9.642,26.035,19.154    C153.886,153.867,146.731,166.593,140.776,180.065z M119.43,285.918h52.05l-44.117,44.117L119.43,285.918z M148.034,444.999    l-13.828-76.903l45.366,45.366L148.034,444.999z M190.2,402.834l-57.19-57.19l57.04-57.041l57.19,57.19L190.2,402.834z     M257.869,335.166l-49.247-49.247h98.493L257.869,335.166z M367.706,445.004l-31.542-31.543l45.372-45.372L367.706,445.004z     M325.538,402.834l-57.041-57.041l57.19-57.19l57.041,57.041L325.538,402.834z M388.379,330.041l-44.122-44.122h52.056    L388.379,330.041z M403.926,270.889H110.444h-2.374c-6.722,0-12.192-5.469-12.192-12.192v-4.749    c0-6.722,5.47-12.191,12.192-12.191h84.77c0.163,0.011,0.325,0.032,0.489,0.032c0.174,0,0.35-0.02,0.524-0.032h210.073    c6.722,0,12.192,5.469,12.192,12.191v4.749h0C416.118,265.419,410.648,270.889,403.926,270.889z"/>
	</g>
</g>
<g>
</g>
<g>
</g>
<g>
</g>
<g>
</g>
<g>
</g>
<g>
</g>
<g>
</g>
<g>
</g>
<g>
</g>
<g>
</g>
<g>
</g>
<g>
</g>
<g>
</g>
<g>
</g>
<g>
</g>
</svg>
