<?xml version="1.0" encoding="iso-8859-1"?>
<!-- Generator: Adobe Illustrator 19.0.0, SVG Export Plug-In . SVG Version: 6.00 Build 0)  -->
<svg xmlns="http://www.w3.org/2000/svg" xmlns:xlink="http://www.w3.org/1999/xlink" version="1.1" id="Layer_1" x="0px" y="0px" viewBox="0 0 512 512" style="enable-background:new 0 0 512 512;" xml:space="preserve">
<g>
	<g>
		<path d="M490.102,41.043C415.874,15.839,338.537,2.829,260.242,2.372C179.04,1.885,98.878,14.909,21.909,41.039    C8.805,45.489,0,57.777,0,71.617v249.292c0,13.85,8.809,26.14,21.92,30.582c41.534,14.071,84.586,24.423,128.048,30.817    l21.768,121.064c0.734,4.08,4.641,6.788,8.714,6.058c4.079-0.734,6.791-4.635,6.058-8.714l-5.087-28.289l26.369-26.369    l38.968,38.968l-11.805,11.805c-2.93,2.93-2.93,7.682,0,10.612c1.466,1.465,3.387,2.198,5.307,2.198s3.841-0.733,5.307-2.198    l11.804-11.804l11.804,11.804c1.466,1.465,3.387,2.198,5.307,2.198c1.92,0,3.841-0.733,5.307-2.198c2.93-2.93,2.93-7.682,0-10.612    l-11.805-11.805l38.968-38.968l26.372,26.372l-5.086,28.286c-0.733,4.079,1.979,7.98,6.058,8.714    c0.449,0.081,0.896,0.12,1.337,0.12c3.563,0,6.724-2.548,7.377-6.178l21.843-121.485c42.492-6.422,84.594-16.632,125.223-30.395    C503.189,347.049,512,334.758,512,320.908V71.617C512,57.776,503.2,45.49,490.102,41.043z M158.328,343.992h30.922l-26.21,26.21    L158.328,343.992z M178.186,454.436l-8.326-46.309l27.318,27.318L178.186,454.436z M207.79,424.832l-39.077-39.077l38.968-38.968    l39.077,39.077L207.79,424.832z M226.112,343.992h62.517l-31.258,31.259L226.112,343.992z M257.371,474.413l-38.968-38.968    l38.968-38.968l38.968,38.968L257.371,474.413z M336.559,454.44l-18.994-18.995l27.322-27.322L336.559,454.44z M306.951,424.832    l-38.968-38.968l39.077-39.077l38.968,38.968L306.951,424.832z M351.705,370.205l-26.213-26.213h30.926L351.705,370.205z     M362.932,328.984h-53.868c-1.28-0.345-2.632-0.345-3.912,0h-95.565c-1.281-0.345-2.632-0.345-3.912,0h-56.322h-0.287    c-4.625,0-8.387-3.763-8.387-8.388v-0.574c0-4.625,3.763-8.388,8.388-8.388h0.983h211.9h0.983c4.625,0,8.387,3.763,8.387,8.388    v0.574c0,1.258-0.286,2.448-0.785,3.52c-0.788,0.717-1.421,1.589-1.846,2.564C367.185,328.104,365.161,328.984,362.932,328.984z     M157.554,296.626v-135.55c0-10.173,8.276-18.449,18.449-18.449h159.995c10.173,0,18.449,8.276,18.449,18.449v135.55h-0.001    H157.554z M496.992,320.908c0,7.413-4.715,13.991-11.73,16.368c-38.184,12.935-77.695,22.667-117.6,28.99l4.334-24.103    c3.122-1.317,5.899-3.293,8.159-5.752c24.007-4.667,47.895-10.718,71.051-18.029c11.52-3.636,19.26-13.835,19.26-25.378V99.5    c0-11.534-7.73-21.73-19.236-25.371c-61.905-19.59-126.4-29.703-191.691-30.058c-67.728-0.36-134.564,9.745-198.755,30.055    C49.27,77.769,41.536,87.966,41.536,99.5v193.505c0,11.543,7.739,21.741,19.256,25.377c14.674,4.634,29.745,8.797,44.792,12.375    c4.038,0.96,8.079-1.533,9.037-5.565c0.959-4.032-1.533-8.078-5.565-9.036c-14.698-3.495-29.416-7.561-43.746-12.086    c-5.243-1.656-8.767-6.103-8.767-11.066V99.5c0-4.96,3.522-9.407,8.766-11.066c62.698-19.837,128.045-29.733,194.145-29.355    c63.781,0.346,126.779,10.223,187.245,29.358c5.237,1.658,8.756,6.103,8.756,11.062v193.506c0,4.963-3.524,9.41-8.77,11.067    c-19.708,6.222-39.961,11.506-60.362,15.783c-0.074-10.564-7.185-19.482-16.87-22.298V161.076    c0-18.449-15.008-33.457-33.457-33.457H176.003c-18.449,0-33.457,15.009-33.457,33.457v136.481    c-9.736,2.831-16.875,11.827-16.875,22.465v0.574c0,10.777,7.327,19.871,17.26,22.574l4.233,23.54    c-40.874-6.31-81.337-16.191-120.428-29.434c-7.015-2.376-11.727-8.954-11.727-16.367V71.617c0-7.408,4.713-13.985,11.725-16.366    c75.383-25.592,153.876-38.34,233.42-37.87c76.681,0.447,152.423,13.189,225.124,37.874c7.007,2.379,11.714,8.954,11.714,16.362    V320.908z"/>
	</g>
</g>
<g>
</g>
<g>
</g>
<g>
</g>
<g>
</g>
<g>
</g>
<g>
</g>
<g>
</g>
<g>
</g>
<g>
</g>
<g>
</g>
<g>
</g>
<g>
</g>
<g>
</g>
<g>
</g>
<g>
</g>
</svg>
