<?xml version="1.0" encoding="iso-8859-1"?>
<!-- Generator: Adobe Illustrator 19.0.0, SVG Export Plug-In . SVG Version: 6.00 Build 0)  -->
<svg xmlns="http://www.w3.org/2000/svg" xmlns:xlink="http://www.w3.org/1999/xlink" version="1.1" id="Layer_1" x="0px" y="0px" viewBox="0 0 511.998 511.998" style="enable-background:new 0 0 511.998 511.998;" xml:space="preserve">
<g>
	<g>
		<path d="M426.503,40.691c-0.366-0.477-0.786-0.908-1.254-1.285C401.438,15.105,368.277,0,331.648,0    c-38.463,0-73.109,16.651-97.113,43.122c-0.514,0.44-0.956,0.946-1.328,1.496c-14.741,16.759-25.285,37.295-29.96,59.952    c-0.017,0.073-0.04,0.143-0.055,0.217c-0.014,0.069-0.018,0.137-0.03,0.205c-1.712,8.44-2.614,17.17-2.614,26.107    c0,20.467,4.718,39.852,13.118,57.13c0.187,0.51,0.432,0.997,0.724,1.455c12.321,24.561,32.132,44.736,56.421,57.515H76.413    c-14.98,0-27.168,12.187-27.168,27.167v1.486c0,13.048,9.248,23.974,21.532,26.576l36.551,203.281    c0.732,4.077,4.633,6.783,8.709,6.055c4.077-0.733,6.787-4.632,6.055-8.709l-6.599-36.702l35.385-35.385l51.943,51.943    l-16.284,16.284c-2.929,2.929-2.929,7.678,0,10.606c1.465,1.464,3.385,2.197,5.304,2.197s3.839-0.732,5.304-2.197l16.284-16.284    l16.284,16.284c1.465,1.465,3.384,2.197,5.304,2.197c1.919,0,3.839-0.732,5.304-2.197c2.929-2.929,2.929-7.678,0-10.606    l-16.284-16.284l51.943-51.943l35.389,35.389l-6.599,36.698c-0.732,4.077,1.978,7.976,6.055,8.709    c0.449,0.081,0.896,0.12,1.336,0.12c3.561,0,6.721-2.546,7.373-6.174l36.739-204.325c10.42-3.803,17.88-13.812,17.88-25.532    v-1.486c0-6.558-2.335-12.58-6.218-17.279c13.591-3.92,26.279-9.986,37.677-17.803c0.518-0.273,1.002-0.611,1.449-1.005    c27.969-19.737,47.899-50.131,53.842-85.224c0.079-0.338,0.138-0.679,0.17-1.024c1.099-6.819,1.679-13.809,1.679-20.933    C462.749,96.083,448.95,64.23,426.503,40.691z M300.809,19.166c-7.612,9.056-12.209,20.726-12.209,33.453    c0,8.649,2.132,16.806,5.879,23.992c-8.011,5.594-15.622,11.718-22.779,18.316c-8.775-14.301-16.606-29.186-23.41-44.55    C262.509,35.697,280.558,24.752,300.809,19.166z M237.597,63.114c6.836,14.709,14.554,28.955,23.123,42.683    c-4.023,4.271-7.871,8.701-11.536,13.276c-1.246-1.62-2.581-3.181-4.025-4.66c-6.999-7.168-15.806-12.092-25.396-14.331    C223.498,86.623,229.603,74.142,237.597,63.114z M215.549,131.1c0-5.541,0.399-10.991,1.154-16.327    c9.706,2.401,17.947,8.695,22.982,17.073c-7.295,10.601-13.646,21.846-18.954,33.582    C217.364,154.575,215.549,143.045,215.549,131.1z M228.887,185.079c4.28-11.679,9.654-22.923,16.006-33.582    c-0.571,31.376,8.152,51.816,17.714,69.22c1.203,2.189,2.556,4.365,4.008,6.513C250.838,216.522,237.829,202.033,228.887,185.079z     M86.124,303.021h46.112l-39.084,39.085L86.124,303.021z M112.259,448.373L99.978,380.07l40.292,40.292L112.259,448.373z     M150.877,409.756l-52.08-52.081l51.943-51.943l52.08,52.081L150.877,409.756z M169.243,303.021h88.368l-44.184,44.184    L169.243,303.021z M314.599,448.377l-28.015-28.015l40.298-40.298L314.599,448.377z M275.977,409.755l-39.054-39.054    c-2.93-2.929-7.678-2.929-10.607,0c-2.929,2.929-2.929,7.678,0,10.606l39.054,39.054l-51.943,51.943l-51.943-51.943l114.63-114.63    l51.943,51.943L275.977,409.755z M333.707,342.11l-39.09-39.089h46.118L333.707,342.11z M359.15,275.853    c0,6.709-5.459,12.168-12.168,12.168H77.155h-0.742c-6.709,0-12.168-5.458-12.168-12.168v-1.486    c0-6.709,5.459-12.167,12.168-12.167h270.569c6.709,0,12.168,5.458,12.168,12.167V275.853z M331.648,247.2    c-10.799,0-21.257-1.488-31.184-4.259c-8.238-7.648-18.747-18.597-24.71-29.448c-8.165-14.859-16.794-33.267-15.817-63.78    c0.005-0.152,0.005-0.305,0.001-0.458c-0.159-5.447-1.171-10.764-2.943-15.797c3.822-5.088,7.885-9.996,12.168-14.71    c9.539,14.029,19.981,27.48,31.318,40.269c25.475,28.737,54.786,53.481,87.241,73.714    C371.088,241.945,351.972,247.2,331.648,247.2z M401.647,223.662c-48.59-29.092-90.313-69.021-121.713-115.898    c7.276-6.883,15.068-13.239,23.319-18.987c9.475,9.802,22.743,15.915,37.42,15.915c0.152,0,0.306-0.005,0.458-0.014    c30.471-1.857,49.122,6.228,64.212,13.956c16.864,8.638,34.253,27.838,40.241,34.808    C440.005,181.941,423.97,206.739,401.647,223.662z M447.718,133.508c-9.013-9.33-22.138-21.362-35.538-28.226    c-18.051-9.246-39.234-17.528-71.724-15.591c-20.343-0.117-36.857-16.703-36.857-37.072c0-20.442,16.631-37.072,37.073-37.072    c1.606,0,3.221,0.103,4.796,0.307c0.253,0.033,0.505,0.052,0.756,0.059c20.556,2.586,39.453,10.569,55.231,22.478    c-26.924,2.051-52.85,9.016-77.271,20.813c-3.729,1.802-5.292,6.286-3.49,10.016c1.294,2.678,3.971,4.239,6.759,4.239    c1.094,0,2.205-0.241,3.257-0.749c27.111-13.098,56.223-19.803,86.539-19.96c18.931,20.666,30.5,48.18,30.5,78.348    C447.749,131.905,447.735,132.707,447.718,133.508z"/>
	</g>
</g>
<g>
	<g>
		<path d="M177.06,113.536h-10.981c-29.822,0-54.084,24.262-54.084,54.083v31.695l-13.609-13.61c-2.93-2.929-7.678-2.93-10.607,0    c-2.929,2.929-2.929,7.678,0,10.606l26.411,26.414c1.407,1.407,3.314,2.197,5.304,2.197s3.896-0.79,5.304-2.197l26.414-26.414    c2.929-2.929,2.929-7.678,0-10.606c-2.929-2.928-7.677-2.93-10.607,0l-13.61,13.61v-31.695c0-21.551,17.533-39.083,39.084-39.083    h10.981c4.143,0,7.5-3.358,7.5-7.5C184.56,116.894,181.203,113.536,177.06,113.536z"/>
	</g>
</g>
<g>
</g>
<g>
</g>
<g>
</g>
<g>
</g>
<g>
</g>
<g>
</g>
<g>
</g>
<g>
</g>
<g>
</g>
<g>
</g>
<g>
</g>
<g>
</g>
<g>
</g>
<g>
</g>
<g>
</g>
</svg>
