<?xml version="1.0" encoding="iso-8859-1"?>
<!-- Generator: Adobe Illustrator 19.0.0, SVG Export Plug-In . SVG Version: 6.00 Build 0)  -->
<svg xmlns="http://www.w3.org/2000/svg" xmlns:xlink="http://www.w3.org/1999/xlink" version="1.1" id="Layer_1" x="0px" y="0px" viewBox="0 0 511.999 511.999" style="enable-background:new 0 0 511.999 511.999;" xml:space="preserve">
<g>
	<g>
		<path d="M412.608,347.807l-55.957-13.961c-21.882-5.46-37.942-23.266-41.345-45.164c28.632-17.988,48.226-49.087,50.294-84.815    h7.529c11.608,0,21.051-9.444,21.051-21.051v-32.367c0-11.608-9.444-21.051-21.051-21.051h-7.341v-19.609v-2.283    C365.787,48.227,317.561,0,258.282,0h-4.566c-59.278,0-107.505,48.227-107.505,107.505v2.283v19.609h-7.341    c-11.608,0-21.051,9.444-21.051,21.051v32.367c0,11.608,9.444,21.051,21.051,21.051h7.53    c1.995,34.459,20.287,64.617,47.272,82.855c-2.419,22.955-18.979,42.297-41.711,47.969l-52.57,13.116    c-35.376,8.827-60.083,40.455-60.083,76.916v62.376c0,13.73,11.171,24.901,24.901,24.901h38.525h306.531h38.525    c13.73,0,24.901-11.171,24.901-24.901v-62.376C472.691,388.263,447.984,356.634,412.608,347.807z M365.787,158.903v-14.476h7.341    c3.32,0,6.022,2.702,6.022,6.022v32.367c0,3.32-2.702,6.022-6.022,6.022h-7.341V158.903z M146.211,159.481v29.357h-7.341    c-3.321,0-6.022-2.702-6.022-6.022v-32.367c0-3.32,2.702-6.022,6.022-6.022h7.341V159.481z M161.24,136.912v-27.124    c0-52.25,42.509-94.759,94.759-94.759s94.759,42.509,94.759,94.759v27.124v13.509c-8.691-2.715-15.017-10.841-15.017-20.415    v-15.931c0-9.152-4.07-17.716-11.165-23.497c-7.095-5.781-16.308-8.037-25.269-6.186l-30.17,6.226    c-9.102,1.878-18.331,1.878-27.432,0l-30.17-6.226c-8.963-1.85-18.173,0.406-25.268,6.186    c-7.095,5.78-11.165,14.345-11.165,23.497v16.509c0,9.413-5.7,17.225-13.862,20.148V136.912z M161.24,197.588v-1.236v-30.085    c16.462-3.373,28.891-18.09,28.891-35.683v-16.509c0-4.614,2.051-8.931,5.629-11.845c3.576-2.914,8.219-4.049,12.738-3.118    l30.17,6.226c11.115,2.293,22.388,2.293,33.507,0l30.17-6.226c4.519-0.931,9.161,0.204,12.739,3.118    c3.577,2.914,5.628,7.232,5.628,11.845v15.931c0,17.905,12.995,32.823,30.046,35.843v30.503v1.236    c0,50.991-41.484,92.476-92.476,92.476h-4.566C202.725,290.064,161.24,248.579,161.24,197.588z M102.733,442.087    c-4.15,0-7.515,3.364-7.515,7.515v47.368h-31.01c-5.443,0.001-9.872-4.428-9.872-9.871v-62.376    c0-29.548,20.023-55.181,48.692-62.334l30.275-7.554v56.682C133.303,428.373,119.589,442.087,102.733,442.087z M401.75,496.968    H110.248v-40.469c21.582-3.592,38.085-22.395,38.085-44.98v-60.432l7.266-1.813c0.923-0.23,1.839-0.481,2.749-0.748    c0.287-0.084,0.568-0.178,0.853-0.265c0.625-0.191,1.248-0.385,1.866-0.593c0.318-0.107,0.63-0.223,0.946-0.334    c0.58-0.205,1.159-0.412,1.734-0.632c0.318-0.122,0.632-0.25,0.948-0.376c0.364-0.145,0.732-0.282,1.093-0.434v16.985    c0,10.123,1.955,19.958,5.812,29.234c1.594,3.832,5.994,5.647,9.824,4.053c3.832-1.593,5.647-5.992,4.054-9.824    c-3.092-7.437-4.66-15.331-4.66-23.463v-25.625c13.717-10.309,23.392-25.42,26.817-42.55    c13.974,6.658,29.599,10.391,46.081,10.391h4.566c15.336,0,29.928-3.235,43.141-9.047c4.086,17.743,14.816,32.983,29.758,42.816    v24.014c0,33.723-27.435,61.158-61.158,61.158h-28.048c-16.227,0-31.511-6.289-43.038-17.707    c-2.949-2.921-7.707-2.898-10.627,0.05c-2.921,2.949-2.898,7.706,0.05,10.627c14.361,14.225,33.401,22.059,53.615,22.059h28.048    c42.01,0,76.187-34.178,76.187-76.187v-16.518c0.056,0.02,0.113,0.036,0.169,0.056c0.915,0.325,1.84,0.632,2.775,0.921    c0.212,0.066,0.422,0.135,0.634,0.199c1.064,0.319,2.137,0.621,3.224,0.892l10.653,2.658v60.432    c0,22.585,16.503,41.388,38.085,44.98V496.968z M447.791,496.971H416.78v-47.368c0-4.15-3.364-7.515-7.515-7.515    c-16.856,0-30.57-13.714-30.57-30.57v-56.682l30.275,7.554c28.669,7.153,48.692,32.786,48.692,62.334v62.375h0    C457.662,492.542,453.234,496.971,447.791,496.971z"/>
	</g>
</g>
<g>
	<g>
		<path d="M241.169,152.285h-32.584c-4.15,0-7.515,3.364-7.515,7.515c0,4.15,3.364,7.515,7.515,7.515h32.584    c2.391,0,4.412,2.524,4.412,5.511v23.846c0,4.15,3.364,7.515,7.515,7.515c4.15,0,7.515-3.364,7.515-7.515v-23.846    C260.611,161.5,251.889,152.285,241.169,152.285z"/>
	</g>
</g>
<g>
	<g>
		<path d="M306.728,151.965h-22c-4.15,0-7.515,3.364-7.515,7.515c0.001,4.151,3.365,7.515,7.515,7.515h22    c4.15,0,7.515-3.364,7.515-7.515C314.243,155.33,310.878,151.965,306.728,151.965z"/>
	</g>
</g>
<g>
	<g>
		<circle cx="219.589" cy="184.31" r="7.686"/>
	</g>
</g>
<g>
	<g>
		<circle cx="295.729" cy="183.99" r="7.686"/>
	</g>
</g>
<g>
	<g>
		<path d="M280.509,212.809h-45.706c-6.47,0-11.734,5.264-11.734,11.734v2.415c0,18.738,15.245,33.983,33.983,33.983h1.208    c18.738,0,33.983-15.245,33.983-33.983v-2.415C292.243,218.073,286.979,212.809,280.509,212.809z M258.261,245.912h-1.208    c-10.157-0.001-18.474-8.03-18.935-18.073h39.076C276.732,237.883,268.416,245.912,258.261,245.912z"/>
	</g>
</g>
<g>
</g>
<g>
</g>
<g>
</g>
<g>
</g>
<g>
</g>
<g>
</g>
<g>
</g>
<g>
</g>
<g>
</g>
<g>
</g>
<g>
</g>
<g>
</g>
<g>
</g>
<g>
</g>
<g>
</g>
</svg>
