<?xml version="1.0" encoding="iso-8859-1"?>
<!-- Generator: Adobe Illustrator 19.0.0, SVG Export Plug-In . SVG Version: 6.00 Build 0)  -->
<svg xmlns="http://www.w3.org/2000/svg" xmlns:xlink="http://www.w3.org/1999/xlink" version="1.1" id="Layer_1" x="0px" y="0px" viewBox="0 0 512 512" style="enable-background:new 0 0 512 512;" xml:space="preserve">
<g>
	<g>
		<path d="M351.216,121.094V24.708C351.216,11.084,340.132,0,326.508,0H185.492c-13.624,0-24.708,11.084-24.708,24.708v96.234    c-8.874,6.297-17.207,13.522-24.879,21.643c-2.844,3.011-2.709,7.758,0.302,10.603c3.009,2.843,7.756,2.709,10.603-0.302    c7.642-8.089,16.007-15.199,24.948-21.293c0.514-0.269,0.991-0.597,1.426-0.973c24.301-16.153,52.792-24.803,82.816-24.803    c82.812,0,150.184,67.372,150.184,150.184S338.812,406.184,256,406.184S105.816,338.812,105.816,256    c0-28.905,8.228-56.969,23.794-81.158c2.242-3.483,1.235-8.124-2.248-10.365c-3.483-2.243-8.125-1.236-10.365,2.248    C99.869,193.34,90.816,224.21,90.816,256c0,55.653,27.668,104.963,69.968,134.906v96.386c0,13.624,11.084,24.708,24.708,24.708    h141.016c13.624,0,24.708-11.084,24.708-24.708v-96.386c42.3-29.943,69.968-79.253,69.968-134.906    S393.517,151.037,351.216,121.094z M336.216,111.646c-23.767-13.26-51.122-20.83-80.216-20.83    c-28.643,0-56.017,7.159-80.216,20.651V24.708c0-5.354,4.355-9.708,9.708-9.708h141.016c5.353,0,9.708,4.354,9.708,9.708V111.646z     M336.216,487.292c0,5.354-4.355,9.708-9.708,9.708H185.492c-5.353,0-9.708-4.354-9.708-9.708v-86.938    c23.767,13.26,51.122,20.83,80.216,20.83s56.449-7.571,80.216-20.83V487.292z"/>
	</g>
</g>
<g>
	<g>
		<path d="M256,130.691c-69.096,0-125.309,56.213-125.309,125.309S186.904,381.309,256,381.309c27.214,0,53.097-8.577,74.852-24.804    c3.32-2.477,4.004-7.176,1.527-10.496c-2.477-3.318-7.174-4.003-10.496-1.527c-19.144,14.279-41.926,21.827-65.883,21.827    c-60.824,0-110.309-49.484-110.309-110.309c0-60.825,49.485-110.309,110.309-110.309c60.824,0,110.309,49.485,110.309,110.309    c0,25.543-8.931,50.443-25.146,70.115c-2.636,3.197-2.181,7.923,1.016,10.558c3.196,2.634,7.922,2.18,10.558-1.017    c18.425-22.352,28.572-50.641,28.572-79.656C381.309,186.904,325.096,130.691,256,130.691z"/>
	</g>
</g>
<g>
	<g>
		<path d="M271.51,222.236c-5.499,0-10.84,1.466-15.51,4.202c-4.67-2.736-10.011-4.202-15.51-4.202    c-16.932,0-30.706,13.774-30.706,30.706c0,30.989,40.895,53.565,42.635,54.511c1.12,0.608,2.352,0.91,3.581,0.91    c1.444,0,2.886-0.417,4.136-1.243c4.308-2.848,42.08-28.559,42.08-54.178C302.216,236.01,288.442,222.236,271.51,222.236z     M255.674,291.963c-11.24-7.079-30.89-22.82-30.89-39.021c0-8.66,7.046-15.706,15.706-15.706c3.884,0,7.61,1.429,10.495,4.022    c2.852,2.564,7.178,2.564,10.029,0c2.885-2.594,6.611-4.022,10.495-4.022c8.661,0,15.707,7.046,15.707,15.706    C287.216,265.048,269.21,282.167,255.674,291.963z"/>
	</g>
</g>
<g>
</g>
<g>
</g>
<g>
</g>
<g>
</g>
<g>
</g>
<g>
</g>
<g>
</g>
<g>
</g>
<g>
</g>
<g>
</g>
<g>
</g>
<g>
</g>
<g>
</g>
<g>
</g>
<g>
</g>
</svg>
