<?xml version="1.0" encoding="iso-8859-1"?>
<!-- Generator: Adobe Illustrator 19.0.0, SVG Export Plug-In . SVG Version: 6.00 Build 0)  -->
<svg xmlns="http://www.w3.org/2000/svg" xmlns:xlink="http://www.w3.org/1999/xlink" version="1.1" id="Layer_1" x="0px" y="0px" viewBox="0 0 512 512" style="enable-background:new 0 0 512 512;" xml:space="preserve">
<g>
	<g>
		<path d="M491.78,195.188c-4.143,0-7.5,3.357-7.5,7.5v42.566H339.015v-75.413c0-17.421,6.965-34.098,18.632-44.609l16.321-14.708    c12.144-10.939,19.107-27.375,19.107-45.092v-9.051h37.145v9.051c0,17.717,6.964,34.151,19.105,45.091l16.323,14.71    c11.667,10.512,18.632,27.188,18.632,44.608c0,4.143,3.357,7.5,7.5,7.5s7.5-3.357,7.5-7.5c0-21.923-8.599-42.244-23.591-55.752    l-16.323-14.71c-8.858-7.98-14.146-20.671-14.146-33.947v-9.63c2.706-1.132,4.607-3.803,4.607-6.92V7.5c0-4.143-3.357-7.5-7.5-7.5    h-61.582c-4.143,0-7.5,3.357-7.5,7.5v41.382c0,3.201,2.008,5.925,4.83,7.002v9.549c0,13.276-5.289,25.967-14.147,33.948    l-16.322,14.708c-14.992,13.508-23.591,33.829-23.591,55.753v113.483h-21.788c-2.069-11.848-12.421-20.886-24.852-20.886H164.796    c-13.055,0-24.073,8.863-27.372,20.886H103.08c-4.143,0-7.5,3.357-7.5,7.5s3.357,7.5,7.5,7.5h40.831h19.153v38.419h-63.51    c-4.143,0-7.5,3.357-7.5,7.5s3.357,7.5,7.5,7.5h63.51v38.418H73.638c-25.319,0-45.919-20.599-45.919-45.918    c0-25.319,20.6-45.919,45.919-45.919c4.143,0,7.5-3.357,7.5-7.5s-3.357-7.5-7.5-7.5c-33.591,0-60.919,27.328-60.919,60.919    c0,22.995,12.811,43.051,31.668,53.418c-18.857,10.367-31.668,30.423-31.668,53.419c0,33.591,27.328,60.919,60.919,60.919h395.968    c16.362,0,29.674-14.991,29.674-33.419v-86.579V252.755v-50.066C499.28,198.546,495.923,195.188,491.78,195.188z M388.245,15    h46.582v26.382h-46.582V15z M339.41,298.325c10.592,0,19.209,8.617,19.209,19.209c0,10.593-8.617,19.21-19.209,19.21h-26.709    h-10.092v-38.419H339.41z M153.715,283.325c2.409-3.55,6.478-5.886,11.081-5.886h112.578c5.644,0,10.235,4.592,10.235,10.236    v115.578c0,4.922-4.004,8.926-8.926,8.926H186.99c-4.922,0-8.926-4.004-8.926-8.926V290.825c0-4.143-3.357-7.5-7.5-7.5H153.715z     M345.839,495.87c-0.694,0.105-1.368,0.305-2.002,0.595c-1.424,0.338-2.9,0.535-4.426,0.535H73.638    c-25.319,0-45.919-20.6-45.919-45.919c0-25.319,20.6-45.919,45.919-45.919h89.509c0.977,12.303,11.293,22.018,23.843,22.018    h91.693c13.192,0,23.926-10.733,23.926-23.926v-51.51h10.092c25.319,0,45.918,20.599,45.918,45.919    c0.003,25.315-20.597,45.915-45.918,45.918h-209.62c-4.143,0-7.5,3.357-7.5,7.5s3.357,7.5,7.5,7.5h209.621h26.708    c10.592,0,19.209,8.617,19.209,19.21C358.62,486.126,353.274,493.218,345.839,495.87z M484.28,478.581    c0,10.156-6.583,18.419-14.674,18.419H367.701c3.732-5.48,5.918-12.093,5.918-19.209c0-15-9.708-27.767-23.168-32.371    c13.649-10.811,22.559-27.329,23.115-45.918H484.28V478.581z M484.28,384.502H372.166c-3.08-13.904-10.912-26.04-21.714-34.597    c13.459-4.604,23.167-17.371,23.167-32.371c0-18.863-15.346-34.209-34.209-34.209h-0.396v-23.07h0.001H484.28V384.502z"/>
	</g>
</g>
<g>
	<g>
		<path d="M414.082,283.122c-1.425-1.737-3.553-2.745-5.8-2.745c-2.247,0-4.375,1.008-5.8,2.745    c-4.44,5.416-26.594,33.227-26.594,48.864c0.001,17.862,14.532,32.393,32.394,32.393c17.861,0,32.393-14.531,32.393-32.393    C440.675,316.348,418.523,288.538,414.082,283.122z M408.282,349.379c-9.591,0-17.394-7.803-17.394-17.393    c0.001-5.641,8.235-19.556,17.394-31.904c9.158,12.348,17.393,26.263,17.393,31.904    C425.675,341.576,417.872,349.379,408.282,349.379z"/>
	</g>
</g>
<g>
</g>
<g>
</g>
<g>
</g>
<g>
</g>
<g>
</g>
<g>
</g>
<g>
</g>
<g>
</g>
<g>
</g>
<g>
</g>
<g>
</g>
<g>
</g>
<g>
</g>
<g>
</g>
<g>
</g>
</svg>
