<?xml version="1.0" encoding="iso-8859-1"?>
<!-- Generator: Adobe Illustrator 19.0.0, SVG Export Plug-In . SVG Version: 6.00 Build 0)  -->
<svg xmlns="http://www.w3.org/2000/svg" xmlns:xlink="http://www.w3.org/1999/xlink" version="1.1" id="Layer_1" x="0px" y="0px" viewBox="0 0 512 512" style="enable-background:new 0 0 512 512;" xml:space="preserve">
<g>
	<g>
		<path d="M471.767,48.197h-22.292c-4.142,0-7.5,3.357-7.5,7.5s3.358,7.5,7.5,7.5h22.292c13.914,0,25.233,11.319,25.233,25.232    c0,13.914-11.319,25.233-25.233,25.233H40.233C26.319,113.662,15,102.343,15,88.429c0-13.913,11.319-25.232,25.233-25.232h377.881    c4.142,0,7.5-3.357,7.5-7.5s-3.358-7.5-7.5-7.5H40.233C18.048,48.196,0,66.244,0,88.429c0,20.019,14.699,36.665,33.87,39.725    l59.208,329.29c0.733,4.077,4.633,6.782,8.709,6.055c4.077-0.733,6.788-4.632,6.055-8.709L96.84,393.602l61.622-61.622    l89.705,89.705L218.85,451c-2.929,2.93-2.929,7.678,0,10.607c1.464,1.464,3.384,2.196,5.303,2.196s3.839-0.732,5.303-2.196    l29.317-29.317l29.317,29.317c1.464,1.464,3.384,2.196,5.303,2.196s3.839-0.732,5.303-2.196c2.929-2.93,2.929-7.678,0-10.607    l-29.316-29.316l89.556-89.556l61.777,61.487l-11,61.174c-0.733,4.077,1.978,7.976,6.055,8.709    c0.449,0.08,0.896,0.119,1.336,0.119c3.561,0,6.721-2.546,7.373-6.174l59.456-330.666C500.189,121.608,512,106.374,512,88.429    C512,66.244,493.952,48.197,471.767,48.197z M340.564,128.662l-82.201,82.201l-82.589-82.201H340.564z M49.202,128.662h90.297    l-76.536,76.535L49.202,128.662z M93.606,375.62L69.821,243.338l78.033,78.033L93.606,375.62z M158.461,310.764l-89.926-89.926    l89.083-89.083l90.138,89.714L158.461,310.764z M423.941,375.664l-54.398-54.143l78.193-78.193L423.941,375.664z M358.911,310.939    l-73.294-72.95c-2.936-2.923-7.684-2.911-10.607,0.024c-2.922,2.936-2.911,7.685,0.025,10.606l73.27,72.926l-89.532,89.532    l-89.705-89.705l190.237-190.238l89.706,89.705L358.911,310.939z M454.591,205.205l-76.543-76.543h90.306L454.591,205.205z"/>
	</g>
</g>
<g>
</g>
<g>
</g>
<g>
</g>
<g>
</g>
<g>
</g>
<g>
</g>
<g>
</g>
<g>
</g>
<g>
</g>
<g>
</g>
<g>
</g>
<g>
</g>
<g>
</g>
<g>
</g>
<g>
</g>
</svg>
