<?xml version="1.0" encoding="iso-8859-1"?>
<!-- Generator: Adobe Illustrator 19.0.0, SVG Export Plug-In . SVG Version: 6.00 Build 0)  -->
<svg xmlns="http://www.w3.org/2000/svg" xmlns:xlink="http://www.w3.org/1999/xlink" version="1.1" id="Layer_1" x="0px" y="0px" viewBox="0 0 512 512" style="enable-background:new 0 0 512 512;" xml:space="preserve">
<g>
	<g>
		<path d="M367.281,0c-17.473,0-31.688,14.215-31.688,31.689v3.668c0,8.107-1.325,16.065-3.939,23.652    c-1.352,3.925,0.733,8.202,4.657,9.553c3.923,1.354,8.201-0.733,9.552-4.657c3.158-9.166,4.759-18.771,4.759-28.548v-3.668    c0-9.186,7.473-16.659,16.659-16.659c9.186,0,16.659,7.474,16.659,16.659v205.378c0,9.186-7.474,16.659-16.659,16.659    s-16.659-7.474-16.659-16.659c0-48.302-39.297-87.599-87.599-87.599H131.111H85.662h-18.05v-26.512h195.41    c24.109,0,47.4-10.089,63.902-27.681c2.839-3.026,2.687-7.783-0.34-10.621c-3.028-2.841-7.782-2.688-10.622,0.34    c-13.872,14.789-32.674,22.933-52.94,22.933H66.509C62.928,94.901,50.987,85.301,36.84,85.301    c-16.968,0-30.772,13.804-30.772,30.772v36.61c0,16.967,13.804,30.771,30.772,30.771c12.783,0,23.768-7.837,28.41-18.957h12.897    v21.433h-7.504c-22.783,0-41.318,18.535-41.318,41.317V427.79c0,4.151,3.364,7.515,7.515,7.515s7.515-3.364,7.515-7.515V227.248    c0-14.495,11.793-26.288,26.288-26.288h15.019h45.449h16.616c14.496,0,26.289,11.793,26.289,26.288v268.767    c0,0.527-0.429,0.956-0.956,0.956H45.311c-0.527,0-0.956-0.429-0.956-0.956v-39.464c0-4.151-3.364-7.515-7.515-7.515    s-7.515,3.364-7.515,7.515v39.464c0,8.814,7.171,15.985,15.986,15.985H173.06c8.815,0,15.986-7.171,15.986-15.985V227.248    c0-22.782-18.535-41.317-41.318-41.317h-9.102v-21.433h124.397c40.015,0,72.57,32.555,72.57,72.569    c0,17.474,14.215,31.689,31.688,31.689c17.473,0,31.689-14.215,31.689-31.689V31.689C398.97,14.215,384.754,0,367.281,0z     M52.583,152.683c0,8.68-7.062,15.742-15.743,15.742c-8.68,0-15.742-7.062-15.742-15.742v-36.61    c0-8.681,7.062-15.743,15.742-15.743c8.681,0,15.743,7.062,15.743,15.743V152.683z M123.596,185.931h-30.42v-21.433h30.42V185.931    z"/>
	</g>
</g>
<g>
	<g>
		<path d="M498.417,129.098h-37.122c-4.15,0-7.515,3.364-7.515,7.515s3.364,7.515,7.515,7.515h37.122    c4.15,0,7.515-3.364,7.515-7.515S502.567,129.098,498.417,129.098z"/>
	</g>
</g>
<g>
	<g>
		<path d="M476.983,181.6l-26.251-26.25c-2.934-2.933-7.693-2.933-10.627,0c-2.935,2.935-2.935,7.693,0,10.628l26.25,26.25    c1.467,1.467,3.39,2.201,5.314,2.201c1.924,0,3.846-0.734,5.314-2.201C479.918,189.293,479.918,184.535,476.983,181.6z"/>
	</g>
</g>
<g>
	<g>
		<path d="M476.983,77.695c-2.934-2.933-7.693-2.933-10.627,0l-26.25,26.25c-2.935,2.935-2.935,7.693,0,10.628    c1.466,1.467,3.39,2.201,5.313,2.201c1.923,0,3.846-0.734,5.314-2.201l26.25-26.25C479.918,85.388,479.918,80.63,476.983,77.695z"/>
	</g>
</g>
<g>
	<g>
		<path d="M109.451,316.596c-26.659,0-48.347,21.689-48.347,48.347c0,26.659,21.688,48.347,48.347,48.347    s48.348-21.688,48.348-48.347S136.11,316.596,109.451,316.596z M109.452,398.261c-18.371,0-33.318-14.946-33.318-33.318    s14.946-33.318,33.318-33.318s33.318,14.946,33.318,33.318S127.823,398.261,109.452,398.261z"/>
	</g>
</g>
<g>
	<g>
		<circle cx="109.19" cy="364.94" r="7.989"/>
	</g>
</g>
<g>
</g>
<g>
</g>
<g>
</g>
<g>
</g>
<g>
</g>
<g>
</g>
<g>
</g>
<g>
</g>
<g>
</g>
<g>
</g>
<g>
</g>
<g>
</g>
<g>
</g>
<g>
</g>
<g>
</g>
</svg>
