<?xml version="1.0" encoding="iso-8859-1"?>
<!-- Generator: Adobe Illustrator 19.0.0, SVG Export Plug-In . SVG Version: 6.00 Build 0)  -->
<svg xmlns="http://www.w3.org/2000/svg" xmlns:xlink="http://www.w3.org/1999/xlink" version="1.1" id="Layer_1" x="0px" y="0px" viewBox="0 0 512 512" style="enable-background:new 0 0 512 512;" xml:space="preserve">
<g>
	<g>
		<circle cx="225.12" cy="79.641" r="7.701"/>
	</g>
</g>
<g>
	<g>
		<circle cx="256.16" cy="79.641" r="7.701"/>
	</g>
</g>
<g>
	<g>
		<circle cx="286.19" cy="79.641" r="7.701"/>
	</g>
</g>
<g>
	<g>
		<path d="M491.021,367.04H346.5v-14.451c0-4.143-3.357-7.5-7.5-7.5s-7.5,3.357-7.5,7.5v21.951v82.899H181V297.619    c0-3.297,2.682-5.979,5.979-5.979h7.803h122.756h7.984c3.297,0,5.979,2.682,5.979,5.979v28.099c0,4.143,3.357,7.5,7.5,7.5    s7.5-3.357,7.5-7.5v-28.099c0-11.567-9.411-20.979-20.979-20.979h-0.484v-2.566c0-20.116-14.73-36.849-33.969-39.999v-2.38    c0-10.482-6.518-19.464-15.711-23.125v-23.229c20.639-6.024,37.278-21.49,44.91-41.395c6.124-1.721,15.053-4.635,23.644-11.312    c17.362-13.494,24.28-29.891,24.348-30.054c7.469-18.049,7.676-33.382,0.615-45.574c-5.666-9.781-15.499-15.167-27.689-15.167    c-7.524,0-14.404,2.791-19.675,7.384c-3.71-5.799-10.193-9.662-17.573-9.662h-59.489c-4.143,0-7.5,3.358-7.5,7.5    c0,4.142,3.357,7.5,7.5,7.5h59.489c3.234,0,5.865,2.631,5.865,5.865v59.023c0,29.186-23.432,52.985-52.47,53.614h-2.348    c-29.038-0.629-52.471-24.428-52.471-53.614V60.428c0-3.234,2.631-5.865,5.865-5.865h9.043c4.143,0,7.5-3.358,7.5-7.5    c0-4.142-3.357-7.5-7.5-7.5h-9.043c-7.48,0-14.034,3.97-17.718,9.9c-5.293-4.683-12.242-7.533-19.848-7.533    c-12.19,0-22.023,5.386-27.689,15.167c-7.061,12.191-6.854,27.524,0.614,45.572c0.068,0.164,6.986,16.561,24.349,30.055    c8.78,6.823,17.909,9.716,24.04,11.422c7.91,20.437,25.318,36.181,46.794,41.755v21.981    c-10.214,3.099-17.672,12.601-17.672,23.815v2.38c-19.239,3.15-33.969,19.882-33.969,39.999v2.566h-0.303    c-11.567,0-20.979,9.411-20.979,20.979v22.897H20.979C9.411,320.517,0,329.928,0,341.496v123.443c0,4.143,3.357,7.5,7.5,7.5h497    c4.143,0,7.5-3.357,7.5-7.5v-76.921C512,376.451,502.589,367.04,491.021,367.04z M324.803,119.451V96.935    c4.713,3.086,10.34,4.889,16.383,4.889c4.143,0,7.5-3.358,7.5-7.5c0-4.142-3.357-7.5-7.5-7.5c-8.267,0-14.992-6.725-14.992-14.992    c-0.001-8.266,6.725-14.991,14.992-14.991c6.902,0,11.714,2.514,14.709,7.685c4.662,8.05,4.174,18.623-1.495,32.321    c-0.053,0.127-5.887,13.215-19.692,23.944c-3.437,2.671-6.951,4.541-10.294,5.937    C324.667,124.336,324.803,121.909,324.803,119.451z M177.293,120.879c-13.806-10.729-19.64-23.817-19.693-23.945    c-5.668-13.698-6.156-24.27-1.494-32.32c2.995-5.171,7.807-7.686,14.709-7.686c8.267,0,14.992,6.725,14.992,14.991    c0,8.267-6.726,14.992-14.992,14.992c-4.143,0-7.5,3.358-7.5,7.5c0,4.142,3.357,7.5,7.5,7.5c6.177,0,11.924-1.878,16.7-5.092    v22.632c0,2.539,0.149,5.042,0.419,7.511C184.488,125.552,180.849,123.642,177.293,120.879z M253.921,188.064h1.063    c0.393,0.007,0.781,0.03,1.175,0.03c0.394,0,0.782-0.023,1.174-0.03h3.024v18.747h-6.436V188.064z M236.25,231.697    c0-5.45,4.434-9.884,9.884-9.884h0.288h19.762c5.45,0,9.885,4.434,9.885,9.884v1.839H236.25V231.697z M202.281,274.074    c0-14.082,11.457-25.539,25.539-25.539h0.93h54.818h0.93c14.082,0,25.539,11.457,25.539,25.539v2.566H202.281V274.074z     M165.5,457.439H15V341.496c0-3.297,2.682-5.979,5.979-5.979H165.5V457.439z M497,457.439H346.5V382.04h144.521    c3.297,0,5.979,2.682,5.979,5.979V457.439z"/>
	</g>
</g>
<g>
	<g>
		<path d="M269.233,331.255c-0.001-1.395-0.697-2.555-2.087-3.484c0.346,0.23,0.682,0.454-0.009-0.007    c-0.695-0.462-0.353-0.234-0.006-0.003c-1.394-0.926-2.945-1.39-4.647-1.389c-1.164,0.001-2.211,0.39-3.14,1.164l-13.72,10.478    c-1.938,1.243-2.906,3.066-2.904,5.469c0.001,1.553,0.467,2.947,1.397,4.187c0.932,1.241,2.096,1.86,3.492,1.859    c1.085,0,2.015-0.35,2.791-1.048l3.72-3.725l0.038,62.113c0.002,3.68,4.654,4.77,7.564,4.766c2.88-0.004,7.56-1.137,7.558-4.774    L269.233,331.255z"/>
	</g>
</g>
<g>
</g>
<g>
</g>
<g>
</g>
<g>
</g>
<g>
</g>
<g>
</g>
<g>
</g>
<g>
</g>
<g>
</g>
<g>
</g>
<g>
</g>
<g>
</g>
<g>
</g>
<g>
</g>
<g>
</g>
</svg>
