<?xml version="1.0" encoding="iso-8859-1"?>
<!-- Generator: Adobe Illustrator 19.0.0, SVG Export Plug-In . SVG Version: 6.00 Build 0)  -->
<svg xmlns="http://www.w3.org/2000/svg" xmlns:xlink="http://www.w3.org/1999/xlink" version="1.1" id="Layer_1" x="0px" y="0px" viewBox="0 0 512 512" style="enable-background:new 0 0 512 512;" xml:space="preserve">
<g>
	<g>
		<path d="M504.5,217.703c4.142,0,7.5-3.358,7.5-7.5v-69.841c0-10.684-8.692-19.375-19.375-19.375h-92.812c-0.002,0-0.005,0-0.008,0    H19.375C8.692,120.986,0,129.679,0,140.362v69.841c0,4.142,3.358,7.5,7.5,7.5c21.116,0,38.296,17.18,38.296,38.296    c0,21.116-17.18,38.295-38.296,38.295c-4.142,0-7.5,3.357-7.5,7.5v69.842c0,10.684,8.692,19.376,19.375,19.376h473.249    c10.684,0,19.375-8.692,19.375-19.376v-69.842c0-4.143-3.358-7.5-7.5-7.5c-21.116,0-38.296-17.18-38.296-38.295    C466.204,234.883,483.384,217.703,504.5,217.703z M403.518,135.986h89.107c2.412,0,4.375,1.963,4.375,4.376v6.721    c-34.693,4.465-67.483,16.216-96.554,33.832c-3.051-5.97-4.784-12.721-4.784-19.874    C395.662,151.896,398.371,143.305,403.518,135.986z M359.406,135.986h26.811c-3.654,7.73-5.556,16.201-5.556,25.055    c0,10.158,2.589,19.723,7.141,28.07c-9.863,6.821-19.227,14.345-28.016,22.51c-10.543-17.112-19.905-34.956-28.049-53.457    C339.929,149.615,349.233,142.143,359.406,135.986z M298.842,216.546c3.099-11.61,7.738-22.788,13.84-33.201    c2.534-4.324,5.319-8.486,8.308-12.489c8.186,17.822,17.472,35.041,27.841,51.584c-5.155,5.417-10.071,11.074-14.733,16.952    c-1.641-2.242-3.446-4.382-5.413-6.396C320.499,224.611,310.123,218.94,298.842,216.546z M324.52,252.294    c-9.041,13.049-16.877,27.04-23.337,41.829c-4.553-13.649-6.919-28.025-6.919-42.705c0-6.783,0.528-13.529,1.532-20.185    C308.023,233.886,318.403,241.743,324.52,252.294z M19.375,376.015c-2.412-0.002-4.375-1.965-4.375-4.378v-62.868    c25.849-3.656,45.796-25.927,45.796-52.769c0-26.842-19.947-49.114-45.796-52.77v-62.867c0-2.413,1.963-4.375,4.375-4.375h314.2    c-5.686,4.712-11.011,9.844-15.945,15.334c-0.224,0.221-0.438,0.45-0.632,0.694c-6.494,7.317-12.288,15.266-17.258,23.746    c-8.174,13.947-13.982,29.127-17.28,44.892c-0.069,0.226-0.128,0.457-0.176,0.692c-0.027,0.132-0.039,0.26-0.06,0.391    c-1.96,9.727-2.961,19.671-2.961,29.683c0,23.12,5.247,45.576,15.287,65.994c0.051,0.11,0.108,0.216,0.165,0.324    c3.161,6.389,6.778,12.583,10.868,18.527c10.891,15.826,24.55,29.247,40.262,39.75H19.375z M317.94,327.758    c-3.117-4.529-5.923-9.223-8.441-14.044c5.496-15.124,12.489-29.463,20.784-42.861c0.043,0.573,0.077,1.147,0.097,1.724    c-1.298,42.352,12.688,67.807,20.208,81.493c2.183,3.973,4.868,8.084,8.035,12.315    C342.604,356.563,328.758,343.477,317.94,327.758z M497,308.768v42.708c-22.199-14.284-43.179-30.6-62.501-48.636    c-3.028-2.826-7.775-2.664-10.6,0.364c-2.827,3.028-2.663,7.774,0.365,10.601c22.316,20.831,46.772,39.446,72.737,55.387v2.444    c0,2.413-1.963,4.376-4.375,4.376H387.15c-10.578-10.441-18.645-20.483-23.416-29.165c-9.475-17.243-19.488-38.606-18.355-74.032    c0.005-0.152,0.005-0.305,0-0.457c-0.185-6.375-1.397-12.596-3.536-18.461c4.828-6.452,9.974-12.639,15.418-18.536    c13.824,20.472,29.322,39.862,46.458,58.017c1.476,1.563,3.463,2.352,5.456,2.352c1.847,0,3.698-0.678,5.146-2.046    c3.012-2.844,3.149-7.59,0.306-10.603c-17.273-18.299-32.829-37.892-46.618-58.619c8.912-8.474,18.475-16.237,28.594-23.213    c10.74,11.448,25.987,18.621,42.886,18.621c0.153,0,0.305-0.005,0.458-0.014c8.754-0.534,17.027-0.367,24.994,0.482    c-8.53,9.452-13.737,21.957-13.737,35.662C451.204,282.841,471.151,305.112,497,308.768z M439.272,204.869    c-11.506-0.056-21.97-4.576-29.767-11.904c26.452-15.795,56.124-26.454,87.495-30.758v41.022    c-5.418,0.766-10.572,2.36-15.343,4.633C468.282,204.961,454.387,203.963,439.272,204.869z"/>
	</g>
</g>
<g>
	<g>
		<circle cx="102.41" cy="157.389" r="7.554"/>
	</g>
</g>
<g>
	<g>
		<circle cx="102.41" cy="183.91" r="7.554"/>
	</g>
</g>
<g>
	<g>
		<circle cx="102.41" cy="211.839" r="7.554"/>
	</g>
</g>
<g>
	<g>
		<circle cx="102.41" cy="239.769" r="7.554"/>
	</g>
</g>
<g>
	<g>
		<circle cx="102.41" cy="267.699" r="7.554"/>
	</g>
</g>
<g>
	<g>
		<circle cx="102.41" cy="295.639" r="7.554"/>
	</g>
</g>
<g>
	<g>
		<circle cx="102.41" cy="323.569" r="7.554"/>
	</g>
</g>
<g>
	<g>
		<circle cx="102.41" cy="351.499" r="7.554"/>
	</g>
</g>
<g>
	<g>
		<path d="M244.469,240.805c-1.363-4.196-4.924-7.197-9.29-7.832l-18.018-2.619l-8.058-16.326    c-1.952-3.957-5.906-6.415-10.318-6.415c-4.413,0-8.367,2.458-10.32,6.415l-8.058,16.327l-18.017,2.619    c-4.366,0.634-7.926,3.635-9.29,7.831c-1.364,4.196-0.249,8.717,2.912,11.797l13.038,12.708l-3.078,17.946    c-0.746,4.35,1.009,8.662,4.579,11.255c2.017,1.465,4.376,2.209,6.752,2.209c1.829,0,3.667-0.441,5.366-1.334l16.116-8.472    l16.115,8.472c3.906,2.052,8.549,1.719,12.119-0.876c3.57-2.593,5.324-6.906,4.578-11.255l-3.078-17.944l13.039-12.709    C244.717,249.522,245.832,245.001,244.469,240.805z M216.734,255.851c-2.712,2.644-3.95,6.451-3.31,10.187l2.192,12.779    l-11.475-6.032c-3.354-1.765-7.359-1.765-10.712-0.001l-11.478,6.034l2.192-12.779c0.64-3.733-0.596-7.541-3.31-10.187    l-9.285-9.051l12.831-1.864c3.75-0.544,6.989-2.897,8.666-6.295l5.738-11.627l5.738,11.625c1.676,3.399,4.917,5.753,8.666,6.297    l12.832,1.865L216.734,255.851z"/>
	</g>
</g>
<g>
</g>
<g>
</g>
<g>
</g>
<g>
</g>
<g>
</g>
<g>
</g>
<g>
</g>
<g>
</g>
<g>
</g>
<g>
</g>
<g>
</g>
<g>
</g>
<g>
</g>
<g>
</g>
<g>
</g>
</svg>
