<?xml version="1.0" encoding="iso-8859-1"?>
<!-- Generator: Adobe Illustrator 19.0.0, SVG Export Plug-In . SVG Version: 6.00 Build 0)  -->
<svg xmlns="http://www.w3.org/2000/svg" xmlns:xlink="http://www.w3.org/1999/xlink" version="1.1" id="Layer_1" x="0px" y="0px" viewBox="0 0 512 512" style="enable-background:new 0 0 512 512;" xml:space="preserve">
<g>
	<g>
		<path d="M508.528,187.47c-3.416-4.674-8.694-7.354-14.483-7.354h-35.594c-4.142,0-7.5,3.358-7.5,7.5s3.358,7.5,7.5,7.5h35.594    c1.298,0,2.044,0.755,2.373,1.205c0.324,0.444,0.808,1.363,0.443,2.575l-5.142,15.088c-0.016,0.047-0.031,0.094-0.046,0.141    c-0.39,1.224-1.516,2.046-2.8,2.046c-0.148,0-0.296,0.004-0.444,0.013l-160.233,9.508c-40.536,0.125-73.703,33.099-73.98,73.614    c-0.003,0.472-0.009,0.943-0.019,1.417c-1.125,55.712-47.395,101.163-103.144,101.319c-0.101,0-0.199,0-0.299,0    c-27.894,0-54.038-10.928-73.64-30.789c-19.669-19.929-30.253-46.339-29.806-74.365c0.436-27.313,11.574-52.917,31.363-72.098    c19.742-19.135,45.765-29.672,73.276-29.672h67.91l9.374,20.461c1.221,2.667,3.885,4.376,6.818,4.376h31.267    c2.58,0,4.978-1.326,6.35-3.509c1.373-2.184,1.526-4.92,0.408-7.244l-6.781-14.084h160.469c4.142,0,7.5-3.358,7.5-7.5    c0-4.142-3.358-7.5-7.5-7.5H255.358h-30.688h-72.723c-31.429,0-61.16,12.04-83.716,33.901c-1.228,1.191-2.422,2.407-3.592,3.64    c-17.22-7.583-37.482-3.986-51.125,9.657C4.799,236.029,0,247.616,0,259.941c0,12.324,4.799,23.91,13.514,32.623    c5.349,5.349,11.802,9.231,18.91,11.432c1.305,29.331,13.223,56.724,34.015,77.793c22.445,22.742,52.374,35.253,84.315,35.252    c0.113,0,0.229,0,0.343,0c30.985-0.087,60.315-12.182,82.586-34.056c22.276-21.879,34.887-50.985,35.513-81.961    c0.011-0.54,0.018-1.08,0.022-1.617c0.221-32.376,26.783-58.717,59.208-58.717c0.148,0,0.296-0.004,0.444-0.013l160.256-9.509    c7.708-0.105,14.435-5.062,16.814-12.409l5.15-15.114c0.016-0.046,0.031-0.093,0.046-0.141    C512.894,197.989,511.944,192.145,508.528,187.47z M250.644,195.116l4.737,9.838h-14.52l-4.507-9.838H250.644z M24.122,281.957    c-5.883-5.881-9.122-13.7-9.122-22.017c0-8.318,3.239-16.138,9.121-22.02c8.129-8.128,19.734-10.957,30.335-7.995    c-12.344,17.078-19.828,37.022-21.696,58.121C29.586,286.536,26.666,284.501,24.122,281.957z"/>
	</g>
</g>
<g>
	<g>
		<path d="M148.362,239.56c-32.542,0-59.019,26.476-59.019,59.018c0,32.543,26.476,59.019,59.019,59.019    c11.3,0,22.285-3.206,31.766-9.271c3.489-2.232,4.508-6.87,2.276-10.359c-2.231-3.49-6.868-4.507-10.359-2.277    c-7.064,4.519-15.253,6.907-23.684,6.907c-24.272,0-44.019-19.747-44.019-44.019c0-24.273,19.747-44.018,44.019-44.018    c24.272,0,44.018,19.747,44.018,44.018c0,7.219-1.783,14.375-5.156,20.693c-1.951,3.655-0.57,8.199,3.085,10.149    c3.654,1.952,8.197,0.57,10.148-3.084c4.529-8.485,6.923-18.083,6.923-27.758C207.38,266.035,180.905,239.56,148.362,239.56z"/>
	</g>
</g>
<g>
	<g>
		<path d="M234.324,94.959c-4.142,0-7.5,3.358-7.5,7.5v36.049c0,4.142,3.358,7.5,7.5,7.5c4.142,0,7.5-3.358,7.5-7.5v-36.049    C241.824,98.317,238.466,94.959,234.324,94.959z"/>
	</g>
</g>
<g>
	<g>
		<path d="M288.475,123.132c-2.929-2.929-7.678-2.929-10.606,0l-25.491,25.491c-2.929,2.929-2.929,7.678,0,10.606    c1.464,1.465,3.383,2.197,5.303,2.197c1.919,0,3.839-0.732,5.303-2.197l25.491-25.491    C291.404,130.809,291.404,126.06,288.475,123.132z"/>
	</g>
</g>
<g>
	<g>
		<path d="M213.063,148.622l-25.491-25.491c-2.929-2.929-7.678-2.929-10.606,0c-2.929,2.929-2.929,7.678,0,10.606l25.491,25.491    c1.464,1.464,3.384,2.197,5.303,2.197c1.919,0,3.839-0.732,5.303-2.197C215.992,156.299,215.992,151.55,213.063,148.622z"/>
	</g>
</g>
<g>
</g>
<g>
</g>
<g>
</g>
<g>
</g>
<g>
</g>
<g>
</g>
<g>
</g>
<g>
</g>
<g>
</g>
<g>
</g>
<g>
</g>
<g>
</g>
<g>
</g>
<g>
</g>
<g>
</g>
</svg>
