<?xml version="1.0" encoding="iso-8859-1"?>
<!-- Generator: Adobe Illustrator 19.0.0, SVG Export Plug-In . SVG Version: 6.00 Build 0)  -->
<svg xmlns="http://www.w3.org/2000/svg" xmlns:xlink="http://www.w3.org/1999/xlink" version="1.1" id="Layer_1" x="0px" y="0px" viewBox="0 0 512.002 512.002" style="enable-background:new 0 0 512.002 512.002;" xml:space="preserve">
<g>
	<g>
		<path d="M438.999,49.185L335.72,0.712c-3.749-1.758-8.215-0.147-9.976,3.603c-0.459,0.978-1.754,4.159-2.144,4.867    c-8.46,15.36-19.543,28.839-32.941,40.063c-11.34,9.5-24.031,17.107-37.762,22.642c-13.079-6.471-25.217-14.649-36.116-24.34    C204.237,36.394,181.735,4.97,181.444,4.369c-1.803-3.73-6.289-5.288-10.017-3.488L72,48.946    C38.814,64.99,17.372,99.172,17.372,136.032V250.99c0,10.38,8.444,18.824,18.824,18.824h63.776v234.688c0,4.142,3.357,7.5,7.5,7.5    h294.505c4.143,0,7.5-3.358,7.5-7.5V269.814h66.328c10.38,0,18.824-8.444,18.824-18.824V136.748    C494.63,99.417,472.794,65.046,438.999,49.185z M43.704,254.814h-7.509c-2.107,0-3.823-1.716-3.823-3.824V136.032    c0-31.143,18.117-60.025,46.157-73.581l21.443-10.366v15.897l-8.936,4.194c-28.753,13.496-47.332,42.739-47.332,74.502V254.814z     M99.972,254.814H86.981V154.082c0-11.745,4.798-22.693,12.991-30.569V254.814z M99.973,104.767    c-17.342,10.339-27.991,28.947-27.991,49.315v100.732h-0.001H58.705V146.678c0-25.974,15.192-49.888,38.705-60.923l2.563-1.203    V104.767z M178.407,497.002h-30.471v-224.37c0-4.142-3.357-7.5-7.5-7.5s-7.5,3.358-7.5,7.5v224.37h-17.964V44.833l17.964-8.684    v198.945c0,4.142,3.357,7.5,7.5,7.5s7.5-3.358,7.5-7.5V46.465c7.154,10.47,15.875,20.676,30.471,34.256V497.002z M153.871,27.835    c-0.291-0.488-0.631-0.927-1.006-1.323l19.456-9.406c9.34,15.582,20.936,29.596,34.494,41.649    c12.769,11.353,27.092,20.804,42.57,28.09c1.01,0.475,2.101,0.714,3.194,0.714c0.896,0,1.793-0.161,2.647-0.483    c16.454-6.208,31.616-15.068,45.065-26.334c14.515-12.159,26.566-26.714,35.847-43.264l20.133,9.449    c-0.172,0.24-0.335,0.488-0.481,0.753c-8.611,15.637-19.132,29.67-44.937,51.285c-19.107,16.006-37.821,27.753-55.672,34.954    c-18.649-8.903-39.928-20.359-59.27-37.557C172.281,55.353,163.214,43.537,153.871,27.835z M223.878,497.001h-30.471V93.865    c10.286,8.251,20.899,15.12,30.471,20.653V497.001z M269.35,497.001h-30.472V122.639c5.171,2.625,9.577,4.702,12.823,6.23    c1.821,0.858,3.959,0.941,5.842,0.231c3.905-1.473,7.842-3.148,11.807-5.013V497.001z M360.291,497.001H329.82v-94.647    c0-4.142-3.357-7.5-7.5-7.5s-7.5,3.358-7.5,7.5v94.647h-30.471V116.18c10.038-5.852,20.217-12.902,30.471-21.091v277.79    c0,4.142,3.357,7.5,7.5,7.5s7.5-3.358,7.5-7.5V82.398c14.351-12.836,23.48-23.267,30.471-33.4V497.001z M394.478,497.001h-19.187    V35.854l19.187,9.005V497.001z M421.246,254.814h-11.769V124.748c7.442,7.767,11.769,18.189,11.769,29.335V254.814z     M449.523,254.814h-13.277V154.082c0-19.885-10.15-38.094-26.769-48.567v-20.39l1.34,0.629    c23.513,11.036,38.706,34.949,38.706,60.923V254.814z M479.63,250.99c0,2.109-1.716,3.824-3.824,3.824h-11.282V146.678    c0-31.763-18.579-61.006-47.333-74.502l-7.713-3.62V51.899l23.148,10.865c28.554,13.401,47.004,42.442,47.004,73.984V250.99z"/>
	</g>
</g>
<g>
</g>
<g>
</g>
<g>
</g>
<g>
</g>
<g>
</g>
<g>
</g>
<g>
</g>
<g>
</g>
<g>
</g>
<g>
</g>
<g>
</g>
<g>
</g>
<g>
</g>
<g>
</g>
<g>
</g>
</svg>
