<?xml version="1.0" encoding="iso-8859-1"?>
<!-- Generator: Adobe Illustrator 19.0.0, SVG Export Plug-In . SVG Version: 6.00 Build 0)  -->
<svg xmlns="http://www.w3.org/2000/svg" xmlns:xlink="http://www.w3.org/1999/xlink" version="1.1" id="Layer_1" x="0px" y="0px" viewBox="0 0 512 512" style="enable-background:new 0 0 512 512;" xml:space="preserve">
<g>
	<g>
		<path d="M372.598,130.971h-66.709c-4.142,0-7.5,3.358-7.5,7.5c0,4.142,3.358,7.5,7.5,7.5h66.709c7.4,0,13.421,6.021,13.421,13.421    v324.187c0,7.4-6.021,13.421-13.421,13.421H139.401c-7.4,0-13.421-6.021-13.421-13.421V159.392c0-7.4,6.021-13.421,13.421-13.421    h67.57c4.142,0,7.5-3.358,7.5-7.5c0-4.142-3.358-7.5-7.5-7.5h-67.57c-15.671,0-28.421,12.75-28.421,28.421v324.187    c0,15.671,12.75,28.421,28.421,28.421h233.197c15.671,0,28.421-12.75,28.421-28.421V159.392    C401.019,143.721,388.27,130.971,372.598,130.971z"/>
	</g>
</g>
<g>
	<g>
		<path d="M292.19,162.68h-8.096V7.5c0-4.142-3.358-7.5-7.5-7.5c-4.142,0-7.5,3.358-7.5,7.5v155.18h-24.981V7.5    c0-4.142-3.358-7.5-7.5-7.5c-4.142,0-7.5,3.358-7.5,7.5v155.18h-9.302c-4.142,0-7.5,3.358-7.5,7.5c0,4.142,3.358,7.5,7.5,7.5    h16.802h39.981h15.596c4.142,0,7.5-3.358,7.5-7.5C299.69,166.038,296.332,162.68,292.19,162.68z"/>
	</g>
</g>
<g>
	<g>
		<path d="M334.497,454.262H177.504c-4.142,0-7.5,3.358-7.5,7.5c0,4.142,3.358,7.5,7.5,7.5h156.993c4.142,0,7.5-3.358,7.5-7.5    C341.997,457.62,338.639,454.262,334.497,454.262z"/>
	</g>
</g>
<g>
	<g>
		<path d="M323.534,349.02l-17.239-4.301c-0.001,0-0.001,0-0.001,0l-7.117-1.776c-1.765-0.432-3.487-1.138-5.064-2.04    c-4.575-2.603-7.931-6.916-9.314-12.033c13.049-9.46,21.559-24.815,21.559-42.13v-13.905v-23.32v-4.081    c0-0.87-0.156-1.702-0.428-2.479c-3.237-25.596-25.13-45.46-51.591-45.46s-48.354,19.864-51.591,45.46    c-0.272,0.777-0.428,1.609-0.428,2.479v4.081v23.32v13.905c0,16.819,8.03,31.791,20.45,41.306    c-0.935,4.993-3.781,9.304-7.925,12.182c-0.218,0.115-0.437,0.229-0.646,0.367c-1.89,1.252-3.966,2.166-6.171,2.716l-22.884,5.709    c-17.286,4.313-29.359,19.768-29.359,37.584v27.152c0,8.309,6.759,15.068,15.068,15.068h16.77h133.432h16.77    c8.309,0,15.068-6.759,15.068-15.068v-27.152C352.893,368.788,340.82,353.333,323.534,349.02z M254.339,212.496    c16.368,0,30.28,10.682,35.154,25.438h-70.308C224.059,223.178,237.971,212.496,254.339,212.496z M217.32,252.935h74.038v12.401    H217.32V252.935z M217.32,286.74v-6.405h74.038v6.405c0,20.413-16.606,37.019-37.019,37.019    C233.926,323.759,217.32,307.153,217.32,286.74z M282.836,351.415v8.269c0,12.347-10.045,22.393-22.393,22.393h-12.209    c-3.729,0-7.417-0.933-10.666-2.696c-3.157-1.715-5.891-4.198-7.907-7.182c-2.499-3.699-3.82-8.026-3.82-12.515v-9.038    c4.769-4.013,8.381-9.239,10.414-15.133c5.636,2.096,11.727,3.247,18.084,3.247c5.945,0,11.653-1.016,16.978-2.86    C273.624,342.084,277.619,347.456,282.836,351.415z M187.622,389.934c-4.142,0-7.5,3.358-7.5,7.5v16.326l-9.338-0.003v-27.152    c0-10.917,7.398-20.388,17.99-23.031l7.926-1.978v19.26C196.701,385.861,192.629,389.934,187.622,389.934z M313.555,413.815    l-118.432-0.048v-10.028c9.616-3.159,16.578-12.223,16.578-22.882v-13.165c1.001,4.59,2.866,8.959,5.531,12.904    c3.357,4.969,7.914,9.106,13.177,11.965c5.44,2.954,11.604,4.515,17.825,4.515h12.209c17.877,0,32.864-12.61,36.534-29.402v13.183    c0,10.659,6.962,19.723,16.578,22.882V413.815z M337.825,413.825l-9.27-0.004v-16.386c0-4.142-3.358-7.5-7.5-7.5    c-5.006,0-9.078-4.072-9.078-9.078v-19.26l7.926,1.977c10.592,2.643,17.99,12.114,17.99,23.031L337.825,413.825z"/>
	</g>
</g>
<g>
</g>
<g>
</g>
<g>
</g>
<g>
</g>
<g>
</g>
<g>
</g>
<g>
</g>
<g>
</g>
<g>
</g>
<g>
</g>
<g>
</g>
<g>
</g>
<g>
</g>
<g>
</g>
<g>
</g>
</svg>
