<?xml version="1.0" encoding="iso-8859-1"?>
<!-- Generator: Adobe Illustrator 19.0.0, SVG Export Plug-In . SVG Version: 6.00 Build 0)  -->
<svg xmlns="http://www.w3.org/2000/svg" xmlns:xlink="http://www.w3.org/1999/xlink" version="1.1" id="Layer_1" x="0px" y="0px" viewBox="0 0 511.999 511.999" style="enable-background:new 0 0 511.999 511.999;" xml:space="preserve">
<g>
	<g>
		<path d="M371.418,114.089l-16.323-14.708c-8.858-7.982-14.146-20.673-14.146-33.948v-11.64c2.8-2.207,4.607-5.62,4.607-9.454    V12.043C345.556,5.402,340.152,0,333.512,0h-52.495c-6.641,0-12.043,5.402-12.043,12.043v32.295c0,3.933,1.904,7.421,4.829,9.62    v11.474c0,13.275-5.288,25.966-14.146,33.948l-16.322,14.708c-9.728,8.764-16.865,20.552-20.643,34.089    c-1.113,3.99,1.218,8.127,5.208,9.24c3.989,1.113,8.127-1.219,9.239-5.208c3.012-10.792,8.626-20.121,16.236-26.978l16.322-14.708    c12.142-10.941,19.105-27.376,19.105-45.092V56.38h37.146v9.051c0,17.716,6.964,34.151,19.105,45.092l16.323,14.708    c11.667,10.513,18.632,27.189,18.632,44.609v75.413h-93.392v-41.804c0-0.193-0.015-0.382-0.029-0.571    c-0.004-0.051-0.003-0.103-0.008-0.154c-0.029-0.298-0.076-0.589-0.139-0.876c-0.012-0.053-0.028-0.106-0.041-0.159    c-0.058-0.239-0.126-0.474-0.206-0.703c-0.024-0.069-0.049-0.137-0.075-0.205c-0.09-0.237-0.192-0.468-0.305-0.693    c-0.016-0.032-0.026-0.065-0.042-0.096l-0.055-0.106c-0.003-0.005-0.005-0.01-0.008-0.015l-10.291-19.805    c-3.009-5.792-8.933-9.39-15.459-9.39H141.324c-7.164,0-13.513,4.297-16.174,10.947l-7.566,18.9    c-0.004,0.009-0.007,0.019-0.011,0.028l-0.045,0.112c-0.014,0.036-0.022,0.073-0.036,0.108c-0.083,0.218-0.157,0.44-0.22,0.667    c-0.022,0.078-0.041,0.156-0.06,0.235c-0.048,0.198-0.088,0.399-0.12,0.603c-0.014,0.087-0.029,0.173-0.04,0.261    c-0.025,0.205-0.038,0.412-0.046,0.621c-0.003,0.079-0.011,0.157-0.012,0.235c0,0.019-0.003,0.037-0.003,0.057v275.775    c0,0.193,0.015,0.382,0.029,0.571c0.004,0.051,0.003,0.103,0.008,0.154c0.029,0.298,0.076,0.59,0.139,0.876    c0.011,0.053,0.028,0.104,0.04,0.157c0.058,0.24,0.126,0.474,0.207,0.704c0.024,0.069,0.049,0.138,0.075,0.206    c0.091,0.237,0.192,0.468,0.305,0.692c0.016,0.032,0.026,0.065,0.042,0.097l0.055,0.107c0.003,0.005,0.005,0.01,0.008,0.015    l10.291,19.805c3.009,5.792,8.933,9.39,15.46,9.39h118.636c7.163,0,13.511-4.297,16.174-10.948l7.564-18.898    c0.004-0.01,0.008-0.02,0.012-0.03l0.044-0.111c0.014-0.035,0.022-0.072,0.035-0.107c0.084-0.218,0.157-0.44,0.221-0.668    c0.022-0.078,0.041-0.156,0.06-0.235c0.048-0.198,0.088-0.399,0.12-0.602c0.014-0.088,0.029-0.175,0.04-0.263    c0.025-0.204,0.038-0.411,0.046-0.62c0.003-0.079,0.011-0.157,0.012-0.236c0-0.019,0.003-0.037,0.003-0.057V399.5h93.392v79.079    c0,10.156-6.583,18.419-14.674,18.419h-64.219c-4.143,0-7.5,3.358-7.5,7.5c0,4.142,3.357,7.5,7.5,7.5h64.219    c16.362,0,29.674-14.992,29.674-33.419V392V252.755v-82.913C395.009,147.919,386.41,127.598,371.418,114.089z M330.556,41.381    h-46.582V15h46.582V41.381z M139.076,187.197c0.37-0.923,1.252-1.521,2.248-1.521H259.96c0.907,0,1.73,0.5,2.148,1.305l4.66,8.969    h-46.095c-0.027,0-0.054,0-0.081,0h-85.02L139.076,187.197z M131.991,210.951h84.165c15.511,29.737,21.026,56.867,16.377,80.69    c-3.887,19.917-13.826,32.77-25.334,47.651c-11.1,14.353-23.681,30.621-33.551,56.227c-9.01,23.374-13.586,48.979-13.663,76.207    h-27.994V210.951z M264.533,495.478c-0.37,0.925-1.253,1.522-2.248,1.522H143.648c-0.907,0-1.731-0.5-2.149-1.305l-4.66-8.969    h131.196L264.533,495.478z M174.984,471.726c0.077-25.375,4.317-49.167,12.66-70.811c9.081-23.56,20.438-38.245,31.42-52.446    c12.148-15.709,23.623-30.547,28.191-53.955c4.94-25.313,0.112-53.378-14.333-83.563h38.694v260.775H174.984z M380.009,384.501    h-93.392v-25.209c5.029,3.214,10.994,5.087,17.393,5.087c17.862,0,32.394-14.531,32.394-32.393    c0-15.638-22.153-43.449-26.594-48.865c-1.425-1.737-3.553-2.745-5.8-2.745c-2.247,0-4.375,1.007-5.8,2.745    c-1.814,2.213-6.584,8.165-11.593,15.496v-38.363h93.392V384.501z M286.617,331.987c0-5.642,8.234-19.557,17.393-31.904    c9.159,12.347,17.394,26.263,17.394,31.904c0,9.59-7.803,17.393-17.394,17.393C294.42,349.379,286.617,341.577,286.617,331.987z"/>
	</g>
</g>
<g>
</g>
<g>
</g>
<g>
</g>
<g>
</g>
<g>
</g>
<g>
</g>
<g>
</g>
<g>
</g>
<g>
</g>
<g>
</g>
<g>
</g>
<g>
</g>
<g>
</g>
<g>
</g>
<g>
</g>
</svg>
