<?xml version="1.0" encoding="iso-8859-1"?>
<!-- Generator: Adobe Illustrator 19.0.0, SVG Export Plug-In . SVG Version: 6.00 Build 0)  -->
<svg xmlns="http://www.w3.org/2000/svg" xmlns:xlink="http://www.w3.org/1999/xlink" version="1.1" id="Layer_1" x="0px" y="0px" viewBox="0 0 512 512" style="enable-background:new 0 0 512 512;" xml:space="preserve">
<g>
	<g>
		<path d="M357.408,69.181h-5.868V44.318C351.54,19.881,331.659,0,307.221,0h-75.385h-31.433c-9.81,0-17.791,7.981-17.791,17.791    v7.714c-15.059,3.422-26.338,16.91-26.338,32.99v10.687h-1.682c-10.953,0-19.863,8.91-19.863,19.862v36.507    c0,9.547,6.772,17.537,15.764,19.432l2.754,43.989c0.259,4.134,3.81,7.266,7.954,7.017c4.134-0.259,7.275-3.82,7.017-7.954    l-2.668-42.621h182.298l-16.188,258.524H181.737l-11.522-184.035c-0.259-4.134-3.818-7.27-7.954-7.017    c-4.134,0.259-7.275,3.82-7.017,7.954l11.948,190.832v85.932c0,7.938,6.458,14.396,14.396,14.396h150.2    c7.938,0,14.396-6.458,14.396-14.396v-85.628c0.002-0.024,0.006-0.046,0.008-0.07l16.737-267.29    c8.272-2.399,14.343-10.031,14.343-19.066V89.043C377.27,78.091,368.359,69.181,357.408,69.181z M182.192,497v-78.063h148.991V497    H182.192z M307.221,15c16.166,0,29.319,13.152,29.319,29.318v3.314c-4.653-3.325-10.149-5.574-16.146-6.343l-70.768-9.069V17.791    c0-0.952-0.096-1.879-0.241-2.791H307.221z M197.613,17.791c0-1.539,1.252-2.791,2.791-2.791h31.433    c1.538,0,2.79,1.252,2.79,2.791V30.3l-37.014-4.743V17.791z M171.275,58.495c0-10.24,8.214-18.599,18.398-18.833l50.352,6.452    c0.667,0.195,1.371,0.304,2.102,0.304c0.066,0,0.129-0.008,0.195-0.01l76.167,9.76c7.68,0.984,13.95,6.146,16.639,13.013H171.275    V58.495z M362.27,125.55c0,2.681-2.182,4.863-4.862,4.863h-1.575H157.566v0h-2.973c-2.682,0-4.863-2.182-4.863-4.863V89.043    c0-2.681,2.182-4.862,4.863-4.862h9.182H344.04h13.368c2.681,0,4.862,2.181,4.862,4.862V125.55z"/>
	</g>
</g>
<g>
	<g>
		<path d="M237.378,190.374h-29.003c-4.143,0-7.5,3.358-7.5,7.5c0,4.142,3.358,7.5,7.5,7.5h29.003c4.143,0,7.5-3.358,7.5-7.5    C244.878,193.732,241.521,190.374,237.378,190.374z"/>
	</g>
</g>
<g>
	<g>
		<path d="M237.378,251.804h-29.003c-4.143,0-7.5,3.358-7.5,7.5c0,4.142,3.358,7.5,7.5,7.5h29.003c4.143,0,7.5-3.358,7.5-7.5    C244.878,255.162,241.521,251.804,237.378,251.804z"/>
	</g>
</g>
<g>
	<g>
		<circle cx="210.97" cy="228.59" r="8.219"/>
	</g>
</g>
<g>
	<g>
		<circle cx="210.97" cy="167.89" r="8.219"/>
	</g>
</g>
<g>
	<g>
		<circle cx="210.97" cy="290.02" r="8.219"/>
	</g>
</g>
<g>
	<g>
		<path d="M237.378,313.233h-29.003c-4.143,0-7.5,3.358-7.5,7.5c0,4.142,3.358,7.5,7.5,7.5h29.003c4.143,0,7.5-3.358,7.5-7.5    C244.878,316.591,241.521,313.233,237.378,313.233z"/>
	</g>
</g>
<g>
	<g>
		<path d="M237.378,374.663h-29.003c-4.143,0-7.5,3.358-7.5,7.5c0,4.142,3.358,7.5,7.5,7.5h29.003c4.143,0,7.5-3.358,7.5-7.5    C244.878,378.021,241.521,374.663,237.378,374.663z"/>
	</g>
</g>
<g>
	<g>
		<circle cx="210.97" cy="351.45" r="8.219"/>
	</g>
</g>
<g>
</g>
<g>
</g>
<g>
</g>
<g>
</g>
<g>
</g>
<g>
</g>
<g>
</g>
<g>
</g>
<g>
</g>
<g>
</g>
<g>
</g>
<g>
</g>
<g>
</g>
<g>
</g>
<g>
</g>
</svg>
