<?xml version="1.0" encoding="iso-8859-1"?>
<!-- Generator: Adobe Illustrator 19.0.0, SVG Export Plug-In . SVG Version: 6.00 Build 0)  -->
<svg xmlns="http://www.w3.org/2000/svg" xmlns:xlink="http://www.w3.org/1999/xlink" version="1.1" id="Layer_1" x="0px" y="0px" viewBox="0 0 511.999 511.999" style="enable-background:new 0 0 511.999 511.999;" xml:space="preserve">
<g>
	<g>
		<path d="M380.804,276.396l-44.462-11.093c-16.604-4.143-28.792-17.329-31.589-33.591c22.346-14.374,37.707-38.704,39.769-66.672    h4.553c10.061,0,18.246-8.186,18.246-18.247v-25.736c0-10.061-8.186-18.247-18.246-18.247h-4.313V86.877    C344.761,38.974,305.788,0,257.883,0h-3.768c-47.905,0-86.878,38.974-86.878,86.877v15.936h-4.313    c-10.061,0-18.246,8.186-18.246,18.247v25.736c0,10.061,8.186,18.247,18.246,18.247h4.553    c1.987,26.955,16.329,50.526,37.369,65.065c-2.196,17.199-14.752,31.595-31.88,35.868l-41.771,10.422    c-28.791,7.183-48.898,32.924-48.898,62.597v49.56c0,11.753,9.562,21.314,21.314,21.314h30.611h243.555h30.611    c11.753,0,21.314-9.562,21.314-21.314v-49.56C429.702,309.321,409.594,283.58,380.804,276.396z M344.762,127.787v-9.973h4.313    v-0.001c1.79,0,3.246,1.457,3.246,3.247v25.736c0,1.79-1.456,3.247-3.246,3.247h-4.313V127.787z M167.237,128.244v21.797h-4.313    c-1.79,0.001-3.246-1.456-3.246-3.246v-25.736c0-1.79,1.456-3.247,3.246-3.247h4.313V128.244z M182.236,110.312V88.761    C182.238,48.089,215.327,15,255.999,15c40.672,0,73.762,33.089,73.762,73.761v21.552v8.499c-5.24-2.477-8.874-7.815-8.874-13.986    V92.167c0-7.733-3.438-14.97-9.434-19.855c-5.996-4.885-13.778-6.791-21.352-5.228l-23.973,4.947    c-7.027,1.45-14.151,1.45-21.179,0l-23.972-4.947c-7.575-1.564-15.356,0.343-21.353,5.228c-5.995,4.885-9.434,12.122-9.434,19.855    v13.117c0,5.985-3.182,11.075-7.956,13.653V110.312z M182.238,158.593v-1.052v-22.688c13.164-3.281,22.956-15.291,22.956-29.569    V92.167c0-3.204,1.425-6.202,3.908-8.226c2.485-2.024,5.707-2.812,8.847-2.166l23.972,4.947c9.039,1.865,18.204,1.865,27.241,0    l23.973-4.947c3.137-0.647,6.361,0.142,8.846,2.166c2.484,2.024,3.909,5.022,3.909,8.226v12.658    c0,14.534,10.235,26.716,23.874,29.735v22.982v1.052c0,25.844-13.716,48.538-34.245,61.206l-4.52,2.557    c-9.918,5.172-21.176,8.114-33.114,8.114h-3.768c-12.826,0-24.867-3.393-35.303-9.304l-5.001-3.091    C194.772,205.134,182.238,183.301,182.238,158.593z M134.221,351.264c-4.143,0-7.5,3.358-7.5,7.5v36.107h-23.111    c-3.481-0.001-6.314-2.833-6.314-6.315v-49.56c0-22.774,15.433-42.531,37.529-48.044l22.156-5.528v43.08    C156.981,341.053,146.771,351.264,134.221,351.264z M370.277,394.87H141.722v-0.001v-29.355    c17.24-3.488,30.26-18.758,30.26-37.013V281.68l4.614-1.151c2.094-0.523,4.175-1.167,6.197-1.921v11.247    c0,7.339,1.27,14.524,3.773,21.356c1.425,3.888,5.73,5.887,9.623,4.461c3.889-1.425,5.887-5.734,4.461-9.623    c-1.896-5.173-2.857-10.622-2.857-16.194v-19.592c10.367-8.009,17.813-19.422,20.865-32.363    c10.833,4.863,22.835,7.571,35.458,7.571h3.768c11.709,0,22.883-2.334,33.086-6.552c3.489,13.455,11.791,25.027,23.237,32.73    v18.206c0,25.952-21.113,47.064-47.064,47.064h-22.285c-11.966,0-23.37-4.495-32.112-12.656    c-3.026-2.827-7.772-2.664-10.601,0.364c-2.826,3.027-2.663,7.773,0.364,10.6c11.529,10.764,26.568,16.692,42.349,16.692h22.285    c34.223,0,62.063-27.842,62.063-62.063v-10.991c0.076,0.024,0.154,0.041,0.23,0.065c1.079,0.336,2.167,0.652,3.276,0.929    l7.306,1.823v46.822c0,18.254,13.02,33.525,30.26,37.013V394.87z M414.702,388.555c0,3.482-2.833,6.314-6.314,6.314h-23.111    v-36.107c0-4.142-3.357-7.5-7.5-7.5c-12.55,0-22.76-10.21-22.76-22.761v-43.08l22.156,5.528    c22.097,5.514,37.529,25.27,37.529,48.044V388.555z"/>
	</g>
</g>
<g>
	<g>
		<circle cx="227.067" cy="134.059" r="7.678"/>
	</g>
</g>
<g>
	<g>
		<circle cx="287.567" cy="133.799" r="7.678"/>
	</g>
</g>
<g>
	<g>
		<path d="M275.477,169.087h-36.322c-5.983,0.001-10.85,4.868-10.85,10.85v1.94c0,15.722,12.79,28.512,28.512,28.512h0.998    c15.722,0,28.512-12.791,28.512-28.512v-1.94C286.327,173.955,281.46,169.087,275.477,169.087z M257.815,195.39h-0.998    c-6.698,0-12.273-4.899-13.331-11.302h27.66C270.088,190.491,264.513,195.39,257.815,195.39z"/>
	</g>
</g>
<g>
	<g>
		<path d="M298.95,460.972c-1.22-3.746-4.4-6.427-8.3-6.994l-16.73-2.432l-7.483-15.161c-1.744-3.534-5.275-5.729-9.217-5.729    c-3.942,0-7.473,2.196-9.216,5.729l-7.482,15.161l-16.731,2.432c-3.9,0.566-7.079,3.247-8.297,6.994    c-1.218,3.748-0.222,7.785,2.601,10.536l12.107,11.801l-2.857,16.662c-0.667,3.884,0.898,7.736,4.087,10.053    c3.188,2.317,7.336,2.617,10.825,0.783l14.965-7.868l14.964,7.867c1.518,0.798,3.159,1.192,4.793,1.192    c2.121,0,4.229-0.665,6.03-1.973c3.188-2.315,4.756-6.167,4.09-10.053l-2.858-16.664l12.105-11.8    C299.169,468.758,300.166,464.72,298.95,460.972z M271.99,474.303c-2.421,2.361-3.525,5.761-2.954,9.096l1.66,9.68l-8.692-4.569    c-2.994-1.575-6.57-1.575-9.566-0.001l-8.692,4.57l1.66-9.682c0.57-3.333-0.534-6.732-2.956-9.095l-7.033-6.855l9.718-1.412    c3.35-0.486,6.244-2.589,7.74-5.623l4.347-8.807l4.346,8.805c1.497,3.035,4.39,5.138,7.738,5.624l9.72,1.413L271.99,474.303z"/>
	</g>
</g>
<g>
	<g>
		<path d="M190.713,460.973c-1.22-3.748-4.399-6.428-8.299-6.995l-16.731-2.432l-7.482-15.161c-1.744-3.534-5.275-5.729-9.216-5.729    c-3.942,0-7.474,2.196-9.217,5.729l-7.482,15.161l-16.731,2.432c-3.9,0.566-7.079,3.247-8.297,6.994    c-1.218,3.748-0.222,7.785,2.601,10.536l12.107,11.801l-2.859,16.666c-0.665,3.884,0.902,7.736,4.091,10.051    c1.802,1.309,3.909,1.973,6.03,1.973c1.634,0,3.275-0.394,4.792-1.191l14.965-7.868l14.966,7.868    c3.485,1.833,7.635,1.533,10.824-0.783c3.188-2.317,4.754-6.169,4.088-10.051l-2.858-16.664l12.107-11.801    C190.934,468.758,191.93,464.721,190.713,460.973z M144.748,443.025l0.003,0.007C144.75,443.029,144.749,443.026,144.748,443.025    C144.748,443.024,144.748,443.025,144.748,443.025z M163.753,474.303c-2.421,2.361-3.525,5.761-2.955,9.095l1.66,9.68    l-8.694-4.571c-2.996-1.574-6.571-1.573-9.563,0.001l-8.693,4.57l1.661-9.682c0.57-3.333-0.534-6.732-2.956-9.095l-7.033-6.855    l9.719-1.413c3.346-0.486,6.238-2.586,7.739-5.622l4.347-8.807l4.345,8.805c1.497,3.036,4.392,5.138,7.739,5.624l9.72,1.413    L163.753,474.303z"/>
	</g>
</g>
<g>
	<g>
		<path d="M410.635,460.971c-1.22-3.746-4.398-6.426-8.299-6.993l-16.731-2.432l-7.482-15.161c0,0,0,0-0.001-0.001    c-1.744-3.534-5.275-5.729-9.216-5.729h-0.002c-3.94,0.001-7.472,2.197-9.214,5.729l-7.483,15.161l-16.73,2.432    c-3.9,0.566-7.08,3.248-8.298,6.996c-1.217,3.748-0.22,7.785,2.602,10.534l12.107,11.801l-2.859,16.666    c-0.665,3.884,0.902,7.735,4.09,10.051c3.188,2.316,7.335,2.614,10.823,0.782l14.965-7.868l14.966,7.868    c1.517,0.797,3.158,1.191,4.792,1.191c2.122,0,4.23-0.666,6.032-1.975c3.188-2.317,4.754-6.169,4.088-10.051l-2.858-16.664    l12.107-11.801C410.856,468.756,411.852,464.719,410.635,460.971z M383.681,474.299c-2.424,2.361-3.53,5.762-2.959,9.099    l1.66,9.68l-8.694-4.571c-2.996-1.574-6.571-1.573-9.563,0.001l-8.693,4.57l1.661-9.682c0.57-3.333-0.534-6.732-2.956-9.095    l-7.033-6.855l9.719-1.413c3.35-0.486,6.242-2.589,7.738-5.622l4.347-8.807l4.346,8.805c1.497,3.036,4.392,5.138,7.739,5.624    l9.72,1.413L383.681,474.299z"/>
	</g>
</g>
<g>
</g>
<g>
</g>
<g>
</g>
<g>
</g>
<g>
</g>
<g>
</g>
<g>
</g>
<g>
</g>
<g>
</g>
<g>
</g>
<g>
</g>
<g>
</g>
<g>
</g>
<g>
</g>
<g>
</g>
</svg>
