<?xml version="1.0" encoding="iso-8859-1"?>
<!-- Generator: Adobe Illustrator 19.0.0, SVG Export Plug-In . SVG Version: 6.00 Build 0)  -->
<svg xmlns="http://www.w3.org/2000/svg" xmlns:xlink="http://www.w3.org/1999/xlink" version="1.1" id="Layer_1" x="0px" y="0px" viewBox="0 0 512.001 512.001" style="enable-background:new 0 0 512.001 512.001;" xml:space="preserve">
<g>
	<g>
		<path d="M353.064,321.232l-3.147-0.916c-14.437-4.201-26.127-15.381-32.809-30.091c18.545-7.37,35.075-19.962,47.126-36.049    c14.128-18.86,21.595-41.241,21.595-64.723V132.62C385.829,59.493,326.336,0,253.209,0S120.59,59.493,120.59,132.62v56.835    c0,45.45,28.88,86.158,71.15,101.703c-6.683,14.702-18.371,25.875-32.803,30.075c-61.686,17.95-104.768,81.92-104.768,155.562    v8.88c0,14.516,10.604,26.326,23.639,26.326h35.794H398.4h35.794c13.035,0,23.639-11.809,23.639-26.326v-8.88    C457.833,403.153,414.751,339.184,353.064,321.232z M135.56,189.455V132.62c0-64.872,52.777-117.649,117.649-117.649    S370.858,67.748,370.858,132.62v56.835c0,20.22-6.434,39.498-18.606,55.747c-10.211,13.632-24.141,24.352-39.775,30.753    c-0.871-4.196-1.371-8.551-1.47-13.012c11.242-11.901,18.576-27.036,20.877-43.37l12.882-71.043    c4.046-3.12,6.669-8.001,6.669-13.495V109.87c0-8.446-6.871-15.318-15.318-15.318H175.783c-9.402,0-17.051,7.649-17.051,17.052    v23.431c0,4.881,2.073,9.278,5.371,12.389l10.547,70.263c2.166,18.606,10.657,35.074,23.171,47.368    c-0.156,4.061-0.653,8.028-1.451,11.864C160.214,263.375,135.56,228.434,135.56,189.455z M336.463,135.035    c0,1.147-0.934,2.08-2.081,2.08H175.783c-1.147,0-2.08-0.933-2.08-2.08v-23.431c0-1.147,0.933-2.081,2.08-2.081h160.333    c0.191,0,0.347,0.156,0.347,0.347L336.463,135.035L336.463,135.035z M328.905,152.086l-11.78,64.964    c-0.018,0.102-0.035,0.204-0.049,0.307c-4.388,31.618-31.769,55.461-63.69,55.461c-32.69-0.001-60.153-24.493-63.879-56.971    c-0.01-0.086-0.021-0.172-0.034-0.258l-9.532-63.503H328.905z M106.117,445.041v51.987H77.808    c-4.699,0.001-8.668-5.199-8.668-11.354v-8.88c0-57.899,28.84-109.101,72.361-132.353v59.33c0,18.629-12.515,33.785-27.899,33.785    C109.467,437.556,106.117,440.907,106.117,445.041z M390.916,497.029H121.087v-45.246c20.083-4.038,35.384-24.03,35.384-48.011    v-65.993c5.069-1.836,10.305-3.106,15.211-5.387c0,1.158,0,2.315,0,3.473c0,16.779,3.771,33.317,10.907,47.827    c1.825,3.71,6.312,5.239,10.02,3.413c3.71-1.825,5.238-6.31,3.413-10.02c-6.13-12.464-9.37-26.718-9.37-41.219V322.64    c13.019-11.285,22.086-27.874,25.094-46.661c12.146,7.505,26.433,11.809,41.64,11.809c15.599,0,30.765-4.602,43.656-13.108    c3.176,20.429,13.51,38.298,28.305,49.62v11.565c0,45.286-31.109,82.128-69.348,82.128c-16.621,0-32.706-7.092-45.292-19.969    c-2.89-2.957-7.629-3.011-10.585-0.121c-2.957,2.89-3.011,7.629-0.121,10.585c15.426,15.784,35.314,24.476,55.999,24.476    c46.494,0,84.319-43.558,84.319-97.099c0-1.012,0-2.023,0-3.035c4.958,1.97,10.196,3.132,15.211,4.949v65.993    c0,23.981,15.301,43.974,35.385,48.011V497.029z M442.862,485.674c0,6.155-3.969,11.355-8.668,11.355h-28.309v-51.987    c0-4.134-3.351-7.485-7.485-7.485c-15.384,0-27.899-15.156-27.899-33.785v-59.33c43.521,23.253,72.361,74.454,72.361,132.353    V485.674z"/>
	</g>
</g>
<g>
	<g>
		<path d="M272.466,228.866c-3.451-2.274-8.095-1.32-10.369,2.133c-1.978,3.003-5.3,4.795-8.887,4.795    c-3.425,0-6.662-1.668-8.659-4.462c-2.403-3.364-7.079-4.141-10.442-1.738c-3.364,2.403-4.142,7.078-1.738,10.442    c4.8,6.718,12.591,10.729,20.839,10.729c8.637,0,16.633-4.31,21.389-11.53C276.873,235.783,275.918,231.14,272.466,228.866z"/>
	</g>
</g>
<g>
	<g>
		<path d="M238.397,164.398H211.99c-4.134,0-7.485,3.351-7.485,7.485c0,4.134,3.351,7.485,7.485,7.485h26.408v0.001    c2.399,0,4.426,2.53,4.426,5.524v23.815c0,4.134,3.351,7.485,7.485,7.485c4.134,0,7.485-3.351,7.485-7.485v-23.815    C257.794,173.592,249.092,164.398,238.397,164.398z"/>
	</g>
</g>
<g>
	<g>
		<path d="M300.564,164.399h-21.971c-4.134,0-7.485,3.351-7.485,7.485c0,4.134,3.351,7.485,7.485,7.485h21.971    c4.134,0,7.485-3.351,7.485-7.485C308.049,167.75,304.698,164.399,300.564,164.399z"/>
	</g>
</g>
<g>
	<g>
		<circle cx="216.841" cy="196.36" r="7.676"/>
	</g>
</g>
<g>
	<g>
		<circle cx="289.581" cy="196.36" r="7.676"/>
	</g>
</g>
<g>
</g>
<g>
</g>
<g>
</g>
<g>
</g>
<g>
</g>
<g>
</g>
<g>
</g>
<g>
</g>
<g>
</g>
<g>
</g>
<g>
</g>
<g>
</g>
<g>
</g>
<g>
</g>
<g>
</g>
</svg>
