<?xml version="1.0" encoding="iso-8859-1"?>
<!-- Generator: Adobe Illustrator 19.0.0, SVG Export Plug-In . SVG Version: 6.00 Build 0)  -->
<svg xmlns="http://www.w3.org/2000/svg" xmlns:xlink="http://www.w3.org/1999/xlink" version="1.1" id="Layer_1" x="0px" y="0px" viewBox="0 0 512 512" style="enable-background:new 0 0 512 512;" xml:space="preserve">
<g>
	<g>
		<g>
			<path d="M508.658,297.485C508.631,297.736,510.86,283.896,508.658,297.485L508.658,297.485z"/>
			<path d="M448.455,87.185C399.817,31.778,329.669,0,256,0C187.62,0,123.333,26.629,74.98,74.98     c-3.379,3.379-6.64,6.843-9.805,10.374c-0.068,0.07-0.128,0.145-0.192,0.217C22.98,132.53,0,192.496,0,256     c0,8.497,0.417,17.003,1.242,25.46c2.847,29.235,10.599,57.361,22.997,83.582c1.505,3.194,3.087,6.356,4.729,9.482     c11.912,22.752,27.333,43.817,46.012,62.496C123.333,485.371,187.62,512,256,512s132.667-26.629,181.02-74.98     c38.244-38.244,62.882-86.462,71.518-138.785c0.052-0.248,0.093-0.499,0.12-0.75C510.86,283.896,512,270.036,512,256     C512,193.818,489.433,133.864,448.455,87.185z M274.141,16.129c3.549,0,7.119,0.228,10.612,0.679     c0.26,0.033,0.518,0.053,0.774,0.059c48.564,6.001,94.197,26.674,130.762,59.239c-75.861,2.419-148.525,24.513-212.438,64.484     c-7.488-12.376-11.804-26.877-11.804-42.367C192.047,52.956,228.874,16.129,274.141,16.129z M85.609,85.607     c36.883-36.883,83.62-60.334,134.273-67.902c-25.842,17.471-42.864,47.044-42.864,80.517c0,18.508,5.206,35.821,14.227,50.558     c-3.873,2.614-7.719,5.279-11.521,8.028c-16.224,11.73-31.554,24.552-45.931,38.359c-20.676-32.901-38.848-67.335-54.389-103.1     C81.433,89.885,83.491,87.725,85.609,85.607z M68.504,104.611c15.656,35.154,33.813,69.027,54.368,101.424     c-11.755,12.129-22.797,24.96-33.083,38.44c-3.71-5.987-8.072-11.61-13.08-16.739c-14.903-15.264-34.195-25.096-55.044-28.216     C29.943,164.892,45.834,132.58,68.504,104.611z M16.198,279.959c-1.27-13.136-1.471-26.338-0.663-39.509     c0.227-3.697,0.554-7.39,0.957-11.072c0.557-5.068,1.268-10.112,2.141-15.116c17.924,2.501,34.531,10.874,47.322,23.974     c5.697,5.835,10.417,12.418,14.101,19.511c-19.368,27.496-35.368,57.05-47.738,88.188     C23.896,324.977,18.439,302.814,16.198,279.959z M85.607,426.393c-6.564-6.566-12.688-13.451-18.388-20.607     c0.373,0.462,5.449,6.843-0.024-0.029c-0.06-0.083-0.114-0.169-0.178-0.25c-9.499-11.99-17.744-24.665-24.699-37.9     c-0.41-0.784-0.81-1.573-1.212-2.36c11.381-31.935,26.639-62.279,45.498-90.494c1.539,5.893,2.439,11.983,2.636,18.182     c-2.263,72.52,21.704,116.143,34.587,139.589c8.226,14.971,20.012,29.75,32.006,42.765     C130.031,463.487,106.27,447.056,85.607,426.393z M256,496.971c-22.773,0-45.058-3.153-66.373-9.224     c-17.179-15.807-39.801-39.121-52.627-62.463c-12.205-22.211-34.922-63.555-32.73-132.106c0.005-0.153,0.005-0.306,0-0.459     c-0.336-11.545-2.723-22.779-6.923-33.271c0.665-0.903,1.317-1.814,1.99-2.713c9.905-13.238,20.573-25.829,31.931-37.746     c20.41,30.817,43.023,60.245,67.731,88.119c53.545,60.403,115.583,111.974,184.529,153.441     C345.645,484.268,301.801,496.971,256,496.971z M495.888,278.96c-16.412-18.338-48.603-51.316-81.434-68.132     c-3.694-1.893-8.222-0.431-10.114,3.263c-1.892,3.694-0.432,8.222,3.263,10.114c37.696,19.308,76.226,63.468,85.588,74.602     c-8.571,48.074-31.545,92.331-66.799,127.585c-9.126,9.126-18.863,17.414-29.105,24.858     c-70.046-41.276-132.959-93.102-187.042-154.112c-24.941-28.136-47.697-57.891-68.17-89.077     c14.485-14.111,29.995-27.173,46.454-39.074c3.805-2.751,7.655-5.418,11.533-8.029c17.829,21.021,44.42,34.388,74.079,34.388     c0.153,0,0.306-0.005,0.458-0.014c39.135-2.393,72.842,2.792,106.085,16.316c0.928,0.377,1.886,0.556,2.829,0.556     c2.966,0,5.776-1.768,6.963-4.685c1.564-3.844-0.285-8.228-4.129-9.793c-34.852-14.179-71.629-19.874-112.429-17.41     c-24.281-0.065-46.106-10.736-61.108-27.602c65.206-40.521,139.794-61.82,217.459-61.82c0.411,0,0.821,0.005,1.232,0.006     c1.915,2.034,3.81,4.092,5.66,6.199c38.569,43.936,59.81,100.368,59.81,158.9C496.971,263.715,496.601,271.374,495.888,278.96z"/>
			<path d="M67.219,405.786c-0.016-0.02-0.026-0.033-0.024-0.029C67.203,405.767,67.211,405.776,67.219,405.786z"/>
		</g>
	</g>
</g>
<g>
</g>
<g>
</g>
<g>
</g>
<g>
</g>
<g>
</g>
<g>
</g>
<g>
</g>
<g>
</g>
<g>
</g>
<g>
</g>
<g>
</g>
<g>
</g>
<g>
</g>
<g>
</g>
<g>
</g>
</svg>
