<svg id="Capa_1" enable-background="new 0 0 497.5 497.5" height="512" viewBox="0 0 497.5 497.5" width="512" xmlns="http://www.w3.org/2000/svg"><g><path d="m437.578 120.5h-30l30 152.511c0 8.28 6.71 14.5 15 14.5 8.28 0 15-6.22 15-14.5v-122.511c0-16.5-13.5-30-30-30z" fill="#ff4e51"/><path d="m407.578 120.5h-37.833v142.011l29.999 10v146.073c0 10.447 8.469 18.916 18.917 18.916 10.447 0 18.916-8.469 18.916-18.916l.001-268.083c0-16.501-13.5-30.001-30-30.001z" fill="#ff7149"/><path d="m384.416.5v90c24.853 0 45-20.147 45-45s-20.147-45-45-45z" fill="#ff4e51"/><path d="m399.416 45.5c0-24.853-6.716-45-15-45-24.853 0-45 20.147-45 45s20.147 45 45 45c8.284 0 15-20.147 15-45z" fill="#ff7149"/><path d="m369.745 120.5h-30l30 152.511c0 8.28 6.71 14.5 15 14.5 8.28 0 15-6.22 15-14.5v-122.511c0-16.5-13.5-30-30-30z" fill="#ffb739"/><path d="m339.745 120.5h-37.833v142.011l29.999 10v146.073c0 10.447 8.469 18.916 18.917 18.916 10.447 0 18.916-8.469 18.916-18.916l.001-268.083c0-16.501-13.5-30.001-30-30.001z" fill="#ffd17e"/><path d="m316.582 0v90c24.853 0 45-20.147 45-45s-20.147-45-45-45z" fill="#ffb739"/><path d="m331.582 45c0-24.853-6.716-45-15-45-24.853 0-45 20.147-45 45s20.147 45 45 45c8.285 0 15-20.147 15-45z" fill="#ffd17e"/><path d="m59.922 120.5h30l-30 152.511c0 8.28-6.71 14.5-15 14.5-8.28 0-15-6.22-15-14.5v-122.511c0-16.5 13.5-30 30-30z" fill="#ff9441"/><path d="m89.922 120.5h37.833v142.011l-29.999 10v146.073c0 10.447-8.469 18.916-18.917 18.916-10.447 0-18.916-8.469-18.916-18.916l-.001-268.084c0-16.5 13.5-30 30-30z" fill="#ff7149"/><circle cx="113.084" cy="45.5" fill="#ff7149" r="45"/><path d="m127.755 120.5h30l-30 152.511c0 8.28-6.71 14.5-15 14.5-8.28 0-15-6.22-15-14.5v-122.511c0-16.5 13.5-30 30-30z" fill="#ffeac3"/><path d="m157.755 120.5h37.833v142.011l-29.343 10v146.073c0 10.447-9.126 18.916-19.573 18.916s-18.916-8.469-18.916-18.916l-.001-268.084c0-16.5 13.5-30 30-30z" fill="#ffd17e"/><circle cx="180.918" cy="45" fill="#ffd17e" r="45"/><path d="m301.912 120.5h-30l30 152.511c0 8.28 6.71 14.5 15 14.5 8.28 0 15-6.22 15-14.5v-122.511c0-16.5-13.5-30-30-30z" fill="#1c77db"/><path d="m196.246 120.5h30l-30 152.011c0 8.28-6.72 15-15 15s-15-6.72-15-15v-122.011c0-16.5 13.5-30 30-30z" fill="#54a5ff"/><path d="m301.912 150.5c0-16.5-13.5-30-30-30h-45.667c-16.5 0-30 13.5-30 30v268.084c0 10.447 8.469 18.916 18.917 18.916 10.447 0 18.917-8.469 18.917-18.916v-146.073h30v146.073c0 10.447 8.469 18.916 18.917 18.916 10.447 0 18.916-8.469 18.916-18.916z" fill="#1e8aff"/><path d="m248.75.5v90c24.853 0 45-20.147 45-45s-20.147-45-45-45z" fill="#1c77db"/><path d="m263.75 45.5c0-24.853-6.716-45-15-45-24.853 0-45 20.147-45 45s20.147 45 45 45c8.284 0 15-20.147 15-45z" fill="#1e8aff"/><path d="m316.912 467.5h-30v30h30c8.284 0 15-6.716 15-15s-6.715-15-15-15z" fill="#1e8aff"/><path d="m301.912 482.5c0-8.284-6.716-15-15-15h-105.666c-8.284 0-15 6.716-15 15s6.716 15 15 15h105.667c8.284 0 14.999-6.716 14.999-15z" fill="#54a5ff"/></g></svg>