<svg id="Capa_1" enable-background="new 0 0 497 497" height="512" viewBox="0 0 497 497" width="512" xmlns="http://www.w3.org/2000/svg"><g><path d="m218.5 180h-30l30 152.511c0 8.28 6.71 14.5 15 14.5 8.28 0 15-6.22 15-14.5l30-69.005-30-53.506c0-16.5-13.5-30-30-30z" fill="#1c77db"/><path d="m112.833 180h30l-30 152.011c0 8.28-6.72 15-15 15s-15-6.72-15-15v-122.011c0-16.5 13.5-30 30-30z" fill="#54a5ff"/><path d="m218.5 210c0-16.5-13.5-30-30-30h-45.667c-16.5 0-30 13.5-30 30v268.084c0 10.447 8.469 18.916 18.917 18.916 10.447 0 18.917-8.469 18.917-18.916v-146.073h30v146.073c0 10.447 8.469 18.916 18.917 18.916 10.447 0 18.916-8.469 18.916-18.916z" fill="#1e8aff"/><path d="m140.485 90v52.5c0 4.142 3.358 7.5 7.5 7.5h34.706c4.142 0 7.5-3.358 7.5-7.5v-52.5z" fill="#8c98a7"/><path d="m165.338 0c-33.137 0-60 26.863-60 60 0 16.569 6.716 31.569 17.574 42.427 0 0 17.573 17.573 17.573 17.573h49.706l17.574-17.573c10.857-10.858 17.573-25.858 17.573-42.427 0-33.137-26.863-60-60-60z" fill="#ffb739"/><circle cx="165.338" cy="60" fill="#ffd17e" r="30"/><path d="m384.167 180h-30l30 152.511c0 8.28 6.71 14.5 15 14.5 8.28 0 15-6.22 15-14.5v-122.511c0-16.5-13.5-30-30-30z" fill="#1c77db"/><path d="m278.5 180h30l-30 152.011c0 8.28-6.72 15-15 15s-15-6.72-15-15v-122.011c0-16.5 13.5-30 30-30z" fill="#54a5ff"/><path d="m384.167 210c0-16.5-13.5-30-30-30h-45.667c-16.5 0-30 13.5-30 30v268.084c0 10.447 8.469 18.916 18.917 18.916 10.447 0 18.917-8.469 18.917-18.916v-146.073h30v146.073c0 10.447 8.469 18.916 18.917 18.916 10.447 0 18.916-8.469 18.916-18.916z" fill="#1e8aff"/><path d="m306.152 90v52.5c0 4.142 3.358 7.5 7.5 7.5h34.706c4.142 0 7.5-3.358 7.5-7.5v-52.5z" fill="#8c98a7"/><path d="m331.004 0c-33.137 0-60 26.863-60 60 0 16.569 6.716 31.569 17.574 42.427 0 0 17.573 17.573 17.573 17.573h49.706l17.574-17.573c10.858-10.858 17.573-25.858 17.573-42.427 0-33.137-26.863-60-60-60z" fill="#ffb739"/><circle cx="331.004" cy="60" fill="#ffd17e" r="30"/></g></svg>