<svg id="Capa_1" enable-background="new 0 0 497.006 497.006" height="512" viewBox="0 0 497.006 497.006" width="512" xmlns="http://www.w3.org/2000/svg"><g><path d="m444.5 114.5h-37.5l-20-15h57.5z" fill="#57697d"/><path d="m444.5 15h-57.5l20-15h30.006z" fill="#57697d"/><path d="m90 114.5h-37.5v-15h57.5z" fill="#728192"/><path d="m110 15h-57.5l7.494-15h30.006z" fill="#728192"/><path d="m338.5 160.006c-8.284 0-15 6.716-15 15v67.5h-56.569l-18.75 30h75.319c16.569 0 30-13.431 30-30v-67.5c0-8.285-6.716-15-15-15z" fill="#1c77db"/><path d="m173.5 242.506v-67.5c0-8.284-6.716-15-15-15s-15 6.716-15 15v67.5c0 16.569 13.431 30 30 30h74.681l-14.662-30z" fill="#1e8aff"/><path d="m203.52 272.506v209.075c0 8.077 6.207 15.028 14.275 15.408 8.614.406 15.725-6.463 15.725-14.993v-116.99h30v116.575c0 8.077 6.207 15.028 14.275 15.408 8.614.406 15.725-6.463 15.725-14.993v-209.49c0-16.569-13.431-30-30-30h-30c-16.569 0-30 13.431-30 30z" fill="#1e8aff"/><path d="m248.181 137.506v75c20.711 0 37.5-16.789 37.5-37.5s-16.789-37.5-37.5-37.5z" fill="#1c77db"/><path d="m255.681 175.006c0-20.711-3.358-37.5-7.5-37.5-20.711 0-37.5 16.789-37.5 37.5s16.789 37.5 37.5 37.5c4.142 0 7.5-16.79 7.5-37.5z" fill="#1e8aff"/><path d="m452.011 335-.005 131.989 15 30.011h30v-132z" fill="#3d5168"/><path d="m467 497h-29.994v-132l29.994-30z" fill="#57697d"/><path d="m497.006 365h-30l-15-30.31v-304.696l15-29.994h30z" fill="#58bd57"/><path d="m437.006 0h30v365h-30z" fill="#74d173"/><path d="m30 497h29.994l.006-131.994-44.994-30-.006 141.994z" fill="#3d5168"/><path d="m29.994 497h-29.994v-131.994l29.994-30z" fill="#57697d"/><path d="m60 365.006h-30l-15-30.31v-304.696l15-30h30z" fill="#58bd57"/><path d="m0 0h30v365.006h-30z" fill="#74d173"/><path d="m407 114.5h-30l-105-57.25 105-57.25h30z" fill="#c0c8d2"/><path d="m90 0h287v114.5h-287z" fill="#dae0e7"/></g></svg>