<svg id="Capa_1" enable-background="new 0 0 497 497" height="512" viewBox="0 0 497 497" width="512" xmlns="http://www.w3.org/2000/svg"><g><path d="m383.665 177.13v-72.13c0-24.813-20.187-45-45-45h-30l30 30c8.25 0 15 6.75 15 15v47.043c-30.041-20.232-66.223-32.043-105.165-32.043s-75.124 11.811-105.165 32.043v-47.043c0-8.25 6.75-15 15-15l30-30h-30c-24.813 0-45 20.187-45 45v72.13c-33.002 33.951-53.335 80.282-53.335 131.37 0 104.106 84.394 188.5 188.5 188.5s188.5-84.394 188.5-188.5c0-51.088-20.333-97.419-53.335-131.37z" fill="#ff9441"/><path d="m248.5 150v317c87.537 0 158.5-70.963 158.5-158.5s-70.963-158.5-158.5-158.5z" fill="#ffb739"/><path d="m377 308.5c0-87.537-57.531-158.5-128.5-158.5-87.537 0-158.5 70.963-158.5 158.5s70.963 158.5 158.5 158.5c70.969 0 128.5-70.963 128.5-158.5z" fill="#ffd17e"/><circle cx="248.664" cy="308.499" fill="#ffeac3" r="128.5"/><path d="m195.831 329.999c-16.5 0-30 13.5-30 30v2.316c7.756 11.867 18.004 21.957 29.999 29.53l30.001-61.846z" fill="#ffd17e"/><path d="m301.498 329.999c16.5 0 30 13.5 30 30v2.316c-7.756 11.867-18.004 21.957-29.999 29.53l-30.001-61.846z" fill="#ff9441"/><path d="m195.831 359.999v31.845c15.198 9.597 33.2 15.155 52.504 15.155 19.582 0 37.827-5.718 53.162-15.57v-31.43c0-16.5-13.5-30-30-30h-45.667c-16.499 0-29.999 13.5-29.999 30z" fill="#ffb739"/><path d="m248.336 209.999v90c24.853 0 45-20.147 45-45s-20.148-45-45-45z" fill="#ff9441"/><path d="m263.336 254.999c0-24.853-6.716-45-15-45-24.853 0-45 20.147-45 45s20.147 45 45 45c8.284 0 15-20.147 15-45z" fill="#ffb739"/><path d="m338.5 90h-30l-34.333-45 34.333-45h22.5c4.142 0 7.5 3.358 7.5 7.5z" fill="#ff2b59"/><path d="m308.5 90h-30l-30-45 30-45h30z" fill="#ff4e51"/><path d="m158.336 90h30l30.164-45-30.164-45h-22.5c-4.142 0-7.5 3.358-7.5 7.5z" fill="#54a5ff"/><path d="m188.336 90h30l30.164-45-30.164-45h-30z" fill="#1e8aff"/><path d="m278.5 90h-30l-17.167-45 17.167-45h30z" fill="#ffd17e"/><path d="m218.336 0h30.164v90h-30.164z" fill="#ffeac3"/></g></svg>