<svg id="Capa_1" enable-background="new 0 0 504.5 504.5" height="512" viewBox="0 0 504.5 504.5" width="512" xmlns="http://www.w3.org/2000/svg"><g><path d="m412.028 270.852-81.2-136.176h-30l89.192 211.206c11.366-7.801 22.227-16.66 32.431-26.601 1.516-1.477 2.316-3.544 2.237-5.659-.578-15.598-5.125-30.182-12.66-42.77z" fill="#ff9441"/><path d="m382.028 270.852-81.2-136.176h-127.184l-81.172 136.176c-7.535 12.588-12.082 27.17-12.66 42.767-.078 2.117.722 4.186 2.239 5.664 47.286 46.076 108.565 69.155 169.869 69.237 48.296.065 96.601-14.158 138.098-42.639 3.067-9.063 4.731-18.773 4.731-28.871.001-16.873-4.643-32.662-12.721-46.158z" fill="#ffb739"/><path d="m305.083 120h-30l30 152.511c0 8.28 6.71 14.5 15 14.5 8.28 0 15-6.22 15-14.5v-122.511c0-16.5-13.5-30-30-30z" fill="#b33e78"/><path d="m199.417 120h30l-30 152.011c0 8.28-6.72 15-15 15s-15-6.72-15-15v-122.011c0-16.5 13.5-30 30-30z" fill="#ff4e51"/><path d="m305.083 150c0-16.5-13.5-30-30-30h-45.667c-16.5 0-30 13.5-30 30v268.084c0 10.447 8.469 18.916 18.917 18.916 10.447 0 18.917-8.469 18.917-18.916v-146.073h30v146.073c0 10.447 8.469 18.916 18.917 18.916 10.447 0 18.916-8.469 18.916-18.916z" fill="#ff2b59"/><g fill="#dae0e7"><path d="m252.249 504.5c-4.142 0-7.5-3.358-7.5-7.5v-43.699c0-4.142 3.358-7.5 7.5-7.5s7.5 3.358 7.5 7.5v43.699c.001 4.142-3.357 7.5-7.5 7.5z"/><path d="m222.249 504.5c-4.142 0-7.5-3.358-7.5-7.5v-30c0-4.142 3.358-7.5 7.5-7.5s7.5 3.358 7.5 7.5v30c0 4.142-3.357 7.5-7.5 7.5z"/><path d="m282.25 504.5c-4.143 0-7.5-3.358-7.5-7.5v-30c0-4.142 3.357-7.5 7.5-7.5s7.5 3.358 7.5 7.5v30c0 4.142-3.357 7.5-7.5 7.5z"/></g><path d="m311.144 40.3-27.109-27.119c-8.14-8.144-19.387-13.181-31.809-13.181l21.307 89.994h17.035c25.925 0 38.908-31.355 20.576-49.694z" fill="#b33e78"/><path d="m284.967 40.3-15.065-27.119c-4.523-8.144-10.773-13.181-17.676-13.181-12.422 0-23.668 5.037-31.808 13.18l-27.11 27.12c-18.332 18.338-5.348 49.694 20.576 49.694h59.649c14.406 0 21.621-31.355 11.434-49.694z" fill="#ff2b59"/></g></svg>