<svg id="Capa_1" enable-background="new 0 0 497 497" height="512" viewBox="0 0 497 497" width="512" xmlns="http://www.w3.org/2000/svg"><g><path d="m135.667 180h-30l30 152.511c0 8.28 6.71 14.5 15 14.5 8.28 0 15-6.22 15-14.5v-122.511c0-16.5-13.5-30-30-30z" fill="#1c77db"/><path d="m30 180h30l-30 152.011c0 8.28-6.72 15-15 15s-15-6.72-15-15v-122.011c0-16.5 13.5-30 30-30z" fill="#54a5ff"/><path d="m135.667 210c0-16.5-13.5-30-30-30h-45.667c-16.5 0-30 13.5-30 30v268.083c0 10.448 8.469 18.917 18.917 18.917 10.447 0 18.917-8.469 18.917-18.916v-146.073h30v146.073c0 10.447 8.469 18.916 18.917 18.916 10.447 0 18.916-8.469 18.916-18.916z" fill="#1e8aff"/><path d="m82.504 60v90c24.853 0 45-20.147 45-45s-20.147-45-45-45z" fill="#1c77db"/><path d="m97.504 105c0-24.853-6.716-45-15-45-24.853 0-45 20.147-45 45s20.147 45 45 45c8.285 0 15-20.147 15-45z" fill="#1e8aff"/><path d="m467 0-60 90 60 90h22.5c4.142 0 7.5-3.358 7.5-7.5v-165c0-4.142-3.358-7.5-7.5-7.5z" fill="#89c1ff"/><path d="m195.667 7.5v199.393c0 6.682 8.079 10.028 12.803 5.303l32.197-32.196h226.333v-180h-263.833c-4.142 0-7.5 3.358-7.5 7.5z" fill="#bfdcff"/><g fill="#233952"><path d="m437 67.5h-181.333c-4.143 0-7.5-3.358-7.5-7.5s3.357-7.5 7.5-7.5h181.333c4.143 0 7.5 3.358 7.5 7.5s-3.358 7.5-7.5 7.5z"/><path d="m437 97.5h-181.333c-4.143 0-7.5-3.358-7.5-7.5s3.357-7.5 7.5-7.5h181.333c4.143 0 7.5 3.358 7.5 7.5s-3.358 7.5-7.5 7.5z"/><path d="m437 127.5h-181.333c-4.143 0-7.5-3.358-7.5-7.5s3.357-7.5 7.5-7.5h181.333c4.143 0 7.5 3.358 7.5 7.5s-3.358 7.5-7.5 7.5z"/></g></g></svg>