<svg id="Capa_1" enable-background="new 0 0 504.5 504.5" height="512" viewBox="0 0 504.5 504.5" width="512" xmlns="http://www.w3.org/2000/svg"><g><path d="m500.75 195v37.5l-60 30 30-75h22.5c4.142 0 7.5 3.358 7.5 7.5z" fill="#a6b0bd"/><path d="m470.75 187.5v75l-60-30v-37.5c0-4.142 3.358-7.5 7.5-7.5z" fill="#c0c8d2"/><path d="m289.42 195v37.5l-45 30-45-30v-37.5c0-4.142 3.358-7.5 7.5-7.5h75c4.142 0 7.5 3.358 7.5 7.5z" fill="#c0c8d2"/><path d="m470.75 232.5-119.12 271.99c82.16-.84 149.12-68.31 149.12-150.66v-121.33z" fill="#b33e78"/><path d="m410.75 232.5v121.334c0 33.366-27.303 60.666-60.67 60.666s-60.667-27.3-60.667-60.666c.006-.004.006-121.334.006-121.334h-30.006l-15 15v166.334l105.667 60.666 105.667-60.666v-166.334l-15-15z" fill="#ff4e51"/><path d="m440.747 232.5v121.334c0 49.866-40.8 90.666-90.667 90.666s-90.667-40.8-90.667-90.666v-121.334h-59.993v121.33c0 82.87 67.8 150.67 150.66 150.67.52 0 1.04 0 1.55-.01 65.67-1.05 119.12-68.44 119.12-150.66v-121.33z" fill="#ff2b59"/><path d="m139.417 187.5h-30l30 152.511c0 8.28 6.71 14.5 15 14.5 8.28 0 15-6.22 15-14.5v-122.511c0-16.5-13.5-30-30-30z" fill="#1c77db"/><path d="m33.75 187.5h30l-30 152.011c0 8.28-6.72 15-15 15s-15-6.72-15-15v-122.011c0-16.5 13.5-30 30-30z" fill="#54a5ff"/><path d="m139.417 217.5c0-16.5-13.5-30-30-30h-45.667c-16.5 0-30 13.5-30 30v268.084c0 10.447 8.469 18.916 18.917 18.916 10.447 0 18.917-8.469 18.917-18.916v-146.073h30v146.073c0 10.447 8.469 18.916 18.917 18.916 10.447 0 18.916-8.469 18.916-18.916z" fill="#1e8aff"/><path d="m86.254 67.5v90c24.853 0 45-20.147 45-45s-20.147-45-45-45z" fill="#1c77db"/><path d="m101.254 112.5c0-24.853-6.716-45-15-45-24.853 0-45 20.147-45 45s20.147 45 45 45c8.285 0 15-20.147 15-45z" fill="#1e8aff"/><g fill="#c0c8d2"><path d="m455.75 165c-4.143 0-7.5-3.358-7.5-7.5v-15c0-4.142 3.357-7.5 7.5-7.5s7.5 3.358 7.5 7.5v15c0 4.142-3.357 7.5-7.5 7.5z"/><path d="m455.75 120c-4.143 0-7.5-3.358-7.5-7.5v-15c0-4.142 3.357-7.5 7.5-7.5s7.5 3.358 7.5 7.5v15c0 4.142-3.357 7.5-7.5 7.5z"/><path d="m455.75 30c-4.143 0-7.5-3.358-7.5-7.5v-15c0-4.142 3.357-7.5 7.5-7.5s7.5 3.358 7.5 7.5v15c0 4.142-3.357 7.5-7.5 7.5z"/><path d="m244.417 30c-4.143 0-7.5-3.358-7.5-7.5v-15c0-4.142 3.357-7.5 7.5-7.5s7.5 3.358 7.5 7.5v15c0 4.142-3.357 7.5-7.5 7.5z"/><path d="m455.75 75c-4.143 0-7.5-3.358-7.5-7.5v-15c0-4.142 3.357-7.5 7.5-7.5s7.5 3.358 7.5 7.5v15c0 4.142-3.357 7.5-7.5 7.5z"/><path d="m244.417 165c-4.143 0-7.5-3.358-7.5-7.5v-15c0-4.142 3.357-7.5 7.5-7.5s7.5 3.358 7.5 7.5v15c0 4.142-3.357 7.5-7.5 7.5z"/><path d="m244.417 120c-4.143 0-7.5-3.358-7.5-7.5v-15c0-4.142 3.357-7.5 7.5-7.5s7.5 3.358 7.5 7.5v15c0 4.142-3.357 7.5-7.5 7.5z"/><path d="m244.417 75c-4.143 0-7.5-3.358-7.5-7.5v-15c0-4.142 3.357-7.5 7.5-7.5s7.5 3.358 7.5 7.5v15c0 4.142-3.357 7.5-7.5 7.5z"/></g></g></svg>