<svg id="Capa_1" enable-background="new 0 0 511.971 511.971" height="512" viewBox="0 0 511.971 511.971" width="512" xmlns="http://www.w3.org/2000/svg"><g><path d="m309.148 186.295h-30l30 152.511c0 8.28 6.71 14.5 15 14.5 8.28 0 15-6.22 15-14.5v-122.511c0-16.5-13.5-30-30-30z" fill="#1c77db"/><path d="m203.481 186.295h30l-30 152.011c0 8.28-6.72 15-15 15s-15-6.72-15-15v-122.011c0-16.5 13.5-30 30-30z" fill="#54a5ff"/><path d="m309.148 216.295c0-16.5-13.5-30-30-30h-45.667c-16.5 0-30 13.5-30 30v268.083c0 10.447 8.469 18.916 18.917 18.916 10.447 0 18.917-8.469 18.917-18.916v-146.073h30v146.073c0 10.447 8.469 18.916 18.917 18.916 10.447 0 18.916-8.469 18.916-18.916z" fill="#1e8aff"/><path d="m255.985 66.295v90c24.853 0 45-20.147 45-45s-20.147-45-45-45z" fill="#1c77db"/><path d="m270.985 111.295c0-24.853-6.716-45-15-45-24.853 0-45 20.147-45 45s20.147 45 45 45c8.285 0 15-20.148 15-45z" fill="#1e8aff"/><g fill="#c0c8d2"><path d="m186.697 147.497c-2.943 0-5.736-1.744-6.932-4.632-8.42-20.33-8.409-42.75.033-63.129 1.585-3.827 5.974-5.645 9.799-4.059 3.827 1.585 5.644 5.973 4.059 9.799-6.909 16.678-6.92 35.02-.033 51.648 1.585 3.827-.232 8.214-4.059 9.799-.938.39-1.91.574-2.867.574z"/><path d="m154.629 160.78c-2.944 0-5.736-1.744-6.933-4.633-11.964-28.899-11.956-60.754.026-89.695 1.584-3.828 5.973-5.644 9.798-4.061 3.827 1.584 5.646 5.971 4.061 9.798-10.45 25.241-10.459 53.02-.026 78.22 1.584 3.827-.234 8.214-4.061 9.798-.937.389-1.909.573-2.865.573z"/><path d="m122.562 174.063c-2.944 0-5.737-1.744-6.933-4.634-15.284-36.928-15.277-79.304.02-116.262 1.583-3.828 5.971-5.648 9.798-4.062 3.827 1.584 5.646 5.971 4.062 9.798-13.788 33.313-13.794 71.507-.02 104.79 1.584 3.827-.234 8.214-4.062 9.798-.938.388-1.91.572-2.865.572z"/><path d="m90.494 187.346c-2.944 0-5.737-1.745-6.933-4.634-18.777-45.375-18.772-97.435.013-142.83 1.584-3.828 5.97-5.646 9.798-4.063 3.828 1.584 5.646 5.971 4.063 9.798-17.277 41.75-17.282 89.628-.013 131.359 1.583 3.827-.235 8.214-4.063 9.798-.938.389-1.91.572-2.865.572z"/><path d="m26.358 213.912c-2.944 0-5.737-1.745-6.933-4.635-12.889-31.153-19.425-64.119-19.425-97.982s6.536-66.83 19.425-97.983c1.583-3.828 5.97-5.646 9.797-4.063 3.828 1.583 5.646 5.97 4.063 9.797-24.256 58.625-24.256 125.872 0 184.497 1.583 3.827-.235 8.214-4.063 9.797-.937.389-1.908.572-2.864.572z"/><path d="m325.273 147.497c-.957 0-1.928-.184-2.867-.573-3.827-1.585-5.644-5.972-4.059-9.799 6.888-16.628 6.876-34.971-.033-51.648-1.585-3.827.232-8.214 4.059-9.799s8.214.232 9.799 4.059c8.442 20.379 8.453 42.799.033 63.129-1.196 2.888-3.989 4.631-6.932 4.631z"/><path d="m357.341 160.78c-.956 0-1.928-.184-2.866-.572-3.827-1.584-5.646-5.972-4.061-9.798 10.433-25.2 10.424-52.979-.026-78.22-1.584-3.827.234-8.214 4.061-9.798 3.825-1.583 8.213.233 9.798 4.061 11.981 28.941 11.99 60.795.026 89.695-1.195 2.888-3.988 4.632-6.932 4.632z"/><path d="m389.409 174.063c-.956 0-1.927-.184-2.865-.572-3.827-1.584-5.646-5.971-4.062-9.798 13.775-33.282 13.768-71.477-.02-104.79-1.584-3.827.234-8.214 4.062-9.798 3.827-1.584 8.213.234 9.798 4.062 15.297 36.958 15.304 79.334.02 116.262-1.196 2.89-3.989 4.634-6.933 4.634z"/><path d="m421.477 187.346c-.956 0-1.927-.184-2.865-.572-3.828-1.584-5.646-5.971-4.063-9.798 17.269-41.73 17.264-89.609-.013-131.359-1.583-3.827.235-8.214 4.063-9.798 3.828-1.581 8.214.235 9.798 4.063 18.785 45.395 18.79 97.455.013 142.83-1.196 2.89-3.989 4.634-6.933 4.634z"/><path d="m453.545 200.629c-.956 0-1.927-.184-2.865-.572-3.827-1.583-5.646-5.97-4.063-9.798 20.762-50.177 20.76-107.74-.007-157.927-1.583-3.828.235-8.214 4.063-9.798 3.829-1.583 8.214.235 9.798 4.063 22.275 53.833 22.277 115.576.007 169.398-1.196 2.889-3.989 4.634-6.933 4.634z"/><path d="m485.612 213.912c-.956 0-1.926-.184-2.864-.572-3.828-1.583-5.646-5.97-4.063-9.797 24.256-58.625 24.256-125.872 0-184.497-1.583-3.827.235-8.214 4.063-9.797 3.826-1.585 8.213.235 9.797 4.063 12.89 31.153 19.425 64.12 19.425 97.983 0 33.864-6.536 66.83-19.425 97.983-1.195 2.889-3.989 4.634-6.933 4.634z"/><path d="m58.426 200.629c-2.944 0-5.737-1.745-6.933-4.634-22.271-53.822-22.268-115.566.007-169.398 1.584-3.827 5.97-5.646 9.798-4.063 3.827 1.583 5.646 5.97 4.063 9.798-20.767 50.188-20.769 107.75-.007 157.927 1.583 3.828-.235 8.214-4.063 9.798-.938.388-1.91.572-2.865.572z"/></g></g></svg>