<svg id="Capa_1" enable-background="new 0 0 497 497" height="512" viewBox="0 0 497 497" width="512" xmlns="http://www.w3.org/2000/svg"><g><path d="m472.732 71.02-27.109-27.119c-8.141-8.144-19.387-13.181-31.81-13.181l21.307 89.994h17.035c25.925 0 38.909-31.355 20.577-49.694z" fill="#ff4e51"/><path d="m446.555 71.02-15.065-27.119c-4.524-8.144-10.774-13.181-17.677-13.181-12.422 0-23.668 5.037-31.808 13.18l-27.11 27.12c-18.332 18.338-5.348 49.694 20.576 49.694h59.649c14.407 0 21.622-31.355 11.435-49.694z" fill="#ff7149"/><path d="m135.667 150.72h-30l30 152.511c0 8.28 6.71 14.5 15 14.5 8.28 0 15-6.22 15-14.5l30-69.005-30-53.505c0-16.501-13.5-30.001-30-30.001z" fill="#a6b0bd"/><path d="m30 150.72h30l-30 152.011c0 8.28-6.72 15-15 15s-15-6.72-15-15v-122.011c0-16.5 13.5-30 30-30z" fill="#dae0e7"/><path d="m135.667 180.72c0-16.5-13.5-30-30-30h-45.667c-16.5 0-30 13.5-30 30v268.083c0 10.447 8.469 18.916 18.917 18.916 10.447 0 18.917-8.469 18.917-18.916v-146.072h30v146.073c0 10.447 8.469 18.916 18.917 18.916 10.447 0 18.916-8.469 18.916-18.916z" fill="#c0c8d2"/><path d="m82.504 30.72v90c24.853 0 45-20.147 45-45s-20.147-45-45-45z" fill="#a6b0bd"/><path d="m97.504 75.72c0-24.853-6.716-45-15-45-24.853 0-45 20.147-45 45s20.147 45 45 45c8.285 0 15-20.147 15-45z" fill="#c0c8d2"/><path d="m301.333 150.72h-30l30 152.511c0 8.28 6.71 14.5 15 14.5 8.28 0 15-6.22 15-14.5l30-69.005-30-53.505c0-16.501-13.5-30.001-30-30.001z" fill="#1c77db"/><path d="m195.667 150.72h30l-30 152.011c0 8.28-6.72 15-15 15s-15-6.72-15-15v-122.011c0-16.5 13.5-30 30-30z" fill="#54a5ff"/><path d="m301.333 180.72c0-16.5-13.5-30-30-30h-45.667c-16.5 0-30 13.5-30 30v268.083c0 10.447 8.469 18.916 18.917 18.916 10.447 0 18.917-8.469 18.917-18.916v-146.072h30v146.073c0 10.447 8.469 18.916 18.917 18.916 10.447 0 18.916-8.469 18.916-18.916z" fill="#1e8aff"/><path d="m269.317 29.28c-3.113 0-6.11.492-8.922 1.397l-11.895 90.043 41.452-41.529c5.281-5.291 8.547-12.6 8.547-20.674.001-16.147-13.065-29.237-29.182-29.237z" fill="#1c77db"/><path d="m268.5 58.517c0-13.029-3.404-24.063-8.105-27.84-4.554 1.465-8.622 4.019-11.895 7.357-5.295-5.401-12.664-8.754-20.817-8.754-16.117 0-29.183 13.09-29.183 29.237 0 8.074 3.266 15.383 8.547 20.674l41.453 41.529 16.581-41.529c2.112-5.291 3.419-12.6 3.419-20.674z" fill="#1e8aff"/><path d="m467 150.72h-30l30 152.511c0 8.28 6.71 14.5 15 14.5 8.28 0 15-6.22 15-14.5v-122.511c0-16.5-13.5-30-30-30z" fill="#ff4e51"/><path d="m361.333 150.72h30l-30 152.011c0 8.28-6.72 15-15 15s-15-6.72-15-15v-122.011c0-16.5 13.5-30 30-30z" fill="#ff9441"/><path d="m467 180.72c0-16.5-13.5-30-30-30h-45.667c-16.5 0-30 13.5-30 30v268.083c0 10.447 8.469 18.916 18.917 18.916 10.447 0 18.917-8.469 18.917-18.916v-146.072h30v146.073c0 10.447 8.469 18.916 18.917 18.916 10.447 0 18.916-8.469 18.916-18.916z" fill="#ff7149"/></g></svg>