<svg id="Capa_1" enable-background="new 0 0 497 497" height="512" viewBox="0 0 497 497" width="512" xmlns="http://www.w3.org/2000/svg"><g><path d="m179.565 100.3-27.109-27.119c-8.14-8.144-19.387-13.181-31.809-13.181l21.307 89.994h17.035c25.925 0 38.908-31.355 20.576-49.694z" fill="#b33e78"/><path d="m153.388 100.3-15.065-27.119c-4.523-8.144-10.773-13.181-17.676-13.181-12.422 0-23.668 5.037-31.808 13.18l-27.11 27.12c-18.332 18.338-5.348 49.694 20.576 49.694h59.649c14.407 0 21.621-31.355 11.434-49.694z" fill="#ff2b59"/><path d="m173.833 180h-30l30 152.511c0 8.28 6.71 14.5 15 14.5 8.28 0 15-6.22 15-14.5v-122.511c0-16.5-13.5-30-30-30z" fill="#b33e78"/><path d="m68.167 180h30l-30 152.011c0 8.28-6.72 15-15 15s-15-6.72-15-15v-122.011c0-16.5 13.5-30 30-30z" fill="#ff4e51"/><path d="m173.833 210c0-16.5-13.5-30-30-30h-45.666c-16.5 0-30 13.5-30 30v268.084c0 10.447 8.469 18.916 18.917 18.916 10.446 0 18.916-8.469 18.916-18.916v-146.073h30v146.073c0 10.447 8.469 18.916 18.917 18.916 10.447 0 18.916-8.469 18.916-18.916z" fill="#ff2b59"/><path d="m443.833 427.071h-45l-20 15 20 15h45z" fill="#ff7149"/><path d="m248.833 427.071h150v30h-150z" fill="#ff9441"/><path d="m443.833 349.643h-45l-20 15 20 15h45z" fill="#ff7149"/><path d="m248.833 349.643h150v30h-150z" fill="#ff9441"/><path d="m443.833 272.214h-45l-20 15 20 15h45z" fill="#ff7149"/><path d="m248.833 272.214h150v30h-150z" fill="#ff9441"/><path d="m443.833 194.786h-45l-20 15 20 15h45z" fill="#ff7149"/><path d="m248.833 194.786h150v30h-150z" fill="#ff9441"/><path d="m443.833 117.357h-45l-20 15 20 15h45z" fill="#ff7149"/><path d="m248.833 117.357h150v30h-150z" fill="#ff9441"/><path d="m443.833 39.929h-45l-20 15 20 15h45z" fill="#ff7149"/><path d="m248.833 39.929h150v30h-150z" fill="#ff9441"/><g fill="#ffb739"><path d="m451.333 497h-15c-4.142 0-7.5-3.358-7.5-7.5v-482c0-4.142 3.358-7.5 7.5-7.5h15c4.142 0 7.5 3.358 7.5 7.5v482c0 4.142-3.358 7.5-7.5 7.5z"/><path d="m256.333 497h-15c-4.142 0-7.5-3.358-7.5-7.5v-482c0-4.142 3.358-7.5 7.5-7.5h15c4.142 0 7.5 3.358 7.5 7.5v482c0 4.142-3.358 7.5-7.5 7.5z"/></g></g></svg>