<svg id="Capa_1" enable-background="new 0 0 497 497" height="512" viewBox="0 0 497 497" width="512" xmlns="http://www.w3.org/2000/svg"><g><path d="m251.2.02v496.96c136-1.44 245.8-112.14 245.8-248.48s-109.8-247.04-245.8-248.48z" fill="#ffb739"/><path d="m251.2.02c-.9-.01-1.8-.02-2.7-.02-137.24 0-248.5 111.26-248.5 248.5s111.26 248.5 248.5 248.5c.9 0 1.8-.01 2.7-.02 113.9-1.72 205.8-112.31 205.8-248.48s-91.9-246.76-205.8-248.48z" fill="#ffd17e"/><path d="m332 113.7c-8.25 0-15 6.75-15 15v45c0 8.25 6.75 15 15 15s15-6.75 15-15v-45c0-8.25-6.75-15-15-15z" fill="#3d5168"/><path d="m165 113.703c-8.25 0-15 6.75-15 15v45c0 8.25 6.75 15 15 15s15-6.75 15-15v-45c0-8.25-6.75-15-15-15z" fill="#3d5168"/><path d="m256 286.203h-15c-4.142 0-7.5-3.358-7.5-7.5s3.358-7.5 7.5-7.5h15c4.142 0 7.5 3.358 7.5 7.5s-3.358 7.5-7.5 7.5z" fill="#ffb739"/><path d="m248.5 256.203c-14.286 0-27.407-6.559-35.997-17.996-2.488-3.312-1.82-8.013 1.492-10.501 3.312-2.489 8.014-1.82 10.501 1.492 5.73 7.629 14.479 12.004 24.004 12.004 9.524 0 18.273-4.375 24.004-12.004 2.487-3.312 7.188-3.979 10.501-1.492 3.312 2.488 3.98 7.189 1.492 10.501-8.591 11.437-21.711 17.996-35.997 17.996z" fill="#ff2b59"/></g></svg>