<svg id="Capa_1" enable-background="new 0 0 497 497" height="512" viewBox="0 0 497 497" width="512" xmlns="http://www.w3.org/2000/svg"><g><path d="m300 286h-30v60h30c16.54 0 30-13.46 30-30s-13.46-30-30-30z" fill="#1e8aff"/><path d="m300 166h-30v60h30c16.54 0 30-13.46 30-30s-13.46-30-30-30z" fill="#1e8aff"/><path d="m270 166c16.54 0 30 13.46 30 30s-13.46 30-30 30h-15v60h15c16.54 0 30 13.46 30 30s-13.46 30-30 30h-15v45c0 16.54-13.46 30-30 30s-30-13.46-30-30v-45h-60v45c0 16.54-13.46 30-30 30s-30-13.46-30-30v-45h-45c-16.54 0-30-13.46-30-30s13.46-30 30-30h45v-60h-45c-16.54 0-30-13.46-30-30s13.46-30 30-30h45v-45c0-16.54 13.46-30 30-30s30 13.46 30 30v45h60v-45c0-16.54 13.46-30 30-30s30 13.46 30 30v45zm-75 120v-60h-60v60z" fill="#54a5ff"/><path d="m437 0v497c33.137 0 60-26.863 60-60v-377c0-33.137-26.863-60-60-60z" fill="#1e8aff"/><path d="m467 437v-377c0-33.137-13.432-60-30-60-33.137 0-60 26.863-60 60v377c0 33.137 26.863 60 60 60 16.569 0 30-26.863 30-60z" fill="#54a5ff"/></g></svg>