<svg id="Capa_1" enable-background="new 0 0 498.319 498.319" height="512" viewBox="0 0 498.319 498.319" width="512" xmlns="http://www.w3.org/2000/svg"><g><path d="m301.666 221.319v247l90-60v-187z" fill="#ff9e90"/><path d="m211.666 153.319v-123.319c0-16.57-13.43-30-30-30s-30 13.43-30 30v131.319h-15v277h225v-225z" fill="#ffb4b3"/><path d="m151.666 258.319-.014-97c0-16.569-13.431-30-30-30s-30 13.431-30 30l.014 159.803c0 19.185 4.6 38.09 13.414 55.131l16.586 32.067 150 60v-90c0-66.331-53.67-120.001-120-120.001z" fill="#ffcad6"/><path d="m391.666 408.319v60h-240l210-60z" fill="#dae0e7"/><path d="m211.666 318.319h60v240h-60z" fill="#fff" transform="matrix(0 -1 1 0 -196.653 679.985)"/><path d="m361.666 146.319-15 52.5 15 52.5c16.569 0 30-13.431 30-30v-45c0-16.569-13.431-30-30-30z" fill="#ffb4b3"/><path d="m331.666 176.319-30 22.5 30 22.5c0 16.569 13.431 30 30 30v-105c-16.569 0-30 13.431-30 30z" fill="#ffcad6"/><path d="m301.666 131.319-15 60 15 60c16.569 0 30-13.431 30-30v-60c0-16.569-13.431-30-30-30z" fill="#ffb4b3"/><path d="m271.666 161.319-30 30 30 30c0 16.569 13.431 30 30 30v-120c-16.569 0-30 13.431-30 30z" fill="#ffcad6"/><path d="m241.666 116.319-15 75 15 60c16.569 0 30-13.431 30-30v-75c0-16.569-13.431-30-30-30z" fill="#ffb4b3"/><path d="m211.666 146.319v75c0 16.569 13.431 30 30 30v-135c-16.569 0-30 13.431-30 30z" fill="#ffcad6"/><path d="m406.666 445.819v45c0 4.142-3.358 7.5-7.5 7.5h-22.5l-30-30 30-30h22.5c4.142 0 7.5 3.358 7.5 7.5z" fill="#57697d"/><path d="m376.666 438.319v60h-262.5c-4.142 0-7.5-3.358-7.5-7.5v-45c0-4.142 3.358-7.5 7.5-7.5z" fill="#728192"/></g></svg>