<svg id="Capa_1" enable-background="new 0 0 497 497" height="512" viewBox="0 0 497 497" width="512" xmlns="http://www.w3.org/2000/svg"><g><path d="m489.5 233.5h-22.5l-15 15 15 15h22.5c4.142 0 7.5-3.358 7.5-7.5v-15c0-4.142-3.358-7.5-7.5-7.5z" fill="#57697d"/><path d="m436.406 233.5c-7.255-92.143-80.763-165.651-172.906-172.906v-53.094c0-4.142-3.358-7.5-7.5-7.5h-15c-4.142 0-7.5 3.358-7.5 7.5v53.094c-92.143 7.255-165.651 80.763-172.906 172.906h-53.094c-4.142 0-7.5 3.358-7.5 7.5v15c0 4.142 3.358 7.5 7.5 7.5h53.094c7.255 92.143 80.763 165.651 172.906 172.906v53.094c0 4.142 3.358 7.5 7.5 7.5h15c4.142 0 7.5-3.358 7.5-7.5v-53.094c92.143-7.255 165.651-80.763 172.906-172.906h30.594v-30zm-172.906 172.786v-60.286h-30v60.286c-75.449-7.117-135.669-67.337-142.786-142.786h60.786v-30h-60.786c7.117-75.449 67.337-135.669 142.786-142.786v60.286h30v-60.286c75.449 7.116 135.669 67.337 142.785 142.786h-59.785v30h59.785c-7.116 75.449-67.336 135.669-142.785 142.786z" fill="#728192"/><circle cx="249" cy="248.5" fill="#dae0e7" r="67.5"/><path d="m249 211v75c20.711 0 37.5-16.789 37.5-37.5s-16.789-37.5-37.5-37.5z" fill="#ff2b59"/><path d="m256.5 248.5c0-20.711-3.358-37.5-7.5-37.5-20.711 0-37.5 16.789-37.5 37.5s16.789 37.5 37.5 37.5c4.142 0 7.5-16.789 7.5-37.5z" fill="#ff4e51"/><path d="m278.5 353.5h-60c-4.143 0-7.5-3.358-7.5-7.5s3.357-7.5 7.5-7.5h60c4.143 0 7.5 3.358 7.5 7.5s-3.357 7.5-7.5 7.5zm68-67.5c-4.143 0-7.5-3.358-7.5-7.5v-60c0-4.142 3.357-7.5 7.5-7.5s7.5 3.358 7.5 7.5v60c0 4.142-3.357 7.5-7.5 7.5zm-195 0c-4.143 0-7.5-3.358-7.5-7.5v-60c0-4.142 3.357-7.5 7.5-7.5s7.5 3.358 7.5 7.5v60c0 4.142-3.357 7.5-7.5 7.5zm127-127.5h-60c-4.143 0-7.5-3.358-7.5-7.5s3.357-7.5 7.5-7.5h60c4.143 0 7.5 3.358 7.5 7.5s-3.357 7.5-7.5 7.5z" fill="#728192"/></g></svg>