<svg id="Capa_1" enable-background="new 0 0 497 497" height="512" viewBox="0 0 497 497" width="512" xmlns="http://www.w3.org/2000/svg"><g><path d="m248.5 0v497c137.243 0 248.5-111.257 248.5-248.5s-111.257-248.5-248.5-248.5z" fill="#89c1ff"/><path d="m467 248.5c0-137.243-97.826-248.5-218.5-248.5-137.243 0-248.5 111.257-248.5 248.5s111.257 248.5 248.5 248.5c120.674 0 218.5-111.257 218.5-248.5z" fill="#bfdcff"/><circle cx="248.5" cy="248.5" fill="#1e8aff" r="188.5"/><path d="m248.5 90v317c87.537 0 158.5-70.963 158.5-158.5s-70.963-158.5-158.5-158.5z" fill="#ffeac3"/><path d="m377 248.5c0-87.537-57.531-158.5-128.5-158.5-87.537 0-158.5 70.963-158.5 158.5s70.963 158.5 158.5 158.5c70.969 0 128.5-70.963 128.5-158.5z" fill="#fff"/><path d="m200.06 296.94-42.42 42.42c-23.26-23.25-37.64-55.38-37.64-90.86l30-30 30 30c0 18.92 7.67 36.04 20.06 48.44z" fill="#1e8aff"/><path d="m179.995 248.5h-59.991c-.007-32.888 12.544-65.775 37.632-90.863h42.426v42.426c-13.377 13.379-20.059 30.908-20.067 48.437z" fill="#74d173"/><path d="m200.06 200.06-42.42-42.42c23.25-23.26 55.38-37.64 90.86-37.64l30 30-30 30c-18.92 0-36.04 7.67-48.44 20.06z" fill="#ffd17e"/><path d="m248.5 179.995v-59.991c32.888-.007 65.775 12.544 90.863 37.632v42.426h-42.426c-13.379-13.377-30.908-20.059-48.437-20.067z" fill="#ffb739"/><path d="m296.94 200.06 42.42-42.42c23.26 23.25 37.64 55.38 37.64 90.86l-30 30-30-30c0-18.92-7.67-36.04-20.06-48.44z" fill="#ff7149"/><path d="m317.005 248.5h59.991c.007 32.888-12.544 65.775-37.632 90.863l-42.426-42.426c13.377-13.379 20.059-30.908 20.067-48.437z" fill="#ff2b59"/><path d="m226.599 253.624 21.901 93.351 21.901-93.351c.388-1.654.599-3.377.599-5.149 0-12.426-10.074-22.5-22.5-22.5s-22.5 10.074-22.5 22.5c0 1.773.211 3.495.599 5.149z" fill="#c0c8d2"/></g></svg>