<svg id="Capa_1" enable-background="new 0 0 497 497" height="512" viewBox="0 0 497 497" width="512" xmlns="http://www.w3.org/2000/svg"><g><path d="m434.823 70.964 21.213 21.213c2.929 2.929 2.929 7.678 0 10.607l-15.91 15.91-26.517-5.303-5.303-26.517 15.91-15.91c2.929-2.929 7.678-2.929 10.607 0z" fill="#728192"/><path d="m359.149 107.236h76.231v45h-76.231z" fill="#a6b0bd" transform="matrix(.707 -.707 .707 .707 24.619 318.907)"/><path d="m62.177 70.964-21.213 21.213c-2.929 2.929-2.929 7.678 0 10.607l15.91 15.91 26.517-5.303 5.303-26.517-15.91-15.91c-2.929-2.929-7.678-2.929-10.607 0z" fill="#8c98a7"/><path d="m77.236 91.62h45v76.231h-45z" fill="#c0c8d2" transform="matrix(.707 -.707 .707 .707 -62.525 108.523)"/><path d="m218.5 15h60v60h-60z" fill="#c0c8d2"/><path d="m248.5 60v437c120.674 0 218.5-97.826 218.5-218.5s-97.826-218.5-218.5-218.5z" fill="#8c98a7"/><path d="m437 278.5c0-120.674-84.394-218.5-188.5-218.5-120.674 0-218.5 97.826-218.5 218.5s97.826 218.5 218.5 218.5c104.106 0 188.5-97.826 188.5-218.5z" fill="#a6b0bd"/><path d="m248.5 90v377c104.106 0 188.5-84.394 188.5-188.5s-84.394-188.5-188.5-188.5z" fill="#bfdcff"/><path d="m407 278.5c0-104.106-70.963-188.5-158.5-188.5-104.106 0-188.5 84.394-188.5 188.5s84.394 188.5 188.5 188.5c87.537 0 158.5-84.394 158.5-188.5z" fill="#fff"/><g fill="#3d5168"><circle cx="248.5" cy="120" r="7.5"/><circle cx="207.477" cy="125.401" r="7.5"/><circle cx="169.25" cy="141.235" r="7.5"/><circle cx="136.424" cy="166.424" r="7.5"/><circle cx="111.235" cy="199.25" r="7.5"/><circle cx="95.401" cy="237.477" r="7.5"/><circle cx="90" cy="278.5" r="7.5"/><circle cx="95.401" cy="319.523" r="7.5"/><circle cx="111.235" cy="357.75" r="7.5"/><circle cx="136.424" cy="390.576" r="7.5"/><circle cx="169.25" cy="415.765" r="7.5"/><circle cx="207.477" cy="431.599" r="7.5"/><circle cx="248.5" cy="437" r="7.5"/><circle cx="289.523" cy="431.599" r="7.5"/><circle cx="327.75" cy="415.765" r="7.5"/><circle cx="360.576" cy="390.576" r="7.5"/><circle cx="385.765" cy="357.75" r="7.5"/><circle cx="401.599" cy="319.523" r="7.5"/><circle cx="407" cy="278.5" r="7.5"/><circle cx="401.599" cy="237.477" r="7.5"/><circle cx="385.765" cy="199.25" r="7.5"/><circle cx="360.576" cy="166.424" r="7.5"/><circle cx="327.75" cy="141.235" r="7.5"/><circle cx="289.523" cy="125.401" r="7.5"/></g><path d="m248.5 150 98.5 128.5h30c0-70.969-57.531-128.5-128.5-128.5z" fill="#1e8aff"/><path d="m248.5 150v128.5h98.5c0-70.969-44.1-128.5-98.5-128.5z" fill="#54a5ff"/><path d="m278.5 0h-30v30h30c8.284 0 15-6.716 15-15s-6.716-15-15-15z" fill="#1c77db"/><path d="m263.5 15c0-8.284-6.716-15-15-15h-30c-8.284 0-15 6.716-15 15s6.716 15 15 15h30c8.284 0 15-6.716 15-15z" fill="#1e8aff"/></g></svg>