<svg id="Capa_1" enable-background="new 0 0 497 497" height="512" viewBox="0 0 497 497" width="512" xmlns="http://www.w3.org/2000/svg"><g><path d="m422 0h-347c-41.421 0-75 33.579-75 75v347c0 41.421 33.579 75 75 75h347c41.421 0 75-33.579 75-75v-347c0-41.421-33.579-75-75-75zm45 422c0 24.813-20.187 45-45 45h-347c-24.813 0-45-20.187-45-45v-347c0-24.813 20.187-45 45-45h347c24.813 0 45 20.187 45 45z" fill="#bfdcff"/><path d="m488.59 184.17h-57.37v128.66h57.37c5.49-20.52 8.41-42.08 8.41-64.33s-2.92-43.81-8.41-64.33z" fill="#ffd17e"/><path d="m461.22 191.5c3.78 18.3 5.78 37.39 5.78 57s-2 38.7-5.78 57l-30 7.33-54.7-30.03c2.92-10.94 4.48-22.44 4.48-34.3s-1.56-23.36-4.48-34.3l54.7-30.03z" fill="#ffeac3"/><path d="m461.22 305.5-212.72 133.5 64.33 49.59c85.54-22.86 152.9-90.22 175.76-175.76z" fill="#ff2b59"/><path d="m376.52 282.8 84.7 22.7c-17.8 86.25-75.1 155.19-149.01 180.77l-63.71-47.27 34.3-62.48c45.61-12.19 81.53-48.11 93.72-93.72z" fill="#ff4e51"/><path d="m461.22 191.5-212.72-133.5 64.33-49.59c85.54 22.86 152.9 90.22 175.76 175.76z" fill="#ff2b59"/><path d="m376.52 214.2 84.7-22.7c-17.8-86.25-75.1-155.19-149.01-180.77l-63.71 47.27 34.3 62.48c45.61 12.19 81.53 48.11 93.72 93.72z" fill="#ff4e51"/><path d="m8.41 184.17 51.83-16.112 60.24 46.142c-2.92 10.94-4.48 22.44-4.48 34.3s1.56 23.36 4.48 34.3l-60.24 46.142-51.83-16.112c-5.49-20.52-8.41-42.08-8.41-64.33s2.92-43.81 8.41-64.33z" fill="#ffeac3"/><path d="m184.17 8.41 64.33 49.59-34.3 62.48c-45.61 12.19-81.53 48.11-93.72 93.72l-112.07-30.03c22.86-85.54 90.22-152.9 175.76-175.76z" fill="#ff4e51"/><path d="m184.17 488.59 64.33-49.59-34.3-62.48c-45.61-12.19-81.53-48.11-93.72-93.72l-112.07 30.03c22.86 85.54 90.22 152.9 175.76 175.76z" fill="#ff4e51"/><path d="m312.21 486.27-60.89 10.71c21.25-.23 41.86-3.14 61.51-8.39z" fill="#ffd17e"/><path d="m282.8 376.52 29.41 109.75c-19.3 6.68-39.73 10.4-60.89 10.71-.94.01-1.88.02-2.82.02-22.25 0-43.81-2.92-64.33-8.41l30.03-112.07c10.94 2.92 22.44 4.48 34.3 4.48s23.36-1.56 34.3-4.48z" fill="#ffeac3"/><path d="m251.32.02 60.89 10.71.62-2.32c-19.65-5.25-40.26-8.16-61.51-8.39z" fill="#ffd17e"/><path d="m312.21 10.73-29.41 109.75c-10.94-2.92-22.44-4.48-34.3-4.48s-23.36 1.56-34.3 4.48l-30.03-112.07c20.52-5.49 42.08-8.41 64.33-8.41.94 0 1.88.01 2.82.02 21.16.31 41.59 4.03 60.89 10.71z" fill="#ffeac3"/></g></svg>