<svg id="Capa_1" enable-background="new 0 0 497 497" height="512" viewBox="0 0 497 497" width="512" xmlns="http://www.w3.org/2000/svg"><g><path d="m413.5 7.5v52.5l-60 30 30-90h22.5c4.142 0 7.5 3.358 7.5 7.5z" fill="#233952"/><path d="m383.5 0v90l-75-30v-52.5c0-4.142 3.358-7.5 7.5-7.5z" fill="#3d5168"/><path d="m383.5 60-30 75h60v-75z" fill="#3d5168"/><path d="m308.5 60h75v75h-75z" fill="#57697d"/><path d="m188.5 7.5v52.5l-60 30 30-90h22.5c4.142 0 7.5 3.358 7.5 7.5z" fill="#233952"/><path d="m158.5 0v90l-75-30v-52.5c0-4.142 3.358-7.5 7.5-7.5z" fill="#3d5168"/><path d="m158.5 60-30 75h60v-75z" fill="#3d5168"/><path d="m83.5 60h75v75h-75z" fill="#57697d"/><path d="m278.5 67.5v67.5h-60v-67.5c0-4.142 3.358-7.5 7.5-7.5h45c4.142 0 7.5 3.358 7.5 7.5z" fill="#74d173"/><path d="m188.5 105-30 60 30 60h120l30-60-30-60z" fill="#3d5168"/><path d="m158.5 105-30 60 30 60h30v-120z" fill="#728192"/><path d="m278.5 135v60h-30l-15-30 15-30z" fill="#58bd57"/><path d="m218.5 135h30v60h-30z" fill="#74d173"/><path d="m443.5 105h-30v165h45v-150c0-8.28-6.72-15-15-15z" fill="#728192"/><path d="m158.5 105v150h-120v-135c0-8.28 6.72-15 15-15z" fill="#8c98a7"/><path d="m428.5 120v150h-120v-165h105c8.28 0 15 6.72 15 15z" fill="#8c98a7"/><path d="m227 437v52.5c0 4.142-3.358 7.5-7.5 7.5h-22.5l-30-90z" fill="#233952"/><path d="m197 347v150h-189.5c-4.142 0-7.5-3.358-7.5-7.5v-52.5z" fill="#3d5168"/><path d="m219.65 347.99-31.15-122.99h-30l38.5 212h30v-30.08c0-19.87-2.47-39.66-7.35-58.93z" fill="#3d5168"/><path d="m197 406.92v30.08h-197v-30.08c0-19.87 2.47-39.66 7.35-58.93l31.15-122.99h120l31.15 122.99c4.88 19.27 7.35 39.06 7.35 58.93z" fill="#57697d"/><path d="m497 437v52.5c0 4.142-3.358 7.5-7.5 7.5h-22.5l-30-90z" fill="#233952"/><path d="m467 347v150h-189.5c-4.142 0-7.5-3.358-7.5-7.5v-52.5z" fill="#3d5168"/><path d="m489.65 347.99-31.15-122.99h-30l38.5 212h30v-30.08c0-19.87-2.47-39.66-7.35-58.93z" fill="#3d5168"/><path d="m467 406.92v30.08h-197v-30.08c0-19.87 2.47-39.66 7.35-58.93l31.15-122.99h120l31.15 122.99c4.88 19.27 7.35 39.06 7.35 58.93z" fill="#57697d"/></g></svg>