<svg id="Capa_1" enable-background="new 0 0 497.171 497.171" height="512" viewBox="0 0 497.171 497.171" width="512" xmlns="http://www.w3.org/2000/svg"><g><path d="m334.395 476.201-7.733 16.632c-1.23 2.646-3.883 4.338-6.801 4.338h-25.216l-16.06-74.99 60 30v5.05c0 6.55-1.43 13.02-4.19 18.97z" fill="#c0c8d2"/><path d="m308.585 457.231v-50.05l-150 45v5.05c0 6.55 1.43 13.02 4.19 18.97l7.733 16.632c1.23 2.646 3.883 4.338 6.801 4.338h117.336l9.75-20.97c2.76-5.95 4.19-12.42 4.19-18.97z" fill="#dae0e7"/><path d="m338.585 452.181v-75h-60l30 75z" fill="#3d5168"/><path d="m158.585 377.181h150v75h-150z" fill="#57697d"/><path d="m385.925 56.272c-38.082-37.515-87.711-56.272-137.339-56.272l60 422.177h30c8.284 0 15-6.716 15-15v-39.633l32.169-32.169c76.706-76.707 77.451-202.975.17-279.103z" fill="#ffb739"/><path d="m323.586 407.177v-52.059l40.956-40.957c31.745-31.746 49.15-74.152 49.036-119.43-.09-50.378-16.275-100.615-48.782-138.459-32.223-37.515-74.217-56.272-116.21-56.272-49.629 0-99.258 18.757-137.34 56.272-77.28 76.128-76.536 202.396.171 279.103l32.169 32.169v39.633c0 8.284 6.716 15 15 15h52.487l37.513-30 37.513 30h22.487c8.284 0 15-6.715 15-15z" fill="#ffd17e"/><path d="m248.586 279.683c16.569 0 30 13.431 30 30v30l-45 15z" fill="#ffeac3"/><path d="m218.586 339.683v-30c0-16.569 13.431-30 30-30v75z" fill="#fff"/><path d="m248.586 422.177-15-41.247 15-41.247h30l-7.488 82.494z" fill="#ff9441"/><path d="m248.586 422.177h-22.513l-7.487-82.494h30z" fill="#ffb739"/><path d="m308.598 157.5c-20.678 0-37.5 16.822-37.5 37.5v22.5h-45.025v-22.5c0-20.678-16.822-37.5-37.5-37.5s-37.5 16.822-37.5 37.5 16.822 37.5 37.5 37.5h22.5v189.678h15v-189.678h45.025v189.678h15v-189.678h22.5c20.678 0 37.5-16.822 37.5-37.5s-16.822-37.5-37.5-37.5zm-97.525 60h-22.5c-12.406 0-22.5-10.094-22.5-22.5s10.094-22.5 22.5-22.5 22.5 10.094 22.5 22.5zm97.525 0h-22.5v-22.5c0-12.406 10.094-22.5 22.5-22.5s22.5 10.094 22.5 22.5-10.093 22.5-22.5 22.5z" fill="#fff"/></g></svg>