<svg id="Capa_1" enable-background="new 0 0 497 497" height="512" viewBox="0 0 497 497" width="512" xmlns="http://www.w3.org/2000/svg"><g><path d="m407 384.5v-93.283c0-11.749-12.894-18.937-22.887-12.759l-7.113 4.397-30 54.572 30 54.573h22.5c4.142 0 7.5-3.358 7.5-7.5z" fill="#58bd57"/><path d="m384.113 218.541c9.993 6.178 22.887-1.01 22.887-12.759v-93.282c0-4.142-3.358-7.5-7.5-7.5h-22.5l-30 54.572 30 54.572z" fill="#58bd57"/><path d="m347 293.5c-24.868 0-45.024-20.171-45-45.045.024-24.268 19.735-44.414 43.997-44.944 9.086-.198 17.572 2.305 24.724 6.752l6.279 3.882v-109.145h-85.783c-11.748 0-18.937-12.894-12.759-22.887l8.279-13.392c4.446-7.152 6.95-15.636 6.752-24.722-.529-24.263-20.675-43.975-44.944-43.999-24.873-.024-45.045 20.132-45.045 45 0 8.708 2.48 16.833 6.763 23.721l8.279 13.392c6.178 9.993-1.01 22.887-12.759 22.887h-108.283c-4.142 0-7.5 3.358-7.5 7.5v94.802c1.055 10.832 13.252 17.145 22.805 11.239l13.392-8.279c7.152-4.446 15.637-6.95 24.724-6.752 24.262.53 43.973 20.676 43.997 44.944.024 24.874-20.132 45.045-45 45.045-8.708 0-16.833-2.48-23.721-6.763l-13.392-8.279c-9.554-5.906-21.75.407-22.805 11.239v94.804c0 4.142 3.358 7.5 7.5 7.5h108.282c11.749 0 18.937 12.894 12.759 22.887l-8.279 13.392c-4.446 7.152-6.95 15.638-6.752 24.724.529 24.263 20.679 43.975 44.948 43.997 24.872.022 45.041-20.134 45.041-45 0-8.708-2.48-16.833-6.763-23.721l-8.279-13.392c-6.178-9.993 1.01-22.887 12.759-22.887h85.784v-109.145l-6.279 3.882c-6.888 4.283-15.013 6.763-23.721 6.763z" fill="#74d173"/></g></svg>