<svg id="Capa_1" enable-background="new 0 0 497 497" height="512" viewBox="0 0 497 497" width="512" xmlns="http://www.w3.org/2000/svg"><g><path d="m263.5 423.5h-30v-205.002l15 30 15-30z" fill="#58bd57"/><path d="m338.5 429.5c-5.136 0-10.129.596-14.935 1.688l52.435 65.812h22.031c4.528 0 8.005-3.981 7.443-8.474-4.169-33.28-32.565-59.026-66.974-59.026z" fill="#ff2b59"/><path d="m323.565 431.188c-3.581.813-7.06 1.893-10.401 3.247-16.362-16.908-39.277-27.435-64.664-27.435s-48.302 10.527-64.664 27.435c-7.825-3.172-16.373-4.935-25.336-4.935-34.409 0-62.805 25.746-66.973 59.026-.563 4.493 2.914 8.474 7.443 8.474h277.03c0-32.1-22.408-58.967-52.435-65.812z" fill="#ff4e51"/><circle cx="218.5" cy="467" fill="#ff2b59" r="7.5"/><circle cx="248.5" cy="437" fill="#ff2b59" r="7.5"/><path d="m15.902.032c-4.484-.293-8.598 1.432-11.517 4.351l244.115 244.115c0-131.789-102.915-239.993-232.598-248.466z" fill="#74d173"/><path d="m10.999 4.935c-3.189-1.588-5.499-1.667-6.614-.552-2.919 2.919-4.644 7.033-4.351 11.517 8.473 129.683 116.677 232.598 248.466 232.598-40.724-91.065-145.273-197.635-237.501-243.563z" fill="#58bd57"/><path d="m481.098.032c4.484-.293 8.598 1.432 11.517 4.351l-244.115 244.115c0-131.789 102.915-239.993 232.598-248.466z" fill="#74d173"/><path d="m496.966 15.9c.293-4.484-1.432-8.598-4.351-11.517l-244.115 244.115c131.789 0 239.993-102.915 248.466-232.598z" fill="#3a9a99"/><path d="m493.697 12.631c1.156-3.621.634-6.531-1.082-8.248-1.115-1.115-3.425-1.036-6.614.552-92.228 45.928-196.777 152.498-237.501 243.563 104.64-27.149 211.754-131.153 245.197-235.867z" fill="#4ca34b"/></g></svg>