<svg id="Capa_1" enable-background="new 0 0 497 497" height="512" viewBox="0 0 497 497" width="512" xmlns="http://www.w3.org/2000/svg"><g><path d="m437 203.5v90h52.5c4.142 0 7.5-3.358 7.5-7.5v-75c0-4.142-3.358-7.5-7.5-7.5z" fill="#a6b0bd"/><path d="m0 211v75c0 4.142 3.358 7.5 7.5 7.5h52.5v-90h-52.5c-4.142 0-7.5 3.358-7.5 7.5z" fill="#dae0e7"/><path d="m337 203.5h-50l-30 45 30 45h50z" fill="#a6b0bd"/><path d="m115 203.5h172v90h-172z" fill="#c0c8d2"/><path d="m347 173.5h20v150h-20c-16.569 0-30-13.431-30-30v-90c0-16.569 13.431-30 30-30z" fill="#c0c8d2"/><path d="m150 173.5h-20v150h20c16.569 0 30-13.431 30-30v-90c0-16.569-13.431-30-30-30z" fill="#dae0e7"/><path d="m437 128.5h-45v240h45c16.569 0 30-13.431 30-30v-180c0-16.569-13.431-30-30-30z" fill="#3d5168"/><path d="m392 68.5h-30v360h30c16.569 0 30-13.431 30-30v-300c0-16.569-13.431-30-30-30z" fill="#233952"/><path d="m392 398.5v-300c0-16.569-13.431-30-30-30h-7.5c-4.142 0-7.5 3.358-7.5 7.5v345c0 4.142 3.358 7.5 7.5 7.5h7.5c16.569 0 30-13.431 30-30z" fill="#3d5168"/><path d="m60 128.5c-16.569 0-30 13.431-30 30v180c0 16.569 13.431 30 30 30h45v-240z" fill="#57697d"/><path d="m120 68.5-30 180 30 180h22.5c4.142 0 7.5-3.358 7.5-7.5v-345c0-4.142-3.358-7.5-7.5-7.5z" fill="#233952"/><path d="m105 68.5c-16.569 0-30 13.431-30 30v300c0 16.569 13.431 30 30 30h15v-360z" fill="#3d5168"/></g></svg>