<svg id="Capa_1" enable-background="new 0 0 497 497" height="512" viewBox="0 0 497 497" width="512" xmlns="http://www.w3.org/2000/svg"><g><path d="m51.571 9.144c-11.716-11.715-30.711-11.715-42.427 0s-11.716 30.711 0 42.426c7.851 7.851 18.968 10.432 28.975 7.762l45.271 45.271 21.213-21.213-45.271-45.271c2.671-10.007.089-21.124-7.761-28.975z" fill="#c0c8d2"/><circle cx="248.5" cy="248.5" fill="#a6b0bd" r="248.5"/><path d="m248.5 30v437c120.674 0 218.5-97.826 218.5-218.5s-97.826-218.5-218.5-218.5z" fill="#dae0e7"/><path d="m437 248.5c0-120.674-84.394-218.5-188.5-218.5-120.674 0-218.5 97.826-218.5 218.5s97.826 218.5 218.5 218.5c104.106 0 188.5-97.826 188.5-218.5z" fill="#fff"/><g fill="#c0c8d2"><path d="m248.5 414.5c-91.532 0-166-74.468-166-166s74.468-166 166-166 166 74.468 166 166-74.468 166-166 166zm0-317c-83.262 0-151 67.738-151 151s67.738 151 151 151 151-67.738 151-151-67.738-151-151-151z"/><path d="m248.5 384.5c-74.99 0-136-61.01-136-136s61.01-136 136-136 136 61.01 136 136-61.01 136-136 136zm0-257c-66.72 0-121 54.28-121 121s54.28 121 121 121 121-54.28 121-121-54.28-121-121-121z"/><path d="m377 241h30v15h-30z"/><path d="m342.469 334.97h15.001v30h-15.001z" transform="matrix(.707 -.707 .707 .707 -144.962 349.97)"/><path d="m132.03 342.469h30v15.001h-30z" transform="matrix(.707 -.707 .707 .707 -204.402 206.47)"/><path d="m90 241h30v15h-30z"/><path d="m139.53 132.03h15.001v30h-15.001z" transform="matrix(.707 -.707 .707 .707 -60.902 147.03)"/><path d="m334.97 139.53h30v15.001h-30z" transform="matrix(.707 -.707 .707 .707 -1.462 290.53)"/></g><path d="m301 248.5-52.5-30-52.5 30 52.5 188.5z" fill="#3d5168"/><path d="m301 248.5h-105l52.5-188.5z" fill="#ff4e51"/><circle cx="248.5" cy="248.5" fill="#c0c8d2" r="22.5"/></g></svg>