<svg id="Capa_1" enable-background="new 0 0 497 497" height="512" viewBox="0 0 497 497" width="512" xmlns="http://www.w3.org/2000/svg"><g><path d="m248.5 0c-8.284 0-15 6.716-15 15v467c0 8.284 6.716 15 15 15s15-6.716 15-15v-467c0-8.284-6.716-15-15-15z" fill="#ff7149"/><path d="m424.216 403.003-21.213-21.213-21.213 21.213 21.213 21.213c5.858 5.858 15.355 5.858 21.213 0s5.858-15.355 0-21.213z" fill="#ff4e51"/><path d="m403.003 403.003c5.858-5.858 5.858-15.355 0-21.213l-309.006-309.006c-5.858-5.858-15.355-5.858-21.213 0s-5.858 15.355 0 21.213l309.006 309.006c5.857 5.858 15.355 5.858 21.213 0z" fill="#ff7149"/><path d="m482 233.5h-30v30h30c8.284 0 15-6.716 15-15s-6.716-15-15-15z" fill="#ff4e51"/><path d="m467 248.5c0-8.284-6.716-15-15-15h-437c-8.284 0-15 6.716-15 15s6.716 15 15 15h437c8.284 0 15-6.716 15-15z" fill="#ff7149"/><path d="m403.003 72.784-21.213 21.213 21.213 21.213 21.213-21.213c5.858-5.858 5.858-15.355 0-21.213s-15.355-5.858-21.213 0z" fill="#ff4e51"/><path d="m403.003 93.997c-5.858-5.858-15.355-5.858-21.213 0l-309.006 309.006c-5.858 5.858-5.858 15.355 0 21.213s15.355 5.858 21.213 0l309.006-309.006c5.858-5.857 5.858-15.355 0-21.213z" fill="#ff7149"/><path d="m248.5 60v30c87.537 0 158.5 70.963 158.5 158.5s-70.963 158.5-158.5 158.5v30c104.106 0 188.5-84.394 188.5-188.5s-84.394-188.5-188.5-188.5z" fill="#ff7149"/><path d="m248.5 60c-104.106 0-188.5 84.394-188.5 188.5s84.394 188.5 188.5 188.5c87.537 0 158.5-84.394 158.5-188.5s-70.963-188.5-158.5-188.5zm0 317c-70.969 0-128.5-57.531-128.5-128.5s57.531-128.5 128.5-128.5 128.5 57.531 128.5 128.5-57.531 128.5-128.5 128.5z" fill="#ff9441"/><circle cx="248.5" cy="248.5" fill="#ff9441" r="60"/><circle cx="248.5" cy="248.5" fill="#ff4e51" r="30"/><g fill="#3d5168"><circle cx="248.5" cy="407" r="7.5"/><circle cx="136.424" cy="360.576" r="7.5"/><circle cx="90" cy="248.5" r="7.5"/><circle cx="136.424" cy="136.424" r="7.5"/><circle cx="248.5" cy="90" r="7.5"/><circle cx="360.576" cy="136.424" r="7.5"/><circle cx="407" cy="248.5" r="7.5"/><circle cx="360.576" cy="360.576" r="7.5"/></g></g></svg>