<svg id="Capa_1" enable-background="new 0 0 497 497" height="512" viewBox="0 0 497 497" width="512" xmlns="http://www.w3.org/2000/svg"><g><path d="m60 15 15 449.42c17.459-6.192 30-22.865 30-42.42v-329.081c0-33.245-18.119-62.335-45-77.919z" fill="#a6b0bd"/><g fill="#c0c8d2"><path d="m60 15c0 33.244-18.119 62.334-45 77.919v329.081c0 24.813 20.187 45 45 45 5.259 0 10.305-.915 15-2.58v-371.501c0-33.245-6.04-62.335-15-77.919z"/><path d="m461.878 227.038c8.013-7.012 20.122-17.607 20.122-37.538s-12.109-30.527-20.122-37.538c-7.465-6.532-9.878-9.134-9.878-14.962 0-5.829 2.413-8.431 9.877-14.961 8.014-7.011 20.123-17.606 20.123-37.539s-12.109-30.528-20.123-37.539c-7.464-6.53-9.877-9.132-9.877-14.961v-2c0-8.284-6.716-15-15-15s-15 6.716-15 15v2c0 19.933 12.109 30.528 20.123 37.539 7.464 6.53 9.877 9.132 9.877 14.961s-2.413 8.431-9.877 14.961c-8.014 7.011-20.123 17.606-20.123 37.539 0 19.931 12.109 30.527 20.122 37.538 7.465 6.532 9.878 9.134 9.878 14.962s-2.413 8.43-9.878 14.962c-8.013 7.012-20.122 17.607-20.122 37.538 0 19.933 12.109 30.528 20.123 37.539 7.464 6.53 9.877 9.132 9.877 14.961s-2.413 8.431-9.877 14.961c-8.014 7.011-20.123 17.606-20.123 37.539v68.5h30v-68.5c0-5.829 2.413-8.431 9.877-14.961 8.014-7.011 20.123-17.606 20.123-37.539s-12.109-30.528-20.123-37.539c-7.464-6.53-9.877-9.132-9.877-14.961 0-5.828 2.413-8.43 9.878-14.962z"/><path d="m347.792 134.208-307.181 328.394c16.724 7.967 37.381 5.045 51.208-8.782l232.696-232.696c23.508-23.507 31.265-56.889 23.277-86.916z"/></g><path d="m347.792 134.208c-30.027-7.988-63.409-.23-86.917 23.277l-232.695 232.695c-17.545 17.545-17.546 46.094 0 63.64 3.718 3.718 7.934 6.64 12.431 8.782l262.691-262.691c23.508-23.507 39.806-48.348 44.49-65.703z" fill="#dae0e7"/><path d="m437 362h-30v120h30c33.137 0 60-26.863 60-60s-26.863-60-60-60z" fill="#ff2b59"/><path d="m467 422c0-33.137-26.863-60-60-60h-347c-33.137 0-60 26.863-60 60s26.863 60 60 60h347c33.137 0 60-26.863 60-60z" fill="#ff4e51"/><circle cx="437" cy="422" fill="#dae0e7" r="15"/><circle cx="60" cy="422" fill="#dae0e7" r="15"/></g></svg>