<svg id="Capa_1" enable-background="new 0 0 497 497" height="512" viewBox="0 0 497 497" width="512" xmlns="http://www.w3.org/2000/svg"><g><path d="m200.393 64.107h75v390h-75z" fill="#8c98a7" transform="matrix(.707 -.707 .707 .707 -113.539 244.107)"/><path d="m221.607 42.893h75v390h-75z" fill="#a6b0bd" transform="matrix(.707 -.707 .707 .707 -92.326 252.893)"/><path d="m226 68.501h44.999v359.999h-44.999z" fill="#c0c8d2" transform="matrix(.707 -.707 .707 .707 -102.932 248.5)"/><path d="m437.759 480.186-51.968-51.968 42.426-42.426 51.972 51.972c3.931 3.931 10.69 2.392 12.407-2.896 9.939-30.61 3.057-65.49-20.655-90.179-34.417-35.836-92.041-36.866-127.661-2.226-36.06 35.067-36.365 92.732-.915 128.182 24.712 24.712 60.217 32.044 91.338 22.005 5.361-1.73 7.04-8.481 3.056-12.464z" fill="#a6b0bd"/><path d="m54.64 125.35-50.289-63.053c-10.038 31.122-2.707 66.627 22.005 91.338 35.072 35.072 91.885 35.141 127.05.219z" fill="#8c98a7"/><path d="m47.569 132.422c34.887 34.887 82.064 44.37 105.837 21.433.379-.376.758-.75 1.132-1.135 34.64-35.62 33.61-93.244-2.226-127.661-24.69-23.712-59.57-30.593-90.179-20.655-5.287 1.717-6.826 8.476-2.896 12.407l51.972 51.972-42.426 42.426-51.969-51.968c-3.983-3.983-10.734-2.305-12.464 3.056 2.556 18.528 18.507 45.413 43.219 70.125z" fill="#a6b0bd"/><path d="m488.213 40.606-21.213-21.213-136.118 146.725 114.905-40.659 42.427-42.426c11.715-11.716 11.715-30.711-.001-42.427z" fill="#ff2b59"/><path d="m467 19.393-10.607-10.606c-11.716-11.716-30.711-11.715-42.426 0l-42.426 42.427-24.749 130.815 120.208-120.209c11.716-11.716 11.716-30.711 0-42.427z" fill="#ff4e51"/><path d="m307.901 136.066 106.066 21.213 31.82-31.82-21.213-21.213z" fill="#ffeac3"/><path d="m424.574 104.246-53.033-53.033-31.82 31.82 10.606 95.459z" fill="#fff"/><path d="m57.415 439.585-53.032 53.032c4.632 4.632 11.534 5.586 17.119 2.892l33.325-16.088z" fill="#233952"/><path d="m17.578 442.174-16.088 33.325c-2.693 5.584-1.74 12.487 2.892 17.119l54.58-37.344z" fill="#3d5168"/><path d="m126.363 444.883-17.019-45.294-67.175 67.175 12.657 12.658z" fill="#ffcad6"/><path d="m52.117 370.637-34.539 71.537 24.591 24.59 79.77-54.58z" fill="#ffeac3"/><path d="m105.15 423.67 21.213 21.213 287.604-287.604-21.213-21.213-186.226 101.372z" fill="#ff9441"/><path d="m73.33 391.85 159.712-127.892 127.892-159.712-21.213-21.213-287.604 287.604z" fill="#ffb739"/><path d="m29.676 241.458h406.733v45h-406.733z" fill="#3d5168" transform="matrix(.707 -.707 .707 .707 -118.39 242.097)"/></g></svg>