<svg id="Capa_1" enable-background="new 0 0 497 497" height="512" viewBox="0 0 497 497" width="512" xmlns="http://www.w3.org/2000/svg"><g><path d="m203.5 407c16.569 0 30-13.431 30-30v-76h-90z" fill="#3d5168"/><path d="m203.5 437v-166h-90l60 226h30c16.569 0 30-13.431 30-30s-13.431-30-30-30z" fill="#ff2b59"/><path d="m203.5 467c0-16.569-13.431-30-30-30v-166l-83.5 60 30.678 142.343c2.912 13.521 14.93 23.657 29.322 23.657h23.5c16.569 0 30-13.431 30-30z" fill="#ff4e51"/><circle cx="452" cy="226" fill="#3d5168" r="45"/><path d="m0 248.5v22.5c0 16.569 13.431 30 30 30h45v-52.5z" fill="#ff2b59"/><path d="m0 226v22.5c0 8.284 13.431 15 30 15h45v-67.5z" fill="#ff4e51"/><path d="m30 151c-16.569 0-30 13.431-30 30v22.5h75v-52.5z" fill="#ff4e51"/><path d="m30 188.5c-16.569 0-30 6.716-30 15v22.5h75v-37.5z" fill="#ff2b59"/><path d="m75 121c-16.5 0-30 13.5-30 30v150c0 16.5 13.5 30 30 30h203.5v-210z" fill="#ff7149"/><path d="m422 32.604c-9.304 9.956-19.336 19.22-30 27.726l-60 165.67 60 165.669c10.664 8.506 20.696 17.771 30 27.726h15v-386.791z" fill="#ffd17e"/><path d="m218.5 121v210c65.612 0 125.908 22.706 173.5 60.669v-331.338c-47.592 37.963-107.888 60.669-173.5 60.669z" fill="#ffeac3"/><path d="m437 0c-8.284 0-15 6.716-15 15v422c0 8.284 6.716 15 15 15s15-6.716 15-15v-422c0-8.284-6.716-15-15-15z" fill="#ff4e51"/></g></svg>