<svg id="Capa_1" enable-background="new 0 0 497 497" height="512" viewBox="0 0 497 497" width="512" xmlns="http://www.w3.org/2000/svg"><g><path d="m248.5 0v497c137.243 0 248.5-111.257 248.5-248.5s-111.257-248.5-248.5-248.5z" fill="#ffd17e"/><path d="m248.5 0c-137.243 0-248.5 111.257-248.5 248.5 0 65.893 25.657 125.786 67.513 170.262-9.619 25.897-27.911 47.577-51.356 61.496-5.805 3.446-4.469 12.25 2.113 13.749 8.595 1.958 17.541 2.993 26.73 2.993 31.481 0 60.125-12.129 81.53-31.96 36.033 20.34 77.642 31.96 121.97 31.96 120.674 0 218.5-111.257 218.5-248.5s-97.826-248.5-218.5-248.5z" fill="#ffeac3"/><path d="m383.101 220.74-54.601-110.74-80 327c82.843 0 150-67.157 150-150 0-23.788-5.542-46.279-15.399-66.26z" fill="#ff4e51"/><path d="m368.5 287c0-23.788-3.167-46.279-8.8-66.26l-31.2-110.74-29.076 7.848-50.924-57.848-50.924 57.848-29.076-7.848-54.601 110.74c-9.857 19.981-15.399 42.472-15.399 66.26 0 82.843 67.157 150 150 150 66.274 0 120-67.157 120-150z" fill="#ff7149"/><path d="m342.739 255.641-38.237-77.554-56.002 228.913c57.897 0 105-47.103 105-105 0-16.291-3.618-31.885-10.761-46.359z" fill="#ff9441"/><path d="m323.5 302c0-16.291-1.403-31.885-4.172-46.359l-14.826-77.554-20.366 5.497-35.636-40.48-35.636 40.48-20.366-5.497-38.243 77.564c-7.137 14.464-10.755 30.058-10.755 46.349 0 57.897 47.103 105 105 105 41.355 0 75-47.103 75-105z" fill="#ffb739"/><path d="m282.299 302.302-33.799-38.394v113.092c24.813 0 45-20.187 45-45 0-14.032-6.091-23.895-11.201-29.698z" fill="#ffeac3"/><path d="m263.5 332c0-14.032-2.03-23.895-3.734-29.698l-11.266-38.394-33.807 38.402c-5.106 5.799-11.193 15.658-11.193 29.69 0 24.813 20.187 45 45 45 8.271 0 15-20.187 15-45z" fill="#fff"/></g></svg>