<?xml version="1.0" standalone="no"?>
<!DOCTYPE svg PUBLIC "-//W3C//DTD SVG 20010904//EN"
 "http://www.w3.org/TR/2001/REC-SVG-20010904/DTD/svg10.dtd">
<svg version="1.0" xmlns="http://www.w3.org/2000/svg"
 width="976.000000pt" height="976.000000pt" viewBox="0 0 976.000000 976.000000"
 preserveAspectRatio="xMidYMid meet">
<metadata>
Created by potrace 1.11, written by Peter Selinger 2001-2013
</metadata>
<g transform="translate(0.000000,976.000000) scale(0.100000,-0.100000)"
fill="#000000" stroke="none">
<path d="M4550 9739 c-993 -72 -1920 -426 -2656 -1014 -131 -106 -414 -362
-414 -376 0 -5 463 -9 1147 -9 l1146 0 -19 23 c-82 96 -220 238 -280 289 -176
145 -176 239 0 322 164 78 584 203 896 266 387 78 693 106 1085 97 396 -9 716
-53 1095 -153 369 -96 869 -296 1119 -447 102 -62 143 -77 210 -77 l44 0 -19
21 c-30 33 -200 168 -315 249 -330 235 -772 454 -1179 585 -289 93 -682 175
-1010 210 -174 19 -674 27 -850 14z"/>
<path d="M4900 8975 c-422 -67 -782 -330 -974 -712 -50 -100 -73 -162 -102
-278 -36 -139 -45 -389 -19 -532 50 -277 172 -511 369 -708 602 -599 1597
-483 2050 239 343 546 226 1281 -270 1695 -148 123 -322 215 -499 264 -164 45
-388 58 -555 32z m120 -1030 c0 -443 -3 -805 -7 -805 -18 0 -141 22 -174 30
l-36 10 -7 72 c-11 108 -47 234 -120 425 -121 316 -163 514 -153 723 8 159 19
195 71 225 93 54 312 121 404 124 l22 1 0 -805z m271 790 c100 -17 199 -50
292 -96 66 -33 68 -35 85 -89 25 -83 22 -301 -7 -450 -22 -114 -80 -294 -161
-504 -53 -138 -79 -240 -87 -338 -4 -59 -10 -79 -22 -83 -33 -10 -196 -33
-203 -28 -10 5 -11 1587 -1 1596 8 9 8 9 104 -8z m-899 -347 c-7 -182 39 -414
129 -656 101 -269 119 -323 134 -408 9 -47 14 -88 11 -92 -10 -9 -144 58 -237
120 -183 121 -389 369 -389 468 0 103 75 309 162 442 50 76 171 218 187 218 3
0 4 -42 3 -92z m1512 6 c143 -167 239 -370 261 -546 8 -65 -5 -94 -96 -219
-118 -161 -358 -347 -508 -394 -23 -7 -23 -6 -17 41 14 95 48 211 107 361 114
293 161 501 162 715 0 149 1 149 91 42z m-1550 -1144 c78 -52 269 -150 294
-150 37 0 -18 -121 -81 -176 -25 -23 -69 -48 -98 -57 l-51 -17 -37 32 c-163
142 -311 408 -337 607 l-7 53 119 -120 c67 -67 154 -142 198 -172z m1792 169
c-50 -198 -130 -342 -272 -489 l-82 -84 -58 18 c-73 23 -153 99 -176 168 -18
52 -16 56 42 78 176 67 372 208 506 362 33 37 60 62 62 55 1 -7 -8 -55 -22
-108z m-1168 -389 l42 0 0 -210 0 -210 -39 0 c-84 0 -339 82 -411 133 -21 15
-21 15 17 37 21 13 55 39 77 59 54 51 78 91 115 192 l9 26 74 -13 c40 -7 92
-13 116 -14z m448 3 c38 -119 98 -201 180 -249 24 -14 44 -28 44 -30 0 -3 -42
-25 -92 -49 -104 -51 -272 -97 -333 -93 l-40 3 -3 198 c-2 153 0 198 10 201
17 5 187 33 211 35 10 0 20 -7 23 -16z"/>
<path d="M483 7616 c62 -106 767 -1328 1567 -2714 800 -1386 1458 -2517 1463
-2513 13 13 400 686 400 696 0 6 -318 560 -707 1233 -388 672 -706 1225 -706
1227 0 3 640 6 1422 7 l1422 3 202 350 202 350 -1832 3 -1831 2 -241 418 -242
417 1063 3 1063 2 -24 76 c-44 138 -57 243 -51 419 3 88 9 172 12 188 l7 27
-1650 0 -1651 0 112 -194z"/>
<path d="M5223 5016 c-887 -1536 -1613 -2798 -1613 -2804 0 -13 376 -669 395
-690 9 -10 166 255 741 1252 l729 1265 448 1 c246 0 447 -2 447 -5 0 -3 -428
-746 -951 -1653 -524 -906 -952 -1651 -952 -1657 0 -11 380 -674 397 -692 8
-8 583 980 2231 3834 1221 2116 2232 3868 2248 3895 l27 48 -409 0 -409 0
-883 -1530 -883 -1530 -449 0 -448 0 12 22 c7 13 403 700 881 1527 477 827
868 1505 868 1507 0 2 -183 4 -407 4 l-408 0 -1612 -2794z"/>
<path d="M287 6453 c-192 -505 -287 -1018 -287 -1548 1 -1133 423 -2267 1188
-3185 125 -150 446 -471 592 -592 466 -386 944 -655 1480 -831 145 -48 424
-121 441 -115 6 2 -30 21 -78 42 -436 194 -867 457 -1233 757 -134 109 -425
391 -548 532 -452 515 -777 1080 -984 1712 -132 405 -230 934 -245 1325 -6
177 3 227 48 273 29 29 32 29 107 25 62 -4 101 -15 202 -56 186 -75 281 -96
386 -85 45 5 55 9 51 22 -7 24 -1066 1816 -1075 1819 -4 1 -24 -42 -45 -95z"/>
<path d="M9541 6220 c0 -3 6 -61 14 -129 136 -1155 -152 -2344 -805 -3321
-401 -600 -907 -1085 -1431 -1372 -112 -61 -305 -146 -312 -137 -2 2 -23 175
-46 384 -23 209 -45 388 -49 398 -5 13 -169 -246 -611 -968 -332 -542 -601
-988 -599 -991 8 -7 279 52 438 95 1163 319 2130 1012 2787 1996 461 692 733
1458 815 2300 18 190 15 655 -6 842 -34 309 -91 585 -175 848 -11 33 -20 58
-20 55z"/>
</g>
</svg>
