<?xml version="1.0" standalone="no"?>
<!DOCTYPE svg PUBLIC "-//W3C//DTD SVG 20010904//EN"
 "http://www.w3.org/TR/2001/REC-SVG-20010904/DTD/svg10.dtd">
<svg version="1.0" xmlns="http://www.w3.org/2000/svg"
 width="300.000000pt" height="300.000000pt" viewBox="0 0 300.000000 300.000000"
 preserveAspectRatio="xMidYMid meet">
<metadata>
Created by potrace 1.11, written by Peter Selinger 2001-2013
</metadata>
<g transform="translate(0.000000,300.000000) scale(0.100000,-0.100000)"
fill="#000000" stroke="none">
<path d="M727 2771 c-20 -5 -40 -10 -42 -13 -12 -12 88 -48 184 -67 123 -25
157 -41 178 -86 9 -19 20 -35 25 -35 4 0 42 9 84 21 46 13 111 22 163 22 85 2
88 1 131 -32 55 -42 105 -95 127 -132 28 -47 47 -44 21 2 -28 51 -69 92 -128
131 l-45 30 38 -4 c20 -2 37 -2 37 2 0 8 -114 123 -141 142 l-24 17 26 1 c31
0 64 -29 130 -115 40 -53 52 -62 105 -79 117 -36 299 -152 311 -197 3 -10 9
-17 13 -14 11 7 71 -69 110 -138 18 -32 34 -57 35 -55 28 31 83 113 100 150
21 46 35 53 35 18 0 -19 -40 -81 -92 -142 l-36 -43 24 -84 c19 -66 24 -106 24
-195 0 -110 -18 -213 -36 -208 -5 1 -25 5 -44 8 -98 16 -145 46 -181 116 -26
51 -24 60 17 118 71 98 94 206 75 345 -15 104 -28 116 -20 18 3 -43 4 -98 2
-123 -11 -106 -91 -254 -132 -243 -32 8 -38 20 -71 153 -17 69 -36 141 -43
160 -12 38 -33 67 -42 58 -9 -8 75 -339 93 -371 9 -15 25 -30 35 -33 17 -5 15
-10 -19 -45 -21 -21 -41 -39 -44 -39 -3 0 -23 32 -45 72 -86 155 -216 300
-360 403 -71 51 -215 130 -215 118 0 -4 27 -21 60 -38 138 -68 308 -223 402
-366 40 -61 118 -200 118 -211 0 -7 -114 -88 -123 -88 -3 0 -7 14 -11 32 -10
51 -80 110 -162 136 -68 21 -111 28 -324 52 -58 6 -127 16 -154 21 -33 6 -53
6 -60 -1 -6 -6 -6 -10 0 -10 5 0 50 -7 99 -15 50 -8 137 -22 195 -30 203 -30
325 -76 354 -133 32 -64 31 -69 -24 -97 -141 -71 -487 -185 -564 -185 -9 0
-16 -5 -16 -10 0 -6 10 -8 23 -6 12 3 49 10 82 16 139 25 310 76 443 132 88
38 94 39 117 24 14 -9 27 -27 31 -40 8 -33 -21 -124 -61 -191 -20 -32 -33 -61
-30 -64 9 -8 50 46 85 112 30 56 32 57 74 57 23 0 50 -6 60 -13 17 -12 17 -16
3 -43 -8 -16 -41 -53 -72 -83 l-57 -54 39 -39 c28 -30 33 -39 18 -35 -11 3
-40 11 -65 17 -25 7 -50 16 -57 21 -6 6 -23 7 -38 3 -26 -6 -26 -5 -15 16 16
29 8 35 -15 9 -12 -12 -19 -33 -18 -52 2 -29 -1 -27 -13 12 -3 10 -7 11 -19 1
-8 -7 -12 -17 -8 -24 3 -6 3 -8 -2 -4 -4 4 -30 -10 -58 -32 -65 -52 -74 -43
-13 12 l48 42 -104 17 c-57 10 -148 34 -203 53 -54 20 -101 33 -104 31 -2 -3
1 -5 7 -5 6 0 9 -7 5 -16 -5 -12 0 -15 22 -12 23 2 28 -1 31 -22 6 -54 21 -76
63 -90 23 -7 39 -15 36 -18 -2 -3 -30 6 -60 18 -31 13 -52 26 -46 29 14 9 2
53 -13 48 -6 -2 -11 -13 -10 -25 0 -23 -3 -21 -97 45 -26 18 -53 33 -61 33
-25 0 -75 77 -69 108 1 6 -5 12 -13 12 -8 0 -24 14 -36 31 -18 24 -28 30 -54
27 -21 -2 -30 -8 -29 -18 2 -9 -17 -27 -43 -43 -41 -24 -50 -27 -79 -17 -17 6
-43 22 -55 35 l-23 25 45 0 c25 0 71 9 104 20 32 11 67 20 76 20 15 0 15 3 0
39 -15 36 -18 38 -37 25 -43 -30 -71 -18 -166 71 -50 47 -96 85 -103 85 -6 0
-20 14 -29 30 -10 17 -22 30 -26 30 -8 0 -4 70 4 79 3 2 8 -10 11 -27 4 -18 9
-32 12 -32 26 0 152 120 152 145 0 4 8 19 19 33 20 29 33 92 19 92 -4 0 -8 -4
-8 -10 0 -5 -5 -10 -11 -10 -6 0 -19 -10 -30 -22 -17 -21 -17 -19 2 14 11 21
17 42 14 49 -6 8 -10 7 -16 -2 -6 -11 -13 -9 -31 8 -39 35 -68 45 -112 39 -31
-5 -49 -1 -74 14 -18 11 -37 20 -42 20 -14 0 -13 -1364 0 -1467 22 -164 72
-270 174 -369 127 -122 272 -164 572 -164 143 0 144 0 132 21 -11 18 -10 23
11 40 13 10 35 19 50 19 26 0 112 -47 125 -69 4 -6 38 -11 79 -11 l71 0 -39
41 c-50 52 -140 119 -159 119 -22 0 -46 11 -46 21 0 5 7 9 15 9 11 0 9 8 -8
33 l-22 33 -13 -24 c-8 -16 -9 -29 -3 -36 10 -12 -8 -86 -21 -86 -5 0 -8 -6
-8 -12 0 -16 -50 -20 -51 -4 -1 6 -1 17 0 23 1 7 -2 13 -8 13 -5 0 -19 15 -30
34 -24 39 -27 101 -7 149 56 133 332 349 668 522 42 22 74 43 72 47 -3 4 -27
19 -54 34 -71 38 -53 44 20 6 l61 -31 137 65 c252 120 602 268 832 352 l55 20
0 373 c-1 310 -4 386 -17 446 -48 207 -192 357 -405 420 -53 16 -130 18 -838
19 -429 1 -797 -1 -818 -5z m938 -30 c3 -5 1 -12 -5 -16 -5 -3 -10 1 -10 9 0
18 6 21 15 7z m-1411 -936 c3 -8 1 -15 -4 -15 -6 0 -10 7 -10 15 0 8 2 15 4
15 2 0 6 -7 10 -15z m1653 -117 c15 -9 61 -21 102 -26 40 -6 75 -13 77 -15 10
-10 -82 -170 -127 -219 l-48 -53 -1 33 c0 17 0 35 1 38 0 4 -3 10 -8 13 -5 3
-17 24 -27 46 -10 22 -31 54 -47 70 -15 17 -28 33 -29 38 0 4 0 14 0 22 0 8
-3 14 -7 14 -24 -4 -44 3 -42 14 1 6 -3 25 -9 40 -17 41 -16 47 25 82 l38 33
37 -57 c20 -31 49 -63 65 -73z m-209 5 c35 -90 63 -213 49 -213 -5 0 -77 219
-77 234 0 17 19 2 28 -21z m-913 -491 c-21 -5 -45 5 -45 17 0 5 13 4 31 -2 21
-8 26 -13 14 -15z m152 -4 c18 -7 33 -16 33 -20 0 -10 -13 -10 -62 -2 -30 5
-34 9 -25 20 15 17 14 16 54 2z m-83 -7 c3 -4 -6 -6 -19 -3 -14 2 -25 6 -25 8
0 8 39 4 44 -5z m526 -16 c-13 -14 -33 -25 -44 -25 -20 0 -19 1 4 24 14 14 34
25 44 25 18 1 18 -1 -4 -24z m-206 -14 c3 -4 -6 -6 -19 -3 -14 2 -25 6 -25 8
0 8 39 4 44 -5z"/>
<path d="M456 2671 c9 -9 94 -32 94 -26 0 15 -38 35 -68 35 -22 0 -32 -4 -26
-9z"/>
<path d="M610 2641 c0 -6 4 -13 10 -16 6 -3 7 1 4 9 -7 18 -14 21 -14 7z"/>
<path d="M750 2620 c20 -13 47 -13 55 0 4 6 -9 10 -32 10 -28 0 -34 -3 -23
-10z"/>
<path d="M795 2590 c-27 -16 -59 -29 -71 -30 -31 0 -44 -20 -44 -69 0 -75 11
-123 26 -117 9 4 13 -2 11 -16 -1 -11 4 -23 11 -25 8 -3 12 7 12 35 0 40 31
84 45 63 9 -16 25 -13 25 5 0 8 4 13 9 10 8 -5 21 15 21 34 0 4 -14 13 -30 20
l-31 13 22 23 c37 39 119 25 119 -20 0 -20 6 -20 49 3 l34 18 -24 21 c-17 17
-119 64 -132 62 -1 -1 -24 -14 -52 -30z m-55 -87 c0 -5 -7 -17 -15 -27 -8 -11
-15 -28 -15 -38 0 -10 -4 -18 -10 -18 -14 0 -12 46 2 70 12 19 38 28 38 13z"/>
<path d="M340 2584 c-14 -16 -33 -41 -43 -56 -17 -27 -17 -28 0 -28 15 0 15
-2 3 -9 -8 -6 -17 -8 -21 -5 -4 2 -5 -4 -2 -14 7 -27 125 -102 184 -117 28 -8
66 -11 86 -8 23 4 38 2 43 -7 5 -8 18 -10 39 -5 35 8 35 9 -3 125 -16 50 -27
68 -49 78 -22 11 -25 16 -17 32 6 10 6 21 1 24 -4 3 -50 8 -102 12 l-94 6 -25
-28z"/>
<path d="M646 2514 c9 -64 14 -68 14 -11 0 25 -5 49 -11 52 -7 5 -8 -8 -3 -41z"/>
<path d="M850 2465 c0 -8 7 -15 16 -15 14 0 14 3 4 15 -7 8 -14 15 -16 15 -2
0 -4 -7 -4 -15z"/>
<path d="M766 2414 c-9 -24 -7 -36 6 -32 13 5 20 36 8 43 -4 3 -11 -2 -14 -11z"/>
<path d="M1014 2410 c28 -11 51 -18 53 -16 5 5 -74 36 -90 36 -6 -1 10 -10 37
-20z"/>
<path d="M208 2300 c-3 -16 -1 -30 3 -30 19 0 39 13 39 26 0 8 6 14 13 14 18
0 -15 20 -34 20 -11 0 -18 -11 -21 -30z"/>
<path d="M524 2292 c-17 -11 -5 -67 18 -81 18 -11 24 -10 41 7 11 12 21 35 21
51 1 29 -1 31 -34 31 -19 0 -40 -4 -46 -8z"/>
<path d="M646 2284 c-6 -16 2 -18 22 -5 11 7 11 9 -1 14 -9 3 -18 -1 -21 -9z"/>
<path d="M475 1927 c-50 -51 -104 -99 -120 -107 -17 -8 -31 -15 -33 -16 -2 -1
1 -12 8 -23 9 -17 15 -19 30 -11 37 20 67 12 89 -23 11 -18 29 -42 41 -52 11
-10 20 -30 20 -45 0 -47 58 -77 100 -51 12 8 12 18 -5 68 -11 35 -20 98 -23
160 -3 73 -8 101 -16 96 -6 -3 -6 0 2 8 6 7 12 23 12 36 0 27 -2 27 43 8 45
-19 53 -19 38 -1 -7 8 -26 18 -42 21 -16 4 -29 11 -29 16 0 24 -32 0 -115 -84z"/>
<path d="M1500 1581 c0 -33 25 -81 42 -81 5 0 8 19 6 41 -2 30 -9 46 -25 57
-22 14 -23 13 -23 -17z"/>
<path d="M2800 1470 c0 -35 12 -28 -205 -116 -190 -77 -402 -172 -567 -254
-149 -74 -468 -259 -468 -272 0 -17 22 -6 112 53 113 74 523 280 748 376 169
72 353 143 370 143 6 0 10 -13 10 -29 0 -27 -5 -31 -107 -70 -93 -36 -432
-179 -441 -187 -7 -5 42 -64 53 -64 20 0 72 -63 119 -145 25 -45 56 -91 69
-103 l24 -22 146 82 146 83 0 278 c1 152 -1 277 -4 277 -3 0 -5 -14 -5 -30z"/>
<path d="M790 1435 c0 -2 8 -20 17 -40 18 -39 43 -52 70 -36 10 6 13 11 6 11
-12 0 -63 43 -63 53 0 3 12 8 28 10 19 3 14 4 -15 6 -24 0 -43 -1 -43 -4z"/>
<path d="M930 1305 c0 -8 4 -15 10 -15 5 0 7 7 4 15 -4 8 -8 15 -10 15 -2 0
-4 -7 -4 -15z"/>
<path d="M2217 1038 c8 -29 26 -83 39 -119 13 -37 31 -106 39 -155 9 -49 19
-92 23 -96 8 -8 161 82 162 95 0 4 -8 17 -18 28 -11 11 -43 60 -72 110 -29 50
-64 98 -78 107 -14 9 -39 32 -57 50 -46 47 -57 42 -38 -20z"/>
<path d="M1962 970 c-118 -61 -248 -131 -289 -156 l-75 -47 24 -21 c13 -12 62
-54 108 -95 47 -41 94 -83 106 -93 20 -18 24 -17 175 36 85 29 172 61 193 70
22 9 41 15 43 13 6 -7 -161 -79 -269 -117 -75 -26 -102 -39 -93 -46 8 -5 42
-34 77 -64 35 -30 50 -40 35 -23 l-28 31 32 11 c22 8 36 8 43 1 18 -18 53 -11
163 36 59 26 109 48 111 49 2 2 -1 13 -7 24 l-12 21 -51 -20 c-29 -11 -53 -18
-55 -16 -2 2 59 48 95 71 7 5 -35 187 -68 295 -22 69 -40 130 -42 137 -2 7
-86 -30 -216 -97z m57 -439 c-54 -41 -99 -53 -99 -26 0 9 19 20 48 29 65 20
79 19 51 -3z"/>
<path d="M2770 810 c-8 -6 -40 -21 -70 -34 -30 -14 -48 -25 -39 -26 8 0 20 5
27 12 9 9 15 9 24 0 27 -27 80 -7 93 36 7 24 -7 29 -35 12z"/>
<path d="M1549 742 c-2 -6 -56 -45 -119 -88 -63 -43 -143 -100 -177 -127 l-62
-50 36 -44 37 -44 50 6 c51 7 219 48 327 79 l57 17 -69 126 c-77 140 -75 138
-80 125z"/>
<path d="M2600 730 c-8 -5 -10 -10 -5 -10 6 0 17 5 25 10 8 5 11 10 5 10 -5 0
-17 -5 -25 -10z"/>
<path d="M1610 718 c0 -4 13 -29 28 -55 15 -26 41 -74 57 -105 17 -32 35 -58
40 -57 20 1 75 24 75 31 0 5 -42 45 -93 90 -50 45 -95 87 -99 93 -4 5 -8 7 -8
3z"/>
<path d="M2440 662 c-58 -25 -106 -46 -107 -47 -7 -3 11 -45 19 -45 5 0 34 11
64 25 30 14 57 25 59 25 11 0 115 51 115 57 0 7 -32 33 -40 32 -3 0 -52 -21
-110 -47z"/>
<path d="M2720 510 c-10 -6 -12 -12 -5 -19 7 -7 14 -4 23 9 13 21 6 25 -18 10z"/>
<path d="M1782 493 l-42 -15 74 -141 75 -142 86 -3 86 -3 -51 96 c-28 53 -50
101 -48 107 5 13 -110 118 -127 117 -5 0 -29 -7 -53 -16z"/>
<path d="M2637 483 c-16 -4 -16 -7 4 -43 21 -37 49 -45 49 -14 0 17 -22 64
-29 63 -3 -1 -14 -3 -24 -6z"/>
<path d="M1630 444 c-41 -13 -132 -38 -202 -56 -125 -31 -127 -32 -110 -51 19
-21 110 -93 156 -123 l29 -18 -12 23 c-7 12 -10 29 -7 37 5 13 9 12 25 -3 11
-10 46 -28 78 -41 50 -20 73 -22 165 -20 l106 3 -69 124 c-38 69 -69 128 -69
132 0 17 -18 15 -90 -7z"/>
<path d="M2500 437 c-52 -17 -96 -32 -98 -33 -1 -1 2 -19 7 -40 5 -22 14 -56
20 -77 5 -21 12 -41 15 -44 10 -10 114 48 161 90 l47 42 -23 48 c-13 26 -25
47 -28 46 -4 0 -49 -15 -101 -32z"/>
<path d="M2040 386 c0 -2 8 -10 18 -17 15 -13 16 -12 3 4 -13 16 -21 21 -21
13z"/>
<path d="M2310 373 c-55 -18 -178 -51 -182 -49 -10 3 34 -30 95 -74 60 -43 72
-48 105 -43 74 12 78 16 38 44 -20 13 -36 27 -36 32 0 13 33 7 52 -10 21 -19
21 -16 4 56 -7 30 -16 56 -22 57 -5 1 -29 -5 -54 -13z"/>
<path d="M2041 294 c3 -5 15 -30 29 -56 l24 -48 58 0 c32 0 58 2 58 4 0 2 -24
18 -52 35 -29 16 -68 40 -87 52 -19 13 -32 19 -30 13z"/>
<path d="M1113 224 c-10 -25 11 -35 68 -32 l54 3 -38 23 c-45 26 -75 28 -84 6z"/>
<path d="M1538 193 c7 -3 16 -2 19 1 4 3 -2 6 -13 5 -11 0 -14 -3 -6 -6z"/>
</g>
</svg>
