<?xml version="1.0" encoding="iso-8859-1"?>
<!-- Generator: Adobe Illustrator 19.0.0, SVG Export Plug-In . SVG Version: 6.00 Build 0)  -->
<svg version="1.1" id="Capa_1" xmlns="http://www.w3.org/2000/svg" xmlns:xlink="http://www.w3.org/1999/xlink" x="0px" y="0px"
	 viewBox="0 0 512 512" style="enable-background:new 0 0 512 512;" xml:space="preserve">
<path style="fill:#E1EFFB;" d="M198.16,512c-11.234,0-22.043-4.738-29.654-13.001c-7.612-8.262-11.45-19.422-10.531-30.619
	l3.157-38.479l-44.976-95.569c-5.709-10.7-8.788-22.76-8.913-34.938l-0.428-41.559c-0.241-23.31,12.325-44.062,31.363-54.828
	l4.889-161.039C143.781,18.435,162.784,0,186.33,0l13.44,0.041c23.326,0.07,42.68,19.103,43.142,42.426l2.217,111.635
	c0.639-0.024,1.282-0.036,1.927-0.036c1.377,0,2.773,0.056,4.151,0.164l0.812,0.065c14.636,1.159,27.406,8.272,36.115,18.77
	c3.885-0.934,7.927-1.428,12.066-1.428c1.379,0,2.776,0.055,4.155,0.165l0.81,0.064c15.528,1.229,28.953,9.158,37.66,20.722
	c3.247-0.623,6.6-0.947,10.02-0.947c1.378,0,2.775,0.056,4.153,0.165c28.751,2.274,50.295,27.515,48.027,56.265l-3.845,48.693
	l2.632,43.282c1.562,20.904-4.35,54.2-41.155,94.509c-2.613,2.86-3.96,6.58-3.796,10.472l1.143,31.602
	c0.333,9.212-3.146,18.299-9.545,24.934c-6.4,6.633-15.356,10.437-24.572,10.437H198.16z"/>
<path style="fill:#C3D8E5;" d="M356.998,191.805c-1.377-0.109-2.774-0.165-4.153-0.165c-3.42,0-6.772,0.324-10.02,0.947
	c-0.172-0.228-0.357-0.445-0.532-0.67c11.808,15.912,18.453,38.795,17.084,56.152l-3.845,48.693l2.632,43.282
	c1.562,20.904-4.35,54.2-41.155,94.509c-2.613,2.86-3.96,6.58-3.796,10.472l1.143,31.602c0.333,9.212-3.146,18.299-9.545,24.934
	C298.412,508.196,289.456,512,280.24,512h45.647c9.216,0,18.173-3.804,24.571-10.438c6.399-6.635,9.878-15.722,9.545-24.934
	l-1.143-31.602c-0.164-3.892,1.184-7.612,3.796-10.472c36.805-40.309,42.717-73.605,41.155-94.509l-2.632-43.282l3.845-48.693
	C407.293,219.32,385.75,194.079,356.998,191.805z"/>
<path style="fill:#FC5454;" d="M160.851,298.101l61.587,0.19L217.37,42.973c-0.191-9.635-8.041-17.354-17.677-17.383l-13.306-0.041
	c-9.607-0.03-17.49,7.595-17.782,17.197L160.851,298.101z"/>
<path style="fill:#EF3A3A;" d="M188.84,41.045l5.105,257.159l28.492,0.088l-5.068-255.318c-0.191-9.635-8.041-17.354-17.677-17.383
	l-13.306-0.041c-2.462-0.007-4.807,0.494-6.943,1.396C184.88,29.348,188.715,34.728,188.84,41.045z"/>
<path style="fill:#FF4C4C;" d="M151.157,302.615l35.995,122.578l-3.715,45.278c-0.706,8.606,6.088,15.98,14.723,15.98h127.727
	c4.866,0,8.76-4.038,8.584-8.9l-1.137-31.448c-0.447-10.598,3.302-20.943,10.455-28.776c14.278-15.637,36.871-45.455,34.532-75.534
	l-6.001-98.727l-108.677,3.729l-106.497,18.114C157.147,264.908,146.223,285.812,151.157,302.615z"/>
<path style="fill:#EA2828;" d="M378.321,341.792l-6.001-98.727l-46.232,1.586l5.904,97.14c2.339,30.08-20.254,59.897-34.532,75.534
	c-7.153,7.834-10.902,18.178-10.455,28.776l1.459,40.348h37.422c4.866,0,8.76-4.037,8.584-8.9l-1.137-31.448
	c-0.447-10.598,3.302-20.943,10.455-28.776C358.067,401.69,380.66,371.872,378.321,341.792z"/>
<path style="fill:#FC5454;" d="M346.587,323.538L346.587,323.538c14.737,1.166,27.627-9.837,28.791-24.574l4.176-52.904
	c1.163-14.734-9.837-27.621-24.57-28.787l0,0c-14.737-1.166-27.627,9.837-28.791,24.574l-4.176,52.904
	C320.854,309.485,331.854,322.373,346.587,323.538z"/>
<path style="fill:#EF3A3A;" d="M354.984,217.274L354.984,217.274c-5.052-0.399-9.887,0.632-14.108,2.753
	c7.257,3.777,11.936,11.631,11.252,20.3l-5.082,64.372c-0.55,6.972-4.457,12.861-9.996,16.254c2.909,1.407,6.121,2.314,9.537,2.585
	l0,0c14.737,1.165,27.627-9.837,28.791-24.574l4.176-52.904C380.718,231.327,369.718,218.439,354.984,217.274z"/>
<path style="fill:#FC5454;" d="M292.99,315.745l0.806,0.064c14.738,1.166,27.63-9.84,28.791-24.578l5.13-65.115
	c1.161-14.732-9.839-27.617-24.571-28.782l-0.806-0.064c-14.738-1.166-27.63,9.84-28.791,24.578l-5.13,65.115
	C267.258,301.695,278.258,314.58,292.99,315.745z"/>
<path style="fill:#EF3A3A;" d="M303.146,197.334l-0.806-0.064c-4.798-0.379-9.396,0.538-13.462,2.447
	c7.949,3.71,13.17,12.044,12.44,21.303l-5.933,75.31c-0.592,7.512-4.954,13.818-11.08,17.225c2.681,1.182,5.599,1.946,8.685,2.19
	l0.806,0.064c14.738,1.166,27.63-9.84,28.791-24.578l5.13-65.115C328.877,211.384,317.878,198.499,303.146,197.334z"/>
<path style="fill:#FC5454;" d="M239.843,298.175l0.806,0.064c14.738,1.166,27.63-9.84,28.791-24.578l5.13-65.115
	c1.161-14.732-9.839-27.617-24.571-28.782l-0.806-0.064c-14.738-1.166-27.63,9.84-28.791,24.578l-5.13,65.115
	C214.111,284.125,225.111,297.01,239.843,298.175z"/>
<path style="fill:#EF3A3A;" d="M249.999,179.764l-0.806-0.064c-4.846-0.383-9.489,0.556-13.584,2.505
	c7.715,3.669,12.769,11.799,12.058,20.823l-6,76.155c-0.572,7.266-4.742,13.384-10.622,16.754c2.711,1.21,5.669,1.991,8.797,2.238
	l0.806,0.064c14.738,1.166,27.63-9.84,28.791-24.578l5.13-65.115C275.73,193.814,264.731,180.929,249.999,179.764z"/>
<path style="fill:#FC5454;" d="M187.153,425.193L138.97,322.811c-3.969-7.232-6.094-15.377-6.18-23.677l-0.428-41.56
	c-0.208-20.206,15.618-36.721,35.281-36.817l63.719-0.313c12.774-0.063,23.179,10.538,23.229,23.664l0.032,8.331
	c0.05,13.107-10.244,23.771-22.999,23.824l-22.568,0.094c-11.047,0.046-19.942,9.322-19.825,20.674l0,0
	c9.508,7.692,17.533,15.947,19.465,25.786C216.194,361.011,187.153,425.193,187.153,425.193z"/>
<path style="fill:#EA2828;" d="M254.607,248.265l-0.016-4.158c-0.002-0.454-0.018-0.904-0.045-1.352
	c-0.006-0.1-0.016-0.199-0.023-0.299c-0.026-0.361-0.057-0.721-0.099-1.077c-0.009-0.082-0.021-0.163-0.031-0.245
	c-0.049-0.388-0.106-0.774-0.173-1.157c-0.007-0.043-0.015-0.086-0.023-0.128c-0.078-0.433-0.167-0.862-0.267-1.285
	c-2.506,10.271-11.527,17.895-22.306,17.94l-22.568,0.095c-11.047,0.046-20.236,9.909-21.221,21.218
	c-0.766,8.804,1.396,19.213,1.396,19.213c-0.117-11.352,8.778-20.628,19.825-20.674l22.474-0.094h0.095
	c0.797-0.004,1.585-0.048,2.361-0.132c0.776-0.084,1.54-0.208,2.292-0.369c0.751-0.161,1.489-0.36,2.211-0.594
	c3.972-1.287,7.478-3.648,10.2-6.749c0.495-0.564,0.963-1.152,1.404-1.763c0.882-1.222,1.652-2.533,2.295-3.919
	c1.447-3.118,2.251-6.611,2.237-10.298L254.607,248.265z"/>
<g>
	<path style="fill:#E1EFFB;" d="M246.439,352.883l-2.479,13.794h11.854l2.91-16.165c0.323-1.832,3.018-2.91,5.712-2.91
		c3.234,0,6.358,1.509,6.466,5.28l-2.586,13.794h8.405c2.048,0,4.096,2.156,4.096,5.174c0,3.017-1.94,5.173-3.988,5.173h-10.345
		l-2.479,13.255h8.406c2.048,0,4.203,2.263,4.203,5.173c0,3.126-2.155,5.28-4.095,5.28h-10.454l-3.125,17.243
		c-0.323,1.94-3.126,3.233-5.496,3.233c-3.018,0-6.897-1.724-6.897-5.173l2.694-15.303h-11.639l-3.126,17.243
		c-0.322,1.94-3.232,3.233-5.388,3.233c-3.017,0-6.789-1.724-6.789-5.173l2.587-15.303h-8.406c-2.371,0-3.879-2.047-3.879-5.065
		c0-3.017,1.616-5.388,3.879-5.388h10.454l2.37-13.255h-8.406c-2.478,0-3.987-1.94-3.987-5.065c0-3.018,1.509-5.281,3.879-5.281
		h10.562l2.91-16.165c0.43-1.832,3.125-2.91,5.819-2.91C243.314,347.603,246.439,349.112,246.439,352.883z M239.65,390.279h11.639
		l2.479-13.255H242.02L239.65,390.279z"/>
	<path style="fill:#E1EFFB;" d="M294.069,362.475l-3.448,3.448c-0.862,0.754-1.832,0.97-2.587,0.97
		c-2.694,0-4.526-2.801-4.526-5.604c0-1.94,0.97-3.987,2.695-5.065l12.716-9.7c0.754-0.647,1.724-1.078,2.909-1.078
		c2.91,0,6.25,1.725,6.25,4.527v70.049c0,2.909-3.556,4.418-7.005,4.418c-3.556,0-7.005-1.509-7.005-4.418v-57.547H294.069z"/>
</g>
<path style="fill:#EF3A3A;" d="M292.449,329.053c1.058,0.083,2.13,0.126,3.188,0.126c8.021,0,15.648-2.46,22.048-6.716
	c3.732,4.475,8.427,8.143,13.782,10.664l-0.997-16.411c-5.871-5.311-9.337-13.156-8.767-21.644
	c-2.89,12.759-14.779,21.798-28.204,20.737l-0.806-0.064c-14.732-1.165-25.731-14.05-24.571-28.782l0.754-9.563
	c-2.85,12.813-14.765,21.903-28.226,20.838l-0.806-0.064c-12.357-0.977-22.084-10.202-24.215-21.845l-6.572,0.028
	c-11.047,0.046-19.942,9.322-19.825,20.674l0,0c9.508,7.692,17.533,15.947,19.465,25.786c4.04,20.578-2.527,48.696-9.444,70.26
	c12.957-19.878,27.298-48.282,22.481-72.82c-1.342-6.832-7.06-15.584-11.523-21.613c-0.637-0.86,0.457-1.931,1.299-1.271
	c7.146,5.603,18.481,13.349,27.284,14.046l0.808,0.065c1.057,0.083,2.128,0.126,3.185,0.126c5.888,0,11.559-1.321,16.687-3.704
	c6.229,11.635,18.067,19.968,32.167,21.083L292.449,329.053z"/>
<g>
</g>
<g>
</g>
<g>
</g>
<g>
</g>
<g>
</g>
<g>
</g>
<g>
</g>
<g>
</g>
<g>
</g>
<g>
</g>
<g>
</g>
<g>
</g>
<g>
</g>
<g>
</g>
<g>
</g>
</svg>
