<?xml version="1.0" encoding="iso-8859-1"?>
<!-- Generator: Adobe Illustrator 19.0.0, SVG Export Plug-In . SVG Version: 6.00 Build 0)  -->
<svg version="1.1" id="Capa_1" xmlns="http://www.w3.org/2000/svg" xmlns:xlink="http://www.w3.org/1999/xlink" x="0px" y="0px"
	 viewBox="0 0 512.001 512.001" style="enable-background:new 0 0 512.001 512.001;" xml:space="preserve">
<path style="fill:#FF4C4C;" d="M117.727,324.337h276.547c2.765-3.324,5.566-6.806,8.364-10.443
	c27.425-35.636,42.154-69.393,42.595-97.621c0.374-23.938-9.061-44.322-28.844-62.314c-14.475-13.165-30.719-19.565-49.66-19.565
	c-16.288,0-34.473,4.755-54.05,14.132l-0.763,0.361c-20.763,9.555-38.224,14.214-54.951,14.662L256,163.575l-0.964-0.026
	c-16.727-0.449-34.187-5.107-54.951-14.662l-0.706-0.335c-19.6-9.395-37.804-14.158-54.107-14.158
	c-18.942,0-35.186,6.399-49.66,19.564c-19.783,17.994-29.218,38.377-28.844,62.315c0.441,28.228,15.17,61.985,42.595,97.621
	C112.161,317.531,114.962,321.013,117.727,324.337z"/>
<path style="fill:#EA2828;" d="M416.388,153.959c-14.474-13.165-30.719-19.565-49.66-19.565c-7.926,0-16.305,1.135-25.072,3.372
	c9.838,3.147,18.894,8.509,27.342,16.193c19.783,17.992,29.218,38.376,28.844,62.314c-0.441,28.228-15.17,61.985-42.595,97.621
	c-2.798,3.636-5.599,7.118-8.364,10.443h47.39c2.765-3.324,5.566-6.807,8.364-10.443c27.425-35.636,42.154-69.393,42.595-97.621
	C445.606,192.336,436.171,171.951,416.388,153.959z"/>
<path style="fill:#FFB125;" d="M341.538,280.23c0,0-10.24-113.109-85.195-209.139c-0.001,0.001-0.002,0.003-0.003,0.004
	c-0.001-0.002-0.002-0.003-0.003-0.004c-74.955,96.03-85.195,209.139-85.195,209.139c-78.259-61.781-146.853-81.804-146.853-81.804
	s57.326,83.318,96.912,240.203l135.139,0.407l135.139-0.407c39.586-156.885,96.912-240.203,96.912-240.203
	S419.797,218.449,341.538,280.23z"/>
<g>
	<path style="fill:#FF901D;" d="M341.063,279.588l0.379-0.304c-1.169-10.978-14.105-117.237-85.099-208.192
		c-0.001,0.001-0.002,0.003-0.003,0.004c-0.001-0.002-0.002-0.003-0.003-0.004c-8.986,11.512-17.032,23.27-24.251,35.049
		c32.247,54.132,50.482,115.163,60.058,156.459C297.235,284.555,323.481,293.69,341.063,279.588z"/>
	<path style="fill:#FF901D;" d="M423.569,226.574c-19.974,36.534-53.966,108.154-80.183,212.055h48.093
		c39.586-156.885,96.912-240.203,96.912-240.203S462.127,206.097,423.569,226.574z"/>
	<path style="fill:#FF901D;" d="M255.935,92.991c-13.391-0.035-24.258-10.96-24.223-24.352c0.035-13.357,10.93-24.224,24.287-24.224
		c13.457,0.035,24.324,10.96,24.289,24.352c-0.035,13.357-10.93,24.224-24.287,24.224H255.935z"/>
	<path style="fill:#FF901D;" d="M487.648,224.1c-13.391-0.035-24.258-10.96-24.223-24.351c0.035-13.357,10.928-24.224,24.285-24.224
		c13.458,0.035,24.326,10.959,24.291,24.352c-0.035,13.357-10.93,24.223-24.287,24.223H487.648z"/>
	<path style="fill:#FF901D;" d="M24.224,222.882C10.833,222.847-0.035,211.922,0,198.53c0.035-13.356,10.93-24.223,24.286-24.223
		c6.553,0.017,12.646,2.559,17.221,7.158c4.576,4.6,7.086,10.706,7.068,17.193c-0.035,13.357-10.929,24.224-24.286,24.224
		L24.224,222.882L24.224,222.882z"/>
</g>
<path style="fill:#FF4C4C;" d="M82.119,448.98L82.119,448.98c2.59,12.339,14.494,20.44,26.91,18.249
	c97.694-17.241,196.245-17.242,293.942,0c12.416,2.191,24.32-5.91,26.91-18.249l0,0c2.721-12.964-5.853-25.574-18.898-27.875
	c-102.962-18.159-207.005-18.159-309.966,0C87.972,423.406,79.398,436.017,82.119,448.98z"/>
<path style="fill:#EA2828;" d="M410.983,421.105c-7.395-1.304-14.797-2.504-22.203-3.621l-9.948,45.85
	c8.051,1.185,16.098,2.476,24.139,3.895c12.416,2.191,24.32-5.91,26.91-18.249l0,0C432.602,436.016,424.028,423.406,410.983,421.105
	z"/>
<g>
	<circle style="fill:#E1EFFB;" cx="156.22" cy="354.411" r="19.658"/>
	<circle style="fill:#E1EFFB;" cx="355.78" cy="354.411" r="19.658"/>
	<circle style="fill:#E1EFFB;" cx="256" cy="342.711" r="19.658"/>
</g>
<g>
</g>
<g>
</g>
<g>
</g>
<g>
</g>
<g>
</g>
<g>
</g>
<g>
</g>
<g>
</g>
<g>
</g>
<g>
</g>
<g>
</g>
<g>
</g>
<g>
</g>
<g>
</g>
<g>
</g>
</svg>
