<?xml version="1.0" encoding="iso-8859-1"?>
<!-- Generator: Adobe Illustrator 19.0.0, SVG Export Plug-In . SVG Version: 6.00 Build 0)  -->
<svg version="1.1" id="Capa_1" xmlns="http://www.w3.org/2000/svg" xmlns:xlink="http://www.w3.org/1999/xlink" x="0px" y="0px"
	 viewBox="0 0 512 512" style="enable-background:new 0 0 512 512;" xml:space="preserve">
<path style="fill:#AF8A82;" d="M36.902,457.315H8.691V52.331c0-1.516,1.229-2.744,2.744-2.744h25.466L36.902,457.315L36.902,457.315
	z"/>
<path style="fill:#FF901D;" d="M42.888,462.413H2.705c-1.494,0-2.705-1.211-2.705-2.705v-23.717c0-1.494,1.211-2.705,2.705-2.705
	h40.183c1.494,0,2.705,1.211,2.705,2.705v23.717C45.593,461.202,44.382,462.413,42.888,462.413z"/>
<path style="fill:#AF8A82;" d="M503.309,457.315h-28.211V49.587h25.466c1.516,0,2.744,1.229,2.744,2.744v404.984H503.309z"/>
<path style="fill:#E1EFFB;" d="M503.509,200.589H8.691V52.331c0-1.516,1.229-2.744,2.744-2.744h489.329
	c1.516,0,2.744,1.229,2.744,2.744v148.258H503.509z"/>
<path style="fill:#C3D8E5;" d="M500.764,49.587H456.68v151.002h46.828V52.331C503.509,50.816,502.28,49.587,500.764,49.587z"/>
<path style="fill:#FF901D;" d="M509.295,462.413h-40.183c-1.494,0-2.705-1.211-2.705-2.705v-23.717c0-1.494,1.211-2.705,2.705-2.705
	h40.183c1.494,0,2.705,1.211,2.705,2.705v23.717C512,461.202,510.789,462.413,509.295,462.413z"/>
<g>
	<path style="fill:#2D5872;" d="M116.903,92.005c2.691,0,4.158-2.691,4.158-5.872c0-2.691-1.223-5.626-4.158-5.626H73.969
		c-2.813,0-5.749,1.467-5.749,4.282v80.853c0,2.936,3.303,4.282,6.483,4.282c3.303,0,6.483-1.346,6.483-4.282v-35.35h18.96
		c2.936,0,4.159-2.691,4.159-5.015c0-2.813-1.468-5.26-4.159-5.26h-18.96V92.005H116.903z"/>
	<path style="fill:#2D5872;" d="M153.354,165.641V84.666c0-2.936-3.181-4.159-6.483-4.159c-3.18,0-6.483,1.223-6.483,4.159v80.975
		c0,2.814,3.303,4.282,6.483,4.282C150.174,169.923,153.354,168.455,153.354,165.641z"/>
	<path style="fill:#2D5872;" d="M193.23,165.641v-56.144l29.234,55.656c1.713,3.18,4.526,4.77,7.706,4.77
		c3.303,0,6.483-1.467,6.483-4.282V84.666c0-2.936-3.18-4.159-6.483-4.159c-3.181,0-6.483,1.223-6.483,4.159v56.145l-27.155-52.965
		c-2.936-5.626-5.137-7.339-9.786-7.339c-3.303,0-6.483,1.223-6.483,4.282v80.853c0,2.814,3.303,4.282,6.483,4.282
		C190.049,169.923,193.23,168.455,193.23,165.641z"/>
	<path style="fill:#2D5872;" d="M276.528,165.641V84.666c0-2.936-3.181-4.159-6.483-4.159c-3.18,0-6.483,1.223-6.483,4.159v80.975
		c0,2.814,3.303,4.282,6.483,4.282C273.348,169.923,276.528,168.455,276.528,165.641z"/>
	<path style="fill:#2D5872;" d="M325.455,159.159c-13.577,0-16.513-9.663-20.917-9.663c-3.058,0-5.626,4.036-5.626,6.972
		c0,6.116,11.131,14.434,27.033,14.434c16.146,0,27.889-8.563,27.889-26.054c0-32.537-39.754-24.342-39.754-42.445
		c0-7.706,6.361-11.131,15.29-11.131c10.397,0,13.577,4.648,16.88,4.648c3.67,0,5.382-4.526,5.382-6.972
		c0-6.728-14.312-8.807-22.262-8.807c-13.089,0-28.256,5.382-28.256,23.485c0,29.357,39.754,20.917,39.754,42.568
		C340.867,155,334.262,159.159,325.455,159.159z"/>
	<path style="fill:#2D5872;" d="M433.218,165.641V84.666c0-2.936-3.18-4.159-6.483-4.159c-3.181,0-6.483,1.223-6.483,4.159v33.76
		h-30.458v-33.76c0-2.936-3.181-4.159-6.483-4.159c-3.18,0-6.483,1.223-6.483,4.159v80.975c0,2.814,3.303,4.282,6.483,4.282
		c3.303,0,6.483-1.467,6.483-4.282v-36.94h30.458v36.94c0,2.814,3.303,4.282,6.483,4.282
		C430.038,169.923,433.218,168.455,433.218,165.641z"/>
</g>
<g>
</g>
<g>
</g>
<g>
</g>
<g>
</g>
<g>
</g>
<g>
</g>
<g>
</g>
<g>
</g>
<g>
</g>
<g>
</g>
<g>
</g>
<g>
</g>
<g>
</g>
<g>
</g>
<g>
</g>
</svg>
