<?xml version="1.0" encoding="iso-8859-1"?>
<!-- Generator: Adobe Illustrator 19.0.0, SVG Export Plug-In . SVG Version: 6.00 Build 0)  -->
<svg version="1.1" id="Capa_1" xmlns="http://www.w3.org/2000/svg" xmlns:xlink="http://www.w3.org/1999/xlink" x="0px" y="0px"
	 viewBox="0 0 512 512" style="enable-background:new 0 0 512 512;" xml:space="preserve">
<path style="fill:#FF901D;" d="M312.932,294.857h-137.93c-35.092,0-63.026-29.395-61.239-64.442l7.055-138.353
	C123.448,40.477,166.042,0,217.695,0h52.544c51.653,0,94.246,40.477,96.877,92.063l7.055,138.353
	C375.958,265.462,348.024,294.857,312.932,294.857z"/>
<path style="fill:#FF6D3A;" d="M374.171,230.415l-7.055-138.353C364.485,40.477,321.892,0,270.239,0h-36.24
	c51.653,0,94.246,40.477,96.877,92.063l7.055,138.353c1.787,35.047-26.147,64.442-61.239,64.442h36.24
	C348.024,294.857,375.958,265.462,374.171,230.415z"/>
<path style="fill:#FED9A8;" d="M460.05,400.525c-7.441-31.854-31.449-58.048-63.844-67.586l-82.579-23.37
	c-10.79-2.169-18.552-14.685-18.552-25.691v-49.044h-51.108h-0.001h-51.107v49.044c0,11.006-7.763,23.522-18.552,25.691
	l-82.579,23.37c-32.395,9.538-56.403,35.732-63.844,67.586H460.05z"/>
<path style="fill:#F4C28C;" d="M258.972,234.834v75.871c0,11.006,7.763,23.522,18.552,25.691l82.579,23.37
	c22.68,6.678,41.239,21.526,52.891,40.758h47.056c-7.441-31.854-31.449-58.048-63.844-67.586l-82.579-23.37
	c-10.79-2.169-18.552-14.685-18.552-25.691v-49.044L258.972,234.834L258.972,234.834z"/>
<path style="fill:#A567DB;" d="M405.494,332.438l-27.509-9.243c-3.493-1.174-7.362-0.096-9.712,2.742
	c-18.164,21.936-59.411,60.962-124.306,63.174c-64.895-2.212-106.142-41.238-124.306-63.174c-2.35-2.838-6.219-3.915-9.712-2.742
	l-27.509,9.243c-41.694,12.276-70.322,50.548-70.322,94.013v66.156c0,10.711,8.683,19.393,19.393,19.393h424.912
	c10.711,0,19.394-8.683,19.394-19.394V426.45C475.816,382.986,447.188,344.714,405.494,332.438z"/>
<path style="fill:#9054D1;" d="M405.494,332.438l-27.509-9.243c-3.493-1.174-7.362-0.096-9.712,2.742
	c-5.648,6.82-13.53,15.293-23.657,23.797l24.466,8.22c41.694,12.276,70.322,37.349,70.322,80.813V512h17.018
	c10.711,0,19.394-8.683,19.394-19.394V426.45C475.816,382.986,447.188,344.714,405.494,332.438z"/>
<path style="fill:#FED9A8;" d="M348.033,123.843h-6.642l0,0c0-3.689-2.826-6.761-6.501-7.091
	c-88.518-7.965-117.616-32.77-141.763-57.818c-4.297-4.457-45.918,13.116-46.585,53.97v10.94H139.9
	c-9.738,0-17.633,7.894-17.633,17.633v19.54c0,9.738,7.894,17.632,17.632,17.632h6.669c0.549,25.59,18.627,50.221,38.055,66.949
	c15.641,13.467,30.301,25.222,59.343,25.546c29.042-0.324,43.703-12.079,59.343-25.546c19.427-16.728,37.506-41.359,38.055-66.949
	h6.669c9.738,0,17.633-7.894,17.633-17.633v-19.54C365.666,131.737,357.772,123.843,348.033,123.843z"/>
<path style="fill:#F4C28C;" d="M348.033,123.843h-6.642c0-3.689-2.826-6.761-6.501-7.091c-10.638-0.957-20.409-2.16-29.425-3.575
	c0.019,3.201,0.003,65.471,0.003,65.471c-0.549,25.59-18.627,50.221-38.055,66.949c-12.04,10.367-23.507,19.714-41.395,23.618
	c5.348,1.167,11.264,1.854,17.948,1.928c29.042-0.324,43.703-12.079,59.343-25.546c19.427-16.728,37.506-41.359,38.055-66.949h6.669
	c9.738,0,17.633-7.894,17.633-17.633v-19.54C365.666,131.737,357.771,123.843,348.033,123.843z"/>
<g>
	<path style="fill:#FFB125;" d="M353.655,403.265c-22.165,0.001-43.057-7.288-59.012-20.911
		c-18.046-15.408-27.985-37.432-27.985-62.015v-13.163c0-3.674,1.432-7.126,4.033-9.722c2.593-2.587,6.036-4.011,9.698-4.011
		c0.01,0,0.02,0,0.03,0l62.249,0.136c6.265,0.014,11.332,5.103,11.318,11.367c-0.014,6.255-5.089,11.317-11.342,11.317
		c-0.008,0-0.016,0-0.025,0l-53.277-0.117v4.191c0,17.838,7.113,33.735,20.03,44.763c14.757,12.599,35.527,17.874,56.973,14.467
		c6.178-0.975,11.999,3.237,12.98,9.424c0.982,6.187-3.238,11.998-9.424,12.98C364.448,402.838,359.012,403.265,353.655,403.265z"/>
	<path style="fill:#FFB125;" d="M412.883,403.265c-5.359,0-10.791-0.426-16.246-1.291c-6.186-0.982-10.406-6.793-9.424-12.98
		s6.783-10.404,12.98-9.424c21.446,3.404,42.218-1.868,56.974-14.467c12.916-11.028,20.03-26.926,20.03-44.763v-4.191l-53.277,0.117
		c-0.008,0-0.016,0-0.024,0c-6.253,0-11.328-5.062-11.342-11.317c-0.014-6.265,5.053-11.353,11.318-11.367l62.249-0.136
		c0.01,0,0.021,0,0.03,0c3.662,0,7.105,1.424,9.698,4.011c2.601,2.595,4.033,6.048,4.033,9.722v13.163
		c0,24.583-9.938,46.607-27.985,62.015C455.942,395.975,435.046,403.265,412.883,403.265z"/>
</g>
<g>
	<path style="fill:#FED130;" d="M349.854,483.3h66.831c-27.683-32.38-24.794-79.047-24.794-79.047h-8.621h-8.621
		C374.648,404.252,377.537,450.919,349.854,483.3z"/>
	<path style="fill:#FED130;" d="M322.5,290.377v44.993c0,31.62,15.028,61.358,40.486,80.114l0,0c12.062,8.886,28.504,8.886,40.566,0
		l0,0c25.458-18.755,40.486-48.493,40.486-80.114v-44.993L322.5,290.377L322.5,290.377z"/>
</g>
<path style="fill:#F7BC14;" d="M397.578,290.377v44.993c0,30.378-13.876,59.012-37.539,77.846c0.968,0.77,1.947,1.53,2.947,2.267
	l0,0c12.062,8.886,28.504,8.886,40.566,0c25.458-18.755,40.486-48.493,40.486-80.114v-44.993h-46.46V290.377z"/>
<path style="fill:#FFB125;" d="M440.159,512H326.38c-2.01,0-3.521-1.835-3.136-3.808l6.03-30.858c0.293-1.5,1.607-2.582,3.136-2.582
	h101.72c1.528,0,2.843,1.082,3.136,2.582l6.03,30.858C443.68,510.165,442.169,512,440.159,512z"/>
<path style="fill:#FF901D;" d="M443.295,508.192l-6.03-30.858c-0.293-1.5-1.607-2.582-3.136-2.582h-43.485L397.923,512h42.236
	C442.169,512,443.68,510.165,443.295,508.192z"/>
<path style="fill:#FFB125;" d="M447.645,293.443H318.894c-2.375,0-4.301-1.926-4.301-4.301v-14.923c0-2.375,1.926-4.301,4.301-4.301
	h128.751c2.375,0,4.301,1.926,4.301,4.301v14.923C451.946,291.517,450.02,293.443,447.645,293.443z"/>
<path style="fill:#FF901D;" d="M447.645,269.918h-41.987v23.525h41.987c2.375,0,4.301-1.926,4.301-4.301v-14.923
	C451.946,271.844,450.02,269.918,447.645,269.918z"/>
<path style="fill:#9054D1;" d="M84.605,417.19c-4.269,0-7.729,3.46-7.729,7.729V512h15.458v-87.081
	C92.334,420.651,88.874,417.19,84.605,417.19z"/>
<g>
</g>
<g>
</g>
<g>
</g>
<g>
</g>
<g>
</g>
<g>
</g>
<g>
</g>
<g>
</g>
<g>
</g>
<g>
</g>
<g>
</g>
<g>
</g>
<g>
</g>
<g>
</g>
<g>
</g>
</svg>
