<?xml version="1.0" encoding="iso-8859-1"?>
<!-- Generator: Adobe Illustrator 19.0.0, SVG Export Plug-In . SVG Version: 6.00 Build 0)  -->
<svg version="1.1" id="Capa_1" xmlns="http://www.w3.org/2000/svg" xmlns:xlink="http://www.w3.org/1999/xlink" x="0px" y="0px"
	 viewBox="0 0 512.001 512.001" style="enable-background:new 0 0 512.001 512.001;" xml:space="preserve">
<path style="fill:#FED9A8;" d="M385.519,369.965c6.832-10.82,10.475-23.442,10.49-36.347l-6.774-111.456
	c-0.179-14.387-11.3-26.524-25.923-27.68l0,0c-14.133-1.118-26.648,8.408-29.672,21.847l0.895-11.362
	c1.22-15.495-10.348-29.046-25.843-30.271l-0.847-0.067c-15.502-1.226-29.114,10.236-30.335,25.737v0.001l12.993-169.029
	c1.161-15.556-10.056-29.64-25.578-31.193c-16.049-1.606-30.167,10.328-31.354,26.309l-10.847,140.478
	c-0.385,4.983-3.042,9.586-7.324,12.163c-8.118,4.886-12.496-0.471-15.317-9.723L172.051,55.389
	c-4.583-15.029-20.693-23.794-35.8-19.478l-0.01,0.003c-15.095,4.6-23.602,20.566-19,35.66l46.146,181.18
	c0,0-11.489,21.986-6.299,39.658l37.859,128.923l-4.367,80.132h154.4l-3.156-74.77c-0.05-1.178,0.328-2.335,1.063-3.257
	L385.519,369.965z"/>
<path id="SVGCleanerId_0" style="fill:#FED9A8;" d="M157.087,292.412l37.859,128.923l-4.367,80.132h154.4l-3.156-74.77
	c-0.05-1.178,0.328-2.335,1.063-3.257l42.634-53.475c6.832-10.82,10.475-23.443,10.49-36.347l-6.937-114.137l-114.106,13.974
	l15.537-202.116c1.161-15.556-10.056-29.64-25.578-31.193c-16.049-1.606-30.167,10.328-31.354,26.309l-10.847,140.478
	c-0.385,4.983-3.042,9.586-7.324,12.163c-8.118,4.886-12.496-0.471-15.317-9.723L172.051,55.388
	c-4.583-15.029-20.693-23.794-35.8-19.478l-0.01,0.003c-15.095,4.6-23.602,20.566-19,35.66l46.145,181.18
	C163.386,252.754,151.897,274.74,157.087,292.412z"/>
<g>
	<path id="SVGCleanerId_0_1_" style="fill:#FED9A8;" d="M157.087,292.412l37.859,128.923l-4.367,80.132h154.4l-3.156-74.77
		c-0.05-1.178,0.328-2.335,1.063-3.257l42.634-53.475c6.832-10.82,10.475-23.443,10.49-36.347l-6.937-114.137l-114.106,13.974
		l15.537-202.116c1.161-15.556-10.056-29.64-25.578-31.193c-16.049-1.606-30.167,10.328-31.354,26.309l-10.847,140.478
		c-0.385,4.983-3.042,9.586-7.324,12.163c-8.118,4.886-12.496-0.471-15.317-9.723L172.051,55.388
		c-4.583-15.029-20.693-23.794-35.8-19.478l-0.01,0.003c-15.095,4.6-23.602,20.566-19,35.66l46.145,181.18
		C163.386,252.754,151.897,274.74,157.087,292.412z"/>
</g>
<path style="fill:#F9CC95;" d="M298.455,304.721c1.118,0.088,2.239,0.133,3.36,0.133c5.895,0,11.54-1.243,16.687-3.47
	c5.909,11.561,16.985,20.17,30.401,22.566l-4.216-69.356l-187.036-8.188c0,0-5.754,28.334-0.565,46.006l37.859,128.923
	l28.481-57.701c8.462-17.144,11.104-36.581,7.523-55.361c-4.006-9.927-9.974-18.864-17.795-26.666
	c0.161-0.198,0.315-0.366,0.453-0.507c0.855-0.867,2.32-1.904,4.417-1.913l33.005-0.099c3.55-0.015,6.984-0.528,10.248-1.457
	c5.744,14.732,19.511,25.693,36.297,27.021L298.455,304.721z"/>
<g>
	<path style="fill:#F4C28C;" d="M385.519,369.965c6.832-10.82,10.475-23.443,10.49-36.347l-6.937-114.137l-46.168,5.776
		l6.586,108.361c-0.015,12.905-3.658,25.527-10.49,36.347l-42.634,53.475c-0.735,0.922-1.113,2.079-1.063,3.257l3.156,74.77h46.518
		l-3.156-74.77c-0.05-1.178,0.328-2.335,1.063-3.257L385.519,369.965z"/>
	<path style="fill:#F4C28C;" d="M264.924,0.146c-0.657-0.066-1.309-0.101-1.958-0.122c-0.162-0.005-0.324-0.009-0.485-0.011
		c-0.605-0.009-1.207-0.004-1.804,0.024c-0.042,0.002-0.084,0.001-0.125,0.004c-0.652,0.034-1.298,0.095-1.939,0.172
		c-0.121,0.015-0.241,0.031-0.361,0.048c-0.609,0.082-1.215,0.178-1.813,0.298c-0.027,0.006-0.054,0.009-0.081,0.015
		c-0.656,0.134-1.304,0.292-1.944,0.47c-0.056,0.016-0.111,0.033-0.167,0.048c-0.631,0.18-1.254,0.377-1.867,0.599
		c-0.002,0.001-0.003,0.001-0.005,0.002c-1.295,0.468-2.548,1.028-3.752,1.671c9.783,5.299,15.983,16.213,15.105,27.974
		l-12.3,164.771c-1.17,15.674,5.821,30.846,18.497,40.139l4.535,3.325l1.142-14.39L290.5,31.365l0.002-0.026
		c0.073-0.972,0.097-1.939,0.075-2.897c-0.033-1.437-0.171-2.855-0.406-4.245c-0.235-1.39-0.568-2.752-0.992-4.076
		C285.786,9.524,276.566,1.311,264.924,0.146z"/>
	<path style="fill:#F4C28C;" d="M136.249,35.911l-0.009,0.003c-0.474,0.145-0.942,0.3-1.403,0.467
		c-0.016,0.006-0.032,0.013-0.048,0.019c-0.445,0.162-0.884,0.332-1.316,0.514c-0.01,0.004-0.018,0.009-0.028,0.013
		c-0.885,0.373-1.744,0.787-2.574,1.239c6.697,3.497,12.059,9.538,14.402,17.224l26.632,107.769
		c2.108,8.53,9.334,14.825,18.072,15.745l19.365,2.039l-0.005-0.018c-4.417-0.301-7.236-4.927-9.255-11.551L172.051,55.388
		c-0.385-1.263-0.858-2.478-1.399-3.649c-0.263-0.57-0.538-1.133-0.835-1.681c-0.454-0.835-0.948-1.642-1.477-2.419
		c-0.529-0.778-1.094-1.525-1.692-2.243c-0.897-1.075-1.867-2.081-2.901-3.01c-0.345-0.31-0.696-0.611-1.055-0.905
		c-1.433-1.171-2.973-2.205-4.595-3.088c-1.217-0.662-2.48-1.239-3.778-1.725c-1.732-0.649-3.527-1.136-5.362-1.448
		c-0.459-0.078-0.92-0.146-1.383-0.202c-0.927-0.112-1.862-0.18-2.802-0.202c-0.001,0-0.001,0-0.002,0
		c-0.916-0.021-1.836,0.003-2.759,0.071c-1.919,0.141-3.848,0.476-5.76,1.023L136.249,35.911z"/>
</g>
<path style="fill:#FED9A8;" d="M354.182,310.157L354.182,310.157c15.501,1.226,29.061-10.349,30.281-25.851l4.69-59.552
	c1.22-15.495-10.348-29.046-25.843-30.272l0,0c-15.501-1.226-29.06,10.349-30.281,25.851l-4.69,59.552
	C327.119,295.38,338.688,308.932,354.182,310.157z"/>
<path style="fill:#F4C28C;" d="M363.312,194.482L363.312,194.482c-4.249-0.336-8.349,0.295-12.092,1.7
	c6.659,2.123,11.237,8.595,10.665,15.863l-6.693,84.979c-0.402,5.101-3.255,9.411-7.304,11.9c2.005,0.634,4.109,1.06,6.295,1.234
	l0,0c15.501,1.226,29.06-10.349,30.281-25.851l4.691-59.552C390.375,209.259,378.806,195.707,363.312,194.482z"/>
<path style="fill:#FED9A8;" d="M298.715,290.304l0.847,0.067c15.501,1.226,29.06-10.349,30.281-25.851l4.69-59.552
	c1.22-15.495-10.348-29.046-25.843-30.272l-0.847-0.067c-15.501-1.226-29.114,10.235-30.335,25.737l-4.637,59.666
	C271.652,275.528,283.221,289.079,298.715,290.304z"/>
<path style="fill:#2D5872;" d="M348.987,512.001H185.426c-5.39,0-9.76-4.37-9.76-9.76v-47.064c0-5.39,4.37-9.76,9.76-9.76h163.562
	c5.39,0,9.76,4.37,9.76,9.76v47.064C358.747,507.631,354.377,512.001,348.987,512.001z"/>
<path style="fill:#1D4859;" d="M348.987,445.418H311.8v66.583h37.187c5.39,0,9.76-4.37,9.76-9.76v-47.064
	C358.747,449.788,354.377,445.418,348.987,445.418z"/>
<path style="fill:#F4C28C;" d="M308.691,174.696l-0.847-0.067c-1.8-0.142-3.571-0.105-5.302,0.084
	c3.003,3.068,4.724,7.358,4.36,11.973l-6.693,84.979c-0.617,7.834-6.998,13.822-14.653,14.16c3.816,2.494,8.293,4.095,13.158,4.479
	l0.847,0.067c15.502,1.226,29.061-10.349,30.282-25.851l4.69-59.552C335.755,189.473,324.186,175.922,308.691,174.696z"/>
<path style="fill:#FED9A8;" d="M194.945,421.336l-50.677-107.682c-4.174-7.607-6.41-16.173-6.5-24.903l-0.45-43.712
	c-0.219-21.252,16.426-38.621,37.107-38.723l76.269-0.329c13.435-0.066,24.379,11.083,24.431,24.889l0.033,8.763
	c0.053,13.785-10.774,25.001-24.189,25.057l-32.989,0.099c-11.619,0.049-20.974,9.805-20.851,21.744l0,0
	c10,8.091,16.531,17.339,20.473,27.121C236.467,360.474,194.945,421.336,194.945,421.336z"/>
<path style="fill:#F4C28C;" d="M275.16,239.606l-0.033-8.729c0-0.002,0-0.004,0-0.006c-0.002-0.553-0.028-1.1-0.065-1.643
	c-0.009-0.127-0.019-0.253-0.029-0.379c-0.043-0.511-0.096-1.019-0.168-1.521c-0.004-0.026-0.006-0.052-0.01-0.078
	c-0.085-0.579-0.189-1.152-0.312-1.717c-0.002-0.01-0.004-0.019-0.006-0.028c-0.124-0.568-0.267-1.129-0.427-1.683l0,0
	c-3.022,10.194-12.223,17.628-23.138,17.674l-32.989,0.099c-11.619,0.048-20.974,9.804-20.851,21.744l0,0v23.201
	c-0.123-11.939,9.233-21.695,20.851-21.744l32.989-0.099c0.838-0.004,1.667-0.051,2.483-0.139c0.752-0.082,1.492-0.202,2.221-0.353
	c0.14-0.029,0.279-0.059,0.417-0.091c0.711-0.16,1.411-0.347,2.097-0.569c0.38-0.123,0.756-0.256,1.127-0.397
	c1.114-0.425,2.19-0.931,3.22-1.511c0.343-0.194,0.682-0.396,1.015-0.605c0.666-0.42,1.311-0.871,1.932-1.353
	c0.311-0.241,0.616-0.489,0.914-0.745c0.594-0.508,1.164-1.045,1.708-1.608c0.003-0.004,0.007-0.007,0.01-0.01
	c0.547-0.567,1.068-1.16,1.561-1.778c0.985-1.237,1.857-2.572,2.599-3.99s1.355-2.917,1.822-4.482
	c0.233-0.783,0.43-1.581,0.589-2.394c0.317-1.626,0.481-3.309,0.474-5.032L275.16,239.606z"/>
<g>
</g>
<g>
</g>
<g>
</g>
<g>
</g>
<g>
</g>
<g>
</g>
<g>
</g>
<g>
</g>
<g>
</g>
<g>
</g>
<g>
</g>
<g>
</g>
<g>
</g>
<g>
</g>
<g>
</g>
</svg>
