<?xml version="1.0" encoding="iso-8859-1"?>
<!-- Generator: Adobe Illustrator 19.0.0, SVG Export Plug-In . SVG Version: 6.00 Build 0)  -->
<svg version="1.1" id="Capa_1" xmlns="http://www.w3.org/2000/svg" xmlns:xlink="http://www.w3.org/1999/xlink" x="0px" y="0px"
	 viewBox="0 0 512.001 512.001" style="enable-background:new 0 0 512.001 512.001;" xml:space="preserve">
<path style="fill:#FF4C4C;" d="M356.517,511.263l-98.694-42.613c-2.277-0.983-4.862-0.969-7.128,0.041l-95.119,42.363
	c-5.869,2.614-12.485-1.682-12.485-8.107V8.875c0-4.901,3.973-8.875,8.875-8.875h208.069c4.901,0,8.875,3.973,8.875,8.875v494.241
	C368.909,509.497,362.375,513.793,356.517,511.263z"/>
<path style="fill:#EA2828;" d="M360.034,0h-38.163v496.305l34.645,14.959c5.859,2.53,12.392-1.766,12.392-8.148V8.875
	C368.909,3.973,364.936,0,360.034,0z"/>
<circle style="fill:#F2F2F2;" cx="256" cy="230.06" r="175.2"/>
<path style="fill:#D9DDE2;" d="M256,54.859c-8.119,0-16.104,0.565-23.929,1.634c85.436,11.671,151.267,84.923,151.267,173.562
	s-65.831,161.892-151.267,173.562c7.825,1.069,15.811,1.634,23.929,1.634c96.758,0,175.196-78.438,175.196-175.196
	S352.758,54.859,256,54.859z"/>
<g>
	<path style="fill:#2C5871;" d="M274.8,276.022V150.706c0-1.118-0.906-2.025-2.025-2.025h-23.654c-0.476,0-0.937,0.168-1.301,0.474
		l-42.975,36.065c-0.835,0.701-0.965,1.938-0.294,2.797l14.094,18.037c0.702,0.899,2.008,1.04,2.887,0.313l17.965-14.874
		c1.32-1.093,3.316-0.154,3.316,1.559v82.969c0,1.118-0.906,2.025-2.025,2.025h-24.842c-1.118,0-2.025,0.906-2.025,2.025v21.452
		c0,1.118,0.906,2.025,2.025,2.025h81.591c1.118,0,2.025-0.906,2.025-2.025v-21.452c0-1.118-0.906-2.025-2.025-2.025h-20.714
		C275.707,278.047,274.8,277.14,274.8,276.022z"/>
	<path style="fill:#2C5871;" d="M148.662,144.783c-3.484-2.464-8.303-1.64-10.769,1.843c-4.654,6.576-8.781,13.584-12.266,20.829
		c-1.85,3.845-0.231,8.461,3.613,10.31c1.08,0.52,2.22,0.765,3.344,0.765c2.876,0,5.637-1.613,6.967-4.379
		c3.111-6.469,6.797-12.727,10.954-18.6C152.969,152.069,152.144,147.248,148.662,144.783z"/>
	<path style="fill:#2C5871;" d="M165.921,343.166c1.423,1.134,3.122,1.685,4.811,1.685c2.27,0,4.519-0.996,6.045-2.909
		c2.66-3.336,2.111-8.196-1.224-10.856c-5.619-4.48-10.903-9.465-15.705-14.817c-2.848-3.176-7.732-3.441-10.909-0.591
		c-3.176,2.849-3.44,7.734-0.59,10.909C153.721,332.574,159.633,338.152,165.921,343.166z"/>
	<path style="fill:#2C5871;" d="M196.257,106.636c-2.076-3.728-6.782-5.066-10.507-2.989c-7.021,3.911-13.766,8.444-20.049,13.474
		c-3.33,2.667-3.869,7.528-1.202,10.858c1.526,1.906,3.77,2.898,6.035,2.898c1.693,0,3.398-0.555,4.823-1.695
		c5.613-4.494,11.639-8.544,17.91-12.037C196.996,115.068,198.334,110.364,196.257,106.636z"/>
	<path style="fill:#2C5871;" d="M125.753,292.916c1.333,2.758,4.09,4.364,6.961,4.364c1.128,0,2.273-0.248,3.357-0.772
		c3.84-1.857,5.45-6.476,3.592-10.318c-3.128-6.471-5.727-13.248-7.724-20.143c-1.187-4.098-5.473-6.456-9.57-5.27
		c-4.098,1.187-6.458,5.471-5.271,9.569C119.336,278.073,122.248,285.666,125.753,292.916z"/>
	<path style="fill:#2C5871;" d="M284.806,355.974c-6.985,1.591-14.174,2.604-21.368,3.012c-4.259,0.241-7.517,3.89-7.275,8.15
		c0.233,4.111,3.639,7.288,7.706,7.288c0.147,0,0.296-0.004,0.445-0.013c8.051-0.456,16.101-1.591,23.925-3.373
		c4.159-0.947,6.763-5.088,5.816-9.247C293.107,357.631,288.966,355.027,284.806,355.974z"/>
	<path style="fill:#2C5871;" d="M126.859,230.194v-0.139c0-7.173,0.592-14.368,1.761-21.385c0.7-4.209-2.143-8.188-6.351-8.889
		c-4.224-0.708-8.189,2.142-8.89,6.351c-1.308,7.853-1.97,15.902-1.97,23.923v0.139c0,4.266,3.458,7.725,7.725,7.725
		S126.859,234.461,126.859,230.194z"/>
	<path style="fill:#2C5871;" d="M206.756,349.478c-3.942-1.628-8.459,0.249-10.088,4.193c-1.627,3.944,0.249,8.46,4.193,10.088
		c7.445,3.073,15.202,5.534,23.052,7.313c0.575,0.13,1.15,0.193,1.715,0.193c3.529,0,6.714-2.433,7.527-6.019
		c0.944-4.161-1.666-8.298-5.826-9.241C220.323,354.416,213.4,352.221,206.756,349.478z"/>
	<path style="fill:#2C5871;" d="M387.439,199.507c0.714,0,1.44-0.1,2.161-0.309c4.097-1.191,6.453-5.478,5.262-9.574
		c-2.246-7.724-5.165-15.314-8.678-22.56c-1.86-3.838-6.481-5.444-10.321-3.582c-3.839,1.861-5.443,6.482-3.582,10.321
		c3.134,6.468,5.74,13.242,7.744,20.135C381.006,197.313,384.091,199.507,387.439,199.507z"/>
	<path style="fill:#2C5871;" d="M225.336,104.362c0.57,0,1.151-0.063,1.73-0.196c6.983-1.598,14.171-2.619,21.366-3.034
		c4.259-0.245,7.513-3.898,7.266-8.157c-0.245-4.26-3.892-7.515-8.158-7.267c-8.052,0.465-16.101,1.608-23.921,3.398
		c-4.159,0.952-6.759,5.095-5.807,9.254C218.632,101.938,221.814,104.362,225.336,104.362z"/>
	<path style="fill:#2C5871;" d="M363.253,315.436c1.357,0.962,2.917,1.424,4.462,1.424c2.419,0,4.802-1.133,6.309-3.257
		c4.659-6.57,8.793-13.574,12.286-20.816c1.853-3.843,0.239-8.46-3.603-10.314s-8.461-0.24-10.314,3.603
		c-3.118,6.467-6.81,12.721-10.972,18.589C358.953,308.146,359.772,312.969,363.253,315.436z"/>
	<path style="fill:#2C5871;" d="M315.206,106.38c1.623-3.946-0.258-8.46-4.204-10.084c-7.445-3.065-15.205-5.518-23.061-7.29
		c-4.161-0.938-8.296,1.674-9.236,5.836c-0.938,4.162,1.674,8.297,5.836,9.236c7.011,1.581,13.935,3.77,20.58,6.505
		c0.962,0.396,1.957,0.583,2.937,0.583C311.097,111.166,313.978,109.363,315.206,106.38z"/>
	<path style="fill:#2C5871;" d="M390.986,260.573c3.706,0,6.977-2.674,7.609-6.449c1.325-7.9,1.996-15.998,1.996-23.985l0.001-0.362
		c0-4.266-3.458-7.725-7.725-7.725s-7.725,3.459-7.725,7.725l-0.001,0.278c0,7.218-0.599,14.456-1.782,21.515
		c-0.705,4.208,2.133,8.191,6.342,8.896C390.132,260.538,390.563,260.573,390.986,260.573z"/>
	<path style="fill:#2C5871;" d="M357.813,146.305c1.84,0,3.687-0.654,5.162-1.981c3.173-2.853,3.432-7.737,0.579-10.91
		c-5.38-5.983-11.299-11.554-17.59-16.56c-3.339-2.657-8.198-2.103-10.855,1.235c-2.656,3.339-2.103,8.199,1.235,10.855
		c5.623,4.474,10.912,9.454,15.721,14.802C353.591,145.442,355.698,146.305,357.813,146.305z"/>
	<path style="fill:#2C5871;" d="M322.376,357.509c1.269,0,2.557-0.314,3.745-0.974c7.022-3.901,13.772-8.428,20.063-13.453
		c3.332-2.663,3.877-7.524,1.213-10.857c-2.662-3.333-7.522-3.877-10.857-1.214c-5.62,4.49-11.65,8.534-17.923,12.019
		c-3.73,2.072-5.073,6.775-3,10.505C317.028,356.076,319.661,357.509,322.376,357.509z"/>
</g>
<g>
</g>
<g>
</g>
<g>
</g>
<g>
</g>
<g>
</g>
<g>
</g>
<g>
</g>
<g>
</g>
<g>
</g>
<g>
</g>
<g>
</g>
<g>
</g>
<g>
</g>
<g>
</g>
<g>
</g>
</svg>
