<?xml version="1.0" encoding="iso-8859-1"?>
<!-- Generator: Adobe Illustrator 19.0.0, SVG Export Plug-In . SVG Version: 6.00 Build 0)  -->
<svg version="1.1" id="Capa_1" xmlns="http://www.w3.org/2000/svg" xmlns:xlink="http://www.w3.org/1999/xlink" x="0px" y="0px"
	 viewBox="0 0 512 512" style="enable-background:new 0 0 512 512;" xml:space="preserve">
<path style="fill:#FFB125;" d="M184.063,445.121h143.872c-59.596-69.707-53.377-170.17-53.377-170.17h-18.559H237.44
	C237.44,274.951,243.66,375.414,184.063,445.121z"/>
<path style="fill:#FF901D;" d="M274.558,274.951h-18.559H237.44c0,0,0.755,12.214-0.786,31.079
	c-3.203,39.191,5.199,78.598,25.246,112.426c5.445,9.188,11.739,18.155,19.014,26.665h47.021
	C268.339,375.414,274.558,274.951,274.558,274.951z"/>
<path style="fill:#FFB125;" d="M270.315,334.132h-28.633c-14.795,0-26.788-11.994-26.788-26.788v-35.84h82.209v35.84
	C297.104,322.138,285.11,334.132,270.315,334.132z"/>
<path style="fill:#FF901D;" d="M250.6,271.504v35.84c0,11.66-7.452,21.576-17.852,25.256c2.795,0.989,5.802,1.533,8.936,1.533
	h28.633c14.795,0,26.788-11.994,26.788-26.788v-35.84H250.6V271.504z"/>
<path style="fill:#2D5872;" d="M378.469,512h-244.94c-4.328,0-7.58-3.949-6.75-8.197l12.981-66.43
	c0.631-3.229,3.46-5.559,6.75-5.559H365.49c3.29,0,6.119,2.33,6.75,5.559l12.981,66.43C386.05,508.051,382.797,512,378.469,512z"/>
<path style="fill:#1D4859;" d="M385.221,503.803l-12.981-66.431c-0.631-3.229-3.46-5.559-6.75-5.559h-40.841L340.318,512h38.153
	C382.797,512,386.049,508.051,385.221,503.803z"/>
<path style="fill:#E1EFFB;" d="M156.061,483.278l4.69-24.004c0.302-1.544,1.654-2.658,3.227-2.658h184.04
	c1.573,0,2.926,1.114,3.227,2.658l4.69,24.004c0.397,2.031-1.158,3.919-3.227,3.919H159.289
	C157.219,487.197,155.664,485.309,156.061,483.278z"/>
<path style="fill:#C3D8E5;" d="M355.938,483.278l-4.69-24.004c-0.302-1.544-1.654-2.658-3.227-2.658h-43.797l5.976,30.581h42.511
	C354.779,487.197,356.334,485.309,355.938,483.278z"/>
<circle style="fill:#E6E6E6;" cx="255.999" cy="151.28" r="151.28"/>
<path style="fill:#D3D3C9;" d="M255.999,0c-7.97,0-15.795,0.621-23.433,1.808c72.425,11.263,127.853,73.895,127.853,149.477
	S304.992,289.5,232.566,300.762c7.637,1.188,15.462,1.808,23.433,1.808c83.553,0,151.285-67.733,151.285-151.285
	S339.552,0,255.999,0z"/>
<path style="fill:#2D5872;" d="M312.078,139.811l47.246-18.405c0.987-0.385,1.85-0.95,2.568-1.643l45.368,33.501
	c0.008-0.659,0.025-1.317,0.025-1.978c0-36.54-12.955-70.055-34.522-96.202l-14.787,51.496c-1.388-0.269-2.864-0.169-4.279,0.382
	l-45.401,17.687l-44.545-30.947V42.396l46.557-32.345C293.45,3.564,275.143,0,255.999,0s-37.45,3.564-54.308,10.051l46.557,32.345
	v51.305l-44.493,30.911l-50.166-19.543l-14.353-49.985c-21.567,26.147-34.522,59.661-34.522,96.202c0,0.661,0.017,1.319,0.025,1.978
	l44.849-33.118l50.31,19.599l16.18,47.615l-33.216,46.689l-54.534-1.575c19.478,30.567,49.632,53.662,85.209,64.047l-18.132-53.361
	l32.999-46.383h55.184l33.005,46.392l-18.129,53.352c35.577-10.385,65.73-33.48,85.208-64.047l-54.543,1.576l-33.211-46.68
	L312.078,139.811z"/>
<g>
	<path style="fill:#1D4859;" d="M356.576,111.457c-0.624,2.172,0.168,4.503,1.986,5.845l48.698,35.96
		c0.008-0.659,0.025-1.317,0.025-1.978c0-36.54-12.955-70.055-34.522-96.202L356.576,111.457z"/>
	<path style="fill:#1D4859;" d="M335.914,233.853c-7.463,11.436-16.432,21.798-26.625,30.809l-10.825,31.858
		c0.002-0.001,0.003-0.001,0.005-0.001c9.952-2.905,19.479-6.807,28.467-11.587c0.068-0.036,0.136-0.072,0.204-0.108
		c0.908-0.485,1.81-0.98,2.707-1.483c0.118-0.066,0.237-0.132,0.355-0.199c0.863-0.487,1.72-0.982,2.573-1.486
		c0.147-0.087,0.294-0.173,0.441-0.26c0.832-0.495,1.658-0.997,2.48-1.507c0.16-0.099,0.32-0.199,0.48-0.299
		c0.812-0.508,1.619-1.023,2.42-1.546c0.159-0.104,0.317-0.208,0.475-0.312c0.804-0.529,1.604-1.065,2.397-1.609
		c0.14-0.096,0.278-0.193,0.417-0.289c0.811-0.56,1.617-1.126,2.416-1.701c0.102-0.073,0.202-0.148,0.303-0.221
		c0.836-0.605,1.667-1.216,2.49-1.837c0.021-0.016,0.042-0.033,0.064-0.049c5.285-3.996,10.297-8.333,15.009-12.974
		c0.113-0.111,0.228-0.221,0.34-0.332c0.643-0.638,1.278-1.284,1.91-1.933c0.181-0.186,0.363-0.37,0.543-0.557
		c0.591-0.613,1.174-1.234,1.755-1.857c0.213-0.229,0.427-0.456,0.638-0.686c0.555-0.603,1.103-1.212,1.648-1.824
		c0.228-0.256,0.457-0.512,0.684-0.77c0.529-0.602,1.053-1.21,1.573-1.82c0.232-0.273,0.464-0.546,0.694-0.82
		c0.51-0.608,1.016-1.22,1.516-1.837c0.23-0.282,0.458-0.566,0.685-0.85c0.495-0.618,0.987-1.24,1.472-1.866
		c0.222-0.286,0.441-0.574,0.66-0.861c0.485-0.635,0.967-1.272,1.442-1.915c0.206-0.278,0.407-0.559,0.611-0.838
		c0.482-0.661,0.962-1.324,1.433-1.993c0.177-0.252,0.351-0.507,0.527-0.76c0.49-0.705,0.978-1.411,1.457-2.125
		c0.126-0.187,0.247-0.377,0.372-0.565c0.521-0.785,1.039-1.572,1.546-2.367L335.914,233.853z"/>
</g>
<g>
</g>
<g>
</g>
<g>
</g>
<g>
</g>
<g>
</g>
<g>
</g>
<g>
</g>
<g>
</g>
<g>
</g>
<g>
</g>
<g>
</g>
<g>
</g>
<g>
</g>
<g>
</g>
<g>
</g>
</svg>
