<?xml version="1.0" encoding="iso-8859-1"?>
<!-- Generator: Adobe Illustrator 19.0.0, SVG Export Plug-In . SVG Version: 6.00 Build 0)  -->
<svg version="1.1" id="Capa_1" xmlns="http://www.w3.org/2000/svg" xmlns:xlink="http://www.w3.org/1999/xlink" x="0px" y="0px"
	 viewBox="0 0 512 512" style="enable-background:new 0 0 512 512;" xml:space="preserve">
<path style="fill:#FED9A8;" d="M311.566,313.707c-10.789-2.168-18.551-14.684-18.551-25.689v-49.04h-51.104h-0.001h-51.104v49.04
	c0,11.005-7.762,23.52-18.551,25.689l-12.452,3.515v82.617h82.106h0.001h82.106v-82.617L311.566,313.707z"/>
<path style="fill:#F4C28C;" d="M246.388,238.979v78.694c0,11.005,7.762,23.52,18.551,25.689l59.08,20.106v-46.245l-12.452-3.515
	c-10.789-2.168-18.551-14.684-18.551-25.689v-49.04L246.388,238.979L246.388,238.979z"/>
<path style="fill:#E9EAEB;" d="M403.425,332.452l-78.407-21.999c-1.139-0.32-2.359-0.151-3.369,0.466l-79.738,48.693l-79.737-48.693
	c-1.01-0.616-2.23-0.785-3.369-0.466l-78.407,21.999c-41.691,12.275-70.317,50.544-70.317,94.005v66.151
	c0,10.71,8.682,19.392,19.392,19.392H454.35c10.71,0,19.392-8.682,19.392-19.392v-66.151
	C473.742,382.996,445.117,344.727,403.425,332.452z"/>
<path style="fill:#D5D8DB;" d="M403.425,332.452l-78.407-21.999c-1.139-0.32-2.359-0.151-3.369,0.466l-12.907,7.882l48.657,13.652
	c41.691,12.275,70.317,50.544,70.317,94.005V512h26.634c10.71,0,19.392-8.682,19.392-19.392v-66.151
	C473.742,382.996,445.117,344.727,403.425,332.452z"/>
<path style="fill:#FED9A8;" d="M344.396,124.878h-6.541v-7.682V98.835c0-25.925-10.643-51.047-30.289-67.963
	c-15.402-13.263-37.053-24.839-65.654-25.158c-28.6,0.319-50.251,11.895-65.654,25.158c-19.646,16.916-30.289,42.038-30.289,67.963
	v18.361v7.682h-6.541c-9.59,0-17.364,7.774-17.364,17.364v19.243c0,9.59,7.774,17.364,17.364,17.364h6.567
	c0.541,25.201,11.131,49.458,30.263,65.931c15.403,13.262,37.054,24.839,65.654,25.158c28.6-0.319,50.251-11.895,65.654-25.158
	c19.132-16.474,29.722-40.73,30.263-65.931h6.567c9.59,0,17.364-7.774,17.364-17.364v-19.243
	C361.76,132.652,353.986,124.878,344.396,124.878z"/>
<path style="fill:#F4C28C;" d="M344.396,124.878h-6.541V98.835c0-25.925-10.643-51.047-30.289-67.963
	c-15.402-13.263-37.053-24.839-65.654-25.158c-8.37,0.093-16.139,1.156-23.336,2.938c17.396,4.306,31.422,12.838,42.317,22.22
	c19.646,16.916,30.289,42.038,30.289,67.963l-0.026,80.014c-0.541,25.201-11.131,49.458-30.263,65.931
	c-10.895,9.381-24.921,17.913-42.317,22.22c7.197,1.782,14.967,2.845,23.336,2.938c28.6-0.319,50.251-11.895,65.654-25.158
	c19.132-16.474,29.722-40.73,30.263-65.931h6.567c9.59,0,17.364-7.774,17.364-17.364v-19.242
	C361.76,132.652,353.986,124.878,344.396,124.878z"/>
<path style="fill:#FF901D;" d="M285.355,0h-43.443h-43.443c-37.03,0-67.048,30.018-67.048,67.048v59.785
	c0,0,14.676-0.332,24.106,9.001c1.964,1.944,5.302,0.524,5.302-2.24v-17.662c0-4.797,3.883-8.687,8.68-8.715
	C256.146,106.7,275.163,63.9,278.71,52.402l0,0c24.458,0,44.285,19.827,44.285,44.285v36.908c0,2.763,3.338,4.183,5.302,2.24
	c9.431-9.333,24.106-9.001,24.106-9.001V67.048C352.403,30.018,322.385,0,285.355,0z"/>
<path style="fill:#FF6D3A;" d="M285.355,0h-43.443h-3.27c35.118,0,63.911,27.005,66.792,61.379
	c10.667,8.086,17.561,20.89,17.561,35.308v36.908c0,2.763,3.338,4.183,5.302,2.24c9.43-9.333,24.106-9.001,24.106-9.001V67.048
	C352.403,30.018,322.385,0,285.355,0z"/>
<g>
	<path style="fill:#B9BBC1;" d="M187.067,386.58c4.366,4.45,11.34,5.013,16.363,1.321l38.482-28.289l0,0l0,0l-79.737-48.693
		c-1.01-0.616-2.23-0.785-3.369-0.466l-36.4,10.213L187.067,386.58z"/>
	<path style="fill:#B9BBC1;" d="M296.757,386.58c-4.366,4.45-11.34,5.013-16.363,1.321l-38.482-28.289l0,0l0,0l79.737-48.693
		c1.01-0.616,2.23-0.785,3.369-0.466l36.4,10.213L296.757,386.58z"/>
</g>
<g>
	<path style="fill:#FFB125;" d="M355.705,403.273c-22.163,0.001-43.054-7.288-59.007-20.909
		c-18.045-15.407-27.983-37.429-27.983-62.01v-13.161c0-3.674,1.432-7.126,4.033-9.721c2.593-2.587,6.036-4.01,9.698-4.01
		c0.01,0,0.02,0,0.03,0l62.243,0.136c6.264,0.014,11.331,5.102,11.317,11.366c-0.014,6.255-5.089,11.316-11.341,11.316
		c-0.008,0-0.016,0-0.024,0l-53.272-0.117v4.19c0,17.837,7.113,33.733,20.028,44.76c14.756,12.598,35.525,17.872,56.968,14.466
		c6.178-0.975,11.998,3.236,12.979,9.424c0.982,6.187-3.238,11.997-9.424,12.979C366.497,402.847,361.062,403.273,355.705,403.273z"
		/>
	<path style="fill:#FFB125;" d="M414.928,403.273c-5.358,0-10.79-0.426-16.245-1.291c-6.186-0.982-10.405-6.793-9.424-12.979
		c0.982-6.187,6.783-10.403,12.979-9.424c21.445,3.404,42.214-1.868,56.969-14.466c12.915-11.027,20.028-26.923,20.028-44.76v-4.19
		l-53.272,0.117c-0.008,0-0.016,0-0.024,0c-6.252,0-11.327-5.062-11.341-11.316c-0.014-6.264,5.053-11.352,11.317-11.366
		l62.243-0.136c0.01,0,0.021,0,0.03,0c3.662,0,7.105,1.423,9.698,4.01c2.601,2.595,4.033,6.047,4.033,9.721v13.161
		c0,24.581-9.938,46.604-27.983,62.01C457.984,395.985,437.089,403.273,414.928,403.273z"/>
</g>
<g>
	<path style="fill:#FED130;" d="M351.904,483.302h66.826c-27.681-32.378-24.792-79.041-24.792-79.041h-8.62h-8.62
		C376.696,404.261,379.585,450.924,351.904,483.302z"/>
	<path style="fill:#FED130;" d="M324.552,290.395v44.989c0,31.618,15.027,61.353,40.483,80.107l0,0
		c12.061,8.886,28.502,8.886,40.563,0l0,0c25.456-18.754,40.483-48.489,40.483-80.107v-44.989L324.552,290.395L324.552,290.395z"/>
</g>
<path style="fill:#F7BC14;" d="M399.625,290.395v44.989c0,30.375-13.875,59.007-37.536,77.84c0.968,0.77,1.946,1.53,2.947,2.267l0,0
	c12.061,8.886,28.502,8.886,40.563,0c25.456-18.754,40.483-48.489,40.483-80.107v-44.989L399.625,290.395L399.625,290.395z"/>
<path style="fill:#FFB125;" d="M442.202,512h-113.77c-2.01,0-3.521-1.834-3.135-3.807l6.029-30.856
	c0.293-1.5,1.607-2.582,3.135-2.582h101.711c1.528,0,2.842,1.082,3.135,2.582l6.029,30.856C445.723,510.166,444.212,512,442.202,512
	z"/>
<path style="fill:#FF901D;" d="M445.337,508.193l-6.029-30.856c-0.293-1.5-1.607-2.582-3.135-2.582h-43.481L399.969,512h42.233
	C444.212,512,445.723,510.166,445.337,508.193z"/>
<path style="fill:#FFB125;" d="M449.687,293.461h-128.74c-2.375,0-4.301-1.925-4.301-4.301v-14.921c0-2.375,1.925-4.301,4.301-4.301
	h128.74c2.375,0,4.301,1.925,4.301,4.301v14.921C453.988,291.535,452.062,293.461,449.687,293.461z"/>
<path style="fill:#FF901D;" d="M449.687,269.938h-41.983v23.523h41.983c2.375,0,4.301-1.925,4.301-4.301v-14.921
	C453.988,271.864,452.062,269.938,449.687,269.938z"/>
<path style="fill:#B9BBC1;" d="M82.564,417.198c-4.269,0-7.728,3.46-7.728,7.728V512h15.457v-87.074
	C90.292,420.658,86.832,417.198,82.564,417.198z"/>
<g>
</g>
<g>
</g>
<g>
</g>
<g>
</g>
<g>
</g>
<g>
</g>
<g>
</g>
<g>
</g>
<g>
</g>
<g>
</g>
<g>
</g>
<g>
</g>
<g>
</g>
<g>
</g>
<g>
</g>
</svg>
