<?xml version="1.0" encoding="iso-8859-1"?>
<!-- Generator: Adobe Illustrator 19.0.0, SVG Export Plug-In . SVG Version: 6.00 Build 0)  -->
<svg version="1.1" id="Capa_1" xmlns="http://www.w3.org/2000/svg" xmlns:xlink="http://www.w3.org/1999/xlink" x="0px" y="0px"
	 viewBox="0 0 512 512" style="enable-background:new 0 0 512 512;" xml:space="preserve">
<path style="fill:#FFB125;" d="M184.099,445.154h143.802c-59.567-69.674-53.351-170.088-53.351-170.088H256h-18.55
	C237.45,275.066,243.666,375.48,184.099,445.154z"/>
<path style="fill:#FF901D;" d="M274.55,275.066H256h-18.55c0,0,0.748,12.101-0.766,30.817
	c-3.071,37.952,4.655,76.149,23.443,109.267c5.873,10.353,12.794,20.466,20.948,30.004h46.826
	C268.334,375.48,274.55,275.066,274.55,275.066z"/>
<path style="fill:#FFB125;" d="M270.309,334.218H241.69c-14.788,0-26.775-11.988-26.775-26.775v-35.822h82.17v35.822
	C297.085,322.231,285.097,334.218,270.309,334.218z"/>
<path style="fill:#FF901D;" d="M250.603,271.621v35.822c0,11.655-7.449,21.565-17.844,25.243c2.794,0.989,5.799,1.532,8.932,1.532
	h28.619c14.788,0,26.775-11.988,26.775-26.775v-35.822L250.603,271.621L250.603,271.621z"/>
<path style="fill:#2C5871;" d="M378.411,512H133.589c-4.326,0-7.577-3.948-6.747-8.193l12.974-66.398
	c0.631-3.227,3.459-5.556,6.747-5.556h218.873c3.288,0,6.116,2.329,6.747,5.556l12.974,66.398
	C385.987,508.052,382.737,512,378.411,512z"/>
<path style="fill:#1D4859;" d="M385.158,503.807l-12.975-66.398c-0.63-3.227-3.458-5.556-6.747-5.556h-42.292L338.805,512h39.605
	C382.737,512,385.987,508.052,385.158,503.807z"/>
<path style="fill:#E1EFFB;" d="M156.277,482.439l4.408-22.56c0.367-1.879,2.014-3.235,3.929-3.235h182.771
	c1.915,0,3.562,1.356,3.929,3.235l4.408,22.56c0.483,2.472-1.41,4.771-3.929,4.771H160.206
	C157.687,487.209,155.794,484.911,156.277,482.439z"/>
<path style="fill:#C3D8E5;" d="M355.723,482.438l-4.408-22.56c-0.367-1.879-2.014-3.236-3.929-3.236H304.2l5.973,30.566h41.621
	C354.313,487.209,356.206,484.911,355.723,482.438z"/>
<circle style="fill:#FF6D3A;" cx="256" cy="151.46" r="151.46"/>
<path style="fill:#ED5729;" d="M367.136,48.558c-35.604-38.453-86.514-54.259-134.67-46.73c32.499,5.075,63.585,20.72,87.668,46.73
	c56.831,61.379,53.144,157.207-8.234,214.038c-22.925,21.227-50.657,34.007-79.367,38.496c44.194,6.901,91.001-5.747,126.37-38.496
	C420.28,205.765,423.967,109.937,367.136,48.558z"/>
<path style="fill:#FFB125;" d="M391.308,158.785c-31.677-10.854-67.442-23.106-108.368,10.367l-15.991-17.271l105.308-97.506
	c-1.648-1.971-3.355-3.911-5.12-5.818c-1.765-1.906-3.569-3.757-5.407-5.552l-105.308,97.506L240.43,123.24
	c36.518-38.234,27.05-74.835,18.662-107.252c-1.36-5.257-2.753-10.674-3.932-15.981c-5.207,0.027-10.415,0.321-15.601,0.883
	c0.028,0.328,0.069,0.658,0.14,0.988c1.304,6.057,2.875,12.124,4.393,17.992c8.351,32.274,15.603,60.328-14.211,91.978
	l-70.966-76.645c-1.971,1.649-3.911,3.355-5.817,5.12s-3.757,3.568-5.552,5.407l70.709,76.367
	c-32.292,24.009-58.913,14.895-89.384,4.455c-6.609-2.264-13.442-4.605-20.315-6.549c-0.229-0.065-0.458-0.114-0.688-0.158
	c-1.082,5.089-1.9,10.224-2.454,15.385c6.127,1.773,12.376,3.903,18.435,5.979c16.174,5.541,33.408,11.447,51.857,11.447
	c16.682,0,34.357-4.839,53.122-19.141l16.223,17.522l-105.308,97.506c1.649,1.971,3.355,3.911,5.12,5.817
	c1.765,1.907,3.569,3.757,5.407,5.552l105.308-97.506l16.223,17.521c-33.064,37.085-23.89,72.56-15.735,104.078
	c1.604,6.2,3.247,12.595,4.544,18.839c5.188-0.156,10.372-0.578,15.529-1.265c-0.025-0.232-0.057-0.464-0.104-0.698
	c-1.41-7.002-3.219-13.995-4.969-20.758c-8.068-31.182-15.111-58.425,11.309-88.777l70.709,76.367
	c1.971-1.649,3.911-3.355,5.818-5.12c1.906-1.765,3.757-3.568,5.552-5.406l-70.965-76.644c33.845-27.293,61.261-17.909,92.797-7.103
	c5.734,1.965,11.662,3.996,17.601,5.762c0.324,0.096,0.649,0.163,0.974,0.215c0.959-5.128,1.651-10.297,2.079-15.486
	C401.738,162.35,396.445,160.545,391.308,158.785z"/>
<g>
	<path style="fill:#FF901D;" d="M364.453,257.189l-25.623-27.673c-2.717,4.515-5.683,8.919-8.909,13.184l23.154,25.007
		c0.53-0.444,1.059-0.891,1.584-1.343c0.371-0.319,0.745-0.633,1.115-0.956c1.051-0.921,2.095-1.856,3.127-2.812
		c1.812-1.678,3.57-3.393,5.282-5.137C364.273,257.368,364.365,257.28,364.453,257.189z"/>
	<path style="fill:#FF901D;" d="M255.16,0.008c-0.358,0.002-0.717,0.015-1.075,0.019c-1.029,0.013-2.057,0.029-3.085,0.062
		c-0.59,0.019-1.18,0.051-1.77,0.077c-0.835,0.037-1.669,0.075-2.504,0.125c-0.614,0.037-1.227,0.083-1.841,0.128
		c-0.815,0.06-1.63,0.123-2.444,0.196c-0.615,0.055-1.23,0.113-1.844,0.176c-0.345,0.035-0.69,0.077-1.035,0.114
		c0.028,0.323,0.068,0.647,0.138,0.973c0.095,0.443,0.201,0.885,0.299,1.328c5.737,1.194,11.415,2.72,17.004,4.581
		C256.357,5.19,255.733,2.586,255.16,0.008z"/>
	<path style="fill:#FF901D;" d="M276.035,300.884c-0.826-4.1-1.793-8.19-2.8-12.239c-4.756,2.228-9.597,4.205-14.509,5.909
		c0.67,2.77,1.313,5.54,1.882,8.282c0.186-0.006,0.372-0.007,0.558-0.013c0.643-0.022,1.287-0.053,1.93-0.083
		c0.699-0.032,1.398-0.066,2.097-0.108c0.666-0.04,1.331-0.088,1.997-0.137c0.67-0.049,1.34-0.101,2.01-0.159
		c0.689-0.06,1.377-0.126,2.065-0.195c0.645-0.065,1.289-0.134,1.933-0.207c0.705-0.08,1.409-0.164,2.113-0.254
		c0.275-0.035,0.55-0.075,0.826-0.111C276.113,301.341,276.082,301.113,276.035,300.884z"/>
	<path style="fill:#FF901D;" d="M386.285,173.443c5.734,1.965,11.662,3.996,17.601,5.762c0.324,0.096,0.649,0.163,0.974,0.216
		c0.959-5.128,1.652-10.297,2.079-15.487c-5.201-1.584-10.495-3.388-15.632-5.148c-9.879-3.385-20.157-6.906-30.865-9.134
		c0.061,5.226-0.151,10.453-0.627,15.658C368.466,167.343,377.204,170.331,386.285,173.443z"/>
	<path style="fill:#FF901D;" d="M363.04,44.319c-0.438-0.439-0.882-0.869-1.324-1.301l-26.567,24.599
		c2.955,4.434,5.647,8.985,8.082,13.633l29.025-26.875c-0.019-0.023-0.039-0.045-0.058-0.067c-1.631-1.947-3.317-3.865-5.062-5.75
		c-1.012-1.093-2.039-2.161-3.075-3.217C363.723,44.996,363.38,44.659,363.04,44.319z"/>
</g>
<g>
</g>
<g>
</g>
<g>
</g>
<g>
</g>
<g>
</g>
<g>
</g>
<g>
</g>
<g>
</g>
<g>
</g>
<g>
</g>
<g>
</g>
<g>
</g>
<g>
</g>
<g>
</g>
<g>
</g>
</svg>
