<?xml version="1.0" encoding="iso-8859-1"?>
<!-- Generator: Adobe Illustrator 19.0.0, SVG Export Plug-In . SVG Version: 6.00 Build 0)  -->
<svg version="1.1" id="Capa_1" xmlns="http://www.w3.org/2000/svg" xmlns:xlink="http://www.w3.org/1999/xlink" x="0px" y="0px"
	 viewBox="0 0 512 512" style="enable-background:new 0 0 512 512;" xml:space="preserve">
<path style="fill:#61AFF6;" d="M502.096,200.196c-0.012-0.039-0.017-0.079-0.03-0.118l0,0c-0.779-2.406-2.812-4.406-5.721-4.829
	l-161.686-23.494L262.352,25.243c-1.299-2.633-3.826-3.949-6.352-3.949c-2.527,0-5.053,1.316-6.352,3.949l-72.309,146.512
	L15.653,195.249c-0.078,0.011-0.148,0.036-0.224,0.049c-0.281,0.05-0.561,0.102-0.824,0.181c-0.112,0.033-0.212,0.083-0.321,0.121
	c-0.217,0.076-0.437,0.148-0.641,0.243c-0.085,0.04-0.159,0.092-0.242,0.134c-0.215,0.111-0.431,0.22-0.63,0.35
	c-0.031,0.02-0.056,0.045-0.087,0.066c-0.241,0.164-0.474,0.336-0.69,0.526c-0.008,0.007-0.015,0.016-0.023,0.023
	c-0.233,0.207-0.452,0.427-0.654,0.661c-0.011,0.013-0.019,0.027-0.03,0.04c-0.609,0.718-1.068,1.547-1.356,2.433l0,0
	c-0.778,2.401-0.306,5.208,1.794,7.255l116.997,114.044l-27.619,161.033c-0.025,0.147-0.026,0.288-0.043,0.433
	c-0.024,0.212-0.057,0.427-0.063,0.634c-0.002,0.083,0.011,0.161,0.012,0.243c0.003,0.265,0.006,0.529,0.037,0.785
	c0.007,0.06,0.025,0.116,0.034,0.176c0.04,0.272,0.086,0.543,0.157,0.803c0.006,0.022,0.016,0.042,0.022,0.063
	c0.172,0.61,0.422,1.185,0.742,1.712c0.005,0.008,0.011,0.014,0.015,0.022c0.329,0.537,0.726,1.026,1.179,1.455
	c0.002,0.002,0.005,0.004,0.008,0.007c0.227,0.215,0.468,0.415,0.721,0.598c0,0,0,0,0.001,0.001l0,0
	c2.044,1.483,4.859,1.902,7.456,0.537l144.618-76.03l144.616,76.029c0.325,0.171,0.653,0.314,0.983,0.43
	c0.324,0.114,0.649,0.202,0.974,0.266c0.006,0.001,0.011,0.003,0.017,0.005c0.297,0.058,0.592,0.089,0.887,0.108
	c0.034,0.002,0.068,0.011,0.102,0.012c0.272,0.013,0.542,0.001,0.81-0.018c0.054-0.004,0.11,0.001,0.164-0.004
	c0.265-0.025,0.526-0.074,0.784-0.128c0.054-0.011,0.111-0.014,0.164-0.027c0.603-0.142,1.181-0.365,1.722-0.654
	c0.016-0.009,0.034-0.014,0.05-0.023c0.225-0.122,0.438-0.264,0.649-0.409c0.049-0.034,0.103-0.06,0.151-0.095l0,0
	c2.046-1.485,3.319-4.036,2.822-6.931l-27.619-161.032l0,0l116.997-114.044l0,0c0.263-0.256,0.5-0.524,0.712-0.802
	c0.069-0.09,0.119-0.186,0.182-0.277c0.133-0.192,0.271-0.382,0.381-0.581c0.152-0.272,0.277-0.552,0.389-0.835
	c0.009-0.023,0.022-0.044,0.031-0.067c0.088-0.232,0.151-0.469,0.213-0.706c0.02-0.076,0.051-0.15,0.068-0.227
	c0.061-0.272,0.098-0.547,0.126-0.822c0.004-0.042,0.016-0.084,0.019-0.127C502.47,201.976,502.361,201.062,502.096,200.196z"/>
<path style="fill:#49A0E8;" d="M502.096,200.196c-0.012-0.039-0.017-0.079-0.03-0.118l0,0c-0.779-2.406-2.812-4.406-5.721-4.829
	l-43.047-6.255L333.932,305.348l0,0l28.177,164.285l38.507,20.244c0.325,0.171,0.653,0.314,0.983,0.43
	c0.324,0.114,0.649,0.202,0.974,0.266c0.006,0.001,0.011,0.003,0.017,0.005c0.297,0.058,0.592,0.089,0.887,0.108
	c0.034,0.002,0.068,0.011,0.102,0.012c0.272,0.013,0.542,0.001,0.81-0.018c0.055-0.004,0.11,0.001,0.165-0.004
	c0.266-0.025,0.526-0.074,0.784-0.128c0.054-0.011,0.111-0.014,0.165-0.027c0.603-0.142,1.18-0.365,1.722-0.654
	c0.016-0.009,0.034-0.014,0.05-0.023c0.225-0.122,0.438-0.264,0.649-0.409c0.049-0.034,0.103-0.06,0.151-0.095l0,0
	c2.046-1.485,3.319-4.036,2.822-6.931l-27.619-161.032l0,0l116.997-114.044l0,0c0.263-0.256,0.5-0.524,0.712-0.801
	c0.069-0.09,0.119-0.186,0.182-0.277c0.133-0.192,0.271-0.382,0.382-0.581c0.152-0.272,0.277-0.552,0.388-0.835
	c0.009-0.023,0.022-0.044,0.031-0.067c0.088-0.232,0.151-0.469,0.213-0.706c0.02-0.076,0.051-0.151,0.068-0.227
	c0.061-0.272,0.098-0.547,0.126-0.822c0.004-0.042,0.016-0.084,0.019-0.127C502.47,201.976,502.361,201.062,502.096,200.196z"/>
<path style="fill:#FED130;" d="M254.753,369.718l-98.627,51.852c-1.964,1.032-4.259-0.635-3.884-2.822l18.837-109.823
	c0.149-0.868-0.139-1.754-0.77-2.369l-79.793-77.779c-1.589-1.549-0.712-4.247,1.484-4.566l110.27-16.023
	c0.872-0.127,1.626-0.674,2.016-1.464l49.314-99.921c0.982-1.99,3.819-1.99,4.801,0l49.315,99.921
	c0.39,0.79,1.144,1.338,2.016,1.464l110.267,16.023c2.196,0.319,3.072,3.017,1.484,4.566l-79.792,77.779
	c-0.631,0.615-0.919,1.501-0.77,2.369l18.836,109.824c0.375,2.187-1.92,3.854-3.884,2.822l-98.628-51.853
	C256.465,369.308,255.533,369.308,254.753,369.718z"/>
<g>
	<path style="fill:#F7BC14;" d="M251.797,198.265c0.39,0.79,1.144,1.338,2.016,1.464l54.699,7.948
		c-0.332-0.249-0.609-0.571-0.798-0.954l-49.315-99.92c-0.982-1.99-3.819-1.99-4.801,0l-23.47,47.556L251.797,198.265z"/>
	<path style="fill:#F7BC14;" d="M421.483,228.777c1.589-1.549,0.712-4.247-1.484-4.566l-51.592-7.496l-74.108,72.237
		c-0.834,0.813-1.214,1.984-1.018,3.132l18.206,106.152l44.385,23.335c1.964,1.032,4.259-0.635,3.884-2.822L340.92,308.925
		c-0.149-0.868,0.139-1.754,0.77-2.369L421.483,228.777z"/>
</g>
<path style="fill:#E1EFFB;" d="M451.495,407.79c-116.176-93.245-274.82-93.247-390.991,0c-1.16,0.977-2.767,0.681-3.053-0.58
	c-3.373-16.111-5.96-32.104-7.875-48.453c-0.051-0.503-0.341-0.9-0.806-1.098c-15.532-6.693-31.611-12.156-47.878-16.748
	c-1.33-0.37-1.145-2.205,0.366-3.478c150.015-121.763,359.473-121.756,509.483,0c1.511,1.273,1.696,3.108,0.366,3.478
	c-16.313,4.462-32.3,10.185-47.878,16.748c-0.465,0.198-0.755,0.595-0.806,1.098c-1.915,16.348-4.502,32.342-7.875,48.452
	C454.261,408.471,452.655,408.767,451.495,407.79z"/>
<path style="fill:#C3D8E5;" d="M48.593,357.586c0.059,0.025,0.118,0.049,0.176,0.074c0.465,0.198,0.755,0.595,0.806,1.098
	c1.915,16.348,4.502,32.342,7.875,48.453c0.286,1.261,1.893,1.557,3.053,0.58c116.172-93.247,274.815-93.245,390.991,0
	c1.16,0.977,2.767,0.681,3.053-0.58c3.373-16.111,5.96-32.104,7.875-48.452c0.051-0.503,0.341-0.9,0.806-1.098
	c0.059-0.025,0.118-0.048,0.177-0.073C338.248,265.444,173.747,265.443,48.593,357.586z"/>
<g>
</g>
<g>
</g>
<g>
</g>
<g>
</g>
<g>
</g>
<g>
</g>
<g>
</g>
<g>
</g>
<g>
</g>
<g>
</g>
<g>
</g>
<g>
</g>
<g>
</g>
<g>
</g>
<g>
</g>
</svg>
