<?xml version="1.0" encoding="iso-8859-1"?>
<!-- Generator: Adobe Illustrator 19.0.0, SVG Export Plug-In . SVG Version: 6.00 Build 0)  -->
<svg version="1.1" id="Capa_1" xmlns="http://www.w3.org/2000/svg" xmlns:xlink="http://www.w3.org/1999/xlink" x="0px" y="0px"
	 viewBox="0 0 512.001 512.001" style="enable-background:new 0 0 512.001 512.001;" xml:space="preserve">
<path style="fill:#FFB125;" d="M183.401,444.506H328.6c-60.145-70.35-53.869-171.739-53.869-171.739H256h-18.73
	C237.27,272.767,243.546,374.156,183.401,444.506z"/>
<path style="fill:#FF901D;" d="M274.73,272.767H256h-18.73c0,0,1.658,26.818-4.91,62.437c6.204,33.641,19.745,75.132,48.959,109.302
	H328.6C268.454,374.156,274.73,272.767,274.73,272.767z"/>
<path style="fill:#FFB125;" d="M270.448,307.849h-28.897c-14.931,0-27.035-12.104-27.035-27.035v-36.17h82.967v36.17
	C297.484,295.745,285.38,307.849,270.448,307.849z"/>
<path style="fill:#FF901D;" d="M250.55,244.643v36.17c0,11.768-7.521,21.775-18.017,25.489c2.821,0.998,5.855,1.547,9.018,1.547
	h28.897c14.931,0,27.035-12.104,27.035-27.035v-36.17H250.55V244.643z"/>
<path style="fill:#2C5871;" d="M379.599,512.001H132.401c-4.368,0-7.65-3.986-6.813-8.273l13.1-67.043
	c0.637-3.259,3.492-5.61,6.813-5.61h220.998c3.32,0,6.176,2.351,6.813,5.61l13.1,67.043
	C387.249,508.015,383.967,512.001,379.599,512.001z"/>
<path style="fill:#1D4859;" d="M386.412,503.728l-13.1-67.043c-0.637-3.259-3.492-5.61-6.813-5.61h-42.402l15.813,80.926h39.689
	C383.967,512.001,387.249,508.015,386.412,503.728z"/>
<path style="fill:#E1EFFB;" d="M155.309,482.153l4.451-22.78c0.371-1.898,2.034-3.267,3.967-3.267h184.546
	c1.934,0,3.596,1.369,3.967,3.267l4.451,22.78c0.488,2.496-1.424,4.817-3.967,4.817H159.276
	C156.732,486.97,154.821,484.649,155.309,482.153z"/>
<path style="fill:#C3D8E5;" d="M356.691,482.153l-4.451-22.78c-0.371-1.898-2.033-3.267-3.967-3.267h-43.605l6.031,30.864h42.025
	C355.267,486.97,357.179,484.649,356.691,482.153z"/>
<path style="fill:#E1EFFB;" d="M426.628,124.537c-0.003-0.016-0.003-0.033-0.006-0.049c-0.036-0.195-0.087-0.387-0.146-0.576
	c-0.006-0.019-0.009-0.039-0.015-0.059c-0.54-1.667-1.948-3.052-3.963-3.345l-112.007-16.276L260.401,2.736
	c-0.225-0.456-0.503-0.855-0.821-1.197c-0.477-0.513-1.044-0.898-1.655-1.154c-2.242-0.94-5.087-0.157-6.325,2.351l-19.95,40.422
	l-4.817,9.76l-11.456,23.213l-13.869,28.101l-97.796,14.211l-14.211,2.065c-0.031,0.004-0.058,0.014-0.088,0.019
	c-0.219,0.036-0.434,0.079-0.638,0.14c-0.014,0.004-0.027,0.011-0.041,0.016c-0.217,0.067-0.426,0.144-0.625,0.237
	c-0.051,0.024-0.095,0.055-0.144,0.08c-0.157,0.08-0.314,0.161-0.459,0.255c-0.039,0.026-0.073,0.058-0.111,0.084
	c-0.148,0.103-0.294,0.208-0.427,0.326c-0.006,0.005-0.01,0.011-0.016,0.016c-0.161,0.143-0.313,0.296-0.452,0.458
	c-0.013,0.015-0.023,0.033-0.037,0.049c-0.129,0.154-0.251,0.313-0.36,0.48c-0.004,0.006-0.006,0.012-0.01,0.017
	c-0.115,0.179-0.22,0.365-0.311,0.557c-0.001,0.001-0.001,0.003-0.002,0.004c-0.843,1.778-0.634,4.037,1.002,5.632l81.049,79.003
	l-19.133,111.554c-0.043,0.251-0.067,0.498-0.073,0.74c-0.002,0.072,0.009,0.14,0.01,0.211c0.003,0.168,0.004,0.337,0.024,0.5
	c0.008,0.065,0.027,0.126,0.037,0.19c0.027,0.165,0.053,0.33,0.096,0.488c0.004,0.015,0.011,0.029,0.016,0.045
	c0.305,1.078,0.972,1.993,1.846,2.627l0,0c1.416,1.027,3.366,1.317,5.165,0.372L256,271.941l100.182,52.669
	c0.225,0.118,0.452,0.217,0.68,0.298c1.35,0.477,2.735,0.309,3.88-0.297c0.016-0.009,0.034-0.015,0.05-0.023
	c0.155-0.084,0.302-0.182,0.448-0.283c0.035-0.024,0.073-0.042,0.106-0.067c1.418-1.029,2.299-2.796,1.955-4.802l-19.133-111.554
	l81.049-79.003c0.142-0.138,0.264-0.285,0.384-0.432c0.034-0.042,0.077-0.08,0.109-0.123c0.132-0.173,0.246-0.352,0.351-0.534
	c0.012-0.021,0.028-0.04,0.04-0.061c0.085-0.153,0.152-0.312,0.219-0.47c0.022-0.052,0.052-0.103,0.072-0.156
	c0.063-0.165,0.108-0.334,0.151-0.503c0.012-0.048,0.032-0.095,0.043-0.143c0.042-0.187,0.067-0.376,0.087-0.564
	c0.003-0.031,0.012-0.062,0.014-0.093c0.016-0.191,0.016-0.381,0.009-0.571c-0.001-0.029,0.003-0.059,0.001-0.088
	C426.689,124.937,426.663,124.736,426.628,124.537z"/>
<g>
	<path style="fill:#C3D8E5;" d="M85.538,123.853L256,179.397l-54.492-75.165L89.501,120.508
		C87.486,120.801,86.078,122.186,85.538,123.853z"/>
	<path style="fill:#C3D8E5;" d="M260.401,2.736c-0.9-1.823-2.651-2.735-4.401-2.735v179.396l54.492-75.165L260.401,2.736z"/>
	<path style="fill:#C3D8E5;" d="M426.462,123.853L256,179.397l88.17,28.484l81.049-79.003
		C426.673,127.46,427,125.516,426.462,123.853z"/>
	<path style="fill:#C3D8E5;" d="M150.652,324.238L256,179.397l-88.17,28.484l-19.133,111.555
		C148.353,321.442,149.235,323.209,150.652,324.238z"/>
	<path style="fill:#C3D8E5;" d="M361.348,324.238L256,179.397v92.543l100.182,52.669
		C357.981,325.555,359.932,325.265,361.348,324.238z"/>
</g>
<circle style="fill:#FFB125;" cx="256" cy="181.201" r="59.29"/>
<path style="fill:#FF901D;" d="M256,121.912c-8.338,0-16.269,1.729-23.467,4.835c21.069,9.093,35.819,30.046,35.819,54.451
	s-14.751,45.358-35.819,54.451c7.198,3.106,15.129,4.835,23.467,4.835c32.743,0,59.286-26.543,59.286-59.286
	S288.743,121.912,256,121.912z"/>
<path style="fill:#2C5871;" d="M246.041,166.671c0.606,0,1.385-0.173,2.077-0.779l2.77-2.77v46.222c0,2.337,2.77,3.549,5.626,3.549
	c2.77,0,5.627-1.212,5.627-3.549v-56.263c0-2.251-2.684-3.636-5.02-3.636c-0.953,0-1.732,0.346-2.338,0.866l-10.214,7.79
	c-1.385,0.865-2.164,2.51-2.164,4.068C242.406,164.42,243.877,166.671,246.041,166.671z"/>
<g>
</g>
<g>
</g>
<g>
</g>
<g>
</g>
<g>
</g>
<g>
</g>
<g>
</g>
<g>
</g>
<g>
</g>
<g>
</g>
<g>
</g>
<g>
</g>
<g>
</g>
<g>
</g>
<g>
</g>
</svg>
