<?xml version="1.0" encoding="iso-8859-1"?>
<!-- Generator: Adobe Illustrator 19.0.0, SVG Export Plug-In . SVG Version: 6.00 Build 0)  -->
<svg xmlns="http://www.w3.org/2000/svg" xmlns:xlink="http://www.w3.org/1999/xlink" version="1.1" id="Layer_1" x="0px" y="0px" viewBox="0 0 512.001 512.001" style="enable-background:new 0 0 512.001 512.001;" xml:space="preserve">
<path style="fill:#C1E2FF;" d="M490.097,108.024c-1.509-1.805-3.741-2.848-6.094-2.848H33.721c-2.353,0-4.585,1.043-6.094,2.848  c-1.509,1.805-2.141,4.186-1.725,6.502l62.044,345.065c0.691,3.843,4.038,6.54,7.81,6.54c0.467,0,0.94-0.041,1.415-0.126  c4.318-0.777,7.19-4.907,6.413-9.225L92.27,393.856l63.256-63.256l81.57,81.556c0.099,0.11,0.192,0.224,0.298,0.33l10.228,10.228  l-30.047,30.047c-3.103,3.103-3.103,8.133,0,11.236c1.551,1.551,3.584,2.326,5.617,2.326s4.066-0.776,5.617-2.326l30.048-30.047  l30.048,30.047c1.551,1.551,3.584,2.326,5.617,2.326s4.066-0.776,5.617-2.326c3.103-3.103,3.103-8.133,0-11.236l-30.047-30.047  l91.951-91.951l63.407,63.109l-11.311,62.908c-0.776,4.319,2.095,8.448,6.413,9.225c0.475,0.085,0.948,0.126,1.415,0.126  c3.771,0,7.119-2.697,7.81-6.54l17.224-95.792c0.014-0.081,0.019-0.161,0.031-0.242l44.789-249.03  C492.238,112.21,491.606,109.829,490.097,108.024z M248.619,195.452c-0.313-0.312-0.65-0.583-0.998-0.832l-73.767-73.557H342.59  l-84.157,84.157L248.619,195.452z M247.108,216.547l-91.583,91.583l-92.339-92.324l91.459-91.459L247.108,216.547z M269.695,216.43  l92.729-92.729l92.105,92.105l-92.512,92.512L269.695,216.43z M135.457,121.065l-78.18,78.179L43.22,121.065  C43.22,121.065,135.457,121.065,135.457,121.065z M88.846,374.81L64.539,239.628l79.751,79.738L88.846,374.81z M258.874,411.462  l-92.113-92.097l91.598-91.598l13.134,13.096c0.388,0.386,0.805,0.724,1.245,1.013l78.044,77.678L258.874,411.462z M373.278,319.528  l79.899-79.9l-23.079,128.317c-0.015,0.083-0.02,0.166-0.032,0.249l-1.198,6.663L373.278,319.528z M460.441,199.247l-78.183-78.183  h92.245L460.441,199.247z"/>
<path style="fill:#0098FF;" d="M478.279,113.121H33.721C15.097,113.121,0,98.023,0,79.4l0,0c0-18.623,15.097-33.721,33.721-33.721  H478.28c18.623,0,33.721,15.097,33.721,33.721l0,0C512,98.023,496.903,113.121,478.279,113.121z"/>
<path style="fill:#0073D1;" d="M478.279,113.121H33.721C15.097,113.121,0,98.023,0,79.4l0,0h512l0,0  C512,98.023,496.903,113.121,478.279,113.121z"/>
<g>
</g>
<g>
</g>
<g>
</g>
<g>
</g>
<g>
</g>
<g>
</g>
<g>
</g>
<g>
</g>
<g>
</g>
<g>
</g>
<g>
</g>
<g>
</g>
<g>
</g>
<g>
</g>
<g>
</g>
</svg>
