<?xml version="1.0" encoding="iso-8859-1"?>
<!-- Generator: Adobe Illustrator 19.0.0, SVG Export Plug-In . SVG Version: 6.00 Build 0)  -->
<svg xmlns="http://www.w3.org/2000/svg" xmlns:xlink="http://www.w3.org/1999/xlink" version="1.1" id="Layer_1" x="0px" y="0px" viewBox="0 0 512.001 512.001" style="enable-background:new 0 0 512.001 512.001;" xml:space="preserve">
<rect x="236.8" y="415.69" style="fill:#213244;" width="38.4" height="58.54"/>
<path style="fill:#4E6284;" d="M499.435,415.694H12.565C5.625,415.694,0,410.069,0,403.13V41.854C0,34.915,5.625,29.29,12.565,29.29  h486.871c6.939,0,12.565,5.625,12.565,12.565V403.13C512,410.069,506.375,415.694,499.435,415.694z"/>
<path style="fill:#213244;" d="M499.436,29.29h-38.299v168.252c0,86.19-69.871,156.061-156.061,156.061H0v49.527  c0,6.939,5.625,12.565,12.565,12.565h486.871c6.939,0,12.565-5.625,12.565-12.565V41.854C512,34.915,506.375,29.29,499.436,29.29z"/>
<rect x="32.598" y="66.795" style="fill:#FCD872;" width="446.8" height="311.39"/>
<ellipse style="fill:#F37569;" cx="251.28" cy="226.92" rx="117.38" ry="117.39"/>
<path style="fill:#D3655C;" d="M316.901,129.568c16.31,20.161,26.084,45.827,26.084,73.78c0,64.836-52.554,117.395-117.382,117.395  c-24.308,0-46.891-7.39-65.624-20.046c21.519,26.601,54.419,43.615,91.298,43.615c64.828,0,117.382-52.56,117.382-117.395  C368.659,186.393,348.128,150.665,316.901,129.568z"/>
<path style="fill:#213244;" d="M326.738,482.71H185.262c-4.682,0-8.477-3.795-8.477-8.477c0-4.682,3.795-8.477,8.477-8.477h141.476  c4.682,0,8.477,3.795,8.477,8.477C335.215,478.915,331.42,482.71,326.738,482.71z"/>
<g>
	<path style="fill:#BA5852;" d="M334.87,199.227c-18.749-9.604-40.758-18.211-74.505-16.204c-8.402-0.059-16.135-2.965-22.298-7.789   c29.86-17.119,64.15-26.848,100.088-27.261c-5.887-6.477-12.493-12.286-19.684-17.317c-32.866,3.242-64.048,13.652-91.662,29.887   c-1.841-4.369-2.859-9.166-2.859-14.197c0-19.475,15.26-35.447,34.45-36.603c-2.357-0.141-4.73-0.221-7.122-0.221   c-12.545,0-24.627,1.976-35.961,5.62c-6.131,8.875-9.733,19.624-9.733,31.204c0,8.696,2.035,16.922,5.64,24.241   c-7.418,5.227-14.52,10.9-21.263,16.991c-8.374-13.789-15.894-28.102-22.49-42.848c-4.759,4.853-9.1,10.118-12.965,15.736   c6.579,13.845,13.946,27.3,22.033,40.304c-3.46,3.697-6.804,7.511-10.017,11.447c-7.105-8.619-16.81-15-28.006-18.005   c-1.695,5.856-2.948,11.9-3.717,18.094c8.374,2.612,15.484,8.191,20.124,15.46c-6.374,9.359-12.069,19.264-17.019,29.649   c2.294,8.549,5.527,16.711,9.585,24.372c4.042-10.809,8.934-21.134,14.587-30.91c1.673,2.657,4.662,4.389,8.037,4.3   c5.069-0.148,9.059-4.377,8.912-9.446c-0.164-5.625-1.159-11.023-2.852-16.088c3.405-4.493,6.991-8.829,10.735-13.009   c31.302,45.516,71.733,84.736,118.485,114.477c6.061-3.155,11.81-6.824,17.193-10.948   c-48.813-29.534-90.783-69.771-122.563-116.903c6.905-6.426,14.24-12.363,21.943-17.779c9.947,9.828,23.605,15.908,38.66,15.908   c0.187,0,0.374-0.006,0.56-0.017c30.988-1.906,49.958,6.336,65.31,14.2c16.246,8.32,33.03,26.367,39.92,34.262   c1.467-7.413,2.243-15.075,2.243-22.919c0-0.531-0.013-1.059-0.02-1.589C359.507,216.233,347.313,205.6,334.87,199.227z"/>
	<path style="fill:#BA5852;" d="M195.117,311.162c-3.036-5.525-6.224-11.644-8.978-18.923c-1.794-4.743-7.091-7.14-11.838-5.34   c-4.744,1.794-7.135,7.094-5.341,11.838c2.988,7.897,6.32,14.41,9.517,20.273c11.823,9.361,25.49,16.493,40.368,20.762   C210.693,332.068,200.826,321.551,195.117,311.162z"/>
</g>
<g>
</g>
<g>
</g>
<g>
</g>
<g>
</g>
<g>
</g>
<g>
</g>
<g>
</g>
<g>
</g>
<g>
</g>
<g>
</g>
<g>
</g>
<g>
</g>
<g>
</g>
<g>
</g>
<g>
</g>
</svg>
