<?xml version="1.0" encoding="iso-8859-1"?>
<!-- Generator: Adobe Illustrator 19.0.0, SVG Export Plug-In . SVG Version: 6.00 Build 0)  -->
<svg xmlns="http://www.w3.org/2000/svg" xmlns:xlink="http://www.w3.org/1999/xlink" version="1.1" id="Layer_1" x="0px" y="0px" viewBox="0 0 512 512" style="enable-background:new 0 0 512 512;" xml:space="preserve">
<ellipse style="fill:#F37569;" cx="255.41" cy="375.12" rx="136.86" ry="136.88"/>
<path style="fill:#D3655C;" d="M331.923,261.618c19.016,23.507,30.413,53.432,30.413,86.024  c0,75.595-61.275,136.877-136.862,136.877c-28.342,0-54.673-8.616-76.515-23.372C174.05,492.163,212.41,512,255.408,512  c75.587,0,136.862-61.282,136.862-136.877C392.27,327.873,368.332,286.216,331.923,261.618z"/>
<path style="fill:#FFDFAC;" d="M254.572,198.103c49.862-0.181,85.013,21.523,97.399,30.012l70.132-88.4  c4.716-5.945-0.678-14.512-8.077-12.828l-40.889,9.304c-4.613,1.05-9.13-2.094-9.748-6.784l-8.358-63.399  c-0.823-6.243-8.182-9.156-13.055-5.167l-42.034,34.404c-3.999,3.273-10.004,1.974-12.293-2.659L262.52,41.709  c-2.929-5.93-11.369-5.979-14.366-0.083l-26.07,51.285c-2.344,4.61-8.369,5.838-12.33,2.512l-40.84-34.3  c-4.857-4.079-12.304-1.186-13.133,5.102l-8.332,63.201c-0.617,4.684-5.123,7.826-9.732,6.788l-38.515-8.678  c-7.373-1.661-12.752,6.85-8.088,12.797l68.313,87.097C171.972,218.961,206.187,198.279,254.572,198.103z"/>
<g>
	<path style="fill:#FBCE7D;" d="M414.026,126.887l-37.627,8.561l-59.042,74.422c16.552,6.462,28.425,14.003,34.614,18.244   l70.132-88.4C426.819,133.77,421.425,125.203,414.026,126.887z"/>
	<path style="fill:#FBCE7D;" d="M323.43,117.899c0.618,4.69,5.135,7.834,9.748,6.784l28.726-6.536l-6.874-52.139   c-0.823-6.243-8.182-9.156-13.055-5.167L318.445,80.1L323.43,117.899z"/>
	<path style="fill:#FBCE7D;" d="M247.691,81.076c2.289,4.634,8.293,5.933,12.293,2.659l16.589-13.578l-14.052-28.45   c-2.929-5.93-11.369-5.979-14.366-0.083L238.036,61.53L247.691,81.076z"/>
	<path style="fill:#FBCE7D;" d="M169.796,83.914c3.96,3.326,9.986,2.099,12.33-2.512l3.272-6.437l-16.483-13.844   c-4.857-4.079-12.304-1.186-13.133,5.102l-0.703,5.33L169.796,83.914z"/>
</g>
<path style="fill:#FF9090;" d="M253.802,164.018c-54.447,0.198-95.841,19.266-118.556,32.579l24.182,30.831  c12.544-8.467,46.76-29.149,95.145-29.325c49.862-0.181,85.013,21.523,97.399,30.012l24.071-30.341  C353.227,184.11,310.418,163.813,253.802,164.018z"/>
<path style="fill:#ED7777;" d="M340.742,180.452l-23.359,29.444c12.413,4.846,22.195,10.299,28.922,14.512  c0.102,0.064,0.195,0.124,0.296,0.188c2.11,1.328,3.92,2.532,5.397,3.544l24.071-30.341  C367.198,192.488,355.293,186.175,340.742,180.452z"/>
<g>
	<path style="fill:#BA5852;" d="M305.219,316.05c-1.732,4.544,0.549,9.633,5.093,11.364c30.679,11.688,58.201,29.301,81.872,52.338   c0.051-1.538,0.086-3.079,0.086-4.63c0-6.947-0.522-13.772-1.52-20.442c-22.137-18.696-46.996-33.373-74.167-43.725   C312.038,309.225,306.95,311.505,305.219,316.05z"/>
	<path style="fill:#BA5852;" d="M353.304,279.483c-9.333-9.553-20.049-17.746-31.83-24.253c-13.214,1.637-26,7.499-36.123,17.622   c-7.305,7.306-12.385,16.001-15.271,25.24c-11.58-2.062-23.268-3.327-34.971-3.794c4.569-19.003,10.36-37.703,17.362-56.014   c-6.61,0.139-13.102,0.751-19.449,1.796c-6.409,17.732-11.745,35.797-15.982,54.128c-7.08,0.208-14.146,0.705-21.179,1.486   c0.328-2.463,0.525-4.955,0.556-7.469c0.137-11.42-2.856-22.507-8.548-32.17c-5.137,2.921-10.066,6.163-14.76,9.702   c5.576,9.994,6.982,21.766,4.247,32.659c-14.414,2.659-28.596,6.553-42.372,11.622c-3.958,7.31-7.263,15.023-9.852,23.059   c13.038-5.905,26.567-10.622,40.405-14.096c-27.188,26.079-37.118,50.762-43.753,73.579c-0.497,1.709-0.945,3.459-1.352,5.238   c2.473,14.821,7.324,28.834,14.153,41.636c-0.288-12.901,0.356-29.049,4.11-41.957c5.648-19.424,13.898-42.234,40.466-67.156   c0.13-0.123,0.257-0.249,0.38-0.38c4.468-4.735,8.102-10.085,10.849-15.837c7.593-1.081,15.239-1.794,22.907-2.154   c-3.802,19.916-6.349,40.108-7.577,60.497c-2.715,45.116,1,90.106,11.013,133.982c6.19,1.821,12.562,3.215,19.083,4.15   c-11.079-44.788-15.297-90.862-12.516-137.074c1.253-20.823,3.926-41.434,7.967-61.737c12.046,0.327,24.085,1.556,36.001,3.693   c-0.305,16.25,5.713,32.597,18.085,44.97c0.127,0.126,0.257,0.249,0.392,0.368c27.282,24.138,36.192,46.698,42.402,65.95   c6.538,20.267,5.564,48.81,4.736,61.196c6.498-4.471,12.589-9.488,18.21-14.986c0.148-15.236-0.923-35.309-6.185-51.618   c-7.416-22.992-18.282-47.813-47.281-73.545c-17.103-17.298-17.044-45.286,0.179-62.509   C312.858,270.253,336.129,268.316,353.304,279.483z"/>
</g>
<g>
	<circle style="fill:#FF5C5C;" cx="65.3" cy="107.63" r="8.181"/>
	<circle style="fill:#FF5C5C;" cx="163.46" cy="183.96" r="8.181"/>
	<circle style="fill:#FF5C5C;" cx="192.91" cy="173.78" r="8.181"/>
	<circle style="fill:#FF5C5C;" cx="222.49" cy="167.6" r="8.181"/>
	<circle style="fill:#FF5C5C;" cx="346.01" cy="183.96" r="8.181"/>
	<circle style="fill:#FF5C5C;" cx="316.56" cy="173.78" r="8.181"/>
	<circle style="fill:#FF5C5C;" cx="286.97" cy="167.6" r="8.181"/>
	<circle style="fill:#FF5C5C;" cx="255.42" cy="165.6" r="8.181"/>
	<circle style="fill:#FF5C5C;" cx="150.37" cy="33.904" r="8.181"/>
	<circle style="fill:#FF5C5C;" cx="256.62" cy="8.181" r="8.181"/>
	<circle style="fill:#FF5C5C;" cx="364.56" cy="33.513" r="8.181"/>
	<circle style="fill:#FF5C5C;" cx="446.7" cy="109.81" r="8.181"/>
</g>
<g>
</g>
<g>
</g>
<g>
</g>
<g>
</g>
<g>
</g>
<g>
</g>
<g>
</g>
<g>
</g>
<g>
</g>
<g>
</g>
<g>
</g>
<g>
</g>
<g>
</g>
<g>
</g>
<g>
</g>
</svg>
