<?xml version="1.0" encoding="iso-8859-1"?>
<!-- Generator: Adobe Illustrator 19.0.0, SVG Export Plug-In . SVG Version: 6.00 Build 0)  -->
<svg xmlns="http://www.w3.org/2000/svg" xmlns:xlink="http://www.w3.org/1999/xlink" version="1.1" id="Layer_1" x="0px" y="0px" viewBox="0 0 512.001 512.001" style="enable-background:new 0 0 512.001 512.001;" xml:space="preserve">
<path style="fill:#FFDFAC;" d="M376.117,512H135.883c-11.903,0-21.553-9.649-21.553-21.553V156.476  c0-11.903,9.649-21.553,21.553-21.553h99.702h140.533c11.903,0,21.553,9.649,21.553,21.553v333.971  C397.67,502.351,388.02,512,376.117,512z"/>
<path style="fill:#FFF6EB;" d="M293.282,175.578h-74.563c-4.412,0-7.989-3.577-7.989-7.989s3.577-7.989,7.989-7.989h74.563  c4.412,0,7.989,3.577,7.989,7.989C301.271,172.001,297.694,175.578,293.282,175.578z"/>
<path style="fill:#FBCE7D;" d="M376.117,134.924h-8.404v234.623c0,63.667-51.612,115.279-115.279,115.279H114.33v5.622  c0,11.903,9.649,21.553,21.553,21.553h240.235c11.903,0,21.553-9.649,21.553-21.553V156.476  C397.67,144.573,388.02,134.924,376.117,134.924z"/>
<polyline style="fill:#F37569;" points="236.028,0 236.028,167.589 277.215,167.589 277.215,0 "/>
<path style="fill:#213244;" d="M321.953,246.768c4.062,21.219-8.831,28.718-5.804,45.448c3.259,18.013,21.125,25.375,18.463,29.825  c-2.516,4.208-19.984,0.767-34.086-7.811c-21.497-13.077-42.473-42.534-34.086-67.828c3.086-9.308,11.614-22.472,24.943-24.399  c8.279-1.197,17.149,2.318,22.902,8.255C315.718,231.736,319.987,236.497,321.953,246.768z"/>
<path style="fill:#4E6284;" d="M261.789,284.05H245.79c-16.257,0-29.557-13.301-29.557-29.557v-0.634  c0-18.747,15.339-34.086,34.086-34.086h6.942c18.747,0,34.086,15.339,34.086,34.086v0.634  C291.346,270.749,278.045,284.05,261.789,284.05z"/>
<path style="fill:#213244;" d="M257.261,219.773h-6.942c-1.715,0-3.401,0.131-5.051,0.379c16.374,2.46,29.035,16.675,29.035,33.707  v0.634c0,16.082-13.018,29.262-29.035,29.544c0.174,0.003,0.347,0.013,0.522,0.013h15.999c16.257,0,29.557-13.301,29.557-29.557  v-0.634C291.346,235.111,276.008,219.773,257.261,219.773z"/>
<path style="fill:#F7B89C;" d="M296.873,347.357l-1.411-0.411c-11.682-3.399-19.879-15.638-19.879-29.681v-20.978h-43.999v21.389  c0,14.042-8.197,26.281-19.879,29.681l0,0c-26.184,7.62-44.557,35.053-44.557,66.528v3.981c0,4.666,3.243,8.448,7.243,8.448h159.796  c4,0,7.243-3.782,7.243-8.448v-3.981C341.43,382.41,323.057,354.977,296.873,347.357z"/>
<g>
	<path style="fill:#E89F8E;" d="M199.278,355.879L199.278,355.879c4.963-1.444,9.287-4.496,12.631-8.592   c-0.069,0.021-0.134,0.05-0.204,0.07l0,0c-8.017,2.333-15.296,6.53-21.545,12.125C193.074,358.013,196.118,356.798,199.278,355.879   z"/>
	<path style="fill:#E89F8E;" d="M296.873,347.357l-1.411-0.411c-11.682-3.399-19.879-15.638-19.879-29.681v-20.978h-43.999v8.522   h31.572v20.978c0,14.042,8.197,26.281,19.879,29.681l1.411,0.411c26.184,7.62,44.557,35.053,44.557,66.528v3.908h5.184   c4,0,7.243-3.782,7.243-8.448v-3.981C341.43,382.41,323.057,354.977,296.873,347.357z"/>
</g>
<path style="fill:#F7B89C;" d="M288.787,277.126l-3.789,20.894c-2.209,15.914-15.815,27.762-31.881,27.762l0,0  c-16.357,0-30.112-12.268-31.977-28.518l-3.442-20.138"/>
<path style="fill:#E89F8E;" d="M273.164,277.126l-3.789,20.894c-1.839,13.253-11.586,23.679-24.073,26.798  c2.508,0.626,5.125,0.964,7.814,0.964c16.067,0,29.673-11.848,31.881-27.762l3.789-20.894H273.164z"/>
<path style="fill:#9573FF;" d="M302.272,381.143v-31.888c-1.759-0.726-3.559-1.363-5.399-1.898l-1.411-0.411  c-2.403-0.699-4.655-1.778-6.722-3.164v6.913c0,22.191-15.424,40.181-34.45,40.181l0,0c-19.026,0-34.451-17.99-34.451-40.181v-7.514  c-2.436,1.883-5.172,3.314-8.133,4.176l0,0c-1.84,0.535-3.64,1.172-5.399,1.898v31.888c0,10.22-7.103,18.505-15.866,18.505v26.666  h127.697v-26.666C309.375,399.648,302.272,391.363,302.272,381.143z"/>
<path style="fill:#7A64D8;" d="M296.873,347.357l-1.411-0.411c-2.406-0.7-4.653-1.793-6.722-3.182v6.93  c0,2.207-0.159,4.369-0.452,6.479c5.013,1.886,9.704,4.505,13.985,7.755v-15.666C300.512,348.537,298.714,347.893,296.873,347.357z"/>
<path style="fill:#FF90D3;" d="M288.702,280.499h-69.825c-1.46,0-2.644-1.184-2.644-2.644v-22.939c0-1.46,1.184-2.644,2.644-2.644  h69.825c1.46,0,2.644,1.184,2.644,2.644v22.939C291.346,279.316,290.162,280.499,288.702,280.499z"/>
<path style="fill:#E56E9F;" d="M288.702,252.272h-16.111c1.46,0,2.644,1.184,2.644,2.644v22.939c0,1.46-1.184,2.644-2.644,2.644  h16.111c1.46,0,2.644-1.184,2.644-2.644v-22.939C291.346,253.456,290.162,252.272,288.702,252.272z"/>
<path style="fill:#4E6284;" d="M336.865,475.961H175.134c-4.412,0-7.989-3.577-7.989-7.989c0-4.412,3.577-7.989,7.989-7.989h161.731  c4.412,0,7.989,3.577,7.989,7.989S341.278,475.961,336.865,475.961z"/>
<g>
</g>
<g>
</g>
<g>
</g>
<g>
</g>
<g>
</g>
<g>
</g>
<g>
</g>
<g>
</g>
<g>
</g>
<g>
</g>
<g>
</g>
<g>
</g>
<g>
</g>
<g>
</g>
<g>
</g>
</svg>
