<?xml version="1.0" encoding="iso-8859-1"?>
<!-- Generator: Adobe Illustrator 19.0.0, SVG Export Plug-In . SVG Version: 6.00 Build 0)  -->
<svg xmlns="http://www.w3.org/2000/svg" xmlns:xlink="http://www.w3.org/1999/xlink" version="1.1" id="Layer_1" x="0px" y="0px" viewBox="0 0 512 512" style="enable-background:new 0 0 512 512;" xml:space="preserve">
<path style="fill:#FFDFAC;" d="M375.806,512H135.571c-11.903,0-21.553-9.649-21.553-21.553V156.476  c0-11.903,9.649-21.553,21.553-21.553h240.235c11.903,0,21.553,9.649,21.553,21.553v333.971  C397.358,502.351,387.709,512,375.806,512z"/>
<path style="fill:#FBCE7D;" d="M376.427,134.924h-5.083v243.244c0,59.203-47.993,107.196-107.196,107.196H114.64v5.083  c0,11.903,9.649,21.553,21.553,21.553h240.235c11.903,0,21.553-9.649,21.553-21.553V156.476  C397.98,144.573,388.33,134.924,376.427,134.924z"/>
<path style="fill:#F7B89C;" d="M323.39,359.325l-25.093-6.261c-12.575-3.137-21.398-14.433-21.398-27.393V306.31h-47.362v19.74  c0,12.96-8.824,24.256-21.398,27.393l-23.574,5.882c-14.332,3.576-24.389,16.45-24.389,31.222v27.971  c0,4.306,3.491,7.797,7.797,7.797h172.011c4.306,0,7.797-3.491,7.797-7.797v-27.971C347.779,375.775,337.722,362.901,323.39,359.325  z"/>
<path style="fill:#FFF6EB;" d="M292.97,175.578h-74.563c-4.412,0-7.989-3.577-7.989-7.989s3.577-7.989,7.989-7.989h74.563  c4.412,0,7.989,3.577,7.989,7.989C300.959,172.001,297.382,175.578,292.97,175.578z"/>
<g>
	<path style="fill:#E89F8E;" d="M323.39,359.325l-25.093-6.261c-12.575-3.137-21.398-14.433-21.398-27.393V306.31h-47.362v12.427   h33.87v19.361c0,12.96,8.824,24.256,21.398,27.393l25.093,6.261c14.332,3.576,24.389,16.45,24.389,31.222v23.341h5.696   c4.306,0,7.797-3.491,7.797-7.797v-27.971C347.779,375.775,337.722,362.901,323.39,359.325z"/>
	<path style="fill:#E89F8E;" d="M171.072,371.752l23.574-5.882c7.899-1.971,14.314-7.163,17.995-13.963   c-1.437,0.629-2.941,1.146-4.503,1.536l-23.574,5.882c-8.549,2.133-15.554,7.588-19.834,14.767   C166.732,373.113,168.843,372.308,171.072,371.752z"/>
</g>
<path style="fill:#F7B89C;" d="M253.977,333.531L253.977,333.531c-25.329,0-45.863-20.533-45.863-45.863v-38.349  c0-25.329,20.533-45.863,45.863-45.863l0,0c25.329,0,45.863,20.533,45.863,45.863v38.349  C299.84,312.997,279.307,333.531,253.977,333.531z"/>
<path style="fill:#E89F8E;" d="M253.977,203.457L253.977,203.457c-3.415,0-6.739,0.385-9.942,1.093  c20.547,4.543,35.921,22.856,35.921,44.77v38.349c0,21.914-15.374,40.226-35.921,44.77c3.202,0.708,6.526,1.093,9.942,1.093l0,0  c25.329,0,45.863-20.533,45.863-45.863V249.32C299.84,223.99,279.307,203.457,253.977,203.457z"/>
<path style="fill:#0098FF;" d="M322.707,426.315v-24.611c-9.432,0-17.078-7.646-17.078-17.078v-29.732l-7.331-1.829  c-2.586-0.645-5.011-1.641-7.236-2.92v12.669c0,17.008-13.787,30.795-30.795,30.795h-12.578c-17.008,0-30.795-13.787-30.795-30.795  V349.59c-2.623,1.738-5.567,3.059-8.755,3.854l-5.812,1.45v29.732c0,9.432-7.646,17.078-17.078,17.078l0,0v24.611H322.707z"/>
<path style="fill:#0073D1;" d="M305.628,370.687v-15.794l-7.331-1.829c-2.59-0.646-5.009-1.655-7.236-2.936v12.685  c0,1.414-0.104,2.804-0.288,4.167L305.628,370.687z"/>
<g>
	<rect x="208.119" y="245.12" style="fill:#4E6284;" width="91.73" height="28.23"/>
	<path style="fill:#4E6284;" d="M336.554,472.41H174.823c-4.412,0-7.989-3.577-7.989-7.989c0-4.412,3.577-7.989,7.989-7.989h161.731   c4.412,0,7.989,3.577,7.989,7.989C344.543,468.834,340.966,472.41,336.554,472.41z"/>
</g>
<polyline style="fill:#F37569;" points="235.716,0 235.716,167.589 276.903,167.589 276.903,0 "/>
<g>
</g>
<g>
</g>
<g>
</g>
<g>
</g>
<g>
</g>
<g>
</g>
<g>
</g>
<g>
</g>
<g>
</g>
<g>
</g>
<g>
</g>
<g>
</g>
<g>
</g>
<g>
</g>
<g>
</g>
</svg>
