<?xml version="1.0" encoding="iso-8859-1"?>
<!-- Generator: Adobe Illustrator 19.0.0, SVG Export Plug-In . SVG Version: 6.00 Build 0)  -->
<svg xmlns="http://www.w3.org/2000/svg" xmlns:xlink="http://www.w3.org/1999/xlink" version="1.1" id="Layer_1" x="0px" y="0px" viewBox="0 0 512.001 512.001" style="enable-background:new 0 0 512.001 512.001;" xml:space="preserve">
<path style="fill:#88543F;" d="M273.4,228.796h-39.316c-44.87,0-81.583-36.712-81.583-81.583v-45.975  C152.501,45.557,198.058,0,253.739,0h0.006c55.681,0,101.238,45.557,101.238,101.238v45.975  C354.982,192.084,318.27,228.796,273.4,228.796z"/>
<path style="fill:#492315;" d="M313.765,19.844c-12.955-9.59-28.154-16.033-44.075-18.58c-8.971-1.435-18.131-1.642-27.16-0.635  c-1.173,0.131-2.34,0.28-3.501,0.451c44.644,6.572,80.048,42.56,85.726,87.476H183.359v122.431  c13.952,11.133,31.596,17.809,50.726,17.809h39.312c25.886,0,49.056-12.219,64.03-31.173c8.781-11.1,14.569-24.442,16.668-38.437  c0.593-3.958,0.887-7.968,0.887-11.97v-45.98c0-12.375-2.289-24.721-6.754-36.264c-1-2.586-2.358-5.669-3.269-7.525  C337.625,42.5,326.992,29.636,313.765,19.844z"/>
<path style="fill:#F7B89C;" d="M332.838,259.64l-2.546-0.741c-21.078-6.134-35.869-28.216-35.869-53.553v-37.851h-79.391v38.592  c0,25.337-14.791,47.419-35.869,53.553l0,0c-47.246,13.748-80.399,63.246-80.399,120.037v7.184c0,8.418,5.851,15.242,13.069,15.242  h288.336c7.218,0,13.069-6.824,13.069-15.242v-7.184C413.237,322.886,380.084,273.388,332.838,259.64z"/>
<path style="fill:#E89F8E;" d="M332.838,259.64l-2.546-0.741c-21.078-6.134-35.869-28.216-35.869-53.553v-37.851h-79.391v18.366  h51.237v37.851c0,25.337,14.791,47.419,35.869,53.553l2.546,0.741c47.246,13.748,80.399,63.246,80.399,120.037v4.06h15.085  c7.218,0,13.069-6.824,13.069-15.242v-7.184C413.237,322.886,380.084,273.388,332.838,259.64z"/>
<path style="fill:#F7B89C;" d="M327.154,83.81l-15.742,86.81c-3.985,28.714-28.536,50.091-57.527,50.091l0,0  c-29.514,0-54.335-22.135-57.699-51.455L183.359,83.81"/>
<path style="fill:#E89F8E;" d="M299,83.81l-15.742,86.81c-3.32,23.919-20.915,42.735-43.454,48.356  c4.519,1.128,9.235,1.736,14.082,1.736l0,0c28.991,0,53.541-21.378,57.527-50.091l15.742-86.81L299,83.81L299,83.81z"/>
<path style="fill:#9573FF;" d="M342.581,320.601v-57.536c-3.175-1.309-6.422-2.458-9.743-3.425l-2.546-0.741  c-4.336-1.262-8.399-3.208-12.129-5.708v12.473c0,40.04-27.831,72.498-62.162,72.498l0,0c-34.331,0-62.163-32.459-62.163-72.498  v-13.558c-4.396,3.397-9.333,5.98-14.675,7.535l0,0c-3.32,0.966-6.568,2.115-9.743,3.425v57.536  c0,18.44-12.817,33.388-28.628,33.388v48.114h230.417V353.99C355.398,353.989,342.581,339.04,342.581,320.601z"/>
<path style="fill:#7A64D8;" d="M342.581,298.997v-35.932c-3.174-1.309-6.422-2.458-9.743-3.425l-2.546-0.741  c-4.336-1.262-8.4-3.208-12.129-5.708v12.473c0,5.732-0.573,11.307-1.651,16.655C325.964,286.479,334.716,292.125,342.581,298.997z"/>
<path style="fill:#FF90D3;" d="M319.217,110.928H191.296c-4.383,0-7.937-3.553-7.937-7.937V84.43c0-4.383,3.553-7.937,7.937-7.937  h129.36c3.589,0,6.498,2.909,6.498,6.498v19.999C327.154,107.374,323.601,110.928,319.217,110.928z"/>
<path style="fill:#E56E9F;" d="M320.656,76.493h-33.399c3.589,0,6.499,2.909,6.499,6.498v20c0,4.383-3.553,7.936-7.937,7.936h33.399  c4.383,0,7.937-3.553,7.937-7.936v-20C327.154,79.403,324.245,76.493,320.656,76.493z"/>
<path style="fill:#FF7694;" d="M253.742,198.846c-7.332,0-14.255-3.564-18.521-9.534c-2.6-3.639-1.758-8.696,1.881-11.296  s8.697-1.759,11.296,1.881c1.251,1.75,3.199,2.755,5.344,2.755c2.214,0,4.264-1.107,5.485-2.961  c2.461-3.735,7.483-4.767,11.217-2.308c3.735,2.46,4.768,7.483,2.308,11.217C268.525,195.016,261.418,198.846,253.742,198.846z"/>
<g>
	<circle style="fill:#213244;" cx="227.92" cy="146.85" r="8.098"/>
	<circle style="fill:#213244;" cx="278.67" cy="146.85" r="8.098"/>
</g>
<g>
	<path style="fill:#FFDFAC;" d="M256.807,443.668l9.05,18.338c0.427,0.865,1.252,1.464,2.206,1.603l20.237,2.941   c2.403,0.349,3.362,3.302,1.624,4.997l-14.644,14.274c-0.69,0.673-1.005,1.643-0.842,2.593l3.457,20.156   c0.41,2.393-2.101,4.218-4.251,3.088l-18.101-9.516c-0.853-0.449-1.873-0.449-2.726,0l-18.101,9.516   c-2.149,1.13-4.661-0.695-4.251-3.088l3.457-20.156c0.163-0.95-0.152-1.92-0.843-2.593l-14.644-14.274   c-1.739-1.695-0.779-4.648,1.624-4.997l20.237-2.941c0.954-0.139,1.779-0.738,2.206-1.603l9.05-18.338   C252.628,441.49,255.733,441.49,256.807,443.668z"/>
	<path style="fill:#FFDFAC;" d="M142.652,443.668l9.05,18.338c0.427,0.865,1.252,1.464,2.206,1.603l20.237,2.941   c2.403,0.349,3.362,3.302,1.624,4.997l-14.644,14.274c-0.69,0.673-1.005,1.643-0.842,2.593l3.457,20.156   c0.41,2.393-2.101,4.218-4.251,3.088l-18.101-9.516c-0.853-0.449-1.873-0.449-2.726,0l-18.101,9.516   c-2.149,1.13-4.661-0.695-4.251-3.088l3.457-20.156c0.163-0.95-0.152-1.92-0.843-2.593l-14.644-14.274   c-1.739-1.695-0.779-4.648,1.624-4.997l20.237-2.941c0.954-0.139,1.779-0.738,2.206-1.603l9.05-18.338   C138.473,441.49,141.578,441.49,142.652,443.668z"/>
	<path style="fill:#FFDFAC;" d="M374.601,443.668l9.05,18.338c0.427,0.865,1.252,1.464,2.206,1.603l20.237,2.941   c2.403,0.349,3.362,3.302,1.624,4.997l-14.644,14.274c-0.69,0.673-1.005,1.643-0.842,2.593l3.457,20.156   c0.41,2.393-2.101,4.218-4.251,3.088l-18.101-9.516c-0.853-0.449-1.873-0.449-2.726,0l-18.101,9.516   c-2.149,1.13-4.661-0.695-4.251-3.088l3.457-20.156c0.163-0.95-0.152-1.92-0.843-2.593l-14.644-14.274   c-1.739-1.695-0.779-4.648,1.624-4.997l20.237-2.941c0.954-0.139,1.779-0.738,2.206-1.603l9.05-18.338   C370.422,441.49,373.527,441.49,374.601,443.668z"/>
</g>
<g>
	<path style="fill:#FBCE7D;" d="M257.267,445.253l0.348,0.051l-0.808-1.637c-0.522-1.058-1.524-1.591-2.538-1.621"/>
	<path style="fill:#FBCE7D;" d="M289.924,471.546c1.739-1.695,0.779-4.648-1.624-4.997l-19.91-2.893l-3.908,3.809   c-0.69,0.673-1.005,1.643-0.842,2.593l0,0c1.824,10.638-9.341,18.75-18.894,13.727l0,0c-0.853-0.449-1.873-0.449-2.726,0   l-8.079,4.247c-0.005,0.127,0.003,0.253-0.018,0.38l-3.457,20.156c-0.41,2.393,2.101,4.218,4.251,3.088l18.101-9.516   c0.853-0.449,1.873-0.449,2.726,0l18.101,9.516c2.149,1.13,4.661-0.695,4.251-3.088l-3.457-20.156   c-0.163-0.95,0.152-1.92,0.843-2.593L289.924,471.546z"/>
	<path style="fill:#FBCE7D;" d="M143.112,445.253l0.348,0.051l-0.808-1.636c-0.522-1.058-1.524-1.591-2.538-1.621l0.792,1.605"/>
	<path style="fill:#FBCE7D;" d="M175.77,471.546c1.739-1.695,0.779-4.648-1.624-4.997l-19.91-2.893l-3.908,3.809   c-0.69,0.673-1.005,1.643-0.842,2.593l0,0c1.824,10.638-9.341,18.75-18.894,13.727l0,0c-0.853-0.449-1.873-0.449-2.726,0   l-8.079,4.247c-0.005,0.127,0.003,0.253-0.018,0.38l-3.457,20.156c-0.41,2.393,2.101,4.218,4.251,3.088l18.101-9.516   c0.853-0.449,1.873-0.449,2.726,0l18.101,9.516c2.149,1.13,4.661-0.695,4.251-3.088l-3.457-20.156   c-0.163-0.95,0.152-1.92,0.842-2.593L175.77,471.546z"/>
	<path style="fill:#FBCE7D;" d="M407.719,471.546c1.739-1.695,0.779-4.648-1.623-4.997l-19.91-2.893l-3.908,3.809   c-0.69,0.673-1.005,1.643-0.842,2.593l0,0c1.825,10.638-9.341,18.75-18.894,13.728l0,0c-0.853-0.449-1.873-0.449-2.726,0   l-8.079,4.247c-0.005,0.127,0.003,0.253-0.018,0.38l-3.457,20.156c-0.41,2.393,2.101,4.218,4.25,3.088l18.101-9.516   c0.853-0.449,1.873-0.449,2.726,0l18.101,9.516c2.149,1.13,4.661-0.695,4.251-3.088l-3.457-20.155   c-0.163-0.95,0.152-1.92,0.843-2.593L407.719,471.546z"/>
	<path style="fill:#FBCE7D;" d="M375.061,445.253l0.348,0.051l-0.808-1.636c-0.522-1.058-1.524-1.591-2.538-1.621"/>
</g>
<g>
</g>
<g>
</g>
<g>
</g>
<g>
</g>
<g>
</g>
<g>
</g>
<g>
</g>
<g>
</g>
<g>
</g>
<g>
</g>
<g>
</g>
<g>
</g>
<g>
</g>
<g>
</g>
<g>
</g>
</svg>
