<?xml version="1.0" encoding="iso-8859-1"?>
<!-- Generator: Adobe Illustrator 19.0.0, SVG Export Plug-In . SVG Version: 6.00 Build 0)  -->
<svg xmlns="http://www.w3.org/2000/svg" xmlns:xlink="http://www.w3.org/1999/xlink" version="1.1" id="Layer_1" x="0px" y="0px" viewBox="0 0 512.001 512.001" style="enable-background:new 0 0 512.001 512.001;" xml:space="preserve">
<g>
	<path style="fill:#FFDFAC;" d="M259.825,445.254l8.84,17.912c0.417,0.845,1.223,1.43,2.155,1.565l19.768,2.872   c2.347,0.341,3.284,3.225,1.586,4.881l-14.304,13.943c-0.674,0.657-0.982,1.605-0.823,2.533l3.377,19.688   c0.401,2.338-2.053,4.12-4.152,3.016l-17.681-9.295c-0.834-0.438-1.829-0.438-2.663,0l-17.681,9.295   c-2.099,1.104-4.553-0.679-4.152-3.016l3.377-19.688c0.159-0.928-0.149-1.875-0.823-2.533l-14.304-13.943   c-1.698-1.655-0.761-4.54,1.586-4.881l19.768-2.872c0.932-0.135,1.738-0.721,2.154-1.565l8.84-17.912   C255.743,443.128,258.776,443.128,259.825,445.254z"/>
	<path style="fill:#FFDFAC;" d="M148.321,445.254l8.84,17.912c0.417,0.845,1.223,1.43,2.155,1.565l19.768,2.872   c2.347,0.341,3.284,3.225,1.586,4.881l-14.304,13.943c-0.674,0.657-0.982,1.605-0.823,2.533l3.377,19.688   c0.401,2.338-2.053,4.12-4.152,3.016l-17.681-9.295c-0.834-0.438-1.829-0.438-2.663,0l-17.681,9.295   c-2.099,1.104-4.553-0.679-4.152-3.016l3.377-19.688c0.159-0.928-0.149-1.875-0.823-2.533l-14.304-13.943   c-1.698-1.655-0.761-4.54,1.586-4.881l19.768-2.872c0.932-0.135,1.738-0.721,2.154-1.565l8.84-17.912   C144.239,443.128,147.271,443.128,148.321,445.254z"/>
	<path style="fill:#FFDFAC;" d="M374.884,445.254l8.84,17.912c0.417,0.845,1.222,1.43,2.154,1.565l19.768,2.872   c2.347,0.341,3.284,3.225,1.586,4.881l-14.304,13.943c-0.674,0.657-0.982,1.605-0.823,2.533l3.377,19.688   c0.401,2.338-2.053,4.12-4.152,3.016l-17.681-9.295c-0.834-0.438-1.829-0.438-2.663,0l-17.681,9.295   c-2.099,1.104-4.553-0.679-4.152-3.016l3.377-19.688c0.159-0.928-0.149-1.875-0.823-2.533l-14.304-13.943   c-1.698-1.655-0.761-4.54,1.586-4.881l19.768-2.872c0.932-0.135,1.738-0.721,2.155-1.565l8.84-17.912   C370.802,443.128,373.834,443.128,374.884,445.254z"/>
</g>
<g>
	<path style="fill:#FBCE7D;" d="M292.173,472.485c1.698-1.655,0.761-4.54-1.586-4.881l-19.447-2.826l-3.817,3.721   c-0.674,0.657-0.982,1.604-0.823,2.533l0,0c1.782,10.391-9.124,18.315-18.456,13.409l0,0c-0.834-0.438-1.829-0.438-2.663,0   l-7.892,4.149c-0.005,0.124,0.003,0.247-0.018,0.371l-3.377,19.688c-0.401,2.338,2.053,4.12,4.152,3.016l17.681-9.295   c0.834-0.438,1.829-0.438,2.663,0l17.68,9.295c2.099,1.104,4.553-0.679,4.152-3.016l-3.377-19.688   c-0.159-0.928,0.149-1.875,0.823-2.533L292.173,472.485z"/>
	<path style="fill:#FBCE7D;" d="M180.669,472.485c1.698-1.655,0.761-4.54-1.586-4.881l-19.447-2.826l-3.817,3.721   c-0.674,0.657-0.982,1.604-0.823,2.533l0,0c1.782,10.391-9.124,18.315-18.456,13.409l0,0c-0.834-0.438-1.829-0.438-2.663,0   l-7.892,4.149c-0.005,0.124,0.003,0.247-0.018,0.371l-3.377,19.688c-0.401,2.338,2.053,4.12,4.152,3.016l17.681-9.295   c0.834-0.438,1.829-0.438,2.663,0l17.68,9.295c2.099,1.104,4.553-0.679,4.152-3.016l-3.377-19.688   c-0.159-0.928,0.149-1.875,0.823-2.533L180.669,472.485z"/>
	<path style="fill:#FBCE7D;" d="M407.233,472.485c1.698-1.655,0.761-4.54-1.586-4.881l-19.448-2.826l-3.817,3.721   c-0.674,0.657-0.982,1.605-0.823,2.533l0,0c1.782,10.391-9.124,18.315-18.456,13.409l0,0c-0.834-0.438-1.829-0.438-2.663,0   l-7.892,4.149c-0.005,0.124,0.003,0.247-0.018,0.371l-3.377,19.688c-0.401,2.338,2.053,4.12,4.152,3.017l17.681-9.295   c0.834-0.438,1.829-0.438,2.663,0l17.68,9.295c2.099,1.104,4.553-0.679,4.152-3.017l-3.377-19.687   c-0.159-0.928,0.148-1.875,0.823-2.533L407.233,472.485z"/>
</g>
<path style="fill:#F7B89C;" d="M382.704,284.512L336.9,273.084c-22.953-5.727-39.059-26.345-39.059-50.002v-35.341h-86.452v36.033  c0,23.656-16.106,44.275-39.059,50.002l-43.031,10.736c-26.161,6.527-44.518,30.028-44.518,56.991v51.057  c0,7.86,6.372,14.231,14.231,14.231H412.99c7.86,0,14.231-6.372,14.231-14.231v-51.057  C427.222,314.539,408.865,291.039,382.704,284.512z"/>
<path style="fill:#E89F8E;" d="M382.704,284.512l-45.803-11.428c-22.953-5.727-39.059-26.345-39.059-50.002v-35.341H211.39v36.033  l9.256,1.897c22.832,4.68,42.992,18.17,55.667,37.73c6.923,10.683,17.748,18.735,30.779,21.986l45.804,11.428  c26.161,6.527,44.518,30.028,44.518,56.991v51.057c0,0.656-0.06,1.296-0.146,1.928h15.722c7.86,0,14.231-6.372,14.231-14.231  v-51.057C427.222,314.539,408.865,291.039,382.704,284.512z"/>
<path style="fill:#F7B89C;" d="M351.624,105.917h-11.907V83.715C339.717,37.48,302.237,0,256.002,0s-83.715,37.48-83.715,83.715  v22.202H160.38c-6.259,0-11.333,5.074-11.333,11.333v25.987c0,6.259,5.074,11.333,11.333,11.333h11.907v-0.855  c0.001,46.233,37.481,83.713,83.715,83.713c46.235,0,83.715-37.48,83.715-83.715v0.857h11.907c6.259,0,11.333-5.074,11.333-11.333  V117.25C362.958,110.991,357.883,105.917,351.624,105.917z"/>
<path style="fill:#E89F8E;" d="M351.624,105.917h-11.907V83.715C339.717,37.48,302.237,0,256.002,0l0,0  c-5.087,0-10.067,0.455-14.904,1.324c39.124,7.03,68.811,41.243,68.811,82.391v69.999c0,41.148-29.687,75.361-68.811,82.391  c4.836,0.869,9.817,1.324,14.904,1.324l0,0c46.235,0,83.715-37.48,83.715-83.715v0.857h11.907c6.259,0,11.333-5.074,11.333-11.333  V117.25C362.958,110.991,357.883,105.917,351.624,105.917z"/>
<path style="fill:#88543F;" d="M256.002,0L256.002,0c-46.235,0-83.715,37.48-83.715,83.715v40.675h0.266  c13.063,0,23.382-10.59,23.382-23.653V87.224c0-11.82,10.852-20.661,22.428-18.273l24.695,5.096c8.227,1.698,16.714,1.698,24.941,0  l24.695-5.096c11.576-2.389,22.428,6.452,22.428,18.273v13.04c0,13.063,10.59,23.653,23.653,23.653h0.941V83.715  C339.717,37.48,302.237,0,256.002,0z"/>
<path style="fill:#492315;" d="M256.002,0c-5.087,0-10.067,0.455-14.904,1.324c35.901,6.451,63.851,35.793,68.213,72.377  c3.552,3.369,5.812,8.134,5.812,13.523v13.04c0,13.063,10.59,23.653,23.653,23.653h0.941V83.715C339.717,37.48,302.236,0,256.002,0z  "/>
<path style="fill:#0098FF;" d="M381.456,406.791v-44.924c-17.217,0-31.174-13.957-31.174-31.174v-54.271l-13.382-3.339  c-4.721-1.178-9.146-2.995-13.208-5.33v23.125c0,31.045-25.167,56.211-56.211,56.211h-22.959c-31.045,0-56.211-25.167-56.211-56.211  V266.74c-4.787,3.172-10.162,5.584-15.98,7.035l-10.609,2.647v54.271c0,17.217-13.957,31.174-31.174,31.174l0,0v44.924  L381.456,406.791L381.456,406.791z"/>
<g>
	<path style="fill:#0073D1;" d="M323.693,267.754v21.775l26.59,6.634v-19.74l-13.382-3.339   C332.179,271.906,327.754,270.089,323.693,267.754z"/>
	<path style="fill:#0073D1;" d="M358.982,352.285v54.506h22.474v-44.924C372.623,361.867,364.654,358.187,358.982,352.285z"/>
</g>
<path style="fill:#FF7694;" d="M257.358,201.289L257.358,201.289c-12.239,0-22.16-9.921-22.16-22.16v-1.403  c0-1.951,1.582-3.533,3.533-3.533h37.255c1.951,0,3.533,1.582,3.533,3.533v1.403C279.518,191.367,269.597,201.289,257.358,201.289z"/>
<path style="fill:#FF5050;" d="M251.346,182.882L251.346,182.882c-5.432,0-10.404,1.957-14.258,5.201  c3.441,7.777,11.219,13.206,20.27,13.206c5.432,0,10.404-1.957,14.258-5.201C268.176,188.311,260.397,182.882,251.346,182.882z"/>
<g>
	<circle style="fill:#213244;" cx="226.192" cy="130.37" r="7.91"/>
	<circle style="fill:#213244;" cx="288.522" cy="130.11" r="7.91"/>
</g>
<g>
</g>
<g>
</g>
<g>
</g>
<g>
</g>
<g>
</g>
<g>
</g>
<g>
</g>
<g>
</g>
<g>
</g>
<g>
</g>
<g>
</g>
<g>
</g>
<g>
</g>
<g>
</g>
<g>
</g>
</svg>
