<?xml version="1.0" encoding="iso-8859-1"?>
<!-- Generator: Adobe Illustrator 19.0.0, SVG Export Plug-In . SVG Version: 6.00 Build 0)  -->
<svg xmlns="http://www.w3.org/2000/svg" xmlns:xlink="http://www.w3.org/1999/xlink" version="1.1" id="Layer_1" x="0px" y="0px" viewBox="0 0 511.999 511.999" style="enable-background:new 0 0 511.999 511.999;" xml:space="preserve">
<path style="fill:#FAC231;" d="M510.504,318.565c0,10.882-6.928,20.552-17.234,24.043c-55.752,18.887-137.889,39.266-238.414,39.111  c-99.418-0.154-180.71-20.337-236.131-39.112C8.42,339.116,1.494,329.445,1.494,318.565V63.246c0-10.878,6.924-20.543,17.224-24.04  C75.012,20.095,158.312-0.582,260.298,0.013c97.83,0.57,177.952,20.509,232.993,39.197c10.296,3.496,17.212,13.163,17.212,24.036  v255.319H510.504z"/>
<path style="fill:#E7AB00;" d="M493.231,39.189c-22.453-7.621-49.079-15.448-79.373-22.085V84.65  c0,108.347-82.781,198.848-190.723,208.208c-20.652,1.791-42.323,2.794-64.925,2.759c-59.216-0.092-111.998-7.29-156.716-17.063  v40.012c0,10.88,6.926,20.551,17.231,24.042c55.42,18.775,136.713,38.958,236.131,39.111  c100.524,0.155,182.662-20.224,238.414-39.111c10.306-3.491,17.234-13.162,17.234-24.043V63.246  C510.504,52.351,503.548,42.691,493.231,39.189z"/>
<path style="fill:#4E6284;" d="M467.964,289.988c0,8.447-5.77,15.953-14.353,18.663c-46.433,14.66-114.842,30.479-198.563,30.358  c-82.8-0.119-150.505-15.786-196.662-30.359c-8.583-2.71-14.351-10.217-14.351-18.662V91.803c0-8.444,5.766-15.946,14.345-18.66  c46.884-14.834,116.261-30.884,201.2-30.423c81.478,0.442,148.208,15.919,194.049,30.426c8.575,2.714,14.335,10.217,14.335,18.657  V289.988z"/>
<path style="fill:#213244;" d="M453.61,308.651c8.584-2.71,14.354-10.216,14.354-18.663V91.803c0-8.44-5.761-15.944-14.335-18.657  c-11.885-3.761-25.185-7.585-39.771-11.198V84.65c0,108.347-82.781,198.848-190.723,208.208  c-20.652,1.791-42.324,2.794-64.925,2.759c-41.392-0.064-79.628-3.607-114.176-9.068v3.44c0,8.446,5.768,15.952,14.351,18.662  c46.157,14.573,113.861,30.24,196.662,30.359C338.769,339.13,407.177,323.311,453.61,308.651z"/>
<path style="fill:#FFDFAC;" d="M336.045,128.288H173.141c-14.945,0-27.061,12.115-27.061,27.061v146.033h217.024V155.348  C363.105,140.403,350.99,128.288,336.045,128.288z"/>
<path style="fill:#FBCE7D;" d="M363.105,221.208c-34.426,39.914-83.785,66.777-139.97,71.649  c-20.652,1.791-42.324,2.794-64.925,2.759c-4.077-0.006-8.114-0.056-12.13-0.128v5.893h217.024v-80.173H363.105z"/>
<path style="fill:#0098FF;" d="M363.835,334.503H145.62c-9.141,0-16.552-7.411-16.552-16.552l0,0  c0-9.141,7.411-16.552,16.552-16.552h218.215c9.141,0,16.552,7.411,16.552,16.552l0,0  C380.387,327.093,372.977,334.503,363.835,334.503z"/>
<path style="fill:#C1E2FF;" d="M372.632,329.502c-1.487-1.778-3.685-2.805-6.003-2.805h-57.675c-1.321-0.351-2.713-0.351-4.033,0  h-97.849c-1.321-0.351-2.713-0.351-4.033,0h-57.67c-2.318,0-4.515,1.027-6.003,2.805c-1.486,1.778-2.108,4.123-1.698,6.404  l30.487,169.559c0.765,4.253,4.835,7.082,9.086,6.317c4.253-0.765,7.081-4.833,6.317-9.086l-5.197-28.903l26.857-26.857  l39.714,39.714l-11.992,11.992c-3.055,3.055-3.055,8.01,0,11.065c1.528,1.528,3.531,2.292,5.533,2.292s4.005-0.764,5.533-2.292  l11.992-11.992l11.992,11.992c1.528,1.528,3.53,2.292,5.533,2.292c2.002,0,4.005-0.764,5.533-2.292c3.055-3.055,3.055-8.01,0-11.065  l-11.992-11.992l39.714-39.714l26.861,26.86l-5.196,28.899c-0.764,4.253,2.063,8.321,6.317,9.086  c0.469,0.084,0.934,0.125,1.394,0.125c3.715-0.001,7.011-2.657,7.692-6.441l30.487-169.559  C374.74,333.625,374.119,331.28,372.632,329.502z M292.844,410.873c-0.145-0.145-0.298-0.276-0.451-0.408l-25.346-25.359  l39.841-39.84l39.714,39.714l-39.825,39.826L292.844,410.873z M224.31,342.345h63.367l-31.692,31.692L224.31,342.345z   M244.919,385.103l-39.702,39.702l-39.825-39.825l39.713-39.713L244.919,385.103z M352.522,368.768l-26.423-26.423h31.174  L352.522,368.768z M185.895,342.345l-26.419,26.419l-4.75-26.419H185.895z M174.987,455.035l-8.403-46.731l27.567,27.567  L174.987,455.035z M255.997,475.585l-39.714-39.714l39.699-39.699l29.774,29.79c0.153,0.153,0.314,0.292,0.476,0.43l9.479,9.479  L255.997,475.585z M317.842,435.871l27.572-27.572l-8.404,46.739L317.842,435.871z"/>
<path style="fill:#0073D1;" d="M363.835,334.503H145.62c-9.141,0-16.552-7.411-16.552-16.552l0,0h251.319l0,0  C380.387,327.093,372.977,334.503,363.835,334.503z"/>
<g>
</g>
<g>
</g>
<g>
</g>
<g>
</g>
<g>
</g>
<g>
</g>
<g>
</g>
<g>
</g>
<g>
</g>
<g>
</g>
<g>
</g>
<g>
</g>
<g>
</g>
<g>
</g>
<g>
</g>
</svg>
