<svg id="Capa_1" enable-background="new 0 0 512 512" height="512" viewBox="0 0 512 512" width="512" xmlns="http://www.w3.org/2000/svg"><g><path d="m125.169 115.168c.765.888 1.68 1.802 2.685 2.807l12.631 12.631v26.894c0 4.142 3.358 7.5 7.5 7.5h49.706c4.142 0 7.5-3.358 7.5-7.5v-26.894l15.377-15.377c12.749-12.749 19.771-29.7 19.771-47.729 0-37.22-30.28-67.5-67.5-67.5s-67.5 30.28-67.5 67.5c0 18.03 7.021 34.98 19.771 47.729zm30.316 34.832v-15h34.706v15zm17.353-135c28.949 0 52.5 23.551 52.5 52.5 0 14.023-5.461 27.207-15.377 37.123l-15.377 15.377h-43.493c-4.625-4.625-14.983-14.983-15.361-15.361-9.932-9.932-15.393-23.116-15.393-37.139.001-28.949 23.552-52.5 52.501-52.5z"/><path d="m120.333 210c-4.142 0-7.5 3.358-7.5 7.5v15c0 4.142 3.358 7.5 7.5 7.5s7.5-3.358 7.5-7.5v-15c0-4.142-3.358-7.5-7.5-7.5z"/><path d="m391.667 180h-105.667c-12.254 0-23.153 5.909-30 15.026-6.847-9.117-17.746-15.026-30-15.026h-105.667c-20.678 0-37.5 16.822-37.5 37.5v122.011c0 12.407 10.093 22.5 22.5 22.5 2.629 0 5.153-.458 7.5-1.29v124.863c0 14.566 11.851 26.417 26.417 26.417s26.417-11.851 26.417-26.417v-138.573h15v138.573c0 14.566 11.851 26.417 26.417 26.417s26.417-11.851 26.417-26.417v-124.786c2.337.784 4.858 1.213 7.5 1.213 5.892 0 11.186-2.108 15.158-5.611 3.965 3.488 9.159 5.611 14.842 5.611 2.629 0 5.153-.458 7.5-1.29v124.863c0 14.566 11.851 26.417 26.416 26.417 14.566 0 26.417-11.851 26.417-26.417v-138.573h15v138.573c0 14.566 11.851 26.417 26.416 26.417 14.566 0 26.417-11.851 26.417-26.417v-124.786c2.337.784 4.858 1.213 7.501 1.213 12.617 0 22.5-9.664 22.5-22v-122.511c-.001-20.678-16.824-37.5-37.501-37.5zm-150.667 167.011c-4.276 0-7.5-3.009-7.5-7 0-.01 0-122.511 0-122.511 0-4.142-3.358-7.5-7.5-7.5s-7.5 3.358-7.5 7.5v268.083c0 6.295-5.122 11.417-11.417 11.417s-11.417-5.122-11.417-11.417v-146.072c0-4.142-3.358-7.5-7.5-7.5h-30c-4.142 0-7.5 3.358-7.5 7.5v146.073c0 6.295-5.122 11.417-11.417 11.417s-11.417-5.122-11.417-11.417v-223.084c0-4.142-3.358-7.5-7.5-7.5s-7.5 3.358-7.5 7.5v77.011c0 4.136-3.365 7.5-7.5 7.5-4.136 0-7.5-3.364-7.5-7.5v-122.011c0-12.407 10.093-22.5 22.5-22.5h105.668c12.407 0 22.5 10.093 22.5 22.5v122.011c0 .112.007.221.008.333-.001.056-.008.111-.008.167 0 3.99-3.224 7-7.5 7zm173.167-7c0 3.991-3.225 7-7.5 7s-7.5-3.009-7.5-7c-.001-.019-.001-122.511-.001-122.511 0-4.142-3.357-7.5-7.5-7.5s-7.5 3.358-7.5 7.5v268.083c0 6.295-5.122 11.417-11.417 11.417s-11.416-5.122-11.416-11.417v-146.072c0-4.142-3.357-7.5-7.5-7.5h-30c-4.143 0-7.5 3.358-7.5 7.5v146.073c0 6.295-5.122 11.417-11.417 11.417s-11.416-5.122-11.416-11.417v-268.084c0-4.142-3.357-7.5-7.5-7.5s-7.5 3.358-7.5 7.5v122.011c0 4.136-3.364 7.5-7.5 7.5s-7.5-3.364-7.5-7.5v-122.011c0-12.407 10.094-22.5 22.5-22.5h105.667c12.406 0 22.5 10.093 22.5 22.5z"/><path d="m306.151 130.606v26.894c0 4.142 3.357 7.5 7.5 7.5h49.706c4.143 0 7.5-3.358 7.5-7.5v-26.894l15.376-15.377c12.75-12.749 19.771-29.7 19.771-47.729 0-37.22-30.28-67.5-67.5-67.5s-67.5 30.28-67.5 67.5c0 18.031 7.021 34.981 19.77 47.729zm15 19.394v-15h34.706v15zm17.354-135c28.948 0 52.5 23.551 52.5 52.5 0 14.023-5.461 27.207-15.378 37.123l-15.377 15.377h-43.492l-15.377-15.377c-9.915-9.916-15.376-23.099-15.376-37.123 0-28.949 23.551-52.5 52.5-52.5z"/></g></svg>