<svg id="Capa_1" enable-background="new 0 0 512 512" height="512" viewBox="0 0 512 512" width="512" xmlns="http://www.w3.org/2000/svg"><g><path d="m143.167 180h-105.667c-20.678 0-37.5 16.822-37.5 37.5v122.011c0 12.407 10.094 22.5 22.5 22.5 2.629 0 5.153-.458 7.5-1.29v124.863c0 14.565 11.851 26.416 26.416 26.416 14.566 0 26.417-11.851 26.417-26.417v-138.572h15v138.573c0 14.566 11.851 26.417 26.416 26.417 14.566 0 26.417-11.851 26.417-26.417v-124.786c2.337.784 4.858 1.213 7.501 1.213 12.617 0 22.5-9.664 22.5-22v-122.511c0-20.678-16.822-37.5-37.5-37.5zm22.5 160.011c0 3.991-3.225 7-7.5 7s-7.5-3.009-7.5-7c-.001-.019-.001-122.511-.001-122.511 0-4.142-3.357-7.5-7.5-7.5s-7.5 3.358-7.5 7.5v268.083c0 6.295-5.122 11.417-11.417 11.417s-11.416-5.122-11.416-11.417v-146.072c0-4.142-3.357-7.5-7.5-7.5h-30c-4.143 0-7.5 3.358-7.5 7.5v146.073c0 6.295-5.122 11.417-11.417 11.417s-11.416-5.123-11.416-11.418v-268.083c0-4.142-3.357-7.5-7.5-7.5s-7.5 3.358-7.5 7.5v122.011c0 4.136-3.364 7.5-7.5 7.5s-7.5-3.364-7.5-7.5v-122.011c0-12.407 10.094-22.5 22.5-22.5h105.667c12.406 0 22.5 10.093 22.5 22.5z"/><path d="m90.004 165c28.948 0 52.5-23.551 52.5-52.5s-23.552-52.5-52.5-52.5-52.5 23.551-52.5 52.5 23.552 52.5 52.5 52.5zm0-90c20.678 0 37.5 16.822 37.5 37.5s-16.822 37.5-37.5 37.5-37.5-16.822-37.5-37.5 16.822-37.5 37.5-37.5z"/><path d="m504.5 75h-60c-4.143 0-7.5 3.358-7.5 7.5s3.357 7.5 7.5 7.5h52.5v150h-76.29c.833-2.347 1.29-4.871 1.29-7.5v-180c0-20.678-16.822-37.5-37.5-37.5h-145.123c-3.096-8.729-11.433-15-21.21-15-12.406 0-22.5 10.093-22.5 22.5v482c0 4.142 3.357 7.5 7.5 7.5h30c4.143 0 7.5-3.358 7.5-7.5v-279.5h106.333v7.5c0 12.407 10.094 22.5 22.5 22.5h135c4.143 0 7.5-3.358 7.5-7.5v-165c0-4.142-3.357-7.5-7.5-7.5zm-278.833 422h-15v-474.5c0-4.136 3.364-7.5 7.5-7.5s7.5 3.364 7.5 7.5zm15-467h143.833c12.406 0 22.5 10.093 22.5 22.5v158.79c-2.347-.833-4.871-1.29-7.5-1.29h-158.833zm121.333 202.5v-7.5h37.5c4.136 0 7.5 3.364 7.5 7.5s-3.364 7.5-7.5 7.5h-30c-4.136 0-7.5-3.364-7.5-7.5z"/></g></svg>