<svg id="Capa_1" enable-background="new 0 0 512 512" height="512" viewBox="0 0 512 512" width="512" xmlns="http://www.w3.org/2000/svg"><g><path d="m105.681 120c24.813 0 45-20.187 45-45s-20.187-45-45-45-45 20.187-45 45 20.187 45 45 45zm0-75c16.542 0 30 13.458 30 30s-13.458 30-30 30-30-13.458-30-30 13.458-30 30-30z"/><path d="m451 165h-90c-8.436 0-16.228 2.801-22.5 7.52v-30.02c0-20.678-16.822-37.5-37.5-37.5h-90c-20.678 0-37.5 16.822-37.5 37.5-6.272-4.699-14.064-7.5-22.5-7.5h-90c-20.678 0-37.5 16.822-37.5 37.5v92.5c0 12.336 9.883 22 22.5 22 2.65 0 5.177-.431 7.52-1.219v96.209c0 12.412 10.093 22.51 22.5 22.51s22.5-10.098 22.5-22.51v-109.49h15v109.49c0 12.412 10.093 22.51 22.5 22.51s22.5-10.098 22.5-22.51v-96.197c2.332.78 4.845 1.206 7.48 1.206 12.617 0 22.5-9.664 22.5-22v-9.213c2.337.784 4.857 1.213 7.5 1.213 2.65 0 5.177-.431 7.52-1.219v96.209c0 12.412 10.093 22.51 22.5 22.51s22.5-10.098 22.5-22.51v-109.489h15v109.49c0 12.412 10.093 22.51 22.5 22.51s22.5-10.098 22.5-22.51v-96.197c2.332.78 4.845 1.206 7.48 1.206 2.643 0 5.163-.429 7.5-1.213v39.214c0 12.336 9.883 22 22.5 22 2.65 0 5.177-.431 7.52-1.219v96.209c0 12.412 10.093 22.51 22.5 22.51s22.5-10.098 22.5-22.51v-109.49h15v109.49c0 12.412 10.093 22.51 22.5 22.51s22.5-10.098 22.5-22.51v-96.197c2.332.78 4.845 1.206 7.48 1.206 12.617 0 22.5-9.664 22.5-22v-92.5c0-20.677-16.822-37.499-37.5-37.499zm-277.5 100c0 3.991-3.224 7-7.5 7-4.136 0-7.278-2.818-7.48-6.614v-92.886c0-4.142-3.358-7.5-7.5-7.5s-7.5 3.358-7.5 7.5v92.113c-.007.129-.02.256-.02.387 0 .262.011.521.02.78v116.21c0 4.141-3.364 7.51-7.5 7.51s-7.5-3.369-7.5-7.51v-116.99c0-4.142-3.358-7.5-7.5-7.5h-30c-4.142 0-7.5 3.358-7.5 7.5v116.99c0 4.141-3.364 7.51-7.5 7.51s-7.5-3.369-7.5-7.51v-209.49c0-4.142-3.358-7.5-7.5-7.5s-7.5 3.358-7.5 7.5v92.5c-.02 3.991-3.244 7-7.52 7s-7.5-3.009-7.5-7v-92.5c0-12.407 10.093-22.5 22.5-22.5h90c12.407 0 22.5 10.093 22.5 22.5zm142.5-23c-4.136 0-7.278-2.818-7.48-6.614v-92.886c0-4.142-3.358-7.5-7.5-7.5s-7.5 3.358-7.5 7.5v92.113c-.007.129-.02.256-.02.387 0 .262.011.521.02.78v116.21c0 4.141-3.364 7.51-7.5 7.51s-7.5-3.369-7.5-7.51v-116.99c0-4.142-3.358-7.5-7.5-7.5h-30c-4.142 0-7.5 3.358-7.5 7.5v116.99c0 4.141-3.364 7.51-7.5 7.51s-7.5-3.369-7.5-7.51v-209.49c0-4.142-3.358-7.5-7.5-7.5s-7.5 3.358-7.5 7.5v92.113c-.007.129-.02.256-.02.387 0 3.991-3.224 7-7.5 7s-7.5-3.009-7.5-7v-92.5c0-12.407 10.093-22.5 22.5-22.5h90c12.407 0 22.5 10.093 22.5 22.5v92.5c0 3.991-3.224 7-7.5 7zm157.5 53c0 3.991-3.224 7-7.5 7-4.136 0-7.278-2.818-7.48-6.614v-92.886c0-4.142-3.358-7.5-7.5-7.5s-7.5 3.358-7.5 7.5v92.5c-.02.262-.009.521 0 .78v116.21c0 4.141-3.364 7.51-7.5 7.51s-7.5-3.369-7.5-7.51v-116.99c0-4.142-3.358-7.5-7.5-7.5h-30c-4.142 0-7.5 3.358-7.5 7.5v116.99c0 4.141-3.364 7.51-7.5 7.51s-7.5-3.369-7.5-7.51v-209.49c0-4.142-3.358-7.5-7.5-7.5s-7.5 3.358-7.5 7.5v92.113c-.007.129-.02.256-.02.387 0 3.991-3.224 7-7.5 7s-7.5-3.009-7.5-7v-92.5c0-12.407 10.093-22.5 22.5-22.5h90c12.407 0 22.5 10.093 22.5 22.5z"/><path d="m405.681 150c24.813 0 45-20.187 45-45s-20.187-45-45-45-45 20.187-45 45 20.187 45 45 45zm0-75c16.542 0 30 13.458 30 30s-13.458 30-30 30-30-13.458-30-30 13.458-30 30-30z"/><path d="m225.504 90h60.355c13.395 0 24.9-7.688 30.026-20.063s2.426-25.946-7.045-35.418l-21.336-21.335c-8.5-8.502-19.801-13.184-31.823-13.184-12.021 0-23.322 4.682-31.821 13.182l-21.337 21.337c-9.472 9.472-12.171 23.043-7.045 35.418 5.126 12.376 16.631 20.063 30.026 20.063zm-12.375-44.875 21.338-21.338c5.666-5.667 13.2-8.788 21.214-8.788s15.549 3.122 21.216 8.79l21.336 21.336c6.096 6.096 5.957 13.849 3.793 19.071-2.162 5.223-7.546 10.804-16.167 10.804h-60.355c-8.622 0-14.005-5.581-16.168-10.803s-2.303-12.975 3.793-19.072z"/><path d="m481 449.5h-142.5v-52.5c0-4.142-3.358-7.5-7.5-7.5h-150c-4.142 0-7.5 3.358-7.5 7.5v22.5h-142.5c-4.142 0-7.5 3.358-7.5 7.5v77.5c0 4.142 3.358 7.5 7.5 7.5h450c4.142 0 7.5-3.358 7.5-7.5v-47.5c0-4.142-3.358-7.5-7.5-7.5zm-442.5-15h135v16.25c0 4.142 3.358 7.5 7.5 7.5s7.5-3.358 7.5-7.5v-46.25h135v92.5h-135v-16.25c0-4.142-3.358-7.5-7.5-7.5s-7.5 3.358-7.5 7.5v16.25h-135zm435 62.5h-135v-32.5h135z"/></g></svg>