<svg id="Capa_1" enable-background="new 0 0 512 512" height="512" viewBox="0 0 512 512" width="512" xmlns="http://www.w3.org/2000/svg"><g><path d="m382.981 135.714h76.712c15.089 0 28.05-8.66 33.824-22.6 5.773-13.94 2.732-29.228-7.937-39.897l-27.118-27.119c-9.917-9.917-23.102-15.378-37.125-15.378s-27.207 5.461-37.124 15.377l-27.12 27.12c-10.669 10.669-13.71 25.957-7.936 39.897 5.776 13.94 18.736 22.6 33.824 22.6zm-15.28-51.891 27.119-27.12c7.084-7.083 16.501-10.984 26.518-10.984s19.435 3.901 26.518 10.985l27.118 27.119c7.528 7.528 7.356 17.101 4.686 23.55-2.672 6.449-9.319 13.34-19.966 13.34h-76.712c-10.646 0-17.293-6.891-19.965-13.34-2.671-6.448-2.844-16.022 4.684-23.55z"/><path d="m37.5 180.72c-4.142 0-7.5 3.358-7.5 7.5v15c0 4.142 3.358 7.5 7.5 7.5s7.5-3.358 7.5-7.5v-15c0-4.142-3.358-7.5-7.5-7.5z"/><path d="m90.004 135.72c28.949 0 52.5-23.551 52.5-52.5s-23.551-52.5-52.5-52.5-52.5 23.551-52.5 52.5 23.552 52.5 52.5 52.5zm0-90c20.678 0 37.5 16.822 37.5 37.5s-16.822 37.5-37.5 37.5-37.5-16.822-37.5-37.5 16.823-37.5 37.5-37.5z"/><path d="m250.692 133.518c1.407 1.41 3.316 2.202 5.308 2.202 1.991 0 3.901-.792 5.309-2.202l41.451-41.529c6.926-6.938 10.74-16.162 10.74-25.972 0-20.257-16.456-36.737-36.683-36.737-7.554 0-14.745 2.266-20.817 6.479-6.072-4.213-13.263-6.479-20.817-6.479-20.227 0-36.683 16.48-36.683 36.737 0 9.81 3.814 19.034 10.739 25.972zm-15.509-89.238c5.858 0 11.349 2.31 15.461 6.505 1.411 1.438 3.341 2.249 5.355 2.249s3.944-.811 5.355-2.249c4.112-4.195 9.604-6.505 15.462-6.505 11.956 0 21.683 9.751 21.683 21.737 0 5.809-2.257 11.269-6.356 15.375l-36.143 36.212-36.145-36.211c-4.098-4.106-6.355-9.566-6.355-15.375 0-11.987 9.727-21.738 21.683-21.738z"/><path d="m474.5 150.72h-105.667c-12.254 0-23.153 5.909-30 15.026-6.847-9.117-17.746-15.026-30-15.026h-105.666c-12.254 0-23.153 5.909-30 15.026-6.847-9.117-17.746-15.026-30-15.026h-105.667c-20.678 0-37.5 16.822-37.5 37.5v122.01c0 12.407 10.093 22.5 22.5 22.5 2.629 0 5.153-.458 7.5-1.29v124.863c0 14.566 11.851 26.417 26.417 26.417s26.417-11.851 26.417-26.417v-138.573h15v138.573c0 14.566 11.851 26.417 26.417 26.417s26.417-11.851 26.417-26.417v-124.785c2.337.784 4.858 1.213 7.5 1.213 5.892 0 11.186-2.108 15.158-5.611 3.965 3.488 9.159 5.611 14.842 5.611 2.629 0 5.153-.458 7.5-1.29v124.863c0 14.566 11.851 26.417 26.417 26.417s26.417-11.851 26.417-26.417v-138.574h15v138.573c0 14.566 11.851 26.417 26.416 26.417 14.566 0 26.417-11.851 26.417-26.417v-124.785c2.337.784 4.857 1.213 7.5 1.213 5.892 0 11.186-2.108 15.158-5.611 3.965 3.488 9.159 5.611 14.842 5.611 2.629 0 5.153-.458 7.5-1.29v124.863c0 14.566 11.851 26.417 26.417 26.417 14.565 0 26.416-11.851 26.416-26.417v-138.574h15v138.573c0 14.566 11.851 26.417 26.417 26.417 14.565 0 26.416-11.851 26.416-26.417v-124.785c2.337.784 4.858 1.213 7.501 1.213 12.617 0 22.5-9.664 22.5-22v-122.511c-.002-20.678-16.824-37.5-37.502-37.5zm-316.333 167.01c-4.276 0-7.5-3.009-7.5-7 0-.01 0-122.511 0-122.511 0-4.142-3.358-7.5-7.5-7.5s-7.5 3.358-7.5 7.5v268.083c0 6.295-5.122 11.417-11.417 11.417s-11.417-5.122-11.417-11.417v-146.072c0-4.142-3.358-7.5-7.5-7.5h-30c-4.142 0-7.5 3.358-7.5 7.5v146.073c0 6.295-5.122 11.417-11.417 11.417s-11.416-5.122-11.416-11.417v-223.083c0-4.142-3.358-7.5-7.5-7.5s-7.5 3.358-7.5 7.5v77.011c0 4.136-3.364 7.5-7.5 7.5s-7.5-3.364-7.5-7.5v-122.011c0-12.407 10.093-22.5 22.5-22.5h105.667c12.407 0 22.5 10.093 22.5 22.5v122.01c0 .112.007.221.008.333-.001.056-.008.111-.008.167 0 3.991-3.225 7-7.5 7zm165.666 0c-4.275 0-7.5-3.009-7.5-7v-122.51c0-4.142-3.357-7.5-7.5-7.5s-7.5 3.358-7.5 7.5v268.083c0 6.295-5.122 11.417-11.417 11.417s-11.416-5.122-11.416-11.417v-146.073c0-4.142-3.357-7.5-7.5-7.5h-30c-4.142 0-7.5 3.358-7.5 7.5v146.073c0 6.295-5.122 11.417-11.417 11.417s-11.417-5.122-11.417-11.417v-268.083c0-4.142-3.358-7.5-7.5-7.5s-7.5 3.358-7.5 7.5v122.01c0 4.136-3.365 7.5-7.5 7.5-4.136 0-7.5-3.364-7.5-7.5v-122.01c0-12.407 10.093-22.5 22.5-22.5h105.667c12.406 0 22.5 10.093 22.5 22.5v122.01c0 .112.007.221.008.333-.001.056-.008.111-.008.167 0 3.991-3.225 7-7.5 7zm173.167-7c0 3.991-3.225 7-7.5 7s-7.5-3.009-7.5-7c-.001-.019-.001-122.511-.001-122.511 0-4.142-3.357-7.5-7.5-7.5s-7.5 3.358-7.5 7.5v268.083c0 6.295-5.121 11.417-11.416 11.417s-11.417-5.122-11.417-11.417v-146.072c0-4.142-3.357-7.5-7.5-7.5h-30c-4.143 0-7.5 3.358-7.5 7.5v146.073c0 6.295-5.121 11.417-11.416 11.417s-11.417-5.122-11.417-11.417v-268.083c0-4.142-3.357-7.5-7.5-7.5s-7.5 3.358-7.5 7.5v122.01c0 4.136-3.364 7.5-7.5 7.5s-7.5-3.364-7.5-7.5v-122.01c0-12.407 10.094-22.5 22.5-22.5h105.667c12.406 0 22.5 10.093 22.5 22.5z"/></g></svg>