<svg id="Capa_1" enable-background="new 0 0 512 512" height="512" viewBox="0 0 512 512" width="512" xmlns="http://www.w3.org/2000/svg"><g><path d="m413.507 438.319h-7.5v-254.5c0-20.678-16.822-37.5-37.5-37.5-9.525 0-18.226 3.575-24.847 9.447-5.313-14.261-19.064-24.447-35.153-24.447-9.525 0-18.226 3.575-24.847 9.447-5.313-14.261-19.064-24.447-35.153-24.447-8.435 0-16.229 2.8-22.5 7.518v-86.337c0-20.678-16.822-37.5-37.5-37.5s-37.5 16.822-37.5 37.5v101.35c-6.274-4.725-14.072-7.531-22.514-7.531-20.678 0-37.5 16.822-37.5 37.5l.014 159.802c0 20.295 4.929 40.551 14.252 58.577l15.748 30.445v20.675h-7.5c-4.143 0-7.5 3.358-7.5 7.5v58.682c0 4.142 3.357 7.5 7.5 7.5h300c4.143 0 7.5-3.358 7.5-7.5v-58.681c0-4.142-3.358-7.5-7.5-7.5zm-45-277c12.406 0 22.5 10.093 22.5 22.5v45c0 12.407-10.094 22.5-22.5 22.5s-22.5-10.093-22.5-22.5v-45c0-12.407 10.094-22.5 22.5-22.5zm-60-15c12.406 0 22.5 10.093 22.5 22.5v60c0 12.407-10.094 22.5-22.5 22.5s-22.5-10.093-22.5-22.5v-60c0-12.407 10.094-22.5 22.5-22.5zm-82.5 7.5c0-12.407 10.094-22.5 22.5-22.5s22.5 10.093 22.5 22.5v75c0 12.407-10.094 22.5-22.5 22.5s-22.5-10.093-22.5-22.5zm-107.425 226.488c-8.227-15.905-12.575-33.777-12.575-51.686l-.014-159.802c0-12.407 10.094-22.5 22.5-22.5s22.5 10.093 22.5 22.5c0 .091.01.18.014.271v96.729c0 4.142 3.357 7.5 7.5 7.5 62.033 0 112.5 50.467 112.5 112.5 0 4.142 3.357 7.5 7.5 7.5s7.5-3.358 7.5-7.5c0-67.785-53.175-123.385-120-127.282v-221.037c0-12.407 10.094-22.5 22.5-22.5s22.5 10.093 22.5 22.5v191.319c0 20.678 16.822 37.5 37.5 37.5 12.254 0 23.153-5.909 30-15.026 6.847 9.117 17.746 15.026 30 15.026s23.153-5.909 30-15.026c6.847 9.117 17.746 15.026 30 15.026 8.436 0 16.228-2.801 22.5-7.52v149.52h-257.935zm287.425 116.693h-285v-43.681h7.5c4.143 0 7.5-3.358 7.5-7.5v-22.5h255v15h-232.5c-4.143 0-7.5 3.358-7.5 7.5s3.357 7.5 7.5 7.5h247.5z"/></g></svg>