<svg id="Capa_1" enable-background="new 0 0 512 512" height="512" viewBox="0 0 512 512" width="512" xmlns="http://www.w3.org/2000/svg"><g><path d="m331.5 256c0-41.355-33.645-75-75-75s-75 33.645-75 75 33.645 75 75 75 75-33.645 75-75zm-135 0c0-33.084 26.916-60 60-60s60 26.916 60 60-26.916 60-60 60-60-26.916-60-60z"/><path d="m301.5 256c0-24.813-20.187-45-45-45s-45 20.187-45 45 20.187 45 45 45 45-20.187 45-45zm-75 0c0-16.542 13.458-30 30-30s30 13.458 30 30-13.458 30-30 30-30-13.458-30-30z"/><path d="m413.785 248.5c2.111 0 4.125-.89 5.547-2.452 1.421-1.562 2.118-3.65 1.92-5.752-7.469-79.185-70.362-142.079-149.548-149.548-2.112-.203-4.19.499-5.752 1.92s-2.452 3.435-2.452 5.547v52.785h-15v-52.786c0-2.112-.891-4.125-2.452-5.547-1.561-1.421-3.645-2.123-5.752-1.92-33.173 3.129-64.33 16.081-90.103 37.454-3.188 2.644-3.63 7.372-.986 10.561 2.645 3.188 7.372 3.63 10.562.985 21.306-17.668 46.648-29.009 73.731-33.066v44.319h-7.5c-4.143 0-7.5 3.358-7.5 7.5s3.357 7.5 7.5 7.5h60c4.143 0 7.5-3.358 7.5-7.5s-3.357-7.5-7.5-7.5h-7.5v-44.319c65.416 9.789 117.03 61.403 126.818 126.819h-43.818v-7.5c0-4.142-3.357-7.5-7.5-7.5s-7.5 3.358-7.5 7.5v60c0 4.142 3.357 7.5 7.5 7.5s7.5-3.358 7.5-7.5v-7.5h43.818c-9.788 65.416-61.402 117.03-126.818 126.819v-44.319h7.5c4.143 0 7.5-3.358 7.5-7.5s-3.357-7.5-7.5-7.5h-60c-4.143 0-7.5 3.358-7.5 7.5s3.357 7.5 7.5 7.5h7.5v44.319c-65.416-9.788-117.03-61.403-126.818-126.819h44.818v7.5c0 4.142 3.357 7.5 7.5 7.5s7.5-3.358 7.5-7.5v-60c0-4.142-3.357-7.5-7.5-7.5s-7.5 3.358-7.5 7.5v7.5h-44.817c4.042-26.987 15.321-52.255 32.887-73.516 2.638-3.193 2.188-7.92-1.005-10.559s-7.921-2.189-10.56 1.005c-21.256 25.728-34.139 56.802-37.257 89.865-.198 2.102.499 4.19 1.92 5.752 1.422 1.562 3.436 2.452 5.547 2.452h53.285v15h-53.285c-2.111 0-4.125.89-5.547 2.452-1.421 1.562-2.118 3.65-1.92 5.752 7.469 79.186 70.362 142.08 149.548 149.548 2.104.201 4.19-.499 5.752-1.92s2.452-3.435 2.452-5.547v-52.784h15v52.786c0 2.112.891 4.125 2.452 5.547 1.387 1.262 3.188 1.953 5.048 1.953.233 0 .469-.011.704-.033 79.186-7.469 142.079-70.363 149.548-149.548.198-2.102-.499-4.19-1.92-5.752-1.422-1.562-3.436-2.452-5.547-2.452h-52.285v-15h52.285z"/><path d="m504.5 233.5h-53.785c-5.023-43.761-24.795-84.759-56.126-116.089-31.33-31.331-72.328-51.102-116.089-56.125v-53.786c0-4.142-3.357-7.5-7.5-7.5h-30c-4.143 0-7.5 3.358-7.5 7.5v53.786c-43.761 5.023-84.759 24.794-116.089 56.125-31.331 31.33-51.102 72.328-56.126 116.089h-53.785c-4.143 0-7.5 3.358-7.5 7.5v30c0 4.142 3.357 7.5 7.5 7.5h53.785c5.023 43.761 24.795 84.759 56.126 116.089 31.33 31.331 72.328 51.102 116.089 56.125v53.786c0 4.142 3.357 7.5 7.5 7.5h30c4.143 0 7.5-3.358 7.5-7.5v-53.786c43.761-5.023 84.759-24.794 116.089-56.125 31.331-31.331 51.103-72.328 56.126-116.089h53.785c4.143 0 7.5-3.358 7.5-7.5v-30c0-4.142-3.357-7.5-7.5-7.5zm-7.5 30h-53.094c-3.914 0-7.17 3.01-7.477 6.911-7.021 89.176-76.842 158.997-166.019 166.018-3.901.308-6.911 3.563-6.911 7.477v53.094h-15v-53.094c0-3.914-3.01-7.169-6.911-7.477-89.177-7.021-158.997-76.842-166.019-166.018-.307-3.901-3.563-6.911-7.477-6.911h-53.092v-15h53.094c3.914 0 7.17-3.01 7.477-6.911 7.021-89.176 76.842-158.997 166.019-166.018 3.901-.308 6.911-3.563 6.911-7.477v-53.094h15v53.094c0 3.914 3.01 7.169 6.911 7.477 89.177 7.021 158.997 76.842 166.019 166.018.307 3.901 3.563 6.911 7.477 6.911h53.092z"/></g></svg>