<svg id="Capa_1" enable-background="new 0 0 512 512" height="512" viewBox="0 0 512 512" width="512" xmlns="http://www.w3.org/2000/svg"><g><path d="m504.424 353.652-30.924-122.088v-104.064c0-12.406-10.094-22.5-22.5-22.5h-22.5v-97.5c0-4.143-3.357-7.5-7.5-7.5h-105c-4.143 0-7.5 3.357-7.5 7.5v97.5h-15v-37.5c0-4.143-3.357-7.5-7.5-7.5h-60c-4.142 0-7.5 3.357-7.5 7.5v37.5h-15v-97.5c0-4.143-3.358-7.5-7.5-7.5h-105c-4.142 0-7.5 3.357-7.5 7.5v97.5h-22.5c-12.407 0-22.5 10.094-22.5 22.5v104.064l-30.923 122.088c-5.028 19.848-7.577 40.294-7.577 60.77v90.078c0 4.143 3.358 7.5 7.5 7.5h227c4.142 0 7.5-3.357 7.5-7.5v-90.078c0-20.476-2.549-40.922-7.577-60.77l-28.786-113.652h100.727l-28.787 113.652c-5.027 19.849-7.576 40.294-7.576 60.77v90.078c0 4.143 3.357 7.5 7.5 7.5h227c4.143 0 7.5-3.357 7.5-7.5v-90.078c-.001-20.476-2.55-40.921-7.577-60.77zm-53.424-233.652c4.136 0 7.5 3.364 7.5 7.5v97.5h-135v-105zm-127.5-45h90v30h-90zm90-60v45h-90v-45zm-180 60h45v30h-45zm75 45v105h-105v-105zm-120-105v45h-90v-45zm-127.5 105h30c4.142 0 7.5-3.357 7.5-7.5v-37.5h90v30h-67.5c-4.142 0-7.5 3.357-7.5 7.5s3.358 7.5 7.5 7.5h67.5v105h-135v-97.5c0-4.136 3.364-7.5 7.5-7.5zm-46 377v-45h212v45zm204.882-139.664c4.723 18.645 7.118 37.851 7.118 57.086v22.578h-212v-22.578c0-19.235 2.395-38.441 7.118-57.086l29.719-117.336h138.325zm72.235 0 29.72-117.336h138.325l29.72 117.336c4.723 18.646 7.117 37.852 7.117 57.086v22.578h-211.999v-22.578c0-19.234 2.395-38.441 7.117-57.086zm-7.117 139.664v-45h212v45z"/><path d="m226 210h60c4.143 0 7.5-3.357 7.5-7.5v-59.999c0-4.143-3.357-7.5-7.5-7.5h-60c-4.142 0-7.5 3.357-7.5 7.5v59.999c0 4.143 3.358 7.5 7.5 7.5zm52.5-15h-15v-44.999h15zm-45-44.999h15v44.999h-15z"/></g></svg>