<svg id="Capa_1" enable-background="new 0 0 512.171 512.171" height="512" viewBox="0 0 512.171 512.171" width="512" xmlns="http://www.w3.org/2000/svg"><g><path d="m398.689 58.429c-38.249-37.679-88.894-58.429-142.604-58.429s-104.354 20.75-142.603 58.429c-38.419 37.846-59.69 88.79-59.896 143.446-.208 55.429 21.11 107.386 60.026 146.303l29.973 29.972v36.527c0 9.777 6.271 18.114 15 21.21v28.843c0 7.592 1.691 15.244 4.892 22.129l9.749 20.974c1.229 2.646 3.883 4.339 6.801 4.339h152.118c2.918 0 5.571-1.692 6.802-4.339l9.748-20.974c3.199-6.885 4.891-14.537 4.891-22.129v-28.843c8.729-3.096 15-11.433 15-21.21v-36.527l29.973-29.972c38.916-38.917 60.234-90.874 60.026-146.303-.206-54.656-21.477-105.601-59.896-143.446zm-60.104 378.748v15h-165v-15zm-105.012-119.743c.003-.084.013-.167.013-.252 0-12.406 10.094-22.5 22.5-22.5s22.5 10.094 22.5 22.5c0 .085.01.167.013.252v22.248h-45.025v-22.248zm45.025-30.221c-6.274-4.725-14.071-7.53-22.513-7.53s-16.239 2.806-22.513 7.53v-47.214h45.025v47.214zm-45.025 67.47h45.025v67.494h-45.025zm101.518 125.853-7.73 16.635h-142.55l-7.731-16.635c-1.942-4.178-3.097-8.752-3.404-13.359h164.819c-.306 4.607-1.461 9.181-3.404 13.359zm52.86-142.966-32.169 32.169c-1.406 1.407-2.196 3.314-2.196 5.304v39.634c0 4.136-3.364 7.5-7.5 7.5h-52.487v-182.178h22.5c20.678 0 37.5-16.822 37.5-37.5s-16.822-37.5-37.5-37.5-37.5 16.822-37.5 37.5v22.5h-45.025v-22.5c0-20.678-16.822-37.5-37.5-37.5s-37.5 16.822-37.5 37.5 16.822 37.5 37.5 37.5c4.143 0 7.5-3.357 7.5-7.5s-3.357-7.5-7.5-7.5c-12.406 0-22.5-10.094-22.5-22.5s10.094-22.5 22.5-22.5 22.5 10.094 22.5 22.5v219.678h-52.487c-4.136 0-7.5-3.364-7.5-7.5v-39.634c0-1.989-.79-3.896-2.196-5.304l-32.171-32.169c-36.069-36.067-55.826-84.238-55.634-135.639.19-50.629 19.873-97.798 55.423-132.817 36.413-35.87 84.245-53.806 132.076-53.806s95.663 17.936 132.076 53.806c35.55 35.02 55.232 82.188 55.423 132.817.193 51.401-19.564 99.572-55.633 135.639zm-94.353-112.571v-22.5c0-12.406 10.094-22.5 22.5-22.5s22.5 10.094 22.5 22.5-10.094 22.5-22.5 22.5z"/></g></svg>