<svg id="Capa_1" enable-background="new 0 0 512 512" height="512" viewBox="0 0 512 512" width="512" xmlns="http://www.w3.org/2000/svg"><g><path d="m354.5 218.5c7.001 0 13.834 1.947 19.777 5.643l13.392 8.277c7.039 4.353 15.558 4.544 22.787.515s11.544-11.376 11.544-19.653v-100.782c0-4.143-3.358-7.5-7.5-7.5h-115.783c-3.977 0-5.906-2.691-6.551-3.849-.645-1.156-1.919-4.213.171-7.596l8.269-13.375c5.164-8.306 7.894-17.878 7.894-27.681 0-14.031-5.466-27.221-15.393-37.139-9.916-9.906-23.09-15.36-37.106-15.36-28.347.025-51.872 23.054-52.488 51.335-.223 10.221 2.502 20.195 7.871 28.829l8.279 13.392c2.091 3.383.816 6.439.171 7.596s-2.574 3.849-6.551 3.849h-115.783c-4.142 0-7.5 3.357-7.5 7.5v102.303c0 .243.012.485.035.728.755 7.744 5.397 14.443 12.418 17.922 6.996 3.466 15.144 3.079 21.796-1.031l13.408-8.289c5.927-3.685 12.76-5.632 19.761-5.632 10.023 0 19.445 3.905 26.529 10.995 7.085 7.092 10.981 16.518 10.971 26.542-.02 20.213-16.468 37.015-36.665 37.454-7.303.142-14.424-1.787-20.612-5.634l-13.392-8.277c-6.652-4.113-14.799-4.498-21.796-1.032-7.021 3.479-11.663 10.178-12.418 17.922-.023.242-.035.484-.035.728v102.3c0 4.143 3.358 7.5 7.5 7.5h42.891c4.142 0 7.5-3.357 7.5-7.5s-3.358-7.5-7.5-7.5h-35.391v-94.375c.336-2.427 1.856-4.519 4.112-5.636 1.116-.553 4.056-1.626 7.25.35l13.375 8.268c8.65 5.377 18.616 8.114 28.842 7.881 28.28-.614 51.311-24.137 51.339-52.435.014-14.035-5.441-27.231-15.36-37.159-9.918-9.927-23.108-15.394-37.14-15.394-9.803 0-19.375 2.729-27.665 7.883l-13.392 8.279c-3.193 1.974-6.133.901-7.25.349-2.255-1.117-3.775-3.209-4.112-5.636v-94.375h108.283c8.276 0 15.623-4.315 19.652-11.545 4.03-7.229 3.838-15.747-.514-22.786l-8.289-13.408c-3.837-6.173-5.782-13.296-5.623-20.599.442-20.198 17.244-36.644 37.458-36.662 10.045 0 19.457 3.896 26.54 10.973 7.09 7.084 10.995 16.505 10.995 26.527 0 7.001-1.947 13.834-5.642 19.777l-8.279 13.392c-4.352 7.039-4.544 15.558-.514 22.786 4.03 7.229 11.376 11.545 19.652 11.545h108.282v93.282c0 3.977-2.691 5.906-3.848 6.551-1.158.645-4.213 1.92-7.596-.172l-13.375-8.268c-8.307-5.164-17.878-7.894-27.681-7.894-14.033 0-27.223 5.467-37.141 15.394-9.918 9.928-15.373 23.124-15.359 37.159.028 28.298 23.058 51.82 51.339 52.435 10.216.229 20.192-2.503 28.826-7.87l13.392-8.278c3.382-2.092 6.438-.817 7.596-.172 1.157.645 3.848 2.574 3.848 6.551v93.282h-108.284c-8.276 0-15.623 4.315-19.652 11.545-4.03 7.229-3.838 15.747.514 22.786l8.289 13.408c3.837 6.172 5.781 13.294 5.623 20.596-.439 20.197-17.241 36.646-37.454 36.665-10.048 0-19.46-3.896-26.542-10.971-7.091-7.085-10.996-16.506-10.996-26.529 0-7.001 1.947-13.834 5.642-19.777l8.279-13.392c4.352-7.039 4.544-15.558.514-22.786-4.03-7.229-11.376-11.545-19.652-11.545h-42.892c-4.142 0-7.5 3.357-7.5 7.5s3.358 7.5 7.5 7.5h42.892c3.977 0 5.906 2.691 6.551 3.848s1.919 4.214-.171 7.597l-8.269 13.375c-5.164 8.306-7.894 17.878-7.894 27.681 0 14.032 5.467 27.223 15.394 37.141 9.916 9.906 23.09 15.359 37.105 15.359h.053c28.298-.027 51.821-23.058 52.435-51.339.222-10.22-2.503-20.192-7.871-28.825l-8.279-13.392c-2.091-3.383-.816-6.439-.171-7.597.645-1.156 2.574-3.848 6.551-3.848h115.784c4.142 0 7.5-3.357 7.5-7.5v-100.782c0-8.276-4.315-15.623-11.544-19.652-7.229-4.031-15.747-3.838-22.787.514l-13.408 8.289c-6.172 3.837-13.295 5.775-20.596 5.623-20.197-.439-36.645-17.241-36.665-37.454-.01-10.024 3.886-19.45 10.971-26.542 7.084-7.091 16.506-10.996 26.529-10.996z"/></g></svg>