<svg id="Capa_1" enable-background="new 0 0 512 512" height="512" viewBox="0 0 512 512" width="512" xmlns="http://www.w3.org/2000/svg"><g><path d="m241.777 421.386 6.998 25.127c.903 3.243 3.857 5.487 7.225 5.487s6.321-2.244 7.225-5.487l6.998-25.127c85.54-7.245 151.777-78.863 151.777-165.386s-66.237-158.141-151.777-165.386l-6.998-25.127c-.904-3.243-3.858-5.487-7.225-5.487s-6.321 2.244-7.225 5.487l-6.998 25.127c-85.54 7.245-151.777 78.863-151.777 165.386s66.237 158.141 151.777 165.386zm-121.562-157.886c1.745 31.606 14.443 60.675 34.535 83.142l-10.725 10.725c-22.727-25.114-37.082-57.887-38.843-93.867zm108.326-125.36-32.265 115.847c-.367 1.317-.367 2.708 0 4.025l32.265 115.847c-54.067-12.554-93.541-61.315-93.541-117.859s39.474-105.305 93.541-117.86zm-73.906 229.833 10.711-10.711c18.583 16.691 41.823 28.391 67.705 32.793l4.404 15.811c-31.784-3.878-60.392-17.567-82.82-37.893zm101.365 48.574-42.626-153.047h13.575c3.339 12.925 15.098 22.5 29.051 22.5s25.712-9.575 29.051-22.5h13.575zm-15-160.547c0-8.271 6.729-15 15-15s15 6.729 15 15-6.729 15-15 15-15-6.729-15-15zm136 0c0 56.544-39.474 105.305-93.541 117.86l32.265-115.847c.367-1.317.367-2.708 0-4.025l-32.265-115.848c54.067 12.555 93.541 61.316 93.541 117.86zm-98.051 134.054c25.882-4.403 49.122-16.102 67.705-32.793l10.711 10.711c-22.428 20.326-51.036 34.015-82.82 37.893zm89.025-32.687-10.725-10.725c20.092-22.467 32.79-51.536 34.535-83.142h15.032c-1.759 35.979-16.114 68.753-38.842 93.867zm38.843-108.867h-15.032c-1.745-31.606-14.443-60.675-34.535-83.142l10.725-10.725c22.727 25.114 37.082 57.887 38.842 93.867zm-49.452-104.473-10.711 10.712c-18.583-16.692-41.823-28.391-67.705-32.793l-4.404-15.811c31.784 3.877 60.392 17.566 82.82 37.892zm-101.365-48.574 42.626 153.047h-13.575c-3.339-12.925-15.098-22.5-29.051-22.5s-25.712 9.575-29.051 22.5h-13.575zm-22.949 26.493c-25.882 4.403-49.122 16.102-67.705 32.793l-10.711-10.712c22.428-20.326 51.036-34.015 82.82-37.893zm-89.025 32.687 10.725 10.725c-20.092 22.467-32.79 51.536-34.535 83.142h-15.032c1.759-35.98 16.114-68.753 38.842-93.867z"/><path d="m437.02 74.98c-48.352-48.351-112.64-74.98-181.02-74.98-60.823 0-118.398 21.085-164.411 59.769l-16.616-16.616c1.639-11.582-2.232-23.445-10.599-31.813-14.621-14.621-38.412-14.621-53.033 0s-14.621 38.412 0 53.033c8.367 8.365 20.23 12.237 31.813 10.599l16.616 16.616c-38.685 46.014-59.77 103.589-59.77 164.412 0 68.38 26.629 132.668 74.98 181.02s112.64 74.98 181.02 74.98 132.668-26.629 181.02-74.98 74.98-112.64 74.98-181.02-26.629-132.668-74.98-181.02zm-386.097-13.452c-1.895-1.893-4.651-2.634-7.238-1.942-7.748 2.068-16.079-.161-21.736-5.819-8.773-8.772-8.773-23.046 0-31.818 8.771-8.773 23.047-8.773 31.818 0 5.658 5.657 7.888 13.986 5.819 21.736-.69 2.587.05 5.345 1.942 7.238l18.838 18.838c-1.814 1.713-3.614 3.447-5.386 5.219s-3.506 3.572-5.219 5.386zm205.077 435.472c-132.888 0-241-108.112-241-241s108.112-241 241-241 241 108.112 241 241-108.112 241-241 241z"/><path d="m415.806 96.194c-42.686-42.686-99.44-66.194-159.806-66.194s-117.12 23.508-159.806 66.194-66.194 99.44-66.194 159.806c0 54.612 19.748 107.335 55.605 148.457 2.722 3.123 7.461 3.447 10.581.724 3.122-2.722 3.446-7.46.724-10.581-33.474-38.391-51.91-87.613-51.91-138.6 0-116.346 94.654-211 211-211s211 94.654 211 211-94.654 211-211 211c-50.987 0-100.21-18.436-138.601-51.911-3.12-2.724-7.859-2.4-10.581.724-2.723 3.121-2.398 7.859.724 10.581 41.122 35.858 93.846 55.606 148.458 55.606 60.366 0 117.12-23.508 159.806-66.194s66.194-99.44 66.194-159.806-23.508-117.12-66.194-159.806z"/></g></svg>