<svg id="Capa_1" enable-background="new 0 0 511.988 511.988" height="512" viewBox="0 0 511.988 511.988" width="512" xmlns="http://www.w3.org/2000/svg"><g><path d="m402.606 317.744-61.754-61.754 160.163-160.163c14.621-14.622 14.621-38.412 0-53.034l-31.819-31.819c-14.623-14.622-38.411-14.62-53.034 0l-160.164 160.162-61.754-61.754c3.624-29.684-6.618-59.649-27.807-80.841-29.168-29.167-73.768-36.824-110.976-19.049-2.197 1.05-3.748 3.1-4.16 5.5-.412 2.399.367 4.85 2.089 6.571l54.71 54.709-31.82 31.82-54.71-54.711c-1.721-1.721-4.171-2.502-6.571-2.088-2.399.411-4.45 1.962-5.5 4.159-17.773 37.21-10.117 81.807 19.052 110.975 21.188 21.19 51.149 31.434 80.84 27.808l61.754 61.755-116.833 116.833c-.595.595-1.085 1.285-1.451 2.043l-50.628 104.864c-4.152 8.609-2.406 18.93 4.344 25.68 4.307 4.308 10.067 6.578 15.91 6.578 3.314 0 6.656-.73 9.773-2.234l104.862-50.627c.757-.365 1.448-.855 2.042-1.45l138.048-138.047 54.443 54.443c1.416 1.415 3.327 2.196 5.304 2.196.313 0 .627-.02.942-.06 2.3-.291 4.336-1.63 5.516-3.626 3.519-5.958 7.809-11.484 12.751-16.426 4.94-4.941 10.467-9.231 16.425-12.75 1.996-1.18 3.335-3.216 3.626-5.516.291-2.301-.498-4.606-2.137-6.246l-54.443-54.443 10.606-10.606 64.403 64.404c1.706 1.705 4.126 2.488 6.511 2.099 26.174-4.266 52.974 4.353 71.681 23.061 22.089 22.088 29.598 54.633 20.154 83.794l-51.974-51.976c-1.407-1.406-3.314-2.196-5.304-2.196s-3.896.79-5.304 2.196l-42.427 42.427c-2.929 2.93-2.929 7.678 0 10.607l51.975 51.975c-29.158 9.443-61.706 1.934-83.794-20.156-18.706-18.705-27.326-45.501-23.059-71.68.388-2.382-.393-4.805-2.099-6.511l-48.494-48.494c-2.93-2.928-7.678-2.928-10.607 0-2.929 2.93-2.929 7.678 0 10.607l45.846 45.845c-3.624 29.685 6.617 59.65 27.807 80.839 18.686 18.687 43.7 28.544 69.052 28.543 14.222 0 28.552-3.103 41.924-9.49 2.197-1.049 3.748-3.1 4.159-5.499.412-2.4-.367-4.851-2.088-6.572l-54.711-54.71 31.82-31.82 54.709 54.711c1.722 1.72 4.173 2.505 6.571 2.088 2.4-.411 4.45-1.962 5.5-4.159 17.774-37.209 10.118-81.807-19.05-110.976-21.19-21.191-51.152-31.434-80.84-27.809zm-268.744 124.022-10.607-10.607 276.997-276.996 10.606 10.606zm213.357-340.635 10.605 10.605-276.996 276.997-10.606-10.606zm-144.253 123.038-47.948-47.947c4.038-2.958 7.858-6.233 11.419-9.794s6.836-7.381 9.794-11.419l47.947 47.947zm154.86-133.646 21.213-21.213 63.639 63.639-21.213 21.213zm10.606 31.82 21.213 21.213-276.997 276.997-21.213-21.213zm58.337-100.762c8.771-8.773 23.048-8.773 31.819 0l31.819 31.819c8.773 8.772 8.773 23.047 0 31.819l-37.122 37.122-63.639-63.639zm-309.42 159.398c-1.706-1.705-4.126-2.484-6.51-2.099-26.183 4.263-52.976-4.354-71.682-23.06-22.088-22.087-29.597-54.632-20.154-83.792l51.974 51.975c1.406 1.406 3.314 2.196 5.303 2.196s3.897-.79 5.303-2.196l42.427-42.427c1.407-1.407 2.197-3.314 2.197-5.304s-.79-3.896-2.197-5.304l-51.974-51.973c29.161-9.441 61.706-1.933 83.794 20.153 18.706 18.707 27.326 45.504 23.059 71.683-.388 2.381.393 4.804 2.099 6.51l64.403 64.403-10.606 10.606-54.443-54.443c-1.639-1.639-3.945-2.428-6.245-2.137s-4.336 1.63-5.516 3.626c-3.519 5.958-7.809 11.483-12.751 16.426-4.941 4.941-10.467 9.231-16.425 12.75-1.996 1.18-3.335 3.216-3.626 5.516-.292 2.301.498 4.606 2.137 6.246l54.443 54.443-10.607 10.607zm-55.571 209.918 59.313 59.313-57.231 27.63-29.713-29.713zm-36.037 105.347c-2.871 1.386-6.312.806-8.557-1.44-2.247-2.246-2.826-5.685-1.442-8.554l11.498-23.815 22.313 22.313zm331.238-160.487c-4.038 2.958-7.858 6.233-11.418 9.794-3.562 3.561-6.837 7.38-9.795 11.419l-47.947-47.948 21.212-21.212z"/></g></svg>