<svg id="Capa_1" enable-background="new 0 0 512 512" height="512" viewBox="0 0 512 512" width="512" xmlns="http://www.w3.org/2000/svg"><g><path d="m511.152 282.537-81.652-156.872v-51.955c8.729-3.096 15-11.433 15-21.21 0-12.406-10.094-22.5-22.5-22.5-45.603 0-69.941 19.343-89.5 34.887-16.11 12.802-29.136 23.143-54 24.859v-22.256c9.349-7.032 15-18.158 15-29.99 0-20.678-16.822-37.5-37.5-37.5s-37.5 16.822-37.5 37.5c0 11.832 5.651 22.958 15 29.99v22.255c-24.864-1.715-37.891-12.057-54.002-24.86-19.557-15.542-43.895-34.885-89.498-34.885-12.406 0-22.5 10.094-22.5 22.5 0 9.777 6.271 18.114 15 21.21v51.955l-81.652 156.872c-.557 1.069-.848 2.257-.848 3.463 0 28.948 23.552 52.5 52.5 52.5h75c28.948 0 52.5-23.552 52.5-52.5 0-1.206-.291-2.394-.848-3.463l-81.652-156.872v-50.41c24.864 1.715 37.891 12.057 54.002 24.86 18.455 14.667 41.177 32.709 81.998 34.697v257.188h-7.5c-12.406 0-22.5 10.094-22.5 22.5 0 2.629.458 5.153 1.29 7.5h-37.79c-26.402 0-48.315 19.592-51.966 45h-23.034c-20.678 0-37.5 16.822-37.5 37.5 0 4.143 3.357 7.5 7.5 7.5h388c4.143 0 7.5-3.357 7.5-7.5 0-20.678-16.822-37.5-37.5-37.5h-23.034c-3.65-25.408-25.563-45-51.966-45h-37.79c.833-2.347 1.29-4.871 1.29-7.5 0-12.406-10.094-22.5-22.5-22.5h-7.5v-257.188c40.821-1.988 63.543-20.03 82-34.698 16.11-12.802 29.136-23.143 54-24.859v50.41l-81.652 156.872c-.557 1.069-.848 2.257-.848 3.463 0 28.948 23.552 52.5 52.5 52.5h75c28.948 0 52.5-23.552 52.5-52.5 0-1.206-.291-2.394-.848-3.463zm-383.652 40.963h-75c-18.108 0-33.255-12.906-36.74-30h148.48c-3.485 17.094-18.632 30-36.74 30zm32.641-45h-140.282l70.141-134.756zm.691-190.131c-18.359-14.589-35.701-28.369-70.832-28.369-4.136 0-7.5-3.364-7.5-7.5s3.364-7.5 7.5-7.5c40.368 0 60.6 16.079 80.168 31.631 17.001 13.51 33.141 26.317 63.332 28.14v15.035c-35.451-1.862-54.351-16.88-72.668-31.437zm220.915 378.631h-229.747c-4.143 0-7.5 3.357-7.5 7.5s3.357 7.5 7.5 7.5h268c9.778 0 18.119 6.27 21.215 15h-370.43c3.096-8.73 11.437-15 21.215-15h30c4.143 0 7.5-3.357 7.5-7.5 0-20.678 16.822-37.5 37.5-37.5h178c18.109 0 33.262 12.904 36.747 30zm-88.247-52.5c0 4.136-3.364 7.5-7.5 7.5h-60c-4.136 0-7.5-3.364-7.5-7.5s3.364-7.5 7.5-7.5h60c4.136 0 7.5 3.364 7.5 7.5zm-45-22.5v-328.523c0-2.677-1.427-5.15-3.744-6.491-6.943-4.018-11.256-11.485-11.256-19.486 0-12.406 10.094-22.5 22.5-22.5s22.5 10.094 22.5 22.5c0 8.001-4.313 15.468-11.256 19.485-2.317 1.341-3.744 3.814-3.744 6.491v328.524zm102.666-303.629c-18.315 14.555-37.215 29.573-72.666 31.434v-15.035c30.191-1.822 46.331-14.63 63.334-28.142 19.566-15.549 39.798-31.628 80.166-31.628 4.136 0 7.5 3.364 7.5 7.5s-3.364 7.5-7.5 7.5c-35.131 0-52.473 13.78-70.834 28.371zm70.834 55.373 70.141 134.756h-140.282zm37.5 179.756h-75c-18.108 0-33.255-12.906-36.74-30h148.48c-3.485 17.094-18.632 30-36.74 30z"/></g></svg>