<svg height="512pt" viewBox="-10 0 512 512" width="512pt" xmlns="http://www.w3.org/2000/svg"><path d="M289.074 121.75c-2.625-5.238-7.918-8.492-13.812-8.492-5.89 0-11.184 3.254-13.809 8.496L251.36 141.91l-22.62 3.238c-5.844.84-10.614 4.82-12.454 10.391-1.824 5.531-.277 11.719 3.934 15.762l16.297 15.66-3.84 22.078c-.996 5.727 1.426 11.621 6.176 15.024a15.412 15.412 0 009.023 2.89c2.473 0 4.941-.598 7.137-1.734l20.254-10.496 20.254 10.496a15.562 15.562 0 007.136 1.734c3.258 0 6.38-1 9.024-2.89 4.746-3.403 7.168-9.297 6.175-15.024l-3.843-22.078 16.297-15.66c4.214-4.043 5.757-10.23 3.933-15.766-1.836-5.566-6.61-9.547-12.457-10.387l-22.613-3.238zm30.922 38.484c.04.114-.031.203-.078.246l-19.176 18.422a7.492 7.492 0 00-2.191 6.696l4.523 26.011c.016.09-.031.184-.129.254-.257.184-.402.098-.527.032l-23.703-12.282c-1.082-.558-2.266-.84-3.45-.84s-2.367.282-3.449.84l-23.707 12.282c-.136.074-.308.125-.523-.032-.098-.07-.149-.164-.133-.254l4.527-26.011a7.513 7.513 0 00-2.19-6.696l-19.18-18.425c-.048-.043-.114-.13-.079-.243.035-.097.153-.21.336-.238l26.504-3.797a7.505 7.505 0 005.645-4.062l11.851-23.668c.055-.106.195-.215.399-.215s.347.11.398.21l11.852 23.669a7.5 7.5 0 005.644 4.066l26.5 3.793c.184.031.305.145.336.242zm0 0"/><path d="M465.883 156.938l9.875-7.461c4.105-3.098 6.972-8.856 6.972-13.997V18.121c0-6.89-5.609-12.5-12.5-12.5h-95.472c-6.895 0-12.5 5.61-12.5 12.5V54.47h-16.664a7.5 7.5 0 100 15h16.664v66.011c0 5.141 2.863 10.899 6.969 13.997l9.875 7.46c-15.672 12.567-25.72 31.77-25.72 53.258 0 13.93 4.227 26.89 11.458 37.715a104.38 104.38 0 01-7.828 10.262c-16.547 19.094-39.36 31.832-64.25 35.871a7.502 7.502 0 00-6.297 7.402v48.121h-22.402v-48.12a7.502 7.502 0 00-6.301-7.403c-24.883-4.04-47.7-16.781-64.246-35.871-16.703-19.277-25.907-43.856-25.907-69.211V69.469h139.985c4.144 0 7.5-3.356 7.5-7.5a7.5 7.5 0 00-7.5-7.5H166.656c-7.742 0-14.047 6.273-14.047 13.984v21.953h-51.488c-7.598 0-13.785 6.153-13.785 13.723v62.234c0 28.157 23.105 51.067 51.508 51.067h17.203a121.063 121.063 0 0026.133 50.566c17.441 20.121 40.996 34.047 66.883 39.66v41.91h-.891c-18.059-40.054-58.356-68-105.059-68-53.238 0-98.148 36.325-111.281 85.497l-21.66.046c-4.43.012-7.95 2.137-9.41 5.692-1.461 3.554-.457 7.539 2.687 10.664l13.399 13.316-13.504 13.422C.199 413.328-.805 417.316.66 420.867c1.465 3.551 4.98 5.672 9.41 5.672h.032l21.722-.05C44.957 475.667 89.871 512 143.114 512c28.988 0 55.503-10.77 75.769-28.516h141.914c6.89 0 12.5-5.605 12.5-12.5v-26.09c0-6.89-5.61-12.5-12.5-12.5h-11.02v-60.328c0-12.41-10.093-22.5-22.5-22.5h-25.812v-41.91c25.887-5.613 49.445-19.539 66.883-39.66a120.082 120.082 0 006.511-8.242c12.407 11.719 29.18 18.933 47.633 18.933 38.106 0 69.113-30.722 69.113-68.492 0-21.488-10.046-40.691-25.722-53.257zm-327.04 45.488c-20.132 0-36.507-16.176-36.507-36.063v-60.957h50.273v10.805h-31.703a7.497 7.497 0 00-7.5 7.5v42.652c0 13.926 11.41 25.258 25.434 25.258h13.8c.079 3.621.325 7.227.727 10.809h-14.523zm13.766-71.215v45.41h-13.765c-5.758 0-10.438-4.601-10.438-10.258v-35.152zM23.312 411.508l5.915-5.88c2.37-2.355 3.675-5.495 3.675-8.843s-1.304-6.488-3.675-8.847l-5.895-5.856 23.688-.055c.84.008 2.835.801 3.449 1.371l13.996 13.282-14.098 13.379c-.617.578-2.637 1.386-3.484 1.394zM143.113 497c-44.925 0-83.02-29.746-95.687-70.578 4.597-.16 9.98-2.363 13.27-5.485l3.37-3.203c9.278 34.993 41.192 60.864 79.047 60.864 37.504 0 70.114-25.399 79.309-61.762a7.5 7.5 0 00-14.543-3.676c-7.508 29.695-34.14 50.438-64.766 50.438-33.86 0-61.894-25.344-66.195-58.063.41-.39.781-.812 1.129-1.254h17.25c3.613 23.149 23.68 40.918 47.816 40.918 26.692 0 48.403-21.719 48.403-48.414 0-26.7-21.711-48.418-48.403-48.418-24.136 0-44.199 17.77-47.816 40.914H78.21a12.288 12.288 0 00-1.27-1.437c4.387-32.63 32.38-57.875 66.172-57.875 15.38 0 29.844 5.101 41.825 14.758 11.644 9.382 19.902 22.511 23.25 36.964a7.498 7.498 0 009 5.614 7.494 7.494 0 005.613-8.996c-4.102-17.707-14.207-33.782-28.45-45.262-14.472-11.66-32.663-18.082-51.238-18.082-37.797 0-69.668 25.793-79 60.7l-3.32-3.15c-3.297-3.124-8.7-5.32-13.34-5.46 12.692-40.79 50.77-70.489 95.66-70.489 55.242 0 100.184 44.957 100.184 100.22 0 55.257-44.942 100.214-100.184 100.214zm0-115.234c-5.543 0-10.383 3.03-12.984 7.515h-19.555c3.41-14.824 16.703-25.914 32.54-25.914 18.417 0 33.402 14.988 33.402 33.414S161.53 430.2 143.113 430.2c-15.84 0-29.129-11.094-32.539-25.918h19.555c2.601 4.485 7.441 7.516 12.984 7.516 8.278 0 15.016-6.735 15.016-15.016 0-8.277-6.738-15.015-15.016-15.015zm215.184 65.629v21.09h-125.09a115.613 115.613 0 0013.363-21.09zm-31.02-82.829c4.137 0 7.5 3.364 7.5 7.5v60.329h-82.12a114.091 114.091 0 003.718-14.63h38.238a7.5 7.5 0 100-15h-36.472c.101-1.98.156-3.976.156-5.98 0-1.613-.043-3.219-.11-4.816h45.02c4.14 0 7.5-3.36 7.5-7.5s-3.36-7.5-7.5-7.5h-46.621c-.734-4.215-1.7-8.356-2.879-12.403zm49.98-343.945h90.473v67.117c-.046.555-.636 1.739-1.011 2.078l-44.227 33.407-44.187-33.375c-.414-.371-1.004-1.555-1.051-2.059V20.621zm1.048 116.918c-.414-.371-1.004-1.555-1.047-2.059v-27.628l36.722 27.742c2.356 1.777 5.38 2.758 8.512 2.758 3.133 0 6.153-.977 8.512-2.758l36.726-27.742v27.578c-.043.554-.632 1.738-1.011 2.078l-14.43 10.898c-9.027-4.293-19.133-6.703-29.797-6.703-10.664 0-20.77 2.41-29.797 6.703zm44.187 126.149c-29.836 0-54.11-23.997-54.11-53.493 0-29.496 24.274-53.492 54.11-53.492s54.113 23.996 54.113 53.492-24.277 53.493-54.113 53.493zm0 0"/><path d="M462.465 191.824c-7.195-15.375-22.887-25.308-39.973-25.308-24.289 0-44.047 19.593-44.047 43.68 0 24.09 19.758 43.683 44.047 43.683 14.89 0 28.664-7.379 36.848-19.738a7.503 7.503 0 00-2.113-10.395c-3.45-2.285-8.106-1.34-10.395 2.113-5.398 8.153-14.496 13.02-24.34 13.02-16.02 0-29.047-12.867-29.047-28.684 0-15.812 13.028-28.68 29.047-28.68 11.29 0 21.649 6.54 26.387 16.669a7.503 7.503 0 009.973 3.613 7.498 7.498 0 003.613-9.973zm0 0M414.238 315.633c-14.715-6.098-18.375-9.762-24.472-24.48a11.074 11.074 0 00-10.262-6.864 11.08 11.08 0 00-10.266 6.863c-6.093 14.72-9.754 18.38-24.476 24.48a11.08 11.08 0 00-6.848 10.263c0 4.507 2.688 8.539 6.852 10.265 14.718 6.098 18.379 9.758 24.472 24.48a11.076 11.076 0 0010.266 6.86c4.508 0 8.539-2.695 10.262-6.86 6.097-14.722 9.757-18.382 24.476-24.484a11.07 11.07 0 006.852-10.261 11.08 11.08 0 00-6.856-10.262zm-34.734 31.34c-5.2-10.282-10.793-15.875-21.07-21.078 10.277-5.204 15.87-10.797 21.07-21.075 5.2 10.278 10.797 15.875 21.07 21.075-10.277 5.203-15.87 10.796-21.07 21.078zm0 0M102.55 45.191c11.79 4.887 14.509 7.606 19.388 19.395a10.433 10.433 0 009.667 6.46c4.254 0 8.051-2.538 9.668-6.46 4.883-11.793 7.602-14.512 19.387-19.395a10.433 10.433 0 006.461-9.668c0-4.246-2.535-8.043-6.46-9.668-11.786-4.882-14.505-7.601-19.384-19.382A10.425 10.425 0 00131.605 0a10.43 10.43 0 00-9.667 6.465c-4.88 11.785-7.598 14.504-19.387 19.39a10.436 10.436 0 00-6.457 9.668c0 4.247 2.535 8.043 6.457 9.668zm29.055-24.168c3.711 6.59 7.91 10.79 14.5 14.5-6.585 3.707-10.789 7.914-14.5 14.5-3.707-6.586-7.906-10.789-14.496-14.5 6.59-3.71 10.79-7.914 14.496-14.5zm0 0"/></svg>