<svg height="512" viewBox="0 0 16.933 16.933" width="512" xmlns="http://www.w3.org/2000/svg"><path d="M13.26.433L.939 12.757a.265.265 0 00-.07.127l-.861 3.727c-.044.19.128.36.318.316l3.725-.86a.264.264 0 00.129-.07L16.5 3.673a1.483 1.483 0 000-2.093L15.355.433a1.48 1.48 0 00-2.094 0zm1.722.375l1.146 1.147a.944.944 0 010 1.345l-.673.673-2.492-2.492.673-.673a.95.95 0 011.346 0zm-2.394 1.047l2.493 2.492-1.058 1.059-2.492-2.493zm-1.432 1.432L13.65 5.78l-9.241 9.24-.155-.972a.265.265 0 00-.261-.223H3.11v-.88a.265.265 0 00-.224-.262l-.97-.155zm-.38 1.503l-6.921 6.922c-.26.249.123.634.373.375l6.922-6.922c.25-.25-.127-.622-.373-.375zm.936.936L4.79 12.648c-.26.248.123.634.373.375L12.085 6.1c.25-.25-.123-.625-.373-.375zM1.454 12.99l1.127.18v.921c0 .146.119.263.264.264h.92l.182 1.127-.088.088-1.145.263-1.612-1.612.264-1.143zm-.493 1.84l1.143 1.143-1.486.343z"/></svg>