<svg id="Layer_1" enable-background="new 0 0 64 64" height="512" viewBox="0 0 64 64" width="512" xmlns="http://www.w3.org/2000/svg"><path d="m28 41h-5c-.552 0-1-.448-1-1s.448-1 1-1h5c.552 0 1 .448 1 1s-.448 1-1 1z"/><path d="m41 41h-5c-.553 0-1-.448-1-1s.447-1 1-1h5c.553 0 1 .448 1 1s-.447 1-1 1z"/><path d="m28 33h-5c-.552 0-1-.448-1-1s.448-1 1-1h5c.552 0 1 .448 1 1s-.448 1-1 1z"/><path d="m41 33h-5c-.553 0-1-.448-1-1s.447-1 1-1h5c.553 0 1 .448 1 1s-.447 1-1 1z"/><path d="m28 46c-.552 0-1-.448-1-1v-5c0-.552.448-1 1-1s1 .448 1 1v5c0 .552-.448 1-1 1z"/><path d="m28 33c-.552 0-1-.448-1-1v-5c0-.552.448-1 1-1s1 .448 1 1v5c0 .552-.448 1-1 1z"/><path d="m36 46c-.553 0-1-.448-1-1v-5c0-.552.447-1 1-1s1 .448 1 1v5c0 .552-.447 1-1 1z"/><path d="m36 33c-.553 0-1-.448-1-1v-5c0-.552.447-1 1-1s1 .448 1 1v5c0 .552-.447 1-1 1z"/><path d="m36 46h-8c-.552 0-1-.448-1-1s.448-1 1-1h8c.553 0 1 .448 1 1s-.447 1-1 1z"/><path d="m36 28h-8c-.552 0-1-.448-1-1s.448-1 1-1h8c.553 0 1 .448 1 1s-.447 1-1 1z"/><path d="m23 41c-.552 0-1-.448-1-1v-8c0-.552.448-1 1-1s1 .448 1 1v8c0 .552-.448 1-1 1z"/><path d="m41 41c-.553 0-1-.448-1-1v-8c0-.552.447-1 1-1s1 .448 1 1v8c0 .552-.447 1-1 1z"/><path d="m56 38c-.553 0-1-.448-1-1v-2c0-.552.447-1 1-1s1 .448 1 1v2c0 .552-.447 1-1 1z"/><path d="m52 54h-40c-2.757 0-5-2.243-5-5v-26c0-2.757 2.243-5 5-5h40c2.757 0 5 2.243 5 5v8c0 .552-.447 1-1 1s-1-.448-1-1v-8c0-1.654-1.346-3-3-3h-40c-1.654 0-3 1.346-3 3v26c0 1.654 1.346 3 3 3h40c1.654 0 3-1.346 3-3v-8c0-.552.447-1 1-1s1 .448 1 1v8c0 2.757-2.243 5-5 5z"/><path d="m22 24h-8c-.552 0-1-.448-1-1s.448-1 1-1h8c.552 0 1 .448 1 1s-.448 1-1 1z"/><path d="m22 24c-.552 0-1-.448-1-1v-4c0-.552.448-1 1-1s1 .448 1 1v4c0 .552-.448 1-1 1z"/><path d="m14 24c-.552 0-1-.448-1-1v-4c0-.552.448-1 1-1s1 .448 1 1v4c0 .552-.448 1-1 1z"/><path d="m50 24c-.553 0-1-.448-1-1v-4c0-.552.447-1 1-1s1 .448 1 1v4c0 .552-.447 1-1 1z"/><path d="m42 24c-.553 0-1-.448-1-1v-4c0-.552.447-1 1-1s1 .448 1 1v4c0 .552-.447 1-1 1z"/><path d="m50 24h-8c-.553 0-1-.448-1-1s.447-1 1-1h8c.553 0 1 .448 1 1s-.447 1-1 1z"/><path d="m48 20c-.553 0-1-.448-1-1v-2c0-2.757-2.243-5-5-5h-20c-2.757 0-5 2.243-5 5v2c0 .552-.448 1-1 1s-1-.448-1-1v-2c0-3.86 3.14-7 7-7h20c3.859 0 7 3.14 7 7v2c0 .552-.447 1-1 1z"/><path d="m44 20c-.553 0-1-.448-1-1v-2c0-.551-.448-1-1-1h-20c-.551 0-1 .449-1 1v2c0 .552-.448 1-1 1s-1-.448-1-1v-2c0-1.654 1.346-3 3-3h20c1.654 0 3 1.346 3 3v2c0 .552-.447 1-1 1z"/></svg>