<svg height="512" viewBox="0 0 64 64" width="512" xmlns="http://www.w3.org/2000/svg"><path d="M28 41h-5a1 1 0 010-2h5a1 1 0 010 2zM41 41h-5a1 1 0 110-2h5a1 1 0 110 2zM28 33h-5a1 1 0 010-2h5a1 1 0 010 2zM41 33h-5a1 1 0 110-2h5a1 1 0 110 2z"/><path d="M28 46a1 1 0 01-1-1v-5a1 1 0 012 0v5a1 1 0 01-1 1zM28 33a1 1 0 01-1-1v-5a1 1 0 012 0v5a1 1 0 01-1 1zM36 46a1 1 0 01-1-1v-5a1 1 0 112 0v5a1 1 0 01-1 1zM36 33a1 1 0 01-1-1v-5a1 1 0 112 0v5a1 1 0 01-1 1z"/><path d="M36 46h-8a1 1 0 010-2h8a1 1 0 110 2zM36 28h-8a1 1 0 010-2h8a1 1 0 110 2zM23 41a1 1 0 01-1-1v-8a1 1 0 012 0v8a1 1 0 01-1 1zM41 41a1 1 0 01-1-1v-8a1 1 0 112 0v8a1 1 0 01-1 1zM56 38a1 1 0 01-1-1v-2a1 1 0 112 0v2a1 1 0 01-1 1z"/><path d="M52 54H12c-2.757 0-5-2.243-5-5V23c0-2.757 2.243-5 5-5h40c2.757 0 5 2.243 5 5v8a1 1 0 11-2 0v-8c0-1.654-1.346-3-3-3H12c-1.654 0-3 1.346-3 3v26c0 1.654 1.346 3 3 3h40c1.654 0 3-1.346 3-3v-8a1 1 0 112 0v8c0 2.757-2.243 5-5 5z"/><path d="M22 24h-8a1 1 0 010-2h8a1 1 0 010 2z"/><path d="M22 24a1 1 0 01-1-1v-4a1 1 0 012 0v4a1 1 0 01-1 1zM14 24a1 1 0 01-1-1v-4a1 1 0 012 0v4a1 1 0 01-1 1zM50 24a1 1 0 01-1-1v-4a1 1 0 112 0v4a1 1 0 01-1 1zM42 24a1 1 0 01-1-1v-4a1 1 0 112 0v4a1 1 0 01-1 1z"/><path d="M50 24h-8a1 1 0 110-2h8a1 1 0 110 2zM48 20a1 1 0 01-1-1v-2c0-2.757-2.243-5-5-5H22c-2.757 0-5 2.243-5 5v2a1 1 0 01-2 0v-2c0-3.86 3.14-7 7-7h20c3.859 0 7 3.14 7 7v2a1 1 0 01-1 1z"/><path d="M44 20a1 1 0 01-1-1v-2c0-.551-.448-1-1-1H22c-.551 0-1 .449-1 1v2a1 1 0 01-2 0v-2c0-1.654 1.346-3 3-3h20c1.654 0 3 1.346 3 3v2a1 1 0 01-1 1z"/></svg>