<svg height="512" viewBox="0 0 64 64" width="512" xmlns="http://www.w3.org/2000/svg"><path d="M24.929 26.071a.999.999 0 01-.707-1.707l14.143-14.143a.999.999 0 111.414 1.414L25.636 25.778a.995.995 0 01-.707.293z"/><path d="M40.467 18.34c-2.338 0-4.598-.895-6.381-2.567-2.21-2.071-3.278-4.947-2.93-7.889a.992.992 0 011.11-.876 1 1 0 01.876 1.11c-.273 2.305.569 4.563 2.311 6.195 1.74 1.632 4.05 2.326 6.333 1.905a1 1 0 01.363 1.967 9.235 9.235 0 01-1.682.155zM31.203 28.968a1 1 0 01-.985-1.182c.422-2.282-.272-4.59-1.904-6.332-1.631-1.741-3.887-2.588-6.196-2.312a1 1 0 11-.234-1.986c2.947-.347 5.819.721 7.891 2.931 2.07 2.21 2.949 5.148 2.411 8.063-.089.481-.51.818-.983.818zM56 49.001a1 1 0 01-1-1v-2a1 1 0 112 0v2a1 1 0 01-1 1zM56 57a1 1 0 01-1-1v-3.999a1 1 0 112 0V56a1 1 0 01-1 1zM56 43.001a1 1 0 01-1-1v-4a1 1 0 112 0v4a1 1 0 01-1 1zM8 57a1 1 0 01-1-1V44.001a1 1 0 112 0V56a1 1 0 01-1 1z"/><path d="M23.939 45.001H8a1 1 0 110-2h15.939a1 1 0 110 2zM56 39.001H39.952a1 1 0 110-2H56a1 1 0 110 2z"/><path d="M40 57a1 1 0 01-1-1V34a1 1 0 112 0v22a1 1 0 01-1 1z"/><path d="M40 35H24a1 1 0 110-2h16a1 1 0 110 2z"/><path d="M24 57a1 1 0 01-1-1V34a1 1 0 112 0v22a1 1 0 01-1 1zM32.017 28.977c-2.701 0-5.284-.963-7.273-2.71-3.781-3.32-4.822-8.956-2.475-13.398 1.881-3.561 5.724-5.861 9.787-5.861.889 0 1.773.108 2.63.324C39.503 8.54 43 13.027 43 18c0 3.56-1.735 6.916-4.644 8.978-1.842 1.307-4.035 1.999-6.339 1.999zm.039-19.97c-3.332 0-6.479 1.882-8.02 4.795-1.92 3.635-1.067 8.245 2.027 10.963 1.624 1.426 3.738 2.212 5.953 2.212 1.888 0 3.68-.563 5.184-1.63A9.027 9.027 0 0041 18c0-4.069-2.86-7.74-6.801-8.729a8.82 8.82 0 00-2.143-.264z"/><path d="M39.071 26.071a.997.997 0 01-.707-.293L24.222 11.636a.999.999 0 111.414-1.414l14.143 14.143a.999.999 0 01-.708 1.706zM56 57H8a1 1 0 110-2h48a1 1 0 110 2z"/></svg>