<svg id="Layer_1" enable-background="new 0 0 64 64" height="512" viewBox="0 0 64 64" width="512" xmlns="http://www.w3.org/2000/svg"><path d="m24.929 26.071c-.256 0-.512-.098-.707-.293-.391-.391-.391-1.023 0-1.414l14.143-14.143c.391-.391 1.023-.391 1.414 0s.391 1.023 0 1.414l-14.143 14.143c-.196.196-.451.293-.707.293z"/><path d="m40.467 18.34c-2.338 0-4.598-.895-6.381-2.567-2.21-2.071-3.278-4.947-2.93-7.889.065-.549.554-.946 1.11-.876.549.065.94.563.876 1.11-.273 2.305.569 4.563 2.311 6.195 1.74 1.632 4.05 2.326 6.333 1.905.551-.104 1.065.26 1.165.802.101.543-.259 1.064-.802 1.165-.561.104-1.125.155-1.682.155z"/><path d="m31.203 28.968c-.061 0-.121-.005-.183-.017-.543-.101-.902-.622-.802-1.165.422-2.282-.272-4.59-1.904-6.332-1.631-1.741-3.887-2.588-6.196-2.312-.556.065-1.045-.327-1.11-.876-.064-.548.327-1.046.876-1.11 2.947-.347 5.819.721 7.891 2.931 2.07 2.21 2.949 5.148 2.411 8.063-.089.481-.51.818-.983.818z"/><path d="m56 49.001c-.553 0-1-.447-1-1v-2c0-.553.447-1 1-1s1 .447 1 1v2c0 .553-.447 1-1 1z"/><path d="m56 57c-.553 0-1-.447-1-1v-3.999c0-.553.447-1 1-1s1 .447 1 1v3.999c0 .553-.447 1-1 1z"/><path d="m56 43.001c-.553 0-1-.447-1-1v-4c0-.553.447-1 1-1s1 .447 1 1v4c0 .553-.447 1-1 1z"/><path d="m8 57c-.553 0-1-.447-1-1v-11.999c0-.553.447-1 1-1s1 .447 1 1v11.999c0 .553-.447 1-1 1z"/><path d="m23.939 45.001h-15.939c-.553 0-1-.447-1-1s.447-1 1-1h15.939c.553 0 1 .447 1 1s-.447 1-1 1z"/><path d="m56 39.001h-16.048c-.553 0-1-.447-1-1s.447-1 1-1h16.048c.553 0 1 .447 1 1s-.447 1-1 1z"/><path d="m40 57c-.553 0-1-.447-1-1v-22c0-.553.447-1 1-1s1 .447 1 1v22c0 .553-.447 1-1 1z"/><path d="m40 35h-16c-.553 0-1-.447-1-1s.447-1 1-1h16c.553 0 1 .447 1 1s-.447 1-1 1z"/><path d="m24 57c-.553 0-1-.447-1-1v-22c0-.553.447-1 1-1s1 .447 1 1v22c0 .553-.447 1-1 1z"/><path d="m32.017 28.977c-2.701 0-5.284-.963-7.273-2.71-3.781-3.32-4.822-8.956-2.475-13.398 1.881-3.561 5.724-5.861 9.787-5.861.889 0 1.773.108 2.63.324 4.817 1.208 8.314 5.695 8.314 10.668 0 3.56-1.735 6.916-4.644 8.978-1.842 1.307-4.035 1.999-6.339 1.999zm.039-19.97c-3.332 0-6.479 1.882-8.02 4.795-1.92 3.635-1.067 8.245 2.027 10.963 1.624 1.426 3.738 2.212 5.953 2.212 1.888 0 3.68-.563 5.184-1.63 2.379-1.689 3.8-4.435 3.8-7.347 0-4.069-2.86-7.74-6.801-8.729-.698-.175-1.419-.264-2.143-.264z"/><path d="m39.071 26.071c-.256 0-.512-.098-.707-.293l-14.142-14.142c-.391-.391-.391-1.023 0-1.414s1.023-.391 1.414 0l14.143 14.143c.391.391.391 1.023 0 1.414-.196.195-.452.292-.708.292z"/><path d="m56 57h-48c-.553 0-1-.447-1-1s.447-1 1-1h48c.553 0 1 .447 1 1s-.447 1-1 1z"/></svg>