<svg height="512" viewBox="0 0 64 64" width="512" xmlns="http://www.w3.org/2000/svg"><path d="M24.929 40.071a.999.999 0 01-.707-1.707l14.143-14.143a.999.999 0 111.414 1.414L25.636 39.778a.995.995 0 01-.707.293z"/><path d="M31.203 42.968a1 1 0 01-.985-1.182c.422-2.282-.272-4.59-1.904-6.332-1.631-1.741-3.888-2.589-6.196-2.312a.994.994 0 01-1.11-.876 1 1 0 01.876-1.11c2.945-.348 5.819.721 7.891 2.931 2.07 2.21 2.949 5.148 2.411 8.063-.089.481-.51.818-.983.818zM40.467 32.34c-2.338 0-4.598-.895-6.381-2.567-2.21-2.071-3.278-4.947-2.93-7.889a1 1 0 011.986.234c-.273 2.305.569 4.563 2.311 6.195 1.741 1.632 4.051 2.327 6.333 1.905a1 1 0 01.363 1.967 9.235 9.235 0 01-1.682.155z"/><path d="M32.026 42.997c-4.225 0-8.232-2.454-10.049-6.461-1.99-4.395-.84-9.672 2.798-12.834 3.729-3.239 9.201-3.595 13.312-.867 3.957 2.626 5.8 7.649 4.481 12.216a1 1 0 01-1.922-.554c1.079-3.736-.428-7.847-3.665-9.995-3.31-2.197-7.892-1.897-10.894.711-2.976 2.586-3.917 6.903-2.288 10.499 1.819 4.015 6.552 6.171 10.771 4.914a.999.999 0 11.572 1.916 10.872 10.872 0 01-3.116.455z"/><path d="M38.364 40.714a1 1 0 01-.637-1.771 9.079 9.079 0 001.266-1.275 1 1 0 111.554 1.258A11.024 11.024 0 0139 40.487a1.006 1.006 0 01-.636.227zM18.211 46.789a.997.997 0 01-.707-.293c-7.993-7.993-7.993-20.999 0-28.992a.999.999 0 111.414 1.414c-3.494 3.494-5.419 8.141-5.419 13.082s1.925 9.588 5.419 13.082a.999.999 0 01-.707 1.707z"/><path d="M21.394 43.606a.997.997 0 01-.707-.293C17.664 40.292 16 36.273 16 32s1.664-8.292 4.687-11.313a.999.999 0 111.414 1.414C19.456 24.745 18 28.261 18 32s1.456 7.255 4.101 9.899a.999.999 0 01-.707 1.707z"/><path d="M15.029 49.971a.997.997 0 01-.707-.293c-9.747-9.747-9.747-25.608 0-35.355a.999.999 0 111.414 1.414c-8.967 8.968-8.967 23.56 0 32.527a.999.999 0 01-.707 1.707zM48.971 49.971a.999.999 0 01-.707-1.707c8.967-8.968 8.967-23.56 0-32.527a.999.999 0 111.414-1.414c9.747 9.747 9.747 25.608 0 35.355a.999.999 0 01-.707.293z"/><path d="M42.606 43.606a.999.999 0 01-.707-1.707C44.544 39.255 46 35.739 46 32s-1.456-7.255-4.101-9.899a.999.999 0 111.414-1.414C46.336 23.708 48 27.727 48 32s-1.664 8.292-4.687 11.313a.993.993 0 01-.707.293z"/><path d="M45.789 46.789a.999.999 0 01-.707-1.707c3.494-3.494 5.419-8.141 5.419-13.082s-1.925-9.588-5.419-13.082a.999.999 0 111.414-1.414c7.993 7.993 7.993 20.999 0 28.992a.997.997 0 01-.707.293zM39.071 40.071a.997.997 0 01-.707-.293L24.222 25.636a.999.999 0 111.414-1.414l14.143 14.143a.999.999 0 01-.708 1.706z"/></svg>