<svg height="512" viewBox="0 0 64 64" width="512" xmlns="http://www.w3.org/2000/svg"><path d="M46 25H18a1 1 0 110-2h28a1 1 0 110 2zM18 45h-7a1 1 0 110-2h7a1 1 0 110 2z"/><path d="M25 45h-7a1 1 0 110-2h7a1 1 0 110 2zM56 57h-6a1 1 0 01-1-1v-6a1 1 0 011-1h6a1 1 0 011 1v6a1 1 0 01-1 1zm-5-2h4v-4h-4zM42 57h-6a1 1 0 01-1-1v-6a1 1 0 011-1h6a1 1 0 011 1v6a1 1 0 01-1 1zm-5-2h4v-4h-4zM53 45H39a1 1 0 110-2h14a1 1 0 110 2z"/><path d="M46 45a1 1 0 01-1-1v-6a1 1 0 112 0v6a1 1 0 01-1 1zM39 51a1 1 0 01-1-1v-6a1 1 0 112 0v6a1 1 0 01-1 1zM53 51a1 1 0 01-1-1v-6a1 1 0 112 0v6a1 1 0 01-1 1zM11 51a1 1 0 01-1-1v-6a1 1 0 112 0v6a1 1 0 01-1 1zM25 51a1 1 0 01-1-1v-6a1 1 0 112 0v6a1 1 0 01-1 1zM18 45a1 1 0 01-1-1v-6a1 1 0 112 0v6a1 1 0 01-1 1z"/><path d="M14 57H8a1 1 0 01-1-1v-6a1 1 0 011-1h6a1 1 0 011 1v6a1 1 0 01-1 1zm-5-2h4v-4H9zM18 31a1 1 0 01-1-1v-6a1 1 0 112 0v6a1 1 0 01-1 1zM46 31a1 1 0 01-1-1v-6a1 1 0 112 0v6a1 1 0 01-1 1zM32 25a1 1 0 01-1-1v-6a1 1 0 112 0v6a1 1 0 01-1 1z"/><path d="M50 39h-8a1 1 0 01-1-1v-8a1 1 0 011-1h8a1 1 0 011 1v8a1 1 0 01-1 1zm-7-2h6v-6h-6zM37 19H27a1 1 0 01-1-1V8a1 1 0 011-1h10a1 1 0 011 1v10a1 1 0 01-1 1zm-9-2h8V9h-8zM22 39h-8a1 1 0 01-1-1v-8a1 1 0 011-1h8a1 1 0 011 1v8a1 1 0 01-1 1zm-7-2h6v-6h-6zM28 57h-6a1 1 0 01-1-1v-6a1 1 0 011-1h6a1 1 0 011 1v6a1 1 0 01-1 1zm-5-2h4v-4h-4z"/></svg>