<svg height="512" viewBox="0 0 64 64" width="512" xmlns="http://www.w3.org/2000/svg"><path d="M19.843 22.253h-.188a1 1 0 110-2h.188a1 1 0 110 2zM44.396 22.253h-.188a1 1 0 110-2h.188a1 1 0 110 2zM32.025 41.98c-.26 0-.521-.109-.71-.29a1.008 1.008 0 01-.29-.71c0-.26.109-.52.29-.71.38-.37 1.05-.37 1.42 0 .18.19.29.45.29.71 0 .261-.11.521-.29.71-.19.181-.45.29-.71.29z"/><path d="M31.989 41.979c-.632 0-1.265-.05-1.895-.151-3.987-.641-7.665-3.315-10.355-7.532a1 1 0 111.686-1.076c1.684 2.639 4.608 5.931 8.986 6.634 3.431.553 6.991-.731 9.773-3.519.848-.85 1.646-1.868 2.441-3.115a1 1 0 011.686 1.076c-.873 1.369-1.76 2.498-2.711 3.451-2.74 2.745-6.16 4.232-9.611 4.232z"/><path d="M56.025 57.001h-48a1 1 0 01-1-1v-5.529c0-.462-.013-.934-.024-1.41-.04-1.569-.082-3.193.277-4.764.42-1.836 1.389-3.652 2.802-5.251 2.355-2.665 5.685-4.704 10.18-6.235a.997.997 0 011.269.624 1 1 0 01-.624 1.269c-4.156 1.416-7.207 3.271-9.326 5.667-1.191 1.349-2.004 2.861-2.351 4.374-.303 1.323-.265 2.818-.228 4.265.013.493.025.981.025 1.461v4.529h46V46.57a1 1 0 112 0v9.431a1 1 0 01-1 1zM51.488 39.024a.996.996 0 01-.626-.221 23.175 23.175 0 00-7.689-4.091 1 1 0 11.592-1.91c3.051.945 5.86 2.44 8.352 4.442a1 1 0 01-.629 1.78zM17.665 24.466a1 1 0 01-.993-.891 2.99 2.99 0 01.754-2.316 3 3 0 012.229-1.006 1 1 0 110 2 1 1 0 00-.74.341.99.99 0 00-.255.763 1 1 0 01-.995 1.109z"/><path d="M21.072 29.371a3.506 3.506 0 01-1.894-.536c-1.808-1.145-2.347-3.787-2.507-5.261a1 1 0 111.989-.217c.203 1.871.797 3.287 1.589 3.788.448.283 1.01.302 1.715.058a.995.995 0 011.272.616.998.998 0 01-.616 1.272 4.684 4.684 0 01-1.548.28zM42.979 29.371c-.456 0-.972-.079-1.548-.279a.999.999 0 01-.616-1.272.994.994 0 011.272-.616c.705.244 1.267.226 1.715-.058.792-.501 1.386-1.917 1.589-3.788a1 1 0 111.989.217c-.16 1.474-.699 4.116-2.507 5.261a3.515 3.515 0 01-1.894.535z"/><path d="M46.386 24.466a1 1 0 01-.995-1.106 1.001 1.001 0 00-.259-.771.996.996 0 00-.735-.337 1 1 0 110-2c.841 0 1.651.364 2.223 1s.85 1.481.76 2.318a1.002 1.002 0 01-.994.896zM55.179 43.693c-.38 0-.743-.218-.911-.586a10.27 10.27 0 00-.897-1.584 1 1 0 111.647-1.137c.41.594.771 1.23 1.071 1.893a.999.999 0 01-.91 1.414zM17.725 57.001a1 1 0 01-1-1v-6.766a1 1 0 112 0v6.766a1 1 0 01-1 1zM46.326 57.001a1 1 0 01-1-1v-6.766a1 1 0 112 0v6.766a1 1 0 01-1 1zM43.097 18.253a1 1 0 01-.983-.822c-.851-4.71-5.094-8.334-9.871-8.43-4.967-.134-9.42 3.523-10.305 8.43a1 1 0 11-1.969-.355C21.013 11.292 26.178 7 32.04 7l.243.002c5.803.117 10.765 4.354 11.799 10.074a1.001 1.001 0 01-.985 1.177z"/><path d="M32.101 37.973c-3.323 0-6.219-2.105-8.032-4.44-2.368-3.049-3.787-7.151-4.219-12.194a.998.998 0 01.911-1.081c.543-.058 1.034.36 1.081.911.398 4.651 1.679 8.398 3.807 11.138 1.869 2.405 5.089 4.534 8.524 3.296 6.51-2.345 7.797-11.641 8.036-14.434.046-.551.541-.969 1.081-.911a.998.998 0 01.911 1.081c-.265 3.093-1.722 13.397-9.351 16.145a8.094 8.094 0 01-2.749.489z"/><path d="M44.208 22.253H19.843a1 1 0 110-2h24.365a1 1 0 110 2z"/><path d="M44.209 22.253l-.035-.001a.999.999 0 01-.965-1.033l.069-2a11.433 11.433 0 00-.151-1.803.998.998 0 01.823-1.149.993.993 0 011.149.823c.118.712.178 1.439.178 2.163l-.07 2.034a1 1 0 01-.998.966z"/><path d="M44.113 18.253H19.938a1 1 0 110-2h24.176a1 1 0 11-.001 2z"/><path d="M19.842 22.253a1 1 0 01-.998-.966l-.069-2a13.26 13.26 0 01.177-2.197.994.994 0 011.149-.823c.545.09.914.604.823 1.149-.1.604-.15 1.223-.15 1.837l.068 1.966a.997.997 0 01-.965 1.033l-.035.001z"/></svg>