<svg id="Layer_1" enable-background="new 0 0 64 64" height="512" viewBox="0 0 64 64" width="512" xmlns="http://www.w3.org/2000/svg"><path d="m19.843 22.253h-.188c-.553 0-1-.447-1-1s.447-1 1-1h.188c.553 0 1 .447 1 1s-.447 1-1 1z"/><path d="m44.396 22.253h-.188c-.553 0-1-.447-1-1s.447-1 1-1h.188c.553 0 1 .447 1 1s-.447 1-1 1z"/><path d="m32.025 41.98c-.26 0-.521-.109-.71-.29-.181-.18-.29-.439-.29-.71 0-.26.109-.52.29-.71.38-.37 1.05-.37 1.42 0 .18.19.29.45.29.71 0 .261-.11.521-.29.71-.19.181-.45.29-.71.29z"/><path d="m31.989 41.979c-.632 0-1.265-.05-1.895-.151-3.987-.641-7.665-3.315-10.355-7.532-.297-.466-.161-1.084.305-1.381.466-.299 1.084-.161 1.381.305 1.684 2.639 4.608 5.931 8.986 6.634 3.431.553 6.991-.731 9.773-3.519.848-.85 1.646-1.868 2.441-3.115.296-.466.913-.604 1.381-.305.465.297.602.915.305 1.381-.873 1.369-1.76 2.498-2.711 3.451-2.74 2.745-6.16 4.232-9.611 4.232z"/><path d="m56.025 57.001h-48c-.553 0-1-.447-1-1v-5.529c0-.462-.013-.934-.024-1.41-.04-1.569-.082-3.193.277-4.764.42-1.836 1.389-3.652 2.802-5.251 2.355-2.665 5.685-4.704 10.18-6.235.523-.183 1.091.103 1.269.624.179.522-.101 1.091-.624 1.269-4.156 1.416-7.207 3.271-9.326 5.667-1.191 1.349-2.004 2.861-2.351 4.374-.303 1.323-.265 2.818-.228 4.265.013.493.025.981.025 1.461v4.529h46v-8.431c0-.553.447-1 1-1s1 .447 1 1v9.431c0 .553-.447 1-1 1z"/><path d="m51.488 39.024c-.22 0-.44-.072-.626-.221-2.293-1.844-4.881-3.22-7.689-4.091-.527-.163-.823-.724-.659-1.251.163-.527.721-.822 1.251-.659 3.051.945 5.86 2.44 8.352 4.442.43.346.498.976.152 1.406-.198.246-.488.374-.781.374z"/><path d="m17.665 24.466c-.504 0-.937-.379-.993-.891-.092-.835.184-1.68.754-2.316.573-.64 1.386-1.006 2.229-1.006.553 0 1 .447 1 1s-.447 1-1 1c-.276 0-.546.124-.74.341-.191.214-.285.492-.255.763.061.549-.336 1.043-.885 1.104-.037.003-.074.005-.11.005z"/><path d="m21.072 29.371c-.827 0-1.458-.261-1.894-.536-1.808-1.145-2.347-3.787-2.507-5.261-.06-.55.337-1.043.886-1.103.555-.058 1.043.337 1.103.886.203 1.871.797 3.287 1.589 3.788.448.283 1.01.302 1.715.058.525-.185 1.092.095 1.272.616.182.522-.095 1.092-.616 1.272-.576.201-1.092.28-1.548.28z"/><path d="m42.979 29.371c-.456 0-.972-.079-1.548-.279-.521-.181-.798-.75-.616-1.272.18-.521.745-.801 1.272-.616.705.244 1.267.226 1.715-.058.792-.501 1.386-1.917 1.589-3.788.06-.549.548-.943 1.103-.886.549.06.945.553.886 1.103-.16 1.474-.699 4.116-2.507 5.261-.436.274-1.067.535-1.894.535z"/><path d="m46.386 24.466c-.035 0-.071-.002-.106-.006-.55-.059-.947-.551-.889-1.1.029-.274-.065-.556-.259-.771-.192-.214-.461-.337-.735-.337-.553 0-1-.447-1-1s.447-1 1-1c.841 0 1.651.364 2.223 1s.85 1.481.76 2.318c-.056.515-.489.896-.994.896z"/><path d="m55.179 43.693c-.38 0-.743-.218-.911-.586-.252-.555-.554-1.087-.897-1.584-.313-.455-.199-1.077.255-1.392.455-.313 1.077-.201 1.392.255.41.594.771 1.23 1.071 1.893.229.503.007 1.096-.496 1.324-.135.062-.277.09-.414.09z"/><path d="m17.725 57.001c-.553 0-1-.447-1-1v-6.766c0-.553.447-1 1-1s1 .447 1 1v6.766c0 .553-.448 1-1 1z"/><path d="m46.326 57.001c-.553 0-1-.447-1-1v-6.766c0-.553.447-1 1-1s1 .447 1 1v6.766c0 .553-.447 1-1 1z"/><path d="m43.097 18.253c-.475 0-.896-.339-.983-.822-.851-4.71-5.094-8.334-9.871-8.43-4.967-.134-9.42 3.523-10.305 8.43-.099.543-.61.902-1.162.807-.543-.099-.904-.618-.807-1.162 1.044-5.784 6.209-10.076 12.071-10.076.081 0 .162.001.243.002 5.803.117 10.765 4.354 11.799 10.074.098.543-.263 1.063-.807 1.162-.059.01-.12.015-.178.015z"/><path d="m32.101 37.973c-3.323 0-6.219-2.105-8.032-4.44-2.368-3.049-3.787-7.151-4.219-12.194-.048-.55.36-1.034.911-1.081.543-.058 1.034.36 1.081.911.398 4.651 1.679 8.398 3.807 11.138 1.869 2.405 5.089 4.534 8.524 3.296 6.51-2.345 7.797-11.641 8.036-14.434.046-.551.541-.969 1.081-.911.551.047.959.531.911 1.081-.265 3.093-1.722 13.397-9.351 16.145-.938.337-1.86.489-2.749.489z"/><path d="m44.208 22.253h-24.365c-.553 0-1-.447-1-1s.447-1 1-1h24.365c.553 0 1 .447 1 1s-.447 1-1 1z"/><path d="m44.209 22.253c-.012 0-.023 0-.035-.001-.553-.019-.984-.481-.965-1.033l.069-2c-.001-.58-.052-1.198-.151-1.803-.091-.545.278-1.06.823-1.149.543-.099 1.06.278 1.149.823.118.712.178 1.439.178 2.163l-.07 2.034c-.019.541-.462.966-.998.966z"/><path d="m44.113 18.253h-24.175c-.553 0-1-.447-1-1s.447-1 1-1h24.176c.553 0 1 .447 1 1s-.448 1-1.001 1z"/><path d="m19.842 22.253c-.536 0-.979-.425-.998-.966l-.069-2c-.001-.758.059-1.485.177-2.197.09-.544.605-.922 1.149-.823.545.09.914.604.823 1.149-.1.604-.15 1.223-.15 1.837l.068 1.966c.02.552-.412 1.015-.965 1.033-.012.001-.023.001-.035.001z"/></svg>