<svg id="Capa_1" enable-background="new 0 0 501 501" height="512" viewBox="0 0 501 501" width="512" xmlns="http://www.w3.org/2000/svg"><g><path d="m59.224 409.084c-33.609-41.939-53.724-95.158-53.724-153.084 0-135.31 109.69-245 245-245s245 109.69 245 245c0 57.926-20.115 111.145-53.724 153.084-55.662-22.884-121.165-36.084-191.276-36.084s-135.614 13.2-191.276 36.084z" fill="#f5c02c"/><path d="m334.5 260v157.263c0 46.004-37.112 83.573-83.115 83.735-.295.001-.59.002-.885.002-78.588 0-148.534-37.002-193.366-94.534-4.466-5.731-12.634-126.466-12.634-126.466v-20c0-26.123 16.699-48.334 40-56.573v-33.427h210v33.427c23.301 8.239 40 30.45 40 56.573z" fill="#ee4424"/><path d="m334.5 260v157.263c0 46.004-37.112 83.573-83.115 83.735-.295.001-.59.002-.885.002-59.271 0-113.627-21.048-156-56.076v-184.924c0-33.137 26.863-60 60-60h120c33.137 0 60 26.863 60 60z" fill="#fc6930"/><path d="m304.5 180h-230c-5.523 0-10-4.477-10-10v-30c0-5.523 4.477-10 10-10h230c5.523 0 10 4.477 10 10v30c0 5.523-4.477 10-10 10z" fill="#1f3595"/><path d="m253.5 180h-129.5c-5.523 0-10-4.477-10-10v-30c0-5.523 4.477-10 10-10h129.5c5.523 0 10 4.477 10 10v30c0 5.523-4.477 10-10 10z" fill="#2740af"/><path d="m114.5 130h20v50h-20c-5.523 0-10-4.477-10-10v-30c0-5.523 4.477-10 10-10zm80 0v50h20v-50zm-40 50h20v-50h-20z" fill="#4f66cf"/><path d="m44.5 280h290v178.46h-222.009c-27.051-18.475-50.209-42.23-67.991-69.782v-58.678l3-4 .761-18.256-3.761-6.204z" fill="#174550"/><path d="m94.5 280h150v178.46h-132.009c-6.208-4.24-12.211-8.758-17.991-13.536z" fill="#024c67"/><path d="m334.5 330h-290v-28.46h290z" fill="#b3d1e1"/><path d="m334.5 330h-240v-28.46h240z" fill="#e3f0fb"/><path d="m44.5 351.54h290v68.46h-266.016c-8.801-9.761-16.828-20.234-23.984-31.322z" fill="#2740af"/><path d="m250.5 420h-156v-68.46h156z" fill="#4f66cf"/><path d="m104.5 375c0-2.761 2.239-5 5-5h100c2.761 0 5 2.239 5 5s-2.239 5-5 5h-100c-2.761 0-5-2.239-5-5zm105 15h-100c-2.761 0-5 2.239-5 5s2.239 5 5 5h100c2.761 0 5-2.239 5-5s-2.239-5-5-5z" fill="#2740af"/><path d="m415.5 211.953v29.307c17.252 4.44 30 20.102 30 38.74v124.346c-44.756 58.741-115.451 96.654-195 96.654-.765 0-1.529-.004-2.292-.011-8.977-7.335-14.708-18.492-14.708-30.989v-190c0-18.638 12.748-34.299 30-38.74v-29.307c-17.929-10.376-30-29.749-30-51.953v-50c0-11.046 8.954-20 20-20h172c11.046 0 20 8.954 20 20v50c0 22.205-12.071 41.577-30 51.953z" fill="#05a2f9"/><path d="m385.5 220h-52c-33.137 0-60-26.863-60-60v-50c0-11.046 8.954-20 20-20h132c11.046 0 20 8.954 20 20v50c0 33.137-26.863 60-60 60zm60 184.346v-124.346c0-22.091-17.909-40-40-40h-92c-22.091 0-40 17.909-40 40v190c0 11.169 4.578 21.268 11.959 28.525 65.109-9.302 121.962-44.202 160.041-94.179z" fill="#63bcfa"/><path d="m445.5 148h-212v-58h212z" fill="#b3d1e1"/><path d="m445.5 148h-172v-58h172z" fill="#e3f0fb"/><path d="m414.5 140c0 5.523-4.477 10-10 10h-40c-5.523 0-10-4.477-10-10 0-5.523 4.477-10 10-10h40c5.523 0 10 4.477 10 10z" fill="#b3d1e1"/><path d="m414.5 260c0 5.523-4.477 10-10 10h-40c-5.523 0-10-4.477-10-10 0-5.523 4.477-10 10-10h40c5.523 0 10 4.477 10 10zm-20-90h-20c-5.523 0-10 4.477-10 10 0 5.523 4.477 10 10 10h20c5.523 0 10-4.477 10-10 0-5.523-4.477-10-10-10zm0 40h-20c-5.523 0-10 4.477-10 10 0 5.523 4.477 10 10 10h20c5.523 0 10-4.477 10-10 0-5.523-4.477-10-10-10zm0 80h-20c-5.523 0-10 4.477-10 10 0 5.523 4.477 10 10 10h20c5.523 0 10-4.477 10-10 0-5.523-4.477-10-10-10zm0 40h-20c-5.523 0-10 4.477-10 10 0 5.523 4.477 10 10 10h20c5.523 0 10-4.477 10-10 0-5.523-4.477-10-10-10zm10 40h-40c-5.523 0-10 4.477-10 10 0 5.523 4.477 10 10 10h40c5.523 0 10-4.477 10-10 0-5.523-4.477-10-10-10zm-10 40h-20c-5.523 0-10 4.477-10 10 0 5.523 4.477 10 10 10h20c5.523 0 10-4.477 10-10 0-5.523-4.477-10-10-10z" fill="#3691bb"/><path d="m375.5 12-19.2 96h-36l-16.8-96z" fill="#c64b1a"/><path d="m289 15c0-8.284 6.716-15 15-15h71c8.284 0 15 6.716 15 15s-6.716 15-15 15h-71c-8.284 0-15-6.716-15-15zm155.5 55h-210c-11.046 0-20 8.954-20 20 0 11.046 8.954 20 20 20h210c11.046 0 20-8.954 20-20 0-11.046-8.954-20-20-20z" fill="#ee4424"/><path d="m323.5 15c0-8.284 6.716-15 15-15h36.5c8.284 0 15 6.716 15 15s-6.716 15-15 15h-36.5c-8.284 0-15-6.716-15-15zm121 55h-161c-11.046 0-20 8.954-20 20s8.954 20 20 20h161c11.046 0 20-8.954 20-20s-8.954-20-20-20z" fill="#fc6930"/></g></svg>