<svg id="Capa_1" enable-background="new 0 0 501 501" height="512" viewBox="0 0 501 501" width="512" xmlns="http://www.w3.org/2000/svg"><g><path d="m490 250.5c0 58.348-20.41 111.921-54.462 154h-381.076c-12.904-15.946-23.844-33.546-32.462-52.428v-36.976c0-10.101-7.836-18.352-17.758-19.055-2.776-14.757-4.242-29.977-4.242-45.541 0-135.31 109.69-245 245-245s245 109.69 245 245z" fill="#4f66cf"/><path d="m258 5.839c7.426.388 14.764 1.107 22 2.142v406.519h-22zm129 338.661h22v-276.016c-6.981-6.294-14.326-12.192-22-17.66zm-365-51.386v-144.227c-14.128 30.955-22 65.364-22 101.613 0 15.099 1.366 29.878 3.981 44.222 1.985 10.894 18.019 9.466 18.019-1.608zm107 121.386h22v-390.319c-7.531 3.131-14.871 6.628-22 10.467zm310-210h46.688c-1.286-6.77-2.85-13.44-4.681-20h-42.007c-5.523 0-10 4.477-10 10s4.477 10 10 10zm-400-86.678v31.678c0 2.761 2.239 5 5 5h60c2.761 0 5-2.239 5-5v-102.817c-27.914 18.663-51.78 42.908-70 71.139zm60 101.678h-50c-5.523 0-10 4.477-10 10s4.477 10 10 10h50c5.523 0 10-4.477 10-10s-4.477-10-10-10zm0-35h-50c-5.523 0-10 4.477-10 10s4.477 10 10 10h50c5.523 0 10-4.477 10-10s-4.477-10-10-10zm340 55h50c.254 0 .507-.01.756-.028-.298-6.731-.868-13.392-1.699-19.972h-49.057c-5.523 0-10 4.477-10 10s4.477 10 10 10zm-5-85h36.477c-10.301-24.164-24.374-46.334-41.477-65.772v60.772c0 2.761 2.239 5 5 5zm-335 100h-50c-5.523 0-10 4.477-10 10s4.477 10 10 10h50c5.523 0 10-4.477 10-10s-4.477-10-10-10zm259.5-35h-50c-5.523 0-10 4.477-10 10s4.477 10 10 10h50c5.523 0 10-4.477 10-10s-4.477-10-10-10zm2.225-185h-57.225c-2.761 0-5 2.239-5 5v110c0 2.761 2.239 5 5 5h60c2.761 0 5-2.239 5-5v-110c0-.227-.015-.449-.044-.667-2.548-1.49-5.125-2.934-7.731-4.333zm-131.725 220h-50c-5.523 0-10 4.477-10 10s4.477 10 10 10h50c5.523 0 10-4.477 10-10s-4.477-10-10-10zm129.5-70h-50c-5.523 0-10 4.477-10 10s4.477 10 10 10h50c5.523 0 10-4.477 10-10s-4.477-10-10-10zm130.5 70h-50c-5.523 0-10 4.477-10 10s4.477 10 10 10h49.839c.64-6.578 1.019-13.233 1.128-19.953-.318-.031-.641-.047-.967-.047zm-130.5 0h-50c-5.523 0-10 4.477-10 10s4.477 10 10 10h50c5.523 0 10-4.477 10-10s-4.477-10-10-10zm-129.5-35h-50c-5.523 0-10 4.477-10 10s4.477 10 10 10h50c5.523 0 10-4.477 10-10s-4.477-10-10-10zm5-185h-60c-2.761 0-5 2.239-5 5v110c0 2.761 2.239 5 5 5h60c2.761 0 5-2.239 5-5v-110c0-2.761-2.239-5-5-5zm-5 150h-50c-5.523 0-10 4.477-10 10s4.477 10 10 10h50c5.523 0 10-4.477 10-10s-4.477-10-10-10z" fill="#2740af"/><path d="m317.882 484.475c-23.023 7.164-47.501 11.025-72.882 11.025-59.581 0-114.193-21.271-156.661-56.63-.732-15.319-13.168-27.563-28.563-28.002-4.562-5.265-8.905-10.724-13.012-16.368h145.764c30.67 42.147 74.453 74.137 125.354 89.975z" fill="#174550"/><path d="m390.259 447.807c-25.741 18.982-55.326 33.052-87.376 40.815-57.289-13.876-106.711-47.888-140.354-94.122h280.707c-7.679 10.553-16.188 20.46-25.417 29.645h-1.895c-13.519 0-24.598 10.418-25.665 23.662z" fill="#024c67"/><path d="m419 344.5v78.479c-9.282 9.363-19.314 17.982-30 25.757v-104.236zm-360 65.471c9.14 10.651 19.179 20.507 30 29.453v-94.924h-30z" fill="#e55920"/><path d="m109 349.5v20c0 2.761-2.239 5-5 5h-60c-2.761 0-5-2.239-5-5v-20c0-2.761 2.239-5 5-5h60c2.761 0 5 2.239 5 5zm325-5h-60c-2.761 0-5 2.239-5 5v20c0 2.761 2.239 5 5 5h60c2.761 0 5-2.239 5-5v-20c0-2.761-2.239-5-5-5z" fill="#c64b1a"/><path d="m501 304.5v40c0 5.523-4.477 10-10 10h-467.895c-8.834-18.816-15.345-38.939-19.165-60h487.06c5.523 0 10 4.477 10 10z" fill="#f4aa39"/><path d="m501 304.5v20h-489.626c-3.085-9.75-5.578-19.764-7.434-30h487.06c5.523 0 10 4.477 10 10z" fill="#f1ca50"/><path d="m129 434.5v-150h130v150c0 5.523-4.477 10-10 10h-110c-5.523 0-10-4.477-10-10z" fill="#fdcbbb"/><path d="m159 434.5v-150h100v150c0 5.523-4.477 10-10 10h-80c-5.523 0-10-4.477-10-10z" fill="#fff5f5"/><path d="m309 249.5c0 8.284-6.716 15-15 15h-29.999c8.284 0 14.999 6.716 14.999 15s-6.716 15-15 15h-150c-8.284 0-15-6.716-15-15s6.716-15 15-15h29.999c-8.284-.001-14.999-6.716-14.999-15s6.716-15 15-15h-30c-8.284 0-15-6.716-15-15s6.716-15 15-15h150c8.284 0 15 6.716 15 15s-6.716 15-15 15h30c8.284 0 15 6.716 15 15z" fill="#b3d1e1"/><path d="m129 219.5c0-8.284 6.716-15 15-15h120c8.284 0 15 6.716 15 15s-6.716 15-15 15h-120c-8.284 0-15-6.716-15-15zm135 45h-120c-8.284 0-15 6.716-15 15 0 8.284 6.716 15 15 15h120c8.284 0 15-6.716 15-15 0-8.284-6.716-15-15-15z" fill="#e3f0fb"/><path d="m259 404.5h-130v-20h130zm0-60h-130v20h130zm50-95c0 8.284-6.716 15-15 15h-150c-8.284 0-15-6.716-15-15 0-8.284 6.716-15 15-15h150c8.284 0 15 6.716 15 15z" fill="#faab90"/><path d="m259 404.5h-100v-20h100zm0-60h-100v20h100zm50-95c0 8.284-6.716 15-15 15h-120c-8.284 0-15-6.716-15-15 0-8.284 6.716-15 15-15h120c8.284 0 15 6.716 15 15z" fill="#fdc3ab"/></g></svg>