<svg id="Capa_1" enable-background="new 0 0 512 512" height="512" viewBox="0 0 512 512" width="512" xmlns="http://www.w3.org/2000/svg"><g><path d="m73.307 410.554c-3.82.903-7.828-.461-10.249-3.55-32.613-41.611-52.058-94.036-52.058-151.004 0-135.31 109.69-245 245-245s245 109.69 245 245c0 56.978-19.452 109.411-52.075 151.025-2.411 3.076-6.402 4.434-10.206 3.535-55.924-13.22-117.728-20.56-182.719-20.56-64.98 0-126.776 7.338-182.693 20.554z" fill="#22b27f"/><path d="m487.679 176.111c8.633 25.04 13.321 51.917 13.321 79.889 0 56.978-19.452 109.411-52.075 151.025-2.411 3.076-6.402 4.434-10.206 3.535-55.924-13.22-117.729-20.56-182.719-20.56-64.98 0-126.776 7.338-182.693 20.554-3.82.903-7.828-.461-10.249-3.55-32.613-41.611-52.058-94.036-52.058-151.004 0-27.972 4.688-54.849 13.321-79.889z" fill="#059b7e"/><path d="m449.214 406.66c-44.838 57.422-114.714 94.34-193.214 94.34s-148.376-36.918-193.214-94.34l5.082-58.047c3.053-34.868 28.418-63.703 62.612-71.177h251.04c34.194 7.474 59.559 36.309 62.612 71.177z" fill="#efcfc8"/><path d="m126.332 278.459c-16.908 14.329-28.081 35.009-30.108 58.162l-11.722 94.344c-7.761-7.608-15.018-15.728-21.716-24.306l5.082-58.047c2.928-33.442 26.382-61.334 58.464-70.153zm239.668 91.541v104.977c6.857-3.451 13.53-7.215 20-11.273v-93.704z" fill="#eac0b5"/><path d="m366 309.772v165.205c-33.077 16.648-70.444 26.023-110 26.023s-76.923-9.375-110-26.023v-165.205c0-19.732 15.996-35.728 35.728-35.728h148.544c19.732 0 35.728 15.996 35.728 35.728z" fill="#a1ade5"/><path d="m256 250 76.951 16.82-77.283 56.409-77.13-56.298z" fill="#8694dd"/><path d="m381 130v20c0 11.046-8.954 20-20 20h-5c0 39.186-25.046 72.516-60 84.872v37.351c0 22.091-17.909 40-40 40-22.091 0-40-17.909-40-40v-37.351c-34.954-12.356-60-45.686-60-84.872h-5c-11.046 0-20-8.954-20-20v-20c0-11.046 8.954-20 20-20h5c0-49.706 40.294-90 90-90h20c49.706 0 90 40.294 90 90h5c11.046 0 20 8.954 20 20z" fill="#eac0b5"/><path d="m146 120v40c0 3.584.943 6.947 2.594 9.856-9.911-1.188-17.594-9.625-17.594-19.856v-20c0-10.231 7.683-18.668 17.594-19.856-1.651 2.909-2.594 6.272-2.594 9.856zm95.778 172.222v-32.324c-9.002-.416-17.656-2.156-25.778-5.027v37.351c0 22.091 17.909 40 40 40 4.51 0 8.845-.747 12.889-2.122-15.768-5.364-27.111-20.296-27.111-37.878z" fill="#e1a595"/><path d="m314.773 70c22.282 0 40.542 17.697 41.226 39.969.001.021.001.031.001.031v60.019c-.01 49.361-39.759 89.437-88.996 89.975-48.142-.534-87.004-39.725-87.004-87.994v-92c0-.07 0-.138 0-.206.017-5.422 4.435-9.794 9.858-9.794z" fill="#efcfc8"/><path d="m216.063 147.5c0 8.284-6.716 15-15 15s-15-6.716-15-15 6.716-15 15-15 15 6.716 15 15zm92.875-15c-8.284 0-15 6.716-15 15s6.716 15 15 15 15-6.716 15-15-6.716-15-15-15z" fill="#533022"/><path d="m216.063 140c0 4.142-3.358 7.5-7.5 7.5s-7.5-3.358-7.5-7.5 3.358-7.5 7.5-7.5 7.5 3.358 7.5 7.5zm100.375-7.5c-4.142 0-7.5 3.358-7.5 7.5s3.358 7.5 7.5 7.5 7.5-3.358 7.5-7.5-3.358-7.5-7.5-7.5z" fill="#fff5f5"/><path d="m236.969 117.5c0 4.142-3.358 7.5-7.5 7.5h-37.5c-4.142 0-7.5-3.358-7.5-7.5s3.358-7.5 7.5-7.5h37.5c4.142 0 7.5 3.358 7.5 7.5zm83.062-7.5h-37.5c-4.142 0-7.5 3.358-7.5 7.5s3.358 7.5 7.5 7.5h37.5c4.142 0 7.5-3.358 7.5-7.5s-3.358-7.5-7.5-7.5z" fill="#fc9368"/><path d="m320 80h-140v6c0 13.255-10.745 24-24 24v-30-10-40c0-16.569 13.432-30 30-30h64c38.66 0 70 31.34 70 70z" fill="#f16b38"/><path d="m356 30v40 10 30c-13.255 0-24-10.745-24-24v-4c0-1.105-.895-2-2-2h-.783c-5.231 0-10.378 1.143-15.205 3.159-11.183 4.671-32.969 7.841-58.012 7.841s-46.829-3.17-58.012-7.841c-4.827-2.016-9.973-3.159-15.205-3.159h-2.783v-10c0-38.66 31.34-70 70-70h76c16.569 0 30 13.431 30 30z" fill="#fd7d43"/><path d="m261.156 239.047h-10.313c-11.65 0-21.094-9.444-21.094-21.094 0-4.142 3.358-7.5 7.5-7.5h37.5c4.142 0 7.5 3.358 7.5 7.5.001 11.65-9.443 21.094-21.093 21.094z" fill="#dd9683"/><path d="m240 179.5c0-4.142 3.358-7.5 7.5-7.5h1v-24.5c0-4.142 3.358-7.5 7.5-7.5s7.5 3.358 7.5 7.5v24.5h1c4.142 0 7.5 3.358 7.5 7.5s-3.358 7.5-7.5 7.5h-1.278c-.876 3.17-3.774 5.5-7.222 5.5s-6.346-2.33-7.222-5.5h-1.278c-4.142 0-7.5-3.358-7.5-7.5zm34.75 30.953h-27.188c-4.142 0-7.5 3.358-7.5 7.5 0 11.65 9.444 21.094 21.094 21.094s21.094-9.444 21.094-21.094c0-4.142-3.358-7.5-7.5-7.5z" fill="#e1a595"/><path d="m446.88 380h-381.76l2.748-31.387c3.053-34.868 28.418-63.703 62.612-71.177l60.435-13.21 65.087 52.774 65.086-52.773 60.432 13.209c34.194 7.474 59.559 36.309 62.612 71.177z" fill="#f9eecf"/><path d="m431.132 380h-30.082l-1.446-16.609c-2.081-23.909-19.178-44.045-41.577-48.97l-24.527-5.393v179.46c-11.322 3.772-23.011 6.741-35 8.838v-207.93l29.247-23.714 5.753 1.257v15.813l32.058 7.048c35.199 7.739 60.905 36.56 63.965 71.717zm-252.632-113.06v15.813l-32.058 7.048c-35.2 7.739-60.905 36.56-63.966 71.716l-1.608 18.483h30.082l1.446-16.61c2.081-23.908 19.178-44.044 41.578-48.969l24.527-5.393v179.46c11.322 3.772 23.011 6.741 35 8.838v-207.934l-29.243-23.71zm60 42.723v190.722c5.78.408 11.616.615 17.5.615s11.72-.208 17.5-.615v-190.718l-17.497 14.187z" fill="#314dc8"/><path d="m170.437 268.702 20.477-4.476 65.088 52.774 65.086-52.773 20.479 4.476-85.564 69.377zm-108.966 95.862-.876 10c-.255 2.922 2.048 5.436 4.982 5.436h84.423v-20h-83.548c-2.592 0-4.755 1.981-4.981 4.564zm298.529-4.564v20h87.515c2.347 0 4.189-2.011 3.985-4.349l-1.051-12c-.181-2.066-1.911-3.651-3.985-3.651z" fill="#172a7d"/><path d="m366 343.08v131.897c-3.292 1.657-6.625 3.242-10 4.752v-136.649c0-2.761 2.239-5 5-5s5 2.239 5 5zm-215-5c-2.761 0-5 2.239-5 5v131.897c3.292 1.657 6.625 3.242 10 4.752v-136.649c0-2.761-2.239-5-5-5z" fill="#8694dd"/><path d="m173.975 267.929 82.028 135.925 82.027-135.924c6.287.054 12.502 1.344 18.291 3.797l.98.415-101.298 167.858-101.299-167.858 1.784-.741c5.543-2.3 11.486-3.48 17.487-3.472z" fill="#c64b1a"/><path d="m292.185 440.513h.057v67.77c0 2.053-1.665 3.718-3.718 3.718h-17.528c-1.812 0-3.36-1.306-3.665-3.093l-5.893-34.554c-1.774.267-3.59.407-5.439.407-20.016 0-36.242-16.226-36.242-36.242s16.226-36.242 36.242-36.242 36.242 16.226 36.242 36.242c.001.668-.02 1.333-.056 1.994z" fill="#fc5426"/><path d="m256 462.737c-13.376 0-24.219-10.843-24.219-24.219s10.843-24.219 24.219-24.219 24.219 10.843 24.219 24.219-10.843 24.219-24.219 24.219z" fill="#d63d24"/><path d="m292.242 468.775v6.65h-6.65c-1.836 0-3.325-1.489-3.325-3.325 0-1.836 1.489-3.325 3.325-3.325zm-36.242-20.909c5.163 0 9.348-4.185 9.348-9.348s-4.185-9.348-9.348-9.348-9.348 4.185-9.348 9.348 4.185 9.348 9.348 9.348zm19.58-22.369c-.048-.02-.096-.04-.145-.059-3.209-1.291-6.227 2.161-4.604 5.216 1.246 2.346 1.953 5.022 1.953 7.863 0 9.232-7.552 16.785-16.784 16.784-2.841 0-5.518-.706-7.863-1.952-3.055-1.623-6.507 1.394-5.216 4.604.02.049.039.097.059.145.324.78.915 1.419 1.661 1.815 3.643 1.938 7.839 2.973 12.29 2.807 12.575-.471 22.801-10.696 23.272-23.271.167-4.451-.868-8.648-2.807-12.291-.397-.745-1.036-1.337-1.816-1.661z" fill="#fd7d43"/></g></svg>