<svg id="Capa_1" enable-background="new 0 0 501 501" height="512" viewBox="0 0 501 501" width="512" xmlns="http://www.w3.org/2000/svg"><g><path d="m.036 251.749c2.27-133.349 111.074-240.749 244.964-240.749s242.694 107.4 244.964 240.749z" fill="#4f66cf"/><path d="m490 256c0 135.31-109.69 245-245 245-51.549 0-99.379-15.92-138.843-43.112v-32.32c0-52.144-42.271-94.415-94.415-94.415-7.624-23.681-11.742-48.936-11.742-75.153 0-5.375.173-10.71.514-16h488.971c.342 5.29.515 10.625.515 16z" fill="#2740af"/><path d="m408.5 262.5c11.046 0 20 8.954 20 20v110h-15v-105c0-5.523-4.477-10-10-10h-151v112.5h-15v-112.5h-151c-5.523 0-10 4.477-10 10v105h-15v-110c0-11.046 8.954-20 20-20h156v-112.5h15v112.5z" fill="#f9eecf"/><path d="m320.077 202.114c-48.11 41.464-120.725 36.076-162.189-12.035s-36.075-120.725 12.035-162.189 120.725-36.076 162.189 12.035 36.075 120.725-12.035 162.189z" fill="#fd7d43"/><path d="m206.604 223.423c-18.272-6.452-35.159-17.614-48.716-33.344-41.464-48.11-36.076-120.725 12.035-162.189 15.73-13.557 34.08-22.105 53.104-25.789-60.29 59.036-67.339 154.035-16.423 221.322z" fill="#f16b38"/><path d="m296.475 141.641c-16.112-23.807-38.389-38.413-63.069-41.469-5.459 43.502.222 88.301 17.393 129.689-4.516.225-9.04.184-13.545-.12-2.036-5.185-3.913-10.445-5.629-15.777-10.593-32.899-14.662-67.127-12.095-101.733.313-4.222.724-8.424 1.23-12.604-19.218.716-37.869 8.462-54.051 22.408-3.289 2.835-6.478 5.927-9.547 9.268-7.289 7.933-13.603 16.926-18.84 26.731-2.096-5.195-3.794-10.505-5.096-15.883 4.405-6.893 9.344-13.342 14.781-19.259 21.063-22.924 47.282-35.427 74.563-35.748 2.073-12.26 4.99-24.314 8.738-36.117-22.449-3.614-43.9-10.747-63.714-21.075.765-.695 1.541-1.383 2.329-2.062 2.73-2.353 5.539-4.554 8.417-6.606 18.159 8.787 37.444 14.69 57.131 17.656 3.22-8.668 6.901-17.189 11.036-25.544 2.196-4.436 4.507-8.798 6.933-13.084 4.504.331 8.989.927 13.429 1.784-7.29 12.327-13.468 25.165-18.523 38.361 25.582 2.178 51.572-.553 76.418-8.308 2.543 2.454 4.997 5.046 7.349 7.776.679.788 1.345 1.582 1.999 2.383-26.791 9.248-55.428 13.022-84.522 10.863-1.864-.138-3.722-.301-5.574-.486-3.757 11.532-6.68 23.294-8.761 35.188 28.164 3.577 53.414 20.051 71.518 46.8 11.469 16.946 19.236 36.819 22.932 58.13-2.991 3.248-6.2 6.359-9.625 9.311-.466.402-.935.798-1.405 1.191-2.672-22.76-10.237-43.987-22.2-61.664z" fill="#c64b1a"/><path d="m501 387.023c0 21.699-8.639 41.381-22.666 55.793-14.533 14.932-100.49 14.77-115.048-.393-13.802-14.375-22.286-33.897-22.286-55.4 0-44.183 35.817-80 80-80s80 35.818 80 80zm-256-80c-44.183 0-80 35.817-80 80 0 21.504 8.484 41.025 22.287 55.401 14.558 15.162 100.513 15.324 115.047.392 14.027-14.412 22.666-34.093 22.666-55.793 0-44.182-35.817-80-80-80z" fill="#f4aa39"/><path d="m501 387.023c0 27.139-13.513 51.121-34.178 65.585-3.978.481-8.028.729-12.136.729-55.229 0-100-44.771-100-100 0-4.108.248-8.158.729-12.136 14.465-20.665 38.447-34.178 65.585-34.178 44.183 0 80 35.818 80 80zm-253.866-79.972c-28.013-.729-52.877 12.945-67.72 34.15-.504 4.163-.751 8.403-.727 12.707.307 55.074 46.894 100.469 101.959 99.411.274-.005.547-.012.82-.019 6.402-.175 12.515-2.697 17.258-7 16.626-15.078 26.881-37.053 26.248-61.409-1.099-42.271-35.567-76.739-77.838-77.84zm-178.134-.028c-22.444 0-42.73 9.243-57.258 24.13 8.3 25.781 20.756 49.698 36.578 70.962 14.505 19.492 62.523 50.975 66.501 50.493 20.666-14.464 34.179-38.446 34.179-65.585 0-44.182-35.817-80-80-80z" fill="#fdbf43"/><path d="m478.334 442.816c-14.534 14.932-34.851 24.207-57.334 24.207-22.681 0-43.156-9.438-57.715-24.602l7.366-23.841c1.938-6.396 7.147-11.266 13.658-12.771l5.807-1.343 21.555-4.976v-1.476c0-.043.001-.085.002-.128-12.738-2.718-22.292-14.035-22.292-27.585h-1.567c-3.462 0-6.268-2.806-6.268-6.268v-6.268c0-3.462 2.806-6.268 6.268-6.268h1.567v-6.268c0-12.116 9.822-21.938 21.938-21.938h18.804c12.116 0 21.938 9.822 21.938 21.938v6.268h1.567c3.462 0 6.268 2.806 6.268 6.268v6.268c0 3.462-2.806 6.268-6.268 6.268h-1.567c0 13.549-9.554 24.867-22.292 27.585.001.043.002.085.002.128v1.47l21.628 4.981.006.019 5.727 1.324c6.511 1.505 11.72 6.376 13.658 12.771zm-197.202-37.006-5.727-1.324-.006-.019-21.628-4.981v-1.47c0-.043-.001-.085-.002-.128 12.738-2.718 22.292-14.035 22.292-27.585h1.567c3.462 0 6.268-2.806 6.268-6.268v-6.268c0-3.462-2.806-6.268-6.268-6.268h-1.567v-6.268c0-12.116-9.822-21.938-21.938-21.938h-18.804c-12.116 0-21.938 9.822-21.938 21.938v6.268h-1.567c-3.462 0-6.268 2.806-6.268 6.268v6.268c0 3.462 2.806 6.268 6.268 6.268h1.567c0 13.549 9.554 24.867 22.292 27.585-.001.043-.002.085-.002.128v1.476l-21.555 4.976-5.807 1.343c-6.51 1.505-11.72 6.376-13.658 12.771l-7.366 23.841c14.558 15.163 35.034 24.602 57.715 24.602 22.483 0 42.8-9.275 57.334-24.208l-7.544-24.235c-1.938-6.396-7.147-11.267-13.658-12.772zm-176 0-5.727-1.324-.006-.019-21.628-4.981v-1.47c0-.043-.001-.085-.002-.128 12.738-2.718 22.292-14.035 22.292-27.585h1.567c3.462 0 6.268-2.806 6.268-6.268v-6.268c0-3.462-2.806-6.268-6.268-6.268h-1.567v-6.268c0-12.116-9.822-21.938-21.938-21.938h-18.804c-12.116 0-21.938 9.822-21.938 21.938v6.268h-1.567c-3.462 0-6.268 2.806-6.268 6.268v6.268c0 3.462 2.806 6.268 6.268 6.268h1.567c0 13.549 9.554 24.867 22.292 27.585-.001.043-.002.085-.002.128v1.475l-11.353 2.621c16.079 21.609 35.635 40.477 57.839 55.777 7.508-3.945 14.313-9.048 20.177-15.072l-7.544-24.235c-1.938-6.396-7.147-11.267-13.658-12.772z" fill="#f3d6ac"/><path d="m101.428 436.439c2.884 2.884 4.504 6.794 4.504 10.873v10.42c-12.959-8.951-25.013-19.117-35.998-30.335 8.218-.635 14.549-7.721 14.549-16.051v-10.314l12.441 2.865v21.67c.001 4.079 1.621 7.989 4.504 10.872zm347.497-10.872v-21.67l-12.441-2.865v10.314c0 8.577-6.712 15.836-15.286 16.09-8.908.265-16.24-6.905-16.24-15.755v-10.641l-12.441 2.872v21.655c0 4.078-1.62 7.988-4.504 10.872s-4.504 6.794-4.504 10.873v10.401c11.183 5.943 23.943 9.311 37.49 9.311 13.322 0 25.883-3.256 36.932-9.017v-10.695c0-4.078-1.62-7.989-4.504-10.873-2.882-2.883-4.502-6.793-4.502-10.872zm-176 0v-21.67l-12.441-2.865v10.314c0 8.577-6.712 15.836-15.286 16.09-8.908.265-16.24-6.905-16.24-15.755v-10.641l-12.441 2.872v21.655c0 4.078-1.62 7.988-4.504 10.872s-4.504 6.794-4.504 10.873v10.401c11.183 5.943 23.943 9.311 37.49 9.311 13.322 0 25.883-3.256 36.932-9.017v-10.695c0-4.078-1.62-7.989-4.504-10.873-2.882-2.883-4.502-6.793-4.502-10.872z" fill="#fff5f5"/><path d="m455.932 459.014v-11.701c0-2.504-.976-4.859-2.746-6.631-4.037-4.037-6.261-9.405-6.261-15.114v-22.131l4.474 1.03.006.019 3.52.814v20.268c0 3.572 1.392 6.931 3.917 9.458 3.282 3.282 5.09 7.646 5.09 12.287v7.227c-2.571 1.638-5.241 3.132-8 4.474zm-70.422-.274v-11.427c0-2.504.976-4.859 2.747-6.631 4.037-4.037 6.26-9.405 6.26-15.114v-22.117l-4.401 1.016-3.599.833v20.268c0 3.572-1.392 6.931-3.917 9.458-3.282 3.282-5.09 7.646-5.09 12.287v6.868c2.569 1.666 5.239 3.19 8 4.559zm56.973-47.393v-8.933l-8-1.842v10.774c0 7.552-5.986 13.873-13.346 14.092-3.735.111-7.301-1.268-9.996-3.885-2.698-2.619-4.184-6.124-4.184-9.871v-11.103l-8 1.847v9.256c0 5.93 2.348 11.474 6.61 15.61 4.086 3.967 9.464 6.151 15.143 6.151.221 0 .442-.003.664-.01 11.64-.343 21.109-10.251 21.109-22.086zm-154.551 43.193v-7.227c0-4.642-1.808-9.005-5.09-12.287-2.525-2.527-3.917-5.886-3.917-9.458v-20.268l-3.52-.814-.006-.019-4.474-1.03v22.131c0 5.709 2.224 11.077 6.261 15.114 1.771 1.771 2.746 4.127 2.746 6.631v11.701c2.759-1.342 5.429-2.836 8-4.474zm-78.422 4.2v-11.427c0-2.504.976-4.859 2.747-6.631 4.037-4.037 6.26-9.405 6.26-15.114v-22.117l-4.401 1.016-3.599.833v20.268c0 3.572-1.392 6.931-3.917 9.458-3.282 3.282-5.09 7.646-5.09 12.287v6.868c2.569 1.666 5.239 3.19 8 4.559zm56.973-47.393v-8.933l-8-1.842v10.774c0 7.552-5.986 13.873-13.346 14.092-3.735.111-7.301-1.268-9.996-3.885-2.698-2.619-4.184-6.124-4.184-9.871v-11.103l-8 1.847v9.256c0 5.93 2.348 11.474 6.61 15.61 4.086 3.967 9.464 6.151 15.143 6.151.221 0 .442-.003.664-.01 11.64-.343 21.109-10.251 21.109-22.086zm-176 0v-8.933l-8-1.842v10.774c0 7.552-5.986 13.873-13.346 14.092-.373.011-.743.007-1.112-.011 2.295 2.397 4.639 4.748 7.029 7.05 8.89-2.792 15.429-11.296 15.429-21.13zm12.442 14.22v-20.268l-3.52-.814-.006-.019-4.474-1.03v22.131c0 5.709 2.224 11.077 6.261 15.114 1.771 1.771 2.746 4.127 2.746 6.631v9.023c.739.521 1.481 1.039 2.225 1.552 1.975-1.037 3.901-2.154 5.775-3.348v-7.227c0-4.642-1.808-9.005-5.09-12.287-2.526-2.527-3.917-5.885-3.917-9.458zm-47.967-14.929v-10.059l-6.64 1.533c2.152 2.891 4.366 5.734 6.64 8.526z" fill="#f19b0b"/><path d="m428.258 323.292h1.865c12.116 0 21.938 9.822 21.938 21.938v25.072c0 13.754-9.844 25.208-22.871 27.702-13.027-2.494-22.871-13.949-22.871-27.702v-25.072c0-12.116 9.822-21.938 21.939-21.938zm-197.939 21.938v25.072c0 13.754 9.844 25.208 22.871 27.702 13.027-2.494 22.871-13.949 22.871-27.702v-25.072c0-12.116-9.822-21.938-21.938-21.938h-1.865c-12.117 0-21.939 9.822-21.939 21.938zm-176 0v25.072c0 13.754 9.844 25.208 22.871 27.702 13.027-2.494 22.871-13.949 22.871-27.702v-25.072c0-12.116-9.822-21.938-21.938-21.938h-1.865c-12.117 0-21.939 9.822-21.939 21.938z" fill="#f8e6cc"/><path d="m452.061 342.096h-55.159v1.88c0 4.154-3.368 7.522-7.522 7.522v-12.536c0-12.116 9.822-21.938 21.938-21.938h18.804c12.116 0 21.938 9.822 21.938 21.938v3.134zm-176-3.134c0-12.116-9.822-21.938-21.938-21.938h-18.804c-12.116 0-21.938 9.822-21.938 21.938v12.536c4.154 0 7.522-3.368 7.522-7.522v-1.88h55.159v-3.134zm-176 0c0-12.116-9.822-21.938-21.938-21.938h-18.804c-12.116 0-21.938 9.822-21.938 21.938v12.536c4.154 0 7.522-3.368 7.522-7.522v-1.88h55.159v-3.134z" fill="#d98800"/><path d="m452.061 338.962v12.536c-4.154 0-7.522-3.368-7.522-7.522v-1.88h-38.22v-3.134c0-12.116 9.822-21.938 21.938-21.938h1.865c12.117-.001 21.939 9.821 21.939 21.938zm-176 0c0-12.116-9.822-21.938-21.938-21.938h-1.865c-12.116 0-21.938 9.822-21.938 21.938v3.134h38.22v1.88c0 4.154 3.368 7.522 7.522 7.522v-12.536zm-176 0c0-12.116-9.822-21.938-21.938-21.938h-1.865c-12.116 0-21.938 9.822-21.938 21.938v3.134h38.22v1.88c0 4.154 3.368 7.522 7.522 7.522v-12.536z" fill="#f19b0b"/></g></svg>