<svg id="Capa_1" enable-background="new 0 0 501 501" height="512" viewBox="0 0 501 501" width="512" xmlns="http://www.w3.org/2000/svg"><g><path d="m495.5 245c0 6.261-.235 12.466-.696 18.609-.052.694-1.996.761-2.054 1.454-.256 3.061-.633 6.534-1 9.563-.088.727 1.774 1.65 1.679 2.375-15.678 120.188-118.465 212.999-242.929 212.999-135.31 0-245-109.69-245-245s109.69-245 245-245c83.441 0 157.14 41.713 201.381 105.424.549.791-.338 2.403.202 3.201 1.233 1.821 3.148 4.519 4.333 6.375.304.476 1.332-.724 1.633-.245 23.727 37.729 37.451 82.384 37.451 130.245z" fill="#05a2f9"/><path d="m250.5 0c44.291 0 85.837 11.753 121.69 32.311 20.557 35.852 32.31 77.398 32.31 121.689 0 135.31-109.69 245-245 245-44.291 0-85.837-11.753-121.69-32.311-20.557-35.852-32.31-77.398-32.31-121.689 0-135.31 109.69-245 245-245z" fill="#63bcfa"/><path d="m493.429 277h-84.308l14.644 58.575c.973 3.89-3.747 6.633-6.645 3.861l-77.649-74.255-59.145-8.594 42.797-41.717 12.587-122.169c.41-3.984 5.771-4.959 7.558-1.375l40.732 81.674 67.884-67.572c2.124 3.058 4.18 6.167 6.165 9.325l-30.928 108.247 67.682 40.609c-.337 4.499-.796 8.964-1.374 13.391z" fill="#f9eecf"/><path d="m204.5 131c102.173 0 185 82.827 185 185s-82.827 185-185 185-185-82.827-185-185 82.827-185 185-185z" fill="#fd7d43"/><path d="m43.845 407.795c-15.49-27.051-24.345-58.389-24.345-91.795 0-102.173 82.827-185 185-185 33.406 0 64.744 8.855 91.795 24.345-135.468 8.622-243.828 116.982-252.45 252.45z" fill="#f16b38"/><path d="m389.476 313.037c.016.986.024 1.974.024 2.963 0 7.275-.421 14.452-1.237 21.508-29.851 17.878-62.225 29.285-94.92 33.106-51.609 6.032-98.203-7.436-132.139-37.999-12.308 15.028-23.571 30.942-33.678 47.632 2.172 2.062 4.321 4.156 6.446 6.281 33.187 33.187 58.663 72.047 75.531 114.405-1.662.044-3.33.067-5.003.067-5.798 0-11.533-.268-17.194-.789-16.644-38.421-40.611-72.96-70.132-101.846-10.771 20.019-19.927 41.031-27.292 62.86-5.707-4.511-11.143-9.35-16.277-14.49 2.676-7.457 5.564-14.855 8.663-22.189 5.838-13.815 12.356-27.248 19.537-40.276-24.29-20.875-51.737-38.174-81.516-51.075-.521-5.662-.789-11.397-.789-17.195 0-1.673.023-3.341.067-5.003 33.395 13.298 64.615 31.947 92.596 55.507 10.446-16.964 22.071-33.177 34.834-48.579-28.26-33.581-40.56-78.663-34.747-128.404 1.501-12.84 4.172-25.631 7.945-38.238 7.921-4.062 16.174-7.57 24.706-10.471-6.447 16.68-10.775 33.819-12.787 51.032-.848 7.249-1.267 14.382-1.267 21.368 0 34.366 10.149 65.228 29.459 89.399 4.562-5.007 9.251-9.92 14.067-14.736 39.474-39.473 85.457-70.462 136.672-92.105 8.3-3.507 16.681-6.744 25.137-9.709 5.102 5.17 9.902 10.64 14.371 16.379-68.468 22.543-129.025 62.669-176.302 115.009 29.643 26.865 70.838 38.671 116.769 33.302 34.107-3.988 67.919-17.064 98.456-37.714z" fill="#c64b1a"/><path d="m375.307 203.769c5.511 12.124 2.388 26.429-7.674 35.153-3.401 2.949-8.353 3.262-12.098.765l-51.244-34.163-99.267-25.966c16.339 20.992 29.611 40.687 38.655 57.045 7.857 14.21-9.223 29.025-22.181 19.24-21.624-16.331-48.936-42.447-76.282-73.973-17.637-20.333-33.047-40.332-45.285-58.333l-38.575-34.27c25.028-30.363 57.226-54.595 94.002-70.107l51.645 57.479.057-.112 126.129 62.01c10.381 5.104 18.671 13.649 23.458 24.18z" fill="#a95947"/><path d="m380.603 238.366c-1.922.601-3.89.282-5.756-.544-2.358-1.043-5.096-.766-7.03.939-.063.055-.126.11-.189.165-3.399 2.945-8.351 3.256-12.093.761l-51.244-34.163-99.576-25.657c-.062-.09-.124-.18-.186-.27-6.259-9.076 2.116-21.052 12.79-18.291l104.224 26.966 5.222 3.481c1.824 1.216 3.887-1.164 2.425-2.797s-64.402-41.968-81.19-54.557c-5.916-4.436.239-18.834 9.357-12.616l82.424 42.52c7.789 4.018 14.553 9.771 19.769 16.815l28.724 38.787c.923 1.245 8.221 13.495-7.671 18.461zm-319.247-149.099 38.576 34.271c12.238 18.001 27.648 38 45.285 58.333 27.346 31.526 54.658 57.643 76.282 73.973 11.449 8.646 26.115-1.913 23.957-14.291-2.26-.379-4.54-1.326-6.705-2.961-21.624-16.331-48.936-42.447-76.282-73.973-17.637-20.333-33.047-40.332-45.285-58.333l-39.425-35.026c-5.758 5.725-11.233 11.735-16.403 18.007z" fill="#954d3b"/><path d="m201.891 199.514-7.86 6.182c-2.171 1.707-5.314 1.332-7.021-.839-1.707-2.17-1.332-5.314.839-7.021l7.86-6.182c2.17-1.707 5.314-1.332 7.021.839s1.331 5.314-.839 7.021zm13.203 8.7c-1.707-2.171-4.851-2.546-7.021-.839l-7.86 6.182c-2.17 1.707-2.546 4.851-.839 7.021 1.707 2.17 4.851 2.546 7.021.839l7.86-6.182c2.171-1.707 2.546-4.851.839-7.021z" fill="#7d402d"/><path d="m219.17 237.159 5.275-4.959c2.952-2.775 7.709-2.182 9.885 1.235.697 1.094 1.364 2.167 2.002 3.218 5.28 8.709-5.083 18.452-13.45 12.645-1.01-.701-2.04-1.434-3.089-2.196-3.276-2.384-3.575-7.168-.623-9.943z" fill="#e1a595"/></g></svg>