<svg id="Capa_1" enable-background="new 0 0 501 501" height="512" viewBox="0 0 501 501" width="512" xmlns="http://www.w3.org/2000/svg"><g><path d="m470.509 327.49h-393.67c-39.167 0-71.222-31.577-71.338-70.744-.001-.249-.001-.497-.001-.746 0-56.728 19.28-108.953 51.645-150.48.968-1.242 7.197.536 8.188-.687 1.354-1.669-2.521-6.331-1.125-7.964 44.936-52.555 111.723-85.869 186.29-85.869 135.256-.001 245.237 110.18 245.002 245.435-.034 19.492-2.344 38.45-6.679 56.623-2.02 8.468-9.607 14.432-18.312 14.432z" fill="#05a2f9"/><path d="m52.017 112.341c11.354-15.659 34.612-15.659 45.966 0 29.263 40.36 46.517 89.995 46.517 143.659 0 2.771-.046 5.531-.137 8.279-2.947 88.752-135.778 88.752-138.725 0-.092-2.748-.138-5.508-.138-8.279 0-53.664 17.254-103.299 46.517-143.659z" fill="#3691bb"/><path d="m254.002 254.002c4.725-2.562 10.014-3.904 15.389-3.904h17.198c12.731 0 24.273 7.481 29.472 19.103l21.011 46.97c2.368 5.294 3.592 11.028 3.592 16.828 0 6.398 1.49 12.708 4.351 18.43l2.199 4.398c-16.783 27.295-39.18 50.768-65.583 68.81h-57.481v-166.731h14.463c2.797 0 5.506-.305 8.189-1.015 2.473-.654 4.934-1.66 7.2-2.889zm-200.198.162c-4.841-2.559-10.168-4.065-15.644-4.065h-17.246c-5.495 0-10.768 1.394-15.406 3.913v.001c-.354 44.619 11.22 86.506 31.725 122.665.206.363.423.732.652 1.106 12.864 21.086 45.47 11.572 45.47-13.128v-106.75h-14.464c-2.775 0-5.525-.316-8.189-1.015-2.386-.626-4.702-1.566-6.898-2.727z" fill="#eac0b5"/><path d="m281.631 424.638h-57.481v-166.732h14.463c2.785 0 5.516-.311 8.189-1.015 2.485-.654 4.924-1.655 7.2-2.889 3.276-1.776 6.824-2.966 10.484-3.529v85.181c0 16.262 11.439 29.853 26.709 33.165 4.232.918 7.227 4.7 7.227 9.031v34.14c-5.393 4.466-10.996 8.688-16.791 12.648zm-275.229-147.465 3.566-7.972c5.108-11.419 16.341-18.841 28.808-19.096-.221-.004-.442-.007-.664-.007h-17.198c-5.495 0-10.768 1.394-15.406 3.913-.005.663-.008 1.325-.008 1.989 0 7.133.305 14.195.902 21.173z" fill="#e1a595"/><path d="m280.738 386.583v112.569c-9.908 1.219-20 1.848-30.238 1.848-91.435 0-171.171-50.088-213.267-124.322 13.62-4.412 23.469-17.201 23.469-32.291v-87.497l93.05-25.318 93.05 25.318v87.497c0 16.262 11.439 29.853 26.709 33.165 4.232.918 7.227 4.7 7.227 9.031z" fill="#fd7a7a"/><path d="m280.738 386.583v112.569c-9.908 1.219-20 1.848-30.238 1.848-14.733 0-29.161-1.301-43.178-3.793v-160.029c0-7.791 4.874-14.748 12.195-17.411l27.285-9.922v34.542c0 16.262 11.439 29.853 26.709 33.165 4.232.918 7.227 4.7 7.227 9.031zm-192.751-66.816-27.285-9.922v34.542c0 15.09-9.849 27.878-23.469 32.291 16.012 28.237 37.471 52.98 62.948 72.802v-112.302c0-7.791-4.873-14.748-12.194-17.411zm13.892-74.08v25.716c0 28.136 22.809 50.946 50.946 50.946s50.946-22.81 50.946-50.946v-26.221l-50.02-13.61z" fill="#fd4343"/><path d="m269.538 120.418v18.526c0 10.231-8.294 18.526-18.526 18.526h-4.631c0 36.298-23.198 67.178-55.578 78.622v34.591c0 20.463-16.589 37.052-37.052 37.052-20.463 0-37.052-16.589-37.052-37.052v-34.591c-32.379-11.444-55.578-42.324-55.578-78.622h-4.631c-10.232 0-18.526-8.294-18.526-18.526v-18.526c0-10.231 8.294-18.526 18.526-18.526h4.631v-18.526c0-35.811 29.03-64.84 64.84-64.84h55.578c35.81 0 64.84 29.03 64.84 64.84v18.526h4.631c10.234 0 18.528 8.294 18.528 18.526z" fill="#eac0b5"/><path d="m54.262 157.336c-9.181-1.101-16.297-8.916-16.297-18.393v-18.526c0-9.477 7.116-17.292 16.297-18.393-1.529 2.695-2.403 5.81-2.403 9.13v37.052c.001 3.32.874 6.436 2.403 9.13zm86.316 113.347v-29.938c-8.338-.385-16.355-1.995-23.878-4.654v34.591c0 20.463 16.589 37.052 37.052 37.052 4.177 0 8.193-.692 11.939-1.966-14.606-4.968-25.113-18.799-25.113-35.085z" fill="#e1a595"/><path d="m164.867 240.835c-45.019 0-81.514-36.495-81.514-81.514v-75.955c0-35.81 29.03-64.84 64.84-64.84h33.347c35.81 0 64.84 29.03 64.84 64.84v75.956c.001 45.019-36.494 81.513-81.513 81.513z" fill="#efcfc8"/><path d="m158.528 221.427h-9.552c-10.791 0-19.539-8.748-19.539-19.539 0-3.837 3.11-6.947 6.947-6.947h34.736c3.837 0 6.947 3.11 6.947 6.947 0 10.791-8.748 19.539-19.539 19.539z" fill="#dd9683"/><path d="m148.323 194.941h22.797c3.837 0 6.947 3.11 6.947 6.947 0 10.39-8.11 18.886-18.346 19.503-10.235-.616-18.346-9.112-18.346-19.503 0-3.837 3.111-6.947 6.948-6.947zm20.249-28.672c0 3.837-3.11 6.947-6.947 6.947h-1.177c-.811 2.937-3.502 5.095-6.697 5.095-3.195 0-5.886-2.157-6.697-5.095h-1.176c-3.837 0-6.947-3.11-6.947-6.947s3.11-6.947 6.947-6.947h.926v-22.694c0-3.837 3.11-6.947 6.947-6.947 3.837 0 6.947 3.11 6.947 6.947v22.694h.926c3.838 0 6.948 3.11 6.948 6.947z" fill="#e1a595"/><path d="m116.758 136.628c0 7.674-6.221 13.894-13.894 13.894s-13.894-6.221-13.894-13.894c0-7.674 6.221-13.895 13.894-13.895s13.894 6.221 13.894 13.895zm86.029-13.895c-7.674 0-13.894 6.221-13.894 13.895s6.221 13.894 13.894 13.894 13.894-6.221 13.894-13.894c.001-7.674-6.22-13.895-13.894-13.895z" fill="#172a7d"/><path d="m136.123 108.839c0 3.837-3.11 6.947-6.947 6.947h-34.736c-3.837 0-6.947-3.11-6.947-6.947s3.11-6.947 6.947-6.947h34.736c3.837 0 6.947 3.11 6.947 6.947zm76.94-6.947h-34.736c-3.837 0-6.947 3.11-6.947 6.947s3.11 6.947 6.947 6.947h34.736c3.837 0 6.947-3.11 6.947-6.947s-3.11-6.947-6.947-6.947z" fill="#f4aa39"/><path d="m246.381 74.103h-163.027v5.558c0 12.278-9.953 22.231-22.231 22.231v-37.052c0-35.81 29.03-64.84 64.84-64.84h55.578c35.81 0 64.84 29.03 64.84 64.84z" fill="#f19b0b"/><path d="m246.381 64.84v37.052c-12.278 0-22.231-9.953-22.231-22.231v-3.558c0-1.105-.895-2-2-2-4.982 0-9.932.928-14.521 2.867-10.316 4.359-30.574 7.322-53.877 7.322-22.988 0-43.012-2.884-53.452-7.146-4.896-1.999-10.12-3.043-15.408-3.043h-1.537v-9.263c0-35.81 29.03-64.84 64.84-64.84h33.347c35.809 0 64.839 29.03 64.839 64.84z" fill="#fdbf43"/><path d="m401.064 407.455v-100.473h14.511c5.476 0 10.803-1.506 15.644-4.065 4.648-2.457 9.826-3.742 15.087-3.742h17.198c10.174 0 19.588 4.778 25.613 12.628-9.506 40.808-29.21 77.699-56.28 107.841-11.16 12.426-31.773 4.511-31.773-12.189zm-170.95-104.538c-4.647-2.457-9.827-3.742-15.087-3.742h-17.198c-12.731 0-24.273 7.481-29.472 19.103 0 0-26.078 76.476-28.954 82.228-1.446 2.893-2.199 6.082-2.199 9.316l16.989 71.524c15.968 6.833 32.808 12.018 50.307 15.343l55.768-22.974-14.51-166.732c-5.476-.001-10.803-1.507-15.644-4.066z" fill="#b76c54"/><path d="m401.064 406.382v-99.4h14.463c5.413 0 10.721-1.393 15.489-3.957 3.249-1.747 6.762-2.918 10.384-3.475v85.181c0 6.661 1.919 12.873 5.234 18.114-4.146 5.528-8.52 10.876-13.108 16.028-11.346 12.74-32.462 4.57-32.462-12.491zm-210.926-88.104c4.884-10.917 15.366-18.181 27.173-19.021-.759-.054-1.521-.082-2.285-.082h-17.198c-12.731 0-24.273 7.481-29.472 19.103 0 0-26.078 76.476-28.954 82.228-1.446 2.893-2.199 6.082-2.199 9.316l16.989 71.524c6.248 2.673 12.629 5.095 19.131 7.251l-10.453-57.431c-.689-3.786 2.89-6.95 6.563-5.802l15.163 4.738c2.088.653 3.558-2.041 1.879-3.444l-23.956-20.011c-1.785-1.491-2.389-4.022-1.353-6.104.006-.012.012-.024.018-.037 2.877-5.752 28.954-82.228 28.954-82.228z" fill="#a95947"/><path d="m434.258 418.048c-44.893 50.868-110.579 82.952-183.758 82.952-16.012 0-31.665-1.536-46.82-4.469v-60.871c0-4.331 2.995-8.113 7.227-9.031 15.27-3.312 26.709-16.902 26.709-33.165v-87.497l93.05-25.318 93.05 25.318v87.497c0 9.674 4.048 18.402 10.542 24.584z" fill="#e3f0fb"/><path d="m434.258 418.048c-14.621 16.567-31.448 31.142-50.021 43.265v-75.058c0-7.79 4.874-14.748 12.195-17.411l27.285-9.921v34.542c-.001 9.673 4.047 18.401 10.541 24.583zm-169.357-49.204-27.285-9.921v34.542c0 16.262-11.438 29.853-26.709 33.165-4.232.918-7.227 4.7-7.227 9.031v60.872c15.155 2.933 30.808 4.469 46.82 4.469 8.986 0 17.86-.484 26.596-1.427v-113.321c0-7.79-4.874-14.748-12.195-17.41zm13.893-74.08v25.716c0 28.137 22.809 50.946 50.946 50.946s50.946-22.809 50.946-50.946v-26.22l-50.02-13.61z" fill="#22b27f"/><path d="m446.452 169.495v18.526c0 10.232-8.294 18.526-18.526 18.526h-4.631c0 36.298-23.198 67.178-55.578 78.622v34.591c0 20.463-16.589 37.052-37.052 37.052-20.463 0-37.052-16.589-37.052-37.052v-34.591c-32.379-11.444-55.578-42.324-55.578-78.622h-4.631c-10.232 0-18.526-8.294-18.526-18.526v-18.526c0-10.232 8.294-18.526 18.526-18.526h4.631v-18.526c0-35.81 29.03-64.84 64.84-64.84h55.578c35.81 0 64.84 29.03 64.84 64.84v18.526h4.631c10.234 0 18.528 8.294 18.528 18.526z" fill="#b76c54"/><path d="m231.177 206.413c-9.181-1.101-16.297-8.916-16.297-18.393v-18.526c0-9.477 7.116-17.292 16.297-18.393-1.529 2.695-2.403 5.81-2.403 9.13v37.052c0 3.32.874 6.435 2.403 9.13zm86.315 113.346v-29.938c-8.338-.385-16.355-1.995-23.878-4.653v34.591c0 20.463 16.589 37.052 37.052 37.052 4.177 0 8.193-.692 11.939-1.966-14.605-4.968-25.113-18.8-25.113-35.086z" fill="#a95947"/><path d="m341.782 289.912c-45.019 0-81.514-36.495-81.514-81.514v-75.956c0-35.81 29.03-64.84 64.84-64.84h33.347c35.81 0 64.84 29.03 64.84 64.84v75.956c0 45.019-36.495 81.514-81.513 81.514z" fill="#c68978"/><path d="m335.442 270.504h-9.552c-10.791 0-19.539-8.748-19.539-19.539 0-3.837 3.11-6.947 6.947-6.947h34.736c3.837 0 6.947 3.11 6.947 6.947 0 10.791-8.748 19.539-19.539 19.539z" fill="#e1a595"/><path d="m325.237 244.018h22.797c3.837 0 6.947 3.11 6.947 6.947 0 10.39-8.11 18.886-18.346 19.503-10.235-.617-18.346-9.113-18.346-19.503.001-3.837 3.111-6.947 6.948-6.947z" fill="#eac0b5"/><path d="m352.613 215.346c0 3.837-3.11 6.947-6.947 6.947h-8.303c-.811 2.938-3.502 5.095-6.697 5.095s-5.886-2.157-6.697-5.095h-8.303c-3.837 0-6.947-3.11-6.947-6.947s3.11-6.947 6.947-6.947h8.053v-22.694c0-3.837 3.11-6.947 6.947-6.947s6.947 3.11 6.947 6.947v22.694h8.053c3.837 0 6.947 3.11 6.947 6.947z" fill="#a95947"/><path d="m293.672 185.705c0 7.674-6.221 13.894-13.894 13.894s-13.894-6.221-13.894-13.894 6.221-13.894 13.894-13.894 13.894 6.22 13.894 13.894zm86.03-13.895c-7.674 0-13.894 6.221-13.894 13.894s6.221 13.894 13.894 13.894c7.674 0 13.894-6.221 13.894-13.894s-6.221-13.894-13.894-13.894z" fill="#533022"/><path d="m313.038 157.916c0 3.837-3.11 6.947-6.947 6.947h-34.736c-3.837 0-6.947-3.11-6.947-6.947s3.11-6.947 6.947-6.947h34.736c3.836 0 6.947 3.11 6.947 6.947zm76.94-6.947h-34.736c-3.837 0-6.947 3.11-6.947 6.947s3.11 6.947 6.947 6.947h34.736c3.837 0 6.947-3.11 6.947-6.947s-3.111-6.947-6.947-6.947z" fill="#7d402d"/><path d="m109.811 122.733c3.837 0 6.947 3.11 6.947 6.947s-3.11 6.947-6.947 6.947-6.947-3.11-6.947-6.947c0-3.836 3.11-6.947 6.947-6.947zm92.976 6.948c0 3.837 3.11 6.947 6.947 6.947s6.947-3.11 6.947-6.947-3.11-6.947-6.947-6.947c-3.836-.001-6.947 3.11-6.947 6.947zm90.885 49.076c0 3.837-3.11 6.947-6.947 6.947s-6.947-3.11-6.947-6.947 3.11-6.947 6.947-6.947 6.947 3.111 6.947 6.947zm92.977-6.947c-3.837 0-6.947 3.11-6.947 6.947s3.11 6.947 6.947 6.947 6.947-3.11 6.947-6.947c0-3.836-3.11-6.947-6.947-6.947z" fill="#fff5f5"/><path d="m428.853 32.129c6.901 1.522 10.903 8.8 8.962 15.595l-16.689 58.412h-180.919l-16.689-58.412c-1.941-6.795 2.061-14.073 8.962-15.595.769-.17 1.562-.264 2.372-.264 4.685 0 8.821 1.916 11.288 3.999 1.378 1.163 3.422 1.163 4.8 0 2.467-2.083 6.603-3.999 11.288-3.999s8.821 1.916 11.288 3.999c1.378 1.163 3.422 1.163 4.8 0 2.467-2.083 6.603-3.999 11.288-3.999s8.821 1.916 11.288 3.999c1.378 1.163 3.422 1.163 4.8 0 2.467-2.083 6.603-3.999 11.288-3.999s8.821 1.916 11.288 3.999c1.378 1.163 3.422 1.163 4.8 0 2.467-2.083 6.603-3.999 11.288-3.999s8.821 1.916 11.288 3.999c1.378 1.163 3.422 1.163 4.8 0 2.467-2.083 6.603-3.999 11.288-3.999s8.821 1.916 11.288 3.999c1.378 1.163 3.422 1.163 4.8 0 2.467-2.083 6.603-3.999 11.288-3.999s8.821 1.916 11.288 3.999c1.378 1.163 3.422 1.163 4.8 0 2.467-2.083 6.603-3.999 11.288-3.999.807-.001 1.599.094 2.369.264z" fill="#67382a"/><path d="m240.207 106.136-16.689-58.412c-1.941-6.795 2.061-14.073 8.962-15.595.769-.17 1.562-.265 2.372-.265 4.685 0 8.821 1.916 11.288 3.999.688.581 1.541.871 2.394.873-2.156 3.024-2.961 7.023-1.862 10.869l16.689 58.412z" fill="#533022"/><path d="m430.666 90.048v41.102c0 2.761-2.239 5-5 5h-190c-2.761 0-5-2.239-5-5v-41.102c0-2.761 2.239-5 5-5h190c2.762 0 5 2.238 5 5z" fill="#94cfbe"/><path d="m430.666 90.048v41.102c0 2.761-2.239 5-5 5h-166.166c-2.761 0-5-2.239-5-5v-41.102c0-2.761 2.239-5 5-5h166.166c2.762 0 5 2.238 5 5z" fill="#e3f0fb"/><path d="m430.666 120.599h-200v-20h200z" fill="#57b79d"/><path d="m430.666 120.599h-176.166v-20h176.166z" fill="#97d4b8"/></g></svg>