<svg id="Capa_1" enable-background="new 0 0 501 501" height="512" viewBox="0 0 501 501" width="512" xmlns="http://www.w3.org/2000/svg"><g><path d="m5.944 270.878c-.294-4.921-.444-9.882-.444-14.878 0-135.31 109.69-245 245-245s245 109.69 245 245c0 4.996-.15 9.957-.444 14.878z" fill="#63bcfa"/><path d="m33.431 369.712c-17.258-32.877-27.266-70.155-27.899-109.712h489.936c-.957 59.808-23.345 114.409-59.821 156.459h-324.798c-32.483 0-62.32-17.986-77.418-46.747z" fill="#05a2f9"/><path d="m374.003 44.36h-247.006c8.23-4.813 16.765-9.159 25.571-13.003h195.866c8.804 3.844 17.34 8.191 25.569 13.003z" fill="#6caac9"/><path d="m224.156 150.873c-1.918 3.367-6.771 3.367-8.689 0l-60.674-106.512v-13.004h130.035v13.004z" fill="#fc5426"/><path d="m247.643 70.898c0 14.303-11.595 25.898-25.898 25.898s-25.898-11.595-25.898-25.898 11.594-25.898 25.897-25.898c14.304 0 25.899 11.595 25.899 25.898z" fill="#ee4424"/><path d="m143.09 35.738v8.622l-60.673 106.513c-1.918 3.367-6.771 3.367-8.689 0l-21.844-38.348c23.526-32.512 54.84-59.02 91.206-76.787z" fill="#2740af"/><path d="m104.585 59.172c1.791 3.521 2.801 7.506 2.801 11.727 0 14.303-11.595 25.898-25.898 25.898-5.056 0-9.773-1.449-13.76-3.955 11.102-12.428 23.454-23.717 36.857-33.67z" fill="#172a7d"/><path d="m135.364 337.768c-1.788 27.673-24.799 49.564-52.924 49.564-29.291 0-53.036-23.745-53.036-53.036 0-25.185 17.554-46.269 41.094-51.686 1.788-27.673 24.799-49.564 52.924-49.564 29.291 0 53.036 23.745 53.036 53.036 0 25.185-17.554 46.269-41.094 51.686z" fill="#6d4336"/><path d="m207.692 194.793c3.452 8.036 5.304 16.922 5.154 26.257-.556 34.642-29.174 62.818-63.82 62.863-36.035.047-65.127-29.728-63.964-66.013 1.07-33.389 28.214-60.612 61.6-61.773 5.746-.2 11.33.359 16.66 1.585-.567 2.042-.784 4.228-.582 6.492.756 8.435 7.508 15.334 15.927 16.254 1.257.137 2.49.145 3.69.034 1.409-.13 2.717.737 3.119 2.093 2.209 7.454 9.11 12.892 17.281 12.892 1.712 0 3.367-.238 4.935-.684z" fill="#f5c02c"/><path d="m214.81 196.294c-.081-.277-.179-.544-.295-.801-.014-.038-.028-.075-.042-.113-.62-1.643-2.524-2.32-4.116-1.579-2.309 1.075-4.883 1.675-7.598 1.675-1.589 0-3.129-.206-4.597-.592-12.022 4.139-23.163 10.114-33.095 17.598-1.572-1.717-3.184-3.397-4.833-5.039-3.475-3.456-7.122-6.742-10.921-9.844 6.231-8.514 11.216-18.008 14.695-28.223-.864-2.107-1.34-4.414-1.34-6.832 0-2.567.537-5.009 1.504-7.22.758-1.732-.277-3.744-2.135-4.097-4.243-.806-8.62-1.228-13.094-1.228-20.542 0-39.046 8.895-51.863 23.034-.308.281-.589.596-.837.94-11.694 13.373-18.392 31.218-17.154 50.597 2.247 35.177 30.844 63.45 66.042 65.326 40.321 2.149 73.811-30.037 73.811-69.898 0-8.315-1.459-16.298-4.132-23.704zm-65.868-34.12c1.527 0 3.04.06 4.538.177-3.07 10.164-7.806 19.579-13.897 27.932-8.559-5.918-17.719-10.959-27.271-14.995 9.979-8.192 22.74-13.114 36.63-13.114zm-57.827 57.826c0-13.269 4.492-25.507 12.035-35.276 10.117 3.864 19.7 8.915 28.567 14.975-10.945 11.478-24.8 20.15-40.422 24.879-.119-1.511-.18-3.037-.18-4.578zm2.431 16.607c18.664-5.394 35.155-15.745 47.974-29.563 5.012 4.108 9.737 8.56 14.137 13.315-14.906 13.831-26.273 31.419-32.646 51.32-14.069-7.088-24.865-19.753-29.465-35.072zm55.396 41.219c-5.014 0-9.881-.642-14.524-1.847 5.634-17.943 15.777-33.82 29.121-46.326 8.525 10.979 15.437 23.24 20.345 36.393-9.713 7.389-21.824 11.78-34.942 11.78zm44.445-20.873c-5.184-12.531-12.1-24.402-20.456-35.151 9.555-7.106 20.338-12.667 31.989-16.325 1.205 4.642 1.847 9.509 1.847 14.523.001 14.039-5.028 26.926-13.38 36.953z" fill="#c98001"/><path d="m250.789 240c-2.093-12.364-3.146-24.888-3.146-37.439v-3.084c0-24.629 8.382-48.525 23.768-67.758l32.063-40.079c3.069-3.835 4.74-8.602 4.74-13.514v-68.126h75.714v68.126c0 4.912 1.672 9.678 4.74 13.514l32.063 40.079c15.386 19.232 23.768 43.128 23.768 67.758 0 13.601-1.237 27.164-3.691 40.524h-190.019z" fill="#e3f0fb"/><path d="m250.789 240c-2.093-12.364-3.146-24.888-3.146-37.439v-3.084c0-24.629 8.382-48.525 23.768-67.758l32.063-40.079c3.069-3.835 4.74-8.602 4.74-13.514v-68.126h35.572v68.126c0 4.912-1.672 9.678-4.74 13.514l-32.063 40.079c-15.386 19.232-23.768 43.128-23.768 67.758v3.084c0 12.552 1.054 25.075 3.146 37.439z" fill="#b3d1e1"/><path d="m444.409 405.766c-44.809 57.932-115.003 95.234-193.909 95.234-.954 0-1.906-.006-2.857-.017v-91.56c0-13.871 1.286-27.711 3.842-41.345l4.079-21.755c5.481-29.232 5.094-59.262-1.138-88.342l-1.804-8.417c-3.311-15.448-4.98-31.203-4.98-47.002v-3.086c0-10.036 1.392-19.95 4.082-29.476l13.439-7.009c15.918-8.302 34.526-9.785 51.558-4.107l10.34 3.447c14.857 4.952 30.989 4.479 45.529-1.338 17.486-6.995 37.124-6.212 53.998 2.153l13.83 6.854c2.69 9.526 4.082 19.44 4.082 29.476 0 17.836-2.127 35.609-6.337 52.942-7.933 32.664-8.424 66.693-1.437 99.572l2.874 13.524c2.816 13.249 4.424 26.722 4.809 40.252z" fill="#059b7e"/><path d="m291.135 346.328c5.481-29.233 5.094-59.264-1.137-88.346l-1.804-8.417c-3.311-15.449-4.98-31.205-4.98-47.004v-3.084c0-15.226 3.204-30.172 9.285-43.909 8.13-.404 16.344.69 24.222 3.316l10.34 3.447c14.857 4.952 30.989 4.479 45.529-1.338 17.486-6.995 37.124-6.212 53.998 2.153l13.83 6.854c2.69 9.526 4.082 19.44 4.082 29.476 0 17.836-2.127 35.609-6.337 52.942-7.933 32.664-8.424 66.693-1.437 99.572l2.874 13.524c2.815 13.249 4.424 26.722 4.809 40.252-38.51 49.788-95.769 84.338-161.195 93.069v-89.414c0-13.87 1.286-27.71 3.842-41.342z" fill="#22b27f"/><path d="m290.071 190c-5.523 0-10-4.477-10-10s4.477-10 10-10 10 4.477 10 10-4.477 10-10 10zm50 20c-5.523 0-10 4.477-10 10s4.477 10 10 10 10-4.477 10-10-4.477-10-10-10zm40 200c-5.523 0-10 4.477-10 10s4.477 10 10 10 10-4.477 10-10-4.477-10-10-10zm-50 40c-5.523 0-10 4.477-10 10s4.477 10 10 10 10-4.477 10-10-4.477-10-10-10zm75-280c-8.284 0-15 6.716-15 15s6.716 15 15 15 15-6.716 15-15-6.716-15-15-15zm-100 220c-8.284 0-15 6.716-15 15s6.716 15 15 15 15-6.716 15-15-6.716-15-15-15z" fill="#059b7e"/><path d="m381.071 50h-70c-5.523 0-10-4.477-10-10v-30c0-5.523 4.477-10 10-10h70c5.523 0 10 4.477 10 10v30c0 5.523-4.477 10-10 10zm57.092 202.418c-7.933 32.664-8.424 66.693-1.437 99.572l2.874 13.524c2.415 11.366 3.942 22.896 4.571 34.486h-196.33c.45-10.71 1.667-21.377 3.644-31.921l4.078-21.751c5.481-29.233 5.095-59.264-1.137-88.346l-1.804-8.417c-2.09-9.755-3.526-19.632-4.3-29.565h195.237c-1.003 10.915-2.805 21.75-5.396 32.418z" fill="#c92e43"/><path d="m381.071 50h-41c-5.523 0-10-4.477-10-10v-30c0-5.523 4.477-10 10-10h41c5.523 0 10 4.477 10 10v30c0 5.523-4.477 10-10 10zm58.529 315.514c2.415 11.366 3.942 22.896 4.571 34.486h-160.429c.45-10.71 1.667-21.377 3.644-31.921l4.078-21.751c5.481-29.233 5.095-59.264-1.137-88.346l-1.804-8.417c-2.09-9.755-3.526-19.632-4.3-29.565h159.336c-1.003 10.915-2.804 21.75-5.395 32.418-7.933 32.664-8.424 66.693-1.437 99.572z" fill="#fd4343"/><path d="m377.531 400h-61.464l40-180h61.464z" fill="#fbc56d"/><path d="m417.531 220-40 180h-34.495l40-180z" fill="#f5dc90"/><path d="m299.405 334.296c0 29.291-23.745 53.036-53.036 53.036-16.509 0-31.255-7.543-40.982-19.37-9.727 11.827-24.474 19.37-40.982 19.37-29.291 0-53.036-23.745-53.036-53.036 0-25.185 17.554-46.269 41.094-51.686 1.788-27.673 24.799-49.564 52.924-49.564s51.136 21.892 52.924 49.564c23.54 5.417 41.094 26.501 41.094 51.686z" fill="#925b44"/><path d="m164.405 485.445v-.002.002c-.25-.094-.499-.188-.748-.283-40.669-15.42-65.521-56.678-60.661-99.9l5.485-48.781c.379-3.371 4.028-5.307 7.031-3.731l48.786 25.597 48.998-25.597c3.004-1.576 6.652.36 7.031 3.73l13.763 122.396c2.532 22.513-18.004 40.786-40.054 35.585-10.134-2.39-20.026-5.41-29.631-9.016z" fill="#fd7d43"/><path d="m296.764 365.884-47.686 135.111c-19.95-.113-39.334-2.611-57.884-7.223l32.788-124.793 67.566-9.475c3.581-.501 6.42 2.971 5.216 6.38z" fill="#f1ca50"/><path d="m115.513 332.75 48.892 25.653v127.042c-24.942-9.363-47.952-22.677-68.268-39.18l12.345-109.783c.379-3.371 4.028-5.307 7.031-3.732z" fill="#fdf385"/><path d="m33.324 369.508-1.207-3.42c-1.22-3.457 1.711-6.957 5.329-6.362l67.181 11.045 26.514 99.239c-41.577-23.239-75.684-58.241-97.817-100.502z" fill="#fc5426"/><path d="m174.5 285c0 8.284-8.954 15-20 15s-20-6.716-20-15 8.954-15 20-15 20 6.716 20 15z" fill="#fc5426"/><path d="m274.5 285c0 8.284-8.954 15-20 15s-20-6.716-20-15 8.954-15 20-15 20 6.716 20 15z" fill="#4f66cf"/><path d="m194.5 325c0 8.284-8.954 15-20 15s-20-6.716-20-15 8.954-15 20-15 20 6.716 20 15z" fill="#8694dd"/></g></svg>