<svg id="Capa_1" enable-background="new 0 0 501 501" height="512" viewBox="0 0 501 501" width="512" xmlns="http://www.w3.org/2000/svg"><g><path d="m495.5 256c0 135.31-109.69 245-245 245s-245-109.69-245-245 109.69-245 245-245 245 109.69 245 245z" fill="#63bcfa"/><path d="m6.864 230h487.273c.901 8.543 1.364 17.218 1.364 26 0 22.142-2.938 43.598-8.444 64h-473.113c-5.506-20.402-8.444-41.858-8.444-64 0-8.782.462-17.457 1.364-26z" fill="#05a2f9"/><path d="m493.16 290c-15.377 110.758-104.796 197.837-216.659 209.637-1.933.204-5.055-3.629-7.001-3.47-6.656.543-30.79-.836-37.167-1.333-2.233-.174-5.617 5.037-7.833 4.803-111.863-11.8-201.283-98.879-216.66-209.637z" fill="#235967"/><path d="m33.059 369h434.882c-13.596 26.109-31.757 49.461-53.424 69h-328.035c-21.667-19.539-39.827-42.891-53.423-69z" fill="#08856c"/><path d="m385.142 341.04 5.408 9.889c.184.336.459.612.795.795l9.889 5.408c1.387.759 1.387 2.751 0 3.509l-9.889 5.408c-.336.184-.611.459-.795.795l-5.408 9.889c-.759 1.387-2.751 1.387-3.509 0l-5.408-9.889c-.184-.336-.459-.611-.795-.795l-9.889-5.408c-1.387-.759-1.387-2.751 0-3.509l9.889-5.408c.336-.184.612-.459.795-.795l5.408-9.889c.758-1.387 2.751-1.387 3.509 0z" fill="#57b79d"/><path d="m187.367 353.265 5.408 9.889c.184.336.459.612.795.795l9.889 5.408c1.387.759 1.387 2.751 0 3.509l-9.889 5.408c-.336.184-.611.459-.795.795l-5.408 9.889c-.759 1.387-2.751 1.387-3.509 0l-5.408-9.889c-.184-.336-.459-.611-.795-.795l-9.889-5.408c-1.387-.759-1.387-2.751 0-3.509l9.889-5.408c.336-.184.611-.459.795-.795l5.408-9.889c.758-1.387 2.751-1.387 3.509 0z" fill="#09a66d"/><path d="m101.903 382.99 3.977 7.271c.135.247.338.45.585.585l7.271 3.977c1.02.558 1.02 2.023 0 2.58l-7.271 3.977c-.247.135-.45.338-.585.585l-3.977 7.271c-.558 1.02-2.023 1.02-2.58 0l-3.977-7.271c-.135-.247-.338-.45-.585-.585l-7.271-3.977c-1.02-.558-1.02-2.023 0-2.58l7.271-3.977c.247-.135.45-.338.585-.585l3.977-7.271c.557-1.02 2.022-1.02 2.58 0z" fill="#ffdf8e"/><path d="m341.642 421.611 3.977 7.271c.135.247.338.45.585.585l7.271 3.977c1.02.558 1.02 2.023 0 2.58l-7.272 3.976c-.247.135-.45.338-.585.585l-3.977 7.271c-.558 1.02-2.023 1.02-2.58 0l-3.977-7.271c-.135-.247-.338-.45-.585-.585l-7.271-3.977c-1.02-.558-1.02-2.023 0-2.58l7.271-3.977c.247-.135.45-.338.585-.585l3.977-7.271c.558-1.019 2.023-1.019 2.581.001z" fill="#f7e6b0"/><path d="m191.642 452.144 3.977 7.271c.135.247.338.45.585.585l7.271 3.977c1.02.558 1.02 2.023 0 2.58l-7.271 3.977c-.247.135-.45.338-.585.585l-3.977 7.271c-.558 1.02-2.023 1.02-2.58 0l-3.977-7.271c-.135-.247-.338-.45-.585-.585l-7.271-3.977c-1.02-.558-1.02-2.023 0-2.58l7.271-3.977c.247-.135.45-.338.585-.585l3.977-7.271c.557-1.02 2.022-1.02 2.58 0z" fill="#fdbf43"/><path d="m346.5 10v50c0 5.523-4.477 10-10 10h-172c-5.523 0-10-4.477-10-10v-50c0-5.523 4.477-10 10-10h172c5.523 0 10 4.477 10 10z" fill="#c64b1a"/><path d="m346.5 10v50c0 5.523-4.477 10-10 10h-142c-5.523 0-10-4.477-10-10v-50c0-5.523 4.477-10 10-10h142c5.523 0 10 4.477 10 10z" fill="#fc5426"/><path d="m346.5 280v50c0 5.523-4.477 10-10 10h-172c-5.523 0-10-4.477-10-10v-50c0-5.523 4.477-10 10-10h172c5.523 0 10 4.477 10 10z" fill="#f16b38"/><path d="m346.5 280v50c0 5.523-4.477 10-10 10h-60v159.636c-8.543.901-17.218 1.364-26 1.364s-17.457-.462-26-1.364v-159.636h-30c-5.523 0-10-4.477-10-10v-50c0-5.523 4.477-10 10-10h142c5.523 0 10 4.477 10 10z" fill="#fd7d43"/><path d="m276.5 370v129.636c-7.244.764-14.582 1.213-22 1.332v-130.968c0-5.523 4.477-10 10-10h2c5.523 0 10 4.477 10 10z" fill="#fc9368"/><path d="m460.5 50v240c0 11.046-8.954 20-20 20h-380c-11.046 0-20-8.954-20-20v-240c0-11.046 8.954-20 20-20h380c11.046 0 20 8.954 20 20z" fill="#f19b0b"/><path d="m460.5 50v240c0 11.046-8.954 20-20 20h-346c-11.046 0-20-8.954-20-20v-240c0-11.046 8.954-20 20-20h346c11.046 0 20 8.954 20 20z" fill="#fdbf43"/><path d="m436.5 65v210c0 8.284-6.716 15-15 15h-342c-8.284 0-15-6.716-15-15v-210c0-8.284 6.716-15 15-15h342c8.284 0 15 6.716 15 15z" fill="#6c7fd7"/><path d="m96.5 290h-17c-8.284 0-15-6.716-15-15v-210c0-8.284 6.716-15 15-15h17c-8.284 0-15 6.716-15 15v210c0 8.284 6.716 15 15 15z" fill="#4f66cf"/><path d="m134.5 75c0 2.761-2.239 5-5 5h-30c-2.761 0-5-2.239-5-5s2.239-5 5-5h30c2.761 0 5 2.239 5 5zm-5 15h-30c-2.761 0-5 2.239-5 5s2.239 5 5 5h30c2.761 0 5-2.239 5-5s-2.239-5-5-5zm250-10h30c2.761 0 5-2.239 5-5s-2.239-5-5-5h-30c-2.761 0-5 2.239-5 5s2.239 5 5 5zm30 10h-30c-2.761 0-5 2.239-5 5s2.239 5 5 5h30c2.761 0 5-2.239 5-5s-2.239-5-5-5z" fill="#314dc8"/><path d="m134.5 125v10c0 2.761-2.239 5-5 5h-30c-2.761 0-5-2.239-5-5v-10c0-2.761 2.239-5 5-5h30c2.761 0 5 2.239 5 5z" fill="#c64b1a"/><path d="m134.5 125v10c0 2.761-2.239 5-5 5h-20c-2.761 0-5-2.239-5-5v-10c0-2.761 2.239-5 5-5h20c2.761 0 5 2.239 5 5z" fill="#fc5426"/><path d="m414.5 125v10c0 2.761-2.239 5-5 5h-30c-2.761 0-5-2.239-5-5v-10c0-2.761 2.239-5 5-5h30c2.761 0 5 2.239 5 5z" fill="#2cac8d"/><path d="m414.5 125v10c0 2.761-2.239 5-5 5h-20c-2.761 0-5-2.239-5-5v-10c0-2.761 2.239-5 5-5h20c2.761 0 5 2.239 5 5z" fill="#57bd91"/><path d="m230.5 270h-130c-5.523 0-10-4.477-10-10v-90c0-5.523 4.477-10 10-10h130c5.523 0 10 4.477 10 10v90c0 5.523-4.477 10-10 10zm180-10v-90c0-5.523-4.477-10-10-10h-130c-5.523 0-10 4.477-10 10v90c0 5.523 4.477 10 10 10h130c5.523 0 10-4.477 10-10z" fill="#174550"/><path d="m230.5 140h-60c-5.523 0-10-4.477-10-10v-50c0-5.523 4.477-10 10-10h60c5.523 0 10 4.477 10 10v50c0 5.523-4.477 10-10 10zm110-10v-50c0-5.523-4.477-10-10-10h-60c-5.523 0-10 4.477-10 10v50c0 5.523 4.477 10 10 10h60c5.523 0 10-4.477 10-10zm-216 30c-5.523 0-10 4.477-10 10v90c0 5.523 4.477 10 10 10h40v-110zm116 10v90c0 5.523-4.477 10-10 10h-46v-110h46c5.523 0 10 4.477 10 10zm94-10v110h-40c-5.523 0-10-4.477-10-10v-90c0-5.523 4.477-10 10-10zm76 10v90c0 5.523-4.477 10-10 10h-46v-110h46c5.523 0 10 4.477 10 10z" fill="#024c67"/><path d="m160.5 130v-50c0-5.523 4.477-10 10-10h14c-5.523 0-10 4.477-10 10v50c0 5.523 4.477 10 10 10h-14c-5.523 0-10-4.477-10-10zm114 0v-50c0-5.523 4.477-10 10-10h-14c-5.523 0-10 4.477-10 10v50c0 5.523 4.477 10 10 10h14c-5.523 0-10-4.477-10-10z" fill="#174550"/><path d="m174.167 88.166c-2.762 0-5-2.239-5-5s2.238-5 5-5h9.334c2.762 0 5 2.239 5 5v43.669c0 2.761-2.238 5-5 5s-5-2.239-5-5v-38.669zm52.603 33.784c-4.375.055-9.014.091-12.868.099 2.422-3.239 5.782-7.832 10.317-14.312 2.796-3.995 4.618-7.77 5.417-11.219.038-.163.067-.328.089-.494l.216-1.689c.026-.21.04-.422.04-.634 0-8.918-7.256-16.174-16.174-16.174-7.711 0-14.386 5.486-15.871 13.044-.532 2.709 1.232 5.338 3.942 5.87 2.703.531 5.337-1.231 5.87-3.942.566-2.881 3.114-4.972 6.059-4.972 3.313 0 6.025 2.623 6.168 5.902l-.135 1.056c-.543 2.149-1.825 4.677-3.814 7.519-6.917 9.884-11.044 15.288-13.262 18.191-2.745 3.595-3.998 5.236-3.147 8.004.5 1.627 1.73 2.876 3.382 3.427.667.222 1.306.436 9.787.436 3.333 0 7.878-.033 14.109-.111 2.762-.035 4.972-2.301 4.938-5.063-.037-2.763-2.34-5.001-5.063-4.938zm-72.307 76.44c0-12.396-10.085-22.481-22.481-22.481-10.719 0-19.996 7.625-22.06 18.129-.532 2.709 1.232 5.338 3.942 5.87 2.704.533 5.338-1.232 5.87-3.942 1.145-5.828 6.296-10.057 12.247-10.057 6.882 0 12.481 5.599 12.481 12.481s-5.6 12.481-12.481 12.481c-2.762 0-5 2.239-5 5s2.238 5 5 5c6.882 0 12.481 5.599 12.481 12.481s-5.6 12.481-12.481 12.481c-6.193 0-11.507-4.614-12.36-10.735-.08-.574-.121-1.162-.121-1.746 0-2.761-2.238-5-5-5s-5 2.239-5 5c0 1.046.073 2.099.217 3.128 1.539 11.033 11.11 19.353 22.265 19.353 12.396 0 22.481-10.085 22.481-22.481 0-7.052-3.264-13.357-8.361-17.481 5.097-4.124 8.361-10.428 8.361-17.481zm44.141 5.654c-3.159 0-5.69.23-7.92.663l3.023-18.244h21.428c2.762 0 5-2.239 5-5s-2.238-5-5-5h-25.668c-2.446 0-4.533 1.77-4.933 4.183l-5.085 30.692c-.309 1.862.465 3.736 1.988 4.85s3.55 1.272 5.233.413c.049-.025.275-.138.649-.306 2.926-1.317 5.448-2.25 11.283-2.25 4.399 0 8.492 1.76 11.526 4.955 3.031 3.193 4.575 7.381 4.347 11.792-.429 8.267-7.256 14.873-15.542 15.039-8.087.192-14.962-5.713-16.072-13.668-.102-.729-.153-1.477-.153-2.224 0-2.761-2.238-5-5-5s-5 2.239-5 5c0 1.207.084 2.42.249 3.606 1.786 12.793 12.762 22.289 25.647 22.289.177 0 .354-.002.53-.005 13.503-.272 24.628-11.042 25.327-24.519.372-7.177-2.143-13.994-7.081-19.196-4.866-5.128-11.711-8.07-18.776-8.07z" fill="#fdcbbb"/><path d="m331.428 83.166v43.669c0 2.761-2.238 5-5 5s-5-2.239-5-5v-38.669h-4.334c-2.762 0-5-2.239-5-5s2.238-5 5-5h9.334c2.762 0 5 2.238 5 5zm-44.228 49.56c-9.72 0-17.628-7.908-17.628-17.628v-20.196c0-9.72 7.908-17.628 17.628-17.628s17.628 7.908 17.628 17.628v20.196c0 9.72-7.909 17.628-17.628 17.628zm0-10c4.206 0 7.628-3.422 7.628-7.628v-20.196c0-4.207-3.422-7.628-7.628-7.628s-7.628 3.422-7.628 7.628v20.196c0 4.206 3.422 7.628 7.628 7.628zm107.3 105.836c0 13.65-11.105 24.756-24.756 24.756s-24.756-11.105-24.756-24.756c0-8.542 4.349-16.088 10.949-20.539-3.459-3.506-5.597-8.318-5.597-13.62 0-10.699 8.704-19.403 19.403-19.403s19.403 8.704 19.403 19.403c0 5.302-2.138 10.114-5.597 13.62 6.602 4.451 10.951 11.997 10.951 20.539zm-34.159-34.159c0 5.185 4.219 9.403 9.403 9.403s9.403-4.218 9.403-9.403-4.219-9.403-9.403-9.403-9.403 4.218-9.403 9.403zm24.159 34.159c0-8.136-6.619-14.756-14.756-14.756s-14.756 6.62-14.756 14.756 6.619 14.756 14.756 14.756 14.756-6.62 14.756-14.756zm-79.105-24.518c-3.159 0-5.69.23-7.92.663l3.023-18.244h21.429c2.762 0 5-2.239 5-5s-2.238-5-5-5h-25.669c-2.446 0-4.533 1.77-4.933 4.183l-5.085 30.692c-.309 1.861.464 3.735 1.986 4.849 1.521 1.114 3.548 1.274 5.229.417.049-.025.277-.139.656-.309 2.926-1.317 5.447-2.25 11.282-2.25 4.399 0 8.493 1.76 11.527 4.956 3.031 3.193 4.575 7.38 4.346 11.792-.429 8.267-7.256 14.873-15.542 15.039-8.07.192-14.962-5.713-16.072-13.668-.102-.729-.153-1.477-.153-2.224 0-2.761-2.238-5-5-5s-5 2.239-5 5c0 1.207.084 2.42.249 3.606 1.786 12.793 12.762 22.289 25.647 22.289.177 0 .354-.002.53-.005 13.503-.272 24.628-11.042 25.327-24.519.373-7.177-2.142-13.994-7.08-19.195-4.867-5.13-11.712-8.072-18.777-8.072z" fill="#e3f0fb"/></g></svg>