<svg id="Capa_1" enable-background="new 0 0 501 501" height="512" viewBox="0 0 501 501" width="512" xmlns="http://www.w3.org/2000/svg"><g><path d="m495.5 256c0 135.31-109.69 245-245 245s-245-109.69-245-245 109.69-245 245-245 245 109.69 245 245z" fill="#91cefb"/><path d="m131.571 102.929c3.905 3.905 3.905 10.237 0 14.142-3.905 3.905-10.237 3.905-14.142 0l-21.213-21.213c-3.905-3.905-3.905-10.237 0-14.142 3.905-3.905 10.237-3.905 14.142 0zm-27.071 27.071h-30c-5.523 0-10 4.477-10 10s4.477 10 10 10h30c5.523 0 10-4.477 10-10s-4.477-10-10-10zm50-70c-5.523 0-10 4.477-10 10v30c0 5.523 4.477 10 10 10s10-4.477 10-10v-30c0-5.523-4.477-10-10-10z" fill="#e3f0fb"/><path d="m194.5 170c0 5.523-4.477 10-10 10s-10-4.477-10-10c0-11.028-8.972-20-20-20-5.523 0-10-4.477-10-10s4.477-10 10-10c22.056 0 40 17.944 40 40zm170-70c-11.028 0-20-8.972-20-20 0-5.523-4.477-10-10-10s-10 4.477-10 10c0 22.056 17.944 40 40 40 5.523 0 10-4.477 10-10s-4.477-10-10-10z" fill="#05a2f9"/><path d="m233.323 376.165c-3.609 5.375-5.349 11.786-5.003 18.251l5.669 106.036c-42.409-2.822-81.866-16.436-115.649-38.119l4.058-68.68c.426-7.217-1.758-14.343-6.177-20.065-6.628-8.584-13.327-17.692-19.984-27.217-8.165-11.682-15.719-23.207-22.548-34.313h197.963c-6.727 12.776-14.352 26.175-22.734 39.818-5.172 8.42-10.392 16.539-15.595 24.289z" fill="#a95947"/><path d="m143.228 354.085c8.545 11.375 12.787 25.401 11.948 39.603l-5.074 85.863c-11.047-4.969-21.658-10.732-31.763-17.218l4.058-68.68c.426-7.217-1.758-14.343-6.177-20.065-6.628-8.584-13.327-17.692-19.984-27.217-8.165-11.682-15.719-23.207-22.548-34.313h40.085c4.393 6.728 9.001 13.553 13.806 20.428 5.21 7.452 10.441 14.666 15.649 21.599z" fill="#954d3b"/><path d="m318.672 177.852v131.648c0 22.091-17.909 40-40 40h-212c-22.091 0-40-17.909-40-40v-95.71c0-19.511 14.077-36.176 33.315-39.437l126.685-21.476v-112.877c0-22.091 17.909-40 40-40h18c22.091 0 40 17.909 40 40v98.285c18.933 2.857 34 19.199 34 39.567z" fill="#22b27f"/><path d="m95.651 349.5h-28.98c-22.091 0-40-17.909-40-40v-95.71c0-19.511 14.077-36.176 33.315-39.437l46.218-7.835c-7.523 9.668-11.944 21.79-11.944 34.806v135.64c0 4.308.481 8.503 1.391 12.536z" fill="#08856c"/><path d="m293.191 160.664c-2.354-1.989-7.356-5.325-14.418-5.325-.414 0-.772 0-15.602 2.461v-107.8c0-15.164-12.337-27.5-27.5-27.5s-27.5 12.336-27.5 27.5v116.982l-16.417 2.783c-.391.066-.778.141-1.162.224-10.988 1.853-23.356 3.941-37.281 6.292-.001 0-.003.001-.004.001l-90.396 15.324c-10.858 1.841-18.739 11.17-18.739 22.184v95.71c0 12.407 10.093 22.5 22.5 22.5h212c12.406 0 22.5-10.093 22.5-22.5v-131.648c0-9.09-5-14.671-7.981-17.188zm-70.019-110.664c0-6.893 5.607-12.5 12.5-12.5s12.5 5.607 12.5 12.5v110.201l-25 4.238zm63 259.5c0 4.136-3.364 7.5-7.5 7.5h-212c-4.136 0-7.5-3.364-7.5-7.5v-95.71c0-3.671 2.627-6.781 6.246-7.395l21.42-3.631v74.236c0 4.142 3.358 7.5 7.5 7.5s7.5-3.358 7.5-7.5v-76.779l27.333-4.634v60.413c0 4.142 3.358 7.5 7.5 7.5s7.5-3.358 7.5-7.5v-62.955l11.638-1.973c4.25-.718 9.379-1.583 15.098-2.549-.764 2.794-1.053 5.749-.783 8.761.044.499.104.999.176 1.5 1.031 7.135 4.864 13.489 10.795 17.891 4.91 3.645 10.907 5.6 16.932 5.6 1.373 0 2.748-.102 4.111-.308l17.551-2.657c-18.598 16.924-29.939 41.273-29.939 67.774 0 4.142 3.357 7.5 7.5 7.5s7.5-3.358 7.5-7.5c0-34.964 23.601-65.447 57.392-74.127 4.012-1.031 6.429-5.118 5.397-9.13-.895-3.482-4.09-5.762-7.546-5.629-.506-.028-1.022-.005-1.543.073l-58.559 8.866c-3.422.519-7.015-.396-9.856-2.505-2.698-2.002-4.435-4.84-4.89-7.992-.033-.228-.061-.455-.081-.688-.464-5.169 3.171-9.952 8.386-11.229 36.473-6.147 80.287-13.515 85.763-14.369 1.948.119 3.4 1.012 4.297 1.77 1.214 1.025 2.66 2.851 2.66 5.729v131.647z" fill="#bbe0fb"/><path d="m432.96 356.677c-5.919 11.241-12.627 23.03-20.003 35.034-4.922 8.012-9.894 15.715-14.842 23.033-2.439 3.606-3.628 7.903-3.396 12.251l1.393 26.058c-28.676 21.225-62.148 36.34-98.492 43.42l4.609-77.993c-7.775-9.72-15.724-20.334-23.607-31.614-7.184-10.279-13.83-20.419-19.839-30.19h174.177z" fill="#e3ac6e"/><path d="m323.283 395.06c5.779 7.589 8.623 17.004 8.06 26.527l-3.966 67.109c-9.667 3.192-19.6 5.799-29.758 7.778l4.16-70.402c.287-4.861-1.217-9.649-4.208-13.492-6.277-8.065-12.635-16.675-18.951-25.712-7.184-10.279-13.83-20.419-19.839-30.19h37.352c3.536 5.387 7.23 10.844 11.07 16.337 5.355 7.658 10.736 15.028 16.08 22.045z" fill="#d89c56"/><path d="m474.328 238.595v115.831c0 19.437-15.757 35.194-35.194 35.194h-186.527c-19.437 0-35.194-15.757-35.194-35.194v-84.21c0-17.167 12.386-31.83 29.312-34.699l111.464-18.896v-93.628c0-22.091 17.909-40 40-40h6.225c22.091 0 40 17.909 40 40v80.79c16.658 2.513 29.914 16.892 29.914 34.812z" fill="#fd4343"/><path d="m291.459 389.619h-38.852c-19.437 0-35.194-15.757-35.194-35.194v-84.21c0-17.167 12.386-31.83 29.312-34.699l43.569-7.386c-9.13 7.54-14.834 18.929-14.834 31.472v97.619c0 13.203 6.272 24.942 15.999 32.398z" fill="#c92e43"/><path d="m452.491 222.783c-3.738-3.158-8.45-4.897-13.267-4.897-.404 0-.732 0-12.826 2.003v-93.784c0-13.839-11.259-25.097-25.097-25.097s-25.097 11.258-25.097 25.097v102.202c-4.088.689-127.057 21.501-127.057 21.501-9.989 1.693-17.239 10.275-17.239 20.407v84.21c0 11.413 9.285 20.698 20.698 20.698h186.527c11.413 0 20.698-9.285 20.698-20.698v-115.83c.002-8.363-4.599-13.496-7.34-15.812zm-61.286-96.678c0-5.567 4.529-10.097 10.097-10.097s10.097 4.53 10.097 10.097v96.286c-5.533.927-12.187 2.044-20.193 3.391v-99.677zm53.628 228.32c0 3.142-2.557 5.698-5.698 5.698h-186.528c-3.142 0-5.697-2.556-5.697-5.698v-84.21c0-2.789 1.995-5.152 4.745-5.618l17.795-3.017v64.249c0 4.142 3.357 7.5 7.5 7.5s7.5-3.358 7.5-7.5v-66.792l22.246-3.771v52.086c0 4.142 3.357 7.5 7.5 7.5s7.5-3.358 7.5-7.5v-54.629l9.489-1.609c3.823-.646 7.823-1.321 11.938-2.016-.451 2.153-.595 4.395-.391 6.672.04.451.094.904.16 1.369.942 6.517 4.441 12.318 9.854 16.335 4.476 3.321 9.943 5.104 15.437 5.104 1.252 0 2.506-.093 3.75-.281l12.591-1.906c-15.291 14.944-24.527 35.75-24.527 58.308 0 4.142 3.357 7.5 7.5 7.5s7.5-3.358 7.5-7.5c0-30.352 20.486-56.813 49.818-64.348 4.012-1.031 6.429-5.119 5.397-9.13-.89-3.467-4.063-5.742-7.501-5.631-.493-.024-.996 0-1.503.076l-51.522 7.801c-2.774.421-5.69-.322-8-2.037-2.18-1.618-3.582-3.903-3.946-6.425-.027-.188-.05-.375-.067-.567-.367-4.096 2.521-7.889 6.668-8.917 34.719-5.852 70.332-11.836 75.31-12.619 1.423.113 2.493.775 3.161 1.34 1.341 1.132 2.021 2.597 2.021 4.352z" fill="#f7e6b0"/><path d="m154.5 290c0 22.056-17.944 40-40 40-5.523 0-10-4.477-10-10s4.477-10 10-10c11.028 0 20-8.972 20-20 0-5.523 4.477-10 10-10s10 4.477 10 10zm173.284-172.071c-3.905-3.905-10.237-3.905-14.142 0-7.798 7.798-20.486 7.798-28.284 0-3.905-3.905-10.237-3.905-14.142 0s-3.905 10.237 0 14.142c15.596 15.596 40.973 15.596 56.569 0 3.905-3.905 3.905-10.237-.001-14.142z" fill="#fc5426"/><path d="m264.5 460c0 5.523-4.477 10-10 10s-10-4.477-10-10c0-11.028-8.972-20-20-20-5.523 0-10-4.477-10-10s4.477-10 10-10c22.056 0 40 17.944 40 40z" fill="#fdbf43"/><path d="m474.5 280c0 5.523-4.477 10-10 10-11.028 0-20 8.972-20 20 0 5.523-4.477 10-10 10s-10-4.477-10-10c0-22.056 17.944-40 40-40 5.523 0 10 4.477 10 10z" fill="#314dc8"/></g></svg>