<svg id="Capa_1" enable-background="new 0 0 501 501" height="512" viewBox="0 0 501 501" width="512" xmlns="http://www.w3.org/2000/svg"><g><path d="m490 256c0 135.31-109.69 245-245 245s-245-109.69-245-245 109.69-245 245-245 245 109.69 245 245z" fill="#63bcfa"/><path d="m490 256c0 44.646-11.942 86.503-32.806 122.55-36.048 20.864-77.904 32.806-122.55 32.806-135.31 0-245-109.69-245-245 0-44.646 11.942-86.503 32.806-122.55 36.047-20.864 77.904-32.806 122.55-32.806 135.31 0 245 109.69 245 245z" fill="#91cefb"/><path d="m99 265v187.765c-10.705-7.956-20.739-16.766-30-26.328v-161.437c0-2.761 2.239-5 5-5h20c2.761 0 5 2.239 5 5z" fill="#ce9047"/><path d="m84 400c-8.284 0-15-6.716-15-15v-370c0-8.284 6.716-15 15-15 8.284 0 15 6.716 15 15v370c0 8.284-6.716 15-15 15z" fill="#dca050"/><path d="m99 319.08h-30v-300h30l326.769 136.154c12.308 5.128 12.308 22.564 0 27.692z" fill="#fc5426"/><path d="m99 319.08h-30v-300h30zm160-149.54c0 35.899-29.101 65-65 65s-65-29.101-65-65 29.101-65 65-65 65 29.102 65 65z" fill="#d63d24"/><path d="m224.654 94.918 13.999 25.596c.475.869 1.189 1.583 2.058 2.058l25.596 13.999c3.59 1.964 3.59 7.12 0 9.084l-25.596 13.999c-.869.475-1.583 1.189-2.058 2.058l-13.999 25.596c-1.964 3.59-7.12 3.59-9.084 0l-13.999-25.596c-.475-.869-1.189-1.583-2.058-2.058l-25.596-13.999c-3.59-1.964-3.59-7.12 0-9.084l25.596-13.999c.869-.475 1.583-1.189 2.058-2.058l13.999-25.596c1.964-3.591 7.121-3.591 9.084 0z" fill="#fdbf43"/><path d="m153.287 174.868 8.117 14.841c.275.504.69.918 1.193 1.193l14.841 8.117c2.082 1.139 2.082 4.128 0 5.267l-14.841 8.117c-.504.275-.918.69-1.193 1.193l-8.117 14.841c-1.139 2.082-4.128 2.082-5.267 0l-8.117-14.841c-.275-.504-.69-.918-1.193-1.193l-14.841-8.117c-2.082-1.139-2.082-4.128 0-5.267l14.841-8.117c.504-.275.918-.69 1.193-1.193l8.117-14.841c1.139-2.081 4.128-2.081 5.267 0z" fill="#f7e6b0"/><path d="m220.082 342.541v157.207c-8.496-.858-16.865-2.151-25.082-3.854v-153.353c0-6.926 5.615-12.541 12.541-12.541 6.926 0 12.541 5.615 12.541 12.541z" fill="#174550"/><path d="m207.541 460c-6.926 0-12.541-5.615-12.541-12.541v-281.311c0-6.926 5.615-12.541 12.541-12.541 6.926 0 12.541 5.615 12.541 12.541v281.311c0 6.926-5.615 12.541-12.541 12.541z" fill="#235967"/><path d="m220.082 420.378h-25.082v-250.82h25.082l273.201 113.834c10.29 4.288 10.29 18.865 0 23.153z" fill="#6c7fd7"/><path d="m220.082 420.378h-25.082v-250.82h25.082z" fill="#314dc8"/><path d="m353.852 295.353c0 30.014-24.331 54.344-54.344 54.344-30.014 0-54.344-24.331-54.344-54.344s24.331-54.344 54.344-54.344c30.014 0 54.344 24.331 54.344 54.344z" fill="#314dc8"/><path d="m329.706 233.194 12.901 23.589c.438.8 1.096 1.459 1.896 1.896l23.589 12.901c3.309 1.81 3.309 6.562 0 8.371l-23.589 12.901c-.8.438-1.459 1.096-1.896 1.896l-12.901 23.589c-1.81 3.309-6.562 3.309-8.371 0l-12.901-23.589c-.438-.8-1.096-1.459-1.896-1.896l-23.589-12.901c-3.309-1.81-3.309-6.562 0-8.371l23.589-12.901c.8-.438 1.459-1.096 1.896-1.896l12.901-23.589c1.809-3.308 6.561-3.308 8.371 0z" fill="#e3f0fb"/></g></svg>