<svg id="Capa_1" enable-background="new 0 0 501 501" height="512" viewBox="0 0 501 501" width="512" xmlns="http://www.w3.org/2000/svg"><g><path d="m495.5 256c0 135.31-109.69 245-245 245s-245-109.69-245-245 109.69-245 245-245 245 109.69 245 245z" fill="#91cefb"/><path d="m487.056 320c-28.142 104.272-123.388 181-236.556 181s-208.414-76.728-236.556-181z" fill="#63bcfa"/><path d="m494.94 272.698c-2.448 36.372-12.834 70.568-29.44 100.871v-98.569c0-2.761 2.239-5 5-5h20c1.931 0 3.607 1.095 4.44 2.698zm-54.44-117.698h-20c-2.761 0-5 2.239-5 5v277.109c10.956-9.987 21.002-20.954 30-32.764v-244.345c0-2.761-2.238-5-5-5zm-360 40h-20c-2.761 0-5 2.239-5 5v204.346c8.998 11.81 19.044 22.777 30 32.764v-237.11c0-2.761-2.239-5-5-5zm-50 35h-20c-1.53 0-2.9.688-3.817 1.771-.781 7.958-1.182 16.028-1.183 24.191v.075c.006 42.59 10.881 82.642 30 117.531v-138.568c0-2.761-2.239-5-5-5z" fill="#6caac9"/><path d="m119.5 0h262c8.284 0 15 6.716 15 15v418c0 8.284-6.716 15-15 15h-262c-8.284 0-15-6.716-15-15v-418c0-8.284 6.716-15 15-15z" fill="#172a7d"/><path d="m381.5 0h-212c-8.284 0-15 6.716-15 15v418c0 8.284 6.716 15 15 15h212c8.284 0 15-6.716 15-15v-418c0-8.284-6.716-15-15-15zm-131 36.667c-5.523 0-10-4.478-10-10 0-5.523 4.477-10 10-10s10 4.477 10 10c0 5.522-4.477 10-10 10z" fill="#2740af"/><path d="m144.5 50h212c5.523 0 10 4.477 10 10v390c0 5.523-4.477 10-10 10h-212c-5.523 0-10-4.477-10-10v-390c0-5.523 4.477-10 10-10z" fill="#ffe899"/><path d="m154.5 50h207c2.761 0 5 2.239 5 5v405h-212z" fill="#f9eecf"/><path d="m184.5 80c0 5.523-4.477 10-10 10h-.623c-5.523 0-10-4.477-10-10s4.477-10 10-10h.623c5.523 0 10 4.477 10 10zm150.624-10h-.624c-5.523 0-10 4.477-10 10s4.477 10 10 10h.624c5.523 0 10-4.477 10-10s-4.478-10-10-10zm-84.624 175.47c-5.523 0-10 4.477-10 10 0 5.522 4.477 10 10 10s10-4.478 10-10c0-5.523-4.477-10-10-10zm0 40c-5.523 0-10 4.477-10 10 0 5.522 4.477 10 10 10s10-4.478 10-10c0-5.523-4.477-10-10-10z" fill="#fbc56d"/><path d="m104.5 420h292v32.765c-40.775 30.305-91.293 48.235-146 48.235s-105.225-17.93-146-48.235z" fill="#2740af"/><path d="m154.5 420v61.477c29.481 12.568 61.928 19.523 96 19.523 54.707 0 105.225-17.93 146-48.235v-32.765zm121 50h-50c-5.523 0-10-4.477-10-10s4.477-10 10-10h50c5.523 0 10 4.477 10 10s-4.477 10-10 10z" fill="#4f66cf"/><path d="m208.877 390h-35c-5.523 0-10-4.477-10-10 0-5.523 4.477-10 10-10h35c5.523 0 10 4.477 10 10 0 5.523-4.477 10-10 10zm10-50c0-5.523-4.477-10-10-10h-35c-5.523 0-10 4.477-10 10 0 5.523 4.477 10 10 10h35c5.523 0 10-4.477 10-10zm-53.165-93.548c-.633.298-1.142.804-1.455 1.429-1.99 3.98-3.217 8.699-3.399 14.157-.019.58-.029 1.163-.029 1.748 0 20.835 12.384 38.679 29.957 46.094.377.159.805.159 1.182 0 17.573-7.414 29.957-25.258 29.957-46.094 0-.585-.01-1.168-.029-1.748-.182-5.458-1.41-10.177-3.399-14.157-.313-.626-.822-1.132-1.455-1.429-7.428-3.492-16.23-5.513-25.665-5.513-9.436 0-18.237 2.021-25.665 5.513z" fill="#22b27f"/><path d="m192.628 309.596c-.219.096-.439.191-.66.285-.377.159-.804.159-1.182 0-17.573-7.414-29.957-25.258-29.957-46.094 0-.585.01-1.168.029-1.748.182-5.458 1.41-10.177 3.399-14.157.313-.626.822-1.132 1.455-1.429 5.736-2.697 12.292-4.516 19.325-5.205-.054 1.451-.093 2.928-.116 4.429-.019 1.287-.029 2.58-.029 3.878 0 22.141 2.842 42.759 7.736 60.041z" fill="#059b7e"/><path d="m327.124 390h-35c-5.523 0-10-4.477-10-10 0-5.523 4.477-10 10-10h35c5.523 0 10 4.477 10 10 0 5.523-4.478 10-10 10zm10-50c0-5.523-4.477-10-10-10h-35c-5.523 0-10 4.477-10 10 0 5.523 4.477 10 10 10h35c5.522 0 10-4.477 10-10zm-53.165-93.548c-.633.298-1.142.804-1.455 1.429-1.99 3.98-3.217 8.699-3.399 14.157-.019.58-.029 1.163-.029 1.748 0 20.835 12.384 38.679 29.957 46.094.377.159.805.159 1.182 0 17.573-7.414 29.957-25.258 29.957-46.094 0-.585-.01-1.168-.029-1.748-.182-5.458-1.41-10.177-3.399-14.157-.313-.626-.822-1.132-1.455-1.429-7.428-3.492-16.23-5.513-25.665-5.513s-18.237 2.021-25.665 5.513z" fill="#fc6930"/><path d="m310.874 309.596c-.219.096-.439.191-.66.285-.377.159-.804.159-1.182 0-17.573-7.414-29.957-25.258-29.957-46.094 0-.585.01-1.168.029-1.748.182-5.458 1.41-10.177 3.399-14.157.313-.626.822-1.132 1.455-1.429 5.736-2.697 12.292-4.516 19.325-5.205-.054 1.451-.093 2.928-.116 4.429-.019 1.287-.029 2.58-.029 3.878.001 22.141 2.843 42.759 7.736 60.041z" fill="#ee4424"/><path d="m314.413 150c0 35.298-28.615 63.913-63.913 63.913s-63.913-28.615-63.913-63.913 28.615-63.913 63.913-63.913 63.913 28.615 63.913 63.913z" fill="#fc6930"/><path d="m316.368 126.294c-.081-.277-.179-.544-.295-.801-9.953-26.547-35.592-45.493-65.573-45.493-20.542 0-39.046 8.895-51.862 23.035-.308.281-.589.595-.837.94-10.768 12.313-17.3 28.42-17.3 46.025 0 38.598 31.402 70 70 70s70-31.402 70-70c-.001-8.317-1.459-16.3-4.133-23.706zm-14.189-2.226c-12.963 4.151-24.948 10.423-35.554 18.415-1.572-1.717-3.184-3.397-4.834-5.039-3.474-3.456-7.122-6.742-10.921-9.844 7.194-9.83 12.727-20.965 16.199-33.007 15.336 4.594 28.017 15.396 35.11 29.475zm-51.679-31.894c1.527 0 3.04.06 4.538.177-3.069 10.165-7.806 19.579-13.897 27.932-8.559-5.918-17.719-10.959-27.271-14.994 9.98-8.193 22.741-13.115 36.63-13.115zm-57.826 57.826c0-13.269 4.492-25.507 12.035-35.276 10.117 3.863 19.7 8.915 28.567 14.975-10.945 11.478-24.8 20.149-40.422 24.878-.119-1.51-.18-3.036-.18-4.577zm2.43 16.607c18.664-5.394 35.155-15.745 47.974-29.563 5.011 4.108 9.737 8.56 14.137 13.315-14.907 13.831-26.273 31.42-32.646 51.32-14.068-7.088-24.864-19.753-29.465-35.072zm55.396 41.219c-5.014 0-9.881-.642-14.523-1.847 5.634-17.944 15.777-33.82 29.121-46.326 8.525 10.979 15.437 23.24 20.345 36.393-9.713 7.39-21.825 11.78-34.943 11.78zm44.446-20.873c-5.184-12.531-12.1-24.402-20.456-35.151 9.555-7.106 20.338-12.667 31.99-16.325 1.205 4.642 1.847 9.509 1.847 14.523-.001 14.039-5.03 26.926-13.381 36.953z" fill="#ee4424"/><path d="m192.582 253.793 4.732 9.588c.196.397.574.672 1.012.735l10.581 1.538c1.102.16 1.543 1.515.745 2.293l-7.657 7.463c-.317.309-.461.754-.387 1.19l1.807 10.538c.188 1.098-.964 1.935-1.95 1.417l-9.464-4.976c-.392-.206-.859-.206-1.251 0l-9.464 4.976c-.986.518-2.138-.319-1.95-1.417l1.807-10.538c.075-.436-.07-.881-.387-1.19l-7.657-7.463c-.798-.778-.358-2.132.745-2.293l10.581-1.538c.438-.064.816-.339 1.012-.735l4.732-9.588c.495-.999 1.92-.999 2.413 0zm115.836 0-4.732 9.588c-.196.397-.574.672-1.012.735l-10.581 1.538c-1.102.16-1.543 1.515-.745 2.293l7.657 7.463c.317.309.461.754.387 1.19l-1.807 10.538c-.188 1.098.964 1.935 1.95 1.417l9.464-4.976c.392-.206.859-.206 1.251 0l9.464 4.976c.986.518 2.138-.319 1.95-1.417l-1.807-10.538c-.075-.436.07-.881.387-1.19l7.657-7.463c.798-.778.358-2.132-.745-2.293l-10.581-1.538c-.438-.064-.816-.339-1.012-.735l-4.732-9.588c-.495-.999-1.92-.999-2.413 0z" fill="#fdf385"/></g></svg>