<svg id="Capa_1" enable-background="new 0 0 501 501" height="512" viewBox="0 0 501 501" width="512" xmlns="http://www.w3.org/2000/svg"><g><path d="m50.199 134.5c-4.541 0-7.361-4.947-5.044-8.852 42.686-71.932 121.135-120.148 210.845-120.148 5.956 0 11.862.213 17.711.63 82.198 5.872 77.361 128.37-5.046 128.37z" fill="#2740af"/><path d="m332.809 74.5c-2.058 30.654-23.81 60-64.144 60h-218.466c-4.541 0-7.361-4.947-5.044-8.852 11.168-18.819 24.783-36.014 40.407-51.148z" fill="#172a7d"/><path d="m45.841 124.5h420.319c22.12 36.816 34.84 79.922 34.84 126 0 29.509-5.217 57.8-14.779 84h-460.442c-9.562-26.2-14.779-54.491-14.779-84 0-46.078 12.72-89.184 34.841-126z" fill="#f8bb5e"/><path d="m500.486 234.5c.341 5.289.514 10.624.514 16 0 135.31-109.69 245-245 245s-245-109.69-245-245c0-5.376.173-10.711.514-16z" fill="#f5dc90"/><path d="m324.159 458c0 7.456-6.044 13.5-13.5 13.5h-160.544c-15.571-7.474-30.229-16.544-43.764-27h204.308c7.456 0 13.5 6.044 13.5 13.5zm89.341-83.5c-7.456 0-13.5 6.044-13.5 13.5s6.044 13.5 13.5 13.5h35.448c6.709-8.561 12.86-17.579 18.4-27z" fill="#fbc56d"/><path d="m355 234.5h30v224.328c-9.58 5.945-19.6 11.247-30 15.846z" fill="#f9eecf"/><path d="m501 250.5c0 16.721-1.675 33.051-4.867 48.831-32.455 28.14-74.805 45.169-121.133 45.169-102.173 0-185-82.827-185-185 0-63.922 32.419-120.271 81.713-153.504 127.988 8.101 229.287 114.472 229.287 244.504z" fill="#fd7d43"/><path d="m466.795 320.155c-27.051 15.49-58.389 24.345-91.795 24.345-102.173 0-185-82.827-185-185 0-33.406 8.855-64.744 24.345-91.795 8.622 135.468 116.982 243.828 252.45 252.45z" fill="#f16b38"/><path d="m500.461 266.875c-.462 6.997-1.217 13.914-2.254 20.739-4.914-1.868-9.802-3.828-14.662-5.882-13.815-5.838-27.248-12.356-40.276-19.537-20.875 24.29-38.174 51.737-51.075 81.516-5.661.522-11.396.789-17.194.789-1.673 0-3.341-.023-5.003-.067 13.298-33.395 31.947-64.615 55.507-92.596-16.964-10.446-33.177-22.071-48.579-34.834-33.581 28.26-78.663 40.56-128.404 34.747-12.84-1.501-25.631-4.172-38.238-7.945-4.062-7.921-7.57-16.174-10.471-24.706 16.68 6.447 33.819 10.775 51.032 12.787 7.249.848 14.382 1.267 21.368 1.267 34.366 0 65.228-10.149 89.399-29.459-5.007-4.562-9.92-9.251-14.736-14.067-39.473-39.474-70.462-85.457-92.105-136.672-3.507-8.3-6.744-16.681-9.709-25.137 5.17-5.102 10.64-9.902 16.379-14.371 22.543 68.468 62.669 129.025 115.009 176.302 26.865-29.643 38.671-70.838 33.302-116.769-.59-5.052-1.38-10.097-2.365-15.126 8.09 6.366 15.769 13.23 22.991 20.547 3.873 48.517-9.733 92.166-38.76 124.396 15.028 12.308 30.942 23.571 47.632 33.678 2.062-2.172 4.156-4.321 6.281-6.446 14.907-14.907 30.959-28.258 47.959-39.973 1.803 7.106 3.295 14.335 4.462 21.673-14.493 10.561-28.069 22.308-40.584 35.098 13.904 7.481 28.289 14.184 43.094 20.048z" fill="#c64b1a"/><path d="m175.767 234.034h-30.904c-10.667 0-19.315-8.648-19.315-19.315v-30.904c0-10.667 8.648-19.315 19.315-19.315h30.904c10.667 0 19.315 8.648 19.315 19.315v30.904c0 10.668-8.647 19.315-19.315 19.315zm-83.055-32.835v21.247c0 10.667-8.648 19.315-19.315 19.315s-19.315-8.648-19.315-19.315v-21.247c0-10.667 8.648-19.315 19.315-19.315s19.315 8.647 19.315 19.315z" fill="#bbe0fb"/><path d="m175.767 234.034h-1.932c-10.667 0-19.315-8.648-19.315-19.315v-30.904c0-10.667 8.648-19.315 19.315-19.315h1.932c10.667 0 19.315 8.648 19.315 19.315v30.904c0 10.668-8.647 19.315-19.315 19.315zm71.466-52.15c-10.667 0-19.315 8.648-19.315 19.315v21.247c0 10.667 8.648 19.315 19.315 19.315s19.315-8.648 19.315-19.315v-21.247c0-10.668-8.648-19.315-19.315-19.315z" fill="#e3f0fb"/><path d="m262.685 446.5h-204.74c-32.002 0-57.945-25.943-57.945-57.945v-127.48c0-32.002 25.943-57.945 57.945-57.945h204.74c32.002 0 57.945 25.943 57.945 57.945v127.479c0 32.003-25.943 57.946-57.945 57.946z" fill="#059b7e"/><path d="m262.685 446.5h-102.37c-67.205 0-121.685-54.48-121.685-121.685 0-67.205 54.48-121.685 121.685-121.685h102.37c32.002 0 57.945 25.943 57.945 57.945v127.479c0 32.003-25.943 57.946-57.945 57.946z" fill="#22b27f"/><path d="m243.37 393.602h-166.11c-5.334 0-9.658-4.324-9.658-9.658v-118.258c0-5.334 4.324-9.658 9.658-9.658h166.11c5.334 0 9.658 4.324 9.658 9.658v118.258c-.001 5.334-4.324 9.658-9.658 9.658z" fill="#172a7d"/><path d="m243.37 393.602h-143.712c-5.334 0-9.658-4.324-9.658-9.658v-118.258c0-5.334 4.324-9.658 9.658-9.658h143.712c5.334 0 9.658 4.324 9.658 9.658v118.258c-.001 5.334-4.324 9.658-9.658 9.658z" fill="#2740af"/><path d="m174.801 335.921c0 4-3.243 7.243-7.243 7.243s-7.243-3.243-7.243-7.243 3.243-7.243 7.243-7.243 7.243 3.243 7.243 7.243zm-38.63-7.243c-4 0-7.243 3.243-7.243 7.243v24.144c0 4 3.243 7.243 7.243 7.243s7.243-3.243 7.243-7.243v-24.144c0-4-3.242-7.243-7.243-7.243zm0-48.288h-19.315c-4 0-7.243 3.243-7.243 7.243s3.243 7.243 7.243 7.243h12.072v16.901c0 4 3.243 7.243 7.243 7.243s7.243-3.243 7.243-7.243v-24.144c0-4-3.242-7.243-7.243-7.243zm-41.044 48.288c-4 0-7.243 3.243-7.243 7.243v24.144c0 4 3.243 7.243 7.243 7.243s7.243-3.243 7.243-7.243v-24.144c0-4-3.243-7.243-7.243-7.243zm0-48.288c-4 0-7.243 3.243-7.243 7.243v24.144c0 4 3.243 7.243 7.243 7.243s7.243-3.243 7.243-7.243v-24.144c0-4-3.243-7.243-7.243-7.243zm72.431 24.144c-4 0-7.243 3.243-7.243 7.243s3.243 7.243 7.243 7.243 7.243-3.243 7.243-7.243-3.242-7.243-7.243-7.243zm57.945-24.144c-4 0-7.243 3.243-7.243 7.243v24.144c0 4 3.243 7.243 7.243 7.243s7.243-3.243 7.243-7.243v-24.144c.001-4-3.242-7.243-7.243-7.243zm0 48.288c-4 0-7.243 3.243-7.243 7.243v24.144c0 4 3.243 7.243 7.243 7.243s7.243-3.243 7.243-7.243v-24.144c.001-4-3.242-7.243-7.243-7.243zm-28.972-48.288c-4 0-7.243 3.243-7.243 7.243v24.144c0 4 3.243 7.243 7.243 7.243s7.243-3.243 7.243-7.243v-24.144c0-4-3.243-7.243-7.243-7.243zm0 48.288c-4 0-7.243 3.243-7.243 7.243v24.144c0 4 3.243 7.243 7.243 7.243s7.243-3.243 7.243-7.243v-24.144c0-4-3.243-7.243-7.243-7.243z" fill="#49b4fa"/></g></svg>