<svg id="Capa_1" enable-background="new 0 0 501 501" height="512" viewBox="0 0 501 501" width="512" xmlns="http://www.w3.org/2000/svg"><g><path d="m68.994 407.239c-5.449 1.779-11.419-.1-14.851-4.691-30.551-40.87-48.643-91.596-48.643-146.548 0-135.31 109.69-245 245-245s245 109.69 245 245c0 54.791-17.986 105.382-48.376 146.189-3.583 4.812-9.839 6.768-15.544 4.911-54.173-17.632-115.763-27.6-181.08-27.6-65.489 0-127.229 10.02-181.506 27.739z" fill="#6c7fd7"/><path d="m316.297 0h10.203v98.5c0 33.966-27.534 61.5-61.5 61.5h-29c-33.966 0-61.5-27.534-61.5-61.5v-98.5h10.203c20.175 12.869 42.422 20 65.797 20s45.623-7.131 65.797-20z" fill="#e55920"/><path d="m326.5 0v30h-10.203c-20.175 12.869-42.422 20-65.797 20s-45.623-7.131-65.797-20h-10.203v-30h10.203c20.175 12.869 42.422 20 65.797 20s45.623-7.131 65.797-20z" fill="#fc6930"/><path d="m447.25 201.5v124.197c0 69.606-42.082 132.714-106.824 158.273-27.841 10.991-58.178 17.03-89.926 17.03-31.855 0-62.29-6.079-90.208-17.141-64.54-25.573-106.542-88.436-106.542-157.858v-124.501c0-6.372 5.214-11.491 11.586-11.5 33.098-.046 59.914-26.891 59.914-60v-115c0-8.284 6.716-15 15-15h48.75v87.583c0 33.8 26.887 61.973 60.684 62.411 34.339.446 62.316-27.257 62.316-61.494v-88.5h48.75c8.284 0 15 6.716 15 15v115c0 33.108 26.816 59.954 59.914 60 6.372.009 11.586 5.128 11.586 11.5z" fill="#fd7d43"/><path d="m104.5 175.382c12.709-11.002 20.75-27.253 20.75-45.382v-115c0-8.284 6.716-15 15-15h40.75c-8.284 0-15 6.716-15 15v145c0 20.87-10.655 39.251-26.822 50 0 0-45.199-25.51-34.678-34.618z" fill="#f16b38"/><path d="m325.5 285c0 41.421-33.579 75-75 75s-75-33.579-75-75 33.579-75 75-75 75 33.579 75 75z" fill="#fc6930"/><path d="m336.5 0v89c0 47.497-38.503 86-86 86-47.497 0-86-38.503-86-86v-89h24.5v88.5c0 33.966 27.534 61.5 61.5 61.5 33.966 0 61.5-27.534 61.5-61.5v-88.5z" fill="#fdcbbb"/><path d="m447.25 201.5v200.52c-27.046 36.383-63.946 65.006-106.75 81.92v-265.09c0-5.976 2.673-11.64 7.286-15.439l42.127-34.693c11.006 13.017 27.456 21.282 45.837 21.282 6.351 0 11.5 5.149 11.5 11.5zm-294.036 1.912-42.127-34.693c-11.006 13.016-27.456 21.281-45.837 21.281-6.351 0-11.5 5.149-11.5 11.5v200.52c27.046 36.383 63.946 65.006 106.75 81.92v-265.09c0-5.976-2.673-11.639-7.286-15.438z" fill="#f9eecf"/><path d="m111.087 168.719 38.927 32.058c-10.958 11.823-26.622 19.223-44.014 19.223-6.351 0-11.5 5.149-11.5 11.5l-40.75-30c0-6.351 5.149-11.5 11.5-11.5 18.379 0 34.828-8.264 45.835-21.279 0-.001.001-.002.002-.002z" fill="#f7e6b0"/><path d="m405.5 181.827c8.881 5.195 19.218 8.173 30.25 8.173 6.351 0 11.5 5.149 11.5 11.5v200.52c-12.071 16.238-26.105 30.93-41.75 43.726z" fill="#ffdf8e"/><path d="m95.5 181.827v263.918c-15.645-12.795-29.679-27.488-41.75-43.726v-200.519c0-6.351 5.149-11.5 11.5-11.5 11.032 0 21.369-2.978 30.25-8.173z" fill="#fbc56d"/><path d="m359.5 470h-50c-2.761 0-5-2.239-5-5v-50c0-2.761 2.239-5 5-5h50c2.761 0 5 2.239 5 5v50c0 2.761-2.239 5-5 5z" fill="#c64b1a"/><path d="m441.06 410c-19.623 24.251-43.781 44.681-71.184 60h-30.376c-2.761 0-5-2.239-5-5v-50c0-2.761 2.239-5 5-5z" fill="#fc5426"/><path d="m368.25 420v40c0 1.381-1.119 2.5-2.5 2.5h-2.5c-1.381 0-2.5-1.119-2.5-2.5v-40c0-1.381 1.119-2.5 2.5-2.5h2.5c1.381 0 2.5 1.119 2.5 2.5zm11.25 34.5v2.5c0 1.381 1.119 2.5 2.5 2.5h4.974c3.585-2.409 7.103-4.91 10.55-7.5h-15.524c-1.381 0-2.5 1.119-2.5 2.5zm0-15.75v2.5c0 1.381 1.119 2.5 2.5 2.5h25.909c2.901-2.435 5.745-4.936 8.529-7.5h-34.438c-1.381 0-2.5 1.119-2.5 2.5zm2.5-17.5c-1.381 0-2.5 1.119-2.5 2.5v2.5c0 1.381 1.119 2.5 2.5 2.5h42.231c2.436-2.449 4.82-4.95 7.151-7.5z" fill="#c64b1a"/><path d="m335.142 422.153 5.408 9.889c.184.336.459.611.795.795l9.889 5.408c1.387.759 1.387 2.751 0 3.509l-9.889 5.408c-.336.184-.611.459-.795.795l-5.408 9.889c-.759 1.387-2.751 1.387-3.509 0l-5.408-9.889c-.184-.336-.459-.611-.795-.795l-9.889-5.408c-1.387-.759-1.387-2.751 0-3.509l9.889-5.408c.336-.184.612-.459.795-.795l5.408-9.889c.758-1.387 2.751-1.387 3.509 0z" fill="#fcf498"/><path d="m258.601 246.7v136.148c0 4.142-3.357 7.5-7.5 7.5s-7.5-3.358-7.5-7.5v-128.648h-21.601c-4.143 0-7.5-3.358-7.5-7.5s3.357-7.5 7.5-7.5h29.101c4.142 0 7.5 3.358 7.5 7.5z" fill="#f5f0eb"/></g></svg>