<svg id="Capa_1" enable-background="new 0 0 501 501" height="512" viewBox="0 0 501 501" width="512" xmlns="http://www.w3.org/2000/svg"><g><path d="m495.5 256c0 135.31-109.69 245-245 245s-245-109.69-245-245 109.69-245 245-245 245 109.69 245 245z" fill="#bbe0fb"/><path d="m113.5 140h-11c-1.105 0-2-.895-2-2v-136c0-1.105.895-2 2-2h11c1.105 0 2 .895 2 2v136c0 1.105-.895 2-2 2zm172-2v-136c0-1.105-.895-2-2-2h-11c-1.105 0-2 .895-2 2v136c0 1.105.895 2 2 2h11c1.105 0 2-.895 2-2z" fill="#f4aa39"/><path d="m228.5 80h-86c-1.105 0-2-.895-2-2v-76c0-1.105.895-2 2-2h86c1.105 0 2 .895 2 2v76c0 1.105-.895 2-2 2z" fill="#e43950"/><path d="m198.5 90h-96c-1.105 0-2-.895-2-2v-76c0-1.105.895-2 2-2h96c1.105 0 2 .895 2 2v76c0 1.105-.895 2-2 2z" fill="#fd5757"/><path d="m175.5 50c0 13.807-11.193 25-25 25s-25-11.193-25-25 11.193-25 25-25 25 11.193 25 25z" fill="#c92e43"/><path d="m115.5 90h-15v-80h15z" fill="#e43950"/><path d="m398.5 80h-86c-1.105 0-2-.895-2-2v-76c0-1.105.895-2 2-2h86c1.105 0 2 .895 2 2v76c0 1.105-.895 2-2 2z" fill="#059b7e"/><path d="m368.5 90h-96c-1.105 0-2-.895-2-2v-76c0-1.105.895-2 2-2h96c1.105 0 2 .895 2 2v76c0 1.105-.895 2-2 2z" fill="#57bd91"/><path d="m344.5 50c0 13.807-11.193 25-25 25s-25-11.193-25-25 11.193-25 25-25 25 11.193 25 25z" fill="#08856c"/><path d="m170.607 27.428 6.84 12.507c.232.424.581.773 1.005 1.005l12.507 6.84c1.754.959 1.754 3.479 0 4.438l-12.507 6.84c-.424.232-.773.581-1.005 1.005l-6.84 12.507c-.959 1.754-3.479 1.754-4.438 0l-6.84-12.507c-.232-.424-.581-.773-1.005-1.005l-12.507-6.84c-1.754-.959-1.754-3.479 0-4.438l12.507-6.84c.424-.232.773-.581 1.005-1.005l6.84-12.507c.959-1.754 3.478-1.754 4.438 0zm164.561 0-6.84 12.507c-.232.424-.581.773-1.005 1.005l-12.507 6.84c-1.754.959-1.754 3.479 0 4.438l12.507 6.84c.424.232.773.581 1.005 1.005l6.84 12.507c.959 1.754 3.479 1.754 4.438 0l6.84-12.507c.232-.424.581-.773 1.005-1.005l12.507-6.84c1.754-.959 1.754-3.479 0-4.438l-12.507-6.84c-.424-.232-.773-.581-1.005-1.005l-6.84-12.507c-.959-1.754-3.478-1.754-4.438 0z" fill="#fff5f5"/><path d="m285.5 90h-15v-80h15z" fill="#059b7e"/><path d="m450.5 397.544c-44.384 62.6-117.421 103.456-200 103.456s-155.616-40.856-200-103.456v-197.544h400z" fill="#f4aa39"/><path d="m50.5 280h24v146.438c-8.711-8.994-16.739-18.653-24-28.894z" fill="#d98800"/><path d="m450.5 310h-400v-170h400z" fill="#0191f8"/><path d="m74.5 310h-24v-170h24z" fill="#0280e3"/><path d="m214.5 140-50 170h-20l50-170zm100 0-50 170h70l50-170zm-60 0-50 170h40l50-170z" fill="#a1ade5"/><path d="m202.5 240v70h-66v-70c0-2.761 2.239-5 5-5h56c2.761 0 5 2.239 5 5zm-66-30c0 2.761 2.239 5 5 5h56c2.761 0 5-2.239 5-5v-70h-66zm258-70v70c0 2.761 2.239 5 5 5h51v-75zm-283 95h-32c-2.761 0-5 2.239-5 5v70h42v-70c0-2.761-2.239-5-5-5zm172 0h-56c-2.761 0-5 2.239-5 5v70h66v-70c0-2.761-2.239-5-5-5zm-209-25c0 2.761 2.239 5 5 5h32c2.761 0 5-2.239 5-5v-70h-42zm320 30v70h56v-75h-51c-2.761 0-5 2.239-5 5zm-172-30c0 2.761 2.239 5 5 5h56c2.761 0 5-2.239 5-5v-70h-66zm86 0c0 2.761 2.239 5 5 5h56c2.761 0 5-2.239 5-5v-70h-66zm61 25h-56c-2.761 0-5 2.239-5 5v70h66v-70c0-2.761-2.239-5-5-5z" fill="#49b4fa"/><path d="m254.5 140h34v20.4l-16.059 54.6h-40zm-110 170h20l22.059-75h-20zm170-170-6 20.4v49.6c0 2.761 2.239 5 5 5h48.941l12.059-41v-34zm-142.059 75h20l10.059-34.2v-40.8h-8zm136.059 25v70h26l22.059-75h-43.059c-2.761 0-5 2.239-5 5zm-22.194-4.139-21.806 74.139h24v-70c0-1.721-.87-3.24-2.194-4.139zm-58.806-.861c-.332 0-.655.033-.969.094l-4.031 13.706v61.2h22l22.059-75z" fill="#91cefb"/><path d="m476.5 130v10c0 5.523-4.477 10-10 10h-432c-5.523 0-10-4.477-10-10v-10c0-5.523 4.477-10 10-10h432c5.523 0 10 4.477 10 10z" fill="#f4aa39"/><path d="m476.5 130v10c0 5.523-4.477 10-10 10h-392c-5.523 0-10-4.477-10-10v-10c0-5.523 4.477-10 10-10h392c5.523 0 10 4.477 10 10z" fill="#f1ca50"/><path d="m306.5 350v93.5h-112v-93.5c0-8.284 6.716-15 15-15h82c8.284 0 15 6.716 15 15zm89-15h-52c-8.284 0-15 6.716-15 15v93.5h79.706c.769-.647 1.534-1.299 2.294-1.955v-91.545c0-8.284-6.716-15-15-15zm-238 0h-52c-8.284 0-15 6.716-15 15v91.545c.761.656 1.526 1.308 2.294 1.955h79.706v-93.5c0-8.284-6.716-15-15-15z" fill="#2740af"/><path d="m209.5 335h21c-8.284 0-15 6.716-15 15v93.5h-21v-93.5c0-8.284 6.716-15 15-15zm134 0c-8.284 0-15 6.716-15 15v93.5h21v-93.5c0-8.284 6.716-15 15-15zm-253 15v91.545c.761.656 1.526 1.308 2.294 1.955h21c-.769-.647-1.534-1.299-2.294-1.955v-91.545c0-8.284 6.716-15 15-15h-21c-8.284 0-15 6.716-15 15z" fill="#172a7d"/><path d="m412.273 440c-43.154 37.971-99.774 61-161.773 61s-118.619-23.029-161.773-61z" fill="#3691bb"/><path d="m131.124 470h238.752c-35.321 19.746-76.034 31-119.376 31s-84.055-11.254-119.376-31z" fill="#0680ae"/></g></svg>