<svg id="Capa_1" enable-background="new 0 0 501 501" height="512" viewBox="0 0 501 501" width="512" xmlns="http://www.w3.org/2000/svg"><g><path d="m495.488 253.574c.907 93.674-50.762 175.363-127.299 217.36-12.142 6.663-25.805 10.066-39.655 10.066h-155.603c-14.135 0-28.094-3.441-40.475-10.261-75.681-41.691-126.956-122.227-126.956-214.739 0-135.133 109.404-244.714 244.471-244.999 135.014-.286 244.21 107.565 245.517 242.573z" fill="#08856c"/><path d="m459.037 207.826c0 115.172-93.365 208.537-208.537 208.537s-208.537-93.365-208.537-208.537c0-43.44 6.146-89.097 28.87-122.493 7.445-10.942 23.04-15.818 32.378-25.134 40.997-30.887 92.005-49.199 147.289-49.199s106.292 18.312 147.289 49.199c9.025 9.005 22.45 12.94 29.711 23.467 23.182 33.608 31.537 80.245 31.537 124.16z" fill="#059b7e"/><path d="m157.784 382.071c-15.596 15.596-40.972 15.596-56.569 0-3.905-3.906-3.905-10.237 0-14.143 3.905-3.905 10.237-3.905 14.142 0 7.798 7.798 20.486 7.798 28.284 0 3.905-3.905 10.237-3.905 14.142 0 3.907 3.906 3.907 10.238.001 14.143z" fill="#78c3ae"/><path d="m404.594 145.255c0-2.952-.049-5.893-.147-8.82-.996-29.814-8.173-55.256-19.719-76.327-38.449-19.024-84.599-30.108-134.228-30.108-42.171 0-81.831 8.003-116.388 22.081-.424-.379-.875-.739-1.35-1.076-18.335-12.972-39.73-14.553-58.702-4.337-26.463 14.252-42.092 47.619-40.787 87.078.815 24.652 23.139 53.125 46.773 83.27 14.905 19.011 30.317 38.668 33.841 50.511 2.246 7.548 1.87 14.583.415 21.014-1.24-.189-2.51-.287-3.802-.287-13.807 0-25 11.193-25 25s11.194 24.821 25 25c19 .246 25.79-21.672 26.265-22.834 2.242-5.493 5.175-12.677 7.007-21.182 21.184 29.654 48.53 54.315 80.085 71.96-2.144 4.131-3.357 8.825-3.357 13.801 0 8.641 3.654 16.429 9.5 21.903v48.098h41v-48.097c5.846-5.474 9.5-13.262 9.5-21.903 0-4.977-1.212-9.67-3.357-13.801 75.897-42.442 127.451-125.468 127.451-220.944zm-341.338-12.5c-1.107-33.499 14.256-53.082 26.494-59.673 7.122-3.837 13.153-4.028 20.485-.625-7.989 18.444-12.873 39.77-13.682 63.979-.098 2.927-.147 5.868-.147 8.82 0 17.191 1.672 33.979 4.856 50.198-17.311-22.106-37.537-48.508-38.006-62.699z" fill="#f5c02c"/><path d="m426.94 46.668c-18.972-10.216-40.367-8.635-58.702 4.337-.476.337-.926.696-1.35 1.076-34.557-14.078-74.217-22.081-116.388-22.081-29.733 0-58.217 3.979-84.545 11.259-6.58 20.272-10.583 43.296-11.308 69.073-.098 3.476-.147 6.967-.147 10.472 0 63.474 16.163 122.313 43.711 170.653 31.425 55.143 115.118 60.356 154.081 9.456 1.681-2.195 3.326-4.421 4.936-6.675.43 1.997.921 3.92 1.449 5.766 1.722 6.019 7.621 20.368 8.092 21.131 3.301 9.945 12.679 17.119 23.732 17.119 13.807 0 25-11.193 25-25s-11.193-25-25-25c-1.293 0-2.563.098-3.802.287-1.455-6.43-1.831-13.466.415-21.014 3.524-11.843 18.936-31.5 33.841-50.511 23.635-30.145 45.958-58.618 46.773-83.27 1.304-39.459-14.325-72.825-40.788-87.078zm10.804 86.087c-.469 14.191-20.696 40.593-38.006 62.698 3.184-16.22 4.856-33.007 4.856-50.199 0-2.952-.049-5.892-.147-8.819-.808-24.209-5.693-45.535-13.682-63.979 7.332-3.403 12.862-3.212 19.985.625 12.238 6.592 28.101 26.175 26.994 59.674zm-167.244 242.245c0 8.284-6.716 15-15 15s-15-6.716-15-15 6.716-15 15-15 15 6.716 15 15zm-146-65c0 5.523-4.477 10-10 10s-10-4.477-10-10 4.477-10 10-10 10 4.477 10 10z" fill="#f1ca50"/><path d="m332.013 179.385c-6.34-39.904-24.927-62.302-14.983-76.862 7.06-10.338 24.868-11.401 36.564-4.237 25.76 15.78 24.754 73.244 16.879 108.306-11.047 49.189-42.662 85.683-49.942 81.321-7.566-4.533 21.237-47.136 11.482-108.528zm62.487 120.615c-5.523 0-10 4.477-10 10s4.477 10 10 10 10-4.477 10-10-4.477-10-10-10z" fill="#fdf385"/><path d="m356.5 445v31.945c-32.077 15.417-68.03 24.055-106 24.055s-73.923-8.638-106-24.055v-31.945c0-8.284 6.716-15 15-15h182c8.284 0 15 6.716 15 15z" fill="#d98800"/><path d="m356.5 445v31.945c-32.077 15.417-68.03 24.055-106 24.055-26.529 0-52.074-4.217-76-12.017v-43.983c0-8.284 6.716-15 15-15h152c8.284 0 15 6.716 15 15z" fill="#f19b0b"/><path d="m369.876 470c-35.321 19.746-76.034 31-119.376 31s-84.055-11.254-119.376-31z" fill="#f16b38"/><path d="m194.5 70c-22.056 0-40-17.944-40-40 0-5.523 4.477-10 10-10s10 4.477 10 10c0 11.028 8.972 20 20 20 5.523 0 10 4.477 10 10s-4.477 10-10 10zm110 250c0 5.523 4.477 10 10 10 11.028 0 20 8.972 20 20 0 5.523 4.477 10 10 10s10-4.477 10-10c0-22.056-17.944-40-40-40-5.523 0-10 4.477-10 10z" fill="#fff5f5"/><path d="m234.5 190c0-22.056 17.944-40 40-40 5.523 0 10 4.477 10 10s-4.477 10-10 10c-11.028 0-20 8.972-20 20 0 5.523-4.477 10-10 10s-10-4.477-10-10zm120-190c-5.523 0-10 4.477-10 10 0 11.028-8.972 20-20 20-5.523 0-10 4.477-10 10s4.477 10 10 10c22.056 0 40-17.944 40-40 0-5.523-4.477-10-10-10z" fill="#fc5426"/></g></svg>