<svg id="Capa_1" enable-background="new 0 0 501 501" height="512" viewBox="0 0 501 501" width="512" xmlns="http://www.w3.org/2000/svg"><g><path d="m490 256c0 56.056-18.826 107.716-50.5 149-.777 1.012-4.208 1.333-5 2.333-6.526 8.237-13.153 15.171-20.667 22.5-1.246 1.216-.276 3.978-1.548 5.167-43.788 40.94-102.61 66-167.285 66-22.933 0-45.131-3.151-66.183-9.044-1.236-.346-2.214-3.217-3.442-3.581-13.657-4.057-23.579-7.24-36.125-13.5-1.279-.638-6.042-.804-7.308-1.464-19.819-10.327-38.05-23.286-54.228-38.411-.708-.662-.264-3.579-.965-4.25-7.849-7.514-12.454-13.382-19.25-21.875-1.048-1.309-5.976-2.541-6.997-3.871-8.174-10.654-15.493-21.999-21.853-33.932-.669-1.256 1.373-2.178.725-3.447-3.554-6.958-7.362-15.302-10.25-22.625-.493-1.249-3.1-1.651-3.572-2.911-10.053-26.783-15.552-55.794-15.552-86.089 0-135.31 109.69-245 245-245s245 109.69 245 245z" fill="#91cefb"/><path d="m162 227h-160.302c1.081-9.164 2.667-18.174 4.731-27h155.571c7.456 0 13.5 6.044 13.5 13.5s-6.044 13.5-13.5 13.5zm-59.5-100h183c7.456 0 13.5-6.044 13.5-13.5s-6.044-13.5-13.5-13.5h-183c-7.456 0-13.5 6.044-13.5 13.5s6.044 13.5 13.5 13.5zm16.5 146.5c0-7.456-6.044-13.5-13.5-13.5h-105.468c.146 9.13.792 18.139 1.911 27h103.557c7.456 0 13.5-6.044 13.5-13.5zm-9.727 186.5h271.454c11.294-7.529 21.928-15.972 31.795-25.222.677-.635.22-1.778-.708-1.778h-336.213c10.392 9.948 21.658 18.991 33.672 27zm-6.773-140c-7.456 0-13.5 6.044-13.5 13.5s6.044 13.5 13.5 13.5h370.043c3.507-8.762 6.523-17.773 9.013-27z" fill="#63bcfa"/><path d="m439.5 405c-8.237 10.737-17.344 20.772-27.214 30h-164.488c-4.943 21.164-25.646 39.871-59.532 53.425-3.065 1.226-6.217 2.403-9.449 3.531-16.383-4.586-32.072-10.832-46.875-18.545 16.592-3.195 31.851-7.508 45.183-12.841 18.658-7.463 32.204-16.657 38.274-25.57h-137.684c-9.87-9.228-18.977-19.263-27.214-30h155.092c-7.095-5.54-16.778-10.895-28.467-15.57-31.324-12.53-73.293-19.43-118.174-19.43-10.285 0-20.416.362-30.301 1.072-4.967-9.318-9.349-18.995-13.098-28.982 14.059-1.38 28.605-2.09 43.399-2.09 48.607 0 94.532 7.662 129.314 21.575 28.441 11.376 47.596 26.382 55.94 43.425z" fill="#f5f0eb"/><path d="m369 420c0 22.091-64.919 40-145 40s-145-17.909-145-40 64.919-40 145-40 145 17.909 145 40z" fill="#6c7fd7"/><path d="m244.206 405h114.253c6.797 4.632 10.541 9.695 10.541 15s-3.744 10.368-10.541 15h-110.661c-2.054 8.793-6.828 17.161-14.137 24.912-3.193.058-6.415.088-9.661.088-14.441 0-28.388-.582-41.551-1.667 15.911-7.021 27.474-15.292 32.951-23.333h-125.859c-6.797-4.632-10.541-9.695-10.541-15s3.744-10.368 10.541-15h116.052c-7.095-5.54-16.778-10.895-28.467-15.57-4.964-1.986-10.197-3.83-15.665-5.528 18.442-2.436 39.042-3.828 60.793-3.899 10.166 7.612 17.558 16.022 21.952 24.997z" fill="#a1ade5"/><path d="m131 185c0-102.173 82.827-185 185-185s185 82.827 185 185-82.827 185-185 185-185-82.827-185-185z" fill="#fd7d43"/><path d="m407.795 345.655c-27.051 15.49-58.389 24.345-91.795 24.345-102.173 0-185-82.827-185-185 0-33.406 8.855-64.744 24.345-91.795 8.622 135.468 116.982 243.828 252.45 252.45z" fill="#f16b38"/><path d="m313.037.024c.986-.015 1.973-.024 2.963-.024 7.275 0 14.452.421 21.508 1.237 17.878 29.851 29.285 62.225 33.106 94.92 6.032 51.609-7.436 98.203-37.999 132.139 15.028 12.308 30.942 23.571 47.632 33.678 2.062-2.172 4.156-4.321 6.281-6.446 33.187-33.187 72.047-58.663 114.405-75.531.044 1.662.067 3.33.067 5.003 0 5.798-.268 11.533-.789 17.194-38.421 16.644-72.96 40.611-101.846 70.132 20.019 10.771 41.031 19.927 62.86 27.292-4.511 5.707-9.35 11.143-14.49 16.277-7.457-2.676-14.855-5.564-22.189-8.663-13.815-5.838-27.248-12.356-40.276-19.537-20.875 24.29-38.174 51.737-51.075 81.516-5.662.521-11.397.789-17.195.789-1.673 0-3.341-.023-5.003-.067 13.298-33.395 31.947-64.615 55.507-92.596-16.964-10.446-33.177-22.071-48.579-34.834-33.581 28.26-78.663 40.56-128.404 34.747-12.84-1.501-25.631-4.172-38.238-7.945-4.062-7.921-7.57-16.174-10.471-24.706 16.68 6.447 33.819 10.775 51.032 12.787 7.249.848 14.382 1.267 21.368 1.267 34.366 0 65.228-10.149 89.399-29.459-5.007-4.562-9.92-9.251-14.736-14.067-39.473-39.474-70.462-85.457-92.105-136.672-3.507-8.3-6.744-16.681-9.709-25.137 5.17-5.102 10.64-9.902 16.379-14.371 22.543 68.468 62.669 129.025 115.009 176.302 26.865-29.643 38.671-70.838 33.302-116.769-3.988-34.107-17.064-67.919-37.714-98.456z" fill="#c64b1a"/></g></svg>