<svg id="Capa_1" enable-background="new 0 0 501 501" height="512" viewBox="0 0 501 501" width="512" xmlns="http://www.w3.org/2000/svg"><g><path d="m490 256c0 135.31-109.69 245-245 245s-245-109.69-245-245 109.69-245 245-245 245 109.69 245 245z" fill="#f5dc90"/><path d="m1.363 281.992c-.9-8.541-1.363-17.212-1.363-25.992 0-73.613 32.466-139.644 83.86-184.555 15.498-2.677 29.577-1.795 40.528 4.003 7.569 4.008 11.083 9.009 16.531 16 34.222 43.92 78.867 81.847 101.388 95 53.226 31.085 87.951-14.84 196.163-1 10.359 1.325 25.912 3.314 43.171 6.866 1.566 5.833 2.922 11.752 4.06 17.748.05.266.1.542.149.829 6.391 37.207-22.641 71.101-60.393 71.101z" fill="#f8bb5e"/><path d="m74.916 297.5c-43.114 0-76.887-37.542-71.802-80.355.095-.802.196-1.52.301-2.145 6.371-37.812 21.403-72.683 42.987-102.501 5.997-3.691 12.14-5.58 18.264-4.832 6.259.764 12.525 5.65 25.059 15.422 33.683 26.263 36.279 44.159 54.667 47.333 20.648 3.564 25.663-9.197 46.667-11.333 42.534-4.325 58.888 44.258 118 73.333 4.803 2.363 56.087 26.813 115.333 18 27.053-4.023 47.42-13.741 63.847-23.943 1.162 9.678 1.76 19.53 1.76 29.521v.424c-.039 22.743-18.686 41.076-41.429 41.076z" fill="#f4aa39"/><path d="m490 256c0 59.936-21.522 114.846-57.26 157.421-7.308 8.707-20.948 3.729-16.161-3.421-4.787-7.151-4.48-120-7.579-120-11.046 0-20-8.954-20-20s8.954-20 20-20c1.105 0 2.189.09 3.245.262 5.563-11.966 17.69-20.262 31.755-20.262 5.388 0 10.492 1.218 15.051 3.393.828-13.058 11.682-23.393 24.949-23.393.571 0 1.138.02 1.699.057 2.823 14.882 4.301 30.24 4.301 45.943z" fill="#08856c"/><path d="m478.235 331.225c-11.767 36.513-31.871 69.283-58.068 96.068-6.158 6.296-16.856.62-14.997-7.989.016-.075.032-.149.049-.224 1.647-7.447-8.469-80.831 42.766-77.596 5.378.34 9.981 3.455 13.963 6.563 2.363-8.185 8.627-14.325 16.287-16.822z" fill="#026841"/><path d="m359 340h-40v-200h40z" fill="#235967"/><path d="m349 310c-5.523 0-10-4.477-10-10v-80c0-5.523 4.477-10 10-10 5.523 0 10 4.477 10 10v80c0 5.523-4.477 10-10 10z" fill="#328091"/><path d="m209 185v-170c0-8.284 6.716-15 15-15h230c8.284 0 15 6.716 15 15v170c0 8.284-6.716 15-15 15h-230c-8.284 0-15-6.716-15-15z" fill="#2740af"/><path d="m241.778 185v-170c0-8.284 6.716-15 15-15h197.222c8.284 0 15 6.716 15 15v170c0 8.284-6.716 15-15 15h-197.222c-8.285 0-15-6.716-15-15z" fill="#4f66cf"/><path d="m231.778 170v-140c0-5.523 4.477-10 10-10h194.444c5.523 0 10 4.477 10 10v140c0 5.523-4.477 10-10 10h-194.444c-5.523 0-10-4.477-10-10z" fill="#bbe0fb"/><path d="m251.778 155v-110c0-2.761 2.239-5 5-5h164.444c2.761 0 5 2.239 5 5v110c0 2.761-2.239 5-5 5h-164.444c-2.762 0-5-2.239-5-5z" fill="#e3f0fb"/><path d="m279.181 52.99 3.977 7.271c.135.247.338.45.585.585l7.271 3.977c1.02.558 1.02 2.023 0 2.58l-7.271 3.977c-.247.135-.45.338-.585.585l-3.977 7.271c-.558 1.02-2.023 1.02-2.58 0l-3.977-7.271c-.135-.247-.338-.45-.585-.585l-7.271-3.977c-1.02-.558-1.02-2.023 0-2.58l7.271-3.977c.247-.135.45-.338.585-.585l3.977-7.271c.557-1.02 2.022-1.02 2.58 0z" fill="#63bcfa"/><path d="m426.222 70.892v84.108c0 2.761-2.239 5-5 5h-148.266c-.775-4.886-1.178-9.896-1.178-15 0-52.467 42.533-95 95-95 22.498 0 43.17 7.821 59.444 20.892z" fill="#fd7d43"/><path d="m366.778 50c17.155 0 33.247 4.547 47.138 12.501-58.446 3.72-107.065 43.592-123.74 97.499h-17.22c-.775-4.886-1.178-9.896-1.178-15 0-52.467 42.533-95 95-95z" fill="#f16b38"/><path d="m426.222 128.334c-8.211-5.778-15.983-12.307-23.227-19.551-1.092-1.092-2.167-2.195-3.226-3.31-8.57 5.19-16.742 10.974-24.459 17.294 9.349 10.381 15.583 23.069 18.441 37.233h-10.521c-2.685-11.628-7.985-22.01-15.709-30.533-10.23 9.24-19.551 19.469-27.812 30.533h-12.844c7.512-10.839 16.017-21.018 25.469-30.471 2.473-2.473 4.996-4.881 7.567-7.223-12.412-9.916-28.26-15.128-45.907-15.128-3.587 0-7.25.215-10.973.651-8.839 1.033-17.64 3.255-26.206 6.566 1.49-4.382 3.291-8.619 5.377-12.687 6.474-1.938 13.042-3.309 19.636-4.08 25.543-2.985 48.693 3.331 65.937 17.843 7.909-6.554 16.235-12.523 24.946-17.888-12.098-14.368-21.675-30.4-28.503-47.549.854-.023 1.71-.034 2.569-.034 2.977 0 5.922.137 8.829.405 6.624 15.292 15.508 29.386 26.228 41.859 6.69-3.688 13.588-7.035 20.682-10.033 1.231-.52 2.467-1.029 3.705-1.526v11.205c-5.856 2.496-11.578 5.249-17.149 8.247 5.353 5.47 11.083 10.569 17.149 15.254v12.923z" fill="#c64b1a"/><path d="m424.645 103.265 5.408 9.889c.184.336.459.611.795.795l9.889 5.408c1.387.759 1.387 2.751 0 3.509l-9.889 5.408c-.336.184-.612.459-.795.795l-5.408 9.889c-.759 1.387-2.751 1.387-3.509 0l-5.408-9.889c-.184-.336-.459-.611-.795-.795l-9.889-5.408c-1.387-.759-1.387-2.751 0-3.509l9.889-5.408c.336-.184.611-.459.795-.795l5.408-9.889c.758-1.387 2.75-1.387 3.509 0zm-60.27 39.725-3.977 7.271c-.135.247-.338.45-.585.585l-7.271 3.977c-1.02.558-1.02 2.023 0 2.58l7.271 3.977c.247.135.45.338.585.585l3.977 7.271c.558 1.02 2.023 1.02 2.58 0l3.977-7.271c.135-.247.338-.45.585-.585l7.271-3.977c1.02-.558 1.02-2.023 0-2.58l-7.271-3.977c-.247-.135-.45-.338-.585-.585l-3.977-7.271c-.557-1.02-2.022-1.02-2.58 0z" fill="#fff5f5"/><path d="m447 290-25.092 135.495c-44.594 46.533-107.367 75.505-176.908 75.505-135.31 0-245-109.69-245-245 0-8.782.462-17.457 1.364-26h205.636l150 60z" fill="#0191f8"/><path d="m102.68 374.167h328.734l-6.79 36.667h-321.677c-5.691 0-11.058-2.665-14.49-7.205-.089-.118-.178-.235-.266-.353-9.023-11.976-.504-29.109 14.489-29.109zm31.323 75.563c.38.295.762.589 1.144.882 14.475 11.088 32.312 16.888 50.546 16.888h183.049c17.46-10.237 33.54-22.575 47.893-36.667h-276.13c-10.05 0-14.444 12.739-6.502 18.897zm-77.677-132.23c-4.851 0-8.333 4.683-6.932 9.328 2.822 9.361 6.19 18.487 10.065 27.339h375.658l6.79-36.667zm184.442 179.697c7.789 1.387 15.706 2.406 23.732 3.038 21.173-1.667 41.59-6.027 60.907-12.735h-83.748c-5.947 0-6.746 8.655-.891 9.697zm27.61-199.697c6.104 0 7.829-8.364 2.222-10.779l-.28-.121c-44.786-19.309-92.222-29.101-140.977-29.101h-73.364c-9.507 0-16.977 8.107-16.246 17.586.205 2.662.453 5.311.742 7.948.905 8.242 7.903 14.466 16.195 14.466h211.708z" fill="#49b4fa"/><path d="m143.233 226.992 19.646 3.749-44.813 234.855c-6.204-3.766-12.228-7.799-18.055-12.083zm65.767 271.382c6.585.97 13.255 1.677 20 2.112v-260.486h-20zm-150-82.903c6.258 7.292 12.937 14.212 20 20.722v-208.873h-20zm367-125.471-30.567 159.391c.003-.002.005-.004.008-.006 9.393-7.317 18.239-15.305 26.467-23.89l25.092-135.495zm-67 182.917c6.866-3.616 13.539-7.548 20-11.777v-181.14h-20zm-115.63 28.078c.543.003 1.086.005 1.63.005 6.348 0 12.64-.242 18.867-.716l45.133-236.535-19.646-3.749z" fill="#88b9d3"/><path d="m209 430.833h20v36.667h-20zm-79.22-133.333h20.361l7.422-38.896c-6.693-.526-13.417-.865-20.167-1.015zm79.22 56.667h20v-36.667h-20zm0-56.667h20v-25.798c-6.622-1.936-13.29-3.676-20-5.218zm0 113.333h20v-36.667h-20zm-150-113.333h20v-40h-20zm59.967 56.667h20.361l6.996-36.667h-20.361zm-59.967-1.056c.152.352.305.704.459 1.056h19.541v-36.667h-20zm49.155 57.722h20.361l6.996-36.667h-20.361zm135.835 86.916c6.548 1.075 13.184 1.891 19.896 2.437l2.421-12.686h-20.361zm158.838-86.916h21.796l2.965-16.011 3.825-20.656h-21.554zm-43.828-56.666h20v-36.667h-20zm-109.239 113.333h20.361l6.996-36.667h-20.361zm170.965-150-7.031 36.667h21.422l2.158-11.655 4.632-25.012zm-25.293 131.891c7.42-5.78 14.498-11.977 21.2-18.557h-17.641zm-124.046-95.224h20.361l6.996-36.667h-20.361zm-10.813 56.666h20.361l6.996-36.667h-20.361zm98.426 0h20v-36.667h-20zm0 56.667h9.742c3.475-2.038 6.896-4.158 10.258-6.359v-30.307h-20z" fill="#bbe0fb"/><path d="m3.416 215h85.584v30h-88.757c.449-10.174 1.519-20.186 3.173-30z" fill="#bbe0fb"/><path d="m501 285v10c0 5.523-4.477 10-10 10h-56.843c-52.012 0-103.575-10.307-151.338-30.899-44.785-19.309-92.222-29.101-140.976-29.101h-87.843c-8.284 0-15-6.716-15-15s6.716-15 15-15h87.843c52.012 0 103.575 10.307 151.338 30.899 44.785 19.309 92.222 29.101 140.976 29.101h56.843c5.523 0 10 4.477 10 10z" fill="#e3f0fb"/></g></svg>