<svg xmlns="http://www.w3.org/2000/svg" viewBox="0 0 512 512"><path d="M401.655 205.728l7.219-7.22c7.413-7.413 7.413-19.475 0-26.888l-3.944-3.944c-7.413-7.414-19.477-7.413-26.888 0l-7.642 7.641c-21.518-16.576-46.713-28.595-74.135-34.609 21.518-13.467 35.869-37.37 35.869-64.573C332.135 34.154 297.98 0 255.999 0c-41.98 0-76.135 34.154-76.135 76.135 0 27.192 14.339 51.085 35.842 64.556a186.775 186.775 0 00-61.62 25.685c-4.429 2.866-8.705 5.928-12.856 9.134l-7.834-7.834c-7.414-7.413-19.475-7.413-26.889 0l-4.17 4.17c-7.413 7.413-7.413 19.475 0 26.888l7.484 7.484a187.996 187.996 0 00-23.815 37.974 7.499 7.499 0 003.587 9.981 7.497 7.497 0 009.981-3.587 172.976 172.976 0 0130.913-45.226l6.301-6.301a173.839 173.839 0 0125.447-20.091c23.472-15.19 50.128-24.332 77.878-26.87.511.11 1.04.171 1.583.171H270.3c.558 0 1.1-.066 1.624-.181 87.858 8.066 156.9 82.158 156.9 172.085 0 95.298-77.529 172.827-172.825 172.827S83.174 419.471 83.174 324.174c0-15.075 1.941-30.032 5.77-44.457a7.5 7.5 0 10-14.498-3.848c-4.161 15.68-6.271 31.932-6.271 48.305C68.174 427.742 152.432 512 255.999 512s187.825-84.258 187.825-187.826c.001-44.869-15.822-86.107-42.169-118.446zm-275.437-17.309a188.257 188.257 0 00-6.319 6.319l-.171.171-6.781-6.782a4.017 4.017 0 010-5.675l4.17-4.17a4 4 0 012.837-1.173 4 4 0 012.837 1.173l6.782 6.782-3.355 3.355zm136.584-51.934a189.64 189.64 0 00-6.802-.136c-2.272 0-4.539.041-6.802.122v-13.123h13.604v13.137zm7.5-28.138h-36.208a1.828 1.828 0 01-1.827-1.827V88.38c0-1.007.819-1.827 1.827-1.827h43.811c1.008 0 1.827.819 1.827 1.827v18.14a1.829 1.829 0 01-1.827 1.827h-7.603zm7.5 15h.104c9.278 0 16.827-7.548 16.827-16.827V88.38c0-9.278-7.549-16.827-16.827-16.827h-43.811c-9.278 0-16.827 7.548-16.827 16.827v18.14c0 9.278 7.549 16.827 16.827 16.827h.104v9.89c-22.973-8.801-39.334-31.071-39.334-57.102C194.865 42.425 222.29 15 256 15s61.135 27.425 61.135 61.135c0 26.031-16.36 48.301-39.333 57.102v-9.89zm120.464 64.554l-6.555 6.555a189.749 189.749 0 00-9.75-9.489l6.687-6.685a4.017 4.017 0 015.674 0l3.944 3.944a4.017 4.017 0 010 5.675z"/><path d="M256.911 170.97c-84.476 0-153.203 68.727-153.203 153.204s68.727 153.204 153.203 153.204c39.274 0 76.622-14.843 105.165-41.795a7.501 7.501 0 00-10.299-10.907c-25.746 24.312-59.438 37.701-94.866 37.701-76.205 0-138.203-61.998-138.203-138.204s61.998-138.204 138.203-138.204 138.203 61.998 138.203 138.204c0 27.697-8.16 54.415-23.599 77.266a7.502 7.502 0 002.017 10.414 7.498 7.498 0 0010.413-2.016c17.12-25.34 26.169-54.962 26.169-85.663.001-84.477-68.726-153.204-153.203-153.204z"/><path d="M264.411 298.769v-53.657a7.5 7.5 0 00-7.5-7.5 7.5 7.5 0 00-7.5 7.5v53.657a26.324 26.324 0 00-5.865 2.545l-61.003-50.951a7.501 7.501 0 00-9.615 11.513l60.33 50.388a26.317 26.317 0 00-2.839 11.91c0 14.608 11.885 26.493 26.493 26.493 14.608 0 26.492-11.885 26.492-26.493.001-12.003-8.026-22.162-18.993-25.405zm-7.5 36.898c-6.337 0-11.493-5.156-11.493-11.493 0-.559.054-1.105.131-1.643l6.554 5.474c4.757 4.078 12.308.414 12.308-5.756v-6.764c2.44 2.109 3.993 5.218 3.993 8.689.001 6.337-5.155 11.493-11.493 11.493z"/><circle cx="143.9" cy="324.17" r="7.613"/><circle cx="370.47" cy="324.17" r="7.613"/><circle cx="256.91" cy="210.89" r="7.613"/><circle cx="256.91" cy="437.46" r="7.613"/></svg>