<svg xmlns="http://www.w3.org/2000/svg" viewBox="0 0 512.001 512.001"><path d="M397.667 173.7c-4.557-34.01-21.311-65.298-47.176-88.102C324.39 62.586 290.833 49.913 256 49.913c-34.827 0-68.38 12.669-94.478 35.674-25.863 22.796-42.619 54.077-47.183 88.079a7.499 7.499 0 006.434 8.43c4.098.543 7.879-2.33 8.43-6.435C137.678 112.524 192.189 64.912 256 64.912c63.827 0 118.339 47.625 126.801 110.78a7.5 7.5 0 0014.866-1.992zM391.328 202.216c-4.098-.49-7.854 2.412-8.364 6.522C375.058 272.62 320.475 320.793 256 320.793c-64.522 0-119.11-48.213-126.976-112.147a7.5 7.5 0 10-14.886 1.832c8.79 71.44 69.777 125.314 141.863 125.314 72.032 0 133.014-53.829 141.849-125.212a7.5 7.5 0 00-6.522-8.364z"/><path d="M459.383 429.099l-67.57-105.692a32.287 32.287 0 0019.185-12.125 32.277 32.277 0 005.959-25.322c-1.404-7.518 2.396-15.151 9.242-18.562a32.277 32.277 0 0016.616-20.014 32.278 32.278 0 00-3.591-25.762c-4.025-6.504-3.238-14.995 1.914-20.648a32.28 32.28 0 008.263-24.664 32.281 32.281 0 00-12.655-22.727c-6.103-4.61-8.436-12.811-5.674-19.944a32.278 32.278 0 00-1.204-25.984 32.282 32.282 0 00-20.011-16.622c-7.356-2.094-12.494-8.898-12.496-16.546a32.279 32.279 0 00-10.51-23.795 32.277 32.277 0 00-24.662-8.269c-7.62.69-14.865-3.784-17.629-10.916a32.28 32.28 0 00-18.396-18.392 32.28 32.28 0 00-25.985 1.199c-6.848 3.411-15.228 1.841-20.381-3.81h-.001A32.279 32.279 0 00256 0a32.279 32.279 0 00-23.797 10.504c-5.154 5.65-13.535 7.218-20.383 3.811a32.27 32.27 0 00-25.984-1.2 32.275 32.275 0 00-18.396 18.392c-2.764 7.132-10.015 11.61-17.629 10.916a32.247 32.247 0 00-24.663 8.269 32.277 32.277 0 00-10.509 23.796c-.001 7.648-5.14 14.452-12.496 16.546a32.273 32.273 0 00-20.011 16.621 32.278 32.278 0 00-1.204 25.984c2.762 7.132.428 15.334-5.674 19.944a32.276 32.276 0 00-12.655 22.727 32.276 32.276 0 008.263 24.663c5.151 5.655 5.938 14.145 1.913 20.649a32.278 32.278 0 00-3.591 25.763A32.278 32.278 0 0085.8 267.398c6.846 3.411 10.647 11.044 9.243 18.562a32.274 32.274 0 005.958 25.321 32.28 32.28 0 0019.187 12.126l-67.57 105.692a11.946 11.946 0 00-.152 12.71c2.392 3.948 6.738 6.158 11.337 5.746l65.948-5.803 22.414 62.293a11.946 11.946 0 009.974 7.879c.46.052.917.077 1.371.077 4.079 0 7.863-2.049 10.1-5.549L256 377.575l82.39 128.876c2.238 3.501 6.022 5.549 10.101 5.549.454 0 .912-.025 1.372-.077a11.951 11.951 0 009.973-7.879l22.414-62.293 65.948 5.803a11.945 11.945 0 0011.338-5.746 11.95 11.95 0 00-.153-12.709zm-390.872 2.985l65.878-103.047c2.344 2.383 4.016 5.439 4.658 8.873a32.263 32.263 0 009 16.945l-46.914 74.358-32.622 2.871zm77.425 10.351l-2.849-7.917c-1.847-5.134-6.942-8.393-12.369-7.909l-10.808.951 40.961-64.921a32.27 32.27 0 0018.642.325c5.19-1.475 10.67-.367 14.866 2.691l-48.443 76.78zm18.293 50.841l-11.852-32.94 52.314-82.916a32.255 32.255 0 0015.62 7.734c1.956.365 3.928.545 5.893.545 2.482 0 4.947-.3 7.351-.862l-69.326 108.439zm96.449-132.162a7.534 7.534 0 00-1.475-.175 32.524 32.524 0 00-6.409 0c-.496.01-.99.068-1.473.175-5.236.76-10.319 2.789-14.726 6.116-3.909 2.95-8.715 4.081-13.529 3.18-4.815-.899-8.888-3.689-11.467-7.853a31.461 31.461 0 00-1.511-2.202 7.596 7.596 0 00-.48-.627c-6.152-7.874-15.638-12.405-25.468-12.405-2.906 0-5.842.395-8.728 1.216-4.712 1.339-9.602.655-13.766-1.923-4.165-2.578-6.954-6.65-7.855-11.464-1.921-10.265-8.728-18.744-17.798-23.104a7.498 7.498 0 00-1.431-.647 31.86 31.86 0 00-9.451-2.395c-4.877-.453-9.189-2.855-12.141-6.764-2.952-3.91-4.083-8.714-3.184-13.53 2.627-14.07-4.486-28.356-17.298-34.739-4.384-2.184-7.537-5.982-8.878-10.693-1.34-4.712-.659-9.601 1.919-13.765 7.533-12.171 6.061-28.062-3.581-38.643-3.299-3.62-4.867-8.3-4.415-13.178.452-4.878 2.853-9.19 6.762-12.143 11.421-8.629 15.789-23.978 10.62-37.327-1.768-4.568-1.54-9.498.643-13.884 2.183-4.386 5.981-7.539 10.692-8.88 13.767-3.92 23.385-16.655 23.387-30.969.001-4.899 1.995-9.414 5.615-12.715 3.62-3.3 8.298-4.869 13.178-4.419 14.246 1.331 27.822-7.081 32.995-20.429 1.77-4.568 5.261-8.058 9.829-9.827 4.566-1.768 9.498-1.543 13.884.642 12.816 6.377 28.501 3.444 38.147-7.132 3.301-3.619 7.816-5.612 12.715-5.612s9.414 1.993 12.714 5.612c9.648 10.577 25.333 13.511 38.147 7.131 4.386-2.182 9.318-2.409 13.884-.641 4.568 1.769 8.059 5.259 9.829 9.826 5.172 13.347 18.731 21.747 32.995 20.43 4.883-.451 9.558 1.119 13.177 4.419 3.621 3.3 5.615 7.816 5.616 12.715.004 14.315 9.621 27.049 23.387 30.968 4.712 1.342 8.509 4.496 10.692 8.881s2.412 9.316.643 13.884c-5.169 13.349-.801 28.699 10.62 37.327 3.909 2.953 6.31 7.265 6.762 12.143.452 4.878-1.116 9.558-4.416 13.178-9.641 10.58-11.113 26.47-3.581 38.643 2.578 4.166 3.259 9.054 1.919 13.765-1.34 4.711-4.493 8.509-8.878 10.693-12.812 6.383-19.925 20.669-17.298 34.739.899 4.816-.231 9.62-3.183 13.53-2.952 3.909-7.264 6.311-12.142 6.764a31.862 31.862 0 00-9.45 2.395 7.517 7.517 0 00-1.427.645c-9.072 4.359-15.881 12.838-17.802 23.105-.901 4.815-3.691 8.887-7.856 11.466-4.166 2.579-9.054 3.261-13.765 1.922-12.617-3.59-26.155.972-34.134 11.125a7.794 7.794 0 00-.294.364c-.62.813-1.214 1.65-1.76 2.531-2.579 4.164-6.652 6.953-11.467 7.853-4.815.899-9.62-.229-13.53-3.181-4.405-3.328-9.488-5.357-14.724-6.117zm87.092 132.162l-69.316-108.424a32.214 32.214 0 0013.236.302 32.255 32.255 0 0015.617-7.732l52.315 82.916-11.852 32.938zm33.509-66.667c-5.419-.464-10.519 2.775-12.366 7.909l-2.85 7.922-48.444-76.781c4.196-3.059 9.677-4.169 14.867-2.693a32.262 32.262 0 0018.64-.325l40.96 64.92-10.807-.952zm29.584 2.604l-46.913-74.355a32.28 32.28 0 009.002-16.947c.643-3.434 2.315-6.49 4.658-8.873l65.879 103.047-32.626-2.872z"/><path d="M350.236 165.814a9.943 9.943 0 00-8.181-7.162l-53.264-7.741-23.82-48.264a9.942 9.942 0 00-8.972-5.579 9.945 9.945 0 00-8.971 5.577l-23.821 48.265-53.228 7.736a7.499 7.499 0 00-.526.093c-.311.06-.622.133-.934.224a8.323 8.323 0 00-.607.207 8.883 8.883 0 00-.689.278 7.703 7.703 0 00-.602.304 8.802 8.802 0 00-1.024.634 9.494 9.494 0 00-.963.774 9.912 9.912 0 00-.85.879l-.104.125a9.992 9.992 0 00-1.815 3.307 9.946 9.946 0 002.535 10.244l38.543 37.569-9.101 53.062c-.038.22-.064.437-.084.655-.03.264-.05.534-.058.853-.002.136 0 .286.006.436a9.232 9.232 0 00.131 1.395c.055.329.123.652.208.967a6.13 6.13 0 00.088.297 9.997 9.997 0 002.642 4.292l.035.033c.308.293.642.572 1.024.852a9.974 9.974 0 005.86 1.913c1.59 0 3.188-.384 4.665-1.159L256 251.835l47.643 25.048a9.966 9.966 0 002.539.926c.071.016.143.03.215.045a9.818 9.818 0 001.404.169c.336.017.671.014 1.005-.004a9.266 9.266 0 001.404-.172c.117-.021.234-.046.35-.072a10.027 10.027 0 002.332-.862c.059-.029.116-.06.174-.091a9.95 9.95 0 00.747-.452l.116-.076a9.947 9.947 0 004.229-9.958l-9.099-53.05 38.555-37.581c.352-.346.68-.717.982-1.113.117-.155.225-.31.327-.467.146-.215.286-.434.412-.655.022-.039.045-.079.066-.119a9.88 9.88 0 00.442-.921 6.74 6.74 0 00.158-.394c.098-.265.181-.53.255-.8a8.721 8.721 0 00.294-1.476 9.937 9.937 0 00-.314-3.946zm-54.471 39.483a7.5 7.5 0 00-2.156 6.638l8.054 46.961-42.173-22.172a7.5 7.5 0 00-6.98 0l-42.173 22.172 8.055-46.961a7.5 7.5 0 00-2.157-6.638l-34.119-33.257 47.151-6.852a7.495 7.495 0 005.646-4.102L256 118.36l21.087 42.726a7.496 7.496 0 005.647 4.102l47.15 6.852-34.119 33.257z"/></svg>