<svg height="512" width="512" xmlns="http://www.w3.org/2000/svg"><path d="M203.167 180.72a7.5 7.5 0 00-7.5 7.5v15c0 4.142 3.357 7.5 7.5 7.5s7.5-3.358 7.5-7.5v-15a7.5 7.5 0 00-7.5-7.5zM386.029 133.518a7.5 7.5 0 0010.618 0l41.451-41.529c6.926-6.938 10.74-16.162 10.74-25.972 0-20.257-16.456-36.737-36.684-36.737-7.554 0-14.744 2.266-20.816 6.479-6.072-4.213-13.264-6.479-20.817-6.479-20.227 0-36.683 16.48-36.683 36.737 0 9.81 3.813 19.033 10.738 25.972zM370.521 44.28c5.858 0 11.35 2.31 15.462 6.505a7.504 7.504 0 0010.71 0c4.112-4.195 9.604-6.505 15.461-6.505 11.956 0 21.684 9.751 21.684 21.737 0 5.809-2.257 11.269-6.356 15.375l-36.144 36.211-36.145-36.211c-4.099-4.106-6.355-9.566-6.355-15.375 0-11.986 9.726-21.737 21.683-21.737zM250.691 133.518a7.5 7.5 0 0010.618 0l41.451-41.529c6.926-6.938 10.74-16.162 10.74-25.972 0-20.257-16.456-36.737-36.683-36.737-7.554 0-14.745 2.266-20.817 6.479-6.072-4.213-13.264-6.479-20.817-6.479-20.227 0-36.683 16.48-36.683 36.737 0 9.811 3.814 19.034 10.739 25.972zM235.183 44.28c5.858 0 11.35 2.31 15.462 6.505a7.504 7.504 0 0010.71 0c4.112-4.195 9.604-6.505 15.462-6.505 11.956 0 21.683 9.751 21.683 21.737 0 5.809-2.257 11.269-6.356 15.375L256 117.603l-36.145-36.211c-4.099-4.105-6.355-9.566-6.355-15.375 0-11.986 9.727-21.737 21.683-21.737zM114.695 133.518a7.5 7.5 0 0010.618 0l41.452-41.529c6.926-6.938 10.739-16.161 10.739-25.972 0-20.257-16.456-36.737-36.683-36.737-7.554 0-14.745 2.266-20.817 6.479-6.072-4.213-13.263-6.479-20.816-6.479-20.228 0-36.684 16.48-36.684 36.737 0 9.811 3.814 19.034 10.739 25.972zM99.188 44.28c5.857 0 11.349 2.31 15.461 6.505a7.504 7.504 0 0010.71 0c4.112-4.195 9.604-6.505 15.462-6.505 11.956 0 21.683 9.751 21.683 21.737 0 5.81-2.257 11.27-6.355 15.375l-36.145 36.211-36.145-36.211c-4.099-4.105-6.355-9.566-6.355-15.375 0-11.986 9.727-21.737 21.684-21.737z"/><path d="M489.5 60.72c-12.406 0-22.5 10.093-22.5 22.5v67.5H45v-67.5c0-12.407-10.094-22.5-22.5-22.5S0 70.813 0 83.22v75c0 20.678 16.822 37.5 37.5 37.5H60v260.583c0 14.566 11.851 26.417 26.416 26.417 14.566 0 26.417-11.851 26.417-26.417V317.73h15v138.573c0 14.566 11.851 26.417 26.416 26.417 14.566 0 26.417-11.851 26.417-26.417V331.44c2.347.833 4.871 1.29 7.5 1.29s5.153-.458 7.5-1.29v124.863c0 14.566 11.851 26.417 26.416 26.417 14.566 0 26.417-11.851 26.417-26.417V317.73h15v138.573c0 14.566 11.851 26.417 26.416 26.417 14.566 0 26.417-11.851 26.417-26.417V331.518c2.337.784 4.857 1.213 7.5 1.213s5.163-.429 7.5-1.213v124.785c0 14.566 11.851 26.417 26.417 26.417 14.565 0 26.416-11.851 26.416-26.417V317.73h15v138.573c0 14.566 11.851 26.417 26.417 26.417 14.565 0 26.416-11.851 26.416-26.417V195.72H474.5c20.678 0 37.5-16.822 37.5-37.5v-75c0-12.407-10.094-22.5-22.5-22.5zm-335.251 407c-6.295 0-11.416-5.122-11.416-11.417V310.23a7.5 7.5 0 00-7.5-7.5h-30a7.5 7.5 0 00-7.5 7.5v146.073c0 6.295-5.122 11.417-11.417 11.417S75 462.598 75 456.303V188.22a7.5 7.5 0 00-7.5-7.5h-30c-12.406 0-22.5-10.093-22.5-22.5v-75c0-4.136 3.364-7.5 7.5-7.5s7.5 3.364 7.5 7.5v75a7.5 7.5 0 007.5 7.5h135.685a37.307 37.307 0 00-7.518 22.5l-.001 268.083c0 6.295-5.122 11.417-11.417 11.417zm169.584-149.99c-4.275 0-7.5-3.009-7.5-7V188.22c0-4.142-3.357-7.5-7.5-7.5s-7.5 3.358-7.5 7.5v268.083c0 6.295-5.122 11.417-11.417 11.417s-11.416-5.122-11.416-11.417V310.23a7.5 7.5 0 00-7.5-7.5h-30a7.5 7.5 0 00-7.5 7.5v146.073c0 6.295-5.122 11.417-11.417 11.417s-11.416-5.122-11.416-11.417V233.22c0-4.142-3.357-7.5-7.5-7.5s-7.5 3.358-7.5 7.5v77.011c0 4.136-3.364 7.5-7.5 7.5s-7.5-3.364-7.5-7.5V188.22c0-12.407 10.094-22.5 22.5-22.5h105.666c12.406 0 22.5 10.093 22.5 22.5v122.51c0 3.991-3.225 7-7.5 7zM497 158.22c0 12.407-10.094 22.5-22.5 22.5h-30.001a7.5 7.5 0 00-7.5 7.5v268.083c0 6.295-5.121 11.417-11.416 11.417s-11.417-5.122-11.417-11.417V310.23a7.5 7.5 0 00-7.5-7.5h-30a7.5 7.5 0 00-7.5 7.5v146.073c0 6.295-5.121 11.417-11.416 11.417s-11.417-5.122-11.417-11.417V188.22c0-8.435-2.8-16.229-7.518-22.5H474.5a7.5 7.5 0 007.5-7.5v-75c0-4.136 3.364-7.5 7.5-7.5s7.5 3.364 7.5 7.5z"/></svg>