<svg xmlns="http://www.w3.org/2000/svg" viewBox="0 0 512 512"><path d="M423.984 374.235a7.5 7.5 0 007.5-7.5V147.849a7.5 7.5 0 00-7.5-7.5c-18.881 0-34.242-15.361-34.242-34.242V7.5a7.5 7.5 0 00-7.5-7.5h-35.604a7.5 7.5 0 00-7.5 7.5v25.069c0 27.143-22.083 49.225-49.226 49.225h-67.825c-27.143 0-49.226-22.083-49.226-49.225V7.5a7.5 7.5 0 00-7.5-7.5h-35.604a7.5 7.5 0 00-7.5 7.5v98.607c0 18.881-15.361 34.242-34.242 34.242a7.5 7.5 0 00-7.5 7.5v335.277c0 15.921 12.953 28.874 28.874 28.874h293.22c15.921 0 28.874-12.953 28.874-28.874v-87.277a7.5 7.5 0 00-15 0v87.277c0 7.65-6.224 13.874-13.874 13.874H109.391c-7.65 0-13.874-6.224-13.874-13.874V154.779c23.606-3.622 41.742-24.068 41.742-48.672V15h20.604v62.069c0 27.235 11.463 53.478 31.45 71.999a7.5 7.5 0 0010.196-11.002c-16.933-15.692-26.645-37.924-26.645-60.997v-3.306c11.791 14.066 29.478 23.031 49.226 23.031h67.825c19.748 0 37.435-8.965 49.226-23.031v3.306c0 45.843-37.295 83.138-83.138 83.138-12.637 0-24.769-2.76-36.058-8.203a7.5 7.5 0 00-6.514 13.512c13.337 6.431 27.661 9.691 42.572 9.691 54.114 0 98.138-44.024 98.138-98.138V15h20.604v91.107c0 24.604 18.136 45.05 41.742 48.672v211.957a7.496 7.496 0 007.497 7.499z"/><path d="M316.434 301.658v-11.69c0-15.914-4.197-28.286-12.476-36.775-8.331-8.536-20.085-12.864-34.937-12.864h-25.797c-15.018 0-26.855 4.329-35.181 12.865-8.278 8.482-12.475 20.855-12.475 36.774v11.69c0 14.764 3.625 25.899 10.803 33.267-7.177 7.452-10.803 18.433-10.803 32.797v12.506c0 15.903 4.186 28.31 12.439 36.875 8.328 8.65 20.177 13.037 35.216 13.037h25.797c14.874 0 26.64-4.386 34.971-13.036 8.255-8.571 12.441-20.978 12.441-36.875v-12.234c0-14.75-3.514-25.851-10.474-33.163 2.013-2.267 3.794-4.98 5.333-8.132 3.412-6.99 5.143-15.414 5.143-25.042zm-26.382 40.014c7.658 3.425 11.381 12.035 11.381 26.321v12.234c0 11.884-2.774 20.79-8.245 26.47s-13.376 8.441-24.167 8.441h-25.797c-10.958 0-18.942-2.761-24.413-8.443-5.47-5.676-8.243-14.581-8.243-26.468v-12.506c0-20.335 8.933-24.722 11.868-26.164a7.5 7.5 0 00-.189-13.553c-2.889-1.32-11.679-5.337-11.679-26.346v-11.69c0-11.867 2.762-20.715 8.212-26.3 5.473-5.611 13.469-8.339 24.444-8.339h25.797c10.808 0 18.724 2.729 24.2 8.339 5.449 5.588 8.212 14.437 8.212 26.3v11.69h.001c0 7.328-1.218 13.539-3.621 18.458-2.005 4.107-4.413 6.672-7.155 7.623a7.5 7.5 0 00-.606 13.933z"/><path d="M277.777 350.962c-3.214-4.138-8.222-6.237-14.885-6.237h-13.54c-6.67 0-11.679 2.101-14.885 6.238-2.802 3.61-4.164 8.534-4.164 15.053v10.232c0 6.574 1.474 11.413 4.497 14.785 3.199 3.579 8.095 5.394 14.552 5.394h13.54c6.452 0 11.346-1.813 14.55-5.391 3.027-3.383 4.499-8.22 4.499-14.788v-10.232c0-6.513-1.36-11.435-4.164-15.054zm-10.837 25.286c0 3.136-.501 4.408-.641 4.71-.291.132-1.242.468-3.407.468h-13.54c-2.135 0-3.09-.326-3.395-.461-.175-.366-.654-1.647-.654-4.717v-10.232c0-4.422.91-5.723.952-5.793.007-.005.732-.498 3.097-.498h13.54c2.306 0 3.039.463 3.034.433.118.155 1.014 1.478 1.014 5.858v10.232zM277.656 276.767c-3.213-4.139-8.221-6.238-14.885-6.238h-13.54c-6.669 0-11.679 2.101-14.885 6.238-2.802 3.61-4.164 8.534-4.164 15.053v10.232c0 6.575 1.474 11.414 4.496 14.784 3.198 3.581 8.094 5.396 14.553 5.396h13.54c6.452 0 11.347-1.813 14.549-5.39 3.028-3.383 4.5-8.221 4.5-14.789v-10.232c0-6.512-1.36-11.434-4.164-15.054zm-10.836 25.288c0 3.136-.501 4.407-.642 4.71-.291.132-1.242.468-3.407.468h-13.54c-2.136 0-3.091-.326-3.395-.461-.175-.365-.654-1.647-.654-4.717v-10.233h.001c0-4.423.91-5.723.952-5.793.006-.005.732-.498 3.096-.498h13.54c2.307 0 3.042.474 3.034.434.118.154 1.015 1.478 1.015 5.858v10.232zM129.805 211.178a7.5 7.5 0 00-7.5 7.5v241.361a7.5 7.5 0 0015 0V218.678a7.5 7.5 0 00-7.5-7.5zM382.219 210.473a7.5 7.5 0 00-7.5 7.5v241.36a7.5 7.5 0 0015 0v-241.36a7.5 7.5 0 00-7.5-7.5z"/></svg>