<svg xmlns="http://www.w3.org/2000/svg" viewBox="0 0 512.001 512.001"><path d="M408.172 35.615H341.63V26.48C341.631 11.878 329.752 0 315.152 0h-125.9c-14.601 0-26.479 11.878-26.479 26.479v9.135h-58.945c-17.759 0-32.208 14.448-32.208 32.208v82.868a7.5 7.5 0 0015 0V67.822c0-9.488 7.719-17.208 17.208-17.208h58.945V68.18h-43.141c-8.8 0-15.96 7.159-15.96 15.959v382.897c0 8.8 7.16 15.96 15.96 15.96h272.735c8.8 0 15.96-7.16 15.96-15.96v-93.875a7.5 7.5 0 00-15 0v93.875c0 .529-.431.96-.96.96H119.632a.962.962 0 01-.96-.96V84.141a.96.96 0 01.96-.959h43.237c1.107 13.589 12.513 24.311 26.383 24.311h125.899c13.87 0 25.275-10.722 26.383-24.311h50.833c.529 0 .96.431.96.959v258.266a7.5 7.5 0 0015 0V84.141c0-8.8-7.16-15.959-15.96-15.959H341.63V50.615h66.542c9.488 0 17.208 7.719 17.208 17.208v411.97c0 9.488-7.719 17.208-17.208 17.208H103.828c-9.488 0-17.208-7.719-17.208-17.208V181.447a7.5 7.5 0 00-15 0v298.346c0 17.759 14.448 32.208 32.208 32.208h304.345c17.759 0 32.208-14.448 32.208-32.208V67.822c-.001-17.759-14.449-32.207-32.209-32.207zm-93.02 56.877h-125.9c-6.33 0-11.479-5.149-11.479-11.479V26.479c0-6.33 5.15-11.479 11.479-11.479h125.899c6.33 0 11.479 5.15 11.479 11.479v54.534h.001c0 6.33-5.149 11.479-11.479 11.479z"/><path d="M161.707 356.095c-13.833 0-25.086 11.253-25.086 25.086s11.253 25.086 25.086 25.086c13.833 0 25.086-11.253 25.086-25.086s-11.253-25.086-25.086-25.086zm0 35.172c-5.562 0-10.086-4.524-10.086-10.086s4.524-10.086 10.086-10.086 10.086 4.524 10.086 10.086-4.524 10.086-10.086 10.086zM334.131 391.958c-13.832 0-25.085 11.253-25.085 25.086s11.253 25.086 25.085 25.086c13.833 0 25.086-11.253 25.086-25.086s-11.254-25.086-25.086-25.086zm0 35.171c-5.561 0-10.085-4.524-10.085-10.086s4.524-10.086 10.085-10.086c5.562 0 10.086 4.524 10.086 10.086s-4.525 10.086-10.086 10.086zM365.528 307.836l-26.093-26.093c-2.886-2.888-7.723-2.888-10.609 0l-26.093 26.093a7.5 7.5 0 000 10.606 7.5 7.5 0 0010.606 0l13.291-13.291v12.875c0 30.688-24.967 55.655-55.655 55.655h-20.382v-55.482l13.291 13.291c1.464 1.464 3.384 2.197 5.303 2.197s3.839-.732 5.303-2.197a7.5 7.5 0 000-10.606l-26.093-26.093c-2.886-2.888-7.723-2.888-10.609 0l-26.093 26.093a7.5 7.5 0 000 10.606 7.5 7.5 0 0010.606 0l13.291-13.291v55.482h-28.804a7.5 7.5 0 000 15h30.003c4.882 21.643 24.249 37.862 47.346 37.862a7.5 7.5 0 000-15c-14.762 0-27.318-9.589-31.791-22.862h18.628c38.959 0 70.655-31.696 70.655-70.655v-12.875l13.291 13.291c1.464 1.464 3.384 2.197 5.303 2.197s3.841-.733 5.305-2.197a7.5 7.5 0 000-10.606z"/><path d="M365.528 318.442c-1.464 1.464 2.93-2.929 0 0zM244.513 226.097c-13.833 0-25.086 11.253-25.086 25.085 0 13.833 11.253 25.086 25.086 25.086s25.086-11.253 25.086-25.086c0-13.832-11.253-25.085-25.086-25.085zm0 35.17c-5.562 0-10.086-4.524-10.086-10.086 0-5.56 4.524-10.085 10.086-10.085s10.086 4.524 10.086 10.085c0 5.562-4.524 10.086-10.086 10.086zM166.516 146.413c-13.833 0-25.086 11.253-25.086 25.086 0 13.832 11.253 25.085 25.086 25.085 13.832 0 25.085-11.253 25.085-25.085s-11.253-25.086-25.085-25.086zm0 35.171c-5.562 0-10.086-4.524-10.086-10.085 0-5.562 4.524-10.086 10.086-10.086 5.561 0 10.085 4.524 10.085 10.086 0 5.561-4.524 10.085-10.085 10.085zM269.188 128.827c-13.832 0-25.085 11.253-25.085 25.086 0 13.833 11.252 25.086 25.085 25.086s25.086-11.253 25.086-25.086c0-13.833-11.253-25.086-25.086-25.086zm0 35.172c-5.561 0-10.085-4.524-10.085-10.086s4.523-10.086 10.085-10.086c5.562 0 10.086 4.524 10.086 10.086s-4.524 10.086-10.086 10.086zM342.752 223.948l14.268-14.268a7.5 7.5 0 000-10.606 7.5 7.5 0 00-10.606 0l-14.268 14.268-14.268-14.268a7.5 7.5 0 00-10.606 0 7.5 7.5 0 000 10.606l14.268 14.268-14.268 14.268a7.5 7.5 0 000 10.606 7.5 7.5 0 0010.606 0l14.268-14.268 14.268 14.268c1.464 1.464 3.384 2.197 5.303 2.197s3.839-.732 5.303-2.197a7.5 7.5 0 000-10.606l-14.268-14.268z"/></svg>