<svg xmlns="http://www.w3.org/2000/svg" viewBox="0 0 512 512"><path d="M436.108 418.946c4.218-1.98 6.714-7.489 6.714-14.289 0-11.449-7.747-15.408-18.163-15.408-14.548 0-18.852 8.866-18.852 14.978 0 3.616.775 4.821 5.767 4.821 4.132 0 5.337-1.722 5.337-4.304 0-3.443 2.066-5.767 7.661-5.767 4.648 0 7.575 1.894 7.575 7.575 0 7.403-3.615 8.435-7.919 8.435-2.496 0-3.357 2.238-3.357 4.39 0 2.238.861 4.39 3.357 4.39 5.509 0 9.469 1.808 9.469 8.178v1.636c0 6.542-2.755 9.296-9.211 9.296-5.509 0-8.952-2.41-8.952-6.284 0-2.755-1.205-3.96-5.767-3.96-3.873 0-5.337.947-5.337 4.39 0 6.973 5.681 15.667 19.799 15.667 11.363 0 20.659-5.251 20.659-19.11v-1.636c0-7.145-3.702-11.018-8.78-12.998zM104.315 442.618h-23.93v-2.066c0-8.952 27.287-14.978 27.287-33.571 0-10.933-9.297-17.474-19.282-17.474-9.555 0-18.507 6.026-18.507 15.839 0 4.648 2.152 6.026 5.079 6.026 3.702 0 5.854-2.066 5.854-4.132 0-5.337 3.443-7.575 7.661-7.575 5.681 0 8.005 4.132 8.005 7.661 0 12.138-27.718 19.454-27.718 33.227v8.35c0 2.151 2.926 3.528 4.906 3.528h30.645c1.894 0 3.529-2.41 3.529-4.993 0-2.581-1.635-4.82-3.529-4.82zM258.233 363.021c-.947 0-1.722.344-2.325.861l-10.157 7.747c-1.377.86-2.152 2.496-2.152 4.046 0 2.238 1.463 4.477 3.616 4.477.602 0 1.377-.172 2.066-.775l2.755-2.755v45.967c0 2.324 2.755 3.529 5.595 3.529 2.755 0 5.595-1.205 5.595-3.529v-55.952c0-2.239-2.669-3.616-4.993-3.616z"/><path d="M498.344 330.691h-95.076a7.514 7.514 0 100 15.028h93.705v150.63h-150.63v-150.63h21.964a7.514 7.514 0 100-15.028h-21.964v-34.036c0-7.529-6.126-13.656-13.656-13.656H314.58l-7.417-30.365a10.54 10.54 0 00-10.265-8.061h-20.744v-63.456l3.156-2.325c11.774-8.674 21.869-19.197 30.02-30.997a.057.057 0 00-.008.013c.139.154.266.313.41.464 4.604 4.831 11.131 7.602 17.91 7.602 3.129 0 6.112-.597 8.863-1.773 7.285-3.112 11.913-9.618 13.029-18.32a7.515 7.515 0 00-6.496-8.41c-4.116-.52-7.881 2.38-8.409 6.496-.637 4.966-3.1 6.019-4.028 6.415-.863.369-1.886.564-2.959.564-2.608 0-5.302-1.127-7.031-2.942-2.578-2.705-1.949-5.683-.968-7.706 4.362-8.987 13.636-12.754 23.46-16.743 8.88-3.607 18.945-7.695 26.568-16.193 8.647-9.642 12.851-23.512 12.851-42.402V36.749a11.83 11.83 0 00-3.497-8.427c-2.217-2.21-5.268-3.473-8.347-3.473h-.086a28.452 28.452 0 00-23.347 12.299l-3.368 4.885a11.336 11.336 0 01-9.332 4.902h-1.818V38.89c5.149-1.22 8.995-5.844 8.995-11.36V12.31c0-6.443-5.242-11.686-11.686-11.686H182.121c-6.443 0-11.686 5.242-11.686 11.686v15.22c0 5.516 3.846 10.141 8.995 11.36v8.045h-1.974a11.333 11.333 0 01-9.332-4.902l-3.368-4.884c-5.293-7.678-14.021-12.276-23.309-12.3-3.172.013-6.233 1.243-8.474 3.477a11.822 11.822 0 00-3.494 8.423v18.113c0 18.89 4.204 32.76 12.851 42.402 7.622 8.498 17.687 12.586 26.572 16.195 9.819 3.987 19.093 7.753 23.455 16.742.981 2.021 1.61 4.999-.969 7.706-1.729 1.814-4.423 2.941-7.03 2.941-1.073 0-2.096-.195-2.96-.564-.927-.396-3.39-1.449-4.027-6.415-.528-4.115-4.285-7.018-8.409-6.496a7.515 7.515 0 00-6.496 8.41c1.117 8.702 5.744 15.208 13.028 18.32 2.753 1.176 5.735 1.773 8.864 1.773 6.779 0 13.306-2.771 17.909-7.601.175-.184.332-.377.499-.565 8.161 11.835 18.276 22.389 30.079 31.085l3.156 2.325v63.456h-20.744a10.54 10.54 0 00-10.264 8.06L197.576 283h-18.263c-7.53 0-13.656 6.126-13.656 13.656v34.036H13.656C6.126 330.691 0 336.818 0 344.347V497.72c0 7.53 6.126 13.656 13.656 13.656h484.688c7.53 0 13.656-6.126 13.656-13.656V344.347c0-7.529-6.126-13.656-13.656-13.656zM165.658 496.349H15.028v-150.63h150.63v150.63zM332.725 73.096V61.961h1.818a26.36 26.36 0 0021.703-11.398l3.369-4.886a13.414 13.414 0 017.877-5.418v14.602c0 15.02-2.947 25.608-9.01 32.368-5.305 5.914-12.946 9.018-21.04 12.305-2.687 1.091-5.457 2.222-8.213 3.488a130.393 130.393 0 003.496-29.926zM174.554 99.533c-8.09-3.286-15.731-6.39-21.035-12.304-6.063-6.76-9.011-17.348-9.011-32.368V40.255a13.426 13.426 0 017.877 5.423l3.368 4.885a26.361 26.361 0 0021.703 11.398h1.974v11.135a130.46 130.46 0 003.515 30.005c-2.815-1.3-5.647-2.453-8.391-3.568zm19.904-26.437V39.213h13.453a7.514 7.514 0 100-15.028h-22.448V15.65h141.229v8.536h-83.213a7.514 7.514 0 100 15.028h74.218v33.882c0 36.788-17.682 71.778-47.301 93.598l-7.062 5.203a12.178 12.178 0 01-14.513 0l-7.063-5.203c-29.617-21.82-47.3-56.809-47.3-93.598zm66.669 115.747v55.73H251.03v-55.729c1.669.317 3.357.495 5.048.495 1.691 0 3.379-.178 5.049-.496zm-42.366 70.759h74.634L299.11 283h-86.065l5.716-23.398zm112.554 236.747h-150.63V298.028h150.63v198.321z"/><path d="M88.72 357.076h-.832c-35.267 0-63.958 28.692-63.958 63.959s28.691 63.958 63.958 63.958h.832c35.267 0 63.958-28.691 63.958-63.958 0-35.267-28.691-63.959-63.958-63.959zm0 112.89h-.832c-26.981 0-48.931-21.95-48.931-48.931s21.95-48.932 48.931-48.932h.832c26.981 0 48.931 21.95 48.931 48.932 0 26.98-21.95 48.931-48.931 48.931zM257.326 333.229h-.831c-35.267 0-63.959 28.691-63.959 63.958 0 35.267 28.692 63.959 63.959 63.959h.831c35.267 0 63.958-28.692 63.958-63.959 0-35.266-28.691-63.958-63.958-63.958zm0 112.891h-.831c-26.981 0-48.932-21.95-48.932-48.932 0-26.98 21.95-48.931 48.932-48.931h.831c26.981 0 48.931 21.95 48.931 48.931-.001 26.981-21.951 48.932-48.931 48.932zM424.112 357.076h-.832c-35.266 0-63.958 28.692-63.958 63.959s28.691 63.958 63.958 63.958h.832c35.267 0 63.958-28.691 63.958-63.958 0-35.267-28.691-63.959-63.958-63.959zm.001 112.89h-.832c-26.981 0-48.931-21.95-48.931-48.931s21.95-48.932 48.931-48.932h.832c26.981 0 48.931 21.95 48.931 48.932 0 26.98-21.95 48.931-48.931 48.931z"/></svg>