<svg xmlns="http://www.w3.org/2000/svg" viewBox="0 0 512 512"><path d="M510.261 226.452a7.501 7.501 0 00-5.085-2.667l-13.785-1.249c-7.459-.675-14.554 1.291-20.373 5.114a214.496 214.496 0 00-.975-10.578l7.197-1.597c8.325-1.846 15.433-6.825 20.014-14.017 4.582-7.192 6.088-15.738 4.241-24.063l-3.591-16.189a7.503 7.503 0 00-8.947-5.698l-13.512 2.998c-6.673 1.48-12.561 4.976-16.995 10.008a212.133 212.133 0 00-2.937-7.585l6.925-3.998c15.245-8.801 20.488-28.365 11.686-43.61l-8.292-14.361a7.501 7.501 0 00-10.246-2.745l-11.987 6.921c-5.579 3.221-9.956 7.94-12.715 13.605a214.49 214.49 0 00-6.235-8.177l5.503-5.503c6.029-6.03 9.351-14.047 9.351-22.574 0-8.527-3.322-16.545-9.351-22.574l-11.725-11.726a7.501 7.501 0 00-10.608 0l-9.787 9.787c-4.815 4.816-7.897 10.9-8.945 17.499a213.766 213.766 0 00-7.023-5.215V58.191c0-17.604-14.321-31.925-31.925-31.925h-16.582a7.5 7.5 0 00-7.501 7.501v13.841c0 17.604 14.321 31.925 31.925 31.925h14.059a198.697 198.697 0 0158.104 63.635 32.254 32.254 0 001.771 3.575l2.746 4.756a198.354 198.354 0 0116.303 43.934c.071.384.141.768.226 1.152l1.585 7.145a198.3 198.3 0 013.736 38.228c0 22.822-3.91 45.058-11.248 65.904l-4.661 11.985a198.521 198.521 0 01-18.523 33.838 32.746 32.746 0 00-1.651 2.023v.001l-9.915 13.292c-.012.016-.022.034-.034.051a198.516 198.516 0 01-28.508 27.918l-6.046 4.652a199.52 199.52 0 01-19.753 12.848l-5.214-4.011c-18.294-14.074-44.477-10.936-58.972 6.839a40.922 40.922 0 00-7.737-11.034c34.876-6.367 66.696-23.62 91.416-49.942 30.548-32.526 46.599-75.002 45.2-119.602-1.399-44.6-20.082-85.985-52.609-116.532a170.228 170.228 0 00-6.893-6.121c-.022-.02-.045-.037-.067-.056-31.512-26.52-71.146-40.335-112.642-39.023-44.599 1.399-85.985 20.083-116.532 52.609-30.548 32.527-46.599 75.002-45.2 119.602 1.097 34.962 12.921 67.104 32.201 93.375a7.452 7.452 0 001.27 1.704c25.205 33.448 62.623 57.07 105.338 64.358a40.9 40.9 0 00-7.942 11.947l-8.719-7.779a7.828 7.828 0 00-.42-.348c-16.846-12.959-40.39-11.333-55.33 2.889a196.232 196.232 0 01-10.85-6.806l-12.437-9.57h-.001a32.121 32.121 0 00-3.261-2.194 195.928 195.928 0 01-24.368-24.15 7.452 7.452 0 00-.913-1.624l-9.915-13.292v-.001a32.457 32.457 0 00-2.909-3.379 198.157 198.157 0 01-16.445-30.168 7.41 7.41 0 00-.292-.956l-6.011-15.455c-.045-.115-.096-.226-.142-.341a200.31 200.31 0 01-10.284-63.451 198.3 198.3 0 013.736-38.228l1.585-7.144c.085-.383.155-.767.226-1.151a198.354 198.354 0 0116.303-43.934l2.746-4.757a32.416 32.416 0 001.771-3.574 198.694 198.694 0 0158.103-63.635h14.06c17.604 0 31.925-14.322 31.925-31.925V33.767a7.5 7.5 0 00-7.501-7.501h-16.582c-17.604 0-31.926 14.322-31.926 31.925v10.063a214.798 214.798 0 00-7.022 5.215c-1.048-6.598-4.13-12.683-8.945-17.498l-9.787-9.787a7.5 7.5 0 00-10.608 0L81.849 57.909c-12.447 12.448-12.447 32.701 0 45.149l5.504 5.504a214.49 214.49 0 00-6.235 8.177c-2.76-5.666-7.136-10.385-12.716-13.606l-11.987-6.922a7.5 7.5 0 00-10.246 2.745l-8.291 14.361c-8.802 15.245-3.559 34.809 11.686 43.61l6.925 3.998a212.182 212.182 0 00-2.937 7.586c-4.434-5.032-10.322-8.528-16.995-10.009l-13.513-2.997a7.51 7.51 0 00-5.654.997 7.495 7.495 0 00-3.293 4.702l-3.59 16.189c-3.812 17.186 7.068 34.269 24.254 38.081l7.198 1.597a214.447 214.447 0 00-.975 10.574c-5.818-3.822-12.913-5.787-20.374-5.11l-13.785 1.249a7.501 7.501 0 00-6.794 8.148l1.497 16.514c1.5 16.557 15.457 29.045 31.772 29.045.96 0 1.929-.043 2.904-.131l7.098-.643a213.954 213.954 0 001.868 9.98c-6.745-1.999-13.917-1.722-20.58.869l-12.9 5.017a7.502 7.502 0 00-4.272 9.71l6.01 15.455c4.908 12.617 17.004 20.355 29.793 20.354a31.812 31.812 0 0011.535-2.172l6.154-2.394a212.723 212.723 0 004.676 9.335c-6.709.069-13.21 2.248-18.693 6.338l-11.092 8.279a7.5 7.5 0 00-1.527 10.496l9.915 13.292c5.1 6.835 12.555 11.275 20.995 12.501 1.558.228 3.115.339 4.662.339 6.829 0 13.451-2.186 19.023-6.343l5.191-3.873a211.048 211.048 0 007.29 7.825 31.746 31.746 0 00-16.087 11.076l-8.44 10.97a7.502 7.502 0 001.37 10.519l13.143 10.113a31.76 31.76 0 0019.431 6.61c9.579 0 19.06-4.284 25.339-12.445l4.252-5.526c1.095.682 2.197 1.356 3.306 2.019l-6.88 8.943a7.501 7.501 0 001.371 10.519l18.885 14.53c7.523 5.789 16.552 8.844 25.89 8.844 1.855 0 3.722-.12 5.591-.364 11.283-1.47 21.318-7.246 28.247-16.251l.755-.977c6.124 14.774 20.693 25.196 37.655 25.196 16.45 0 30.644-9.805 37.073-23.873l6.196 6.61c.276.296.577.568.899.816 7.523 5.789 16.552 8.844 25.89 8.844 1.855 0 3.722-.12 5.591-.364 11.283-1.47 21.318-7.246 28.257-16.265l12.128-15.764a7.502 7.502 0 00-1.371-10.519l-.854-.657c.828-.504 1.649-1.016 2.468-1.529l4.439 5.77c6.281 8.161 15.76 12.444 25.34 12.444a31.772 31.772 0 0019.432-6.61l13.142-10.113a7.501 7.501 0 001.37-10.519l-8.44-10.97a31.75 31.75 0 00-16.469-11.194 213.044 213.044 0 007.396-7.913l5.466 4.078c5.574 4.158 12.195 6.343 19.024 6.343 1.546 0 3.104-.112 4.662-.339 8.439-1.227 15.894-5.667 20.995-12.502l9.915-13.291a7.5 7.5 0 00-1.527-10.496l-11.094-8.278c-5.552-4.141-12.143-6.325-18.944-6.342a213.612 213.612 0 004.748-9.4l6.334 2.463a31.762 31.762 0 0011.535 2.172c12.788 0 24.885-7.738 29.793-20.354l6.01-15.455a7.502 7.502 0 00-4.272-9.71l-12.9-5.017c-6.857-2.666-14.084-2.785-20.642-.833a213.44 213.44 0 001.898-10.02l7.131.646c.983.089 1.961.133 2.936.133 7.449 0 14.599-2.579 20.39-7.409 6.55-5.461 10.58-13.146 11.35-21.638l1.497-16.515a7.497 7.497 0 00-1.709-5.479zM367.062 64.531h-9.081c-9.331 0-16.923-7.592-16.923-16.923v-6.34h9.081c9.331 0 16.923 7.592 16.923 16.923v6.34zm52.481 27.919l-4.483 4.483-6.421-6.421c-6.598-6.598-6.598-17.335 0-23.934l4.483-4.483 6.421 6.421c6.599 6.599 6.599 17.335 0 23.934zm29.903 54.657l-1.603-2.776a211.277 211.277 0 00-4.14-7.69c-2.807-7.588.159-16.338 7.396-20.517l5.491-3.17 4.542 7.865c4.666 8.081 1.886 18.452-6.195 23.117l-5.491 3.171zM144.939 58.191c0-9.332 7.592-16.923 16.924-16.923h9.081v6.34c0 9.332-7.592 16.923-16.923 16.923h-9.082v-6.34zM92.457 68.516l6.423-6.422 4.483 4.483c6.598 6.598 6.598 17.335.001 23.934l-6.423 6.422-4.483-4.483c-6.599-6.599-6.599-17.335-.001-23.934zM50.87 120.819l4.541-7.865 5.491 3.17a16.816 16.816 0 017.886 10.277 16.785 16.785 0 01-.473 10.213 212.774 212.774 0 00-4.155 7.717l-1.603 2.777-5.491-3.17c-8.082-4.667-10.862-15.038-6.196-23.119zM34.851 262.42a16.815 16.815 0 01-12.365-3.856 16.809 16.809 0 01-6.016-11.471l-.82-9.044 6.314-.572c9.29-.849 17.54 6.033 18.382 15.327l.819 9.044-6.314.572zm9.72-61.895l-.372 1.677-6.19-1.373c-9.109-2.021-14.877-11.077-12.856-20.187l1.966-8.866 6.19 1.373a16.811 16.811 0 0110.61 7.431c2.305 3.62 3.122 7.885 2.362 12.085a214.124 214.124 0 00-1.71 7.86zm4.748 121.424c-8.698 3.381-18.525-.941-21.907-9.638l-3.292-8.464 5.91-2.298c8.562-3.33 18.207.819 21.731 9.248a212.53 212.53 0 003.235 8.944l-5.677 2.208zm30.579 53.8a16.827 16.827 0 01-12.555 3.183 16.807 16.807 0 01-11.128-6.627l-5.43-7.279 5.083-3.791a16.802 16.802 0 0112.555-3.183 16.802 16.802 0 018.718 4.024 212.372 212.372 0 007.367 10.236l-4.61 3.437zm44.317 43.673a16.812 16.812 0 01-11.225 6.461 16.785 16.785 0 01-12.506-3.369l-7.198-5.538 3.867-5.026c5.048-6.563 13.994-8.381 21.115-4.735a210.47 210.47 0 009.624 7.427l-3.677 4.78zm80.673 22.7c-9.278 12.06-26.64 14.323-38.701 5.043l-12.94-9.956 7.555-9.819c9.228-11.994 26.446-14.296 38.497-5.199l12.426 11.085-6.837 8.846zM405.32 255.335a7.54 7.54 0 00-.027.924c-2.628 28.43-13.141 55.297-30.56 78.012-4.094-46.252-19.632-89.76-44.11-127.238a49.728 49.728 0 0123.326-6.623c13.365-.413 26.081 4.389 35.825 13.539 9.742 9.15 15.339 21.546 15.758 34.905a51.08 51.08 0 01-.212 6.481zm-47.334-124.214c21.381 20.08 36.186 45.306 43.244 73.063-.395-.39-.78-.789-1.187-1.17-12.663-11.893-29.198-18.152-46.565-17.597a64.618 64.618 0 00-31.407 9.257 278.69 278.69 0 00-27.362-31.961 492.796 492.796 0 0160.415-34.21c.963.859 1.918 1.731 2.862 2.618zm-15.84-13.005a507.611 507.611 0 00-58.595 33.998 277.476 277.476 0 00-20.978-17.065 65.23 65.23 0 007.778-6.873c9.214-9.58 15.2-21.606 17.318-34.527 19.556 4.419 38.023 12.691 54.477 24.467zm-93.021-28.137a153.613 153.613 0 0123.681 1.08c.03.004.057.013.087.016-1.609 9.99-6.228 19.293-13.354 26.7a50.055 50.055 0 01-10.184 8.13 276.495 276.495 0 00-50.384-25.811c15.811-6.107 32.711-9.567 50.154-10.115zm-106.068 47.886c10.857-11.56 23.222-21.189 36.674-28.72a261.701 261.701 0 0151.721 23.327 50.356 50.356 0 01-4.708.53c-47.267.028-75.166 16.517-90.165 25.381-5.88 3.475-11.672 7.809-17.17 12.492 6.294-11.861 14.209-22.959 23.648-33.01zm-41.141 108.861c-.444-14.143 1.046-28.049 4.345-41.421 9.657-11.131 23.736-25.605 37.953-34.008 19.07-11.272 42.754-23.294 82.645-23.294h.117c.165-.004.305-.004.458-.014a65.044 65.044 0 0020.792-4.754 262.246 262.246 0 0122.652 17.704 511.698 511.698 0 00-52.769 43.52c-36.786 34.728-68.028 74.46-93.023 118.223-13.898-22.094-22.294-48.037-23.17-75.956zM255.179 460.5c-14.195 0-25.744-11.549-25.744-25.744s11.549-25.744 25.744-25.744 25.743 11.549 25.743 25.744-11.548 25.744-25.743 25.744zm3.483-66.565c-2.805.088-5.593.093-8.365.029 11.888-11.814 29.112-30.881 38.196-50.078a7.5 7.5 0 00-3.572-9.988 7.5 7.5 0 00-9.988 3.572c-10.953 23.145-36.449 47.359-44.56 54.715-38.471-6.007-72.377-26.537-95.692-55.94 24.811-44.899 56.312-85.556 93.726-120.878a496.608 496.608 0 0153.69-44.03 263.538 263.538 0 0128.093 32.493c-12.635 12.303-20.273 29.658-19.678 48.633.005.153.014.305.028.458 2.007 21.658.157 41.238-5.658 59.854a7.503 7.503 0 007.162 9.74 7.505 7.505 0 007.158-5.266c6.395-20.478 8.456-41.897 6.298-65.474-.368-13.589 4.755-26.082 13.348-35.349 25.244 39.113 40.232 85.082 41.829 133.768-27.359 27.039-63.357 42.528-102.015 43.741zm88.533 48.187c-4.495 5.842-10.996 9.584-18.306 10.536a27.404 27.404 0 01-19.937-5.149l-11.079-11.82 5.43-8.551c9.327-11.841 26.531-14.006 38.507-4.793l12.94 9.956-7.555 9.821zm67.654-30.172l3.867 5.026-7.197 5.538c-7.396 5.69-18.043 4.302-23.733-3.092l-3.867-5.025 1.044-.803a213.53 213.53 0 006.228-4.787c3.571-2.718 7.977-3.903 12.434-3.318a16.812 16.812 0 0111.224 6.461zm41.287-50.717l5.083 3.792-5.43 7.278a16.812 16.812 0 01-11.128 6.628 16.825 16.825 0 01-12.556-3.183l-4.861-3.627a213.79 213.79 0 006.615-9.075 16.786 16.786 0 019.723-4.996c4.469-.651 8.93.48 12.554 3.183zm25.837-59.684l5.91 2.298-3.292 8.464c-3.381 8.696-13.213 13.022-21.907 9.638l-5.813-2.26a215.196 215.196 0 002.453-6.593l.742-1.908c3.381-8.697 13.209-13.024 21.907-9.639zm-14.171-99.347l-.363-1.636a214.328 214.328 0 00-1.718-7.902c-.759-4.199.058-8.464 2.363-12.083a16.811 16.811 0 0110.61-7.431l6.19-1.373 1.966 8.866a16.81 16.81 0 01-2.247 12.756 16.811 16.811 0 01-10.61 7.431l-6.191 1.372zm27.73 44.891a16.809 16.809 0 01-6.016 11.471c-3.471 2.895-7.863 4.271-12.365 3.856l-6.314-.572.819-9.044c.842-9.295 9.104-16.168 18.382-15.328l6.314.572-.82 9.045z"/><circle cx="214.401" cy="478.201" r="7.534"/><circle cx="295.961" cy="478.201" r="7.534"/></svg>