<?xml version="1.0" encoding="iso-8859-1"?>
<!-- Generator: Adobe Illustrator 19.0.0, SVG Export Plug-In . SVG Version: 6.00 Build 0)  -->
<svg xmlns="http://www.w3.org/2000/svg" xmlns:xlink="http://www.w3.org/1999/xlink" version="1.1" id="Layer_1" x="0px" y="0px" viewBox="0 0 512 512" style="enable-background:new 0 0 512 512;" xml:space="preserve">
<g>
	<g>
		<path d="M510.261,226.452c-1.275-1.528-3.103-2.488-5.085-2.667l-13.785-1.249c-7.459-0.675-14.554,1.291-20.373,5.114    c-0.238-3.543-0.564-7.069-0.975-10.578l7.197-1.597c8.325-1.846,15.433-6.825,20.014-14.017    c4.582-7.192,6.088-15.738,4.241-24.063l-3.591-16.189c-0.898-4.044-4.901-6.591-8.947-5.698l-13.512,2.998    c-6.673,1.48-12.561,4.976-16.995,10.008c-0.934-2.547-1.907-5.078-2.937-7.585l6.925-3.998    c15.245-8.801,20.488-28.365,11.686-43.61l-8.292-14.361c-2.072-3.588-6.661-4.816-10.246-2.745l-11.987,6.921    c-5.579,3.221-9.956,7.94-12.715,13.605c-2.01-2.773-4.09-5.498-6.235-8.177l5.503-5.503c6.029-6.03,9.351-14.047,9.351-22.574    c0-8.527-3.322-16.545-9.351-22.574l-11.725-11.726c-1.407-1.407-3.315-2.197-5.304-2.197c-1.989,0-3.897,0.79-5.304,2.197    l-9.787,9.787c-4.815,4.816-7.897,10.9-8.945,17.499c-2.295-1.786-4.645-3.516-7.023-5.215V58.191    c0-17.604-14.321-31.925-31.925-31.925h-16.582c-4.143,0-7.501,3.358-7.501,7.501v13.841c0,17.604,14.321,31.925,31.925,31.925    h14.059c24.138,16.963,43.828,38.777,58.104,63.635c0.515,1.217,1.099,2.412,1.771,3.575l2.746,4.756    c7.125,13.903,12.613,28.643,16.303,43.934c0.071,0.384,0.141,0.768,0.226,1.152l1.585,7.145    c2.45,12.475,3.736,25.266,3.736,38.228c0,22.822-3.91,45.058-11.248,65.904l-4.661,11.985    c-5.063,11.863-11.272,23.194-18.523,33.838c-0.572,0.651-1.127,1.321-1.651,2.023c0,0.001,0,0.001,0,0.001l-9.915,13.292    c-0.012,0.016-0.022,0.034-0.034,0.051c-8.475,10.162-17.998,19.515-28.467,27.888c-0.014,0.01-0.028,0.02-0.041,0.03    l-6.046,4.652c-6.28,4.635-12.871,8.929-19.753,12.848l-5.214-4.011c-18.294-14.074-44.477-10.936-58.972,6.839    c-1.955-4.105-4.589-7.822-7.737-11.034c34.876-6.367,66.696-23.62,91.416-49.942c30.548-32.526,46.599-75.002,45.2-119.602    c-1.399-44.6-20.082-85.985-52.609-116.532c-2.249-2.113-4.551-4.148-6.893-6.121c-0.022-0.02-0.045-0.037-0.067-0.056    c-31.512-26.52-71.146-40.335-112.642-39.023c-44.599,1.399-85.985,20.083-116.532,52.609    c-30.548,32.527-46.599,75.002-45.2,119.602c1.097,34.962,12.921,67.104,32.201,93.375c0.337,0.619,0.761,1.194,1.27,1.704    c25.205,33.448,62.623,57.07,105.338,64.358c-3.305,3.461-6.01,7.498-7.942,11.947l-8.719-7.779    c-0.136-0.121-0.275-0.236-0.42-0.348c-16.846-12.959-40.39-11.333-55.33,2.889c-3.705-2.158-7.322-4.43-10.85-6.806l-12.437-9.57    c-0.001,0-0.001,0-0.001,0c-1.053-0.81-2.145-1.535-3.261-2.194c-8.854-7.357-17.001-15.442-24.368-24.15    c-0.233-0.565-0.531-1.112-0.913-1.624l-9.915-13.292c0,0,0,0,0-0.001c-0.898-1.204-1.873-2.328-2.909-3.379    c-6.335-9.543-11.838-19.638-16.445-30.168c-0.078-0.323-0.17-0.643-0.292-0.956l-6.011-15.455    c-0.045-0.115-0.096-0.226-0.142-0.341c-6.713-20.116-10.284-41.501-10.284-63.451c0-12.962,1.286-25.753,3.736-38.228    l1.585-7.144c0.085-0.383,0.155-0.767,0.226-1.151c3.69-15.291,9.178-30.031,16.303-43.934l2.746-4.757    c0.671-1.162,1.256-2.358,1.771-3.574c14.276-24.858,33.965-46.672,58.103-63.635h14.06c17.604,0,31.925-14.322,31.925-31.925    V33.767c0-4.143-3.358-7.501-7.501-7.501h-16.582c-17.604,0-31.926,14.322-31.926,31.925v10.063    c-2.377,1.699-4.727,3.429-7.022,5.215c-1.048-6.598-4.13-12.683-8.945-17.498l-9.787-9.787c-2.929-2.93-7.679-2.93-10.608,0    L81.849,57.909c-12.447,12.448-12.447,32.701,0,45.149l5.504,5.504c-2.145,2.679-4.225,5.404-6.235,8.177    c-2.76-5.666-7.136-10.385-12.716-13.606l-11.987-6.922c-1.724-0.994-3.771-1.264-5.692-0.75c-1.921,0.515-3.56,1.772-4.554,3.495    l-8.291,14.361c-8.802,15.245-3.559,34.809,11.686,43.61l6.925,3.998c-1.03,2.507-2.003,5.039-2.937,7.586    c-4.434-5.032-10.322-8.528-16.995-10.009l-13.513-2.997c-1.94-0.43-3.975-0.071-5.654,0.997c-1.678,1.068-2.863,2.76-3.293,4.702    l-3.59,16.189c-3.812,17.186,7.068,34.269,24.254,38.081l7.198,1.597c-0.411,3.508-0.737,7.033-0.975,10.574    c-5.818-3.822-12.913-5.787-20.374-5.11l-13.785,1.249c-1.982,0.179-3.81,1.139-5.085,2.667c-1.274,1.528-1.889,3.499-1.709,5.481    l1.497,16.514c1.5,16.557,15.457,29.045,31.772,29.045c0.96,0,1.929-0.043,2.904-0.131l7.098-0.643    c0.545,3.349,1.168,6.676,1.868,9.98c-6.745-1.999-13.917-1.722-20.58,0.869l-12.9,5.017c-3.861,1.502-5.773,5.849-4.272,9.71    l6.01,15.455c4.908,12.617,17.004,20.355,29.793,20.354c3.84-0.001,7.745-0.699,11.535-2.172l6.154-2.394    c1.483,3.151,3.042,6.264,4.676,9.335c-6.709,0.069-13.21,2.248-18.693,6.338l-11.092,8.279c-3.32,2.477-4.003,7.177-1.527,10.496    l9.915,13.292c5.1,6.835,12.555,11.275,20.995,12.501c1.558,0.228,3.115,0.339,4.662,0.339c6.829,0,13.451-2.186,19.023-6.343    l5.191-3.873c2.361,2.667,4.792,5.276,7.29,7.825c-6.181,1.856-11.86,5.583-16.087,11.076l-8.44,10.97    c-2.526,3.283-1.912,7.992,1.37,10.519l13.143,10.113c5.79,4.455,12.635,6.61,19.431,6.61c9.579,0,19.06-4.284,25.339-12.445    l4.252-5.526c1.095,0.682,2.197,1.356,3.306,2.019l-6.88,8.943c-2.526,3.284-1.912,7.992,1.371,10.519l18.885,14.53    c7.523,5.789,16.552,8.844,25.89,8.844c1.855,0,3.722-0.12,5.591-0.364c11.283-1.47,21.318-7.246,28.247-16.251l0.755-0.977    c6.124,14.774,20.693,25.196,37.655,25.196c16.45,0,30.644-9.805,37.073-23.873l6.196,6.61c0.276,0.296,0.577,0.568,0.899,0.816    c7.523,5.789,16.552,8.844,25.89,8.844c1.855,0,3.722-0.12,5.591-0.364c11.283-1.47,21.318-7.246,28.257-16.265l12.128-15.764    c2.526-3.283,1.912-7.992-1.371-10.519l-0.854-0.657c0.828-0.504,1.649-1.016,2.468-1.529l4.439,5.77    c6.281,8.161,15.76,12.444,25.34,12.444c6.795,0,13.642-2.156,19.432-6.61l13.142-10.113c3.283-2.527,3.896-7.236,1.37-10.519    l-8.44-10.97c-4.314-5.607-10.139-9.379-16.469-11.194c2.535-2.578,5.002-5.217,7.396-7.913l5.466,4.078    c5.574,4.158,12.195,6.343,19.024,6.343c1.546,0,3.104-0.112,4.662-0.339c8.439-1.227,15.894-5.667,20.995-12.502l9.915-13.291    c2.477-3.32,1.793-8.02-1.527-10.496l-11.094-8.278c-5.552-4.141-12.143-6.325-18.944-6.342c1.659-3.092,3.242-6.227,4.748-9.4    l6.334,2.463c3.79,1.474,7.693,2.172,11.535,2.172c12.788,0,24.885-7.738,29.793-20.354l6.01-15.455    c1.501-3.861-0.411-8.208-4.272-9.71l-12.9-5.017c-6.857-2.666-14.084-2.785-20.642-0.833c0.711-3.318,1.344-6.658,1.898-10.02    l7.131,0.646c0.983,0.089,1.961,0.133,2.936,0.133c7.449,0,14.599-2.579,20.39-7.409c6.55-5.461,10.58-13.146,11.35-21.638    l1.497-16.515C512.15,229.951,511.535,227.98,510.261,226.452z M367.062,64.531h-9.081c-9.331,0-16.923-7.592-16.923-16.923v-6.34    h9.081c9.331,0,16.923,7.592,16.923,16.923V64.531z M419.543,92.45l-4.483,4.483l-6.421-6.421c-6.598-6.598-6.598-17.335,0-23.934    l4.483-4.483l6.421,6.421C426.142,75.115,426.142,85.851,419.543,92.45z M449.446,147.107l-1.603-2.776    c-1.332-2.589-2.702-5.158-4.14-7.69c-2.807-7.588,0.159-16.338,7.396-20.517l5.491-3.17l4.542,7.865    c4.666,8.081,1.886,18.452-6.195,23.117L449.446,147.107z M144.939,58.191c0-9.332,7.592-16.923,16.924-16.923h9.081v6.34    c0,9.332-7.592,16.923-16.923,16.923h-9.082V58.191z M92.457,68.516l6.423-6.422l4.483,4.483    c6.598,6.598,6.598,17.335,0.001,23.934l-6.423,6.422l-4.483-4.483C85.859,85.851,85.859,75.115,92.457,68.516z M50.87,120.819    l4.541-7.865l5.491,3.17c3.915,2.261,6.716,5.91,7.886,10.277c0.917,3.421,0.731,6.957-0.473,10.213    c-1.443,2.541-2.818,5.119-4.155,7.717l-1.603,2.777l-5.491-3.17C48.984,139.271,46.204,128.9,50.87,120.819z M34.851,262.42    c-4.493,0.411-8.893-0.962-12.365-3.856c-3.472-2.895-5.609-6.969-6.016-11.471l-0.82-9.044l6.314-0.572    c9.29-0.849,17.54,6.033,18.382,15.327l0.819,9.044L34.851,262.42z M44.571,200.525l-0.372,1.677l-6.19-1.373    c-9.109-2.021-14.877-11.077-12.856-20.187l1.966-8.866l6.19,1.373c4.414,0.979,8.182,3.618,10.61,7.431    c2.305,3.62,3.122,7.885,2.362,12.085C45.662,195.271,45.093,197.891,44.571,200.525z M49.319,321.949    c-8.698,3.381-18.525-0.941-21.907-9.638l-3.292-8.464l5.91-2.298c8.562-3.33,18.207,0.819,21.731,9.248    c1.014,3.008,2.09,5.991,3.235,8.944L49.319,321.949z M79.898,375.749c-3.623,2.703-8.085,3.831-12.555,3.183    c-4.473-0.65-8.426-3.004-11.128-6.627l-5.43-7.279l5.083-3.791c3.622-2.704,8.083-3.835,12.555-3.183    c3.285,0.478,6.283,1.881,8.718,4.024c2.354,3.483,4.809,6.897,7.367,10.236L79.898,375.749z M124.215,419.422    c-2.756,3.582-6.743,5.877-11.225,6.461c-4.483,0.588-8.925-0.611-12.506-3.369l-7.198-5.538l3.867-5.026    c5.048-6.563,13.994-8.381,21.115-4.735c3.127,2.563,6.338,5.037,9.624,7.427L124.215,419.422z M204.888,442.122    c-9.278,12.06-26.64,14.323-38.701,5.043l-12.94-9.956l7.555-9.819c9.228-11.994,26.446-14.296,38.497-5.199l12.426,11.085    L204.888,442.122z M405.32,255.335c-0.03,0.311-0.035,0.619-0.027,0.924c-2.628,28.43-13.141,55.297-30.56,78.012    c-4.094-46.252-19.632-89.76-44.11-127.238c6.896-3.972,14.832-6.356,23.326-6.623c13.365-0.413,26.081,4.389,35.825,13.539    c9.742,9.15,15.339,21.546,15.758,34.905C405.598,251.017,405.528,253.197,405.32,255.335z M357.986,131.121    c21.381,20.08,36.186,45.306,43.244,73.063c-0.395-0.39-0.78-0.789-1.187-1.17c-12.663-11.893-29.198-18.152-46.565-17.597    c-11.492,0.36-22.194,3.709-31.407,9.257c-8.295-11.317-17.441-22.005-27.362-31.961c19.283-12.793,39.455-24.219,60.415-34.21    C356.087,129.362,357.042,130.234,357.986,131.121z M342.146,118.116c-20.299,10.033-39.861,21.385-58.595,33.998    c-6.694-6.012-13.695-11.707-20.978-17.065c2.749-2.071,5.357-4.356,7.778-6.873c9.214-9.58,15.2-21.606,17.318-34.527    C307.225,98.068,325.692,106.34,342.146,118.116z M249.125,89.979c1.635-0.051,3.261-0.077,4.889-0.077    c6.328,0,12.6,0.394,18.792,1.157c0.03,0.004,0.057,0.013,0.087,0.016c-1.609,9.99-6.228,19.293-13.354,26.7    c-3.055,3.176-6.485,5.893-10.184,8.13c-15.693-10.195-32.549-18.871-50.384-25.811C214.782,93.987,231.682,90.527,249.125,89.979    z M143.057,137.865c10.857-11.56,23.222-21.189,36.674-28.72c18.288,5.965,35.593,13.825,51.721,23.327    c-1.553,0.249-3.123,0.427-4.708,0.53c-47.267,0.028-75.166,16.517-90.165,25.381c-5.88,3.475-11.672,7.809-17.17,12.492    C125.703,159.014,133.618,147.916,143.057,137.865z M101.916,246.726c-0.444-14.143,1.046-28.049,4.345-41.421    c9.657-11.131,23.736-25.605,37.953-34.008c19.07-11.272,42.754-23.294,82.645-23.294c0.039,0,0.078,0,0.117,0    c0.165-0.004,0.305-0.004,0.458-0.014c7.227-0.437,14.237-2.063,20.792-4.754c7.893,5.5,15.453,11.412,22.652,17.704    c-18.475,13.271-36.103,27.786-52.769,43.52c-36.786,34.728-68.028,74.46-93.023,118.223    C111.188,300.588,102.792,274.645,101.916,246.726z M255.179,460.5c-14.195,0-25.744-11.549-25.744-25.744    c0-14.195,11.549-25.744,25.744-25.744s25.743,11.549,25.743,25.744C280.922,448.951,269.374,460.5,255.179,460.5z     M258.662,393.935c-2.805,0.088-5.593,0.093-8.365,0.029c11.888-11.814,29.112-30.881,38.196-50.078    c1.772-3.745,0.173-8.217-3.572-9.988c-3.744-1.771-8.217-0.174-9.988,3.572c-10.953,23.145-36.449,47.359-44.56,54.715    c-38.471-6.007-72.377-26.537-95.692-55.94c24.811-44.899,56.312-85.556,93.726-120.878c16.921-15.975,34.853-30.674,53.69-44.03    c10.241,10.06,19.64,20.927,28.093,32.493c-12.635,12.303-20.273,29.658-19.678,48.633c0.005,0.153,0.014,0.305,0.028,0.458    c2.007,21.658,0.157,41.238-5.658,59.854c-1.235,3.955,0.97,8.161,4.923,9.397c0.745,0.232,1.498,0.343,2.239,0.343    c3.195,0,6.155-2.057,7.158-5.266c6.395-20.478,8.456-41.897,6.298-65.474c-0.368-13.589,4.755-26.082,13.348-35.349    c25.244,39.113,40.232,85.082,41.829,133.768C333.318,377.233,297.32,392.722,258.662,393.935z M347.195,442.122    c-4.495,5.842-10.996,9.584-18.306,10.536c-7.113,0.93-14.176-0.899-19.937-5.149l-11.079-11.82l5.43-8.551    c9.327-11.841,26.531-14.006,38.507-4.793l12.94,9.956L347.195,442.122z M414.849,411.95l3.867,5.026l-7.197,5.538    c-7.396,5.69-18.043,4.302-23.733-3.092l-3.867-5.025l1.044-0.803c2.11-1.56,4.185-3.157,6.228-4.787    c3.571-2.718,7.977-3.903,12.434-3.318C408.106,406.073,412.093,408.368,414.849,411.95z M456.136,361.233l5.083,3.792    l-5.43,7.278c-2.702,3.623-6.655,5.977-11.128,6.628c-4.474,0.648-8.933-0.48-12.556-3.183l-4.861-3.627    c2.284-2.969,4.492-5.993,6.615-9.075c2.59-2.69,5.968-4.45,9.723-4.996C448.051,357.399,452.512,358.53,456.136,361.233z     M481.973,301.549l5.91,2.298l-3.292,8.464c-3.381,8.696-13.213,13.022-21.907,9.638l-5.813-2.26    c0.853-2.183,1.671-4.381,2.453-6.593l0.742-1.908C463.447,302.491,473.275,298.164,481.973,301.549z M467.802,202.202    l-0.363-1.636c-0.524-2.648-1.096-5.282-1.718-7.902c-0.759-4.199,0.058-8.464,2.363-12.083c2.428-3.813,6.196-6.452,10.61-7.431    l6.19-1.373l1.966,8.866c0.98,4.413,0.181,8.943-2.247,12.756c-2.428,3.813-6.196,6.452-10.61,7.431L467.802,202.202z     M495.532,247.093c-0.407,4.502-2.544,8.576-6.016,11.471c-3.471,2.895-7.863,4.271-12.365,3.856l-6.314-0.572l0.819-9.044    c0.842-9.295,9.104-16.168,18.382-15.328l6.314,0.572L495.532,247.093z"/>
	</g>
</g>
<g>
	<g>
		<circle cx="214.401" cy="478.201" r="7.534"/>
	</g>
</g>
<g>
	<g>
		<circle cx="295.961" cy="478.201" r="7.534"/>
	</g>
</g>
<g>
</g>
<g>
</g>
<g>
</g>
<g>
</g>
<g>
</g>
<g>
</g>
<g>
</g>
<g>
</g>
<g>
</g>
<g>
</g>
<g>
</g>
<g>
</g>
<g>
</g>
<g>
</g>
<g>
</g>
</svg>
