<svg xmlns="http://www.w3.org/2000/svg" viewBox="0 0 512 512"><path d="M323.389 63.471H191.341a7.5 7.5 0 000 15h132.048a7.5 7.5 0 000-15z"/><path d="M424.076 3.398c-.007-.012-3.78-3.398-6.278-3.398H98.21c-2.525 0-5.003 1.354-6.344 3.5l-7.417 11.76c-10.231 16.226-14.692 35.66-12.56 54.724 2.132 19.064 10.777 37.032 24.341 50.596l118.195 118.195c-53.815 19.854-92.291 71.659-92.291 132.284C122.135 448.774 185.361 512 263.076 512c77.716 0 140.942-63.226 140.942-140.942 0-62.915-41.44-116.329-98.458-134.393l105.281-105.701c16.461-16.461 26.85-38.279 29.252-61.435 2.402-23.155-3.286-46.641-16.017-66.131zM400.622 15L258.55 168.304 115.469 15h285.153zm-293.784 94.973c-11.167-11.167-18.285-25.961-20.04-41.657-1.756-15.695 1.917-31.696 10.34-45.055l2.227-3.531 194.027 207.891-4.814 4.814a141.119 141.119 0 00-25.502-2.318 140.83 140.83 0 00-32.344 3.751L106.838 109.973zm282.18 261.085c0 69.445-56.497 125.942-125.942 125.942-69.444 0-125.941-56.497-125.941-125.942 0-69.444 56.497-125.941 125.941-125.941 69.445 0 125.942 56.497 125.942 125.941zm36.156-303.076c-2.048 19.741-10.905 38.342-24.939 52.376l-96.433 96.433-34.991-37.491L416.383 20.061c7.398 14.735 10.502 31.427 8.791 47.921z"/><path d="M359.446 324.449a7.49 7.49 0 00-.653-1.311c-12.512-24.891-34.447-44.261-61.097-53.393-.099-.038-.191-.089-.293-.124-1.248-.422-2.579-.84-4.068-1.278-.108-.032-.216-.054-.325-.081a106.816 106.816 0 00-29.934-4.263c-22.364 0-43.145 6.897-60.336 18.67-.48.261-.935.573-1.353.939-22.771 16.11-38.996 40.879-43.852 69.471a7.422 7.422 0 00-.157.947 107.369 107.369 0 00-1.361 17.033c0 28.56 11.242 54.543 29.532 73.758.342.439.73.839 1.16 1.192 19.439 19.803 46.491 32.109 76.367 32.109 31.396 0 59.677-13.585 79.278-35.185.437-.389.82-.825 1.15-1.296 12.018-13.679 20.614-30.433 24.428-48.917.013-.059.032-.116.044-.176.009-.042.01-.084.017-.126a107.116 107.116 0 002.143-21.361c0-16.696-3.844-32.51-10.69-46.608zm-15.186 3.24a159.58 159.58 0 01-9.876 21.536c-.542-22.016-6.859-37.12-13.881-50.063a92.706 92.706 0 0123.757 28.527zm-81.184-48.69a91.8 91.8 0 0124.393 3.287c6.512 6.072 14.706 14.652 19.352 23.108 6.483 11.799 13.335 26.415 12.562 50.625a7.77 7.77 0 00-.001.458 44.017 44.017 0 002.173 12.466 163.355 163.355 0 01-7.975 9.707 322.188 322.188 0 00-21.608-27.94v-46.673c0-7.455-5.008-12.463-12.463-12.463h-18.907c-3.959 0-8.249 1.44-13.199 4.453l-8.719 5.461a323.362 323.362 0 00-17.872-12.197c12.664-6.573 27.037-10.292 42.264-10.292zm39.799 110.604a161.791 161.791 0 01-10.903 9.297v-24.449a305.582 305.582 0 0110.903 15.152zm-69.042-55.477v-11.9l21.451-13.437c3.465-2.108 5.038-2.215 5.318-2.215h16.37v136.963h-15.015V318.055l-28.124 16.071zm-27.03-35.873a307.909 307.909 0 0118.169 11.856c-3.968 2.802-6.139 6.977-6.139 11.889v19.379c0 5.582 2.826 8.278 4.51 9.389 2.104 1.388 5.703 2.572 10.908.341l12.707-7.205v47.278c-20.397-.023-32.504-6.22-42.415-11.297l-.162-.083c-12.96-6.638-26.375-21.228-31.512-27.156 4.479-21.977 16.816-41.128 33.934-54.391zm-35.765 74.417c7.167 7.137 16.736 15.479 26.505 20.482l.161.083c10.817 5.541 25.258 12.939 49.253 12.949v17.356c-16.731 5.921-34.256 9-52.192 9.164-14.417-15.96-23.329-36.978-23.727-60.034zm92.038 90.448c-19.369 0-37.356-6.018-52.2-16.274a174.597 174.597 0 0036.081-7.477v6.708c0 7.455 5.009 12.463 12.463 12.463h20.324c3.787 0 6.804-1.097 8.969-3.262 2.162-2.164 3.258-5.259 3.258-9.201v-28.631a176.111 176.111 0 0019.11-15.013 304.796 304.796 0 0117.41 33.335c-16.696 16.877-39.854 27.352-65.415 27.352zm76.022-40.201a319.642 319.642 0 00-17.053-31.284c2.558-2.75 5.027-5.58 7.404-8.484a43.012 43.012 0 0021.927 13.961 91.73 91.73 0 01-12.278 25.807zm15.344-40.561c-6.455-2.003-11.942-6.285-15.544-11.865a176.365 176.365 0 0013.196-22.923 91.845 91.845 0 013.042 23.49c0 3.824-.239 7.594-.694 11.298z"/></svg>