<svg id="Capa_1" enable-background="new 0 0 512 512" height="512" viewBox="0 0 512 512" width="512" xmlns="http://www.w3.org/2000/svg"><g><path d="m203.167 180.72c-4.143 0-7.5 3.358-7.5 7.5v15c0 4.142 3.357 7.5 7.5 7.5s7.5-3.358 7.5-7.5v-15c0-4.142-3.357-7.5-7.5-7.5z"/><path d="m386.029 133.518c1.407 1.41 3.317 2.202 5.309 2.202s3.901-.792 5.309-2.202l41.451-41.529c6.926-6.938 10.74-16.162 10.74-25.972 0-20.257-16.456-36.737-36.684-36.737-7.554 0-14.744 2.266-20.816 6.479-6.072-4.213-13.264-6.479-20.817-6.479-20.227 0-36.683 16.48-36.683 36.737 0 9.81 3.813 19.033 10.738 25.972zm-15.508-89.238c5.858 0 11.35 2.31 15.462 6.505 1.411 1.438 3.341 2.249 5.355 2.249s3.944-.811 5.355-2.249c4.112-4.195 9.604-6.505 15.461-6.505 11.956 0 21.684 9.751 21.684 21.737 0 5.809-2.257 11.269-6.356 15.375l-36.144 36.211-36.145-36.211c-4.099-4.106-6.355-9.566-6.355-15.375 0-11.986 9.726-21.737 21.683-21.737z"/><path d="m250.691 133.518c1.407 1.41 3.317 2.202 5.309 2.202s3.901-.792 5.309-2.202l41.451-41.529c6.926-6.938 10.74-16.162 10.74-25.972 0-20.257-16.456-36.737-36.683-36.737-7.554 0-14.745 2.266-20.817 6.479-6.072-4.213-13.264-6.479-20.817-6.479-20.227 0-36.683 16.48-36.683 36.737 0 9.811 3.814 19.034 10.739 25.972zm-15.508-89.238c5.858 0 11.35 2.31 15.462 6.505 1.411 1.438 3.341 2.249 5.355 2.249s3.944-.811 5.355-2.249c4.112-4.195 9.604-6.505 15.462-6.505 11.956 0 21.683 9.751 21.683 21.737 0 5.809-2.257 11.269-6.356 15.375l-36.144 36.211-36.145-36.211c-4.099-4.105-6.355-9.566-6.355-15.375 0-11.986 9.727-21.737 21.683-21.737z"/><path d="m114.695 133.518c1.407 1.41 3.317 2.202 5.309 2.202s3.901-.792 5.309-2.202l41.452-41.529c6.926-6.938 10.739-16.161 10.739-25.972 0-20.257-16.456-36.737-36.683-36.737-7.554 0-14.745 2.266-20.817 6.479-6.072-4.213-13.263-6.479-20.816-6.479-20.228 0-36.684 16.48-36.684 36.737 0 9.811 3.814 19.034 10.739 25.972zm-15.507-89.238c5.857 0 11.349 2.31 15.461 6.505 1.411 1.438 3.341 2.249 5.355 2.249s3.944-.811 5.355-2.249c4.112-4.195 9.604-6.505 15.462-6.505 11.956 0 21.683 9.751 21.683 21.737 0 5.81-2.257 11.27-6.355 15.375l-36.145 36.211-36.145-36.211c-4.099-4.105-6.355-9.566-6.355-15.375 0-11.986 9.727-21.737 21.684-21.737z"/><path d="m489.5 60.72c-12.406 0-22.5 10.093-22.5 22.5v67.5h-422v-67.5c0-12.407-10.094-22.5-22.5-22.5s-22.5 10.093-22.5 22.5v75c0 20.678 16.822 37.5 37.5 37.5h22.5v260.583c0 14.566 11.851 26.417 26.416 26.417 14.566 0 26.417-11.851 26.417-26.417v-138.573h15v138.573c0 14.566 11.851 26.417 26.416 26.417 14.566 0 26.417-11.851 26.417-26.417v-124.863c2.347.833 4.871 1.29 7.5 1.29s5.153-.458 7.5-1.29v124.863c0 14.566 11.851 26.417 26.416 26.417 14.566 0 26.417-11.851 26.417-26.417v-138.573h15v138.573c0 14.566 11.851 26.417 26.416 26.417 14.566 0 26.417-11.851 26.417-26.417v-124.785c2.337.784 4.857 1.213 7.5 1.213s5.163-.429 7.5-1.213v124.785c0 14.566 11.851 26.417 26.417 26.417 14.565 0 26.416-11.851 26.416-26.417v-138.573h15v138.573c0 14.566 11.851 26.417 26.417 26.417 14.565 0 26.416-11.851 26.416-26.417v-260.583h22.502c20.678 0 37.5-16.822 37.5-37.5v-75c0-12.407-10.094-22.5-22.5-22.5zm-335.251 407c-6.295 0-11.416-5.122-11.416-11.417v-146.073c0-4.142-3.357-7.5-7.5-7.5h-30c-4.143 0-7.5 3.358-7.5 7.5v146.073c0 6.295-5.122 11.417-11.417 11.417s-11.416-5.122-11.416-11.417v-268.083c0-4.142-3.357-7.5-7.5-7.5h-30c-12.406 0-22.5-10.093-22.5-22.5v-75c0-4.136 3.364-7.5 7.5-7.5s7.5 3.364 7.5 7.5v75c0 4.142 3.357 7.5 7.5 7.5h135.685c-4.718 6.271-7.518 14.065-7.518 22.5l-.001 268.083c0 6.295-5.122 11.417-11.417 11.417zm169.584-149.99c-4.275 0-7.5-3.009-7.5-7v-122.51c0-4.142-3.357-7.5-7.5-7.5s-7.5 3.358-7.5 7.5v268.083c0 6.295-5.122 11.417-11.417 11.417s-11.416-5.122-11.416-11.417v-146.073c0-4.142-3.357-7.5-7.5-7.5h-30c-4.143 0-7.5 3.358-7.5 7.5v146.073c0 6.295-5.122 11.417-11.417 11.417s-11.416-5.122-11.416-11.417v-223.083c0-4.142-3.357-7.5-7.5-7.5s-7.5 3.358-7.5 7.5v77.011c0 4.136-3.364 7.5-7.5 7.5s-7.5-3.364-7.5-7.5c0-.009 0-122.011 0-122.011 0-12.407 10.094-22.5 22.5-22.5h105.666c12.406 0 22.5 10.093 22.5 22.5v122.51c0 3.991-3.225 7-7.5 7zm173.167-159.51c0 12.407-10.094 22.5-22.5 22.5h-30.001c-4.143 0-7.5 3.358-7.5 7.5v268.083c0 6.295-5.121 11.417-11.416 11.417s-11.417-5.122-11.417-11.417v-146.073c0-4.142-3.357-7.5-7.5-7.5h-30c-4.143 0-7.5 3.358-7.5 7.5v146.073c0 6.295-5.121 11.417-11.416 11.417s-11.417-5.122-11.417-11.417v-268.083c0-8.435-2.8-16.229-7.518-22.5h135.685c4.143 0 7.5-3.358 7.5-7.5v-75c0-4.136 3.364-7.5 7.5-7.5s7.5 3.364 7.5 7.5z"/></g></svg>