<?xml version="1.0" encoding="iso-8859-1"?>
<!-- Generator: Adobe Illustrator 19.0.0, SVG Export Plug-In . SVG Version: 6.00 Build 0)  -->
<svg xmlns="http://www.w3.org/2000/svg" xmlns:xlink="http://www.w3.org/1999/xlink" version="1.1" id="Layer_1" x="0px" y="0px" viewBox="0 0 512 512" style="enable-background:new 0 0 512 512;" xml:space="preserve">
<g>
	<g>
		<circle cx="304.86" cy="115.569" r="8.409"/>
	</g>
</g>
<g>
	<g>
		<circle cx="328.9" cy="91.519" r="8.41"/>
	</g>
</g>
<g>
	<g>
		<circle cx="351.63" cy="68.787" r="8.409"/>
	</g>
</g>
<g>
	<g>
		<circle cx="327.85" cy="138.559" r="8.41"/>
	</g>
</g>
<g>
	<g>
		<circle cx="351.9" cy="114.509" r="8.409"/>
	</g>
</g>
<g>
	<g>
		<circle cx="374.63" cy="91.779" r="8.41"/>
	</g>
</g>
<g>
	<g>
		<circle cx="373.31" cy="184.019" r="8.409"/>
	</g>
</g>
<g>
	<g>
		<circle cx="397.36" cy="159.969" r="8.41"/>
	</g>
</g>
<g>
	<g>
		<circle cx="420.08" cy="137.239" r="8.409"/>
	</g>
</g>
<g>
	<g>
		<circle cx="396.43" cy="207.139" r="8.409"/>
	</g>
</g>
<g>
	<g>
		<circle cx="420.48" cy="183.089" r="8.409"/>
	</g>
</g>
<g>
	<g>
		<circle cx="443.21" cy="160.369" r="8.409"/>
	</g>
</g>
<g>
	<g>
		<circle cx="351.11" cy="161.819" r="8.409"/>
	</g>
</g>
<g>
	<g>
		<circle cx="375.16" cy="137.769" r="8.409"/>
	</g>
</g>
<g>
	<g>
		<circle cx="397.88" cy="115.039" r="8.409"/>
	</g>
</g>
<g>
	<g>
		<circle cx="68.818" cy="351.599" r="8.409"/>
	</g>
</g>
<g>
	<g>
		<circle cx="92.87" cy="327.549" r="8.409"/>
	</g>
</g>
<g>
	<g>
		<circle cx="115.6" cy="304.819" r="8.409"/>
	</g>
</g>
<g>
	<g>
		<circle cx="91.81" cy="374.599" r="8.409"/>
	</g>
</g>
<g>
	<g>
		<circle cx="115.86" cy="350.549" r="8.41"/>
	</g>
</g>
<g>
	<g>
		<circle cx="138.59" cy="327.819" r="8.41"/>
	</g>
</g>
<g>
	<g>
		<circle cx="137.27" cy="420.049" r="8.409"/>
	</g>
</g>
<g>
	<g>
		<circle cx="161.32" cy="395.999" r="8.409"/>
	</g>
</g>
<g>
	<g>
		<circle cx="184.05" cy="373.269" r="8.409"/>
	</g>
</g>
<g>
	<g>
		<circle cx="160.4" cy="443.179" r="8.41"/>
	</g>
</g>
<g>
	<g>
		<circle cx="184.45" cy="419.129" r="8.409"/>
	</g>
</g>
<g>
	<g>
		<circle cx="207.18" cy="396.399" r="8.41"/>
	</g>
</g>
<g>
	<g>
		<circle cx="115.07" cy="397.859" r="8.41"/>
	</g>
</g>
<g>
	<g>
		<circle cx="139.12" cy="373.809" r="8.409"/>
	</g>
</g>
<g>
	<g>
		<circle cx="161.85" cy="351.079" r="8.41"/>
	</g>
</g>
<g>
	<g>
		<path d="M405.093,255.999l98.801-98.801c5.228-5.228,8.106-12.178,8.106-19.571s-2.879-14.344-8.106-19.571L393.942,8.105    c-10.791-10.79-28.349-10.791-39.142,0l-79.9,79.9c-2.929,2.929-2.929,7.678,0,10.606c2.93,2.929,7.678,2.929,10.607,0    l79.899-79.9c4.944-4.943,12.986-4.943,17.929,0l109.951,109.951c2.394,2.395,3.713,5.578,3.713,8.964    c0,3.386-1.319,6.57-3.714,8.964l-98.8,98.8L157.198,8.105c-10.791-10.79-28.349-10.791-39.142,0L8.107,118.056    C2.879,123.284,0,130.234,0,137.627s2.879,14.343,8.106,19.571l98.801,98.8L8.106,354.8C2.879,360.027,0,366.978,0,374.371    s2.879,14.344,8.106,19.571l109.951,109.952c5.396,5.395,12.482,8.093,19.57,8.093s14.175-2.698,19.571-8.093l83.226-83.225    c2.929-2.929,2.929-7.678,0-10.606c-2.929-2.929-7.677-2.929-10.607,0l-83.225,83.225c-4.945,4.942-12.987,4.942-17.929,0    L18.713,383.335C16.319,380.94,15,377.757,15,374.371s1.319-6.57,3.714-8.964l98.8-98.801l237.288,237.287    c5.396,5.395,12.482,8.093,19.57,8.093s14.175-2.698,19.571-8.093l109.949-109.951c5.229-5.228,8.107-12.178,8.107-19.571    c0-7.393-2.879-14.343-8.106-19.571L405.093,255.999z M493.286,383.335L383.337,493.286c-4.945,4.942-12.987,4.942-17.929,0    L18.714,146.592c-2.395-2.395-3.714-5.578-3.714-8.964c0-3.386,1.319-6.57,3.713-8.964h0.001L128.663,18.712    c2.473-2.472,5.718-3.708,8.965-3.708c3.246,0,6.493,1.236,8.964,3.707l346.694,346.694c2.395,2.395,3.714,5.578,3.714,8.964    S495.681,380.94,493.286,383.335z"/>
	</g>
</g>
<g>
	<g>
		<path d="M348.242,246.057l-82.3-82.3c-2.967-2.967-6.912-4.601-11.107-4.601c-4.196,0-8.141,1.634-11.107,4.601l-79.969,79.969    c0,0,0,0-0.001,0c-2.967,2.967-4.601,6.912-4.601,11.107c0,4.196,1.634,8.141,4.601,11.107l82.3,82.3    c2.967,2.967,6.912,4.601,11.107,4.601c4.196,0,8.141-1.634,11.107-4.601l79.969-79.969c2.968-2.966,4.602-6.911,4.602-11.107    S351.209,249.023,348.242,246.057z M337.635,257.665l-79.97,79.97c-0.275,0.275-0.729,0.274-1.001,0l-82.3-82.3    c-0.138-0.138-0.207-0.306-0.207-0.5c0-0.194,0.069-0.363,0.207-0.5c0,0,0,0,0.001,0l79.97-79.97    c0.138-0.137,0.306-0.207,0.5-0.207c0.195,0,0.364,0.07,0.501,0.208l82.3,82.3c0.138,0.138,0.207,0.306,0.207,0.5    C337.843,257.36,337.773,257.527,337.635,257.665z"/>
	</g>
</g>
<g>
	<g>
		<circle cx="396.43" cy="304.859" r="8.409"/>
	</g>
</g>
<g>
	<g>
		<circle cx="420.48" cy="328.899" r="8.409"/>
	</g>
</g>
<g>
	<g>
		<circle cx="443.21" cy="351.629" r="8.41"/>
	</g>
</g>
<g>
	<g>
		<circle cx="373.44" cy="327.849" r="8.409"/>
	</g>
</g>
<g>
	<g>
		<circle cx="397.49" cy="351.899" r="8.409"/>
	</g>
</g>
<g>
	<g>
		<circle cx="420.22" cy="374.629" r="8.409"/>
	</g>
</g>
<g>
	<g>
		<circle cx="327.98" cy="373.309" r="8.409"/>
	</g>
</g>
<g>
	<g>
		<circle cx="352.03" cy="397.359" r="8.409"/>
	</g>
</g>
<g>
	<g>
		<circle cx="374.76" cy="420.079" r="8.41"/>
	</g>
</g>
<g>
	<g>
		<circle cx="304.86" cy="396.429" r="8.409"/>
	</g>
</g>
<g>
	<g>
		<circle cx="328.9" cy="420.479" r="8.409"/>
	</g>
</g>
<g>
	<g>
		<circle cx="351.63" cy="443.209" r="8.409"/>
	</g>
</g>
<g>
	<g>
		<circle cx="350.18" cy="351.109" r="8.41"/>
	</g>
</g>
<g>
	<g>
		<circle cx="374.23" cy="375.159" r="8.409"/>
	</g>
</g>
<g>
	<g>
		<circle cx="396.96" cy="397.879" r="8.409"/>
	</g>
</g>
<g>
	<g>
		<circle cx="160.4" cy="68.817" r="8.409"/>
	</g>
</g>
<g>
	<g>
		<circle cx="184.45" cy="92.869" r="8.41"/>
	</g>
</g>
<g>
	<g>
		<circle cx="207.18" cy="115.599" r="8.409"/>
	</g>
</g>
<g>
	<g>
		<circle cx="137.4" cy="91.809" r="8.41"/>
	</g>
</g>
<g>
	<g>
		<circle cx="161.45" cy="115.859" r="8.409"/>
	</g>
</g>
<g>
	<g>
		<circle cx="184.18" cy="138.589" r="8.409"/>
	</g>
</g>
<g>
	<g>
		<circle cx="91.95" cy="137.269" r="8.41"/>
	</g>
</g>
<g>
	<g>
		<circle cx="116" cy="161.319" r="8.41"/>
	</g>
</g>
<g>
	<g>
		<circle cx="138.72" cy="184.049" r="8.409"/>
	</g>
</g>
<g>
	<g>
		<circle cx="68.818" cy="160.399" r="8.409"/>
	</g>
</g>
<g>
	<g>
		<circle cx="92.87" cy="184.449" r="8.409"/>
	</g>
</g>
<g>
	<g>
		<circle cx="115.6" cy="207.179" r="8.409"/>
	</g>
</g>
<g>
	<g>
		<circle cx="114.14" cy="115.069" r="8.409"/>
	</g>
</g>
<g>
	<g>
		<circle cx="138.19" cy="139.119" r="8.409"/>
	</g>
</g>
<g>
	<g>
		<circle cx="160.92" cy="161.849" r="8.41"/>
	</g>
</g>
<g>
</g>
<g>
</g>
<g>
</g>
<g>
</g>
<g>
</g>
<g>
</g>
<g>
</g>
<g>
</g>
<g>
</g>
<g>
</g>
<g>
</g>
<g>
</g>
<g>
</g>
<g>
</g>
<g>
</g>
</svg>
