<?xml version="1.0" encoding="iso-8859-1"?>
<!-- Generator: Adobe Illustrator 19.0.0, SVG Export Plug-In . SVG Version: 6.00 Build 0)  -->
<svg xmlns="http://www.w3.org/2000/svg" xmlns:xlink="http://www.w3.org/1999/xlink" version="1.1" id="Layer_1" x="0px" y="0px" viewBox="0 0 512.001 512.001" style="enable-background:new 0 0 512.001 512.001;" xml:space="preserve">
<g>
	<g>
		<path d="M408.172,35.615H341.63V26.48C341.631,11.878,329.752,0,315.152,0h-125.9c-14.601,0-26.479,11.878-26.479,26.479v9.135    h-58.945c-17.759,0-32.208,14.448-32.208,32.208v82.868c0,4.142,3.358,7.5,7.5,7.5c4.142,0,7.5-3.358,7.5-7.5V67.822    c0-9.488,7.719-17.208,17.208-17.208h58.945V68.18h-43.141c-8.8,0-15.96,7.159-15.96,15.959v382.897c0,8.8,7.16,15.96,15.96,15.96    h272.735c8.8,0,15.96-7.16,15.96-15.96v-93.875c0-4.142-3.358-7.5-7.5-7.5c-4.142,0-7.5,3.358-7.5,7.5v93.875    c0,0.529-0.431,0.96-0.96,0.96H119.632c-0.529,0-0.96-0.431-0.96-0.96V84.141c0-0.529,0.431-0.959,0.96-0.959h43.237    c1.107,13.589,12.513,24.311,26.383,24.311h125.899c13.87,0,25.275-10.722,26.383-24.311h50.833c0.529,0,0.96,0.431,0.96,0.959    v258.266c0,4.142,3.358,7.5,7.5,7.5c4.142,0,7.5-3.358,7.5-7.5V84.141c0-8.8-7.16-15.959-15.96-15.959H341.63V50.615h66.542    c9.488,0,17.208,7.719,17.208,17.208v411.97c0,9.488-7.719,17.208-17.208,17.208H103.828c-9.488,0-17.208-7.719-17.208-17.208    V181.447c0-4.142-3.358-7.5-7.5-7.5c-4.142,0-7.5,3.358-7.5,7.5v298.346c0,17.759,14.448,32.208,32.208,32.208h304.345    c17.759,0,32.208-14.448,32.208-32.208V67.822C440.38,50.063,425.932,35.615,408.172,35.615z M315.152,92.492h-125.9    c-6.33,0-11.479-5.149-11.479-11.479V26.479c0-6.33,5.15-11.479,11.479-11.479h125.899c6.33,0,11.479,5.15,11.479,11.479v54.534    h0.001C326.631,87.343,321.482,92.492,315.152,92.492z"/>
	</g>
</g>
<g>
	<g>
		<path d="M161.707,356.095c-13.833,0-25.086,11.253-25.086,25.086s11.253,25.086,25.086,25.086    c13.833,0,25.086-11.253,25.086-25.086S175.54,356.095,161.707,356.095z M161.707,391.267c-5.562,0-10.086-4.524-10.086-10.086    s4.524-10.086,10.086-10.086c5.562,0,10.086,4.524,10.086,10.086S167.269,391.267,161.707,391.267z"/>
	</g>
</g>
<g>
	<g>
		<path d="M334.131,391.958c-13.832,0-25.085,11.253-25.085,25.086s11.253,25.086,25.085,25.086    c13.833,0,25.086-11.253,25.086-25.086S347.963,391.958,334.131,391.958z M334.131,427.129c-5.561,0-10.085-4.524-10.085-10.086    s4.524-10.086,10.085-10.086c5.562,0,10.086,4.524,10.086,10.086S339.692,427.129,334.131,427.129z"/>
	</g>
</g>
<g>
	<g>
		<g>
			<path d="M365.528,307.836l-26.093-26.093c-2.886-2.888-7.723-2.888-10.609,0l-26.093,26.093c-2.929,2.929-2.929,7.678,0,10.606     c2.929,2.929,7.678,2.929,10.606,0l13.291-13.291v12.875c0,30.688-24.967,55.655-55.655,55.655h-20.382v-55.482l13.291,13.291     c1.464,1.464,3.384,2.197,5.303,2.197s3.839-0.732,5.303-2.197c2.929-2.929,2.929-7.678,0-10.606l-26.093-26.093     c-2.886-2.888-7.723-2.888-10.609,0l-26.093,26.093c-2.929,2.929-2.929,7.678,0,10.606c2.929,2.929,7.678,2.929,10.606,0     l13.291-13.291v55.482h-28.804c-4.142,0-7.5,3.358-7.5,7.5c0,4.142,3.358,7.5,7.5,7.5h30.003     c4.882,21.643,24.249,37.862,47.346,37.862c4.142,0,7.5-3.358,7.5-7.5c0-4.142-3.358-7.5-7.5-7.5     c-14.762,0-27.318-9.589-31.791-22.862h18.628c38.959,0,70.655-31.696,70.655-70.655v-12.875l13.291,13.291     c1.464,1.464,3.384,2.197,5.303,2.197s3.841-0.733,5.305-2.197C368.457,315.513,368.457,310.764,365.528,307.836z"/>
			<path d="M365.528,318.442C364.064,319.906,368.458,315.513,365.528,318.442L365.528,318.442z"/>
		</g>
	</g>
</g>
<g>
	<g>
		<path d="M244.513,226.097c-13.833,0-25.086,11.253-25.086,25.085c0,13.833,11.253,25.086,25.086,25.086    s25.086-11.253,25.086-25.086C269.599,237.35,258.346,226.097,244.513,226.097z M244.513,261.267    c-5.562,0-10.086-4.524-10.086-10.086c0-5.56,4.524-10.085,10.086-10.085s10.086,4.524,10.086,10.085    C254.599,256.743,250.075,261.267,244.513,261.267z"/>
	</g>
</g>
<g>
	<g>
		<path d="M166.516,146.413c-13.833,0-25.086,11.253-25.086,25.086c0,13.832,11.253,25.085,25.086,25.085    c13.832,0,25.085-11.253,25.085-25.085C191.601,157.667,180.348,146.413,166.516,146.413z M166.516,181.584    c-5.562,0-10.086-4.524-10.086-10.085c0-5.562,4.524-10.086,10.086-10.086c5.561,0,10.085,4.524,10.085,10.086    C176.601,177.06,172.077,181.584,166.516,181.584z"/>
	</g>
</g>
<g>
	<g>
		<path d="M269.188,128.827c-13.832,0-25.085,11.253-25.085,25.086c0,13.833,11.252,25.086,25.085,25.086    s25.086-11.253,25.086-25.086C294.274,140.08,283.021,128.827,269.188,128.827z M269.188,163.999    c-5.561,0-10.085-4.524-10.085-10.086c0-5.562,4.523-10.086,10.085-10.086c5.562,0,10.086,4.524,10.086,10.086    C279.274,159.475,274.75,163.999,269.188,163.999z"/>
	</g>
</g>
<g>
	<g>
		<path d="M342.752,223.948l14.268-14.268c2.929-2.929,2.929-7.678,0-10.606c-2.929-2.929-7.678-2.929-10.606,0l-14.268,14.268    l-14.268-14.268c-2.929-2.929-7.678-2.929-10.606,0c-2.929,2.929-2.929,7.678,0,10.606l14.268,14.268l-14.268,14.268    c-2.929,2.928-2.929,7.677,0,10.606c2.929,2.929,7.678,2.929,10.606,0l14.268-14.268l14.268,14.268    c1.464,1.464,3.384,2.197,5.303,2.197s3.839-0.732,5.303-2.197c2.929-2.929,2.929-7.678,0-10.606L342.752,223.948z"/>
	</g>
</g>
<g>
</g>
<g>
</g>
<g>
</g>
<g>
</g>
<g>
</g>
<g>
</g>
<g>
</g>
<g>
</g>
<g>
</g>
<g>
</g>
<g>
</g>
<g>
</g>
<g>
</g>
<g>
</g>
<g>
</g>
</svg>
