<?xml version="1.0" encoding="iso-8859-1"?>
<!-- Generator: Adobe Illustrator 19.0.0, SVG Export Plug-In . SVG Version: 6.00 Build 0)  -->
<svg xmlns="http://www.w3.org/2000/svg" xmlns:xlink="http://www.w3.org/1999/xlink" version="1.1" id="Layer_1" x="0px" y="0px" viewBox="0 0 512.001 512.001" style="enable-background:new 0 0 512.001 512.001;" xml:space="preserve">
<path style="fill:#4E6284;" d="M328.637,512H183.365c-9.791,0-17.728-7.937-17.728-17.728V17.728C165.638,7.937,173.574,0,183.365,0  h145.272c9.791,0,17.728,7.937,17.728,17.728v476.545C346.364,504.063,338.428,512,328.637,512z"/>
<path style="fill:#213244;" d="M328.637,0h-39.885c9.791,0,17.728,7.937,17.728,17.728v476.545c0,9.791-7.937,17.728-17.728,17.728  h39.885c9.791,0,17.728-7.937,17.728-17.728V17.728C346.364,7.937,338.428,0,328.637,0z"/>
<circle style="fill:#192535;" cx="256.001" cy="256" r="162.44"/>
<circle style="fill:#FCD872;" cx="256.001" cy="256" r="121.36"/>
<path style="fill:#FAC231;" d="M242.712,151.421c67.028,0,121.364,54.337,121.364,121.364c0,24.598-7.325,47.482-19.903,66.604  c20.572-21.745,33.191-51.092,33.191-83.389c0-67.028-54.337-121.364-121.364-121.364c-42.429,0-79.766,21.778-101.461,54.761  C176.662,166.013,207.982,151.421,242.712,151.421z"/>
<path style="fill:#FF90D3;" d="M271.979,228.944c-6.143,0-11.743,2.318-15.978,6.125c-4.234-3.807-9.835-6.125-15.978-6.125  c-13.203,0-23.907,10.703-23.907,23.907c0,27.695,39.884,49.367,39.884,49.367s39.885-26.367,39.885-49.367  C295.886,239.647,285.182,228.944,271.979,228.944z"/>
<g>
</g>
<g>
</g>
<g>
</g>
<g>
</g>
<g>
</g>
<g>
</g>
<g>
</g>
<g>
</g>
<g>
</g>
<g>
</g>
<g>
</g>
<g>
</g>
<g>
</g>
<g>
</g>
<g>
</g>
</svg>
