<?xml version="1.0" encoding="iso-8859-1"?>
<!-- Generator: Adobe Illustrator 19.0.0, SVG Export Plug-In . SVG Version: 6.00 Build 0)  -->
<svg xmlns="http://www.w3.org/2000/svg" xmlns:xlink="http://www.w3.org/1999/xlink" version="1.1" id="Layer_1" x="0px" y="0px" viewBox="0 0 512 512" style="enable-background:new 0 0 512 512;" xml:space="preserve">
<g>
	<path style="fill:#FAC231;" d="M321.774,70.331c-1.209,0-2.434-0.286-3.578-0.888c-3.765-1.98-5.212-6.637-3.231-10.402   l16.428-31.235c1.98-3.764,6.637-5.211,10.402-3.231s5.212,6.637,3.231,10.402l-16.428,31.235   C327.22,68.833,324.543,70.331,321.774,70.331z"/>
	<path style="fill:#FAC231;" d="M130.676,413.309c-1.418,0-2.852-0.391-4.136-1.211c-3.586-2.288-4.639-7.051-2.35-10.636   l19.017-29.801c2.29-3.586,7.052-4.637,10.636-2.35c3.586,2.288,4.639,7.051,2.35,10.636l-19.017,29.801   C135.707,412.051,133.219,413.309,130.676,413.309z"/>
</g>
<rect x="213.089" y="431.43" style="fill:#213244;" width="40.14" height="36.405"/>
<path style="fill:#4E6284;" d="M324.101,512H147.457v-22.701c0-11.852,9.608-21.46,21.46-21.46h133.724  c11.852,0,21.46,9.608,21.46,21.46V512z"/>
<path style="fill:#213244;" d="M302.641,467.839h-41.765c11.852,0,21.46,9.608,21.46,21.46V512h41.765v-22.701  C324.101,477.447,314.493,467.839,302.641,467.839z"/>
<ellipse style="fill:#F37569;" cx="234.449" cy="218.5" rx="178.65" ry="178.67"/>
<path style="fill:#D3655C;" d="M334.324,70.336c24.822,30.684,39.7,69.747,39.7,112.291c0,98.677-79.985,178.671-178.651,178.671  c-36.996,0-71.366-11.247-99.878-30.509c32.752,40.486,82.824,66.38,138.952,66.38c98.666,0,178.651-79.994,178.651-178.671  C413.098,156.822,381.85,102.444,334.324,70.336z"/>
<g>
	<path style="fill:#BA5852;" d="M355.528,182.329c-18.218-9.33-52.095-26.692-107.527-23.357   c-16.565-0.064-31.554-6.916-42.344-17.904c46.938-28.443,101.586-44.589,158.974-44.913c-5.245-5.58-10.839-10.828-16.757-15.698   c-54.818,3.107-106.806,19.915-151.942,47.561c-4.71-8.535-7.399-18.334-7.399-28.752c0-4.478-3.63-8.108-8.108-8.108   s-8.108,3.629-8.108,8.108c0,13.658,3.643,26.473,9.982,37.558c-14.06,9.6-27.361,20.299-39.781,31.987   c-14.441-23.243-27.23-47.488-38.294-72.613c-4.102,4.367-7.985,8.941-11.635,13.703c11.13,24.4,23.847,47.977,38.105,70.611   c-7.684,8.006-14.97,16.423-21.832,25.218c-2.458-3.584-5.221-6.984-8.304-10.142c-10.739-10.997-24.391-18.388-39.225-21.389   c-1.328,5.208-2.421,10.51-3.281,15.89c11.682,2.352,22.441,8.163,30.9,16.826c3.782,3.874,6.973,8.199,9.54,12.846   c-12.66,18.155-23.546,37.759-32.416,58.584c2.583,7.268,5.615,14.323,9.078,21.123c7.878-21.482,17.957-41.727,29.978-60.475   c0.407,2.51,0.667,5.055,0.752,7.628c-1.714,55.5,16.62,88.864,26.476,106.803c3.843,6.993,8.691,13.921,13.961,20.521   c11.533,6.554,23.867,11.856,36.818,15.733c-12.44-11.711-27.687-27.904-36.567-44.062c-12.632-22.991-25.983-51.476-24.472-98.734   c0.005-0.165,0.005-0.329,0.001-0.494c-0.25-8.582-1.944-16.946-4.932-24.799c7.041-9.483,14.595-18.525,22.618-27.092   c15.069,22.504,31.671,44.035,49.772,64.456c39.425,44.474,84.917,82.635,135.365,113.627c5.175-3.046,10.182-6.344,15.005-9.879   c-51.691-30.839-98.182-69.321-138.236-114.504c-18.354-20.704-35.14-42.57-50.285-65.47   c12.537-12.034,26.047-22.992,40.383-32.752c13.908,15.466,34.058,25.213,56.446,25.213c0.164,0,0.33-0.005,0.495-0.015   c47.178-2.889,76.054,9.631,99.403,21.59c26.059,13.347,52.766,42.751,62.121,53.625c1.266-7.03,2.114-14.204,2.532-21.494   C399.342,214.5,377.649,193.66,355.528,182.329z"/>
	<path style="fill:#BA5852;" d="M234.446,39.827c-13.088,0-25.842,1.421-38.13,4.093c-5.238,4.894-9.823,10.553-13.543,16.871   c-2.272,3.859-0.986,8.829,2.872,11.101c1.292,0.761,2.708,1.122,4.107,1.122c2.778,0,5.483-1.428,6.994-3.995   c9.519-16.168,26.189-26.879,44.582-29.047C239.044,39.885,236.752,39.827,234.446,39.827z"/>
</g>
<path style="fill:#FCD872;" d="M234.124,440.254c-37.117,0.002-73.821-9.415-107.177-27.913  c-19.652-10.899-37.419-24.586-52.806-40.681c-2.94-3.075-2.83-7.95,0.245-10.89c3.074-2.94,7.949-2.83,10.89,0.245  c14.314,14.972,30.848,27.708,49.143,37.855c31.602,17.525,65.871,25.842,99.679,25.844c72.592,0.003,143.09-38.335,180.72-106.189  c26.718-48.179,33.075-103.878,17.9-156.838c-15.175-52.961-50.065-96.842-98.245-123.56c-16.705-9.265-34.515-16.158-52.935-20.488  c-4.141-0.973-6.71-5.119-5.736-9.26c0.973-4.142,5.12-6.713,9.26-5.736c19.8,4.654,38.938,12.06,56.882,22.012  c51.777,28.713,89.274,75.872,105.582,132.788s9.476,116.776-19.238,168.553c-28.714,51.777-75.873,89.274-132.788,105.582  C275.252,437.381,254.622,440.254,234.124,440.254z"/>
<circle style="fill:#0098FF;" cx="350.669" cy="7.702" r="7.702"/>
<g>
</g>
<g>
</g>
<g>
</g>
<g>
</g>
<g>
</g>
<g>
</g>
<g>
</g>
<g>
</g>
<g>
</g>
<g>
</g>
<g>
</g>
<g>
</g>
<g>
</g>
<g>
</g>
<g>
</g>
</svg>
