<?xml version="1.0" encoding="iso-8859-1"?>
<!-- Generator: Adobe Illustrator 19.0.0, SVG Export Plug-In . SVG Version: 6.00 Build 0)  -->
<svg xmlns="http://www.w3.org/2000/svg" xmlns:xlink="http://www.w3.org/1999/xlink" version="1.1" id="Layer_1" x="0px" y="0px" viewBox="0 0 512 512" style="enable-background:new 0 0 512 512;" xml:space="preserve">
<path style="fill:#FF90D3;" d="M358.554,22.467c-39.426,0-75.375,14.875-102.553,39.312  c-27.179-24.437-63.127-39.312-102.554-39.312C68.7,22.467,0,91.167,0,175.913C0,332.464,198.547,459.03,245.932,487.007  c6.11,3.607,13.751,3.326,19.567-0.738C311.847,453.878,512,306.446,512,175.913C512,91.167,443.3,22.467,358.554,22.467z"/>
<path style="fill:#E56E9F;" d="M467.402,67.764c2.85,11.691,4.373,23.902,4.373,36.47c0,54.174-34.475,111.258-78.122,161.822  C293.247,382.372,110.314,377.147,17.678,254.554c-1.064-1.407-2.118-2.821-3.162-4.242  C61.147,371.404,206.395,463.667,245.96,487.023c6.1,3.601,13.727,3.308,19.533-0.75C311.829,453.892,512,306.452,512,175.913  C512,133.718,494.965,95.504,467.402,67.764z"/>
<g>
	<path style="fill:#D15D76;" d="M305.4,383.302c-3.517-2.894-8.719-2.395-11.62,1.125c-2.898,3.519-2.394,8.721,1.125,11.62   c14.211,11.703,28.931,23.081,43.859,33.921c4.245-3.556,8.566-7.232,12.94-11.019C335.937,407.608,320.38,395.639,305.4,383.302z"/>
	<path style="fill:#D15D76;" d="M439.325,186.957c-27.33-13.997-78.179-40.049-161.311-35.021   c-28.179-0.072-53.501-12.518-70.821-32.175c71.169-44.25,153.004-68.805,237.068-71.145c-8.765-5.913-18.177-10.936-28.102-14.958   C338.504,40.2,263.457,65.087,197.36,106.431c-8.763-14.352-13.819-31.203-13.819-49.215c0-10.547,1.715-20.847,5.088-30.69   c-5.372-1.261-10.852-2.239-16.425-2.919c-3.433,10.826-5.172,22.095-5.172,33.608c0,21.322,6.036,41.259,16.481,58.201   c-23.769,16.002-46.036,34.018-66.577,53.782C94.251,133.137,74.148,95.464,56.911,56.645c-4.503,3.65-8.796,7.548-12.856,11.676   c17.563,38.912,37.949,76.669,60.891,112.814c-13.738,14.154-26.632,29.117-38.587,44.818c-3.07-5.026-6.53-9.828-10.39-14.328   c-14.673-17.106-34.346-29.396-55.963-35.14c0.018,5.86,0.311,11.679,0.866,17.452c16.393,5.367,31.227,15.218,42.566,28.437   c4.838,5.64,8.92,11.722,12.252,18.143c-9.466,13.425-18.267,27.341-26.369,41.691c3.048,5.619,6.283,11.162,9.686,16.623   c7.335-13.638,15.322-26.883,23.92-39.696c1.894,7.038,2.997,14.342,3.233,21.835c-0.663,21.183,0.517,41.091,3.566,60.203   c7.148,8.636,14.604,16.992,22.248,25.043c-7.24-26.488-10.286-54.286-9.305-84.977c0.005-0.168,0.005-0.335,0.001-0.503   c-0.384-13.198-3.159-26.168-8.036-38.29c12.15-16.533,25.354-32.261,39.515-47.085c6.388,9.66,12.953,19.202,19.705,28.607   c37.04,51.599,79.653,99.471,126.655,142.286c1.582,1.441,3.573,2.152,5.557,2.152c2.242,0,4.475-0.908,6.105-2.696   c3.07-3.371,2.826-8.591-0.544-11.662c-46.151-42.039-87.992-89.044-124.361-139.708c-7.301-10.169-14.377-20.503-21.243-30.975   c20.636-20.129,43.117-38.408,67.176-54.564c20.42,24.225,50.97,39.645,85.059,39.645c0.168,0,0.336-0.005,0.504-0.015   c78.775-4.825,127.083,19.928,153.036,33.222c18.458,9.453,39.864,25.676,62.142,47.057c2.517-5.409,4.81-10.83,6.851-16.254   C478.82,211.903,458.18,196.614,439.325,186.957z"/>
</g>
<g>
</g>
<g>
</g>
<g>
</g>
<g>
</g>
<g>
</g>
<g>
</g>
<g>
</g>
<g>
</g>
<g>
</g>
<g>
</g>
<g>
</g>
<g>
</g>
<g>
</g>
<g>
</g>
<g>
</g>
</svg>
