<?xml version="1.0" encoding="iso-8859-1"?>
<!-- Generator: Adobe Illustrator 19.0.0, SVG Export Plug-In . SVG Version: 6.00 Build 0)  -->
<svg xmlns="http://www.w3.org/2000/svg" xmlns:xlink="http://www.w3.org/1999/xlink" version="1.1" id="Layer_1" x="0px" y="0px" viewBox="0 0 512.001 512.001" style="enable-background:new 0 0 512.001 512.001;" xml:space="preserve">
<path style="fill:#C1E2FF;" d="M443.558,58.827V41.744h-53.82v17.083c0,15.971-6.339,31.039-17.16,40.79l-16.847,15.181  c-13.74,12.381-21.789,31.513-21.789,51.793v318.658c0,14.775,10.246,26.752,22.886,26.752h119.643  c12.639,0,22.886-11.977,22.886-26.752V166.59c0-20.28-8.049-39.412-21.789-51.793l-16.847-15.181  C449.897,89.866,443.558,74.798,443.558,58.827z"/>
<path style="fill:#97CEFF;" d="M477.565,114.797l-16.847-15.181c-10.821-9.751-17.16-24.818-17.16-40.79V41.744h-31.895v17.083  c0,15.971,6.339,31.039,17.16,40.79l16.847,15.181c13.741,12.381,21.789,31.513,21.789,51.793v318.658  c0,14.775-10.246,26.752-22.886,26.752h31.895c12.639,0,22.886-11.977,22.886-26.752V166.59  C499.355,146.31,491.306,127.178,477.565,114.797z"/>
<rect x="333.94" y="252.17" style="fill:#0098FF;" width="165.41" height="143.72"/>
<rect x="467.46" y="252.17" style="fill:#0073D1;" width="31.895" height="143.72"/>
<path style="fill:#0098FF;" d="M443.624,0h-54.182c-2.59,0-4.689,2.099-4.689,4.689v33.333c0,2.59,2.099,4.689,4.689,4.689h54.182  c2.59,0,4.689-2.099,4.689-4.689V4.689C448.313,2.099,446.214,0,443.624,0z"/>
<path style="fill:#0073D1;" d="M443.739,0h-31.78c2.59,0,4.689,2.099,4.689,4.689v33.333c0,2.59-2.099,4.689-4.689,4.689h31.78  c2.59,0,4.689-2.099,4.689-4.689V4.689C448.428,2.099,446.328,0,443.739,0z"/>
<path style="fill:#C1E2FF;" d="M438.867,333.944c0,14.19-11.503,25.692-25.692,25.692c-14.19,0-25.692-11.503-25.692-25.692  s25.692-45.526,25.692-45.526S438.867,319.755,438.867,333.944z"/>
<path style="fill:#FFDFAC;" d="M326.943,455.162c24.815-5.359,42.714-26.999,42.714-53.432l0,0c0-25.031-16.686-46.15-39.538-52.878  c-0.491-0.145-0.83-0.588-0.83-1.1l0,0c0-0.639,0.518-1.156,1.156-1.156h11.071c15.021,0,27.719-11.777,28.13-26.793  c0.427-15.579-12.074-28.342-27.557-28.342H296.51l-78.173-5l-77.793,5H98.168H67.78c-30.45,0-55.135,24.685-55.135,55.135l0,0  c0,26.136,18.186,48.022,42.593,53.7c0.672,0.156,1.152,0.744,1.152,1.434c0,0.689-0.48,1.277-1.152,1.433  c-24.298,5.652-42.429,27.369-42.592,53.349C12.454,487.261,38.026,512,68.776,512h272.741c15.021,0,27.718-11.777,28.13-26.792  c0.428-15.579-12.074-28.343-27.557-28.343l-14.973-0.061c-0.445-0.002-0.81-0.353-0.83-0.797  C326.269,455.602,326.547,455.248,326.943,455.162z"/>
<g>
	<path style="fill:#FBCE7D;" d="M368.703,325.859h-11.071c-0.639,0-1.156,0.518-1.156,1.156c0,0.512,0.34,0.956,0.83,1.1   c3.187,0.938,6.249,2.166,9.168,3.636c0.988-1.848,1.766-3.822,2.306-5.894C368.754,325.858,368.729,325.859,368.703,325.859z"/>
	<path style="fill:#FBCE7D;" d="M353.473,435.27c0.02,0.445,0.385,0.796,0.83,0.797l3.509,0.014c0.871-1.093,1.706-2.218,2.491-3.38   c-2.005,0.685-4.061,1.268-6.173,1.724C353.734,434.512,353.456,434.866,353.473,435.27z"/>
	<path style="fill:#FBCE7D;" d="M368.703,491.264H95.962c-30.75,0-56.322-24.739-56.129-55.488   c0.072-11.498,3.668-22.157,9.756-30.962c-21.404,7.48-36.793,27.776-36.943,51.698C12.454,487.261,38.026,512,68.776,512h272.741   c12.931,0,24.131-8.73,27.263-20.738C368.754,491.262,368.729,491.264,368.703,491.264z"/>
	<path style="fill:#FBCE7D;" d="M326.943,455.162c14.599-3.152,26.798-11.944,34.373-24.028H120.259   c-14.21,0-25.73,11.52-25.73,25.73H342.09l-14.973-0.061c-0.445-0.002-0.81-0.353-0.83-0.797   C326.269,455.602,326.547,455.248,326.943,455.162z"/>
	<path style="fill:#FBCE7D;" d="M124.172,320.865c-16.372,0-29.643,11.52-29.643,25.73h235.916h11.071   c14.664,0,27.108-11.226,28.074-25.73H124.172z"/>
	<path style="fill:#FBCE7D;" d="M300.511,401.73c0-14.21-13.156-25.73-29.385-25.73l-182.047-1.181   c-26.252-0.17-48.287-20.745-49.212-46.981c-0.023-0.657-0.035-1.317-0.035-1.979l0,0c0-11.634,3.612-22.419,9.763-31.315   c-21.512,7.516-36.95,27.975-36.95,52.051l0,0c0,24.982,16.624,46.064,39.406,52.837c0.456,0.147,0.921,0.287,1.406,0.417   c0.59,0.158,1.183,0.307,1.781,0.446c0.672,0.156,1.152,0.744,1.152,1.434v0.001H300.511z"/>
</g>
<path style="fill:#45D28A;" d="M279.413,424.455h-94.64c-9.363,0-16.953-7.59-16.953-16.953V291.46h-27.51l0,0  c0-11.905,9.651-21.556,21.556-21.556H278.06c10.11,0,18.306,8.196,18.306,18.306v119.291  C296.366,416.864,288.776,424.455,279.413,424.455z"/>
<path style="fill:#31AF97;" d="M278.06,269.904h-9.32v25.478c0,55.737-45.184,100.921-100.921,100.921l0,0v11.198  c0,9.363,7.59,16.953,16.953,16.953h94.64c9.363,0,16.953-7.59,16.953-16.953V288.21C296.366,278.1,288.17,269.904,278.06,269.904z"/>
<g>
</g>
<g>
</g>
<g>
</g>
<g>
</g>
<g>
</g>
<g>
</g>
<g>
</g>
<g>
</g>
<g>
</g>
<g>
</g>
<g>
</g>
<g>
</g>
<g>
</g>
<g>
</g>
<g>
</g>
</svg>
