<?xml version="1.0" encoding="iso-8859-1"?>
<!-- Generator: Adobe Illustrator 19.0.0, SVG Export Plug-In . SVG Version: 6.00 Build 0)  -->
<svg xmlns="http://www.w3.org/2000/svg" xmlns:xlink="http://www.w3.org/1999/xlink" version="1.1" id="Layer_1" x="0px" y="0px" viewBox="0 0 512 512" style="enable-background:new 0 0 512 512;" xml:space="preserve">
<path style="fill:#C1E2FF;" d="M365.758,263.458c-1.467-1.755-3.637-2.768-5.924-2.768h-58.851c-0.007,0-0.014,0-0.021,0H142.565  c-2.287,0-4.457,1.014-5.924,2.768c-1.467,1.755-2.081,4.069-1.677,6.32l29.937,166.499c0.755,4.198,4.771,6.982,8.967,6.234  c4.197-0.755,6.989-4.769,6.234-8.967l-5.099-28.359l26.347-26.316l38.926,38.926l-11.748,11.748c-3.016,3.016-3.016,7.905,0,10.922  c1.508,1.507,3.484,2.261,5.46,2.261c1.976,0,3.953-0.754,5.46-2.261l11.749-11.749l11.749,11.749  c1.508,1.507,3.484,2.261,5.46,2.261s3.953-0.754,5.46-2.261c3.016-3.016,3.016-7.905,0-10.922l-11.748-11.748l38.942-38.942  l26.334,26.334l-5.099,28.358c-0.755,4.197,2.037,8.212,6.234,8.967c0.462,0.082,0.922,0.123,1.376,0.123  c3.666,0,6.92-2.621,7.591-6.357l29.938-166.499C367.839,267.527,367.225,265.212,365.758,263.458z M299.922,355.872  c-0.18-0.226-0.372-0.446-0.581-0.656l-37.149-37.119l38.838-38.794l39.056,38.681L301.06,357.01L299.922,355.872z M220.195,276.134  h62.155l-31.083,31.047L220.195,276.134z M240.339,318.096l-38.983,38.938l-39.074-39.074l38.944-38.945L240.339,318.096z   M345.941,302.045l-26.162-25.911H350.6L345.941,302.045z M182.266,276.134l-25.823,25.823l-4.643-25.823H182.266z M171.676,386.68  l-8.218-45.702l26.971,26.971L171.676,386.68z M251.197,406.874l-38.919-38.919l38.987-38.942l35.118,35.089  c0.179,0.224,0.369,0.442,0.577,0.65l3.181,3.181L251.197,406.874z M311.982,367.932l26.959-26.959l-8.218,45.701L311.982,367.932z"/>
<g>
	<path style="fill:#4E6284;" d="M129.566,259.863H72.688c-4.819,0-8.726-3.457-8.726-7.722s3.907-7.722,8.726-7.722h56.879   c4.819,0,8.726,3.457,8.726,7.722C138.292,256.406,134.385,259.863,129.566,259.863z"/>
	<path style="fill:#4E6284;" d="M59.592,512c-4.265,0-7.722-3.457-7.722-7.722V382.137c0-4.265,3.457-7.722,7.722-7.722   s7.722,3.457,7.722,7.722v122.141C67.314,508.543,63.857,512,59.592,512z"/>
</g>
<path style="fill:#FCD872;" d="M69.09,382.137H50.094c-3.794,0-6.87-3.076-6.87-6.87V141.903c0-9.04,7.328-16.368,16.368-16.368l0,0  c9.04,0,16.368,7.328,16.368,16.368v233.364C75.96,379.061,72.884,382.137,69.09,382.137z"/>
<path style="fill:#FAC231;" d="M69.09,338.893H50.094c-3.794,0-6.87-3.076-6.87-6.87v43.244c0,3.794,3.076,6.87,6.87,6.87H69.09  c3.794,0,6.87-3.076,6.87-6.87v-43.244C75.96,335.817,72.884,338.893,69.09,338.893z"/>
<path style="fill:#0098FF;" d="M357.072,268.411H142.565c-8.986,0-16.271-7.285-16.271-16.271l0,0  c0-8.986,7.285-16.271,16.271-16.271h214.507c8.986,0,16.271,7.285,16.271,16.271l0,0  C373.343,261.127,366.058,268.411,357.072,268.411z"/>
<path style="fill:#0073D1;" d="M357.072,268.411H142.565c-8.986,0-16.271-7.285-16.271-16.271l0,0h247.049l0,0  C373.343,261.127,366.058,268.411,357.072,268.411z"/>
<ellipse style="fill:#F37569;" cx="350.85" cy="117.94" rx="117.92" ry="117.94"/>
<path style="fill:#D3655C;" d="M416.78,20.138c16.384,20.254,26.204,46.038,26.204,74.119c0,65.134-52.795,117.935-117.922,117.935  c-24.42,0-47.107-7.424-65.926-20.138c21.618,26.724,54.67,43.815,91.717,43.815c65.126,0,117.922-52.801,117.922-117.935  C468.776,77.224,448.15,41.331,416.78,20.138z"/>
<g>
	<path style="fill:#BA5852;" d="M434.56,90.722c-18.662-9.56-40.568-18.123-74.156-16.124c-8.98-0.057-17.351-3.326-23.885-8.791   c30.021-17.457,64.559-27.479,100.796-28.056C431.944,31.96,426,26.708,419.569,22.088c-33.456,3.158-65.185,13.759-93.191,30.392   c-1.143-2.525-2.021-5.203-2.585-8.008c-0.905-4.503-5.293-7.421-9.793-6.513c-4.503,0.905-7.419,5.291-6.513,9.794   c0.985,4.894,2.629,9.523,4.817,13.813c-7.903,5.529-15.447,11.566-22.584,18.074c-8.664-14.18-16.431-28.914-23.217-44.108   c-4.29,4.392-8.246,9.111-11.813,14.128c6.798,14.422,14.447,28.425,22.88,41.936c-3.885,4.126-7.619,8.405-11.193,12.831   c-1.151-1.45-2.374-2.852-3.681-4.191c-7.002-7.171-15.743-12.19-25.276-14.641c-1.507,5.299-2.646,10.752-3.403,16.327   c9.172,2.599,16.96,8.64,21.872,16.596c-6.935,10.127-13.076,20.895-18.328,32.228c2.219,7.677,5.199,15.029,8.85,21.975   c4.129-11.119,9.149-21.733,14.97-31.767c-0.168,31.26,8.671,51.865,18.342,69.465c0.51,0.928,1.052,1.853,1.61,2.775   c11.017,8.056,23.48,14.249,36.931,18.11c-8.218-7.76-18.185-18.379-23.963-28.895c-8.371-15.233-17.217-34.105-16.218-65.383   c0.006-0.169,0.006-0.338,0.001-0.507c-0.163-5.596-1.192-11.06-2.991-16.237c3.743-4.966,7.703-9.743,11.856-14.328   c31.547,46.139,72.469,85.847,119.853,115.819c5.425-2.93,10.591-6.276,15.463-9.99c-49.207-29.76-91.486-70.361-123.429-117.929   c7.282-6.826,15.044-13.109,23.215-18.811c9.935,10.051,23.693,16.19,38.592,16.19c0.17,0,0.338-0.006,0.507-0.015   c31.234-1.911,50.356,6.385,65.827,14.309c16.077,8.234,32.639,25.863,39.813,34.035c1.3-7.012,1.986-14.239,1.986-21.627   c0-0.208-0.007-0.414-0.008-0.622C459.614,108.124,447.212,97.202,434.56,90.722z"/>
	<path style="fill:#BA5852;" d="M350.854,0c-11.805,0-23.202,1.743-33.956,4.972c-1.389,1.895-2.666,3.89-3.815,5.983   c-2.21,4.026-0.737,9.082,3.289,11.292c1.27,0.696,2.641,1.027,3.994,1.027c2.938,0,5.785-1.559,7.298-4.316   C333.184,8.899,342.905,2.04,353.95,0.04C352.921,0.014,351.889,0,350.854,0z"/>
</g>
<g>
</g>
<g>
</g>
<g>
</g>
<g>
</g>
<g>
</g>
<g>
</g>
<g>
</g>
<g>
</g>
<g>
</g>
<g>
</g>
<g>
</g>
<g>
</g>
<g>
</g>
<g>
</g>
<g>
</g>
</svg>
