<?xml version="1.0" encoding="iso-8859-1"?>
<!-- Generator: Adobe Illustrator 19.0.0, SVG Export Plug-In . SVG Version: 6.00 Build 0)  -->
<svg xmlns="http://www.w3.org/2000/svg" xmlns:xlink="http://www.w3.org/1999/xlink" version="1.1" id="Layer_1" x="0px" y="0px" viewBox="0 0 512 512" style="enable-background:new 0 0 512 512;" xml:space="preserve">
<rect x="75.78" y="151.99" style="fill:#4E6284;" width="46.823" height="41.563"/>
<polygon style="fill:#213244;" points="122.604,178.567 75.781,170.153 75.781,151.989 122.604,151.989 "/>
<path style="fill:#FF5C5C;" d="M341.011,24.905v3.779c0,45.567-36.939,82.506-82.506,82.506H47.562v42.797h210.943  c45.567,0,82.506,36.939,82.506,82.506l0,0c0,13.755,11.15,24.905,24.905,24.905l0,0c13.755,0,24.905-11.15,24.905-24.905V24.905  C390.822,11.15,379.671,0,365.917,0l0,0C352.162,0,341.011,11.15,341.011,24.905z"/>
<path style="fill:#E84B4B;" d="M344.387,174.626c-10.654-8.7-40.315-36.711-85.882-36.711H47.562v16.073h210.943  c45.567,0,82.506,36.939,82.506,82.506l0,0c0,13.755,11.15,24.905,24.905,24.905s24.905-11.15,24.905-24.905V184.42  C390.822,198.175,357.95,185.7,344.387,174.626z"/>
<path style="fill:#FCD872;" d="M25.482,173.518L25.482,173.518c-13.233,0-23.96-10.727-23.96-23.96v-37.717  c0-13.233,10.727-23.96,23.96-23.96l0,0c13.233,0,23.96,10.727,23.96,23.96v37.717C49.443,162.791,38.715,173.518,25.482,173.518z"/>
<path style="fill:#FAC231;" d="M25.482,150.473c-13.233,0-23.96-10.727-23.96-23.96v23.046c0,13.233,10.727,23.96,23.96,23.96  s23.96-10.727,23.96-23.96v-23.046C49.443,139.745,38.715,150.473,25.482,150.473z"/>
<path style="fill:#0098FF;" d="M165.822,512H34.21c-4.82,0-8.727-3.907-8.727-8.727V226.378c0-19.233,15.592-34.825,34.825-34.825  h79.416c19.233,0,34.825,15.592,34.825,34.825v276.894C174.549,508.093,170.641,512,165.822,512z"/>
<path style="fill:#0073D1;" d="M139.723,191.553H99.159c19.233,0,34.825,15.592,34.825,34.825v276.894  c0,4.82-3.907,8.727-8.727,8.727h40.564c4.82,0,8.727-3.907,8.727-8.727V226.378C174.549,207.145,158.957,191.553,139.723,191.553z"/>
<g>
	<path style="fill:#C1E2FF;" d="M502.247,141.233h-38.245c-4.546,0-8.231-3.685-8.231-8.231s3.685-8.231,8.231-8.231h38.245   c4.546,0,8.231,3.685,8.231,8.231S506.793,141.233,502.247,141.233z"/>
	<path style="fill:#C1E2FF;" d="M474.69,193.056c-2.106,0-4.213-0.804-5.82-2.41l-27.043-27.043c-3.215-3.215-3.215-8.426,0-11.641   c3.214-3.213,8.426-3.213,11.64,0l27.043,27.043c3.215,3.215,3.215,8.426,0,11.641C478.902,192.252,476.796,193.056,474.69,193.056   z"/>
	<path style="fill:#C1E2FF;" d="M447.646,113.052c-2.106,0-4.213-0.804-5.82-2.41c-3.215-3.215-3.215-8.426,0-11.641l27.043-27.043   c3.214-3.213,8.426-3.213,11.64,0c3.215,3.215,3.215,8.426,0,11.641l-27.043,27.043   C451.859,112.248,449.753,113.052,447.646,113.052z"/>
	<path style="fill:#C1E2FF;" d="M101.519,418.536c-27.735,0-50.299-22.564-50.299-50.298c0-27.735,22.564-50.298,50.299-50.298   s50.299,22.564,50.299,50.298C151.818,395.972,129.253,418.536,101.519,418.536z M101.519,334.401   c-18.658,0-33.837,15.18-33.837,33.837s15.18,33.837,33.837,33.837s33.837-15.18,33.837-33.837S120.177,334.401,101.519,334.401z"/>
	<circle style="fill:#C1E2FF;" cx="101.25" cy="368.24" r="8.231"/>
</g>
<g>
</g>
<g>
</g>
<g>
</g>
<g>
</g>
<g>
</g>
<g>
</g>
<g>
</g>
<g>
</g>
<g>
</g>
<g>
</g>
<g>
</g>
<g>
</g>
<g>
</g>
<g>
</g>
<g>
</g>
</svg>
