<?xml version="1.0" encoding="iso-8859-1"?>
<!-- Generator: Adobe Illustrator 19.0.0, SVG Export Plug-In . SVG Version: 6.00 Build 0)  -->
<svg xmlns="http://www.w3.org/2000/svg" xmlns:xlink="http://www.w3.org/1999/xlink" version="1.1" id="Layer_1" x="0px" y="0px" viewBox="0 0 512 512" style="enable-background:new 0 0 512 512;" xml:space="preserve">
<path style="fill:#FCD872;" d="M454.21,202.518H57.79V74.46c0-8.499,6.889-15.388,15.388-15.388h365.643  c8.499,0,15.388,6.889,15.388,15.388L454.21,202.518L454.21,202.518z"/>
<path style="fill:#FAC231;" d="M438.822,59.072h-18.326l0,0c0,60.128-48.743,108.871-108.871,108.871H57.79v34.575h396.42V74.46  C454.21,65.961,447.32,59.072,438.822,59.072z"/>
<path style="fill:#4E6284;" d="M498.813,452.928H13.187C5.904,452.928,0,447.024,0,439.741V213.257  c0-7.283,5.904-13.187,13.187-13.187h485.626c7.283,0,13.187,5.904,13.187,13.187v226.484  C512,447.024,506.096,452.928,498.813,452.928z"/>
<path style="fill:#213244;" d="M498.813,200.07h-26.926l0,0c0,117.496-95.249,212.745-212.745,212.745H0v26.926  c0,7.283,5.904,13.187,13.187,13.187h485.626c7.283,0,13.187-5.904,13.187-13.187V213.257  C512,205.974,506.096,200.07,498.813,200.07z"/>
<g>
	<path style="fill:#0098FF;" d="M207.109,407.155H56.439c-5.248,0-9.502-4.254-9.502-9.502V255.345c0-5.248,4.254-9.502,9.502-9.502   h150.67c5.248,0,9.502,4.254,9.502,9.502v142.309C216.612,402.901,212.357,407.155,207.109,407.155z"/>
	<path style="fill:#0098FF;" d="M455.561,407.038h-150.67c-5.248,0-9.502-4.254-9.502-9.502V255.228   c0-5.248,4.254-9.502,9.502-9.502h150.67c5.248,0,9.502,4.254,9.502,9.502v142.309   C465.063,402.784,460.808,407.038,455.561,407.038z"/>
</g>
<path style="fill:#0073D1;" d="M308.537,407.038h147.024c5.248,0,9.502-4.254,9.502-9.502V255.228c0-0.41-0.035-0.811-0.085-1.207  C445.203,329.67,384.833,388.896,308.537,407.038z"/>
<g>
	<circle style="fill:#C1E2FF;" cx="256.13" cy="293.56" r="7.902"/>
	<circle style="fill:#C1E2FF;" cx="256.34" cy="352.37" r="7.902"/>
</g>
<g>
	<path style="fill:#FFFFFF;" d="M132.341,319.265l-11.155,8.097c-3.336,2.73-6.173,5.771-8.511,9.123   c-2.341,3.353-3.508,6.746-3.506,10.173l0.007,11.339c0.001,1.325,0.723,2.455,2.168,3.389c1.444,0.935,2.889,1.401,4.334,1.4   l40.588-0.025c1.215-0.001,2.298-0.679,3.248-2.038c0.947-1.357,1.423-2.927,1.422-4.712c-0.001-1.782-0.489-3.315-1.462-4.593   c-0.974-1.279-2.083-1.918-3.325-1.917l-32.438,0.021l-0.002-2.813c-0.002-2.188,1.262-4.496,3.794-6.921   c2.532-2.424,5.604-4.848,9.219-7.275c3.614-2.425,7.247-5.066,10.9-7.921c3.651-2.856,6.741-6.335,9.264-10.44   c2.525-4.106,3.787-8.503,3.784-13.194c-0.005-7.017-2.593-12.64-7.764-16.872c-5.172-4.23-11.294-6.343-18.366-6.338   c-6.699,0.004-12.511,1.985-17.436,5.943c-4.927,3.958-7.385,9.118-7.381,15.475c0.003,5.428,2.257,8.14,6.76,8.137   c2.366-0.001,4.253-0.58,5.665-1.738c1.41-1.159,2.116-2.497,2.115-4.013c-0.002-3.511,0.97-6.147,2.92-7.904   c1.947-1.757,4.443-2.637,7.483-2.639c3.586-0.003,6.296,1.052,8.13,3.161c1.833,2.11,2.751,4.532,2.753,7.268   c0.002,3.05-1.283,6.098-3.854,9.147C139.121,313.634,136.004,316.528,132.341,319.265z"/>
	<path style="fill:#FFFFFF;" d="M379.751,278.763c-1.396-0.929-2.949-1.393-4.653-1.392c-1.164,0.001-2.211,0.39-3.14,1.164   l-13.72,10.478c-1.938,1.243-2.906,3.066-2.904,5.469c0.001,1.553,0.467,2.947,1.397,4.187c0.932,1.241,2.096,1.86,3.492,1.859   c1.085,0,2.015-0.35,2.791-1.048l3.72-3.725l0.038,62.113c0.001,1.474,0.738,2.638,2.213,3.489   c1.473,0.854,3.258,1.278,5.351,1.277c2.015-0.002,3.78-0.428,5.292-1.284c1.512-0.853,2.267-2.016,2.266-3.491l-0.047-75.606   C381.847,280.856,381.148,279.693,379.751,278.763z"/>
</g>
<g>
	<path style="fill:#FF5C5C;" d="M143.904,129.347c-2.756-1.86-5.743-3.583-8.961-5.171c-3.22-1.586-6.207-2.904-8.958-3.949   c-2.754-1.046-5.062-2.4-6.923-4.067c-1.863-1.665-2.793-3.622-2.794-5.872c-0.002-2.791,1.139-4.983,3.426-6.574   c2.286-1.59,5.524-2.388,9.712-2.391c3.798-0.002,7.249,0.733,10.352,2.203c3.101,1.472,5.004,2.207,5.702,2.207   c1.861-0.001,3.332-0.923,4.417-2.769c1.084-1.846,1.627-3.632,1.626-5.359c-0.002-1.832-0.8-3.424-2.388-4.777   c-2.486-2.11-5.643-2.927-8.764-3.583c-3.378-0.71-6.826-1.127-10.279-1.178c-6.927-0.101-13.856,1.402-19.748,5.143   c-2.791,1.772-5.02,4.253-6.685,7.441c-1.666,3.189-2.496,6.87-2.494,11.041c0.003,3.722,0.683,7.037,2.043,9.944   c1.358,2.907,3.143,5.232,5.355,6.976c5.405,4.263,11.73,6.788,17.923,9.644c5.256,2.424,11.436,5.596,12.001,12.096   c0.224,2.573-0.368,5.262-2.137,7.21c-1.808,1.99-4.519,3.094-7.114,3.575c-5.968,1.106-12.333-0.535-16.769-4.72   c-2.117-1.997-5.081-5.136-8.302-3.975c-2.934,1.057-5.063,4.858-5.061,7.872c0.002,3.568,2.639,6.861,7.916,9.882   c5.274,3.021,11.594,4.529,18.963,4.525c8.296-0.005,14.984-2.168,20.061-6.494c5.075-4.323,7.613-10.462,7.608-18.415   c-0.003-4.729-0.937-8.858-2.799-12.386C148.965,133.9,146.657,131.206,143.904,129.347   C141.148,127.487,146.657,131.206,143.904,129.347C141.148,127.487,146.657,131.206,143.904,129.347z"/>
	<path style="fill:#FF5C5C;" d="M210.037,143.846c-4.73,0.003-7.21,1.595-7.441,4.774c-0.077,1.628-0.251,3.006-0.522,4.129   c-0.271,1.125-0.773,2.405-1.509,3.84c-0.737,1.436-1.939,2.542-3.604,3.318c-1.668,0.777-3.741,1.165-6.222,1.167   c-8.298,0.005-12.449-4.45-12.455-13.369l-0.02-32.452c-0.006-8.917,4.063-13.38,12.204-13.384   c3.008-0.002,6.527,0.624,8.787,2.788c2.344,2.245,3.075,5.619,3.319,8.72c0.078,3.181,2.6,4.767,7.563,4.764   c2.713-0.001,4.652-0.527,5.815-1.574c1.163-1.048,1.743-3.005,1.741-5.875c-0.004-6.668-2.587-12.018-7.745-16.047   c-5.161-4.028-11.81-6.042-19.952-6.036c-7.988,0.005-14.463,2.161-19.421,6.467c-4.961,4.307-7.438,11.037-7.432,20.186   l0.02,32.452c0.006,9.151,2.471,15.876,7.399,20.176c4.927,4.301,11.383,6.449,19.371,6.444c8.218-0.005,14.906-2.103,20.061-6.294   c5.153-4.191,7.729-9.775,7.724-16.754c-0.001-2.868-0.604-4.827-1.806-5.873C214.707,144.366,212.751,143.844,210.037,143.846   C205.306,143.848,212.751,143.844,210.037,143.846z"/>
	<path style="fill:#FF5C5C;" d="M274.096,94.952c-4.966-4.26-11.597-6.39-19.893-6.385c-8.299,0.005-14.908,2.143-19.829,6.41   c-4.922,4.269-7.379,11.016-7.373,20.244l0.02,32.452c0.006,9.229,2.471,15.974,7.399,20.235c4.927,4.262,11.538,6.39,19.837,6.385   c8.296-0.005,14.925-2.141,19.886-6.41c4.959-4.267,7.438-11.015,7.432-20.244l-0.02-32.452   C281.548,105.96,279.061,99.215,274.096,94.952z M254.248,161.033c-8.066,0.005-12.101-4.45-12.107-13.369l-0.02-32.452   c-0.006-8.917,4.022-13.379,12.089-13.384c8.142-0.005,12.216,4.453,12.222,13.369l0.02,32.452   C266.458,156.568,262.39,161.028,254.248,161.033z"/>
	<path style="fill:#FF5C5C;" d="M334.722,136.092c4.652-1.399,8.352-4.037,11.103-7.916c2.748-3.879,4.123-8.998,4.119-15.357   c-0.01-16.206-9.204-24.305-27.582-24.293l-23.031,0.014c-1.395,0.001-2.559,0.467-3.489,1.399   c-0.93,0.931-1.394,2.018-1.393,3.258l0.047,75.606c0.002,3.638,4.683,4.764,7.563,4.764c2.909,0,7.561-1.094,7.558-4.774   l-0.02-30.359l9.771-0.006l16.538,32.093c0.771,1.495,1.936,2.841,3.584,3.359c1.739,0.547,3.743,0.162,5.371-0.566   c1.838-0.823,3.616-2.21,4.712-3.914c0.872-1.356,1.569-3.653,0.403-5.052L334.722,136.092z M322.387,126.561l-12.795,0.008   l-0.016-24.776l12.795-0.008c8.296-0.005,12.449,4.142,12.454,12.439C334.83,122.444,330.683,126.556,322.387,126.561z"/>
	<path style="fill:#FF5C5C;" d="M408.83,160.24l-32.918,0.021l-0.015-23.38l17.68-0.011c6.398-0.004,6.322-11.868-0.007-11.864   l-17.68,0.011l-0.015-23.264l32.918-0.021c6.426-0.004,6.497-13.264-0.008-13.26l-41.409,0.025   c-1.785,0.001-3.335,0.43-4.652,1.283c-1.319,0.855-1.976,2.019-1.975,3.491l0.047,75.49c0.001,1.474,0.659,2.637,1.979,3.488   c1.318,0.854,2.869,1.278,4.654,1.276l41.409-0.025C415.346,173.496,415.254,160.235,408.83,160.24z"/>
</g>
<g>
</g>
<g>
</g>
<g>
</g>
<g>
</g>
<g>
</g>
<g>
</g>
<g>
</g>
<g>
</g>
<g>
</g>
<g>
</g>
<g>
</g>
<g>
</g>
<g>
</g>
<g>
</g>
<g>
</g>
</svg>
