<?xml version="1.0" encoding="iso-8859-1"?>
<!-- Generator: Adobe Illustrator 19.0.0, SVG Export Plug-In . SVG Version: 6.00 Build 0)  -->
<svg xmlns="http://www.w3.org/2000/svg" xmlns:xlink="http://www.w3.org/1999/xlink" version="1.1" id="Layer_1" x="0px" y="0px" viewBox="0 0 512 512" style="enable-background:new 0 0 512 512;" xml:space="preserve">
<path style="fill:#E7AB00;" d="M316.278,144.91c-3.471,0-6.658-2.295-7.637-5.802c-1.179-4.221,1.287-8.597,5.507-9.776  c0.536-0.15,1.103-0.304,1.697-0.465c5.747-1.564,13.617-3.705,21.11-9.528c14.184-11.024,20.169-24.451,20.223-24.582  c5.813-14.049,6.32-24.88,1.552-33.114c-3.044-5.258-7.942-7.814-14.973-7.814c-8.402,0-15.237,6.835-15.237,15.237  c0,8.401,6.835,15.237,15.237,15.237c4.382,0,7.934,3.552,7.934,7.934s-3.552,7.934-7.934,7.934  c-17.151,0-31.104-13.954-31.104-31.104s13.954-31.104,31.104-31.104c12.636,0,22.831,5.586,28.705,15.73  c7.308,12.617,7.099,28.475-0.62,47.131c-0.07,0.168-7.216,17.108-25.149,31.045c-10,7.772-20.442,10.613-26.681,12.31  c-0.559,0.152-1.091,0.296-1.595,0.438C317.702,144.815,316.984,144.91,316.278,144.91z"/>
<g>
	<path style="fill:#FAC231;" d="M195.722,145.001c-0.707,0-1.425-0.095-2.138-0.294c-0.504-0.141-1.036-0.286-1.595-0.438   c-6.239-1.698-16.681-4.539-26.681-12.31c-17.931-13.936-25.079-30.877-25.149-31.046c-7.719-18.656-7.928-34.513-0.62-47.131   c5.874-10.143,16.068-15.729,28.705-15.729c17.151,0,31.104,13.953,31.104,31.104s-13.954,31.104-31.104,31.104   c-4.382,0-7.934-3.552-7.934-7.934s3.552-7.934,7.934-7.934c8.402,0,15.237-6.835,15.237-15.237s-6.835-15.236-15.237-15.236   c-7.031,0-11.929,2.556-14.973,7.814c-4.769,8.233-4.261,19.065,1.552,33.113c0.054,0.131,6.04,13.56,20.223,24.583   c7.493,5.823,15.363,7.964,21.109,9.528c0.594,0.162,1.161,0.316,1.697,0.465c4.22,1.179,6.686,5.555,5.507,9.776   C202.38,142.705,199.193,145,195.722,145.001z"/>
	<path style="fill:#FAC231;" d="M256.164,181.111L256.164,181.111c-34.788,0-62.989-28.201-62.989-62.989V57.317   c0-7.604,6.164-13.768,13.768-13.768h98.441c7.604,0,13.768,6.164,13.768,13.768v60.805   C319.153,152.91,290.952,181.111,256.164,181.111z"/>
	<rect x="246.13" y="178.409" style="fill:#FAC231;" width="22.08" height="38.482"/>
	<path style="fill:#FAC231;" d="M284.4,243.951h-56.473v-10.01c0-9.994,8.101-18.095,18.095-18.095h20.283   c9.993,0,18.095,8.101,18.095,18.095V243.951z"/>
</g>
<path style="fill:#4E6284;" d="M319.394,287.782H192.933v-10.37c0-18.798,15.239-34.036,34.036-34.036h58.388  c18.798,0,34.036,15.239,34.036,34.036v10.37H319.394z"/>
<g>
	<path style="fill:#E7AB00;" d="M305.385,43.548h-28.237c7.604,0,13.769,6.164,13.769,13.769v60.805   c0,29.931-20.884,54.969-48.871,61.381c4.541,1.04,9.262,1.608,14.119,1.608l0,0c34.788,0,62.989-28.201,62.989-62.989V57.317   C319.153,49.713,312.989,43.548,305.385,43.548z"/>
	<rect x="257.46" y="178.409" style="fill:#E7AB00;" width="10.755" height="38.482"/>
	<path style="fill:#E7AB00;" d="M266.306,215.846h-16.185c9.994,0,18.095,8.101,18.095,18.095v10.01h16.185v-10.01   C284.401,223.947,276.299,215.846,266.306,215.846z"/>
</g>
<path style="fill:#213244;" d="M285.358,243.376h-28.237c18.798,0,34.036,15.238,34.036,34.036v10.37h28.237v-10.37  C319.395,258.615,304.156,243.376,285.358,243.376z"/>
<path style="fill:#FCD872;" d="M174.017,474.037H0V346.868c0-7.669,6.217-13.885,13.885-13.885h160.131v141.054H174.017z"/>
<path style="fill:#FAC231;" d="M133.818,332.983L133.818,332.983c0,59.285-48.06,107.345-107.345,107.345H0v33.709h174.017V332.983  H133.818z"/>
<path style="fill:#F37569;" d="M512,474.037H337.983v-93.128h160.131c7.669,0,13.885,6.217,13.885,13.885L512,474.037L512,474.037z"/>
<path style="fill:#D3655C;" d="M498.115,380.909H480l0,0c0,33.76-27.368,61.127-61.127,61.127h-80.889v32H512v-79.242  C512,387.126,505.783,380.909,498.115,380.909z"/>
<path style="fill:#45D28A;" d="M341.505,474.037H171.01v-172.37c0-7.669,6.217-13.885,13.885-13.885H327.62  c7.669,0,13.885,6.217,13.885,13.885V474.037z"/>
<path style="fill:#31AF97;" d="M327.62,287.782h-26.651v44.294c0,61.265-49.665,110.93-110.93,110.93H171.01v31.03h170.495V301.667  C341.505,293.999,335.288,287.782,327.62,287.782z"/>
<g>
	<circle style="fill:#F37569;" cx="224.19" cy="77.109" r="7.934"/>
	<circle style="fill:#F37569;" cx="256.16" cy="77.109" r="7.934"/>
	<circle style="fill:#F37569;" cx="287.11" cy="77.109" r="7.934"/>
</g>
<path style="fill:#217061;" d="M266.478,345.594c-1.396-0.929-2.949-1.393-4.653-1.392c-1.164,0.001-2.211,0.39-3.14,1.165  l-13.72,10.478c-1.938,1.243-2.906,3.066-2.904,5.469c0.001,1.553,0.467,2.947,1.397,4.187c0.932,1.241,2.096,1.86,3.492,1.859  c1.085,0,2.015-0.35,2.791-1.048l3.72-3.725l0.038,62.113c0.001,1.474,0.738,2.638,2.213,3.489c1.472,0.854,3.258,1.278,5.351,1.277  c2.015-0.002,3.78-0.428,5.292-1.284c1.512-0.853,2.267-2.016,2.266-3.491l-0.047-75.606  C268.573,347.688,267.874,346.524,266.478,345.594z"/>
<g>
</g>
<g>
</g>
<g>
</g>
<g>
</g>
<g>
</g>
<g>
</g>
<g>
</g>
<g>
</g>
<g>
</g>
<g>
</g>
<g>
</g>
<g>
</g>
<g>
</g>
<g>
</g>
<g>
</g>
</svg>
