<?xml version="1.0" encoding="iso-8859-1"?>
<!-- Generator: Adobe Illustrator 19.0.0, SVG Export Plug-In . SVG Version: 6.00 Build 0)  -->
<svg xmlns="http://www.w3.org/2000/svg" xmlns:xlink="http://www.w3.org/1999/xlink" version="1.1" id="Layer_1" x="0px" y="0px" viewBox="0 0 512.001 512.001" style="enable-background:new 0 0 512.001 512.001;" xml:space="preserve">
<path style="fill:#45D28A;" d="M475.958,303.178c-26.056,0-47.178-21.122-47.178-47.178s21.122-47.178,47.178-47.178l0,0v-59.999  c0-6.757-5.477-12.234-12.234-12.234l-103.195-11.951H12.234C5.477,124.639,0,130.116,0,136.872v71.95  c26.056,0,47.178,21.122,47.178,47.178S26.056,303.178,0,303.178v71.95c0,6.757,5.477,12.234,12.234,12.234h367.538l83.952-10.885  c6.757,0,12.234-5.477,12.234-12.234V303.178L475.958,303.178z"/>
<g>
	<path style="fill:#31AF97;" d="M464.67,210.507c0,8.249,2.122,16,5.843,22.746c8.031-14.563,23.529-24.432,41.335-24.432v-45.493   C485.793,163.329,464.67,184.452,464.67,210.507z"/>
	<path style="fill:#31AF97;" d="M499.766,341.869H12.234C5.477,341.869,0,336.391,0,329.635v45.493   c0,6.757,5.477,12.234,12.234,12.234h487.532c6.757,0,12.234-5.477,12.234-12.234v-45.493   C512,336.391,506.523,341.869,499.766,341.869z"/>
</g>
<path style="fill:#FCD872;" d="M200.759,216.182l9.138,18.516c0.601,1.219,1.764,2.063,3.109,2.258l20.433,2.969  c3.386,0.492,4.738,4.654,2.288,7.042l-14.786,14.412c-0.973,0.948-1.417,2.315-1.187,3.654l3.49,20.351  c0.578,3.373-2.962,5.945-5.99,4.352l-18.276-9.608c-1.203-0.632-2.64-0.632-3.842,0l-18.276,9.608  c-3.029,1.592-6.569-0.98-5.99-4.352l3.49-20.351c0.23-1.339-0.214-2.706-1.187-3.654l-14.786-14.412  c-2.45-2.389-1.098-6.55,2.288-7.042l20.433-2.969c1.345-0.195,2.507-1.04,3.109-2.258l9.138-18.516  C194.869,213.114,199.245,213.114,200.759,216.182z"/>
<path style="fill:#F37569;" d="M499.766,124.639H360.529c-43.477,25.441-72.685,72.627-72.685,126.642  c0,61.647,38.043,114.401,91.928,136.081h109.374c7.98-3.211,15.61-7.104,22.823-11.606c0.011-0.21,0.032-0.416,0.032-0.628v-71.95  c-26.056,0-47.178-21.122-47.178-47.178s21.122-47.178,47.178-47.178v-71.95C512,130.116,506.523,124.639,499.766,124.639z"/>
<path style="fill:#D3655C;" d="M499.766,341.869H319.192c15.751,20.015,36.588,35.84,60.58,45.493h119.572  c6.791,0,12.527-5.352,12.651-12.131c0-0.035,0.005-0.068,0.005-0.103v-45.493C512,336.391,506.523,341.869,499.766,341.869z"/>
<g>
	<path style="fill:#BA5852;" d="M512,136.872c0-1.626-0.324-3.175-0.9-4.594c-10.969,1.585-21.859,3.808-32.505,6.651   c-4.598,1.228-7.33,5.951-6.102,10.549c1.029,3.854,4.512,6.396,8.32,6.396c0.736,0,1.484-0.095,2.229-0.294   c9.489-2.534,19.187-4.536,28.958-6.007V136.872z"/>
	<path style="fill:#BA5852;" d="M408.387,272.331c-14.509-16.618-27.841-34.103-39.977-52.342   c10.103-9.622,20.964-18.463,32.494-26.424c12.265,13.082,29.681,21.278,48.985,21.278c0.176,0,0.351-0.006,0.526-0.016   c12.762-0.779,24.637-0.273,36.016,1.533c6.193-4.003,13.377-6.598,21.11-7.323c-0.415-3.489-2.945-6.513-6.563-7.37   c-16.174-3.832-32.968-5.16-51.34-4.06c-13.113-0.065-25.039-5.219-33.923-13.572c9.505-5.674,19.391-10.785,29.625-15.261   c4.36-1.907,6.349-6.988,4.442-11.348c-1.906-4.361-6.988-6.35-11.348-4.442c-11.459,5.012-22.511,10.764-33.108,17.183   c-3.43-6.767-5.377-14.407-5.377-22.498c0-8.201,1.914-16.01,5.585-23.031h-18.809c-2.645,7.267-4.011,15.012-4.011,23.031   c0,11.551,2.932,22.43,8.089,31.933c-11.236,7.782-21.887,16.336-31.854,25.609c-11.081-17.989-21.02-36.665-29.764-55.951   c-4.405,4.544-8.517,9.372-12.308,14.455c8.768,18.573,18.614,36.585,29.504,53.961c-5.858,6.169-11.454,12.585-16.739,19.255   c-1.856-2.53-3.898-4.942-6.119-7.217c-8.428-8.632-18.892-14.738-30.31-17.863c-1.535,5.511-2.743,11.157-3.63,16.91   c12.334,3.69,22.726,12.074,29.081,23.022c-9.3,13.442-17.459,27.709-24.348,42.66c2.42,7.868,5.488,15.451,9.136,22.693   c5.925-15.375,13.232-30.089,21.805-43.968c0.046,0.662,0.082,1.327,0.102,1.995c0.139,4.756,4.081,8.492,8.865,8.364   c4.757-0.139,8.501-4.108,8.363-8.864c-0.212-7.271-1.593-14.365-4.029-21.055c5.474-7.324,11.318-14.361,17.507-21.082   c12.012,17.784,25.129,34.866,39.339,51.141c32.311,37.009,69.488,69.097,110.65,95.587c2-1.122,3.974-2.285,5.915-3.497   c0.011-0.21,0.032-0.416,0.032-0.628V362.59C473.539,337.402,438.747,307.106,408.387,272.331z"/>
	<path style="fill:#BA5852;" d="M384.82,387.361c-9.421-9.916-16.707-19.387-21.301-27.748c-6.249-11.372-13.265-25.09-17.448-44.02   c-1.026-4.646-5.63-7.577-10.273-6.555c-4.647,1.027-7.582,5.626-6.556,10.274c4.452,20.152,11.845,35.268,19.171,48.6   c0.642,1.168,1.334,2.351,2.052,3.54c9.073,6.354,18.889,11.718,29.306,15.91h5.049V387.361z"/>
</g>
<g>
	<circle style="fill:#7DF4BC;" cx="97.78" cy="154.41" r="7.782"/>
	<circle style="fill:#7DF4BC;" cx="97.78" cy="181.73" r="7.782"/>
	<circle style="fill:#7DF4BC;" cx="97.78" cy="210.51" r="7.782"/>
	<circle style="fill:#7DF4BC;" cx="97.78" cy="239.28" r="7.782"/>
	<circle style="fill:#7DF4BC;" cx="97.78" cy="268.06" r="7.782"/>
	<circle style="fill:#7DF4BC;" cx="97.78" cy="296.83" r="7.782"/>
	<circle style="fill:#7DF4BC;" cx="97.78" cy="325.61" r="7.782"/>
	<circle style="fill:#7DF4BC;" cx="97.78" cy="354.38" r="7.782"/>
</g>
<g>
</g>
<g>
</g>
<g>
</g>
<g>
</g>
<g>
</g>
<g>
</g>
<g>
</g>
<g>
</g>
<g>
</g>
<g>
</g>
<g>
</g>
<g>
</g>
<g>
</g>
<g>
</g>
<g>
</g>
</svg>
