<?xml version="1.0" encoding="iso-8859-1"?>
<!-- Generator: Adobe Illustrator 19.0.0, SVG Export Plug-In . SVG Version: 6.00 Build 0)  -->
<svg xmlns="http://www.w3.org/2000/svg" xmlns:xlink="http://www.w3.org/1999/xlink" version="1.1" id="Layer_1" x="0px" y="0px" viewBox="0 0 512 512" style="enable-background:new 0 0 512 512;" xml:space="preserve">
<ellipse style="fill:#F37569;" cx="256" cy="180.82" rx="180.8" ry="180.82"/>
<path style="fill:#D3655C;" d="M357.078,30.875c25.121,31.053,40.177,70.585,40.177,113.64c0,99.863-80.946,180.818-180.798,180.818  c-37.441,0-72.224-11.382-101.078-30.876c33.145,40.973,83.819,67.178,140.621,67.178c99.852,0,180.798-80.955,180.798-180.818  C436.798,118.4,405.175,63.369,357.078,30.875z"/>
<g>
	<path style="fill:#BA5852;" d="M379.375,144.617c-18.562-9.507-53.083-27.192-109.557-23.799   c-16.878-0.065-32.149-7.045-43.142-18.241c47.533-28.803,102.826-45.227,160.907-45.751c-5.344-5.67-11.047-10.996-17.078-15.938   c-55.459,3.323-108.046,20.405-153.739,48.392c-4.799-8.696-7.539-18.68-7.539-29.295c0-30.02,21.863-55.014,50.5-59.938   C258.486,0.022,257.246,0,256,0c-13.612,0-26.869,1.515-39.621,4.367c-14.58,14.077-23.674,33.799-23.674,55.618   c0,13.916,3.712,26.973,10.17,38.267c-14.352,9.799-27.928,20.723-40.603,32.658c-14.473-23.321-27.345-47.77-38.608-73.275   c-4.165,4.473-8.107,9.155-11.805,14.034c11.306,24.724,24.103,48.462,38.382,71.153c-7.809,8.141-15.215,16.698-22.19,25.639   c-0.215-0.315-0.418-0.638-0.638-0.949c-2.636-3.724-7.792-4.606-11.515-1.971c-3.724,2.636-4.606,7.791-1.971,11.515   c1.294,1.829,2.476,3.741,3.561,5.703c-12.505,17.933-23.302,37.258-32.186,57.755c2.59,7.407,5.645,14.594,9.136,21.526   c7.919-21.17,17.932-41.151,29.819-59.69c0.412,2.557,0.68,5.148,0.767,7.773c-1.749,56.548,16.932,90.541,26.975,108.818   c3.008,5.475,6.785,11.202,11.261,17.114c7.182,4.301,14.682,8.125,22.465,11.412c2.348-3.065,2.288-7.459-0.359-10.47   c-8.131-9.249-14.485-18-18.887-26.01c-12.871-23.425-26.474-52.447-24.934-100.597c0.005-0.168,0.006-0.337,0.001-0.505   c-0.255-8.736-1.955-17.209-5.027-25.266c7.155-9.638,14.831-18.827,22.982-27.536c32.961,49.219,73.071,93.305,119.984,131.745   c1.536,1.26,3.389,1.872,5.231,1.872c2.39,0,4.762-1.033,6.394-3.025c2.892-3.529,2.375-8.734-1.154-11.626   c-46.532-38.127-86.195-81.955-118.61-130.969c12.791-12.284,26.576-23.467,41.205-33.426c14.171,15.758,34.7,25.688,57.511,25.688   c0.168,0,0.336-0.005,0.504-0.016c48.09-2.936,77.491,9.813,101.279,21.997c25.564,13.094,51.741,41.356,62.16,53.329   c1.27-7.151,2.115-14.449,2.518-21.865C422.751,176.187,401.268,155.83,379.375,144.617z"/>
	<path style="fill:#BA5852;" d="M83.927,154.577c4.315,1.477,9.014-0.823,10.491-5.14c1.478-4.316-0.823-9.013-5.14-10.491   c-2.821-0.966-5.698-1.755-8.611-2.387c-1.335,5.305-2.438,10.702-3.292,16.182C79.592,153.23,81.78,153.842,83.927,154.577z"/>
</g>
<path style="fill:#FFDFAC;" d="M173.595,512V369.411c0-32.467,20.55-61.377,51.213-72.048l87.4-30.415  c11.742-4.086,24.574,2.111,28.674,13.848l0,0c3.938,11.272-1.602,23.658-12.629,28.237l-59.398,24.605l102.822-42.251  l37.227-65.848c4.005-7.085,13.334-9.021,19.828-4.115l0,0c8.815,6.66,9.178,15.094,6.838,28.559l-33.625,73.153  c-11.171,22.907-33.725,36.19-57.085,46.381l-71.829,33.832c-6.245,2.941-10.23,9.224-10.23,16.127V512"/>
<path style="fill:#FBCE7D;" d="M428.732,221.425c-3.245-2.451-7.197-3.194-10.84-2.44c0.494,4.239-0.012,9.169-1.037,15.063  l-33.625,73.153c-11.171,22.907-33.725,36.19-57.085,46.381l-71.829,33.833c-6.245,2.941-10.23,9.224-10.23,16.127v92.522  L244.134,512h18.667v-92.522c0-6.903,3.986-13.186,10.23-16.127l71.829-33.832c23.36-10.191,45.913-23.474,57.085-46.381  l33.625-73.153C437.91,236.519,437.547,228.085,428.732,221.425z"/>
<rect x="173.59" y="445.78" style="fill:#4E6284;" width="89.21" height="30.14"/>
<path style="fill:#213244;" d="M220.489,460.855c0,5.236,0.539,10.29,1.527,15.07h40.786v-30.141h-40.786  C221.028,450.565,220.489,455.619,220.489,460.855z"/>
<ellipse style="fill:#4E6284;" cx="257.86" cy="460.86" rx="21.999" ry="31.353"/>
<path style="fill:#FBCE7D;" d="M328.253,309.033c11.027-4.579,16.566-16.966,12.629-28.237l0,0c-0.084-0.24-0.177-0.474-0.268-0.709  l-54.332,23.047c-12.007,5.093-19.138,17.575-17.428,30.505l0,0L328.253,309.033z"/>
<g>
</g>
<g>
</g>
<g>
</g>
<g>
</g>
<g>
</g>
<g>
</g>
<g>
</g>
<g>
</g>
<g>
</g>
<g>
</g>
<g>
</g>
<g>
</g>
<g>
</g>
<g>
</g>
<g>
</g>
</svg>
