<?xml version="1.0" encoding="iso-8859-1"?>
<!-- Generator: Adobe Illustrator 19.0.0, SVG Export Plug-In . SVG Version: 6.00 Build 0)  -->
<svg xmlns="http://www.w3.org/2000/svg" xmlns:xlink="http://www.w3.org/1999/xlink" version="1.1" id="Layer_1" x="0px" y="0px" viewBox="0 0 512.001 512.001" style="enable-background:new 0 0 512.001 512.001;" xml:space="preserve">
<path style="fill:#4E6284;" d="M40.617,310.469c-0.427,0-0.86-0.035-1.295-0.107c-9.728-1.611-18.566-6.158-25.559-13.15  c-18.35-18.351-18.35-48.211-0.001-66.561c15.46-15.46,39.257-18.282,57.872-6.861c3.704,2.273,4.865,7.119,2.592,10.823  c-2.273,3.705-7.119,4.867-10.824,2.593c-12.384-7.597-28.219-5.718-38.51,4.574c-12.213,12.214-12.213,32.087,0.001,44.302  c4.654,4.653,10.533,7.679,16.999,8.75c4.288,0.71,7.189,4.762,6.479,9.051C47.733,307.736,44.397,310.469,40.617,310.469z"/>
<path style="fill:#0098FF;" d="M501.404,190.566H154.376c-61.65,0-112.77,49.08-113.754,110.722  c-1.007,63.116,49.943,114.576,112.869,114.4c60.851-0.17,110.987-49.396,112.216-110.235c0.01-0.514,0.017-1.027,0.021-1.539  c0.254-37.159,30.51-67.118,67.67-67.118l162.761-9.658c4.609,0,8.688-2.981,10.088-7.372l5.247-15.395  C513.67,197.541,508.573,190.566,501.404,190.566z"/>
<path style="fill:#0073D1;" d="M501.404,190.566h-19.508c-1.637,3.904-5.468,6.492-9.761,6.492l-133.27,9.658  c-62.561,0-96.906,38.869-97.16,76.028c-0.004,0.512-0.01,0.711-0.021,1.225c-1.229,60.839-51.364,101.469-112.216,101.639  c-28.786,0.081-55.061-10.649-75.007-28.353c19.186,34.914,56.35,58.553,99.03,58.434c60.851-0.17,110.987-49.396,112.216-110.235  c0.01-0.514,0.017-1.027,0.021-1.539c0.254-37.159,30.51-67.118,67.669-67.118l162.761-9.658c4.609,0,8.688-2.981,10.088-7.372  l5.247-15.395C513.67,197.541,508.573,190.566,501.404,190.566z"/>
<circle style="fill:#FCD872;" cx="150.74" cy="303.13" r="52.26"/>
<path style="fill:#FAC231;" d="M169.243,254.249c6.536,8.725,10.409,19.561,10.409,31.302c0,28.863-23.398,52.261-52.261,52.261  c-6.517,0-12.751-1.203-18.504-3.382c9.532,12.724,24.73,20.959,41.852,20.959c28.863,0,52.261-23.398,52.261-52.261  C203,280.782,188.971,261.721,169.243,254.249z"/>
<polygon style="fill:#0073D1;" points="271.406,215.761 239.688,215.761 228.146,190.566 259.276,190.566 "/>
<g>
	<path style="fill:#C1E2FF;" d="M237.94,148.62c-4.346,0-7.87-3.524-7.87-7.87v-36.569c0-4.346,3.524-7.87,7.87-7.87   s7.87,3.524,7.87,7.87v36.569C245.81,145.097,242.286,148.62,237.94,148.62z"/>
	<path style="fill:#C1E2FF;" d="M261.633,164.26c-2.014,0-4.028-0.769-5.565-2.305c-3.074-3.073-3.074-8.057,0-11.13l25.858-25.858   c3.073-3.073,8.057-3.073,11.13,0c3.074,3.073,3.074,8.057,0,11.13l-25.858,25.858C265.662,163.492,263.648,164.26,261.633,164.26z   "/>
	<path style="fill:#C1E2FF;" d="M210.994,164.26c-2.014,0-4.028-0.768-5.565-2.305l-25.858-25.858c-3.074-3.073-3.074-8.057,0-11.13   c3.073-3.074,8.057-3.074,11.13,0l25.858,25.858c3.074,3.073,3.074,8.057,0,11.13C215.022,163.492,213.008,164.26,210.994,164.26z"/>
</g>
<g>
</g>
<g>
</g>
<g>
</g>
<g>
</g>
<g>
</g>
<g>
</g>
<g>
</g>
<g>
</g>
<g>
</g>
<g>
</g>
<g>
</g>
<g>
</g>
<g>
</g>
<g>
</g>
<g>
</g>
</svg>
