<?xml version="1.0" encoding="iso-8859-1"?>
<!-- Generator: Adobe Illustrator 19.0.0, SVG Export Plug-In . SVG Version: 6.00 Build 0)  -->
<svg xmlns="http://www.w3.org/2000/svg" xmlns:xlink="http://www.w3.org/1999/xlink" version="1.1" id="Layer_1" x="0px" y="0px" viewBox="0 0 512 512" style="enable-background:new 0 0 512 512;" xml:space="preserve">
<path style="fill:#E9F7FF;" d="M441.237,49.936L335.578,0.345l8.603,33.92l-16.15,13.064c-4.396,4.866-14.703,14.18-20.479,19.018  c-16.596,13.902-43.052,20.874-54.3,25.118c-11.349-5.343-34.403-11.374-49.862-25.118c-4.78-4.25-12.382-14.442-16.242-18.665  l-23.919-13.417L172.779,0L69.807,49.652C38.063,64.998,17.895,97.15,17.895,132.41v118.427c0,6.443,5.223,11.666,11.666,11.666  h73.428V512h303.393V262.495l0.002,0.007h76.055c6.443,0,11.666-5.223,11.666-11.666V133.148  C494.103,97.507,473.501,65.079,441.237,49.936z"/>
<g>
	<path style="fill:#4E6284;" d="M433.958,262.503V151.005c0-19.197-10.677-36.729-27.573-45.579l0.003-37.617l12.383,5.812   c27.046,12.694,44.317,39.879,44.317,69.756v119.126H433.958z"/>
	<path style="fill:#4E6284;" d="M74.152,262.503V151.005c0-19.197,10.677-36.729,27.573-45.579l-0.003-37.617l-12.383,5.812   C62.293,86.315,45.022,113.5,45.022,143.377v119.126H74.152z"/>
	<polygon style="fill:#4E6284;" points="136.947,17.278 136.947,512 183.79,512 183.79,45.8 163.229,34.265 172.779,0  "/>
	<path style="fill:#4E6284;" d="M230.633,82.384V512h46.843V82.889c-9.745,3.818-18.774,6.52-24.226,8.578   C247.737,88.871,239.459,86.11,230.633,82.384z"/>
	<path style="fill:#4E6284;" d="M324.32,512h46.843V17.047L335.578,0.345l8.603,33.92l-16.15,13.064   c-0.979,1.083-2.261,2.394-3.71,3.82V512H324.32z"/>
</g>
<path style="fill:#C1E2FF;" d="M87.938,200.992v61.511h13.786V34.262l-31.917,15.39C38.495,64.79,18.46,96.28,17.92,130.974l0,0  C56.59,130.974,87.938,162.322,87.938,200.992z"/>
<path style="fill:#213244;" d="M101.725,103.676l-0.003-35.867l-12.383,5.812C64.37,85.34,47.744,109.413,45.336,136.549  c11.515,4.905,21.445,12.806,28.816,22.724v-8.268c0-19.197,10.677-36.729,27.573-45.579V103.676z"/>
<path style="fill:#C1E2FF;" d="M494.069,131.251c-0.717-34.89-21.142-66.442-52.832-81.315l-34.85-16.357v228.923h13.784v-57.354  C420.172,164.336,453.257,131.251,494.069,131.251L494.069,131.251z"/>
<path style="fill:#213244;" d="M406.389,105.427c16.895,8.851,27.57,26.382,27.57,45.578v11.188  c7.382-10.311,17.342-18.642,28.948-24.05c-1.885-27.786-18.677-52.574-44.135-64.523l-12.383-5.812l-0.001,3.583v34.036H406.389z"/>
<path style="fill:#97CEFF;" d="M335.578,0.345l-3.17,5.113c-6.095,11.067-17.13,27.877-35.741,43.467  c-16.596,13.902-32.944,21.579-44.192,25.823c-11.349-5.343-26.553-13.978-42.012-27.722c-16.77-14.91-27.63-30.312-34.328-41.568  L172.779,0l-0.543,0.134l-34.303,16.583l6.216,8.182c9.985,16.78,19.816,29.589,44.815,51.815  c23.044,20.489,48.976,33.361,65.895,41.326c16.767-6.327,37.872-17.772,62.611-38.495c27.743-23.24,39.013-38.531,48.099-55.029  l4.758-7.861L335.578,0.345z"/>
<g>
</g>
<g>
</g>
<g>
</g>
<g>
</g>
<g>
</g>
<g>
</g>
<g>
</g>
<g>
</g>
<g>
</g>
<g>
</g>
<g>
</g>
<g>
</g>
<g>
</g>
<g>
</g>
<g>
</g>
</svg>
