<?xml version="1.0" encoding="iso-8859-1"?>
<!-- Generator: Adobe Illustrator 19.0.0, SVG Export Plug-In . SVG Version: 6.00 Build 0)  -->
<svg xmlns="http://www.w3.org/2000/svg" xmlns:xlink="http://www.w3.org/1999/xlink" version="1.1" id="Layer_1" x="0px" y="0px" viewBox="0 0 511.999 511.999" style="enable-background:new 0 0 511.999 511.999;" xml:space="preserve">
<path style="fill:#4E6284;" d="M307.85,0H205.465c-45.559,0-82.492,36.933-82.492,82.492v74.624h267.369V82.492  C390.342,36.933,353.41,0,307.85,0z"/>
<path style="fill:#213244;" d="M307.85,0h-76.873c45.559,0,82.492,36.933,82.492,82.492v74.624h76.873V82.492  C390.342,36.933,353.41,0,307.85,0z"/>
<path style="fill:#F7B89C;" d="M414.063,361.925l-56.29-17.397c-28.689-7.158-48.82-32.929-48.82-62.498v-44.173H200.896v45.038  c0,29.568-20.131,55.339-48.82,62.497l-52.479,17.757c-32.699,8.159-53.474,31.608-53.474,65.31l-1.049,65.36  c0,9.824,6.952,15.072,16.776,15.072l389.234-0.786c9.824,0,14.441-4.855,14.441-14.679l-0.087-61.6  C465.44,398.124,446.762,370.083,414.063,361.925z"/>
<path style="fill:#E89F8E;" d="M331.906,337.285c-3.399-8.829,3.478-1.935-4.662-10.288c-11.426-11.727-18.291-27.699-18.291-44.967  v-44.173H200.896v25.583h82.473v44.173c0,19.213,8.5,36.823,22.324,48.764c7.451,6.436,11.601,2.083,13.13-1.827L331.906,337.285z"/>
<path style="fill:#E9F7FF;" d="M413.706,359.162l-57.25-14.284c-14.3-3.568-58.32,62.978-102.433,63.182  c-44.39,0.206-86.96-66.419-101.349-62.829l-55.698,13.93c-32.699,8.159-55.644,37.532-55.644,71.233v63.817  c0,9.824,7.964,17.788,17.788,17.788h392.443c9.824,0,17.788-7.964,17.788-17.788v-63.817  C469.35,396.694,446.404,367.321,413.706,359.162z"/>
<path style="fill:#C1E2FF;" d="M415.023,358.811l-57.25-14.284c-6.144-1.533-17.778,9.88-32.545,23.411  c2.259,0.843,4.578,1.578,6.962,2.173l57.25,14.284c32.699,8.159,55.644,37.532,55.644,71.233v56.021h7.795  c9.824,0,17.788-7.964,17.788-17.788v-63.817C470.668,396.343,447.723,366.97,415.023,358.811z"/>
<path style="fill:#F7B89C;" d="M376.177,135.584h-14.883v-27.75c0-57.789-46.847-16.249-104.636-16.249l0,0  c-57.789,0-104.636-41.54-104.636,16.249v27.75h-14.883c-7.823,0-14.166,6.342-14.166,14.166v32.482  c0,7.823,6.342,14.166,14.166,14.166h14.883v-1.071c0,57.789,46.847,104.636,104.636,104.636l0,0  c57.789,0,104.636-46.847,104.636-104.636v1.071h14.883c7.823,0,14.166-6.342,14.166-14.166V149.75  C390.342,141.927,384,135.584,376.177,135.584z"/>
<g>
	<path style="fill:#E89F8E;" d="M217.293,91.585L217.293,91.585c6.729,0,13.307-0.568,19.682-1.472   c-35.434-5.024-64.534-20.566-77.57-8.467C175.984,85.886,195.886,91.585,217.293,91.585z"/>
	<path style="fill:#E89F8E;" d="M314.546,81.646c4.763,4.42,7.384,12.525,7.384,26.188v87.493c0,51.06-36.576,93.571-84.954,102.78   c6.376,1.214,12.953,1.857,19.682,1.857l0,0c57.789,0,104.636-46.847,104.636-104.636v-87.493   C361.294,71.452,342.723,74.441,314.546,81.646z"/>
	<path style="fill:#E89F8E;" d="M376.177,196.398h-14.883v-60.813h14.883c7.824,0,14.166,6.342,14.166,14.166v32.482   C390.342,190.056,384,196.398,376.177,196.398z"/>
</g>
<g>
	<path style="fill:#4E6284;" d="M84.165,363.923V511.65h34.733V353.67l-20.607,5.142C93.342,360.046,88.621,361.774,84.165,363.923z   "/>
	<path style="fill:#4E6284;" d="M153.633,511.649h34.734V371.682c-15.338-13.632-24.461-28.98-35.128-26.715L153.633,511.649z"/>
	<path style="fill:#4E6284;" d="M223.101,397.891v113.758h34.734V407.621c-0.832,0.05-1.663,0.085-2.495,0.089   C244.45,407.76,233.556,403.814,223.101,397.891z"/>
	<path style="fill:#4E6284;" d="M292.57,511.649h34.734V366.033c-10.231,9.411-22.085,20.132-34.734,28.347V511.649z"/>
	<polygon style="fill:#4E6284;" points="362.038,511.649 396.772,511.649 396.772,354.258 362.038,345.591  "/>
	<path style="fill:#4E6284;" d="M431.505,365.116v146.533h21.374c9.824,0,17.788-7.964,17.788-17.788v-63.817   C470.668,402.354,455.169,377.596,431.505,365.116z"/>
</g>
<g>
	<path style="fill:#213244;" d="M362.038,377.558l27.403,6.837c2.506,0.625,4.946,1.389,7.331,2.256v-32.394l-4.541-1.133   l-30.193-7.533L362.038,377.558L362.038,377.558z"/>
	<path style="fill:#213244;" d="M431.505,365.116v47.985c8.606,12.106,13.579,26.846,13.579,42.527v56.021h7.795   c9.824,0,17.788-7.964,17.788-17.788v-63.817C470.668,402.354,455.169,377.596,431.505,365.116z"/>
</g>
<path style="fill:#C1E2FF;" d="M153.985,344.872l0.005,0.009c9.19,15.443,18.238,27.232,41.245,47.687  c21.209,18.857,45.075,30.704,60.646,38.034c15.432-5.823,34.855-16.356,57.624-35.429c25.534-21.389,35.905-35.462,44.267-50.646  l0,0c-11.935-2.978-22.381-9.185-30.521-17.539l0,0c-5.609,10.186-15.766,25.657-32.894,40.005  c-15.274,12.794-30.319,19.86-40.671,23.766c-10.445-4.917-24.438-12.864-38.666-25.514c-15.434-13.722-25.429-27.898-31.594-38.257  C175.603,335.322,165.528,341.616,153.985,344.872z"/>
<path style="fill:#97CEFF;" d="M357.772,344.527c-11.935-2.978-22.381-9.185-30.521-17.539l0,0  c-4.239,7.697-11.08,18.412-21.557,29.379c7.452,6.439,16.445,11.236,26.495,13.744l6.246,1.558  c8.959-9.824,14.86-18.484,19.682-27.056L357.772,344.527z"/>
<g>
	<path style="fill:#88543F;" d="M253.686,204.589c-4.344,0-7.864-3.521-7.864-7.864v-24.397c0-2.961-1.986-5.463-4.338-5.463   h-33.337c-4.344,0-7.864-3.521-7.864-7.864s3.52-7.864,7.864-7.864h33.337c11.065,0,20.066,9.506,20.066,21.19v24.397   C261.551,201.068,258.03,204.589,253.686,204.589z"/>
	<path style="fill:#88543F;" d="M308.559,166.538h-22.507c-4.344,0-7.864-3.521-7.864-7.864s3.52-7.864,7.864-7.864h22.507   c4.344,0,7.864,3.521,7.864,7.864S312.902,166.538,308.559,166.538z"/>
</g>
<g>
	<circle style="fill:#213244;" cx="219.398" cy="184.08" r="7.864"/>
	<circle style="fill:#213244;" cx="297.309" cy="183.75" r="7.864"/>
</g>
<path style="fill:#FF7694;" d="M254.374,259.983L254.374,259.983c-15.297,0-27.698-12.401-27.698-27.698v-1.753  c0-2.439,1.977-4.415,4.415-4.415h46.565c2.439,0,4.415,1.977,4.415,4.415v1.753C282.073,247.582,269.673,259.983,254.374,259.983z"/>
<path style="fill:#FF5050;" d="M246.86,236.976L246.86,236.976c-6.789,0-13.004,2.446-17.822,6.501  c4.301,9.72,14.023,16.506,25.336,16.506c6.789,0,13.004-2.446,17.822-6.501C267.897,243.762,258.173,236.976,246.86,236.976z"/>
<g>
</g>
<g>
</g>
<g>
</g>
<g>
</g>
<g>
</g>
<g>
</g>
<g>
</g>
<g>
</g>
<g>
</g>
<g>
</g>
<g>
</g>
<g>
</g>
<g>
</g>
<g>
</g>
<g>
</g>
</svg>
