<?xml version="1.0" encoding="iso-8859-1"?>
<!-- Generator: Adobe Illustrator 19.0.0, SVG Export Plug-In . SVG Version: 6.00 Build 0)  -->
<svg xmlns="http://www.w3.org/2000/svg" xmlns:xlink="http://www.w3.org/1999/xlink" version="1.1" id="Layer_1" x="0px" y="0px" viewBox="0 0 512.001 512.001" style="enable-background:new 0 0 512.001 512.001;" xml:space="preserve">
<path style="fill:#0098FF;" d="M512,314.335c0-16.758-13.585-28.91-30.344-28.91H460.59c-37.749,0-74.81-10.1-107.339-29.253  l-56.657-33.359c-29.216-17.202-53.127-42.12-69.111-72.019l-13.686-25.601c-4.373-8.18-14.297-11.628-22.8-7.921l-17.307,7.545  c-6.487,2.828-10.682,9.232-10.682,16.309v13.397c0,8.363-4.942,15.937-12.597,19.305l0,0c-24.313,10.698-52.7,5.372-71.482-13.41  l0,0c-2.644-2.644-6.229-4.129-9.967-4.129l0,0c-7.785,0-14.096,6.311-14.096,14.096v11.391c0,11.582-4.601,22.689-12.79,30.878l0,0  c-8.189,8.189-12.79,19.297-12.79,30.878v60.064L84.24,358.55h385.028L512,315.768V314.335z"/>
<path style="fill:#E9F7FF;" d="M182.147,201.954l-17.402,10.688c-30.624,18.807-67.816,23.659-102.239,13.337l-25.253-7.572  c-5.143,7.308-7.967,16.068-7.967,25.125v29.191H46.75c17.051,0,30.873,13.822,30.873,30.873l0,0v45.339h-2.999l9.615,9.615h14.564  l25.747-5.204l25.862-19.922l45.341-120.232C198.889,204.876,189.72,197.303,182.147,201.954z"/>
<path style="fill:#0073D1;" d="M469.267,364.371L512,321.59v-1.433c0-4.706-1.072-9.049-2.984-12.861  c-20.057,11.984-43.025,18.368-66.499,18.368H188.338c-19.169,0-37.552-7.615-51.107-21.169l-4.194-4.195  c-10.116-10.116-23.836-15.799-38.143-15.799H29.285v24.916l54.954,54.954H469.267z"/>
<path style="fill:#97CEFF;" d="M75.926,348.935l9.615,9.615h14.564l25.747-5.204l25.862-19.922l5.78-15.325  c-6.949-3.452-13.37-8.013-18.96-13.603l-4.194-4.195c-10.116-10.116-23.836-15.799-38.143-15.799H72.303  c4.144,5.255,6.623,11.883,6.623,19.095v45.339L75.926,348.935L75.926,348.935z"/>
<path style="fill:#C1E2FF;" d="M512,315.768l-7.608,5.281c-21.032,14.598-46.022,22.421-71.623,22.421H186.545  c-18.569,0-36.377-7.376-49.507-20.507l-4.063-4.063c-9.799-9.799-23.09-15.305-36.949-15.305h-66.74L0,348.935l0,0  c0,26.112,21.168,47.279,47.279,47.279h384.275C475.983,396.214,512,360.197,512,315.768"/>
<path style="fill:#97CEFF;" d="M499.941,323.99c-14.189,22.858-39.504,38.088-68.387,38.088H47.28  c-17.349,0-32.506-9.35-40.732-23.28L0,348.935c0,26.112,21.168,47.279,47.28,47.279h384.275c44.429,0,80.446-36.017,80.446-80.446  l-7.608,5.281C502.928,322.065,501.442,323.04,499.941,323.99z"/>
<path style="fill:#0073D1;" d="M163.008,141.126v13.397c0,8.363-4.942,15.936-12.597,19.305l1.996-0.359  c18.892-3.395,38.313,1.821,52.962,14.224c13.656,18.003,41.995,50.148,88.893,71.623c43.958,20.129,85.875,22.482,116.357,20.107  c-20.071-4.879-39.412-12.678-57.369-23.25l-56.657-33.359c-29.216-17.202-53.128-42.12-69.111-72.019l-13.686-25.601  c-4.373-8.18-14.297-11.628-22.8-7.921l-17.307,7.545C167.203,127.644,163.008,134.049,163.008,141.126z"/>
<g>
	<path style="fill:#0068AF;" d="M224.044,233.735c-1.772,0-3.553-0.589-5.03-1.8c-3.39-2.78-3.885-7.782-1.105-11.172l28.932-35.283   c2.782-3.391,7.782-3.886,11.173-1.105c3.391,2.78,3.885,7.782,1.105,11.172l-28.932,35.283   C228.617,232.744,226.34,233.735,224.044,233.735z"/>
	<path style="fill:#0068AF;" d="M264.978,260.905c-0.829,0-1.671-0.131-2.502-0.406c-4.162-1.381-6.415-5.874-5.034-10.035   l13.935-41.987c1.382-4.162,5.873-6.415,10.035-5.034c4.162,1.381,6.415,5.874,5.034,10.035l-13.935,41.987   C271.406,258.796,268.306,260.905,264.978,260.905z"/>
	<path style="fill:#0068AF;" d="M304.149,277.839c-0.167,0-0.335-0.006-0.504-0.016c-4.377-0.275-7.701-4.045-7.426-8.421   l2.583-41.122c0.276-4.375,4.045-7.691,8.42-7.425c4.377,0.275,7.701,4.045,7.426,8.421l-2.583,41.122   C311.8,274.604,308.306,277.839,304.149,277.839z"/>
	<path style="fill:#0068AF;" d="M341.182,287.718c-4.162,0-7.657-3.24-7.916-7.449l-1.765-28.579   c-0.271-4.376,3.058-8.143,7.434-8.413c4.384-0.27,8.142,3.059,8.412,7.434l1.765,28.579c0.271,4.376-3.058,8.143-7.434,8.413   C341.512,287.714,341.346,287.718,341.182,287.718z"/>
	<path style="fill:#0068AF;" d="M381.761,293.716c-4.305,0-7.841-3.443-7.934-7.768l-0.338-15.723   c-0.094-4.383,3.382-8.013,7.766-8.107c4.361-0.117,8.013,3.383,8.107,7.766l0.338,15.723c0.094,4.383-3.382,8.013-7.766,8.107   C381.877,293.716,381.819,293.716,381.761,293.716z"/>
	<circle style="fill:#0068AF;" cx="101.73" cy="341.36" r="7.939"/>
	<circle style="fill:#0068AF;" cx="72.25" cy="341.36" r="7.939"/>
	<circle style="fill:#0068AF;" cx="41.546" cy="341.36" r="7.939"/>
</g>
<g>
</g>
<g>
</g>
<g>
</g>
<g>
</g>
<g>
</g>
<g>
</g>
<g>
</g>
<g>
</g>
<g>
</g>
<g>
</g>
<g>
</g>
<g>
</g>
<g>
</g>
<g>
</g>
<g>
</g>
</svg>
