<?xml version="1.0" encoding="iso-8859-1"?>
<!-- Generator: Adobe Illustrator 19.0.0, SVG Export Plug-In . SVG Version: 6.00 Build 0)  -->
<svg xmlns="http://www.w3.org/2000/svg" xmlns:xlink="http://www.w3.org/1999/xlink" version="1.1" id="Layer_1" x="0px" y="0px" viewBox="0 0 511.999 511.999" style="enable-background:new 0 0 511.999 511.999;" xml:space="preserve">
<path style="fill:#FCD872;" d="M481.158,74.047l30.804,416.044c0.565,7.632-5.475,14.135-13.128,14.135h-197.97  c-6.756,0-12.415-5.114-13.096-11.836L268.35,300.871c-2.454-9.888-16.563-9.732-18.798,0.207l-17.54,191.187  c-0.622,6.776-6.304,11.961-13.108,11.961H13.248c-7.715,0-13.776-6.604-13.115-14.29L35.867,74.047l1.014-0.601l442.224-0.647  L481.158,74.047z"/>
<g>
	<polygon style="fill:#FAC231;" points="504.977,456.958 509.067,450.984 481.158,74.047 402.961,74.047 430.87,450.99    436.865,456.803  "/>
	<path style="fill:#FAC231;" d="M232.167,457.475l3.547-6.485l13.753-149.912c1.157-5.142,5.489-7.642,9.743-7.511l0.001-0.018   c-13.495-4.412-23.414,20.254-29.941,34.322l-56.559,123.087l3.806,6.374L232.167,457.475z"/>
</g>
<g>
	<path style="fill:#0098FF;" d="M467.01,7.772H50.015c-7.813,0-14.148,6.334-14.148,14.148v52.128h445.291V21.919   C481.158,14.106,474.824,7.772,467.01,7.772z"/>
	<path style="fill:#0098FF;" d="M13.163,504.226h205.656c6.804,0,12.487-5.185,13.108-11.961l3.787-41.275H3.479H3.395   l-3.346,38.946C-0.612,497.622,5.449,504.226,13.163,504.226z"/>
</g>
<path style="fill:#0073D1;" d="M172.781,450.99l-18.966,41.275c-0.622,6.776-6.305,11.961-13.108,11.961h78.197  c0.339,0,0.674-0.023,1.008-0.048c0.292-0.026,0.582-0.059,0.87-0.1c2.91-0.418,5.524-1.791,7.504-3.8  c0.055-0.056,0.112-0.109,0.165-0.165c0.177-0.186,0.345-0.382,0.511-0.578c0.082-0.098,0.166-0.195,0.246-0.295  c0.142-0.179,0.278-0.363,0.411-0.55c0.092-0.129,0.184-0.259,0.271-0.392c0.115-0.175,0.226-0.353,0.333-0.533  c0.092-0.155,0.18-0.313,0.266-0.472c0.093-0.172,0.183-0.345,0.268-0.521c0.087-0.18,0.167-0.363,0.245-0.547  c0.072-0.168,0.144-0.335,0.208-0.505c0.078-0.207,0.147-0.418,0.215-0.63c0.051-0.158,0.105-0.315,0.15-0.475  c0.069-0.248,0.125-0.501,0.179-0.755c0.029-0.133,0.065-0.263,0.09-0.398c0.072-0.393,0.13-0.791,0.167-1.195l3.787-41.275h-63.017  V450.99z"/>
<path style="fill:#0098FF;" d="M508.983,450.99H283.571l-0.066,0.181l4.179,41.22c0.682,6.721,6.34,11.836,13.096,11.836h197.97  c7.653,0,13.693-6.504,13.128-14.135L508.983,450.99z"/>
<g>
	<path style="fill:#0073D1;" d="M467.01,7.772h-78.197c7.813,0,14.147,6.334,14.147,14.148v52.128h78.197V21.919   C481.158,14.106,474.824,7.772,467.01,7.772z"/>
	<path style="fill:#0073D1;" d="M511.962,490.091l-2.895-39.101H430.87l2.895,39.101c0.565,7.632-5.474,14.135-13.126,14.135h78.196   C506.488,504.226,512.528,497.723,511.962,490.091z"/>
</g>
<path style="fill:#0098FF;" d="M399.113,410.613H372.01c-13.64,0-24.079-3.758-31.322-11.282  c-7.247-7.52-10.866-18.611-10.866-33.276v-13.139c0-17.517,5.625-29.036,16.875-34.561c-11.25-5.141-16.875-16.754-16.875-34.847  v-12.282c0-14.661,3.619-25.707,10.866-33.133c7.243-7.427,17.683-11.139,31.322-11.139h27.103c13.463,0,23.819,3.713,31.066,11.139  c7.243,7.427,10.867,18.472,10.867,33.133v12.282c0,8.953-1.534,16.567-4.602,22.851c-3.068,6.284-7.075,10.282-12.017,11.996  c11.078,4.954,16.62,16.567,16.62,34.847v12.853c0,14.666-3.624,25.756-10.867,33.276  C422.931,406.856,412.576,410.613,399.113,410.613z M378.448,375.195h14.225c4.462,0,7.6-1.011,9.414-3.038  c1.811-2.023,2.719-5.452,2.719-10.283v-10.75c0-4.984-0.909-8.647-2.719-10.984c-1.814-2.337-4.952-3.506-9.414-3.506h-14.225  c-4.465,0-7.603,1.169-9.414,3.506c-1.814,2.337-2.72,6-2.72,10.984v10.75c0,4.831,0.906,8.259,2.72,10.283  C370.845,374.184,373.983,375.195,378.448,375.195z M378.32,297.244h14.225c4.462,0,7.6-1.011,9.414-3.038  c1.811-2.023,2.719-5.452,2.719-10.283v-10.75c0-4.984-0.909-8.647-2.719-10.984c-1.814-2.337-4.952-3.506-9.414-3.506H378.32  c-4.465,0-7.603,1.169-9.414,3.506c-1.814,2.337-2.72,6-2.72,10.984v10.75c0,4.831,0.906,8.259,2.72,10.283  C370.718,296.233,373.856,297.244,378.32,297.244z"/>
<g>
</g>
<g>
</g>
<g>
</g>
<g>
</g>
<g>
</g>
<g>
</g>
<g>
</g>
<g>
</g>
<g>
</g>
<g>
</g>
<g>
</g>
<g>
</g>
<g>
</g>
<g>
</g>
<g>
</g>
</svg>
