<?xml version="1.0" encoding="iso-8859-1"?>
<!-- Generator: Adobe Illustrator 19.0.0, SVG Export Plug-In . SVG Version: 6.00 Build 0)  -->
<svg xmlns="http://www.w3.org/2000/svg" xmlns:xlink="http://www.w3.org/1999/xlink" version="1.1" id="Layer_1" x="0px" y="0px" viewBox="0 0 512.001 512.001" style="enable-background:new 0 0 512.001 512.001;" xml:space="preserve">
<path style="fill:#C1E2FF;" d="M335.956,58.716V41.629h-53.833v17.087c0,15.975-6.34,31.047-17.164,40.8L248.106,114.7  c-13.744,12.384-21.795,31.521-21.795,51.806v318.736c0,14.778,10.249,26.759,22.891,26.759h119.672  c12.642,0,22.891-11.98,22.891-26.759V166.506c0-20.285-8.051-39.422-21.795-51.806l-16.85-15.184  C342.296,89.763,335.956,74.692,335.956,58.716z"/>
<path style="fill:#97CEFF;" d="M369.972,114.7L353.12,99.516c-10.824-9.753-17.164-24.824-17.164-40.8V41.629h-31.902v17.087  c0,15.975,6.341,31.047,17.164,40.8L338.07,114.7c13.744,12.384,21.795,31.521,21.795,51.806v318.735  c0,14.778-10.249,26.759-22.891,26.759h31.902c12.642,0,22.891-11.98,22.891-26.759V166.506  C391.766,146.221,383.716,127.084,369.972,114.7z"/>
<rect x="226.31" y="252.1" style="fill:#0098FF;" width="165.46" height="143.75"/>
<rect x="359.86" y="252.1" style="fill:#0073D1;" width="31.902" height="143.75"/>
<path style="fill:#0098FF;" d="M336.022,0h-54.195c-2.59,0-4.69,2.1-4.69,4.69v33.341c0,2.59,2.1,4.69,4.69,4.69h54.195  c2.59,0,4.69-2.1,4.69-4.69V4.69C340.712,2.1,338.612,0,336.022,0z"/>
<path style="fill:#0073D1;" d="M336.137,0h-31.788c2.59,0,4.69,2.1,4.69,4.69v33.341c0,2.59-2.1,4.69-4.69,4.69h31.788  c2.59,0,4.69-2.1,4.69-4.69V4.69C340.827,2.1,338.727,0,336.137,0z"/>
<path style="fill:#C1E2FF;" d="M331.263,333.901c0,14.193-11.506,25.699-25.699,25.699s-25.699-11.506-25.699-25.699  s25.699-45.538,25.699-45.538S331.263,319.708,331.263,333.901z"/>
<g>
	<path style="fill:#EBF6FF;" d="M262.488,512H140.012c-3.823,0-7.327-2.128-9.089-5.521l-10.689-20.572l77.926-10l81.706,10   l-7.868,19.656C270.442,509.451,266.676,512,262.488,512z"/>
	<path style="fill:#EBF6FF;" d="M137.611,175.11h122.477c3.823,0,7.327,2.128,9.089,5.521l10.689,20.572l-79.816,10l-79.816-10   l7.868-19.656C129.658,177.659,133.424,175.11,137.611,175.11z"/>
</g>
<g>
	<path style="fill:#97CEFF;" d="M244.42,485.907l-7.868,19.656c-1.556,3.888-5.322,6.437-9.51,6.437h35.446   c4.188,0,7.954-2.549,9.51-6.437l7.868-19.656L244.42,485.907L244.42,485.907z"/>
	<path style="fill:#97CEFF;" d="M269.177,180.631c-1.762-3.392-5.267-5.52-9.089-5.52h-35.446c3.823,0,7.327,2.128,9.089,5.52   l10.689,20.572h35.446L269.177,180.631z"/>
</g>
<rect x="120.23" y="201.2" style="fill:#F37569;" width="159.63" height="284.7"/>
<rect x="244.42" y="201.2" style="fill:#D3655C;" width="35.449" height="284.7"/>
<path style="fill:#FCD872;" d="M178.206,402.275c20.496-53.173,52.818-65.76,61.166-108.543  c3.847-19.716,3.409-49.975-19.859-92.529h-99.28v284.704h44.468C164.127,465.428,165.678,434.778,178.206,402.275z"/>
<g>
</g>
<g>
</g>
<g>
</g>
<g>
</g>
<g>
</g>
<g>
</g>
<g>
</g>
<g>
</g>
<g>
</g>
<g>
</g>
<g>
</g>
<g>
</g>
<g>
</g>
<g>
</g>
<g>
</g>
</svg>
