<?xml version="1.0" encoding="iso-8859-1"?>
<!-- Generator: Adobe Illustrator 19.0.0, SVG Export Plug-In . SVG Version: 6.00 Build 0)  -->
<svg xmlns="http://www.w3.org/2000/svg" xmlns:xlink="http://www.w3.org/1999/xlink" version="1.1" id="Layer_1" x="0px" y="0px" viewBox="0 0 512 512" style="enable-background:new 0 0 512 512;" xml:space="preserve">
<path style="fill:#C1E2FF;" d="M338.225,88.267c-4.68,0-8.473-3.794-8.473-8.473V46.431c0-16.258-13.227-29.485-29.485-29.485  h-69.244c-4.68,0-8.473-3.794-8.473-8.473S226.344,0,231.023,0h69.244c25.602,0,46.431,20.829,46.431,46.431v33.364  C346.698,84.474,342.905,88.267,338.225,88.267z"/>
<path style="fill:#0098FF;" d="M229.057,0h-28.473c-6.945,0-12.575,5.63-12.575,12.575v29.311c0,6.945,5.63,12.575,12.575,12.575  h28.473c6.945,0,12.575-5.63,12.575-12.575V12.575C241.633,5.63,236.003,0,229.057,0z"/>
<path style="fill:#0073D1;" d="M229.057,0h-17.323c6.945,0,12.575,5.63,12.575,12.575v29.311c0,6.945-5.63,12.575-12.575,12.575  h17.323c6.945,0,12.575-5.63,12.575-12.575V12.575C241.633,5.63,236.003,0,229.057,0z"/>
<path style="fill:#FFDFAC;" d="M321.339,44.316L188.009,27.23c-14.996,0-27.153,12.157-27.153,27.153v18.749h185.842l0,0  C346.698,58.515,335.838,46.174,321.339,44.316z"/>
<polygon style="fill:#4E6284;" points="341.2,416.435 256.659,426.435 172.112,416.435 154.454,134.448 253.776,124.448   358.855,134.448 "/>
<path style="fill:#0098FF;" d="M334.068,512H179.22c-3.926,0-7.109-3.183-7.109-7.109v-88.833h169.065v88.833  C341.176,508.817,337.993,512,334.068,512z"/>
<path style="fill:#FBCE7D;" d="M321.467,44.316l-38.269-4.904c12.055,6.536,20.079,19.286,20.079,33.721h43.549  C346.828,58.515,335.967,46.174,321.467,44.316z"/>
<polygon style="fill:#213244;" points="314.385,134.448 296.728,416.435 341.2,416.435 358.855,134.448 "/>
<path style="fill:#0073D1;" d="M296.704,416.058v88.833c0,3.926-3.183,7.109-7.109,7.109h44.472c3.926,0,7.109-3.183,7.109-7.109  v-88.833L296.704,416.058L296.704,416.058z"/>
<path style="fill:#0098FF;" d="M360.48,134.824H151.391c-7.039,0-12.745-5.706-12.745-12.745V84.443  c0-7.039,5.706-12.745,12.745-12.745H360.48c7.039,0,12.745,5.706,12.745,12.745v37.636  C373.225,129.118,367.519,134.824,360.48,134.824z"/>
<path style="fill:#0073D1;" d="M360.609,71.698h-44.472c7.039,0,12.745,5.706,12.745,12.745v37.636  c0,7.039-5.706,12.745-12.745,12.745h44.472c7.039,0,12.745-5.706,12.745-12.745V84.443  C373.354,77.404,367.648,71.698,360.609,71.698z"/>
<g>
	<path style="fill:#799AC9;" d="M236.738,204.737h-29.901c-4.68,0-8.473-3.794-8.473-8.473s3.793-8.473,8.473-8.473h29.901   c4.68,0,8.473,3.794,8.473,8.473S241.418,204.737,236.738,204.737z"/>
	<path style="fill:#799AC9;" d="M236.738,268.067h-29.901c-4.68,0-8.473-3.794-8.473-8.473c0-4.679,3.793-8.473,8.473-8.473h29.901   c4.68,0,8.473,3.794,8.473,8.473C245.211,264.274,241.418,268.067,236.738,268.067z"/>
	<circle style="fill:#799AC9;" cx="209.52" cy="227.93" r="8.473"/>
	<circle style="fill:#799AC9;" cx="209.52" cy="165.36" r="8.473"/>
	<circle style="fill:#799AC9;" cx="209.52" cy="291.26" r="8.473"/>
	<path style="fill:#799AC9;" d="M236.738,331.398h-29.901c-4.68,0-8.473-3.794-8.473-8.473s3.793-8.473,8.473-8.473h29.901   c4.68,0,8.473,3.794,8.473,8.473S241.418,331.398,236.738,331.398z"/>
	<path style="fill:#799AC9;" d="M236.738,394.728h-29.901c-4.68,0-8.473-3.794-8.473-8.473s3.793-8.473,8.473-8.473h29.901   c4.68,0,8.473,3.794,8.473,8.473S241.418,394.728,236.738,394.728z"/>
	<circle style="fill:#799AC9;" cx="209.52" cy="354.59" r="8.473"/>
</g>
<g>
</g>
<g>
</g>
<g>
</g>
<g>
</g>
<g>
</g>
<g>
</g>
<g>
</g>
<g>
</g>
<g>
</g>
<g>
</g>
<g>
</g>
<g>
</g>
<g>
</g>
<g>
</g>
<g>
</g>
</svg>
