<?xml version="1.0" encoding="iso-8859-1"?>
<!-- Generator: Adobe Illustrator 19.0.0, SVG Export Plug-In . SVG Version: 6.00 Build 0)  -->
<svg xmlns="http://www.w3.org/2000/svg" xmlns:xlink="http://www.w3.org/1999/xlink" version="1.1" id="Layer_1" x="0px" y="0px" viewBox="0 0 512 512" style="enable-background:new 0 0 512 512;" xml:space="preserve">
<path style="fill:#45D28A;" d="M488.391,436.852H23.609C10.57,436.852,0,426.282,0,413.243v-36.641l3.699-3.378l-0.602-232.43  L0,135.397v-36.64c0-13.039,10.57-23.609,23.609-23.609h464.782c13.039,0,23.609,10.57,23.609,23.609v36.64l-8.602,9.01  l0.258,225.29l8.344,6.904v36.642C512,426.282,501.43,436.852,488.391,436.852z"/>
<path style="fill:#31AF97;" d="M488.391,75.148h-50.714l0,0c0,172.78-140.066,312.846-312.846,312.846H0v25.249  c0,13.039,10.57,23.609,23.609,23.609h464.782c13.039,0,23.609-10.57,23.609-23.609v-36.642l-5.763-6.904V140.364l5.763-4.967  v-36.64C512,85.718,501.43,75.148,488.391,75.148z"/>
<g>
	<path style="fill:#FFDFAC;" d="M511.882,135.398h-56.774c-66.607,0-120.602,53.995-120.602,120.602s53.995,120.602,120.602,120.602   h56.774V135.398z"/>
	<path style="fill:#FFDFAC;" d="M0.119,376.602h56.774c66.607,0,120.602-53.995,120.602-120.602S123.499,135.398,56.893,135.398   H0.119V376.602z"/>
</g>
<g>
	<path style="fill:#88FFCC;" d="M248.258,75.148v127.567c-26.037,3.766-46.108,26.222-46.108,53.285s20.071,49.518,46.108,53.285   v127.567l0,0h15.484l0,0V309.285c26.037-3.766,46.107-26.222,46.107-53.285c0-27.064-20.071-49.519-46.107-53.285V75.148H248.258z    M294.366,256c0,21.153-17.207,38.362-38.359,38.365c-0.002,0-0.004,0-0.007,0c-0.002,0-0.004,0-0.007,0   c-21.152-0.004-38.359-17.213-38.359-38.365c0-21.155,17.211-38.366,38.366-38.366C277.155,217.634,294.366,234.845,294.366,256z"/>
	<circle style="fill:#88FFCC;" cx="256" cy="254.73" r="7.742"/>
</g>
<g>
	<path style="fill:#FFB094;" d="M103.765,209.307L1.701,189.656c-0.532-0.103-1.061-0.147-1.582-0.139v15.603l73.887,14.226   C63.172,227.908,56.199,241.151,56.199,256c0,14.849,6.973,28.092,17.806,36.655L0.119,306.881v15.6   c0.037,0,0.073,0.005,0.11,0.005c0.485,0,0.978-0.046,1.472-0.141l102.064-19.651c25.367-0.457,45.864-21.22,45.864-46.693   C149.63,230.526,129.132,209.764,103.765,209.307z M95.173,286.259c-13.489-3.453-23.49-15.71-23.49-30.259   c0-14.55,10.001-26.806,23.489-30.259L95.173,286.259L95.173,286.259z M110.656,286.259v-60.517   c13.488,3.453,23.489,15.709,23.489,30.259C134.146,270.549,124.145,282.806,110.656,286.259z"/>
	<path style="fill:#FFB094;" d="M511.881,322.479v-15.644l-94.817-18.256v-62.838c13.488,3.453,23.489,15.709,23.489,30.259   c0,6.804-2.148,13.269-6.211,18.696c-2.563,3.422-1.866,8.275,1.557,10.837c3.423,2.564,8.275,1.865,10.837-1.557   c6.085-8.126,9.3-17.8,9.3-27.976c0-14.849-6.973-28.092-17.806-36.655l73.65-14.18v-15.642c-0.444,0.007-0.893,0.045-1.345,0.133   l-102.064,19.651c-25.367,0.457-45.865,21.22-45.865,46.694c0,25.473,20.498,46.236,45.864,46.693l102.064,19.651   C510.988,322.431,511.437,322.472,511.881,322.479z M401.581,286.259c-13.488-3.453-23.489-15.709-23.489-30.258   c0-14.55,10.001-26.806,23.489-30.259V286.259z"/>
</g>
<g>
</g>
<g>
</g>
<g>
</g>
<g>
</g>
<g>
</g>
<g>
</g>
<g>
</g>
<g>
</g>
<g>
</g>
<g>
</g>
<g>
</g>
<g>
</g>
<g>
</g>
<g>
</g>
<g>
</g>
</svg>
