<?xml version="1.0" encoding="iso-8859-1"?>
<!-- Generator: Adobe Illustrator 19.0.0, SVG Export Plug-In . SVG Version: 6.00 Build 0)  -->
<svg xmlns="http://www.w3.org/2000/svg" xmlns:xlink="http://www.w3.org/1999/xlink" version="1.1" id="Layer_1" x="0px" y="0px" viewBox="0 0 512 512" style="enable-background:new 0 0 512 512;" xml:space="preserve">
<path style="fill:#C1E2FF;" d="M410.71,274.173c-1.425-1.703-3.53-2.688-5.751-2.688H110.835c-2.221,0-4.326,0.984-5.751,2.688  c-1.424,1.703-2.02,3.95-1.627,6.135l40.528,225.396c0.732,4.075,4.632,6.78,8.704,6.052c4.075-0.733,6.783-4.63,6.052-8.704  l-7.177-39.915l38.829-38.829l56.9,56.9l-17.996,17.996c-2.927,2.927-2.927,7.674,0,10.6c1.464,1.463,3.383,2.196,5.301,2.196  c1.918,0,3.837-0.732,5.301-2.196l17.996-17.996l17.996,17.996c1.464,1.463,3.383,2.196,5.301,2.196  c1.918,0,3.837-0.732,5.301-2.196c2.927-2.927,2.927-7.674,0-10.6l-17.996-17.996l40.608-40.608c2.927-2.927,2.927-7.674,0-10.6  c-2.928-2.927-7.674-2.927-10.601,0l-40.608,40.608l-56.9-56.9l56.9-56.9L364.23,463.14l-7.176,39.91  c-0.732,4.075,1.977,7.972,6.052,8.704c0.449,0.081,0.896,0.12,1.335,0.12c3.559,0,6.717-2.545,7.369-6.171l40.528-225.396  C412.73,278.123,412.134,275.876,410.71,274.173z M388.082,330.491l-44.013-44.013h51.927L388.082,330.491z M307.02,286.478  l-49.125,49.125l-49.125-49.125H307.02z M171.72,286.478l-44.008,44.008l-7.913-44.008H171.72z M148.333,445.164l-13.793-76.711  l45.252,45.252L148.333,445.164z M190.393,403.104l-57.048-57.048l56.9-56.9l57.048,57.048L190.393,403.104z M325.544,289.156  l56.9,56.9l-57.048,57.048l-56.9-56.9L325.544,289.156z M335.998,413.705l45.259-45.259l-13.795,76.723L335.998,413.705z"/>
<circle style="fill:#F37569;" cx="260.964" cy="135.389" r="135.389"/>
<path style="fill:#D3655C;" d="M336.659,23.119c18.812,23.252,30.086,52.852,30.086,85.092c0,74.776-60.617,135.393-135.392,135.393  c-28.038,0-54.086-8.523-75.694-23.119c24.821,30.68,62.769,50.302,105.306,50.302c74.775,0,135.392-60.617,135.392-135.393  C396.359,88.656,372.678,47.449,336.659,23.119z"/>
<path style="fill:#BA5852;" d="M357.195,106.108c-21.558-11.042-46.865-20.933-85.659-18.622  c-10.777-0.064-20.638-4.045-28.249-10.576c35.019-20.457,75.364-32.175,117.697-32.771c-5.9-6.463-12.419-12.35-19.461-17.571  c-39.342,3.484-76.654,15.876-109.517,35.456c-2.597-5.597-4.056-11.825-4.056-18.39c0-22.363,16.831-40.859,38.489-43.513  C264.622,0.047,262.8,0,260.966,0c-13.408,0-26.356,1.958-38.586,5.588c-8.133,10.541-12.987,23.733-12.987,38.044  c0,10.273,2.511,19.965,6.926,28.52c-8.776,6.124-17.178,12.782-25.142,19.953c-11.541-17.663-21.399-34.677-28.49-49.834  c-4.686,4.943-8.998,10.244-12.902,15.85c7.44,14.677,16.98,30.67,27.844,47.105c-5.215,5.432-10.197,11.105-14.937,16.998  c-1.402-1.792-2.896-3.524-4.504-5.169c-7.807-7.995-17.493-13.658-28.063-16.57c-1.584,5.953-2.776,12.065-3.538,18.31  c10.233,3.235,18.884,10.174,24.386,19.189c-7.554,11.01-14.292,22.68-20.129,34.931c2.446,8.496,5.698,16.648,9.673,24.368  c4.698-12.107,10.307-23.687,16.751-34.657c-0.437,35.379,9.071,59.024,19.839,79.066c3.249,2.567,6.622,4.984,10.102,7.25  c1.307-0.088,2.618-0.438,3.842-1.11c4.491-2.468,6.13-8.109,3.663-12.599c-9.712-17.673-19.975-39.565-18.814-75.852  c0.006-0.189,0.006-0.378,0.001-0.567c-0.189-6.504-1.394-12.852-3.503-18.863c4.988-6.628,10.306-12.971,15.919-19.013  c34.236,48.987,77.738,99.368,110.323,128.62c1.772,1.591,3.987,2.374,6.194,2.374c2.543,0,5.075-1.038,6.907-3.079  c3.423-3.813,3.107-9.679-0.707-13.102c-32.057-28.778-75.721-79.507-109.379-128.085c8.039-7.397,16.566-14.234,25.519-20.464  c11.34,11.613,27.151,18.842,44.626,18.842c0.189,0,0.378-0.006,0.567-0.017c36.236-2.211,58.421,7.407,76.367,16.599  c17.957,9.197,36.419,28.475,45.197,38.36c1.52-7.948,2.347-16.142,2.412-24.517C385.807,125.924,371.639,113.506,357.195,106.108z"/>
<path style="fill:#0098FF;" d="M403.38,274.289H108.62c-12.348,0-22.358-10.01-22.358-22.358l0,0  c0-12.348,10.01-22.358,22.358-22.358H403.38c12.348,0,22.358,10.01,22.358,22.358l0,0  C425.738,264.278,415.727,274.289,403.38,274.289z"/>
<path style="fill:#0073D1;" d="M403.38,274.289H108.62c-12.348,0-22.358-10.01-22.358-22.358l0,0h339.476l0,0  C425.738,264.278,415.727,274.289,403.38,274.289z"/>
<g>
</g>
<g>
</g>
<g>
</g>
<g>
</g>
<g>
</g>
<g>
</g>
<g>
</g>
<g>
</g>
<g>
</g>
<g>
</g>
<g>
</g>
<g>
</g>
<g>
</g>
<g>
</g>
<g>
</g>
</svg>
