<?xml version="1.0" encoding="iso-8859-1"?>
<!-- Generator: Adobe Illustrator 19.0.0, SVG Export Plug-In . SVG Version: 6.00 Build 0)  -->
<svg xmlns="http://www.w3.org/2000/svg" xmlns:xlink="http://www.w3.org/1999/xlink" version="1.1" id="Layer_1" x="0px" y="0px" viewBox="0 0 512 512" style="enable-background:new 0 0 512 512;" xml:space="preserve">
<path style="fill:#C1E2FF;" d="M357.103,287.075c-1.501-1.794-3.718-2.83-6.057-2.83h-72.292c-1.489-0.449-3.085-0.449-4.574,0  H151.462c-1.489-0.449-3.085-0.449-4.574,0H74.601c-2.339,0-4.556,1.037-6.057,2.83c-1.5,1.794-2.127,4.16-1.714,6.461  l38.091,211.848c0.771,4.292,4.88,7.143,9.167,6.373c4.292-0.772,7.144-4.876,6.373-9.167l-6.667-37.079l35.581-35.581l52.28,52.28  l-16.314,16.314c-3.083,3.083-3.083,8.082,0,11.164c1.542,1.541,3.563,2.312,5.583,2.312s4.041-0.771,5.583-2.312l16.313-16.313  l16.313,16.313c1.542,1.541,3.563,2.312,5.583,2.312s4.041-0.771,5.583-2.312c3.083-3.083,3.083-8.082,0-11.164l-16.314-16.314  l52.279-52.279l35.586,35.586l-6.666,37.074c-0.771,4.291,2.082,8.395,6.373,9.167c0.473,0.085,0.943,0.126,1.406,0.126  c3.748-0.001,7.074-2.68,7.761-6.499l38.091-211.848C359.229,291.235,358.602,288.869,357.103,287.075z M259.761,391.096  c-0.201-0.258-0.413-0.51-0.65-0.747l-35.093-35.06l52.386-52.386l52.28,52.279L276.265,407.6L259.761,391.096z M168.712,300.034  h88.231l-44.095,44.095L168.712,300.034z M201.684,355.294L149.376,407.6l-52.418-52.419l52.282-52.282L201.684,355.294z   M334.635,338.802l-38.769-38.769h45.74L334.635,338.802z M129.776,300.034l-38.764,38.764l-6.97-38.764H129.776z M110.392,446.584  l-12.197-67.836l40.017,40.017L110.392,446.584z M212.822,471.045l-52.28-52.28l52.312-52.311l29.404,29.377  c0.197,0.251,0.404,0.496,0.636,0.727l22.208,22.208L212.822,471.045z M287.43,418.765l40.024-40.024l-12.199,67.848L287.43,418.765  z"/>
<path style="fill:#0098FF;" d="M347.532,292.139H74.601c-11.434,0-20.702-9.269-20.702-20.702l0,0  c0-11.434,9.269-20.702,20.702-20.702h272.932c11.434,0,20.702,9.269,20.702,20.702l0,0  C368.235,282.87,358.966,292.139,347.532,292.139z"/>
<path style="fill:#0073D1;" d="M347.532,292.139H74.601c-11.434,0-20.702-9.269-20.702-20.702l0,0h314.336l0,0  C368.235,282.87,358.966,292.139,347.532,292.139z"/>
<circle style="fill:#F37569;" cx="332.729" cy="125.37" r="125.37"/>
<path style="fill:#D3655C;" d="M402.821,21.407c17.419,21.53,27.859,48.939,27.859,78.79c0,69.238-56.129,125.367-125.367,125.367  c-25.962,0-50.081-7.892-70.088-21.407c22.983,28.408,58.121,46.577,97.508,46.577c69.238,0,125.367-56.129,125.367-125.367  C458.1,82.091,436.172,43.936,402.821,21.407z"/>
<path style="fill:#BA5852;" d="M422.273,97.472c-20.059-10.274-43.608-19.481-79.703-17.327c-10.028-0.06-19.203-3.763-26.285-9.841  c32.192-18.807,69.223-29.674,108.095-30.467c-5.584-5.981-11.744-11.415-18.396-16.213c-35.979,3.445-70.093,14.894-100.195,32.829  c-2.416-5.208-3.774-11.003-3.774-17.112c0-18.748,12.714-34.573,29.969-39.332c-12.656,0.074-24.869,2.018-36.372,5.579  c-6.827,9.52-10.862,21.171-10.862,33.753c0,9.559,2.336,18.577,6.445,26.538c-8.695,6.068-16.989,12.706-24.823,19.874  c-9.177-14.988-17.427-30.55-24.658-46.592c-4.407,4.651-8.457,9.643-12.116,14.927c7.202,15.151,15.283,29.868,24.165,44.08  c-4.333,4.592-8.492,9.362-12.465,14.301c-1.305-1.668-2.695-3.279-4.19-4.811c-7.08-7.251-15.819-12.445-25.365-15.213  c-1.505,5.543-2.646,11.235-3.382,17.055c9.232,3.097,17.032,9.439,22.032,17.632c-6.906,10.066-13.083,20.721-18.449,31.901  c2.217,7.973,5.202,15.625,8.871,22.874c4.341-11.125,9.513-21.768,15.442-31.859c-0.17,14.147,5.334,44.257,11.053,67.068  c6.991,6.512,14.722,12.241,23.062,17.032c-6.496-16.259-17.4-67.914-16.787-87.108c0.005-0.176,0.005-0.351,0.001-0.527  c-0.176-6.051-1.297-11.958-3.26-17.551c4.151-5.515,8.548-10.817,13.166-15.898c33.493,49.083,76.834,91.426,127.01,123.587  c5.712-2.971,11.165-6.37,16.32-10.153c-52.174-31.997-97.018-75.33-130.987-125.986c7.978-7.497,16.491-14.39,25.46-20.632  c10.551,10.805,25.262,17.531,41.522,17.531c0.175,0,0.352-0.006,0.527-0.016c33.712-2.058,54.358,6.892,71.057,15.445  c16.426,8.413,33.315,25.899,41.642,35.227c1.347-7.362,2.055-14.947,2.055-22.698c0-0.085-0.003-0.17-0.003-0.255  C448.357,115.439,435.435,104.214,422.273,97.472z"/>
<path style="fill:#45D28A;" d="M175.934,107.264h-11.139c-30.406,0-55.144,24.738-55.144,55.144v31.455l-13.314-13.314  c-3.084-3.083-8.082-3.083-11.165,0s-3.083,8.082,0,11.164l26.791,26.791c1.542,1.541,3.563,2.312,5.583,2.312  s4.041-0.771,5.583-2.312l26.791-26.791c3.083-3.083,3.083-8.082,0-11.164c-3.084-3.083-8.082-3.083-11.165,0l-13.314,13.314  v-31.455c0-21.7,17.655-39.355,39.355-39.355h11.139c4.36,0,7.895-3.535,7.895-7.895S180.294,107.264,175.934,107.264z"/>
<g>
</g>
<g>
</g>
<g>
</g>
<g>
</g>
<g>
</g>
<g>
</g>
<g>
</g>
<g>
</g>
<g>
</g>
<g>
</g>
<g>
</g>
<g>
</g>
<g>
</g>
<g>
</g>
<g>
</g>
</svg>
