<?xml version="1.0" encoding="iso-8859-1"?>
<!-- Generator: Adobe Illustrator 19.0.0, SVG Export Plug-In . SVG Version: 6.00 Build 0)  -->
<svg xmlns="http://www.w3.org/2000/svg" xmlns:xlink="http://www.w3.org/1999/xlink" version="1.1" id="Layer_1" x="0px" y="0px" viewBox="0 0 512 512" style="enable-background:new 0 0 512 512;" xml:space="preserve">
<path style="fill:#88543F;" d="M278.151,291.327h-50.053c-57.132,0-103.877-46.745-103.877-103.877v-58.547  C124.221,58.006,182.227,0,253.124,0l0,0c70.897,0,128.903,58.006,128.903,128.903v58.547  C382.028,244.582,335.283,291.327,278.151,291.327z"/>
<path style="fill:#492315;" d="M369.266,73.147c-8.655-17.893-21.469-33.701-37.141-45.921  c-15.054-11.738-32.681-20.098-51.327-24.215c-10.806-2.386-21.9-3.345-32.955-2.893c-1.362,0.056-2.72,0.127-4.071,0.226  c-0.045,0.003-0.09,0.005-0.135,0.009c-1.52,0.113-3.032,0.253-4.537,0.419c-0.084,0.009-0.167,0.02-0.251,0.029  c-1.493,0.167-2.98,0.357-4.458,0.575c56.842,8.368,101.921,54.192,109.15,111.384h-180.03v155.892  c17.764,14.175,40.229,22.676,64.586,22.676h50.053c32.96,0,62.46-15.559,81.525-39.692c11.048-13.974,18.381-30.728,21.128-48.328  c0.818-5.24,1.223-10.553,1.223-15.857v-58.547C382.028,108.964,377.439,90.043,369.266,73.147  C368.358,71.269,377.439,90.043,369.266,73.147C368.358,71.269,377.439,90.043,369.266,73.147z"/>
<path style="fill:#F7B89C;" d="M353.833,330.601l-3.242-0.944c-26.838-7.81-45.67-35.928-45.67-68.189v-48.196H203.837v49.139  c0,32.261-18.832,60.38-45.67,68.189l0,0C98.011,348.106,55.8,411.132,55.8,483.445v9.147C55.8,503.311,63.25,512,72.44,512h367.12  c9.19,0,16.64-8.689,16.64-19.408v-9.147C456.2,411.132,413.989,348.107,353.833,330.601z"/>
<path style="fill:#E89F8E;" d="M353.833,330.601l-3.242-0.944c-26.838-7.81-45.67-35.928-45.67-68.189v-48.196H203.837v23.385  h65.237v48.196c0,32.261,18.832,60.379,45.67,68.189l3.242,0.944c60.156,17.506,102.367,80.531,102.367,152.844V512h19.207  c9.19,0,16.64-8.689,16.64-19.408v-9.147C456.2,411.132,413.989,348.107,353.833,330.601z"/>
<path style="fill:#F7B89C;" d="M346.596,106.716l-20.044,110.536c-5.074,36.561-36.333,63.782-73.245,63.782l0,0  c-37.578,0-69.181-28.184-73.465-65.518l-4.491-29.92l-11.84-78.88"/>
<path style="fill:#E89F8E;" d="M310.749,106.716l-20.044,110.536c-4.227,30.456-26.63,54.414-55.328,61.572  c5.754,1.436,11.759,2.21,17.93,2.21l0,0c36.912,0,68.171-27.22,73.245-63.782l20.044-110.536  C346.596,106.716,310.749,106.716,310.749,106.716z"/>
<path style="fill:#9573FF;" d="M366.238,408.223v-73.261c-4.042-1.667-8.177-3.13-12.405-4.361l-3.242-0.943  c-5.52-1.606-10.695-4.084-15.443-7.268v15.882c0,50.983-35.436,92.313-79.148,92.313l0,0c-43.712,0-79.148-41.33-79.148-92.313  v-17.264c-5.598,4.326-11.883,7.615-18.685,9.594l0,0c-4.228,1.23-8.363,2.693-12.405,4.361v73.261  c0,23.479-16.319,42.513-36.45,42.513V512h293.376v-61.264C382.557,450.736,366.238,431.702,366.238,408.223z"/>
<path style="fill:#7A64D8;" d="M366.238,380.714v-45.753c-4.042-1.667-8.177-3.13-12.405-4.361l-3.242-0.944  c-5.52-1.606-10.695-4.084-15.443-7.268v15.882c0,7.298-0.729,14.398-2.102,21.207C345.081,364.776,356.224,371.964,366.238,380.714  z"/>
<path style="fill:#FF90D3;" d="M336.491,141.245H173.617c-5.581,0-10.106-4.524-10.106-10.106v-23.634  c0-5.581,4.524-10.106,10.106-10.106h164.705c4.57,0,8.274,3.704,8.274,8.274v25.466  C346.596,136.721,342.072,141.245,336.491,141.245z"/>
<path style="fill:#E56E9F;" d="M338.322,97.4h-42.525c4.57,0,8.274,3.705,8.274,8.274v25.466c0,5.581-4.524,10.105-10.105,10.105  h42.525c5.581,0,10.106-4.524,10.106-10.105v-25.466C346.596,101.104,342.892,97.4,338.322,97.4z"/>
<path style="fill:#FF7694;" d="M253.124,250.804c-8.561,0-16.645-4.162-21.627-11.135c-2.539-3.553-1.716-8.492,1.837-11.031  c3.553-2.539,8.491-1.717,11.031,1.837c2.019,2.826,5.294,4.513,8.759,4.513c3.629,0,6.99-1.813,8.991-4.851  c2.403-3.647,7.306-4.657,10.953-2.254c3.647,2.402,4.656,7.306,2.254,10.953C270.386,246.331,262.088,250.804,253.124,250.804z"/>
<g>
	<path style="fill:#88543F;" d="M250.137,215.191c-4.367,0-7.908-3.54-7.908-7.908v-24.532c0-2.978-1.998-5.494-4.363-5.494h-27.203   c-4.367,0-7.908-3.54-7.908-7.908s3.54-7.908,7.908-7.908h27.203c11.126,0,20.178,9.559,20.178,21.309v24.532   C258.044,211.65,254.504,215.191,250.137,215.191z"/>
	<path style="fill:#88543F;" d="M301.905,177.257h-22.633c-4.367,0-7.908-3.54-7.908-7.908s3.54-7.908,7.908-7.908h22.633   c4.367,0,7.908,3.54,7.908,7.908S306.272,177.257,301.905,177.257z"/>
</g>
<g>
	<circle style="fill:#213244;" cx="215.66" cy="194.56" r="7.908"/>
	<circle style="fill:#213244;" cx="290.59" cy="194.56" r="7.908"/>
</g>
<g>
</g>
<g>
</g>
<g>
</g>
<g>
</g>
<g>
</g>
<g>
</g>
<g>
</g>
<g>
</g>
<g>
</g>
<g>
</g>
<g>
</g>
<g>
</g>
<g>
</g>
<g>
</g>
<g>
</g>
</svg>
