<?xml version="1.0" encoding="iso-8859-1"?>
<!-- Generator: Adobe Illustrator 19.0.0, SVG Export Plug-In . SVG Version: 6.00 Build 0)  -->
<svg xmlns="http://www.w3.org/2000/svg" xmlns:xlink="http://www.w3.org/1999/xlink" version="1.1" id="Layer_1" x="0px" y="0px" viewBox="0 0 512.001 512.001" style="enable-background:new 0 0 512.001 512.001;" xml:space="preserve">
<path style="fill:#F7B89C;" d="M415.471,358.096l-57.65-14.384c-28.889-7.208-49.161-33.159-49.161-62.934v-44.481H199.85v45.352  c0,29.775-20.272,55.726-49.161,62.934l-54.16,13.513c-32.927,8.215-56.032,37.794-56.032,71.73v64.262  c0,9.893,8.02,17.912,17.912,17.912h395.182c9.893,0,17.912-8.02,17.912-17.912v-64.262  C471.503,395.889,448.398,366.311,415.471,358.096z"/>
<path style="fill:#E89F8E;" d="M415.471,358.096l-57.65-14.384c-28.889-7.208-49.161-33.159-49.161-62.934v-44.481H199.85v45.352  l11.65,2.388c28.737,5.891,54.112,22.87,70.065,47.488c8.713,13.446,22.338,23.58,38.74,27.673l57.65,14.384  c32.927,8.215,56.032,37.794,56.032,71.73v64.262c0,0.825-0.075,1.631-0.183,2.427h19.788c9.893,0,17.912-8.02,17.912-17.912  v-64.262C471.503,395.889,448.398,366.311,415.471,358.096z"/>
<path style="fill:#F7B89C;" d="M376.353,133.311h-14.987v-27.944C361.366,47.174,314.192,0,256,0l0,0  c-58.192,0-105.366,47.174-105.366,105.366v27.944h-14.987c-7.878,0-14.265,6.387-14.265,14.265v32.709  c0,7.878,6.386,14.265,14.265,14.265h14.987v-1.079c0,58.192,47.174,105.366,105.366,105.366l0,0  c58.192,0,105.366-47.174,105.366-105.366v1.079h14.987c7.878,0,14.265-6.387,14.265-14.265v-32.709  C390.618,139.697,384.231,133.311,376.353,133.311z"/>
<path style="fill:#E89F8E;" d="M256,0L256,0c-6.403,0-12.671,0.572-18.759,1.666c49.243,8.849,86.608,51.91,86.608,103.7v88.103  c0,51.79-37.365,94.852-86.608,103.7c6.087,1.094,12.356,1.666,18.758,1.666l0,0c58.192,0,105.366-47.174,105.366-105.366v-88.103  C361.366,47.174,314.192,0,256,0z"/>
<path style="fill:#88543F;" d="M256,0L256,0c-58.192,0-105.366,47.174-105.366,105.366v51.195h0.335  c16.442,0,29.43-13.329,29.43-29.77v-17.008c0-14.877,13.658-26.005,28.229-22.998l31.082,6.414c10.355,2.137,21.036,2.137,31.391,0  l31.082-6.414c14.57-3.007,28.229,8.121,28.229,22.998v16.413c0,16.442,13.329,29.77,29.77,29.77h1.185v-50.6  C361.366,47.174,314.192,0,256,0z"/>
<path style="fill:#492315;" d="M256,0c-6.402,0-12.671,0.572-18.758,1.666c45.187,8.12,80.365,45.05,85.855,91.096  c4.47,4.24,7.315,10.237,7.315,17.02v16.413c0,16.442,13.329,29.77,29.77,29.77h1.185v-50.6C361.366,47.174,314.192,0,256,0z"/>
<path style="fill:#0098FF;" d="M413.901,512v-56.542c-21.67,0-39.236-17.567-39.236-39.236v-68.307l-16.843-4.202  c-5.942-1.483-11.512-3.769-16.624-6.708v29.106c0,39.074-31.675,70.749-70.749,70.749h-28.897  c-39.074,0-70.749-31.676-70.749-70.749v-30.382c-6.025,3.992-12.791,7.028-20.113,8.855l-13.353,3.332v68.307  c0,21.67-17.567,39.236-39.236,39.236l0,0V512H413.901z"/>
<g>
	<path style="fill:#0073D1;" d="M341.197,337.003v27.407l33.467,8.35v-24.846l-16.843-4.202   C351.879,342.229,346.309,339.942,341.197,337.003z"/>
	<path style="fill:#0073D1;" d="M385.614,443.397V512h28.287v-56.542C402.783,455.458,392.754,450.826,385.614,443.397z"/>
</g>
<path style="fill:#E89F8E;" d="M376.353,194.548h-14.987V133.31h14.987c7.878,0,14.265,6.387,14.265,14.265v32.709  C390.618,188.162,384.231,194.548,376.353,194.548z"/>
<path style="fill:#FF7694;" d="M257.707,253.348L257.707,253.348c-15.404,0-27.891-12.487-27.891-27.891v-1.766  c0-2.456,1.991-4.446,4.446-4.446h46.89c2.456,0,4.446,1.991,4.446,4.446v1.766C285.598,240.861,273.111,253.348,257.707,253.348z"/>
<path style="fill:#FF5050;" d="M250.14,230.181L250.14,230.181c-6.836,0-13.095,2.464-17.946,6.546  c4.331,9.788,14.121,16.621,25.513,16.621c6.836,0,13.095-2.464,17.946-6.546C271.322,237.014,261.532,230.181,250.14,230.181z"/>
<g>
	<path style="fill:#88543F;" d="M253.008,202.796c-4.373,0-7.919-3.545-7.919-7.919V170.31c0-2.982-2.001-5.501-4.369-5.501h-33.57   c-4.373,0-7.919-3.545-7.919-7.919s3.545-7.919,7.919-7.919h33.57c11.142,0,20.207,9.573,20.207,21.339v24.567   C260.927,199.251,257.382,202.796,253.008,202.796z"/>
	<path style="fill:#88543F;" d="M308.262,164.48h-22.664c-4.373,0-7.919-3.545-7.919-7.919c0-4.373,3.545-7.919,7.919-7.919h22.664   c4.373,0,7.919,3.545,7.919,7.919S312.636,164.48,308.262,164.48z"/>
</g>
<g>
	<circle style="fill:#213244;" cx="218.48" cy="182.14" r="7.919"/>
	<circle style="fill:#213244;" cx="296.93" cy="181.81" r="7.919"/>
</g>
<g>
</g>
<g>
</g>
<g>
</g>
<g>
</g>
<g>
</g>
<g>
</g>
<g>
</g>
<g>
</g>
<g>
</g>
<g>
</g>
<g>
</g>
<g>
</g>
<g>
</g>
<g>
</g>
<g>
</g>
</svg>
