<?xml version="1.0" encoding="iso-8859-1"?>
<!-- Generator: Adobe Illustrator 19.0.0, SVG Export Plug-In . SVG Version: 6.00 Build 0)  -->
<svg xmlns="http://www.w3.org/2000/svg" xmlns:xlink="http://www.w3.org/1999/xlink" version="1.1" id="Layer_1" x="0px" y="0px" viewBox="0 0 512 512" style="enable-background:new 0 0 512 512;" xml:space="preserve">
<circle style="fill:#F37569;" cx="256" cy="256" r="256"/>
<path style="fill:#D3655C;" d="M399.121,43.713c35.57,43.965,56.888,99.934,56.888,160.89c0,141.385-114.615,256-256,256  c-53.014,0-102.265-16.115-143.121-43.713C103.82,474.899,175.572,512,256,512c141.385,0,256-114.615,256-256  C512,167.629,467.223,89.717,399.121,43.713z"/>
<path style="fill:#BA5852;" d="M428.481,207.814c-25.907-13.27-74.11-37.956-152.921-33.204c-12.422-0.034-24.428-2.578-35.69-7.564  c-7.141-3.162-13.852-7.266-19.946-12.201c-3.684-2.983-7.118-6.256-10.278-9.778c69.235-42.947,148.195-65.939,230.484-66.901  c-5.58-5.776-11.426-11.292-17.524-16.524c-79.622,3.836-155.813,27.652-223.101,69.668c-8.238-13.737-12.569-29.337-12.569-45.577  c0-40.853,27.716-75.335,65.325-85.685c-15.148,0.217-29.975,1.748-44.377,4.488c-23.205,19.445-37.988,48.625-37.988,81.198  c0,19.567,5.272,38.362,15.308,54.871c-4.107,2.777-8.188,5.605-12.222,8.521c-17.53,12.674-34.101,26.52-49.649,41.424  c-21.43-34.141-40.381-69.798-56.731-106.782c-4.241,4.661-8.311,9.48-12.202,14.446c16.429,36.215,35.311,71.161,56.549,104.659  c-12.597,13.013-24.441,26.768-35.485,41.209c-3.987-6.367-8.651-12.355-13.991-17.825c-14.925-15.286-33.889-25.575-54.496-29.789  c-1.311,5.503-2.44,11.076-3.389,16.71c17.272,3.54,33.174,12.162,45.693,24.983c6.117,6.265,11.195,13.326,15.169,20.932  c-19.168,27.238-35.287,56.337-48.164,86.895c2.833,7.544,6.008,14.921,9.514,22.107c11.911-31.513,27.321-61.544,46.026-89.634  c1.544,6.138,2.46,12.467,2.666,18.906c-2.463,78.922,23.619,126.379,37.637,151.891c1.084,1.974,9.239,15.602,17.591,29.462  c9.097,5.169,18.541,9.793,28.29,13.836c-9.515-15.617-29.38-48.653-30.946-51.503c-13.25-24.112-37.912-68.993-35.532-143.408  c0.006-0.174,0.006-0.347,0.001-0.52c-0.364-12.523-2.942-24.71-7.477-36.101c0.684-0.929,1.354-1.865,2.046-2.789  c10.669-14.26,22.153-27.83,34.374-40.678c22.13,33.376,46.635,65.254,73.404,95.452c56.418,63.645,121.508,118.271,193.7,162.622  c5.411-3.249,10.693-6.688,15.835-10.316c-73.526-44.207-139.684-99.197-196.784-163.609  c-27.033-30.495-51.703-62.741-73.904-96.536c15.673-15.248,32.447-29.368,50.244-42.236c4.036-2.918,8.119-5.746,12.23-8.519  c4.238,4.97,8.921,9.555,14.006,13.672c7.26,5.879,15.258,10.771,23.771,14.54c13.524,5.988,27.938,9.024,42.84,9.024  c0.174,0,0.347-0.006,0.52-0.016c74.316-4.535,119.895,18.804,144.381,31.346c35.915,18.396,72.539,57.591,87.829,75.072  c1.224-7.403,2.147-14.907,2.721-22.51C492.252,255.02,460.652,224.291,428.481,207.814z"/>
<g>
</g>
<g>
</g>
<g>
</g>
<g>
</g>
<g>
</g>
<g>
</g>
<g>
</g>
<g>
</g>
<g>
</g>
<g>
</g>
<g>
</g>
<g>
</g>
<g>
</g>
<g>
</g>
<g>
</g>
</svg>
