<svg id="Capa_1" enable-background="new 0 0 497 497" height="512" viewBox="0 0 497 497" width="512" xmlns="http://www.w3.org/2000/svg"><g><path d="m173.5 497h-30l-45-38.75 45-38.75h90z" fill="#89c1ff"/><path d="m143.5 497h-112.5c-4.142 0-7.5-3.358-7.5-7.5v-62.5c0-4.142 3.358-7.5 7.5-7.5h112.5z" fill="#bfdcff"/><path d="m466 497h-22.5l-45-23.75 45-23.75h22.5c4.142 0 7.5 3.358 7.5 7.5v32.5c0 4.142-3.358 7.5-7.5 7.5z" fill="#89c1ff"/><path d="m443.5 497h-120l-30-47.5h150z" fill="#bfdcff"/><path d="m323.5 497h-30l-45-53.75 45-53.75h22.5c4.142 0 7.5 3.358 7.5 7.5z" fill="#89c1ff"/><path d="m293.5 497h-120v-100c0-4.142 3.358-7.5 7.5-7.5h112.5z" fill="#bfdcff"/><path d="m53.5 135h30l-30 122.5c0 8.28-6.71 14.5-15 14.5-8.28 0-15-6.22-15-14.5v-92.5c0-16.5 13.5-30 30-30z" fill="#ffeac3"/><path d="m143.5 135h-30l30 122.5c0 8.28 6.71 14.5 15 14.5 8.28 0 15-6.22 15-14.5v-30l30-31.25-30-31.25c0-16.5-13.5-30-30-30z" fill="#ffb739"/><path d="m53.52 165v209.075c0 8.077 6.207 15.028 14.275 15.408 8.614.405 15.725-6.463 15.725-14.993v-116.99h30v116.575c0 8.077 6.207 15.028 14.275 15.408 8.614.405 15.725-6.463 15.725-14.993v-209.49c0-16.569-13.431-30-30-30h-30c-16.569 0-30 13.431-30 30z" fill="#ffd17e"/><path d="m98.181 30v75c20.711 0 37.5-16.789 37.5-37.5s-16.789-37.5-37.5-37.5z" fill="#ffb739"/><path d="m105.681 67.5c0-20.711-3.358-37.5-7.5-37.5-20.711 0-37.5 16.789-37.5 37.5s16.789 37.5 37.5 37.5c4.142 0 7.5-16.789 7.5-37.5z" fill="#ffd17e"/><path d="m353.5 165h30l-30 122.5c0 8.28-6.71 14.5-15 14.5-8.28 0-15-6.22-15-14.5v-60l-15-16.25 15-16.25c0-16.5 13.5-30 30-30z" fill="#54a5ff"/><path d="m443.5 165h-30l30 122.5c0 8.28 6.71 14.5 15 14.5 8.28 0 15-6.22 15-14.5v-92.5c0-16.5-13.5-30-30-30z" fill="#1c77db"/><path d="m353.52 195v209.075c0 8.077 6.207 15.028 14.275 15.408 8.614.405 15.725-6.463 15.725-14.993v-116.99h30v116.575c0 8.077 6.207 15.028 14.275 15.408 8.614.405 15.725-6.463 15.725-14.993v-209.49c0-16.569-13.431-30-30-30h-30c-16.569 0-30 13.431-30 30z" fill="#1e8aff"/><path d="m398.181 60v75c20.711 0 37.5-16.789 37.5-37.5s-16.789-37.5-37.5-37.5z" fill="#1c77db"/><path d="m405.681 97.5c0-20.711-3.358-37.5-7.5-37.5-20.711 0-37.5 16.789-37.5 37.5s16.789 37.5 37.5 37.5c4.142 0 7.5-16.789 7.5-37.5z" fill="#1e8aff"/><path d="m203.5 105h30l-30 122.5c0 8.28-6.71 14.5-15 14.5-8.28 0-15-6.22-15-14.5v-92.5c0-16.5 13.5-30 30-30z" fill="#ff4e51"/><path d="m293.5 105h-30l30 122.5c0 8.28 6.71 14.5 15 14.5 8.28 0 15-6.22 15-14.5v-92.5c0-16.5-13.5-30-30-30z" fill="#b33e78"/><path d="m203.52 135v209.075c0 8.077 6.207 15.028 14.275 15.408 8.614.405 15.725-6.463 15.725-14.993v-116.99h30v116.575c0 8.077 6.207 15.028 14.275 15.408 8.614.405 15.725-6.463 15.725-14.993v-209.49c0-16.569-13.431-30-30-30h-30c-16.569 0-30 13.431-30 30z" fill="#ff2b59"/><path d="m296.037 32.322-21.337-21.336c-6.786-6.788-16.162-10.986-26.519-10.986l13.785 75h16.393c22.273 0 33.427-26.929 17.678-42.678z" fill="#b33e78"/><path d="m270.042 32.322-9.746-21.336c-3.101-6.788-7.384-10.986-12.115-10.986-10.356 0-19.731 4.198-26.518 10.985l-21.338 21.338c-15.748 15.748-4.594 42.677 17.679 42.677h43.963c10.174 0 15.269-26.929 8.075-42.678z" fill="#ff2b59"/></g></svg>