<svg id="Capa_1" enable-background="new 0 0 497 497" height="512" viewBox="0 0 497 497" width="512" xmlns="http://www.w3.org/2000/svg"><g><path d="m316.333 120h-30v148.083h60v-118.083c0-16.5-13.5-30-30-30z" fill="#b33e78"/><path d="m180.667 120c-16.5 0-30 13.5-30 30v118.083h60v-148.083z" fill="#ff4e51"/><path d="m286.333 120s-17.264 24.193-37.833 53.02l-37.833-53.02c-16.5 0-30 13.5-30 30v118.083h135.666v-118.083c0-16.5-13.5-30-30-30z" fill="#ff2b59"/><path d="m210.667 120h75.666v148.083h-75.666z" fill="#fff"/><path d="m307.394 40.3-27.109-27.119c-8.14-8.144-19.387-13.181-31.809-13.181l21.307 89.994h17.035c25.925 0 38.908-31.355 20.576-49.694z" fill="#b33e78"/><path d="m281.217 40.3-15.065-27.119c-4.523-8.144-10.773-13.181-17.676-13.181-12.422 0-23.668 5.037-31.808 13.18l-27.11 27.12c-18.332 18.338-5.348 49.694 20.576 49.694h59.649c14.406 0 21.621-31.355 11.434-49.694z" fill="#ff2b59"/><path d="m278.5 268.083v215.917h188.5v-185.917l-30-30z" fill="#3d5168"/><path d="m30 298.083v185.917h407v-45l-188.5-56.458 188.5-54.459v-60h-377z" fill="#57697d"/><path d="m467 467h-30v30h30c8.284 0 15-6.716 15-15s-6.716-15-15-15z" fill="#8c98a7"/><path d="m452 482c0-8.284-6.716-15-15-15h-407c-8.284 0-15 6.716-15 15s6.716 15 15 15h407c8.284 0 15-6.716 15-15z" fill="#a6b0bd"/><path d="m278.5 247.167h188.5v50.916h-188.5z" fill="#233952"/><path d="m30 247.167h407v50.916h-407z" fill="#3d5168"/><path d="m437 439h-30l-158.5-55.458 158.5-55.459h30z" fill="#ff9441"/><path d="m60 328.083h347v110.916h-347z" fill="#ffb739"/><path d="m467 223.083-30 22.5 30 22.5h22.5c4.142 0 7.5-3.358 7.5-7.5v-30c0-4.142-3.358-7.5-7.5-7.5z" fill="#ff9441"/><path d="m0 230.583v30c0 4.142 3.358 7.5 7.5 7.5h459.5v-45h-459.5c-4.142 0-7.5 3.358-7.5 7.5z" fill="#ffb739"/></g></svg>