<svg id="Capa_1" enable-background="new 0 0 497 497" height="512" viewBox="0 0 497 497" width="512" xmlns="http://www.w3.org/2000/svg"><g><path d="m0 302.011h45v90h-45z" fill="#57697d"/><path d="m135.667 150h-30l30 152.511c0 8.28 6.71 14.5 15 14.5 8.28 0 15-6.22 15-14.5l30-69.005-30-53.505c0-16.501-13.5-30.001-30-30.001z" fill="#a6b0bd"/><path d="m30 150h30l-30 152.011c0 8.28-6.72 15-15 15s-15-6.72-15-15v-122.011c0-16.5 13.5-30 30-30z" fill="#dae0e7"/><path d="m105.667 150h-15.663l-7.5 7.5-7.5-7.5h-15.004c-16.5 0-30 13.5-30 30v268.083c0 10.448 8.469 18.917 18.917 18.917 10.447 0 18.917-8.469 18.917-18.916v-146.073h30v146.073c0 10.447 8.469 18.916 18.917 18.916 10.447 0 18.916-8.469 18.916-18.916v-268.084c0-16.5-13.5-30-30-30z" fill="#c0c8d2"/><path d="m82.504 30v90c24.853 0 45-20.147 45-45s-20.147-45-45-45z" fill="#a6b0bd"/><path d="m97.504 75c0-24.853-6.716-45-15-45-24.853 0-45 20.147-45 45s20.147 45 45 45c8.285 0 15-20.147 15-45z" fill="#c0c8d2"/><path d="m165.667 302.011h45v90h-45z" fill="#57697d"/><path d="m301.333 150h-30l30 152.511c0 8.28 6.71 14.5 15 14.5 8.28 0 15-6.22 15-14.5l30-69.005-30-53.505c0-16.501-13.5-30.001-30-30.001z" fill="#ff4e51"/><path d="m195.667 150h30l-30 152.011c0 8.28-6.72 15-15 15s-15-6.72-15-15v-122.011c0-16.5 13.5-30 30-30z" fill="#ff9441"/><path d="m271.333 150h-15.662l-7.5 7.5-7.5-7.5h-15.004c-16.5 0-30 13.5-30 30v268.083c0 10.447 8.469 18.916 18.917 18.916 10.447 0 18.917-8.469 18.917-18.916v-146.072h30v146.073c0 10.447 8.469 18.916 18.917 18.916 10.447 0 18.916-8.469 18.916-18.916l-.001-268.084c0-16.5-13.5-30-30-30z" fill="#ff7149"/><path d="m307.394 70.3-27.109-27.119c-8.14-8.144-19.387-13.181-31.809-13.181l21.307 89.994h17.035c25.925 0 38.908-31.355 20.576-49.694z" fill="#ff4e51"/><path d="m281.217 70.3-15.065-27.119c-4.523-8.144-10.773-13.181-17.676-13.181-12.422 0-23.668 5.037-31.808 13.18l-27.11 27.12c-18.332 18.338-5.348 49.694 20.576 49.694h59.649c14.406 0 21.621-31.355 11.434-49.694z" fill="#ff7149"/><path d="m331.333 302.011h45v90h-45z" fill="#57697d"/><path d="m467 150h-30l30 152.511c0 8.28 6.71 14.5 15 14.5 8.28 0 15-6.22 15-14.5v-122.511c0-16.5-13.5-30-30-30z" fill="#a6b0bd"/><path d="m361.333 150h30l-30 152.011c0 8.28-6.72 15-15 15s-15-6.72-15-15v-122.011c0-16.5 13.5-30 30-30z" fill="#dae0e7"/><path d="m413.838 30v90c24.853 0 45-20.147 45-45s-20.148-45-45-45z" fill="#a6b0bd"/><path d="m428.838 75c0-24.853-6.716-45-15-45-24.853 0-45 20.147-45 45s20.147 45 45 45c8.284 0 15-20.147 15-45z" fill="#c0c8d2"/><path d="m75.004 257.011c0 4.142 3.358 7.5 7.5 7.5s7.5-3.358 7.5-7.5v-107.011h-15z" fill="#233952"/><path d="m240.671 257.011c0 4.142 3.358 7.5 7.5 7.5s7.5-3.358 7.5-7.5v-107.011h-15z" fill="#233952"/><path d="m437 150h-15.662l-7.5 7.5-7.5-7.5h-15.005c-16.5 0-30 13.5-30 30v268.083c0 10.447 8.469 18.916 18.917 18.916 10.447 0 18.917-8.469 18.917-18.916v-146.072h30v146.073c0 10.447 8.469 18.916 18.917 18.916 10.447 0 18.916-8.469 18.916-18.916v-268.084c0-16.5-13.5-30-30-30z" fill="#c0c8d2"/><path d="m406.338 150v107.011c0 4.142 3.358 7.5 7.5 7.5s7.5-3.358 7.5-7.5v-107.011z" fill="#233952"/></g></svg>