<svg id="Capa_1" enable-background="new 0 0 497 497" height="512" viewBox="0 0 497 497" width="512" xmlns="http://www.w3.org/2000/svg"><g><path d="m467 300h-225.667c-16.569 0-30-13.431-30-30v-240c0-16.569 13.431-30 30-30h225.667c16.569 0 30 13.431 30 30v240c0 16.569-13.431 30-30 30z" fill="#57697d"/><path d="m437 270-105-120 105-120h30v240z" fill="#bfdcff"/><path d="m241.333 270v-240h195.667v180l-165.667 60z" fill="#fff"/><path d="m407 180h-30l30 90h30v-60c0-16.5-13.5-30-30-30z" fill="#1e8aff"/><path d="m301.333 180c-16.5 0-30 13.5-30 30v60h30l30-90z" fill="#89c1ff"/><path d="m377 180h-45.667c-16.5 0-30 13.5-30 30v60h105.666l.001-60c0-16.5-13.5-30-30-30z" fill="#54a5ff"/><path d="m375.313 58.56c-3.113 0-6.11.492-8.922 1.397l-11.895 90.043 41.453-41.529c5.281-5.291 8.547-12.6 8.547-20.674 0-16.147-13.066-29.237-29.183-29.237z" fill="#1e8aff"/><path d="m374.496 87.797c0-13.029-3.404-24.063-8.105-27.84-4.554 1.465-8.622 4.019-11.895 7.357-5.295-5.401-12.664-8.754-20.817-8.754-16.117 0-29.183 13.09-29.183 29.237 0 8.074 3.266 15.383 8.547 20.674l41.453 41.529 16.581-41.529c2.112-5.291 3.419-12.6 3.419-20.674z" fill="#54a5ff"/><path d="m135.667 180h-30l30 152.511c0 8.28 6.71 14.5 15 14.5 8.28 0 15-6.22 15-14.5v-122.511c0-16.5-13.5-30-30-30z" fill="#1c77db"/><path d="m30 180h30l-30 152.011c0 8.28-6.72 15-15 15s-15-6.72-15-15v-122.011c0-16.5 13.5-30 30-30z" fill="#54a5ff"/><path d="m135.667 210c0-16.5-13.5-30-30-30h-45.667c-16.5 0-30 13.5-30 30v268.083c0 10.448 8.469 18.917 18.917 18.917 10.447 0 18.917-8.469 18.917-18.916v-146.073h30v146.073c0 10.447 8.469 18.916 18.917 18.916 10.447 0 18.916-8.469 18.916-18.916z" fill="#1e8aff"/><path d="m103.979 58.56c-3.113 0-6.11.492-8.922 1.397l-11.895 90.043 41.453-41.529c5.281-5.291 8.547-12.6 8.547-20.674 0-16.147-13.065-29.237-29.183-29.237z" fill="#1c77db"/><path d="m103.162 87.797c0-13.029-3.404-24.063-8.105-27.84-4.554 1.465-8.622 4.019-11.895 7.357-5.295-5.401-12.664-8.754-20.817-8.754-16.117 0-29.183 13.09-29.183 29.237 0 8.074 3.266 15.383 8.547 20.674l41.453 41.529 16.581-41.529c2.113-5.291 3.419-12.6 3.419-20.674z" fill="#1e8aff"/></g></svg>