<svg id="Capa_1" enable-background="new 0 0 497 497" height="512" viewBox="0 0 497 497" width="512" xmlns="http://www.w3.org/2000/svg"><g><path d="m60 70c-16.57 0-30 13.43-30 30v205h60v-205c0-16.57-13.43-30-30-30z" fill="#ff9e90"/><path d="m233.5 467v30h-30l-60-120.268z" fill="#ffbea4"/><path d="m191.238 449.583 12.262 47.417h22.5c4.142 0 7.5-3.358 7.5-7.5v-22.5z" fill="#ff9e90"/><path d="m233.5 380.993c0-16.569-6.716-31.569-17.573-42.427l-104.714-104.712 77.287 147.14 14.993 77.972c8.826 5.109 19.074 8.035 30.007 8.035z" fill="#ffb4b3"/><path d="m196 373.5-136-118.433v-184.442c0-16.347-12.816-30.165-29.157-30.613-16.954-.465-30.843 13.139-30.843 29.988v220.706c0 7.415 1.832 14.714 5.333 21.25l69.667 130.044-8.392 46.158c-.837 4.604 2.7 8.842 7.379 8.842h129.513v-38.047z" fill="#ffb4b3"/><path d="m203.5 458.953v-77.96c0-16.569-5.068-31.569-13.262-42.427l-79.025-104.713c-11.716-11.716-30.711-11.716-42.427 0s-11.716 30.711 0 42.426l104.714 104.714v26.011c.002 22.203 12.072 41.574 30 51.949z" fill="#ffcad6"/><path d="m437 70c16.57 0 30 13.43 30 30v205h-60v-205c0-16.57 13.43-30 30-30z" fill="#ff9e90"/><path d="m466.157 40.012c-3.954.108-7.698 1.006-11.107 2.526v246.246l-33.05 153.216 69.667-130.044c3.501-6.536 5.333-13.835 5.333-21.25v-220.706c0-16.849-13.89-30.453-30.843-29.988z" fill="#ff9e90"/><path d="m464.841 308.716c1.43-4.45 2.159-9.096 2.159-13.77v-224.946c0-12.272-4.915-22.815-11.95-27.463-10.682 4.764-18.05 15.696-18.05 28.087v184.443l-136 118.433-37.5 93.5v22.5c0 4.142 3.358 7.5 7.5 7.5h152.013c4.679 0 8.216-4.238 7.379-8.842l-8.392-46.158z" fill="#ffb4b3"/><path d="m428.213 233.854c-11.716-11.716-30.711-11.716-42.427 0l-104.713 104.713c-10.858 10.858-17.573 25.858-17.573 42.427v86.007c33.135 0 59.997-26.86 60-59.995v-26.011l104.713-104.715c11.716-11.716 11.716-30.711 0-42.426z" fill="#ffcad6"/><circle cx="248.5" cy="128.5" fill="#bfdcff" r="128.5"/><path d="m195.667 150c-16.5 0-30 13.5-30 30v2.316c7.756 11.867 18.004 21.957 29.999 29.53l30.001-61.846z" fill="#54a5ff"/><path d="m301.333 150c16.5 0 30 13.5 30 30v2.316c-7.756 11.867-18.004 21.957-29.999 29.53l-30.001-61.846z" fill="#1c77db"/><path d="m195.667 180v31.845c15.198 9.597 33.2 15.155 52.504 15.155 19.582 0 37.827-5.718 53.162-15.57v-31.43c0-16.5-13.5-30-30-30h-45.667c-16.499 0-29.999 13.5-29.999 30z" fill="#1e8aff"/><path d="m248.171 30v90c24.853 0 45-20.147 45-45s-20.147-45-45-45z" fill="#1c77db"/><path d="m263.171 75c0-24.853-6.716-45-15-45-24.853 0-45 20.147-45 45s20.147 45 45 45c8.284 0 15-20.147 15-45z" fill="#1e8aff"/></g></svg>