<svg id="Capa_1" enable-background="new 0 0 497 497" height="512" viewBox="0 0 497 497" width="512" xmlns="http://www.w3.org/2000/svg"><g><path d="m488.89 289.209c3.028-.708 5.303-3.21 5.731-6.29 1.562-11.25 2.379-22.739 2.379-34.419s-.817-23.169-2.379-34.419c-.428-3.08-2.703-5.582-5.731-6.29l-36.192-8.459c-5.193-21.644-13.731-41.986-25.048-60.443l19.618-31.584c1.641-2.642 1.48-6.02-.395-8.501-6.851-9.06-14.396-17.761-22.656-26.02-8.259-8.259-16.961-15.805-26.02-22.656-2.481-1.876-5.859-2.036-8.5-.395l-31.584 19.618c-18.457-11.317-38.798-19.855-60.443-25.048l-9.62-41.157c-12.882-2.061-26.089-3.146-39.55-3.146-11.68 0-23.169.817-34.419 2.379-3.08.428-5.582 2.703-6.29 5.731l-8.459 36.192c-21.644 5.193-41.986 13.731-60.443 25.048l-31.584-19.618c-2.642-1.641-6.02-1.48-8.5.395-9.06 6.85-17.761 14.396-26.021 22.656-8.259 8.259-15.805 16.961-22.656 26.02-1.876 2.481-2.036 5.859-.395 8.5l19.618 31.584c-11.317 18.457-19.855 38.798-25.048 60.443l-36.193 8.461c-3.028.708-5.303 3.21-5.731 6.29-1.562 11.25-2.379 22.739-2.379 34.419s.817 23.169 2.379 34.419c.428 3.08 2.703 5.582 5.731 6.29l36.192 8.459c5.193 21.644 13.731 41.986 25.048 60.443l-19.618 31.584c-1.641 2.642-1.48 6.02.395 8.501 6.851 9.06 14.396 17.761 22.656 26.02 8.259 8.259 16.961 15.805 26.021 22.656 2.481 1.876 5.859 2.036 8.5.395l31.584-19.618c18.457 11.317 38.798 19.855 60.443 25.048l8.459 36.192c.708 3.028 3.21 5.303 6.29 5.731 11.251 1.563 22.74 2.38 34.42 2.38s23.169-.817 34.419-2.379c3.08-.428 5.582-2.703 6.29-5.731l8.459-36.192c21.644-5.193 41.986-13.731 60.443-25.048l31.584 19.618c2.642 1.641 6.02 1.48 8.5-.395 9.06-6.85 17.761-14.396 26.02-22.656 8.259-8.259 15.805-16.961 22.656-26.02 1.876-2.481 2.036-5.859.395-8.501l-19.618-31.584c11.317-18.457 19.855-38.798 25.048-60.443z" fill="#c0c8d2"/><path d="m248.5 68.5v360c99.411 0 180-80.589 180-180s-80.589-180-180-180z" fill="#57697d"/><path d="m398.5 248.5c0-99.411-67.157-180-150-180-99.411 0-180 80.589-180 180s80.589 180 180 180c82.843 0 150-80.589 150-180z" fill="#728192"/><path d="m248.5 128.5v240c66.274 0 120-53.726 120-120s-53.726-120-120-120z" fill="#dae0e7"/><path d="m338.5 248.5c0-66.274-40.294-120-90-120-66.274 0-120 53.726-120 120s53.726 120 120 120c49.706 0 90-53.726 90-120z" fill="#fff"/><path d="m231.883 243.904-47.023 47.023c-5.855 5.855-5.855 15.358 0 21.213s15.358 5.855 21.213 0l47.023-47.023z" fill="#233952"/><path d="m248.5 158.5c-8.284 0-15 6.716-15 15v73.234h30v-73.234c0-8.284-6.716-15-15-15z" fill="#1e8aff"/><circle cx="248.5" cy="248.5" fill="#c0c8d2" r="22.5"/></g></svg>