<svg id="Capa_1" enable-background="new 0 0 497 497" height="512" viewBox="0 0 497 497" width="512" xmlns="http://www.w3.org/2000/svg"><g><path d="m278.5 120.049h-30l-15 15v346.903l15 15h22.5c4.142 0 7.5-3.358 7.5-7.5z" fill="#57697d"/><path d="m248.5 120.049h-30v369.403c0 4.142 3.358 7.5 7.5 7.5h22.5z" fill="#728192"/><path d="m64.393 4.442-60 60c-5.858 5.858-5.858 15.355 0 21.213l60 60c2.813 2.813 6.628 4.393 10.607 4.393h338.213c8.284 0 15-6.716 15-15v-120c0-8.284-6.716-15-15-15h-338.213c-3.978.001-7.794 1.581-10.607 4.394z" fill="#dae0e7"/><path d="m368.213 120.049-45-45 45-45h30v90z" fill="#1c77db"/><path d="m81.214 120.049-45-45 45-45h286.999v90z" fill="#1e8aff"/><path d="m422 195.049h-338.213c-8.284 0-15 6.716-15 15v120c0 8.284 6.716 15 15 15h338.213c3.978 0 7.794-1.58 10.607-4.393l60-60c5.858-5.858 5.858-15.355 0-21.213l-60-60c-2.814-2.814-6.629-4.394-10.607-4.394z" fill="#dae0e7"/><path d="m415.786 225.049h-42.425v90h42.425l45-45z" fill="#1c77db"/><path d="m373.361 225.049h-274.574v90h274.574l44.998-45z" fill="#1e8aff"/></g></svg>