<svg id="Capa_1" enable-background="new 0 0 504.5 504.5" height="512" viewBox="0 0 504.5 504.5" width="512" xmlns="http://www.w3.org/2000/svg"><g><path d="m407.434 37.5-22.5 60 22.5 45h22.5c4.142 0 7.5-3.358 7.5-7.5v-90c0-4.142-3.358-7.5-7.5-7.5z" fill="#ff2b59"/><path d="m362.434 37.5h45v105h-45z" fill="#ff4e51"/><path d="m362.434 7.5h-30v120h45v-105c0-8.25-6.75-15-15-15z" fill="#ff2b59"/><path d="m332.434 7.5h-80.184v105h80.184l15 5v-95c0-8.25-6.75-15-15-15z" fill="#ff4e51"/><path d="m362.434 112.5h-45v15c0 8.25 6.75 15 15 15h30c8.25 0 15-6.75 15-15s-6.75-15-15-15z" fill="#b33e78"/><path d="m499.348 399.49-120.492-168.253c-2.992-4.178-9.204-4.178-12.195 0l-30.802 43.011-83.609 116.751-83.609-116.751-30.802-43.011c-2.992-4.178-9.204-4.178-12.195 0l-120.492 168.253c-.912 1.273-1.402 2.8-1.402 4.367v93.143c0 1.885.7 3.602 1.848 4.92l5.652 2.58h482l5.652-2.58c1.148-1.318 1.848-3.035 1.848-4.92v-93.143c0-1.566-.49-3.093-1.402-4.367z" fill="#89c1ff"/><path d="m252.25 0c-4.143 0-7.5 3.357-7.5 7.5v179.998h15v-179.998c0-4.143-3.357-7.5-7.5-7.5z" fill="#ffd17e"/><path d="m335.859 274.248-77.511-108.236c-2.992-4.178-9.204-4.178-12.195 0l-12.353 17.249 102.059 179.363z" fill="#dae0e7"/><path d="m233.8 183.261-65.159 90.987v88.376h167.218v-36.85z" fill="#fff"/><path d="m498.902 501.92-163.043-227.672-18.449 25.763v102.244l146.441 102.245h29.399c2.258 0 4.277-1.002 5.652-2.58z" fill="#1c77db"/><path d="m317.409 300.011-23.355 32.613-41.804-58.375-41.804 58.375-41.804-58.375-163.044 227.671c1.375 1.578 3.395 2.58 5.652 2.58h452.601z" fill="#1e8aff"/></g></svg>