<svg id="Capa_1" enable-background="new 0 0 497 497" height="512" viewBox="0 0 497 497" width="512" xmlns="http://www.w3.org/2000/svg"><g><path d="m332 272.005 71.249-65.081 71.251 65.081-.001 59.999h-172.5l30.001-45.005z" fill="#3d5168"/><path d="m332 242.005 71.249-65.081 71.251 65.081v30h-142.5z" fill="#fff"/><path d="m316.999 22.504-30 75h75l-21.68-97.49c-12.8-.45-23.32 9.79-23.32 22.49z" fill="#ffcad6"/><path d="m361.999 97.504v-74.46c0-12.2-9.49-22.59-21.68-23.03v97.49z" fill="#ffb4b3"/><path d="m406.999 97.504v-74.46c0-12.2-9.49-22.59-21.68-23.03l-23.32 97.49z" fill="#ffb4b3"/><path d="m361.999 22.504v75h23.32v-97.49c-12.8-.45-23.32 9.79-23.32 22.49z" fill="#ffcad6"/><path d="m451.999 97.504v-59.46c0-12.2-9.49-22.59-21.68-23.03l-23.32 82.49z" fill="#ffb4b3"/><path d="m406.999 37.504v60h23.32v-82.49c-12.8-.45-23.32 9.79-23.32 22.49z" fill="#ffcad6"/><path d="m496.999 67.504v-14.46c0-12.2-9.49-22.59-21.68-23.03l-23.32 82.49z" fill="#ffb4b3"/><path d="m451.999 52.504v45h23.32v-67.49c-12.8-.45-23.32 9.79-23.32 22.49z" fill="#ffcad6"/><path d="m496.999 67.504h-180l-30 97.5c.001 19.25 7.433 37.758 20.745 51.664l24.256 25.337h142.5v-30c14-15.87 22.5-36.7 22.5-59.52z" fill="#ffcad6"/><path d="m272.005 165-65.081-71.249 65.081-71.251 44.999.001v142.5z" fill="#8c98a7"/><path d="m242.005 165-65.081-71.249 65.081-71.251h30v142.5z" fill="#fff"/><path d="m22.504 180.001 75 30v-75l-97.49 21.68c-.45 12.8 9.79 23.32 22.49 23.32z" fill="#ff9441"/><path d="m97.504 135.001h-74.46c-12.2 0-22.59 9.49-23.03 21.68h97.49z" fill="#ff7149"/><path d="m97.504 90.001h-74.46c-12.2 0-22.59 9.49-23.03 21.68l97.49 23.32z" fill="#ff7149"/><path d="m22.504 135.001h75v-23.32h-97.49c-.45 12.8 9.79 23.32 22.49 23.32z" fill="#ff9441"/><path d="m97.504 45.001h-59.46c-12.2 0-22.59 9.49-23.03 21.68l82.49 23.32z" fill="#ff7149"/><path d="m37.504 90.001h60v-23.32h-82.49c-.45 12.8 9.79 23.32 22.49 23.32z" fill="#ff9441"/><path d="m67.504.001h-14.46c-12.2 0-22.59 9.49-23.03 21.68l82.49 23.32z" fill="#ff7149"/><path d="m52.504 45.001h45v-23.32h-67.49c-.45 12.8 9.79 23.32 22.49 23.32z" fill="#ff9441"/><path d="m67.504.001v180l97.5 30c19.25-.001 37.758-7.433 51.664-20.745l25.337-24.256v-142.5h-30c-15.87-14-36.7-22.5-59.52-22.5z" fill="#ff9441"/><path d="m165 224.995-71.249 65.081-71.251-65.081.001-44.999h142.5z" fill="#3d5168"/><path d="m165 254.995-71.249 65.081-71.251-65.081v-30h142.5z" fill="#fff"/><path d="m180.001 474.496 30-75h-75l21.68 97.49c12.8.45 23.32-9.79 23.32-22.49z" fill="#ffcad6"/><path d="m135.001 399.496v74.46c0 12.2 9.49 22.59 21.68 23.03v-97.49z" fill="#ffb4b3"/><path d="m90.001 399.496v74.46c0 12.2 9.49 22.59 21.68 23.03l23.32-97.49z" fill="#ffb4b3"/><path d="m135.001 474.496v-75h-23.32v97.49c12.8.45 23.32-9.79 23.32-22.49z" fill="#ffcad6"/><path d="m45.001 399.496v59.46c0 12.2 9.49 22.59 21.68 23.03l23.32-82.49z" fill="#ffb4b3"/><path d="m90.001 459.496v-60h-23.32v82.49c12.8.45 23.32-9.79 23.32-22.49z" fill="#ffcad6"/><path d="m.001 429.496v14.46c0 12.2 9.49 22.59 21.68 23.03l23.32-82.49z" fill="#ffb4b3"/><path d="m45.001 444.496v-45h-23.32v67.49c12.8.45 23.32-9.79 23.32-22.49z" fill="#ffcad6"/><path d="m.001 429.496h180l30-97.5c-.001-19.25-7.433-37.758-20.745-51.664l-24.256-25.337h-142.5v30c-14 15.87-22.5 36.7-22.5 59.52z" fill="#ffcad6"/><path d="m224.995 332 65.081 71.249-65.081 71.251-44.999-.001v-142.5z" fill="#57697d"/><path d="m254.995 332 65.081 71.249-65.081 71.251h-30v-142.5z" fill="#fff"/><path d="m474.496 316.999h-45l-45 45 112.49-21.68c.45-12.8-9.79-23.32-22.49-23.32z" fill="#ff9e90"/><path d="m399.496 361.999h74.46c12.2 0 22.59-9.49 23.03-21.68h-97.49z" fill="#ff876c"/><path d="m399.496 406.999h74.46c12.2 0 22.59-9.49 23.03-21.68l-97.49-23.32z" fill="#ff876c"/><path d="m399.496 451.999h59.46c12.2 0 22.59-9.49 23.03-21.68l-82.49-23.32z" fill="#ff876c"/><path d="m429.496 496.999h14.46c12.2 0 22.59-9.49 23.03-21.68l-82.49-23.32z" fill="#ff876c"/><g fill="#ff9e90"><path d="m474.496 361.999h-75v23.32h97.49c.45-12.8-9.79-23.32-22.49-23.32z"/><path d="m459.496 406.999h-60v23.32h82.49c.45-12.8-9.79-23.32-22.49-23.32z"/><path d="m444.496 451.999h-45v23.32h67.49c.45-12.8-9.79-23.32-22.49-23.32z"/><path d="m429.496 496.999v-180h-97.5v-30c-19.25.001-37.758 7.433-51.664 20.745l-25.337 24.256v142.5h30c15.87 14 36.7 22.5 59.52 22.5z"/></g></g></svg>