<svg id="Capa_1" enable-background="new 0 0 497 497" height="512" viewBox="0 0 497 497" width="512" xmlns="http://www.w3.org/2000/svg"><g><path d="m195.667 120c-16.5 0-30 13.5-30 30v1.745c7.727 11.979 17.982 22.178 30.002 29.845l29.998-61.59z" fill="#54a5ff"/><path d="m301.333 120h-30l29.998 61.591c12.02-7.667 22.275-17.866 30.002-29.845v-1.746c0-16.5-13.5-30-30-30z" fill="#1c77db"/><path d="m195.667 150v31.594c15.276 9.749 33.406 15.406 52.833 15.406s37.556-5.657 52.833-15.406v-31.594c0-16.5-13.5-30-30-30h-45.667c-16.499 0-29.999 13.5-29.999 30z" fill="#1e8aff"/><path d="m248.5 0v90c24.853 0 45-20.147 45-45s-20.147-45-45-45z" fill="#1c77db"/><path d="m263.5 45c0-24.853-6.716-45-15-45-24.853 0-45 20.147-45 45s20.147 45 45 45c8.284 0 15-20.147 15-45z" fill="#1e8aff"/><path d="m413.838 241h-158.167v-14c0-4.143-3.357-7.5-7.5-7.5s-7.5 3.357-7.5 7.5v14h-157.509c-4.143 0-7.5 3.357-7.5 7.5v21.5c0 4.143 3.357 7.5 7.5 7.5s7.5-3.357 7.5-7.5v-14h150.009v14c0 4.143 3.357 7.5 7.5 7.5s7.5-3.357 7.5-7.5v-14h150.667v14c0 4.143 3.357 7.5 7.5 7.5s7.5-3.357 7.5-7.5v-21.5c0-4.143-3.358-7.5-7.5-7.5z" fill="#1e8aff"/><path d="m195.667 420c-16.5 0-30 13.5-30 30v1.745c7.727 11.979 17.982 22.178 30.002 29.845l29.998-61.59z" fill="#ff4e51"/><path d="m301.333 420h-30l29.998 61.591c12.02-7.667 22.275-17.866 30.002-29.845v-1.746c0-16.5-13.5-30-30-30z" fill="#b33e78"/><path d="m195.667 450v31.594c15.276 9.749 33.406 15.406 52.833 15.406s37.556-5.657 52.833-15.406v-31.594c0-16.5-13.5-30-30-30h-45.667c-16.499 0-29.999 13.5-29.999 30z" fill="#ff2b59"/><path d="m248.5 300v90c24.853 0 45-20.147 45-45s-20.147-45-45-45z" fill="#b33e78"/><path d="m263.5 345c0-24.853-6.716-45-15-45-24.853 0-45 20.147-45 45s20.147 45 45 45c8.284 0 15-20.147 15-45z" fill="#ff2b59"/><path d="m30 420c-16.5 0-30 13.5-30 30v1.745c7.727 11.979 17.982 22.178 30.002 29.845l29.998-61.59z" fill="#ffeac3"/><path d="m135.667 420h-30l29.998 61.591c12.02-7.667 22.275-17.866 30.002-29.845v-1.746c0-16.5-13.5-30-30-30z" fill="#ffb739"/><path d="m30 450v31.594c15.277 9.749 33.406 15.406 52.833 15.406s37.556-5.657 52.833-15.406v-31.594c0-16.5-13.5-30-30-30h-45.666c-16.5 0-30 13.5-30 30z" fill="#ffd17e"/><path d="m82.833 300v90c24.853 0 45-20.147 45-45s-20.147-45-45-45z" fill="#ffb739"/><path d="m97.833 345c0-24.853-6.716-45-15-45-24.853 0-45 20.147-45 45s20.147 45 45 45c8.284 0 15-20.147 15-45z" fill="#ffd17e"/><path d="m361.333 420c-16.5 0-30 13.5-30 30v1.745c7.727 11.979 17.982 22.178 30.002 29.845l29.998-61.59z" fill="#dae0e7"/><path d="m467 420h-30l29.998 61.591c12.02-7.667 22.275-17.866 30.002-29.845v-1.746c0-16.5-13.5-30-30-30z" fill="#a6b0bd"/><path d="m361.333 450v31.594c15.277 9.749 33.407 15.406 52.834 15.406s37.556-5.657 52.833-15.406v-31.594c0-16.5-13.5-30-30-30h-45.667c-16.5 0-30 13.5-30 30z" fill="#c0c8d2"/><path d="m414.167 300v90c24.853 0 45-20.147 45-45s-20.147-45-45-45z" fill="#a6b0bd"/><path d="m429.167 345c0-24.853-6.716-45-15-45-24.853 0-45 20.147-45 45s20.147 45 45 45c8.284 0 15-20.147 15-45z" fill="#c0c8d2"/></g></svg>