<svg id="Capa_1" enable-background="new 0 0 504.5 504.5" height="512" viewBox="0 0 504.5 504.5" width="512" xmlns="http://www.w3.org/2000/svg"><g><path d="m244.75 390h15v77h-15z" fill="#3d5168"/><path d="m380.75 39h90v366h-90z" fill="#ffd17e"/><path d="m33.75 39h407v366h-407z" fill="#ffeac3"/><path d="m470.75 0-60 30 60 30h30v-60z" fill="#8c98a7"/><path d="m3.75 0h467v60h-467z" fill="#a6b0bd"/><path d="m485.75 390h-30l-45 15 45 15h30c8.284 0 15-6.716 15-15s-6.716-15-15-15z" fill="#a6b0bd"/><path d="m455.75 390h-437c-8.284 0-15 6.716-15 15s6.716 15 15 15h437c8.284 0 15-6.716 15-15s-6.716-15-15-15z" fill="#c0c8d2"/><path d="m162.25 240v60h60l30-60z" fill="#ffb739"/><path d="m222.25 180v120h60l30-120z" fill="#ff4e51"/><path d="m282.25 120h60v180h-60z" fill="#1e8aff"/><path d="m342.25 337.5h-180c-4.142 0-7.5-3.357-7.5-7.5s3.358-7.5 7.5-7.5h180c4.142 0 7.5 3.357 7.5 7.5s-3.358 7.5-7.5 7.5z" fill="#3d5168"/><path d="m252.25 504.5c-12.407 0-22.5-10.094-22.5-22.5s10.093-22.5 22.5-22.5 22.5 10.094 22.5 22.5-10.093 22.5-22.5 22.5zm0-30c-4.136 0-7.5 3.364-7.5 7.5s3.364 7.5 7.5 7.5 7.5-3.364 7.5-7.5-3.364-7.5-7.5-7.5z" fill="#1e8aff"/></g></svg>