<svg id="Capa_1" enable-background="new 0 0 497 497" height="512" viewBox="0 0 497 497" width="512" xmlns="http://www.w3.org/2000/svg"><g><path d="m450.636 0-60 278.5 60 218.5h22.5c4.142 0 7.5-3.358 7.5-7.5v-482c0-4.142-3.358-7.5-7.5-7.5z" fill="#ff7149"/><path d="m383.136 0-105 30-105-30h-90c-4.142 0-7.5 3.358-7.5 7.5v482c0 4.142 3.358 7.5 7.5 7.5h367.5v-497z" fill="#ff9441"/><path d="m373.136 50h-190l20-50h150z" fill="#3d5168"/><path d="m330.636 262-225 130h-81.749c-4.685 0-8.297 4.263-7.38 8.857 4.114 20.611 22.308 36.143 44.129 36.143h315z" fill="#ffeac3"/><path d="m330.636 262v130c0 24.853 20.147 45 45 45h30v-175z" fill="#ffd17e"/><path d="m420.636 30-30 404.429c4.693 1.659 9.739 2.571 15 2.571 24.853 0 45-20.147 45-45v-362z" fill="#ffeac3"/><path d="m420.636 392v-362h-315v362h255c0 19.592 12.524 36.251 30 42.429 17.476-6.178 30-22.837 30-42.429z" fill="#fff"/><path d="m353.136 0v60l-30 30h30c16.569 0 30-13.431 30-30v-60z" fill="#a6b0bd"/><path d="m353.136 60h-150v-60h-30v60c0 16.569 13.431 30 30 30h120c16.568 0 30-13.431 30-30z" fill="#c0c8d2"/><path d="m345.636 233.5c-1.919 0-3.839-.732-5.304-2.196l-15-15c-2.929-2.93-2.929-7.678 0-10.607 2.93-2.928 7.678-2.928 10.607 0l9.696 9.697 24.696-24.697c2.93-2.928 7.678-2.928 10.607 0 2.929 2.93 2.929 7.678 0 10.607l-30 30c-1.463 1.464-3.383 2.196-5.302 2.196z" fill="#54a5ff"/><path d="m345.636 173.5c-1.919 0-3.839-.732-5.304-2.196l-15-15c-2.929-2.93-2.929-7.678 0-10.607 2.93-2.928 7.678-2.928 10.607 0l9.696 9.697 24.696-24.697c2.93-2.928 7.678-2.928 10.607 0 2.929 2.93 2.929 7.678 0 10.607l-30 30c-1.463 1.464-3.383 2.196-5.302 2.196z" fill="#54a5ff"/><path d="m300.636 218.5h-120c-4.143 0-7.5-3.357-7.5-7.5s3.357-7.5 7.5-7.5h120c4.143 0 7.5 3.357 7.5 7.5s-3.358 7.5-7.5 7.5z" fill="#57697d"/><path d="m345.636 293.5c-1.919 0-3.839-.732-5.304-2.196l-15-15c-2.929-2.93-2.929-7.678 0-10.607 2.93-2.928 7.678-2.928 10.607 0l9.696 9.697 24.696-24.697c2.93-2.928 7.678-2.928 10.607 0 2.929 2.93 2.929 7.678 0 10.607l-30 30c-1.463 1.464-3.383 2.196-5.302 2.196z" fill="#54a5ff"/><g fill="#57697d"><path d="m300.636 158.5h-120c-4.143 0-7.5-3.357-7.5-7.5s3.357-7.5 7.5-7.5h120c4.143 0 7.5 3.357 7.5 7.5s-3.358 7.5-7.5 7.5z"/><path d="m300.636 278.5h-120c-4.143 0-7.5-3.357-7.5-7.5s3.357-7.5 7.5-7.5h120c4.143 0 7.5 3.357 7.5 7.5s-3.358 7.5-7.5 7.5z"/><path d="m300.636 338.5h-120c-4.143 0-7.5-3.357-7.5-7.5s3.357-7.5 7.5-7.5h120c4.143 0 7.5 3.357 7.5 7.5s-3.358 7.5-7.5 7.5z"/></g></g></svg>