<svg id="Capa_1" enable-background="new 0 0 497 497" height="512" viewBox="0 0 497 497" width="512" xmlns="http://www.w3.org/2000/svg"><g><g><path d="m422 118.468v-78.468h-15v78.468l-75 160.032 13.582 6.365 68.918-147.053 68.918 147.053 13.582-6.365z" fill="#ff7149"/><path d="m467 278.5-45 45h30c24.853 0 45-20.147 45-45z" fill="#ff9441"/><path d="m467 278.5h-135c0 24.853 20.147 45 45 45h45c24.853 0 45-20.147 45-45z" fill="#ffb739"/></g><path d="m90 118.468v-78.468h-15v78.468l-75 160.032 13.582 6.365 68.918-147.053 68.918 147.053 13.582-6.365z" fill="#ff7149"/><path d="m263.5 120h-30c-42.984 0-65.217-17.668-84.832-33.257-18.058-14.349-33.652-26.743-66.168-26.743-8.284 0-15-6.716-15-15s6.716-15 15-15c42.984 0 65.217 17.668 84.832 33.257 18.058 14.349 33.652 26.743 66.168 26.743h30c32.516 0 48.11-12.394 66.168-26.743 19.615-15.589 41.848-33.257 84.832-33.257 8.284 0 15 6.716 15 15s-6.716 15-15 15c-32.516 0-48.11 12.394-66.168 26.743-19.615 15.589-41.848 33.257-84.832 33.257z" fill="#ffb739"/><path d="m278.5 30c0-16.569-13.431-30-30-30s-30 13.431-30 30c0 11.102 6.036 20.789 15 25.977v396.023h30v-396.023c8.964-5.188 15-14.875 15-25.977z" fill="#ff9441"/><path d="m135 278.5-45 45h30c24.853 0 45-20.147 45-45z" fill="#ff9441"/><path d="m135 278.5h-135c0 24.853 20.147 45 45 45h45c24.853 0 45-20.147 45-45z" fill="#ffb739"/><path d="m278.5 392h-30v60l30-30c8.284 0 15-6.716 15-15s-6.716-15-15-15z" fill="#ff9441"/><path d="m263.5 407c0-8.284-6.716-15-15-15h-30c-8.284 0-15 6.716-15 15s6.716 15 15 15l15 30 15-30c8.284 0 15-6.716 15-15z" fill="#ffb739"/><path d="m337.5 422h-30v60h75v-15c0-24.853-20.147-45-45-45z" fill="#ff7149"/><path d="m307.5 422h-148c-24.853 0-45 20.147-45 45v15h238v-15c0-24.853-20.147-45-45-45z" fill="#ff9441"/><path d="m412.5 467h-30l30 30h21.215c5.16 0 8.804-5.099 7.091-9.965-4.109-11.67-15.231-20.035-28.306-20.035z" fill="#ff9441"/><path d="m382.5 467h-298c-13.075 0-24.197 8.365-28.305 20.035-1.713 4.867 1.931 9.965 7.091 9.965h349.214c0-16.568-13.432-30-30-30z" fill="#ffb739"/></g></svg>