<svg id="Capa_1" enable-background="new 0 0 497 497" height="512" viewBox="0 0 497 497" width="512" xmlns="http://www.w3.org/2000/svg"><g><path d="m451.992 279.175c27.904-29.651 45.008-69.58 45.008-113.508 0-91.496-74.171-165.667-165.667-165.667 0 0 3.602 331.274 3.602 331.274 28.205-.604 54.67-8.242 77.711-21.248 14.27 13.221 33.366 21.307 54.354 21.307 3.717 0 7.375-.254 10.957-.746 6.807-.934 8.981-9.66 3.346-13.59-13.263-9.25-23.589-22.417-29.311-37.822z" fill="#a6b0bd"/><path d="m467 165.667c0-91.496-60.74-165.667-135.667-165.667-91.495 0-165.666 74.171-165.666 165.667 0 91.495 74.171 165.667 165.667 165.667 1.206 0 2.403-.033 3.602-.059 73.261-2.333 132.064-75.584 132.064-165.608z" fill="#c0c8d2"/><path d="m165.667 165.667c-90.892 0-164.326 72.316-165.649 163.199-.654 44.9 16.565 85.771 44.99 115.975-5.722 15.405-16.048 28.573-29.311 37.823-5.635 3.93-3.461 12.656 3.346 13.59 3.582.492 7.24.746 10.957.746 20.987 0 40.083-8.086 54.353-21.307 24.305 13.72 52.415 21.488 82.358 21.304 90.652-.56 164.503-74.789 164.622-165.442.12-91.597-74.097-165.888-165.666-165.888z" fill="#dae0e7"/><path d="m284.725 316.333-24.172-7.5c-2.43-10.285-6.489-19.939-11.889-28.677l11.796-22.403c-6.159-7.924-13.289-15.054-21.213-21.213l-22.403 11.796c-8.739-5.4-18.393-9.459-28.678-11.889l-7.5-24.172c-9.958-1.248-20.042-1.248-30 0l-7.5 24.172c-10.285 2.43-19.939 6.489-28.678 11.889l-22.402-11.796c-7.924 6.16-15.054 13.29-21.213 21.213l11.796 22.403c-5.4 8.739-9.459 18.393-11.889 28.677l-24.173 7.5c-1.248 9.958-1.248 20.042 0 30l24.173 7.5c2.43 10.285 6.488 19.939 11.888 28.677l-11.796 22.403c6.159 7.924 13.289 15.054 21.213 21.213l22.403-11.796c8.739 5.4 18.393 9.459 28.678 11.889l7.5 24.172c9.958 1.248 20.042 1.248 30 0l7.5-24.172c10.285-2.43 19.939-6.489 28.678-11.889l22.403 11.796c7.924-6.159 15.054-13.29 21.213-21.213l-11.796-22.403c5.4-8.739 9.459-18.393 11.889-28.677l24.172-7.5c1.248-9.958 1.248-20.041 0-30zm-119.058 67.5c-28.995 0-52.5-23.505-52.5-52.5s23.505-52.5 52.5-52.5 52.5 23.505 52.5 52.5-23.505 52.5-52.5 52.5z" fill="#8c98a7"/><path d="m165.667 263.833v35c17.949 0 32.5 14.551 32.5 32.5s-14.551 32.5-32.5 32.5v35c37.279 0 67.5-30.221 67.5-67.5s-30.221-67.5-67.5-67.5z" fill="#57697d"/><path d="m165.667 263.833c-37.279 0-67.5 30.221-67.5 67.5s30.221 67.5 67.5 67.5c20.711 0 37.5-30.221 37.5-67.5s-16.79-67.5-37.5-67.5zm0 90c-12.426 0-22.5-10.073-22.5-22.5 0-12.426 10.074-22.5 22.5-22.5s22.5 10.074 22.5 22.5c0 12.427-10.074 22.5-22.5 22.5z" fill="#728192"/></g></svg>