<svg id="Capa_1" enable-background="new 0 0 497 497" height="512" viewBox="0 0 497 497" width="512" xmlns="http://www.w3.org/2000/svg"><g><path d="m151 127.5h-15v-48.393c0-10.017 3.9-19.434 10.983-26.517l21.517-21.516 10.606 10.606-21.516 21.518c-4.25 4.249-6.59 9.899-6.59 15.909z" fill="#233952"/><path d="m361 127.5h-15v-48.393c0-6.01-2.34-11.66-6.59-15.909l-21.517-21.518 10.607-10.606 21.517 21.518c7.083 7.082 10.983 16.499 10.983 26.515z" fill="#233952"/><path d="m205.806 4.375c-5.834-5.834-15.38-5.834-21.213 0l-16.093 16.093c-5.834 5.834-5.834 15.38 0 21.213s15.38 5.834 21.213 0l16.092-16.093c5.834-5.833 5.834-15.379.001-21.213z" fill="#3d5168"/><path d="m291.194 4.375c5.834-5.834 15.38-5.834 21.213 0l16.093 16.093c5.834 5.834 5.834 15.38 0 21.213s-15.38 5.834-21.213 0l-16.093-16.093c-5.833-5.833-5.833-15.379 0-21.213z" fill="#3d5168"/><path d="m353.5 437-90-60v105h90z" fill="#ff4e51"/><path d="m143.5 437v45h180v-105z" fill="#ff7149"/><path d="m353.5 180h-210l180 257h30z" fill="#ff7149"/><path d="m143.5 180h180v257h-180z" fill="#ff9441"/><path d="m353.5 467-30 15 30 15h22.5c4.142 0 7.5-3.358 7.5-7.5v-15c0-4.142-3.358-7.5-7.5-7.5z" fill="#ff7149"/><path d="m113.5 474.5v15c0 4.142 3.358 7.5 7.5 7.5h232.5v-30h-232.5c-4.142 0-7.5 3.358-7.5 7.5z" fill="#ff9441"/><path d="m383.5 135-60 26.786 60 48.214h22.5c4.142 0 7.5-3.358 7.5-7.5v-67.5z" fill="#ff4e51"/><path d="m83.5 135v67.5c0 4.142 3.358 7.5 7.5 7.5h292.5v-75z" fill="#ff7149"/><path d="m413.5 120-60 15 60 15h22.5c4.142 0 7.5-3.358 7.5-7.5v-15c0-4.142-3.358-7.5-7.5-7.5z" fill="#ff7149"/><path d="m53.5 127.5v15c0 4.142 3.358 7.5 7.5 7.5h352.5v-30h-352.5c-4.142 0-7.5 3.358-7.5 7.5z" fill="#ff9441"/></g></svg>