<?xml version="1.0" encoding="iso-8859-1"?>
<!-- Generator: Adobe Illustrator 19.0.0, SVG Export Plug-In . SVG Version: 6.00 Build 0)  -->
<svg version="1.1" id="Capa_1" xmlns="http://www.w3.org/2000/svg" xmlns:xlink="http://www.w3.org/1999/xlink" x="0px" y="0px"
	 viewBox="0 0 512.001 512.001" style="enable-background:new 0 0 512.001 512.001;" xml:space="preserve">
<g>
	<g>
		<path d="M159.202,324.728c-14.74,0-26.732,11.992-26.732,26.731c0,14.74,11.992,26.732,26.732,26.732s26.732-11.992,26.732-26.732
			C185.934,336.72,173.942,324.728,159.202,324.728z M159.202,362.868c-6.29,0-11.408-5.118-11.408-11.408
			s5.117-11.407,11.408-11.407c6.29,0,11.408,5.117,11.408,11.407S165.493,362.868,159.202,362.868z"/>
	</g>
</g>
<g>
	<g>
		<path d="M352.796,324.728c-14.74,0-26.732,11.992-26.732,26.731c0,14.74,11.992,26.732,26.732,26.732s26.732-11.992,26.732-26.732
			C379.527,336.72,367.536,324.728,352.796,324.728z M352.796,362.868c-6.29,0-11.408-5.118-11.408-11.408
			s5.117-11.407,11.408-11.407c6.29,0,11.408,5.117,11.408,11.407C364.203,357.75,359.086,362.868,352.796,362.868z"/>
	</g>
</g>
<g>
	<g>
		<path d="M255.999,313.38c-14.74,0-26.732,11.992-26.732,26.732c0,14.739,11.992,26.731,26.732,26.731s26.732-11.992,26.732-26.731
			C282.731,325.372,270.739,313.38,255.999,313.38z M255.999,351.519c-6.29,0-11.408-5.117-11.408-11.407
			c0-6.29,5.117-11.408,11.408-11.408c6.29,0,11.408,5.118,11.408,11.408C267.407,346.402,262.289,351.519,255.999,351.519z"/>
	</g>
</g>
<g>
	<g>
		<path d="M502.89,179.472c-5.895-5.914-13.742-9.183-22.117-9.205c-17.17,0-31.175,13.969-31.22,31.141
			c-0.002,0.866,0.04,1.722,0.108,2.571c-1.011,0.434-2.04,0.882-3.082,1.34c-2.522-20.329-12.353-38.078-29.836-53.979
			c-15.517-14.112-32.961-20.973-53.329-20.973c-16.955,0-35.71,4.866-55.711,14.445l-0.523,0.248
			c-8.335-17.558-17.697-34.216-28.038-49.831c5-5.524,8.06-12.835,8.081-20.844c0.022-8.335-3.213-16.184-9.108-22.099
			c-5.895-5.914-13.742-9.183-22.116-9.205c-17.171,0-31.177,13.969-31.222,31.141c-0.022,8.279,3.203,15.817,8.465,21.425
			c-10.979,16.619-20.198,33.372-27.93,49.64c-0.091-0.042-0.184-0.082-0.275-0.124l-0.651-0.308
			c-20.055-9.613-38.829-14.488-55.799-14.488c-20.369,0-37.813,6.86-53.329,20.973c-17.405,15.831-27.224,33.49-29.801,53.706
			c-1.081-0.472-2.146-0.933-3.193-1.381c0.116-1.077,0.179-2.169,0.182-3.275c0.022-8.34-3.205-16.19-9.087-22.103
			c-5.882-5.912-13.736-9.18-22.138-9.202c-17.17,0-31.176,13.969-31.221,31.141c-0.045,17.217,13.925,31.26,31.141,31.304
			c0.006,0,0.077,0,0.084,0c3.126,0,6.145-0.468,8.996-1.329c17.175,31.279,46.024,91.174,70.256,177.37
			c-2.052,0.347-4.109,0.683-6.152,1.044c-8.198,1.446-15.279,6.035-19.937,12.924c-4.646,6.869-6.266,15.121-4.563,23.236
			c3.009,14.338,15.463,24.146,29.571,24.146c1.767,0,3.56-0.154,5.364-0.472c93.72-16.541,188.761-16.54,282.481-0.001
			c16.204,2.854,31.548-7.539,34.935-23.673c1.703-8.115,0.083-16.368-4.563-23.236c-4.659-6.889-11.739-11.478-19.937-12.924
			c-1.84-0.324-3.684-0.617-5.525-0.929c24.01-85.436,52.603-145.083,69.638-176.299c2.823,0.85,5.811,1.318,8.906,1.326
			c0.006,0,0.077,0,0.084,0c17.171,0,31.177-13.969,31.222-31.14C512.021,193.236,508.786,185.387,502.89,179.472z M255.978,58.405
			c4.266,0.011,8.273,1.68,11.282,4.699c3.001,3.012,4.649,7.005,4.638,11.242c-0.023,8.743-7.155,15.857-15.898,15.857h-0.052
			c-8.762-0.027-15.871-7.176-15.848-15.941C240.123,65.519,247.255,58.405,255.978,58.405z M105.567,162.677
			c12.566-11.429,26.637-16.985,43.018-16.985c14.659,0,31.204,4.368,49.209,12.997l0.759,0.359
			c0.142,0.065,0.282,0.126,0.424,0.191c-19.786,45.715-28.003,85.959-31.158,106.078c-32.657-24.528-63.098-41.735-87.583-53.491
			C81.344,193.277,89.651,177.153,105.567,162.677z M31.224,216.206h-0.052c-8.763-0.027-15.872-7.176-15.849-15.941
			c0.023-8.743,7.154-15.857,15.876-15.857c4.288,0.011,8.299,1.676,11.294,4.687c2.995,3.01,4.638,7.007,4.627,11.254
			C47.098,209.093,39.966,216.206,31.224,216.206z M386.926,405.239c-66.713-10.125-134.281-12.534-201.171-7.102
			c-4.218,0.343-7.359,4.04-7.017,8.258c0.343,4.218,4.041,7.355,8.258,7.017c67.935-5.518,136.591-2.826,204.294,7.99
			c0.1,0.016,0.199,0.035,0.298,0.047c4.479,0.717,8.954,1.469,13.424,2.257c4.075,0.719,7.593,2.998,9.905,6.418
			c2.301,3.401,3.103,7.486,2.26,11.503c-1.678,7.992-9.264,13.139-17.274,11.731c-95.488-16.853-192.32-16.852-287.808,0.001
			c-8.01,1.408-15.597-3.74-17.275-11.732c-0.843-4.017-0.041-8.102,2.26-11.503c2.313-3.42,5.83-5.699,9.905-6.418
			c14.765-2.604,29.766-4.85,44.585-6.675c4.2-0.517,7.186-4.341,6.668-8.541c-0.518-4.2-4.345-7.199-8.541-6.667
			c-7.97,0.981-15.989,2.089-23.999,3.301c-24.865-89.011-54.732-150.84-72.341-182.829c1.299-1.308,2.482-2.731,3.535-4.251
			c24.432,10.53,66.66,31.647,112.039,67.472c1.376,1.085,3.052,1.647,4.746,1.647c1.023,0,2.053-0.206,3.025-0.623
			c2.582-1.109,4.351-3.545,4.607-6.344c0.084-0.926,8.972-91.73,64.834-176.27c3.075,1.026,6.358,1.593,9.772,1.602
			c0.006,0,0.077,0,0.084,0c3.643,0,7.14-0.635,10.395-1.789c18.11,27.357,33.142,58.058,44.721,91.361
			c1.1,3.165,4.066,5.148,7.237,5.148c0.835,0,1.684-0.138,2.517-0.427c3.997-1.39,6.111-5.756,4.721-9.753
			c-3.689-10.61-7.73-20.959-12.088-31.045c0.006-0.003,0.011-0.005,0.017-0.007l0.771-0.366
			c17.95-8.597,34.478-12.957,49.123-12.957c16.381,0,30.452,5.556,43.018,16.986c16.002,14.553,24.315,30.778,25.351,49.459
			c-24.318,11.724-54.557,28.855-86.974,53.203c-1.511-9.493-4.167-23.528-8.653-40.603c-1.075-4.092-5.267-6.537-9.358-5.463
			c-4.092,1.075-6.539,5.265-5.463,9.358c8.028,30.551,9.993,51.356,10.012,51.56c0.253,2.8,2.021,5.237,4.604,6.347
			c0.973,0.419,2.002,0.624,3.026,0.624c1.695,0,3.373-0.562,4.749-1.648c37.224-29.387,72.053-48.95,98.748-61.497
			c0.251-0.103,0.496-0.216,0.733-0.344c4.002-1.872,7.815-3.584,11.424-5.147c1.169,1.788,2.511,3.454,4.012,4.964
			C441.18,255.404,411.57,316.986,386.926,405.239z M480.777,217.388h-0.052c-8.762-0.027-15.871-7.176-15.848-15.941
			c0.023-8.743,7.154-15.857,15.876-15.857c4.267,0.011,8.274,1.68,11.284,4.699c3.002,3.012,4.649,7.005,4.638,11.243
			C496.652,210.275,489.52,217.388,480.777,217.388z"/>
	</g>
</g>
<g>
</g>
<g>
</g>
<g>
</g>
<g>
</g>
<g>
</g>
<g>
</g>
<g>
</g>
<g>
</g>
<g>
</g>
<g>
</g>
<g>
</g>
<g>
</g>
<g>
</g>
<g>
</g>
<g>
</g>
</svg>
