<?xml version="1.0" encoding="iso-8859-1"?>
<!-- Generator: Adobe Illustrator 19.0.0, SVG Export Plug-In . SVG Version: 6.00 Build 0)  -->
<svg version="1.1" id="Capa_1" xmlns="http://www.w3.org/2000/svg" xmlns:xlink="http://www.w3.org/1999/xlink" x="0px" y="0px"
	 viewBox="0 0 511.999 511.999" style="enable-background:new 0 0 511.999 511.999;" xml:space="preserve">
<g>
	<g>
		<path d="M437.378,137.535c23.558-8.208,52.877-18.423,65.909-51.001c14.02-35.048,2.656-65.354-5.365-80.301
			c-2.578-4.803-7.864-7.167-13.148-5.891c-5.302,1.283-8.93,5.818-9.029,11.284c-0.347,19.213-8.564,31.059-24.422,35.206
			c-5.442,1.423-11.912,1.819-19.781,1.202c-4.23-0.326-7.944,2.837-8.275,7.076c-0.331,4.239,2.837,7.943,7.076,8.275
			c9.607,0.748,17.744,0.208,24.876-1.657c13.209-3.454,23.001-10.798,29.102-21.827c2.421-4.377,4.205-9.25,5.343-14.577
			c5.39,14.751,7.907,34.038-0.674,55.491c-10.426,26.064-34.999,34.625-56.679,42.179c-16.07,5.599-31.249,10.888-38.338,22.908
			c-4.933,8.365-4.171,16.966,2.092,23.6c13.346,14.133,48.437,15.347,77.104,3.593c-4.536,12.678-14.174,30.901-34.41,46.567
			c-25.41,19.674-69.603,15.569-89.83,12.347l-13.324-13.324c7.102-3.821,14.658-6.937,19.74-7.994
			c12.273-2.558,16.109-8.658,17.165-13.325c2.161-9.553-4.931-19.943-22.995-33.689c-3.055-2.325-4.435-4.792-4.476-7.998
			c-0.147-11.52,16.4-29.131,26.861-37.521c2.481-1.985,3.488-5.289,2.536-8.32c-0.952-3.03-3.668-5.166-6.838-5.374
			c-1.507-0.098-37.22-2.269-64.388,12.434c-13.26,7.175-24.365,21.673-31.935,33.858c-7.285-45.316,11.456-68.969,28.956-80.932
			c31.461-21.507,62.318-18.067,93.792-12.251c4.188,0.774,8.197-1.991,8.97-6.171c0.773-4.181-1.99-8.197-6.171-8.97
			c-33.38-6.169-69.006-10.116-105.28,14.681c-25.879,17.691-38.643,45.775-37.068,80.443l-20.742-20.742
			c-3.192-3.192-7.735-4.541-12.153-3.619c-4.418,0.926-8.036,3.99-9.678,8.195l-0.427,1.093
			c-6.706,17.173-8.709,35.666-6.039,53.661c-0.363-0.025-0.726-0.053-1.094-0.053c-4.172,0-8.093,1.625-11.042,4.574
			l-11.079,11.079c-2.949,2.949-4.574,6.871-4.574,11.042c0,4.172,1.624,8.094,4.574,11.043l7.065,7.065L7.304,469.358
			c-7.861,10.732-6.738,25.348,2.668,34.753c5.219,5.22,12.039,7.888,18.912,7.888c5.519,0,11.072-1.721,15.853-5.227
			l248.345-182.086l6.341,6.341c2.95,2.95,6.871,4.575,11.043,4.575s8.093-1.625,11.042-4.574l11.079-11.079
			c2.949-2.949,4.574-6.871,4.574-11.042c0-0.159-0.018-0.315-0.023-0.474c5.349,0.832,10.74,1.273,16.13,1.273
			c13.41,0,26.804-2.573,39.469-7.705c4.152-1.683,7.162-5.309,8.053-9.7c0.891-4.391-0.469-8.903-3.637-12.069l-30.612-30.612
			c5.394,0.416,10.513,0.621,15.333,0.621c36.083,0,56.408-10.737,66.312-18.404c28.367-21.962,38.63-48.551,42.223-62.446
			c1.161-4.49-0.428-9.262-4.048-12.156c-3.627-2.899-8.641-3.398-12.773-1.27c-26.54,13.664-58.533,11.218-66.327,2.964
			c-0.893-0.945-1.905-2.017-0.024-5.207C411.458,146.565,423.47,142.38,437.378,137.535z M310.539,130.437
			c11.649-6.303,25.643-8.957,36.736-10.034c-8.677,9.629-17.785,22.785-17.632,35.453c0.096,7.954,3.744,14.895,10.549,20.074
			c14.465,11.007,16.822,16.433,17.204,17.835c-0.548,0.392-1.975,1.181-5.19,1.851c-7.593,1.581-18.408,6.194-27.906,11.763
			l-43.133-43.133C287.113,153.836,298.07,137.184,310.539,130.437z M321.699,309.062l-11.079,11.079
			c-0.048,0.048-0.26,0.049-0.309-0.001l-66.492-66.491c-3.006-3.005-7.881-3.005-10.888,0c-3.007,3.007-3.007,7.881,0,10.889
			l49.133,49.133L35.632,494.354c-4.562,3.344-10.775,2.869-14.773-1.131c-3.997-3.996-4.473-10.207-1.133-14.767l180.578-246.547
			l7.299,7.299c3.006,3.005,7.881,3.005,10.888,0c3.007-3.007,3.007-7.881,0-10.889l-25.381-25.381
			c-0.024-0.024-0.064-0.064-0.064-0.154c0-0.09,0.041-0.131,0.064-0.154l11.079-11.079c0.048-0.048,0.26-0.049,0.309,0.001
			L321.699,309.062l0.001-0.309c0.024,0.024,0.064,0.064,0.064,0.154C321.763,308.997,321.723,309.038,321.699,309.062z
			 M384.01,288.864c-19.288,7.043-40.351,7.262-59.829,0.593l-99.673-99.673c-6.652-19.439-6.437-40.538,0.6-59.822L384.01,288.864z
			"/>
	</g>
</g>
<g>
</g>
<g>
</g>
<g>
</g>
<g>
</g>
<g>
</g>
<g>
</g>
<g>
</g>
<g>
</g>
<g>
</g>
<g>
</g>
<g>
</g>
<g>
</g>
<g>
</g>
<g>
</g>
<g>
</g>
</svg>
