<?xml version="1.0" encoding="iso-8859-1"?>
<!-- Generator: Adobe Illustrator 19.0.0, SVG Export Plug-In . SVG Version: 6.00 Build 0)  -->
<svg version="1.1" id="Capa_1" xmlns="http://www.w3.org/2000/svg" xmlns:xlink="http://www.w3.org/1999/xlink" x="0px" y="0px"
	 viewBox="0 0 512 512" style="enable-background:new 0 0 512 512;" xml:space="preserve">
<g>
	<g>
		<path d="M256.146,405.474c-0.947,0-1.722,0.344-2.325,0.861l-10.157,7.747c-1.377,0.86-2.152,2.496-2.152,4.046
			c0,2.238,1.463,4.476,3.616,4.476c0.602,0,1.377-0.172,2.066-0.775l2.755-2.755v45.967c0,2.324,2.755,3.529,5.595,3.529
			c2.755,0,5.595-1.205,5.595-3.529V409.09C261.138,406.851,258.47,405.474,256.146,405.474z"/>
	</g>
</g>
<g>
	<g>
		<path d="M500.803,397.257h-154.46v-23.938c0-6.174-5.023-11.198-11.197-11.198H316.9V218.556c0-29.751,9.974-58.744,28.085-81.635
			c0.649-0.819,1.306-1.633,1.967-2.437c4.782-5.804,8.204-12.44,10.17-19.725l22.281-82.539c2.018-7.48,0.564-15.364-3.99-21.632
			C370.86,4.321,363.808,0.501,356.065,0.11c-11.882-0.621-22.833,7.472-25.997,19.192L316.27,70.413
			c-2.793,10.347-12.229,17.573-22.944,17.573h-4.116c7.164-7.936,11.534-18.441,11.534-29.949
			c0-24.671-20.072-44.743-44.743-44.743s-44.743,20.072-44.743,44.743c0,11.508,4.37,22.013,11.534,29.949h-3.871
			c-10.717,0-20.153-7.226-22.945-17.572l-13.608-50.412C179.206,8.29,168.524,0.11,156.391,0.11
			c-7.741,0-14.881,3.525-19.588,9.671c-4.707,6.146-6.249,13.957-4.231,21.431l22.553,83.547
			c1.966,7.285,5.387,13.921,10.168,19.724c0.573,0.697,1.141,1.398,1.701,2.102c17.581,22.1,27.555,50.219,28.085,79.178
			c0.075,4.103,3.424,7.377,7.51,7.377c0.046,0,0.093,0,0.14-0.001c4.149-0.076,7.451-3.502,7.375-7.65
			c-0.59-32.245-11.723-63.588-31.35-88.26c-0.613-0.771-1.233-1.537-1.861-2.299c-3.412-4.142-5.854-8.881-7.259-14.086
			l-22.554-83.55c-0.789-2.921-0.186-5.974,1.654-8.377s4.631-3.78,7.658-3.78c5.356,0,10.072,3.611,11.468,8.783l13.608,50.41
			c4.559,16.889,19.96,28.684,37.453,28.684h74.405c17.492,0,32.893-11.795,37.453-28.683l13.798-51.112
			c1.333-4.94,5.85-8.336,10.73-8.101c3.182,0.161,6.079,1.73,7.949,4.303c1.87,2.575,2.467,5.812,1.638,8.883l-22.281,82.539
			c-1.405,5.205-3.847,9.944-7.262,14.089c-0.724,0.88-1.44,1.767-2.149,2.662c-20.203,25.537-31.329,57.841-31.329,90.962V362.12
			h-27.73V258.094c0-10.004-8.138-18.142-18.142-18.142c-10.003,0-18.141,8.138-18.141,18.142v104.027h-27.73V250.718
			c0-4.15-3.364-7.514-7.514-7.514c-4.15,0-7.514,3.364-7.514,7.514v111.403h-18.247c-6.174,0-11.197,5.024-11.197,11.198v23.938
			H11.198C5.023,397.257,0,402.281,0,408.456v92.271c0,6.174,5.023,11.197,11.198,11.197h489.605
			c6.174,0,11.197-5.023,11.197-11.197v-92.271C512,402.281,506.977,397.257,500.803,397.257z M256,87.753
			c-16.385,0-29.715-13.33-29.715-29.716S239.615,28.322,256,28.322c16.386,0,29.716,13.33,29.716,29.716
			C285.716,74.424,272.386,87.753,256,87.753z M165.658,496.896H15.028v-84.611h150.63V496.896z M256,254.98
			c1.717,0,3.114,1.397,3.114,3.114v104.027h-6.228V258.094h0C252.886,256.377,254.283,254.98,256,254.98z M496.973,496.896h-0.001
			h-150.63v-28.747c0-4.15-3.364-7.514-7.514-7.514c-4.15,0-7.514,3.364-7.514,7.514v28.747H180.686V377.148h150.629v55.185
			c0,4.15,3.364,7.514,7.514,7.514c4.15,0,7.514-3.364,7.514-7.514v-20.048h150.63V496.896z"/>
	</g>
</g>
<g>
</g>
<g>
</g>
<g>
</g>
<g>
</g>
<g>
</g>
<g>
</g>
<g>
</g>
<g>
</g>
<g>
</g>
<g>
</g>
<g>
</g>
<g>
</g>
<g>
</g>
<g>
</g>
<g>
</g>
</svg>
