<?xml version="1.0" encoding="iso-8859-1"?>
<!-- Generator: Adobe Illustrator 19.0.0, SVG Export Plug-In . SVG Version: 6.00 Build 0)  -->
<svg version="1.1" id="Capa_1" xmlns="http://www.w3.org/2000/svg" xmlns:xlink="http://www.w3.org/1999/xlink" x="0px" y="0px"
	 viewBox="0 0 512 512" style="enable-background:new 0 0 512 512;" xml:space="preserve">
<g>
	<g>
		<path d="M500.237,318.452v-12.777c0-5.573-2.173-10.81-6.118-14.747c-3.932-3.924-9.158-6.085-14.759-6.085l-25.653,0.056v-11.214
			c0-6.439-5.239-11.678-11.678-11.678h-69.793c4.425-9.718,6.515-20.444,5.965-31.225l-6.848-134.298
			C368.594,42.381,323.996,0,269.822,0h-51.004c-30.451,0-59.043,13.483-78.446,36.991c-2.638,3.196-2.185,7.924,1.011,10.562
			c3.196,2.64,7.924,2.185,10.562-1.01c16.542-20.044,40.917-31.539,66.874-31.539h51.004c46.178,0,84.193,36.126,86.545,82.243
			l1.342,26.313c-3.638-2.124-7.864-3.348-12.372-3.348h-1.027c-2.298-3.788-6.308-6.426-11.058-6.853
			c-88.648-7.977-114.213-34.496-132.88-53.858c-3.548-3.68-9.508-3.908-17.713-0.675c-14.751,5.812-39.862,24.601-40.41,58.148
			c0,0.04-0.001,0.081-0.001,0.122v3.139c-4.112,0.174-7.965,1.362-11.317,3.319l1.341-26.306c0.39-7.646,1.775-15.181,4.119-22.396
			c1.28-3.941-0.878-8.174-4.818-9.453c-3.94-1.277-8.173,0.878-9.453,4.819c-2.749,8.468-4.375,17.304-4.833,26.266l-6.848,134.298
			c-0.945,18.527,5.573,36.137,18.352,49.584c11.886,12.508,27.647,19.78,44.719,20.737l-49.216,13.928
			c-3.793-1.906-8.289-2.317-12.454-0.919l-26.571,8.927c-21.365,6.323-39.709,19.093-53.058,36.94
			c-13.377,17.884-20.448,39.142-20.448,61.475v64.217C11.763,500.19,23.574,512,38.09,512h412.46
			c14.517,0,26.327-11.81,26.327-26.328v-64.217c0-12.7-2.295-25.047-6.82-36.786c0.126-0.106,0.258-0.206,0.383-0.312
			C489.655,367.951,500.237,344.546,500.237,318.452z M446.031,333.044v-11.103l17.075-0.037
			c-0.728,11.818-5.21,22.44-12.874,30.624c-1.668-1.839-3.393-3.625-5.188-5.338C445.69,342.527,446.031,337.803,446.031,333.044z
			 M438.702,277.013v7.831h-67.914c-4.143,0-7.502,3.359-7.502,7.502s3.359,7.502,7.502,7.502h60.239v33.195
			c0,28.191-13.55,55.004-36.248,71.726c-2.413,1.778-5.049,3.071-7.786,3.907c-0.368,0.073-0.722,0.179-1.067,0.302
			c-4.191,1.085-8.581,1.085-12.772,0c-0.345-0.123-0.698-0.229-1.066-0.302c-2.737-0.837-5.373-2.13-7.787-3.908
			c-22.696-16.721-36.247-43.534-36.247-71.725v-33.195h7.462c4.143,0,7.502-3.359,7.502-7.502s-3.359-7.502-7.502-7.502h-15.137
			v-7.831C320.385,277.013,438.696,277.013,438.702,277.013z M392.888,460.839h-26.695c6.09-12.572,9.268-25.393,10.9-36.093
			c0.815,0.05,1.631,0.082,2.448,0.082c0.817,0,1.633-0.033,2.448-0.082C383.62,435.445,386.798,448.266,392.888,460.839z
			 M316.395,359.069c-1.281-0.905-2.525-1.855-3.714-2.871c-10.007-8.543-15.864-20.623-16.706-34.294l17.075,0.037v11.103
			C313.05,341.902,314.205,350.641,316.395,359.069z M313.05,306.936L313.05,306.936l-24.667-0.054c-0.006,0-0.011,0-0.017,0
			c-1.986,0-3.892,0.788-5.299,2.191c-1.411,1.408-2.203,3.318-2.203,5.311v4.068c0,19.546,7.839,37.004,22.074,49.157
			c6.209,5.302,13.365,9.421,21.303,12.281c1.526,3.026,3.205,5.973,5.017,8.839c-11.564-2.984-22.179-8.359-30.875-15.785
			c-0.775-0.662-1.52-1.35-2.261-2.039c-0.037-0.034-0.074-0.067-0.111-0.1c-14.31-13.374-22.162-31.832-22.162-52.353v-12.777
			c0-1.582,0.591-3.009,1.712-4.126c1.115-1.113,2.538-1.701,4.128-1.701l15.977,0.035c0.01,0,0.021,0.002,0.031,0.002
			c0.016,0,0.033-0.002,0.049-0.002l17.304,0.038V306.936z M360.739,182.981l2.477,48.565c0.557,10.918-2.205,21.371-7.992,30.461
			h-38.173c-6.439,0-11.677,5.239-11.677,11.678v11.214l-3.828-0.008c-0.069-0.621-0.113-1.234-0.113-1.83v-26.887
			c1.841-1.535,3.628-3.073,5.386-4.587c28.917-24.899,36.886-49.192,38.914-63.173C351.406,188.324,356.615,186.3,360.739,182.981z
			 M143.303,135.218h6.448c4.143,0,7.502-3.359,7.502-7.502V117.16c0.524-30.024,26.624-43.719,34.085-45.422
			c24.955,25.542,55.451,48.824,140.068,56.521c0.278,3.889,3.522,6.958,7.483,6.958h6.447c5.301,0,9.613,4.313,9.613,9.613v18.967
			c0,5.301-4.312,9.613-9.613,9.613h-6.473c-4.081,0-7.413,3.262-7.501,7.341c-0.409,19.075-13.245,41.303-34.334,59.463
			c-15.895,13.687-28.159,22.685-52.708,22.979c-24.548-0.294-36.813-9.292-52.709-22.979
			c-21.089-18.159-33.925-40.388-34.334-59.463c-0.087-4.079-3.42-7.341-7.5-7.341h-6.473c-5.301,0-9.613-4.313-9.613-9.613v-18.966
			h-0.001C133.69,139.53,138.002,135.218,143.303,135.218z M139.668,270.031c-9.918-10.437-14.977-24.104-14.243-38.484
			l2.477-48.565c4.125,3.318,9.333,5.342,15.006,5.432c2.028,13.981,9.998,38.274,38.914,63.173
			c1.758,1.514,3.545,3.052,5.387,4.587v26.887c0,1.05-0.106,2.107-0.294,3.155h-9.538
			C162.978,286.216,149.587,280.468,139.668,270.031z M178.49,315.289c9.459-2.029,16.581-9.397,20.449-17.891
			c0.263-0.465,0.48-0.96,0.639-1.48c1.717-4.239,2.635-8.691,2.635-12.857v-16.025c10.574,6.277,23.709,10.96,42.024,11.165
			c0.028,0,0.056,0,0.084,0c0.028,0,0.056,0,0.084,0c18.316-0.205,31.451-4.888,42.024-11.164v16.024
			c0,0.594,0.024,1.195,0.06,1.798l-6.812-0.015c-5.556,0-10.781,2.161-14.713,6.084c-3.945,3.937-6.118,9.174-6.118,14.748v12.777
			c0,20.456,6.505,39.259,18.572,54.333c-10.739,2.861-21.825,4.516-33.096,4.918c-52.393-1.87-88.118-29.614-107.771-50.544
			L178.49,315.289z M319.764,469.409l-5.391,27.586H97.132v-77.026c0-4.143-3.359-7.502-7.502-7.502s-7.502,3.359-7.502,7.502
			v77.026H38.09c-6.243,0-11.323-5.08-11.323-11.323v-64.217c0-19.069,6.037-37.218,17.459-52.488s27.127-26.187,45.42-31.574
			c0.09-0.026,0.181-0.055,0.27-0.085l26.703-8.972c0.408-0.138,0.847-0.034,1.147,0.237c0.022,0.021,0.039,0.046,0.062,0.068
			l0.139,0.135c19.049,22.971,60.692,61.702,126.098,63.932c0.17,0.006,0.341,0.006,0.511,0c15.328-0.523,30.358-3.148,44.749-7.793
			c14.655,12.251,33.6,19.722,53.743,21.228c3.801,3.863,7.915,7.452,12.334,10.707c2.249,1.657,4.619,3.056,7.072,4.197
			c-1.641,11.639-5.297,26.331-13.291,39.792h-19.012C325.11,460.839,320.733,464.444,319.764,469.409z M329.662,496.995
			l4.134-21.151h91.49l4.133,21.151H329.662z M450.549,496.995h-5.843l-5.39-27.584c-0.97-4.967-5.346-8.572-10.408-8.572h-19.012
			c-7.995-13.462-11.65-28.154-13.291-39.793c2.453-1.141,4.823-2.54,7.073-4.197c4.418-3.255,8.532-6.844,12.333-10.706
			c14.833-1.11,29.015-5.45,41.315-12.555c3.016,8.954,4.545,18.292,4.545,27.866v64.218h0.001
			C461.872,491.915,456.793,496.995,450.549,496.995z M460.698,372.944c-8.696,7.425-19.31,12.8-30.875,15.784
			c1.812-2.866,3.492-5.813,5.017-8.839c7.045-2.539,13.465-6.078,19.161-10.545c0.039-0.029,0.082-0.048,0.121-0.078
			c0.15-0.116,0.288-0.241,0.426-0.365c0.534-0.428,1.075-0.847,1.595-1.292c14.234-12.153,22.074-29.611,22.074-49.158v-4.068
			c0-1.993-0.793-3.904-2.203-5.311c-1.411-1.407-3.367-2.173-5.316-2.191l-24.667,0.054v-7.015l33.374-0.073
			c1.577,0,3,0.588,4.115,1.701c1.12,1.118,1.712,2.545,1.712,4.126v12.777C485.232,340.085,476.519,359.437,460.698,372.944z"/>
	</g>
</g>
<g>
</g>
<g>
</g>
<g>
</g>
<g>
</g>
<g>
</g>
<g>
</g>
<g>
</g>
<g>
</g>
<g>
</g>
<g>
</g>
<g>
</g>
<g>
</g>
<g>
</g>
<g>
</g>
<g>
</g>
</svg>
