<?xml version="1.0" encoding="iso-8859-1"?>
<!-- Generator: Adobe Illustrator 19.0.0, SVG Export Plug-In . SVG Version: 6.00 Build 0)  -->
<svg version="1.1" id="Capa_1" xmlns="http://www.w3.org/2000/svg" xmlns:xlink="http://www.w3.org/1999/xlink" x="0px" y="0px"
	 viewBox="0 0 512 512" style="enable-background:new 0 0 512 512;" xml:space="preserve">
<g>
	<g>
		<path d="M429.022,82.969c-2.93-2.928-7.678-2.928-10.608,0l-26.507,26.507c-2.929,2.93-2.929,7.678,0,10.608
			c1.465,1.464,3.385,2.196,5.304,2.196c1.919,0,3.839-0.732,5.304-2.196l26.507-26.507C431.95,90.646,431.95,85.899,429.022,82.969
			z"/>
	</g>
</g>
<g>
	<g>
		<path d="M463.131,144.664c-0.34-4.129-3.965-7.213-8.089-6.861l-34.692,2.851c-4.128,0.339-7.2,3.961-6.86,8.089
			c0.322,3.919,3.603,6.886,7.466,6.886c0.206,0,0.414-0.008,0.623-0.025l34.692-2.851
			C460.399,152.414,463.471,148.792,463.131,144.664z"/>
	</g>
</g>
<g>
	<g>
		<path d="M367.328,48.857c-4.11-0.34-7.749,2.731-8.089,6.86l-2.851,34.692c-0.34,4.129,2.732,7.751,6.86,8.09
			c0.209,0.018,0.416,0.025,0.623,0.025c3.863,0,7.144-2.967,7.466-6.886l2.851-34.692
			C374.528,52.818,371.456,49.196,367.328,48.857z"/>
	</g>
</g>
<g>
	<g>
		<path d="M395.18,150.022l-33.214-33.216c-4.729-4.727-12.425-4.727-17.155,0.002L329.1,132.519
			c-2.872,2.873-3.989,6.837-3.373,10.569l-4.839,4.839c-5.273,5.274-10.793,10.449-16.407,15.383
			c-3.111,2.734-3.417,7.474-0.683,10.585c1.482,1.687,3.555,2.549,5.637,2.549c1.758,0,3.523-0.614,4.948-1.866
			c5.855-5.146,11.612-10.544,17.112-16.044l3.232-3.231l21.961,21.961l-3.231,3.231c-27.815,27.816-50.585,59.359-67.981,94.118
			c-2.878,4.931-7.681,8.239-13.349,9.145c-5.969,0.959-11.87-0.954-16.161-5.246l-22.487-22.486
			c-4.29-4.291-6.202-10.182-5.246-16.163c0.969-6.06,4.683-11.133,10.191-13.919c0.021-0.01,0.039-0.023,0.059-0.034
			c16.542-8.374,32.444-18,47.544-28.813c3.368-2.411,4.144-7.097,1.731-10.464c-2.411-3.367-7.097-4.143-10.464-1.731
			c-25.006,17.906-52.292,32.441-81.101,43.199c-23.837,8.902-45.046,22.538-63.039,40.531L13.068,388.717
			c-17.41,17.41-17.41,45.739,0,63.149l47.056,47.055C68.558,507.355,79.771,512,91.698,512s23.14-4.645,31.574-13.078
			l19.447-19.447c2.929-2.93,2.929-7.678,0-10.608c-2.928-2.928-7.677-2.928-10.607,0l-19.447,19.447
			c-5.6,5.601-13.046,8.686-20.967,8.686s-15.367-3.085-20.968-8.686l-47.056-47.055c-5.601-5.601-8.685-13.047-8.685-20.967
			c0-7.921,3.084-15.367,8.685-20.967l120.087-120.087c16.464-16.463,35.87-28.941,57.68-37.085
			c4.027-1.504,8.024-3.084,11.992-4.729c-0.004,0.024-0.01,0.047-0.013,0.071c-1.725,10.786,1.72,21.406,9.451,29.138
			l22.487,22.486c6.422,6.424,14.838,9.888,23.688,9.888c1.802,0,3.624-0.144,5.448-0.436c0.023-0.004,0.044-0.009,0.067-0.013
			c-1.638,3.961-3.217,7.956-4.724,11.991c-8.146,21.811-20.622,41.217-37.085,57.679l-75.641,75.641
			c-2.929,2.93-2.929,7.678,0,10.608c1.464,1.464,3.384,2.196,5.303,2.196s3.839-0.732,5.303-2.196l75.641-75.64
			c17.992-17.992,31.629-39.202,40.531-63.039c4.405-11.796,9.397-23.266,14.962-34.393c0.195-0.354,0.395-0.704,0.579-1.067
			c0.063-0.124,0.112-0.251,0.167-0.377c16.588-32.778,38.166-62.561,64.465-88.859l4.838-4.839c0.659,0.109,1.324,0.174,1.99,0.174
			c3.106,0,6.213-1.183,8.577-3.547l15.714-15.713C399.908,162.447,399.908,154.753,395.18,150.022z M370.892,170.254
			l-29.157-29.157l11.654-11.654l29.157,29.157L370.892,170.254z"/>
	</g>
</g>
<g>
	<g>
		<path d="M186.705,325.284c-20.874-20.873-59.472-16.237-86.043,10.333c-26.571,26.572-31.206,65.171-10.333,86.043
			c8.62,8.621,20.327,13.166,33.558,13.166c2.72,0,5.506-0.192,8.341-0.581c15.861-2.172,31.538-10.311,44.144-22.916
			C202.943,384.757,207.578,346.157,186.705,325.284z M165.765,400.722c-10.304,10.303-22.937,16.931-35.573,18.662
			c-11.871,1.629-22.26-1.332-29.257-8.33c-15.025-15.025-10.389-44.107,10.333-64.829c12.509-12.509,28.062-19.155,41.733-19.155
			c8.976,0,17.142,2.867,23.097,8.822C191.123,350.917,186.487,379.999,165.765,400.722z"/>
	</g>
</g>
<g>
	<g>
		<path d="M508.442,36.761L475.228,3.547c-4.731-4.731-12.427-4.729-17.155,0l-15.714,15.713c-3.457,3.459-4.374,8.5-2.774,12.811
			l-6.259,6.259c-4.153,4.154-6.441,9.678-6.441,15.553c0,5.874,2.288,11.398,6.441,15.552l9.229,9.229
			c4.154,4.153,9.678,6.441,15.552,6.441c5.875,0,11.399-2.288,15.553-6.441l6.259-6.259c1.363,0.506,2.797,0.77,4.235,0.77
			c3.106,0,6.214-1.183,8.579-3.547l15.711-15.711C513.172,49.188,513.172,41.493,508.442,36.761z M463.051,68.058
			c-2.729,2.729-7.165,2.728-9.89,0l-9.229-9.229c-2.728-2.727-2.728-7.163,0-9.89l5.474-5.475l19.119,19.119L463.051,68.058z
			 M484.153,56.995l-29.157-29.157l11.654-11.654l29.157,29.157L484.153,56.995z"/>
	</g>
</g>
<g>
</g>
<g>
</g>
<g>
</g>
<g>
</g>
<g>
</g>
<g>
</g>
<g>
</g>
<g>
</g>
<g>
</g>
<g>
</g>
<g>
</g>
<g>
</g>
<g>
</g>
<g>
</g>
<g>
</g>
</svg>
