<?xml version="1.0" encoding="iso-8859-1"?>
<!-- Generator: Adobe Illustrator 19.0.0, SVG Export Plug-In . SVG Version: 6.00 Build 0)  -->
<svg version="1.1" id="Capa_1" xmlns="http://www.w3.org/2000/svg" xmlns:xlink="http://www.w3.org/1999/xlink" x="0px" y="0px"
	 viewBox="0 0 511.999 511.999" style="enable-background:new 0 0 511.999 511.999;" xml:space="preserve">
<g>
	<g>
		<path d="M151.805,148.042c-3.382-2.392-8.06-1.592-10.453,1.789c-4.518,6.384-8.524,13.186-11.906,20.219
			c-1.796,3.732-0.225,8.213,3.507,10.008c1.049,0.504,2.155,0.743,3.246,0.743c2.792,0,5.472-1.566,6.763-4.25
			c3.02-6.279,6.598-12.354,10.633-18.055C155.986,155.114,155.186,150.434,151.805,148.042z"/>
	</g>
</g>
<g>
	<g>
		<path d="M177.909,328.889c-5.454-4.349-10.583-9.188-15.245-14.383c-2.764-3.083-7.506-3.34-10.589-0.574
			s-3.339,7.507-0.573,10.59c5.215,5.811,10.953,11.226,17.057,16.093c1.382,1.101,3.031,1.636,4.67,1.636
			c2.204,0,4.387-0.967,5.868-2.824C181.679,336.189,181.146,331.471,177.909,328.889z"/>
	</g>
</g>
<g>
	<g>
		<path d="M198.007,111.012c-2.015-3.619-6.583-4.917-10.2-2.902c-6.815,3.797-13.363,8.197-19.462,13.079
			c-3.233,2.588-3.755,7.307-1.167,10.54c1.481,1.85,3.66,2.813,5.858,2.813c1.643,0,3.298-0.538,4.682-1.645
			c5.448-4.362,11.298-8.294,17.386-11.685C198.724,119.197,200.022,114.631,198.007,111.012z"/>
	</g>
</g>
<g>
	<g>
		<path d="M143.07,285.308c-3.037-6.281-5.56-12.86-7.498-19.553c-1.152-3.978-5.313-6.267-9.29-5.116
			c-3.978,1.152-6.269,5.311-5.116,9.289c2.172,7.5,4.999,14.871,8.402,21.909c1.294,2.677,3.97,4.236,6.757,4.236
			c1.095,0,2.207-0.241,3.258-0.749C143.311,293.521,144.873,289.037,143.07,285.308z"/>
	</g>
</g>
<g>
	<g>
		<path d="M292.94,358.695c-0.919-4.039-4.939-6.566-8.978-5.647c-6.78,1.544-13.759,2.528-20.742,2.924
			c-4.134,0.234-7.297,3.776-7.062,7.911c0.227,3.991,3.533,7.075,7.48,7.075c0.143,0,0.287-0.004,0.432-0.012
			c7.815-0.443,15.629-1.545,23.224-3.274C291.331,366.753,293.859,362.733,292.94,358.695z"/>
	</g>
</g>
<g>
	<g>
		<path d="M126.186,201.429c-4.1-0.687-7.949,2.08-8.63,6.165c-1.269,7.623-1.913,15.436-1.913,23.222v0.135
			c0,4.141,3.357,7.499,7.499,7.499c4.142,0,7.499-3.357,7.499-7.498v-0.135c0-6.963,0.575-13.948,1.71-20.759
			C133.031,205.973,130.271,202.11,126.186,201.429z"/>
	</g>
</g>
<g>
	<g>
		<path d="M228.17,353.077c-6.802-1.541-13.522-3.673-19.972-6.335c-3.827-1.58-8.212,0.242-9.792,4.071
			c-1.58,3.828,0.242,8.212,4.071,9.792c7.227,2.983,14.756,5.372,22.377,7.099c0.559,0.126,1.116,0.187,1.665,0.187
			c3.425,0,6.518-2.362,7.306-5.843C234.741,358.009,232.208,353.993,228.17,353.077z"/>
	</g>
</g>
<g>
	<g>
		<path d="M390.794,191.569c-2.18-7.498-5.014-14.866-8.423-21.899c-1.805-3.726-6.291-5.284-10.019-3.477
			c-3.727,1.806-5.283,6.292-3.477,10.018c3.042,6.278,5.572,12.854,7.517,19.545c0.953,3.278,3.948,5.407,7.197,5.407
			c0.693,0,1.398-0.097,2.097-0.3C389.663,199.707,391.95,195.545,390.794,191.569z"/>
	</g>
</g>
<g>
	<g>
		<path d="M255.707,97.752c-0.238-4.135-3.778-7.295-7.919-7.055c-7.816,0.452-15.629,1.561-23.22,3.298
			c-4.037,0.924-6.561,4.946-5.637,8.983c0.795,3.474,3.884,5.827,7.303,5.827c0.554,0,1.117-0.062,1.679-0.19
			c6.778-1.551,13.756-2.542,20.74-2.945C252.787,105.432,255.946,101.886,255.707,97.752z"/>
	</g>
</g>
<g>
	<g>
		<path d="M378.996,281.701c-3.73-1.8-8.214-0.233-10.012,3.497c-3.027,6.277-6.61,12.349-10.651,18.045
			c-2.395,3.378-1.6,8.059,1.779,10.455c1.317,0.934,2.832,1.383,4.331,1.383c2.348,0,4.661-1.1,6.124-3.162
			c4.523-6.378,8.536-13.177,11.926-20.206C384.292,287.983,382.725,283.5,378.996,281.701z"/>
	</g>
</g>
<g>
	<g>
		<path d="M309.392,100.974c-7.227-2.975-14.759-5.356-22.385-7.076c-4.039-0.911-8.053,1.625-8.965,5.665
			c-0.911,4.04,1.625,8.054,5.665,8.965c6.806,1.535,13.527,3.66,19.977,6.315c0.933,0.384,1.9,0.566,2.851,0.566
			c2.949,0.001,5.745-1.75,6.937-4.646C315.048,106.933,313.222,102.55,309.392,100.974z"/>
	</g>
</g>
<g>
	<g>
		<path d="M388.859,223.048c-4.142,0-7.499,3.357-7.499,7.499l-0.001,0.27c0,7.006-0.582,14.033-1.73,20.884
			c-0.684,4.085,2.071,7.951,6.156,8.635c0.419,0.071,0.837,0.105,1.248,0.105c3.597,0,6.772-2.595,7.387-6.26
			c1.286-7.669,1.937-15.529,1.937-23.283l0.001-0.351C396.358,226.406,393.001,223.048,388.859,223.048z"/>
	</g>
</g>
<g>
	<g>
		<path d="M360.404,137.006c-5.223-5.808-10.968-11.216-17.074-16.075c-3.242-2.579-7.958-2.042-10.537,1.199
			c-2.579,3.241-2.042,7.959,1.199,10.537c5.458,4.343,10.592,9.177,15.26,14.368c1.481,1.646,3.526,2.484,5.579,2.484
			c1.786,0,3.579-0.635,5.011-1.923C362.922,144.827,363.174,140.085,360.404,137.006z"/>
	</g>
</g>
<g>
	<g>
		<path d="M344.72,329.995c-2.584-3.235-7.302-3.763-10.539-1.179c-5.455,4.359-11.309,8.284-17.398,11.667
			c-3.621,2.011-4.924,6.577-2.913,10.197c1.371,2.466,3.927,3.858,6.562,3.858c1.232,0,2.482-0.305,3.635-0.945
			c6.816-3.787,13.369-8.181,19.475-13.059C346.777,337.949,347.305,333.23,344.72,329.995z"/>
	</g>
</g>
<g>
	<g>
		<path d="M432.639,212.597c-4.436-43.497-24.775-83.712-57.274-113.238c-0.748-0.68-1.506-1.344-2.264-2.01V16.114
			C373.101,7.228,365.872,0,356.988,0H155.012c-8.884,0-16.113,7.228-16.113,16.114v81.235c-0.767,0.673-1.534,1.346-2.291,2.034
			c-32.503,29.542-52.837,69.775-57.257,113.289c-0.417,4.12,2.583,7.799,6.704,8.217c0.258,0.026,0.514,0.039,0.766,0.039
			c3.801,0,7.059-2.879,7.452-6.742c4.044-39.827,22.661-76.657,52.422-103.706c1.462-1.328,2.95-2.619,4.453-3.889
			c0.017-0.014,0.033-0.028,0.05-0.042C180.497,81.814,217.475,68.251,256,68.251c38.526,0,75.507,13.566,104.806,38.304
			c0.014,0.012,0.027,0.023,0.042,0.035c1.495,1.264,2.977,2.548,4.432,3.869c29.756,27.034,48.38,63.847,52.44,103.659
			c0.42,4.119,4.081,7.119,8.22,6.7C430.06,220.398,433.06,216.717,432.639,212.597z M358.103,85.542
			c-29.75-20.94-65.28-32.289-102.103-32.289s-72.354,11.349-102.103,32.289V16.114c0-0.616,0.5-1.116,1.115-1.116h201.976
			c0.615,0,1.115,0.5,1.115,1.116V85.542z"/>
	</g>
</g>
<g>
	<g>
		<path d="M425.945,240.745c-4.133-0.422-7.8,2.583-8.218,6.703c-4.044,39.827-22.661,76.656-52.422,103.705
			c-1.462,1.328-2.95,2.619-4.453,3.889c-0.017,0.014-0.033,0.028-0.05,0.042C331.503,379.82,294.525,393.383,256,393.383
			c-38.523,0-75.501-13.564-104.8-38.298c-0.017-0.014-0.034-0.029-0.052-0.044c-1.494-1.263-2.975-2.545-4.428-3.866
			c-29.756-27.033-48.379-63.846-52.44-103.658c-0.42-4.119-4.084-7.126-8.22-6.699c-4.12,0.42-7.12,4.101-6.699,8.221
			c4.436,43.496,24.776,83.711,57.274,113.236c0.748,0.68,1.506,1.344,2.264,2.01v131.43c0,5.479,2.743,10.531,7.338,13.514
			c4.594,2.983,10.324,3.435,15.332,1.205l92.334-41.122c0.283-0.125,0.607-0.128,0.894-0.004l95.803,41.365
			c2.055,0.888,4.23,1.326,6.395,1.326c3.095,0,6.169-0.896,8.844-2.655c4.547-2.989,7.262-8.023,7.262-13.464V364.286
			c0.767-0.673,1.534-1.346,2.291-2.034c32.503-29.541,52.837-69.775,57.257-113.288
			C433.066,244.843,430.066,241.163,425.945,240.745z M358.104,495.88L358.104,495.88c-0.001,0.399-0.17,0.713-0.504,0.932
			c-0.334,0.219-0.687,0.25-1.055,0.092l-95.803-41.365c-4.123-1.78-8.84-1.754-12.942,0.074l-92.332,41.121
			c-0.368,0.164-0.725,0.135-1.062-0.083c-0.337-0.219-0.508-0.534-0.508-0.935V376.093c29.75,20.94,65.28,32.288,102.103,32.288
			s72.354-11.348,102.103-32.288V495.88z"/>
	</g>
</g>
<g>
	<g>
		<path d="M296.322,269.904h-14.574V153.791c0-5.218-4.245-9.464-9.463-9.464h-22.961c-2.225,0-4.389,0.788-6.084,2.214
			l-41.714,35.007c-3.929,3.295-4.532,9.04-1.376,13.078l13.681,17.508c1.564,2.003,3.911,3.309,6.437,3.582
			c2.525,0.273,5.099-0.499,7.056-2.119l8.377-6.935v63.241H217.12c-5.218,0-9.463,4.245-9.463,9.464v20.824
			c0,5.218,4.245,9.464,9.463,9.464h79.202c5.219,0.001,9.464-4.244,9.464-9.463v-20.824
			C305.786,274.15,301.541,269.904,296.322,269.904z M222.654,294.659v-9.757h18.58c5.219,0,9.464-4.246,9.464-9.464v-80.54
			c0-3.705-2.083-6.987-5.437-8.564c-3.351-1.576-7.208-1.09-10.063,1.275l-13.055,10.808l-6.887-8.813l36.08-30.278h15.413v116.112
			c0,5.218,4.245,9.464,9.464,9.464h14.574v9.757H222.654z"/>
	</g>
</g>
<g>
</g>
<g>
</g>
<g>
</g>
<g>
</g>
<g>
</g>
<g>
</g>
<g>
</g>
<g>
</g>
<g>
</g>
<g>
</g>
<g>
</g>
<g>
</g>
<g>
</g>
<g>
</g>
<g>
</g>
</svg>
