<?xml version="1.0" encoding="iso-8859-1"?>
<!-- Generator: Adobe Illustrator 19.0.0, SVG Export Plug-In . SVG Version: 6.00 Build 0)  -->
<svg version="1.1" id="Capa_1" xmlns="http://www.w3.org/2000/svg" xmlns:xlink="http://www.w3.org/1999/xlink" x="0px" y="0px"
	 viewBox="0 0 512 512" style="enable-background:new 0 0 512 512;" xml:space="preserve">
<g>
	<g>
		<path d="M393.463,494.611l-13.319-82.239c-1.182-7.298-7.406-12.595-14.799-12.595h-25.161l-3.399-21.287
			c-1.1-6.885-6.959-11.883-13.932-11.883H303.63l-4.735-39.688c-0.491-4.113-4.22-7.053-8.336-6.558
			c-4.113,0.491-7.049,4.222-6.558,8.336l4.523,37.911h-24.961v-77.625c0-4.177-3.386-7.563-7.563-7.563s-7.563,3.386-7.563,7.563
			v77.625h-24.961l20.152-168.905L256,191.198l12.373,6.505l11.454,96.007c0.455,3.811,3.692,6.612,7.438,6.612
			c0.296,0,0.596-0.018,0.898-0.054c4.113-0.491,7.049-4.222,6.558-8.336l-10.231-85.757l32.576,17.126
			c0.464,0.244,0.947,0.455,1.419,0.621c0.429,0.152,0.872,0.278,1.319,0.374c0.063,0.014,0.127,0.027,0.191,0.04
			c0.378,0.074,0.762,0.126,1.149,0.158c0.079,0.007,0.157,0.014,0.232,0.019c0.046,0.003,0.093,0.006,0.14,0.008
			c0.445,0.021,0.829,0.007,1.064-0.006c0.139-0.005,0.278-0.014,0.406-0.026c0.451-0.041,0.831-0.108,1.07-0.156
			c0.133-0.024,0.266-0.051,0.387-0.08c0.836-0.196,1.65-0.495,2.422-0.89c0.082-0.041,0.163-0.083,0.242-0.126
			c0.279-0.152,0.55-0.318,0.817-0.497c0.124-0.08,0.248-0.165,0.363-0.248c3.311-2.403,4.938-6.4,4.247-10.432l-11.662-67.995
			l49.401-48.154c0.376-0.367,0.727-0.762,1.029-1.159c0.111-0.145,0.244-0.334,0.359-0.508c0.175-0.254,0.342-0.517,0.506-0.809
			c0.174-0.314,0.331-0.636,0.49-1.013c0.035-0.081,0.069-0.161,0.101-0.24c0.016-0.04,0.032-0.08,0.047-0.12
			c0.112-0.295,0.206-0.592,0.294-0.913c0.052-0.175,0.102-0.363,0.138-0.525c0.077-0.34,0.136-0.689,0.18-1.066
			c0.017-0.127,0.031-0.255,0.041-0.375c0.108-1.29-0.019-2.578-0.378-3.833c-0.033-0.124-0.069-0.246-0.106-0.361
			c-1.262-3.893-4.561-6.677-8.609-7.265l-68.271-9.92l-30.533-61.86C263.751,2.277,260.088,0,256,0s-7.751,2.277-9.561,5.944
			l-30.532,61.863l-68.34,9.931c-0.159,0.025-0.314,0.054-0.467,0.087c-0.333,0.065-0.669,0.144-1.034,0.251
			c-0.159,0.048-0.36,0.119-0.541,0.187c-0.293,0.104-0.585,0.22-0.921,0.375c-0.166,0.079-0.326,0.162-0.482,0.249
			c-0.279,0.148-0.545,0.301-0.748,0.435c-0.113,0.072-0.229,0.152-0.344,0.235c-0.32,0.224-0.615,0.455-0.896,0.702
			c-0.058,0.051-0.115,0.102-0.171,0.155c-0.309,0.284-0.601,0.585-0.869,0.896c-0.025,0.029-0.05,0.059-0.075,0.088
			c-0.028,0.034-0.057,0.069-0.086,0.105c-0.85,1.036-1.491,2.209-1.906,3.49c-1.259,3.885-0.224,8.068,2.701,10.919l49.401,48.154
			l-11.663,68.002c-0.04,0.234-0.068,0.462-0.088,0.693c-0.033,0.284-0.056,0.569-0.063,0.844c-0.005,0.195-0.002,0.388,0.006,0.58
			c0.008,0.338,0.03,0.674,0.07,1c0.018,0.14,0.04,0.287,0.066,0.431c0.045,0.276,0.114,0.644,0.228,1.06
			c0.025,0.092,0.052,0.184,0.081,0.276c0.26,0.858,0.624,1.677,1.086,2.436c0.032,0.053,0.065,0.105,0.099,0.157
			c0.477,0.755,1.046,1.447,1.693,2.058c0.021,0.02,0.042,0.04,0.064,0.06c0.314,0.292,0.651,0.57,1.007,0.828
			c1.868,1.355,4.052,2.044,6.252,2.044c1.694,0,3.397-0.409,4.971-1.236l32.573-17.125L208.37,366.607h-19.223
			c-6.973,0-12.832,4.998-13.932,11.884l-3.399,21.287h-25.161c-7.393,0-13.617,5.297-14.799,12.595l-13.32,82.239
			c-0.704,4.345,0.529,8.761,3.383,12.113c2.853,3.352,7.015,5.275,11.417,5.275h245.328c4.402,0,8.564-1.923,11.417-5.275
			C392.935,503.372,394.167,498.957,393.463,494.611z M195.737,205.934l10.843-63.218c0.417-2.433-0.389-4.915-2.157-6.638
			l-45.931-44.771l63.475-9.224c2.443-0.355,4.554-1.889,5.647-4.102L256,20.463l28.387,57.518c1.093,2.213,3.204,3.747,5.647,4.102
			l63.475,9.224l-45.93,44.771c-1.768,1.723-2.575,4.205-2.157,6.638l10.843,63.218l-56.774-29.848
			c-1.093-0.574-2.291-0.861-3.49-0.861c-1.199,0-2.397,0.287-3.49,0.861L195.737,205.934z M189.907,381.607c0.005,0,0,0,0.005,0
			H322.09h0.003l2.901,18.171H187.006L189.907,381.607z M378.664,497.001l-245.321,0.009l13.312-82.233l218.683-0.006L378.678,497
			C378.678,497,378.674,497.001,378.664,497.001z"/>
	</g>
</g>
<g>
	<g>
		<path d="M358.749,468.653l-4.725-29.175c-0.899-5.553-5.634-9.583-11.259-9.583h-173.53c-5.625,0-10.36,4.03-11.259,9.582
			l-4.725,29.176c-0.536,3.306,0.402,6.665,2.573,9.216c2.171,2.551,5.337,4.013,8.686,4.013h182.98
			c3.349,0,6.515-1.463,8.686-4.013C358.347,475.318,359.285,471.959,358.749,468.653z M168.732,466.884l3.561-21.989h167.413
			l3.562,21.989H168.732z"/>
	</g>
</g>
<g>
</g>
<g>
</g>
<g>
</g>
<g>
</g>
<g>
</g>
<g>
</g>
<g>
</g>
<g>
</g>
<g>
</g>
<g>
</g>
<g>
</g>
<g>
</g>
<g>
</g>
<g>
</g>
<g>
</g>
</svg>
