<?xml version="1.0" encoding="iso-8859-1"?>
<!-- Generator: Adobe Illustrator 19.0.0, SVG Export Plug-In . SVG Version: 6.00 Build 0)  -->
<svg version="1.1" id="Capa_1" xmlns="http://www.w3.org/2000/svg" xmlns:xlink="http://www.w3.org/1999/xlink" x="0px" y="0px"
	 viewBox="0 0 512 512" style="enable-background:new 0 0 512 512;" xml:space="preserve">
<g>
	<g>
		<path d="M428.439,492.394l-16.89-86.435c-1.505-7.704-8.295-13.296-16.146-13.296H327.5l-11.763-27.352h34.624
			c6.662,0,12.082-5.42,12.082-12.082v-48.525c0-6.662-5.42-12.082-12.082-12.082H306.43v-25.92c0-4.143-3.359-7.502-7.502-7.502
			s-7.502,3.359-7.502,7.502v28.842c0,6.661,5.42,12.081,12.081,12.081h43.932v42.681c-0.026,0,0,0-0.026,0H168.725v-42.681h53.27
			c6.662,0,12.082-5.42,12.082-12.081V107.869c0-4.73-2.659-8.92-6.94-10.933c-4.279-2.012-9.203-1.39-12.847,1.627l-38.321,31.729
			l-28.293-36.208l33.019-27.709c3.174-2.663,3.587-7.395,0.924-10.569c-2.664-3.174-7.396-3.588-10.569-0.924l-35.181,29.524
			c-5.01,4.206-5.78,11.538-1.752,16.692l31.882,40.801c2.027,2.593,4.946,4.217,8.218,4.571c3.274,0.356,6.471-0.606,9.006-2.705
			l35.851-29.684v178.54h-53.27c-6.662,0-12.082,5.42-12.082,12.082v48.525c0,6.662,5.42,12.082,12.082,12.082h30.46L184.5,392.663
			h-67.903c-7.85,0-14.64,5.592-16.146,13.296l-16.89,86.435c-0.946,4.842,0.31,9.804,3.447,13.613
			c3.137,3.809,7.765,5.993,12.699,5.993h312.586c4.934,0,9.562-2.184,12.699-5.993
			C428.128,502.198,429.385,497.237,428.439,492.394z M212.595,365.31h86.809l11.763,27.352H200.833L212.595,365.31z
			 M413.41,496.469c-0.198,0.24-0.552,0.527-1.117,0.527H99.707c-0.565,0-0.919-0.287-1.117-0.527
			c-0.198-0.241-0.412-0.644-0.303-1.198l16.89-86.435c0.132-0.678,0.73-1.17,1.42-1.17c0.013,0,0,0,0.013,0h278.78h0.013
			c0.691,0,1.288,0.492,1.42,1.17l16.89,86.434C413.822,495.825,413.608,496.229,413.41,496.469z"/>
	</g>
</g>
<g>
	<g>
		<path d="M390.659,467.328l-6.641-33.984c-0.952-4.873-5.246-8.41-10.211-8.41H138.194c-4.964,0-9.258,3.536-10.212,8.409
			l-6.641,33.985c-0.598,3.062,0.195,6.2,2.179,8.609c1.984,2.41,4.912,3.791,8.033,3.791h248.894c3.12,0,6.048-1.382,8.032-3.79
			C390.462,473.529,391.257,470.391,390.659,467.328z M137.137,464.725l4.843-24.787h228.038l4.843,24.787H137.137z"/>
	</g>
</g>
<g>
	<g>
		<path d="M294.349,0h-53.505c-2.837,0-5.595,1.005-7.767,2.827L198.291,32.02c-3.174,2.663-3.587,7.395-0.924,10.569
			c2.662,3.173,7.394,3.587,10.569,0.924l33.972-28.509h49.519v215.915c0,4.143,3.359,7.502,7.502,7.502s7.502-3.359,7.502-7.502
			V12.082C306.43,5.42,301.01,0,294.349,0z"/>
	</g>
</g>
<g>
</g>
<g>
</g>
<g>
</g>
<g>
</g>
<g>
</g>
<g>
</g>
<g>
</g>
<g>
</g>
<g>
</g>
<g>
</g>
<g>
</g>
<g>
</g>
<g>
</g>
<g>
</g>
<g>
</g>
</svg>
