<?xml version="1.0" encoding="iso-8859-1"?>
<!-- Generator: Adobe Illustrator 19.0.0, SVG Export Plug-In . SVG Version: 6.00 Build 0)  -->
<svg version="1.1" id="Capa_1" xmlns="http://www.w3.org/2000/svg" xmlns:xlink="http://www.w3.org/1999/xlink" x="0px" y="0px"
	 viewBox="0 0 512 512" style="enable-background:new 0 0 512 512;" xml:space="preserve">
<g>
	<g>
		<path d="M435.894,419.679c4.213-1.977,6.706-7.48,6.706-14.272c0-11.435-7.738-15.39-18.141-15.39
			c-14.53,0-18.829,8.856-18.829,14.96c0,3.611,0.774,4.815,5.761,4.815c4.127,0,5.331-1.72,5.331-4.299
			c0-3.439,2.063-5.761,7.652-5.761c4.643,0,7.566,1.892,7.566,7.566c0,7.394-3.611,8.425-7.91,8.425
			c-2.493,0-3.353,2.236-3.353,4.385c0,2.235,0.86,4.385,3.353,4.385c5.503,0,9.458,1.806,9.458,8.168v1.634
			c0,6.534-2.751,9.285-9.2,9.285c-5.503,0-8.942-2.407-8.942-6.276c0-2.751-1.203-3.955-5.761-3.955
			c-3.869,0-5.331,0.946-5.331,4.385c0,6.965,5.675,15.649,19.775,15.649c11.349,0,20.635-5.245,20.635-19.087v-1.634
			C444.664,425.526,440.967,421.657,435.894,419.679z"/>
	</g>
</g>
<g>
	<g>
		<path d="M104.494,443.323H80.593v-2.064c0-8.941,27.255-14.96,27.255-33.531c0-10.92-9.286-17.454-19.259-17.454
			c-9.544,0-18.485,6.019-18.485,15.82c0,4.643,2.149,6.019,5.073,6.019c3.697,0,5.847-2.063,5.847-4.127
			c0-5.331,3.439-7.566,7.652-7.566c5.675,0,7.996,4.127,7.996,7.652c0,12.123-27.685,19.431-27.685,33.188v8.34
			c-0.001,2.15,2.922,3.525,4.899,3.525h30.608c1.892,0,3.525-2.407,3.525-4.987C108.019,445.558,106.386,443.323,104.494,443.323z"
			/>
	</g>
</g>
<g>
	<g>
		<path d="M258.23,363.82c-0.946,0-1.72,0.344-2.322,0.86l-10.145,7.738c-1.375,0.859-2.149,2.493-2.149,4.041
			c0,2.235,1.461,4.471,3.611,4.471c0.601,0,1.375-0.172,2.063-0.774l2.751-2.751v45.912c0,2.321,2.751,3.525,5.589,3.525
			c2.751,0,5.589-1.204,5.589-3.525v-55.885C263.217,365.195,260.552,363.82,258.23,363.82z"/>
	</g>
</g>
<g>
	<g>
		<path d="M498.057,331.529h-94.964c-4.145,0-7.505,3.36-7.505,7.505c0,4.145,3.36,7.505,7.505,7.505h93.594V496.99H346.235V346.539
			h21.938c4.145,0,7.505-3.36,7.505-7.505s-3.36-7.505-7.505-7.505h-21.938v-33.995c0-7.521-6.119-13.64-13.64-13.64h-5.134
			l-10.297-27.796c-1.56-4.204-5.62-7.029-10.104-7.029h-14.98c-7.196-15.016-11.359-30.592-13.772-43.958l41.972,26.594
			c3.482,2.206,7.887,2.068,11.223-0.356c3.335-2.423,4.83-6.57,3.807-10.564l-18.773-73.338l58.294-48.296
			c3.175-2.63,4.403-6.863,3.13-10.784c-1.273-3.921-4.755-6.624-8.87-6.886l-75.55-4.808L265.622,6.306
			C264.101,2.475,260.456,0,256.333,0c0,0-0.001,0-0.002,0c-4.123,0-7.768,2.477-9.287,6.308l-27.918,70.367l-14.131,0.9
			c-4.136,0.263-7.276,3.83-7.013,7.967c0.263,4.136,3.793,7.273,7.967,7.013l17.301-1.101c3.837-0.244,7.234-2.711,8.656-6.288
			l24.427-61.569l24.427,61.566c1.418,3.578,4.816,6.047,8.656,6.291l66.105,4.207l-51.01,42.26
			c-2.959,2.453-4.256,6.445-3.303,10.172l16.426,64.169l-55.952-35.453c-3.251-2.058-7.451-2.057-10.696,0.001l-55.952,35.452
			l16.428-64.172c0.953-3.727-0.346-7.72-3.307-10.172L157.147,95.66l13.758-0.876c4.136-0.263,7.276-3.83,7.012-7.966
			c-0.263-4.136-3.801-7.282-7.966-7.013l-26.375,1.678c-4.114,0.262-7.596,2.965-8.87,6.886c-1.273,3.921-0.045,8.154,3.129,10.783
			l58.296,48.297l-18.774,73.337c-1.022,3.994,0.472,8.141,3.807,10.564c1.758,1.277,3.811,1.92,5.871,1.92
			c1.85,0,3.706-0.519,5.352-1.563l41.39-26.225c-2.419,13.26-6.569,28.699-13.705,43.588H205.6c-4.484,0-8.545,2.825-10.105,7.032
			l-10.296,27.793h-5.795c-7.521,0-13.64,6.119-13.64,13.64v33.995H13.943c-7.521,0-13.64,6.119-13.64,13.64v153.19
			c0,7.521,6.119,13.64,13.64,13.64h484.114c7.521,0,13.64-6.119,13.64-13.64V345.169
			C511.697,337.648,505.577,331.529,498.057,331.529z M15.313,496.99V346.539h150.451V496.99H15.313z M250.573,194.838l5.761-3.65
			l5.202,3.296c1.796,14.967,5.707,34.859,14.094,54.585h-39.11C244.855,229.467,248.766,209.709,250.573,194.838z M208.546,264.078
			c0.008,0,0,0,0.008,0h95.552h0.008l7.34,19.816H201.206L208.546,264.078z M331.226,496.99H180.774V298.904h150.452V496.99z"/>
	</g>
</g>
<g>
	<g>
		<path d="M88.918,357.882h-0.831c-35.225,0-63.882,28.658-63.882,63.883c0,35.225,28.657,63.882,63.882,63.882h0.831
			c35.225,0,63.882-28.657,63.882-63.882C152.8,386.539,124.143,357.882,88.918,357.882z M88.918,470.638h-0.831
			c-26.948,0-48.873-21.924-48.873-48.873c0-26.949,21.925-48.874,48.873-48.874h0.831c26.948,0,48.873,21.924,48.873,48.874
			C137.791,448.714,115.867,470.638,88.918,470.638z"/>
	</g>
</g>
<g>
	<g>
		<path d="M257.324,334.064h-0.83c-35.225,0-63.883,28.657-63.883,63.882c0,35.226,28.658,63.883,63.883,63.883h0.83
			c35.225,0,63.882-28.658,63.882-63.883C321.206,362.722,292.549,334.064,257.324,334.064z M257.324,446.82h-0.83
			c-26.949,0-48.874-21.924-48.874-48.874c0-26.949,21.924-48.873,48.874-48.873h0.83c26.948,0,48.873,21.924,48.873,48.873
			C306.197,424.896,284.272,446.82,257.324,446.82z"/>
	</g>
</g>
<g>
	<g>
		<path d="M423.913,357.882h-0.831c-35.225,0-63.882,28.658-63.882,63.883c0,35.225,28.657,63.882,63.882,63.882h0.831
			c35.225,0,63.882-28.657,63.882-63.882C487.795,386.539,459.138,357.882,423.913,357.882z M423.913,470.638h-0.831
			c-26.948,0-48.873-21.924-48.873-48.873c0.001-26.949,21.925-48.874,48.873-48.874h0.831c26.948,0,48.873,21.924,48.873,48.874
			C472.786,448.714,450.862,470.638,423.913,470.638z"/>
	</g>
</g>
<g>
</g>
<g>
</g>
<g>
</g>
<g>
</g>
<g>
</g>
<g>
</g>
<g>
</g>
<g>
</g>
<g>
</g>
<g>
</g>
<g>
</g>
<g>
</g>
<g>
</g>
<g>
</g>
<g>
</g>
</svg>
