<?xml version="1.0" encoding="iso-8859-1"?>
<!-- Generator: Adobe Illustrator 19.0.0, SVG Export Plug-In . SVG Version: 6.00 Build 0)  -->
<svg version="1.1" id="Capa_1" xmlns="http://www.w3.org/2000/svg" xmlns:xlink="http://www.w3.org/1999/xlink" x="0px" y="0px"
	 viewBox="0 0 512 512" style="enable-background:new 0 0 512 512;" xml:space="preserve">
<g>
	<g>
		<path d="M496.095,290.946c-3.933-3.924-9.156-6.085-14.758-6.085l-25.652,0.056v-11.213c0-6.439-5.238-11.677-11.676-11.677
			H319.042c-6.438,0-11.677,5.238-11.677,11.677v11.213l-7.933-0.017v-25.351c3.948-2.626,7.788-5.545,11.516-8.755
			c17.954-15.459,29.221-37.82,31.554-62.192c13.11-0.37,23.66-11.15,23.66-24.348v-18.678c0-7.479-3.392-14.39-9.083-18.959V72.585
			C357.079,32.562,324.517,0,284.494,0h-84.341c-18.162,0-35.543,6.741-48.943,18.982c-13.31,12.159-21.587,28.701-23.306,46.578
			c-0.397,4.124,2.626,7.789,6.75,8.185c4.127,0.401,7.789-2.626,8.186-6.749c2.85-29.641,27.489-51.993,57.314-51.993h84.341
			c31.751,0,57.581,25.831,57.581,57.581v51.198c-3.892,0.666-8.776,1.985-13.542,4.594v-27.021
			c0-27.84-22.649-50.489-50.489-50.489c-3.291,0-6.198,2.146-7.169,5.29c-1.396,4.526-6.153,16.203-20.131,26.844
			c-18.1,13.78-44.595,20.871-78.748,21.075c-8.757,0.053-15.882,7.213-15.882,15.961v8.339c-4.764-2.607-9.65-3.925-13.543-4.591
			v-22.603c0-4.143-3.358-7.502-7.502-7.502c-4.144,0-7.502,3.359-7.502,7.502v25.434c-5.691,4.57-9.083,11.48-9.083,18.959v18.678
			c0,13.198,10.551,23.978,23.661,24.348c2.332,24.372,13.599,46.733,31.554,62.192c3.729,3.211,7.569,6.13,11.516,8.755v27.531
			c0,7.94-5.712,16.32-11.983,17.581c-0.188,0.038-0.375,0.083-0.56,0.135l-0.51,0.144l-3.329-2.033
			c-2.749-1.678-6.104-2.144-9.207-1.273l-35.333,9.914c-0.002,0.001-0.004,0.002-0.006,0.002l-40.862,11.466
			c-21.422,6.307-39.816,19.094-53.193,36.976c-13.376,17.882-20.446,39.139-20.446,61.471v64.212
			C9.785,500.19,21.595,512,36.111,512h412.426c14.515,0,26.325-11.81,26.325-26.325v-64.212c0-11.777-1.99-23.288-5.909-34.304
			c1.178-0.905,2.339-1.83,3.467-2.792c19.213-16.404,29.793-39.807,29.793-65.898v-12.776
			C502.213,300.119,500.04,294.882,496.095,290.946z M322.369,277.031h118.313v7.83h-64.885c-4.144,0-7.502,3.359-7.502,7.502
			s3.358,7.502,7.502,7.502h57.211v33.193c0,22.789-8.859,44.675-24.243,61.059c-0.758,0.805-1.529,1.599-2.316,2.375
			c-0.206,0.204-0.418,0.404-0.626,0.606c-0.782,0.757-1.576,1.502-2.384,2.229c-0.117,0.105-0.231,0.213-0.348,0.318
			c-0.913,0.813-1.845,1.602-2.788,2.374c-0.202,0.166-0.406,0.329-0.61,0.493c-0.963,0.775-1.937,1.535-2.928,2.266
			c-1.118,0.824-2.31,1.561-3.543,2.192c-0.164,0.084-0.337,0.16-0.504,0.241c-0.256,0.125-0.515,0.244-0.774,0.359
			c-1.103,0.482-2.279,0.901-3.519,1.246c-0.031,0.009-0.06,0.021-0.091,0.03c-0.115,0.034-0.227,0.073-0.34,0.111
			c-0.047,0.016-0.097,0.03-0.144,0.047c-4.156,1.064-8.506,1.063-12.661-0.004c-0.039-0.014-0.079-0.025-0.117-0.038
			c-0.118-0.041-0.236-0.082-0.356-0.117c-0.029-0.008-0.056-0.02-0.084-0.028c-0.808-0.225-1.519-0.453-2.162-0.688
			c-0.076-0.029-0.153-0.055-0.229-0.085c-0.188-0.071-0.373-0.143-0.548-0.216c-0.631-0.261-1.256-0.55-1.863-0.861
			c-0.748-0.383-1.469-0.814-2.17-1.264c-0.459-0.296-0.917-0.594-1.363-0.922c-0.004-0.003-0.009-0.007-0.013-0.01
			c-0.009-0.007-0.019-0.014-0.028-0.021c-0.553-0.408-1.097-0.826-1.64-1.246c-0.289-0.226-0.588-0.46-0.91-0.715
			c-0.019-0.015-0.036-0.029-0.055-0.044c-0.807-0.642-1.603-1.303-2.389-1.976c-0.106-0.091-0.213-0.182-0.318-0.273
			c-0.704-0.608-1.398-1.228-2.083-1.858c-0.111-0.102-0.224-0.202-0.334-0.305c-0.753-0.699-1.494-1.41-2.222-2.134
			c-0.221-0.22-0.434-0.447-0.652-0.669c-0.443-0.45-0.883-0.903-1.316-1.362c-15.414-16.39-24.291-38.298-24.291-61.111v-33.193
			h10.848c4.144,0,7.502-3.359,7.502-7.502s-3.358-7.502-7.502-7.502h-18.525V277.031z M394.873,460.842H368.18
			c6.09-12.571,9.267-25.391,10.899-36.09c0.815,0.049,1.631,0.082,2.448,0.082c0.817,0,1.632-0.033,2.448-0.082
			C385.606,435.452,388.784,448.271,394.873,460.842z M318.385,359.08c-1.28-0.904-2.524-1.854-3.713-2.87
			c-10.006-8.543-15.863-20.621-16.705-34.292l17.073,0.037v11.102C315.04,341.915,316.195,350.654,318.385,359.08z M315.04,299.938
			v7.014l-24.664-0.054c-0.006,0-0.011,0-0.017,0c-1.987,0-3.892,0.788-5.299,2.191c-1.41,1.407-2.203,3.318-2.203,5.31v4.067
			c0,19.545,7.839,37.002,22.072,49.154c6.209,5.301,13.365,9.419,21.302,12.28c1.525,3.025,3.204,5.972,5.017,8.838
			c-0.805-0.208-1.609-0.415-2.405-0.646c-1.063-0.309-2.117-0.638-3.162-0.987c-8.49-2.84-16.338-7.025-23.143-12.386
			c-0.052-0.043-0.105-0.087-0.158-0.129c-0.676-0.536-1.35-1.076-2.005-1.635c-0.011-0.01-0.022-0.02-0.033-0.029
			c-0.857-0.733-1.686-1.489-2.501-2.256c-0.253-0.238-0.503-0.479-0.752-0.721c-0.621-0.602-1.228-1.215-1.824-1.836
			c-0.211-0.221-0.429-0.436-0.638-0.66c-0.704-0.753-1.383-1.524-2.05-2.304c-0.311-0.365-0.613-0.736-0.916-1.106
			c-0.389-0.475-0.769-0.955-1.144-1.439c-0.322-0.416-0.647-0.831-0.959-1.254c-0.521-0.705-1.025-1.42-1.518-2.143
			c-0.365-0.536-0.715-1.082-1.064-1.628c-0.253-0.395-0.504-0.792-0.749-1.192c-0.324-0.531-0.645-1.064-0.955-1.603
			c-0.223-0.389-0.436-0.784-0.652-1.177c-0.508-0.925-0.995-1.863-1.461-2.813c-0.204-0.415-0.409-0.83-0.605-1.25
			c-0.258-0.555-0.508-1.114-0.752-1.676c-0.197-0.453-0.384-0.91-0.572-1.368c-0.328-0.802-0.642-1.611-0.94-2.428
			c-0.221-0.604-0.442-1.209-0.646-1.821c-0.184-0.55-0.356-1.106-0.527-1.662c-0.152-0.495-0.298-0.992-0.44-1.491
			c-0.163-0.574-0.327-1.148-0.476-1.728c-1.55-6.028-2.361-12.358-2.361-18.901v-12.776c0-1.582,0.592-3.009,1.71-4.125
			c1.117-1.114,2.54-1.703,4.128-1.703L315.04,299.938z M262.409,335.52l-20.086,12.266l-55.095-33.645
			c8.218-6.531,12.991-17.545,12.991-27.06v-19.22c13.065,5.917,27.109,9.004,42.02,9.171c0.028,0,0.056,0,0.084,0
			c0.028,0,0.056,0,0.084,0c14.911-0.166,28.956-3.254,42.021-9.171v17.007l-2.759-0.007c-5.554,0-10.778,2.161-14.713,6.085
			c-3.944,3.937-6.117,9.174-6.117,14.746v12.776C260.839,324.303,261.372,330.002,262.409,335.52z M266.643,350.515
			c3.833,9.994,9.513,19.123,16.877,27.034l-27.746-20.396L266.643,350.515z M183.489,239.424
			c-16.522-14.225-26.279-35.538-26.771-58.475c-0.087-4.08-3.42-7.341-7.5-7.341h-6.375c-5.157,0-9.354-4.196-9.354-9.354v-18.678
			c0-2.916,1.347-5.612,3.603-7.367c3.486,0.288,11.057,1.488,16.101,6.479c3.021,2.99,7.512,3.862,11.439,2.225
			c3.94-1.644,6.487-5.464,6.487-9.73v-17.144c0-0.525,0.435-0.955,0.968-0.958c78.443-0.469,103.452-35.479,111.016-52.85
			c17.179,2.463,30.426,17.277,30.426,35.126v35.826c0,4.267,2.547,8.086,6.487,9.73c3.927,1.638,8.418,0.766,11.439-2.225
			c5.042-4.991,12.614-6.191,16.1-6.478c2.256,1.755,3.603,4.45,3.603,7.367v18.678c0,5.158-4.196,9.354-9.354,9.354h-6.375
			c-4.08,0-7.412,3.262-7.5,7.341c-0.493,22.937-10.25,44.25-26.771,58.475c-4.225,3.638-8.616,6.838-13.16,9.604
			c-0.091,0.056-0.185,0.108-0.274,0.168c-13.787,8.326-28.997,12.634-45.402,12.832c-16.404-0.197-31.614-4.505-45.401-12.832
			c-0.089-0.06-0.183-0.112-0.274-0.168C192.104,246.262,187.714,243.063,183.489,239.424z M162.266,316.477l66.608,40.676
			l-28.348,20.839c-1.855,1.364-4.473,1.153-6.085-0.491l-53.887-54.932L162.266,316.477z M321.755,469.412l-5.39,27.584H95.147
			v-77.02c0-4.143-3.358-7.502-7.502-7.502s-7.502,3.359-7.502,7.502v77.02H36.111c-6.243,0-11.322-5.079-11.322-11.322v-64.212
			c0-19.067,6.037-37.216,17.457-52.484c11.421-15.268,27.125-26.185,45.324-31.543l36.503-10.242l59.658,60.814
			c3.801,3.874,8.919,5.863,14.063,5.863c4.071,0,8.158-1.246,11.619-3.79l32.91-24.193l32.911,24.193
			c3.462,2.544,7.548,3.79,11.619,3.79c4.053,0,8.08-1.254,11.469-3.673c0.431,0.292,0.857,0.589,1.293,0.873
			c0.446,0.291,0.902,0.567,1.354,0.849c0.609,0.382,1.217,0.766,1.836,1.134c0.476,0.282,0.96,0.551,1.441,0.825
			c0.611,0.348,1.22,0.697,1.84,1.031c0.498,0.268,1.004,0.524,1.507,0.784c0.617,0.318,1.234,0.636,1.859,0.941
			c0.516,0.252,1.039,0.492,1.561,0.734c0.626,0.291,1.252,0.581,1.885,0.858c0.532,0.233,1.07,0.456,1.607,0.68
			c0.636,0.265,1.273,0.527,1.915,0.778c0.546,0.213,1.095,0.418,1.646,0.622c0.646,0.239,1.294,0.474,1.946,0.699
			c0.557,0.193,1.117,0.378,1.679,0.561c0.657,0.214,1.316,0.422,1.979,0.622c0.567,0.171,1.136,0.337,1.707,0.498
			c0.667,0.188,1.338,0.369,2.01,0.544c0.576,0.15,1.153,0.295,1.733,0.435c0.677,0.163,1.356,0.316,2.037,0.464
			c0.584,0.127,1.169,0.253,1.757,0.37c0.685,0.137,1.374,0.262,2.064,0.384c0.59,0.105,1.181,0.209,1.774,0.304
			c0.696,0.111,1.396,0.208,2.096,0.304c0.594,0.082,1.187,0.165,1.783,0.236c0.707,0.084,1.416,0.153,2.126,0.223
			c0.596,0.058,1.191,0.12,1.79,0.168c0.168,0.013,0.335,0.035,0.503,0.047c0.157,0.159,0.32,0.312,0.478,0.47
			c0.289,0.29,0.583,0.575,0.876,0.861c0.393,0.384,0.785,0.768,1.184,1.146c0.459,0.436,0.927,0.864,1.395,1.292
			c0.255,0.232,0.507,0.467,0.764,0.697c0.585,0.525,1.18,1.04,1.778,1.552c0.16,0.137,0.318,0.276,0.479,0.411
			c0.669,0.566,1.348,1.121,2.033,1.671c0.076,0.061,0.149,0.125,0.225,0.185c0.032,0.026,0.064,0.052,0.098,0.077
			c0.022,0.017,0.041,0.032,0.062,0.049c0.309,0.246,0.619,0.491,0.932,0.733c0.719,0.561,1.368,1.055,1.967,1.495
			c0.022,0.017,0.045,0.034,0.068,0.051c2.249,1.657,4.619,3.055,7.072,4.196c-0.103,0.732-0.208,1.467-0.328,2.221
			c-0.004,0.023-0.008,0.046-0.012,0.069c-0.134,0.84-0.28,1.696-0.436,2.561c-0.047,0.26-0.098,0.524-0.146,0.785
			c-0.121,0.65-0.248,1.306-0.382,1.968c-0.06,0.294-0.12,0.589-0.183,0.886c-0.146,0.693-0.3,1.393-0.461,2.097
			c-0.056,0.243-0.108,0.485-0.166,0.729c-0.226,0.962-0.464,1.931-0.72,2.91c-0.006,0.021-0.012,0.043-0.018,0.065
			c-0.247,0.94-0.511,1.888-0.787,2.84c-0.075,0.259-0.155,0.52-0.232,0.78c-0.219,0.737-0.448,1.477-0.686,2.219
			c-0.093,0.289-0.186,0.577-0.281,0.867c-0.26,0.788-0.532,1.578-0.814,2.37c-0.075,0.211-0.146,0.422-0.223,0.633
			c-0.373,1.024-0.761,2.051-1.173,3.078c-0.015,0.037-0.031,0.075-0.047,0.112c-0.386,0.959-0.792,1.919-1.214,2.878
			c-0.112,0.256-0.23,0.511-0.345,0.766c-0.344,0.765-0.7,1.528-1.068,2.29c-0.132,0.274-0.265,0.548-0.4,0.822
			c-0.41,0.827-0.835,1.652-1.275,2.474c-0.092,0.172-0.179,0.345-0.272,0.516c-0.519,0.956-1.062,1.906-1.623,2.851H332.16
			C327.1,460.842,322.724,464.447,321.755,469.412z M331.653,496.996l4.132-21.15h91.482l4.133,21.15H331.653z M459.861,485.675
			h-0.003c0,6.243-5.078,11.322-11.321,11.322h-1.849l-1.262-6.456l-4.128-21.132c-0.069-0.355-0.161-0.7-0.264-1.04
			c-0.027-0.088-0.059-0.173-0.088-0.26c-0.082-0.245-0.169-0.487-0.268-0.723c-0.047-0.113-0.097-0.225-0.148-0.336
			c-0.093-0.204-0.193-0.404-0.299-0.6c-0.063-0.119-0.126-0.238-0.194-0.355c-0.109-0.186-0.228-0.366-0.348-0.544
			c-0.115-0.172-0.234-0.341-0.359-0.506c-0.142-0.187-0.286-0.372-0.439-0.549c-0.125-0.144-0.26-0.28-0.394-0.418
			c-0.099-0.102-0.197-0.204-0.3-0.302c-0.143-0.136-0.289-0.266-0.44-0.394c-0.107-0.091-0.217-0.179-0.328-0.266
			c-0.153-0.12-0.306-0.24-0.465-0.351c-0.139-0.097-0.284-0.186-0.428-0.276c-0.127-0.08-0.246-0.169-0.377-0.244
			c-0.054-0.031-0.113-0.052-0.167-0.082c-0.29-0.16-0.589-0.305-0.894-0.437c-0.116-0.05-0.231-0.099-0.348-0.144
			c-0.365-0.143-0.735-0.273-1.117-0.376c-0.028-0.008-0.057-0.012-0.086-0.019c-0.367-0.096-0.743-0.167-1.123-0.222
			c-0.101-0.015-0.202-0.029-0.303-0.04c-0.405-0.047-0.814-0.08-1.229-0.08h-19.008c-0.562-0.945-1.104-1.896-1.623-2.852
			c-0.093-0.17-0.179-0.342-0.27-0.512c-0.441-0.824-0.867-1.651-1.278-2.481c-0.134-0.271-0.265-0.542-0.396-0.813
			c-0.37-0.765-0.727-1.532-1.073-2.3c-0.114-0.253-0.23-0.505-0.341-0.758c-0.422-0.96-0.829-1.921-1.216-2.882
			c-0.015-0.037-0.031-0.074-0.046-0.111c-0.411-1.027-0.8-2.053-1.173-3.078c-0.077-0.213-0.149-0.425-0.225-0.638
			c-0.281-0.789-0.552-1.577-0.811-2.362c-0.097-0.294-0.191-0.586-0.285-0.879c-0.235-0.734-0.461-1.466-0.678-2.194
			c-0.08-0.269-0.163-0.539-0.24-0.807c-0.268-0.924-0.523-1.843-0.763-2.754c-0.013-0.051-0.028-0.102-0.042-0.153
			c-0.254-0.969-0.489-1.928-0.713-2.88c-0.063-0.267-0.12-0.531-0.181-0.797c-0.155-0.678-0.304-1.352-0.444-2.019
			c-0.067-0.317-0.132-0.632-0.195-0.946c-0.128-0.633-0.249-1.259-0.365-1.88c-0.054-0.29-0.111-0.583-0.162-0.871
			c-0.143-0.796-0.277-1.582-0.401-2.356c-0.017-0.105-0.036-0.211-0.052-0.316c-0.115-0.73-0.218-1.442-0.318-2.15
			c2.453-1.141,4.822-2.539,7.072-4.196c0.991-0.73,1.962-1.482,2.922-2.244c0.275-0.218,0.546-0.441,0.819-0.662
			c0.714-0.579,1.419-1.166,2.116-1.762c0.276-0.236,0.551-0.47,0.825-0.708c0.824-0.721,1.638-1.452,2.438-2.197
			c0.164-0.153,0.329-0.305,0.492-0.459c0.777-0.734,1.541-1.48,2.294-2.235c0.143-0.143,0.292-0.279,0.434-0.423
			c0.239-0.018,0.477-0.043,0.716-0.062c0.202-0.017,0.403-0.035,0.604-0.052c13.033-1.139,25.477-4.733,36.602-10.567
			c2.613,8.391,3.934,17.095,3.934,25.976V485.675z M462.677,372.956c-2.29,1.955-4.718,3.761-7.256,5.426
			c-0.381,0.251-0.768,0.494-1.154,0.738c-0.532,0.335-1.066,0.667-1.608,0.99c-0.259,0.155-0.519,0.308-0.78,0.46
			c-0.787,0.456-1.581,0.903-2.387,1.332c-0.044,0.024-0.088,0.049-0.133,0.072c-5.481,2.905-11.384,5.17-17.555,6.763
			c1.812-2.866,3.491-5.812,5.017-8.837c0.362-0.13,0.717-0.271,1.076-0.406c0.585-0.222,1.167-0.449,1.744-0.686
			c0.484-0.198,0.966-0.399,1.443-0.606c0.411-0.179,0.817-0.366,1.223-0.552c2.145-0.98,4.223-2.06,6.231-3.238
			c0.085-0.05,0.17-0.098,0.255-0.148c0.71-0.421,1.41-0.855,2.103-1.301c0.102-0.065,0.202-0.132,0.303-0.197
			c2.416-1.572,4.735-3.276,6.923-5.145c14.233-12.152,22.072-29.608,22.072-49.154V314.4c0-1.993-0.792-3.903-2.203-5.31
			c-1.407-1.404-3.312-2.191-5.299-2.191c-0.006,0-0.011,0-0.017,0l-24.664,0.054v-7.014l33.371-0.073
			c1.576,0,2.998,0.589,4.114,1.702c1.119,1.117,1.711,2.544,1.711,4.126v12.774h0.002
			C487.209,340.098,478.497,359.449,462.677,372.956z M446.493,350.636c0.998-5.768,1.519-11.646,1.519-17.578v-11.102l17.073-0.037
			c-0.792,12.863-6.026,24.313-14.977,32.738C448.933,353.284,447.732,351.938,446.493,350.636z"/>
	</g>
</g>
<g>
</g>
<g>
</g>
<g>
</g>
<g>
</g>
<g>
</g>
<g>
</g>
<g>
</g>
<g>
</g>
<g>
</g>
<g>
</g>
<g>
</g>
<g>
</g>
<g>
</g>
<g>
</g>
<g>
</g>
</svg>
