<?xml version="1.0" encoding="iso-8859-1"?>
<!-- Generator: Adobe Illustrator 19.0.0, SVG Export Plug-In . SVG Version: 6.00 Build 0)  -->
<svg version="1.1" id="Capa_1" xmlns="http://www.w3.org/2000/svg" xmlns:xlink="http://www.w3.org/1999/xlink" x="0px" y="0px"
	 viewBox="0 0 511.998 511.998" style="enable-background:new 0 0 511.998 511.998;" xml:space="preserve">
<g>
	<g>
		<path d="M330.787,99.256c-1.769-3.747-6.242-5.351-9.985-3.582l-6.715,3.169l-3.049-6.461c-1.769-3.747-6.242-5.35-9.985-3.582
			c-3.747,1.768-5.351,6.238-3.583,9.985l3.049,6.461L277.75,115.99l-3.049-6.461c-1.769-3.747-6.243-5.351-9.985-3.582
			c-3.747,1.768-5.351,6.238-3.583,9.985l3.049,6.461l-22.768,10.744l-3.049-6.461c-1.769-3.747-6.243-5.35-9.985-3.582
			c-3.747,1.768-5.351,6.238-3.583,9.985l3.049,6.461l-22.769,10.745l-3.049-6.461c-1.769-3.747-6.242-5.351-9.985-3.582
			c-3.747,1.768-5.351,6.238-3.583,9.985l3.049,6.461l-6.714,3.168c-3.747,1.768-5.351,6.238-3.583,9.985
			c1.28,2.712,3.976,4.302,6.789,4.302c1.072,0,2.162-0.231,3.196-0.719l6.715-3.169l3.049,6.461
			c1.28,2.712,3.976,4.302,6.789,4.302c1.072,0,2.162-0.231,3.196-0.719c3.747-1.768,5.351-6.238,3.583-9.985l-3.049-6.461
			l22.769-10.745l3.049,6.461c1.28,2.712,3.976,4.302,6.789,4.302c1.072,0,2.162-0.231,3.196-0.719
			c3.747-1.768,5.351-6.238,3.583-9.985l-3.049-6.461l22.768-10.744l3.049,6.46c1.28,2.712,3.976,4.302,6.789,4.302
			c1.072,0,2.162-0.231,3.196-0.719c3.747-1.768,5.351-6.238,3.583-9.985l-3.049-6.461l22.769-10.744l3.049,6.457
			c1.28,2.712,3.976,4.302,6.789,4.302c1.072,0,2.162-0.231,3.196-0.719c3.747-1.768,5.351-6.238,3.583-9.985l-3.049-6.461
			l6.714-3.168C330.951,107.473,332.555,103.003,330.787,99.256z"/>
	</g>
</g>
<g>
	<g>
		<path d="M303.287,272.297v-27.895c1.25-0.567,2.508-1.12,3.747-1.704c42.299-19.959,80.454-51.606,104.682-86.825
			c26.11-37.956,32.944-74.85,19.242-103.887c-13.702-29.037-46.525-47.218-92.423-51.194
			c-42.581-3.691-91.272,5.641-133.571,25.602c-42.297,19.96-80.452,51.607-104.68,86.825
			c-26.111,37.955-32.945,74.849-19.242,103.886s46.525,47.218,92.422,51.194c6.116,0.53,12.352,0.791,18.683,0.791
			c1.358,0,2.727-0.039,4.093-0.063c0.063,0.002,0.126,0.013,0.189,0.013c0.138,0,0.277-0.015,0.415-0.023
			c3.934-0.079,7.896-0.256,11.882-0.532v3.81c0,12.532,6.936,23.469,17.168,29.19c-2.138,15.165-4.948,29.887-8.381,43.831
			c-0.99,4.023,1.468,8.086,5.49,9.077c0.603,0.148,1.205,0.219,1.799,0.219c3.371,0,6.436-2.29,7.278-5.71
			c3.394-13.789,6.197-28.299,8.367-43.226c0.565,0.029,1.133,0.043,1.705,0.043h27.71c0.573,0,1.143-0.015,1.71-0.043
			c6.301,43.513,17.639,81.666,33.769,113.72h-98.65c5.521-10.997,10.522-22.803,14.917-35.249c1.38-3.906-0.669-8.191-4.575-9.57
			c-3.908-1.381-8.191,0.669-9.57,4.575c-5.104,14.452-11.053,27.96-17.694,40.245h-39.72c-6.756,0-12.599,4.813-13.894,11.442
			l-12.562,64.289c-0.814,4.167,0.268,8.437,2.967,11.714c2.699,3.277,6.682,5.157,10.928,5.157H374.53
			c4.247,0,8.229-1.88,10.929-5.158c2.699-3.278,3.78-7.548,2.964-11.714l-12.563-64.286c-1.296-6.63-7.139-11.443-13.894-11.443
			H322.26c-17.539-32.396-29.677-72.015-36.127-117.919C296.357,295.756,303.287,284.824,303.287,272.297z M361.269,434.4
			C361.269,434.4,361.269,434.4,361.269,434.4l12.232,62.599h-234.99l12.232-62.599c0.008,0,0,0,0.008,0H361.269z M417.391,58.388
			c8.361,17.716,7.052,39.57-3.428,63.218L366.414,20.844C391.33,27.788,409.032,40.672,417.391,58.388z M94.609,210.704
			c-8.36-17.716-7.051-39.57,3.43-63.218l47.548,100.763C120.67,241.304,102.969,228.42,94.609,210.704z M174.759,253.354
			c-3.69-0.32-7.279-0.739-10.766-1.251l-57.228-121.276c1.822-3.017,3.779-6.054,5.878-9.105c1.835-2.667,3.764-5.31,5.766-7.93
			l66.136,140.154C181.251,253.825,177.984,253.634,174.759,253.354z M269.861,290.72h-27.71c-10.159,0-18.424-8.265-18.424-18.423
			v-5.294c21.661-2.775,43.625-8.301,64.557-16.329v21.623h0.001C288.285,282.456,280.02,290.72,269.861,290.72z M292.852,232.643
			c-24.653,10.643-51.197,17.541-77.017,20.204c-0.257,0.013-0.51,0.039-0.76,0.078c-4.682,0.468-9.34,0.8-13.957,0.985
			l-72.145-152.886c22.012-24.64,50.969-46.233,82.394-61.062c31.444-14.838,66.534-23.444,99.564-24.763l11.637,24.661
			c1.28,2.712,3.976,4.302,6.789,4.302c1.072,0,2.162-0.231,3.196-0.719c3.747-1.768,5.351-6.238,3.583-9.985l-8.639-18.308
			c3.281,0.121,6.534,0.312,9.745,0.59c3.69,0.32,7.277,0.739,10.764,1.251l57.228,121.277c-1.822,3.017-3.779,6.054-5.878,9.105
			c-1.827,2.656-3.748,5.287-5.74,7.896l-42.584-90.243c-1.769-3.747-6.243-5.35-9.985-3.582c-3.747,1.768-5.351,6.238-3.583,9.985
			l45.59,96.613c-22.015,24.652-50.983,46.257-82.421,61.092c-2.561,1.208-5.146,2.374-7.752,3.499
			C292.871,232.635,292.861,232.639,292.852,232.643z"/>
	</g>
</g>
<g>
	<g>
		<path d="M359.312,471.317l-3.245-16.603c-1.282-6.554-7.06-11.312-13.738-11.312H169.683c-6.68-0.001-12.458,4.758-13.738,11.313
			l-3.244,16.602c-0.805,4.12,0.264,8.342,2.933,11.582c2.669,3.241,6.607,5.099,10.805,5.099h179.134
			c4.199,0,8.138-1.859,10.806-5.1C359.048,479.656,360.117,475.435,359.312,471.317z M167.658,472.996l2.851-14.593h170.994
			l2.851,14.593H167.658z"/>
	</g>
</g>
<g>
</g>
<g>
</g>
<g>
</g>
<g>
</g>
<g>
</g>
<g>
</g>
<g>
</g>
<g>
</g>
<g>
</g>
<g>
</g>
<g>
</g>
<g>
</g>
<g>
</g>
<g>
</g>
<g>
</g>
</svg>
