<?xml version="1.0" encoding="iso-8859-1"?>
<!-- Generator: Adobe Illustrator 19.0.0, SVG Export Plug-In . SVG Version: 6.00 Build 0)  -->
<svg version="1.1" id="Capa_1" xmlns="http://www.w3.org/2000/svg" xmlns:xlink="http://www.w3.org/1999/xlink" x="0px" y="0px"
	 viewBox="0 0 512 512" style="enable-background:new 0 0 512 512;" xml:space="preserve">
<g>
	<g>
		<path d="M360.173,474.346l-4.279-21.897c-1.043-5.341-5.75-9.218-11.193-9.218H167.299c-5.443-0.001-10.15,3.876-11.193,9.217
			l-4.279,21.897c-0.657,3.357,0.214,6.797,2.389,9.438s5.383,4.155,8.804,4.155h185.96c3.421,0,6.629-1.515,8.804-4.155
			C359.959,481.142,360.83,477.702,360.173,474.346z M167.433,472.899l2.858-14.63h171.418l2.858,14.63H167.433z"/>
	</g>
</g>
<g>
	<g>
		<path d="M303.397,305.933v-4.243c21.173-6.806,40.786-18.209,57.59-33.769c30.287-28.043,47.841-66.202,49.428-107.449
			c1.587-41.246-12.983-80.641-41.027-110.928C341.346,19.258,303.186,1.704,261.94,0.118c-41.24-1.59-80.641,12.984-110.927,41.026
			c-30.287,28.043-47.841,66.202-49.428,107.448c-1.587,41.246,12.983,80.641,41.027,110.928
			c18.329,19.796,40.981,34.149,65.991,42.162v4.25c0,12.442,6.822,23.314,16.917,29.094c-1.822,9.519-4.104,18.812-6.815,27.689
			c-1.213,3.972,1.023,8.175,4.995,9.388c0.731,0.224,1.471,0.33,2.199,0.33c3.219,0,6.199-2.085,7.189-5.325
			c2.724-8.918,5.034-18.222,6.908-27.741c0.7,0.044,1.404,0.074,2.115,0.074h27.779c0.708,0,1.41-0.03,2.107-0.073
			c5.892,30.055,15.912,56.802,29.855,79.8h-91.705c3.509-5.8,6.789-11.854,9.793-18.12c1.796-3.745,0.215-8.236-3.53-10.031
			c-3.742-1.794-8.235-0.216-10.031,3.53c-4.173,8.704-8.896,16.969-14.067,24.621h-42.534c-6.772,0-12.63,4.824-13.929,11.47
			l-12.593,64.447c-0.818,4.177,0.266,8.458,2.972,11.744c2.706,3.286,6.699,5.171,10.956,5.171h237.63
			c4.257,0,8.25-1.885,10.956-5.171c2.705-3.286,3.789-7.566,2.972-11.743l-12.592-64.447c-1.299-6.647-7.157-11.471-13.93-11.471
			h-42.51c-15.882-23.47-27.047-51.728-33.229-84.142C296.576,329.247,303.397,318.375,303.397,305.933z M361.523,434.207
			l12.262,62.754H138.214l12.262-62.754H361.523z M356.149,251.628l-63.762-68.865c32.851-26.491,59.461-17.383,90.071-6.894
			c3.537,1.212,7.155,2.444,10.799,3.625C388.372,206.675,375.588,231.626,356.149,251.628z M259.001,23.042
			c-0.68-2.63-1.37-5.303-2.037-7.981c1.464,0.011,2.931,0.028,4.399,0.085c34.715,1.336,67.005,15.207,91.732,39.238
			l-34.086,31.561c-3.047,2.822-3.23,7.579-0.408,10.627c1.481,1.6,3.497,2.411,5.519,2.411c1.827,0,3.66-0.662,5.107-2.002
			l34.086-31.561c22.06,26.5,33.411,59.76,32.075,94.476c-0.057,1.47-0.144,2.935-0.245,4.396c-2.622-0.872-5.237-1.766-7.81-2.648
			c-30.746-10.535-65.461-22.428-105.185,10.063l-15.522-16.764l36.916-34.181c3.047-2.822,3.23-7.579,0.408-10.627
			c-2.82-3.047-7.578-3.231-10.626-0.409l-36.915,34.181l-15.522-16.764C276.332,90.032,267.142,54.506,259.001,23.042z
			 M241.656,15.764c0.898,3.724,1.849,7.426,2.786,11.045c8.106,31.326,15.144,58.557-13.793,89.276l-63.761-68.863
			C188.324,29.376,214.18,18.545,241.656,15.764z M155.851,57.437l63.513,68.596c-31.346,23.305-57.184,14.457-86.758,4.325
			c-4.308-1.476-8.72-2.977-13.17-4.381C124.771,100.192,137.272,76.554,155.851,57.437z M116.612,149.17
			c0.105-2.728,0.297-5.438,0.555-8.133c3.545,1.149,7.088,2.355,10.564,3.547c15.699,5.379,32.427,11.111,50.333,11.111
			c16.192,0,33.348-4.697,51.562-18.578l15.747,17.007l-96.686,89.523C126.627,217.146,115.277,183.886,116.612,149.17z
			 M217.532,288.663c-21.923-6.245-41.987-17.81-58.627-33.981l96.686-89.523l15.746,17.006
			c-32.092,35.995-23.188,70.428-15.273,101.021c0.921,3.56,1.851,7.186,2.725,10.809c-0.885,0.017-1.77,0.031-2.657,0.031
			c-1.825,0-3.661-0.035-5.495-0.106c-10.948-0.421-21.652-2.098-31.957-4.938C218.31,288.848,217.927,288.738,217.532,288.663z
			 M269.889,324.402H242.11c-10.184,0-18.469-8.285-18.469-18.469v-0.258c8.612,1.825,17.441,2.927,26.418,3.273
			c2.034,0.078,4.062,0.117,6.087,0.117c10.94,0,21.722-1.139,32.211-3.365v0.233h0.001
			C288.358,316.117,280.073,324.402,269.889,324.402z M273.98,292.885c-1.058-4.545-2.215-9.058-3.356-13.466
			c-7.831-30.266-14.667-56.709,10.977-86.169l63.512,68.594c-15.017,12.502-32.201,21.567-50.594,26.828
			c-0.423,0.077-0.832,0.192-1.227,0.337C286.979,290.752,280.53,292.048,273.98,292.885z"/>
	</g>
</g>
<g>
</g>
<g>
</g>
<g>
</g>
<g>
</g>
<g>
</g>
<g>
</g>
<g>
</g>
<g>
</g>
<g>
</g>
<g>
</g>
<g>
</g>
<g>
</g>
<g>
</g>
<g>
</g>
<g>
</g>
</svg>
