<?xml version="1.0" encoding="iso-8859-1"?>
<!-- Generator: Adobe Illustrator 19.0.0, SVG Export Plug-In . SVG Version: 6.00 Build 0)  -->
<svg version="1.1" id="Capa_1" xmlns="http://www.w3.org/2000/svg" xmlns:xlink="http://www.w3.org/1999/xlink" x="0px" y="0px"
	 viewBox="0 0 511.998 511.998" style="enable-background:new 0 0 511.998 511.998;" xml:space="preserve">
<g>
	<g>
		<path d="M497.55,6.901C495.362,2.644,491.028,0,486.242,0H356.676c-4.094,0-7.96,1.988-10.342,5.316L256,131.576L165.666,5.317
			C163.284,1.988,159.418,0,155.324,0H25.756c-4.786,0-9.12,2.645-11.308,6.901c-2.189,4.257-1.819,9.32,0.966,13.214
			l153.89,215.092c-2.687,2.135-6.006,3.46-9.561,3.66c-17.432,0.981-30.926,15.968-30.08,33.407
			c0.32,6.605-3.272,12.827-9.152,15.851c-15.526,7.987-21.758,27.166-13.891,42.753c2.979,5.903,2.227,13.048-1.914,18.204
			c-10.936,13.611-8.828,33.667,4.699,44.707c5.123,4.181,7.343,11.014,5.655,17.408c-4.453,16.882,5.63,34.346,22.477,38.93
			c6.38,1.736,11.188,7.076,12.248,13.602c2.798,17.234,19.112,29.087,36.367,26.423c6.535-1.008,13.1,1.914,16.722,7.445
			c9.566,14.607,29.291,18.8,43.971,9.346c5.559-3.579,12.745-3.579,18.304,0c5.313,3.421,11.286,5.055,17.199,5.055
			c10.427,0,20.668-5.08,26.772-14.401c3.622-5.532,10.186-8.453,16.722-7.445c17.254,2.666,33.569-9.189,36.367-26.422
			c1.06-6.527,5.867-11.867,12.248-13.603c16.848-4.584,26.93-22.048,22.476-38.93c-1.686-6.394,0.533-13.227,5.656-17.408
			c13.527-11.04,15.635-31.096,4.699-44.707c-4.141-5.155-4.892-12.301-1.914-18.203c7.867-15.587,1.635-34.766-13.891-42.754
			c-5.88-3.025-9.472-9.247-9.152-15.852c0.846-17.439-12.647-32.425-30.079-33.406c-3.555-0.2-6.875-1.525-9.562-3.66
			L496.585,20.114C499.369,16.221,499.739,11.158,497.55,6.901z M437.489,15.006l-132.45,185.112l-15.226-21.281L407.037,15.006
			H437.489z M357.853,15.006h30.732L280.588,165.943l-15.362-21.472L357.853,15.006z M154.147,15.006l139.887,195.519
			c-5.554,1.224-11.45-0.429-15.557-4.505c-6.17-6.122-14.265-9.194-22.369-9.221L126.033,15.006H154.147z M107.582,15.006
			l132.928,185.78c-2.504,1.386-4.862,3.124-6.988,5.233c-4.393,4.359-10.834,5.947-16.71,4.207L77.13,15.006H107.582z
			 M30.21,15.006h28.468l138.506,193.577c-7.668,1.774-14.585,6.347-19.173,13.004L30.21,15.006z M351.411,253.85
			c9.235,0.52,16.383,8.459,15.935,17.697c-0.605,12.468,6.176,24.213,17.276,29.923c8.225,4.231,11.526,14.391,7.359,22.649
			c-5.624,11.143-4.207,24.631,3.612,34.362c5.793,7.211,4.677,17.835-2.489,23.684c-9.671,7.893-13.862,20.791-10.678,32.861
			c2.36,8.943-2.982,18.194-11.906,20.623c-12.044,3.277-21.119,13.356-23.121,25.677c-1.481,9.13-10.131,15.407-19.265,13.998
			c-12.339-1.904-24.726,3.611-31.566,14.054c-5.066,7.738-15.514,9.959-23.293,4.951c-5.248-3.379-11.261-5.068-17.276-5.068
			c-6.014,0-12.029,1.69-17.276,5.068c-7.777,5.007-18.227,2.786-23.293-4.952c-6.84-10.441-19.232-15.959-31.566-14.053
			c-9.141,1.41-17.783-4.868-19.265-13.999c-2.002-12.321-11.077-22.399-23.121-25.676c-8.924-2.429-14.266-11.68-11.907-20.623
			c3.185-12.069-1.006-24.968-10.677-32.861c-7.166-5.849-8.282-16.474-2.489-23.684c7.818-9.731,9.236-23.219,3.612-34.363
			c-4.167-8.257-0.866-18.417,7.359-22.648c11.1-5.71,17.881-17.455,17.276-29.923c-0.448-9.239,6.7-17.177,15.935-17.697
			c9.822-0.553,18.704-5.635,24.245-13.454c0.104-0.133,0.2-0.27,0.294-0.409c1.362-1.989,2.519-4.142,3.414-6.447
			c3.348-8.622,13.107-12.968,21.755-9.686c11.669,4.427,24.935,1.608,33.797-7.184c6.565-6.515,17.249-6.515,23.814,0
			c8.862,8.792,22.129,11.613,33.798,7.184c8.644-3.281,18.406,1.063,21.754,9.686c0.228,0.586,0.491,1.153,0.743,1.723
			c3.037,6.87,9.761,12.146,9.761,12.146C338.925,251.165,344.964,253.486,351.411,253.85z M333.986,221.587
			c-4.146-6.015-10.195-10.323-16.98-12.407L455.941,15.006h25.847L333.986,221.587z"/>
	</g>
</g>
<g>
	<g>
		<path d="M375.542,335.799c-4.329-28.267-18.679-54.196-40.407-73.012c-21.955-19.012-50.059-29.482-79.136-29.482
			c-29.083-0.001-57.193,10.474-79.149,29.493c-21.731,18.824-36.078,44.763-40.398,73.038c-0.626,4.096,2.187,7.924,6.284,8.55
			c0.384,0.059,0.766,0.087,1.143,0.087c3.643,0,6.84-2.658,7.407-6.371c3.782-24.755,16.35-47.47,35.389-63.962
			c19.229-16.657,43.849-25.83,69.324-25.83c25.47,0,50.085,9.169,69.312,25.82c19.038,16.485,31.609,39.193,35.397,63.94
			c0.627,4.095,4.46,6.912,8.552,6.281C373.356,343.724,376.169,339.895,375.542,335.799z"/>
	</g>
</g>
<g>
	<g>
		<path d="M369.263,364.104c-4.088-0.624-7.924,2.187-8.55,6.284c-3.782,24.755-16.35,47.47-35.389,63.962
			c-19.229,16.657-43.849,25.83-69.324,25.83c-25.42,0-50-9.138-69.21-25.731c-19.017-16.426-31.609-39.066-35.456-63.748
			c-0.637-4.094-4.468-6.898-8.569-6.258c-4.094,0.638-6.896,4.475-6.257,8.569c4.394,28.194,18.768,54.046,40.473,72.794
			c21.935,18.947,49.998,29.381,79.018,29.381c29.083,0,57.193-10.474,79.149-29.494c21.731-18.824,36.078-44.763,40.398-73.038
			C376.173,368.557,373.359,364.729,369.263,364.104z"/>
	</g>
</g>
<g>
	<g>
		<path d="M268.211,347.698c6.688-3.205,11.147-11.705,11.147-23.269c0-18.392-11.704-24.802-28.007-24.802
			c-22.99,0-29.26,14.491-29.26,23.548c0,5.294,1.115,6.827,7.664,6.827c5.295,0,6.967-2.369,6.967-5.992
			c0-5.713,3.205-11.426,14.491-11.426c9.057,0,13.934,4.181,13.934,14.352c0,12.68-5.992,15.327-14.491,15.327
			c-3.483,0-4.737,2.926-4.737,5.991c0,2.926,1.254,5.852,4.737,5.852c10.172,0,17,4.04,17,15.187v2.647
			c0,12.123-5.435,17.278-16.862,17.279c-11.287,0-16.442-5.991-16.442-12.122c0-3.761-1.533-5.573-7.664-5.573
			c-5.016,0-6.827,1.393-6.827,6.27c0,11.007,9.057,24.523,30.793,24.523c17.557,0,31.769-8.221,31.769-30.375v-2.647
			C282.423,357.451,276.432,350.902,268.211,347.698z"/>
	</g>
</g>
<g>
</g>
<g>
</g>
<g>
</g>
<g>
</g>
<g>
</g>
<g>
</g>
<g>
</g>
<g>
</g>
<g>
</g>
<g>
</g>
<g>
</g>
<g>
</g>
<g>
</g>
<g>
</g>
<g>
</g>
</svg>
