<?xml version="1.0" encoding="iso-8859-1"?>
<!-- Generator: Adobe Illustrator 19.0.0, SVG Export Plug-In . SVG Version: 6.00 Build 0)  -->
<svg version="1.1" id="Capa_1" xmlns="http://www.w3.org/2000/svg" xmlns:xlink="http://www.w3.org/1999/xlink" x="0px" y="0px"
	 viewBox="0 0 512.001 512.001" style="enable-background:new 0 0 512.001 512.001;" xml:space="preserve">
<g>
	<g>
		<path d="M433.682,0H78.321C69.366,0,62.08,7.286,62.08,16.241v152.846c0,6.217,3.624,11.967,9.23,14.649l172.271,82.442
			l-33.048,66.963l-80.126,11.643c-4.077,0.592-7.4,3.393-8.673,7.312c-1.273,3.918-0.232,8.138,2.719,11.014l57.979,56.516
			l-2.942,17.15c-0.7,4.084,2.042,7.962,6.126,8.663c4.088,0.703,7.962-2.042,8.663-6.126l3.32-19.359
			c0.597-3.485-0.558-7.04-3.09-9.509l-53.402-52.054l73.8-10.724c3.5-0.508,6.524-2.705,8.09-5.878l33.004-66.873l33.005,66.874
			c1.565,3.172,4.59,5.369,8.089,5.877l73.8,10.724l-53.403,52.055c-2.531,2.468-3.687,6.023-3.089,9.509l12.607,73.501
			l-66.008-34.702c-3.132-1.647-6.87-1.646-10,0l-66.009,34.703l3.231-18.835c0.7-4.084-2.042-7.962-6.126-8.663
			c-4.085-0.7-7.962,2.043-8.663,6.126l-4.69,27.344c-0.696,4.06,0.942,8.087,4.275,10.509c1.883,1.368,4.087,2.063,6.305,2.063
			c1.708,0,3.424-0.412,5.01-1.245l71.666-37.679l71.667,37.678c3.646,1.917,7.981,1.603,11.315-0.818
			c3.332-2.422,4.971-6.448,4.274-10.509l-13.687-79.802l57.979-56.515c2.95-2.875,3.992-7.096,2.719-11.014
			c-1.273-3.919-4.596-6.721-8.673-7.313l-80.126-11.643l-33.048-66.963l172.271-82.442c5.607-2.683,9.23-8.433,9.23-14.649V16.241
			C449.922,7.286,442.637,0,433.682,0z M182.445,220.287h-0.001L77.786,170.201c-0.427-0.204-0.702-0.642-0.702-1.115V16.241
			c0-0.682,0.555-1.237,1.237-1.237h104.124V220.287z M434.216,170.202l-104.658,50.085V84.33c0-4.143-3.359-7.502-7.502-7.502
			s-7.502,3.359-7.502,7.502v143.137l-56.873,27.217c-0.55-0.086-1.109-0.139-1.68-0.139c-0.57,0-1.129,0.053-1.679,0.139
			l-56.874-27.218V15.004h117.105v34.28c0,4.143,3.359,7.502,7.502,7.502s7.502-3.359,7.502-7.502v-34.28h104.124
			c0.682,0,1.236,0.555,1.236,1.237v152.846h0.001C434.918,169.56,434.643,169.998,434.216,170.202z"/>
	</g>
</g>
<g>
</g>
<g>
</g>
<g>
</g>
<g>
</g>
<g>
</g>
<g>
</g>
<g>
</g>
<g>
</g>
<g>
</g>
<g>
</g>
<g>
</g>
<g>
</g>
<g>
</g>
<g>
</g>
<g>
</g>
</svg>
