<?xml version="1.0" encoding="iso-8859-1"?>
<!-- Generator: Adobe Illustrator 19.0.0, SVG Export Plug-In . SVG Version: 6.00 Build 0)  -->
<svg version="1.1" id="Capa_1" xmlns="http://www.w3.org/2000/svg" xmlns:xlink="http://www.w3.org/1999/xlink" x="0px" y="0px"
	 viewBox="0 0 512.001 512.001" style="enable-background:new 0 0 512.001 512.001;" xml:space="preserve">
<g>
	<g>
		<path d="M508.109,329.306c-0.035-0.029-0.07-0.059-0.106-0.087c-35.583-28.882-74.558-50.817-115.289-65.846l29.157-28.422
			c2.775-2.705,3.755-6.674,2.558-10.359c-1.197-3.685-4.324-6.32-8.157-6.876l-104.484-15.182l-46.726-94.677
			c-1.714-3.474-5.186-5.632-9.06-5.633c0,0,0,0-0.001,0c-3.874,0-7.346,2.158-9.061,5.632l-46.726,94.677L95.732,217.715
			c-3.835,0.557-6.961,3.192-8.158,6.877c-1.198,3.685-0.218,7.654,2.556,10.358l29.158,28.422
			c-40.732,15.029-79.707,36.964-115.29,65.847c-0.036,0.029-0.071,0.058-0.106,0.087c-3.04,2.561-4.452,6.335-3.688,9.851
			c0.683,3.14,3.041,5.629,6.129,6.489c15.426,4.355,29.285,9.119,42.269,14.539c1.855,15.018,4.258,29.491,7.324,44.13
			c0.008,0.041,0.018,0.082,0.027,0.122c0.695,3.065,2.891,5.493,5.872,6.494c0.949,0.319,1.938,0.474,2.928,0.474
			c2.217,0,4.44-0.779,6.227-2.248c26.484-21.25,55.382-37.57,85.868-48.697l-8.961,52.247c-0.655,3.819,0.885,7.606,4.02,9.883
			c3.133,2.277,7.212,2.571,10.641,0.769l93.453-49.131l93.451,49.131c1.492,0.784,3.106,1.172,4.713,1.172
			c2.086,0,4.159-0.654,5.93-1.941c3.135-2.278,4.675-6.065,4.019-9.882l-8.961-52.248c30.487,11.126,59.385,27.448,85.872,48.699
			c2.585,2.123,6.077,2.803,9.152,1.771c2.982-1.001,5.176-3.429,5.872-6.493c0.009-0.041,0.018-0.082,0.026-0.122
			c3.063-14.631,5.464-29.096,7.319-44.103c14.461-5.948,28.648-10.838,42.249-14.559c3.113-0.867,5.471-3.356,6.153-6.496
			C512.562,335.641,511.148,331.866,508.109,329.306z M107.731,231.141l97.193-14.123c3.294-0.477,6.139-2.544,7.611-5.527
			l43.466-88.074l43.467,88.072c1.473,2.985,4.318,5.051,7.61,5.528l97.195,14.123l-27.442,26.75
			c-78.666-25.301-162.994-25.301-241.66-0.001L107.731,231.141z M260.705,359.741c-2.944-1.55-6.462-1.55-9.406-0.001
			l-86.933,45.704l8.635-50.344c26.764-8.019,54.602-12.139,82.999-12.139c28.399,0,56.239,4.12,83.004,12.139l8.634,50.344
			L260.705,359.741z M454.211,347.775c-2.926,1.248-4.949,3.976-5.298,7.133c-1.478,12.604-3.34,24.776-5.657,36.954
			c-26.457-20.063-55.351-35.692-86.011-46.514c-3.047-1.076-6.11-2.085-9.181-3.062c-0.016-0.005-0.032-0.01-0.047-0.015
			c-29.871-9.497-60.775-14.322-92.017-14.323c-0.002,0,0.001,0-0.001,0c-31.236,0-62.139,4.825-92.005,14.319
			c-0.019,0.007-0.039,0.012-0.059,0.019c-3.07,0.976-6.133,1.986-9.18,3.061c-30.66,10.821-59.553,26.451-86.008,46.514
			c-2.318-12.177-4.18-24.351-5.657-36.955c-0.349-3.161-2.375-5.89-5.271-7.121c-11.345-4.888-23.293-9.27-36.283-13.297
			c139.449-107.38,329.441-107.39,468.9-0.025C478.648,338.133,466.515,342.59,454.211,347.775z"/>
	</g>
</g>
<g>
	<g>
		<path d="M502.131,199.88c-0.041-0.162-0.09-0.333-0.137-0.475c-1.701-5.253-6.15-9.009-11.615-9.803L337.34,167.364
			L268.898,28.686c-2.441-4.944-7.383-8.015-12.897-8.015c-5.514,0-10.456,3.072-12.897,8.017l-68.441,138.678l-153.062,22.24
			c-0.214,0.032-0.42,0.071-0.626,0.118c-0.43,0.08-0.899,0.179-1.429,0.336c-0.265,0.079-0.519,0.169-0.777,0.271
			c-0.403,0.141-0.801,0.294-1.179,0.469c-0.224,0.104-0.44,0.217-0.655,0.34c-0.295,0.152-0.698,0.367-1.146,0.662
			c-0.129,0.086-0.256,0.173-0.379,0.265c-0.448,0.313-0.848,0.626-1.22,0.954c-0.057,0.051-0.114,0.103-0.171,0.155
			c-0.438,0.399-0.843,0.814-1.159,1.183c-0.081,0.091-0.163,0.19-0.242,0.29c-1.167,1.413-2.045,3.013-2.609,4.758
			c-1.697,5.241-0.301,10.885,3.644,14.728l49.695,48.441c2.968,2.893,7.72,2.833,10.614-0.136
			c2.893-2.968,2.833-7.721-0.135-10.614l-48.782-47.551l155.682-22.622c2.445-0.355,4.558-1.891,5.652-4.106l69.624-141.072
			l69.623,141.072c1.094,2.215,3.207,3.751,5.652,4.106l155.682,22.622l-49.365,48.118c-2.968,2.893-3.029,7.646-0.136,10.614
			c1.472,1.51,3.423,2.267,5.376,2.267c1.888,0,3.779-0.709,5.239-2.131l50.279-49.01c0.507-0.495,0.981-1.029,1.415-1.595
			c0.162-0.212,0.31-0.428,0.453-0.654c0.166-0.238,0.427-0.617,0.68-1.073c0.279-0.497,0.526-1.016,0.738-1.543
			c0.031-0.071,0.061-0.141,0.088-0.208c0.015-0.039,0.03-0.077,0.045-0.116c0.193-0.507,0.318-0.946,0.406-1.276
			c0.067-0.219,0.127-0.439,0.175-0.651c0.131-0.582,0.202-1.105,0.246-1.49c0.021-0.156,0.04-0.317,0.052-0.455
			C502.796,203.354,502.627,201.63,502.131,199.88z"/>
	</g>
</g>
<g>
	<g>
		<path d="M413.752,474.502l-12.893-75.177c-0.702-4.086-4.585-6.834-8.667-6.129c-4.086,0.701-6.83,4.581-6.129,8.667
			l12.677,73.919l-139.246-73.206c-2.185-1.149-4.798-1.149-6.986,0l-139.246,73.206l12.643-73.709
			c0.701-4.086-2.043-7.966-6.129-8.667c-4.09-0.703-7.966,2.043-8.667,6.129l-12.859,74.97c-0.057,0.331-0.091,0.654-0.117,1
			l0.005-0.071c-0.049,0.4-0.086,0.801-0.095,1.19c-0.006,0.229-0.001,0.454,0.011,0.68c0.005,0.351,0.021,0.852,0.093,1.44
			c0.023,0.184,0.053,0.366,0.088,0.545c0.064,0.401,0.156,0.902,0.315,1.483c0.026,0.093,0.056,0.192,0.088,0.291
			c0.348,1.168,0.841,2.279,1.447,3.277c0.043,0.072,0.088,0.144,0.135,0.216c0.646,1.029,1.42,1.973,2.3,2.807
			c0.026,0.024,0.052,0.048,0.078,0.072c0.436,0.408,0.901,0.791,1.383,1.14c2.52,1.828,5.466,2.756,8.433,2.756
			c2.286,0,4.583-0.551,6.706-1.667l136.881-71.965l136.887,71.966c0.628,0.33,1.282,0.615,1.947,0.85
			c0.594,0.21,1.209,0.382,1.831,0.512c0.062,0.014,0.123,0.027,0.186,0.039c0.537,0.105,1.091,0.177,1.615,0.215
			c0.146,0.015,0.292,0.026,0.425,0.033c0.585,0.029,1.096,0.009,1.474-0.014c0.182-0.005,0.37-0.016,0.526-0.03
			c0.552-0.051,1.034-0.135,1.429-0.215c0.177-0.03,0.362-0.066,0.512-0.102c1.142-0.268,2.259-0.682,3.316-1.228
			c0.091-0.045,0.182-0.092,0.27-0.139c0.471-0.256,0.871-0.516,1.163-0.714c0.154-0.098,0.317-0.206,0.442-0.298
			C412.491,485.332,414.687,479.94,413.752,474.502z"/>
	</g>
</g>
<g>
</g>
<g>
</g>
<g>
</g>
<g>
</g>
<g>
</g>
<g>
</g>
<g>
</g>
<g>
</g>
<g>
</g>
<g>
</g>
<g>
</g>
<g>
</g>
<g>
</g>
<g>
</g>
<g>
</g>
</svg>
