<?xml version="1.0" encoding="iso-8859-1"?>
<!-- Generator: Adobe Illustrator 19.0.0, SVG Export Plug-In . SVG Version: 6.00 Build 0)  -->
<svg version="1.1" id="Capa_1" xmlns="http://www.w3.org/2000/svg" xmlns:xlink="http://www.w3.org/1999/xlink" x="0px" y="0px"
	 viewBox="0 0 511.999 511.999" style="enable-background:new 0 0 511.999 511.999;" xml:space="preserve">
<g>
	<g>
		<path d="M257.087,152.566c-0.925,0-1.681,0.336-2.269,0.84l-9.914,7.562c-1.344,0.84-2.1,2.437-2.1,3.949
			c-0.001,2.185,1.427,4.37,3.528,4.37c0.588,0,1.344-0.168,2.016-0.756l2.689-2.689v44.867c0,2.269,2.689,3.445,5.461,3.445
			c2.689,0,5.462-1.177,5.462-3.445v-54.614C261.96,153.91,259.354,152.566,257.087,152.566z"/>
	</g>
</g>
<g>
	<g>
		<path d="M361.101,474.084l-4.32-22.113c-1.046-5.351-5.762-9.234-11.214-9.234H166.43c-5.452,0-10.168,3.884-11.214,9.235
			l-4.321,22.112c-0.657,3.364,0.216,6.81,2.394,9.455c2.178,2.645,5.393,4.162,8.82,4.162h187.779c3.427,0,6.642-1.518,8.82-4.163
			C360.886,480.892,361.759,477.446,361.101,474.084z M166.454,472.697l2.922-14.955H342.62l2.922,14.955H166.454z"/>
	</g>
</g>
<g>
	<g>
		<path d="M429.167,128.325c-0.024-0.319-0.059-0.639-0.108-0.958c-0.001-0.008-0.002-0.014-0.003-0.022
			c0-0.004-0.001-0.007-0.002-0.011c-0.016-0.104-0.03-0.208-0.049-0.312c-0.002-0.012-0.004-0.024-0.006-0.036
			c-0.004-0.022-0.012-0.045-0.016-0.067c-0.069-0.361-0.157-0.72-0.259-1.078c-0.008-0.027-0.011-0.05-0.018-0.077
			c-0.029-0.108-0.061-0.213-0.093-0.315c-0.004-0.012-0.006-0.024-0.01-0.036c-0.002-0.006-0.004-0.011-0.006-0.016
			c-1.454-4.471-5.246-7.668-9.9-8.344l-104.821-15.231l-40.805-82.68l-6.07-12.3l-0.002-0.004c-0.266-0.539-0.568-1.051-0.9-1.536
			c-0.011-0.017-0.024-0.032-0.036-0.049c-0.329-0.475-0.688-0.922-1.074-1.34c-0.008-0.009-0.014-0.019-0.022-0.027
			c-0.025-0.027-0.054-0.05-0.08-0.077c-0.241-0.254-0.492-0.496-0.752-0.728c-0.053-0.047-0.105-0.096-0.16-0.143
			c-0.292-0.251-0.595-0.488-0.909-0.709c-0.042-0.03-0.086-0.057-0.128-0.086c-0.306-0.21-0.62-0.405-0.944-0.586
			c-0.03-0.017-0.059-0.035-0.089-0.051c-0.36-0.198-0.731-0.376-1.111-0.536c-0.009-0.004-0.017-0.009-0.026-0.012
			c-0.017-0.007-0.035-0.012-0.052-0.019c-0.33-0.137-0.667-0.259-1.01-0.367c-0.036-0.011-0.072-0.024-0.109-0.035
			c-0.358-0.109-0.721-0.204-1.09-0.28c-0.026-0.005-0.053-0.009-0.079-0.014c-0.314-0.063-0.632-0.111-0.953-0.149
			c-0.098-0.011-0.195-0.021-0.293-0.031c-0.281-0.026-0.564-0.043-0.849-0.051c-0.067-0.002-0.135-0.007-0.202-0.007
			c-0.044,0-0.088-0.005-0.132-0.005c-0.187,0-0.37,0.014-0.553,0.028c-4.333,0.207-8.413,2.691-10.446,6.81l-19.449,39.407
			c-1.834,3.716-0.308,8.214,3.407,10.048c3.715,1.833,8.214,0.308,10.048-3.407l9.49-19.23v85.129
			c-8.399,0.969-16.319,3.53-23.438,7.396l-13.223-18.24l11.459-23.218c1.834-3.716,0.308-8.215-3.407-10.048
			c-3.718-1.835-8.215-0.308-10.048,3.407l-11.717,23.741L93.284,117.054c-0.125,0.019-0.261,0.043-0.397,0.07
			c-0.046,0.008-0.085,0.018-0.13,0.026c-0.153,0.029-0.306,0.058-0.458,0.093c-0.249,0.055-0.484,0.113-0.687,0.174
			c-0.002,0-0.004,0.001-0.006,0.002c-0.019,0.006-0.037,0.012-0.056,0.018c-0.104,0.031-0.209,0.063-0.314,0.099
			c-0.027,0.009-0.051,0.021-0.077,0.03c-0.432,0.144-0.854,0.306-1.263,0.494c-0.011,0.005-0.024,0.009-0.035,0.014
			c-0.064,0.03-0.124,0.064-0.186,0.095c-0.246,0.12-0.488,0.247-0.725,0.382c-0.054,0.03-0.109,0.063-0.167,0.097
			c-0.134,0.079-0.267,0.158-0.397,0.243c-0.018,0.011-0.033,0.019-0.051,0.031c-0.047,0.031-0.091,0.065-0.138,0.097
			c-0.243,0.163-0.479,0.335-0.708,0.515c-0.026,0.02-0.052,0.041-0.079,0.062c-0.139,0.11-0.276,0.222-0.41,0.339
			c-0.013,0.011-0.025,0.02-0.038,0.031c-0.031,0.027-0.061,0.054-0.091,0.082c-0.028,0.025-0.056,0.051-0.084,0.078
			c-0.011,0.01-0.021,0.021-0.032,0.031c-0.15,0.138-0.297,0.28-0.441,0.426c-0.038,0.038-0.073,0.076-0.11,0.114
			c-0.132,0.138-0.262,0.277-0.388,0.422c-0.004,0.004-0.008,0.009-0.012,0.013c-0.026,0.03-0.053,0.065-0.079,0.096
			c-0.195,0.23-0.382,0.467-0.56,0.712c-0.017,0.023-0.034,0.047-0.05,0.07c-0.114,0.159-0.226,0.32-0.333,0.485
			c-0.012,0.018-0.023,0.033-0.035,0.051c-0.024,0.038-0.048,0.077-0.072,0.116c-0.008,0.013-0.014,0.027-0.022,0.04
			c-0.237,0.382-0.457,0.776-0.652,1.187c-0.004,0.008-0.009,0.015-0.013,0.023c-0.01,0.021-0.02,0.041-0.029,0.062
			c-0.027,0.058-0.048,0.119-0.075,0.177c-0.089,0.199-0.176,0.4-0.255,0.605c-0.043,0.111-0.081,0.222-0.121,0.333
			c-0.039,0.109-0.082,0.215-0.118,0.325c-0.017,0.053-0.027,0.107-0.043,0.161c-1.342,4.354-0.176,9.157,3.151,12.4l75.849,73.935
			l-17.907,104.406c-0.012,0.071-0.018,0.144-0.029,0.215c-0.034,0.224-0.067,0.447-0.089,0.67
			c-0.007,0.071-0.008,0.145-0.014,0.217c-0.018,0.224-0.035,0.447-0.041,0.67c0,0.016-0.003,0.032-0.003,0.049
			c-0.001,0.071,0.004,0.141,0.004,0.211c-0.003,0.51,0.022,1.016,0.082,1.516c0.002,0.015,0.001,0.03,0.003,0.045
			c0.007,0.06,0.02,0.118,0.029,0.177c0.069,0.5,0.165,0.993,0.294,1.477c0.004,0.013,0.005,0.028,0.009,0.041
			c0.012,0.043,0.024,0.087,0.037,0.131c0.019,0.064,0.039,0.131,0.061,0.198c0.003,0.009,0.006,0.017,0.009,0.026
			c0.476,1.569,1.268,3.031,2.34,4.302c0.005,0.006,0.011,0.013,0.016,0.019c0.196,0.231,0.401,0.456,0.615,0.674
			c0.026,0.026,0.051,0.054,0.077,0.08c0.196,0.196,0.4,0.385,0.611,0.569c0.04,0.035,0.078,0.072,0.118,0.106
			c0.244,0.207,0.495,0.408,0.758,0.599c0,0,0.001,0,0.001,0.001c2.148,1.558,4.661,2.35,7.191,2.35c1.949,0,3.908-0.47,5.719-1.421
			l53.409-28.079c3.485,4.33,7.982,7.726,13.048,9.907c-3.403,30.367-12.701,71.513-36.968,107.374h-42.994
			c-6.795,0-12.673,4.84-13.976,11.509l-12.717,65.079c-0.819,4.192,0.269,8.487,2.984,11.784c2.715,3.296,6.721,5.187,10.992,5.187
			h239.954c4.271,0,8.278-1.891,10.993-5.188s3.802-7.592,2.983-11.784l-12.717-65.079c-1.304-6.669-7.182-11.509-13.976-11.509
			h-42.976c-7.869-11.636-14.687-24.608-20.266-38.649c-1.53-3.85-5.889-5.734-9.743-4.202c-3.85,1.53-5.732,5.892-4.202,9.742
			c4.673,11.762,10.176,22.839,16.398,33.108h-92.914c21.693-35.762,30.498-74.936,33.929-104.61h25.037
			c1.44,12.436,3.606,24.686,6.48,36.507c0.834,3.431,3.903,5.732,7.284,5.732c0.586,0,1.182-0.069,1.778-0.214
			c4.026-0.978,6.497-5.036,5.518-9.062c-2.808-11.553-4.911-23.546-6.279-35.729c5.063-2.181,9.559-5.576,13.043-9.905
			l10.753,5.653l42.662,22.429c0.402,0.211,0.819,0.393,1.239,0.558c0.079,0.031,0.157,0.064,0.236,0.093
			c0.059,0.022,0.116,0.048,0.175,0.069c0.327,0.115,0.658,0.209,0.992,0.295c0.127,0.033,0.255,0.062,0.382,0.091
			c0.346,0.078,0.695,0.145,1.046,0.191c0.258,0.035,0.517,0.051,0.776,0.069c0.16,0.011,0.319,0.025,0.48,0.029
			c0.13,0.004,0.259,0.023,0.388,0.023c1.96,0,3.908-0.481,5.686-1.42c0.048-0.025,0.1-0.048,0.146-0.073
			c0.056-0.03,0.11-0.069,0.165-0.101c0.244-0.138,0.484-0.285,0.721-0.44c0.021-0.014,0.043-0.025,0.064-0.039
			c0.143-0.091,0.29-0.19,0.411-0.278c3.809-2.764,5.682-7.363,4.886-12.001l-17.903-104.396l75.841-73.926
			c0.002-0.002,0.004-0.005,0.007-0.007l0.002-0.002c0.001-0.001,0.001-0.002,0.002-0.002c0.198-0.193,0.372-0.378,0.516-0.539
			c0.231-0.254,0.453-0.514,0.66-0.783c0.005-0.006,0.012-0.014,0.017-0.021c0.143-0.187,0.281-0.38,0.415-0.58
			c0.101-0.148,0.194-0.301,0.287-0.453c0.026-0.042,0.052-0.079,0.077-0.122c0.015-0.024,0.028-0.048,0.043-0.072
			c0.04-0.067,0.081-0.133,0.119-0.201c0.01-0.017,0.022-0.035,0.031-0.052c0.065-0.116,0.112-0.216,0.167-0.323
			c0.206-0.395,0.392-0.799,0.552-1.212c0.008-0.019,0.019-0.043,0.026-0.062c0.035-0.092,0.058-0.17,0.088-0.256
			c0.156-0.437,0.288-0.881,0.392-1.332c0.004-0.017,0.011-0.038,0.014-0.054c0.005-0.023,0.006-0.045,0.011-0.067
			c0.109-0.492,0.189-0.991,0.236-1.494c0-0.003,0.001-0.007,0.001-0.01c0.003-0.037,0.007-0.074,0.01-0.111
			c0.005-0.058,0.006-0.118,0.01-0.176c0.032-0.471,0.039-0.944,0.016-1.419c0.003-0.018,0.003-0.036,0.003-0.051
			C429.183,128.497,429.173,128.41,429.167,128.325z M362.626,433.445c-0.003,0,0.005,0,0.002,0l12.418,63.549H136.948
			l12.418-63.549H362.626z M394.331,128.674l-79.954,26.053c-3.74-7.586-8.914-14.339-15.168-19.909l13.095-18.064L394.331,128.674z
			 M300.161,107.939l-13.223,18.24c-7.119-3.866-15.04-6.426-23.438-7.396V33.656L300.161,107.939z M255.998,133.342
			c27.595,0,50.046,22.451,50.046,50.046c0,27.595-22.451,50.046-50.046,50.046c-27.596,0-50.046-22.451-50.046-50.046
			C205.951,155.793,228.402,133.342,255.998,133.342z M199.691,116.755l13.096,18.064c-6.254,5.57-11.428,12.322-15.168,19.909
			l-79.954-26.053L199.691,116.755z M113.131,142.978l79.468,25.895c-1.069,4.671-1.653,9.525-1.653,14.516
			c0,3.775,0.342,7.471,0.962,11.072l-19.499,6.299L113.131,142.978z M177.039,215.033l19.107-6.173
			c3.509,8.213,8.67,15.552,15.049,21.624l-48.163,66.218L177.039,215.033z M175.211,305.468l47.967-65.949
			c7.596,4.459,16.169,7.419,25.318,8.475v18.946L175.211,305.468z M270.023,298.825h-28.05c-4.715,0-9.187-1.813-12.585-4.887
			l26.609-13.99l26.61,13.99C279.209,297.012,274.738,298.825,270.023,298.825z M263.5,266.94v-18.946
			c9.149-1.056,17.721-4.016,25.317-8.475l47.967,65.949L263.5,266.94z M300.802,230.484c6.379-6.072,11.54-13.41,15.049-21.624
			l19.107,6.173l14.008,81.67L300.802,230.484z M339.585,200.76l-19.499-6.299c0.62-3.601,0.962-7.296,0.962-11.072
			c0-4.991-0.584-9.845-1.653-14.516l79.468-25.895L339.585,200.76z"/>
	</g>
</g>
<g>
</g>
<g>
</g>
<g>
</g>
<g>
</g>
<g>
</g>
<g>
</g>
<g>
</g>
<g>
</g>
<g>
</g>
<g>
</g>
<g>
</g>
<g>
</g>
<g>
</g>
<g>
</g>
<g>
</g>
</svg>
