<?xml version="1.0" encoding="iso-8859-1"?>
<!-- Generator: Adobe Illustrator 19.0.0, SVG Export Plug-In . SVG Version: 6.00 Build 0)  -->
<svg xmlns="http://www.w3.org/2000/svg" xmlns:xlink="http://www.w3.org/1999/xlink" version="1.1" id="Layer_1" x="0px" y="0px" viewBox="0 0 512 512" style="enable-background:new 0 0 512 512;" xml:space="preserve">
<path style="fill:#C1E2FF;" d="M255.113,154.224c-42.519,0-77.112-34.592-77.112-77.112S212.594,0,255.113,0  s77.112,34.592,77.112,77.112S297.633,154.224,255.113,154.224z M255.113,15.399c-34.029,0-61.713,27.685-61.713,61.713  s27.684,61.713,61.713,61.713s61.713-27.685,61.713-61.713S289.142,15.399,255.113,15.399z"/>
<path style="fill:#4E6284;" d="M390.58,210.954l-20.455-20.455l13.507-13.507c4.695-4.695,12.307-4.695,17.002,0l3.453,3.453  c4.695,4.695,4.695,12.307,0,17.002L390.58,210.954z"/>
<path style="fill:#213244;" d="M407.239,186.753L407.239,186.753c-7.46,7.46-19.555,7.46-27.015,0l-3.177-3.177l-6.923,6.923  l20.455,20.455l13.507-13.507c2.947-2.947,4.042-7.042,3.289-10.845C407.329,186.651,407.288,186.705,407.239,186.753z"/>
<path style="fill:#4E6284;" d="M119.008,211.341l-13.582-13.582c-4.741-4.741-4.741-12.428,0-17.169l3.515-3.515  c4.741-4.741,12.428-4.741,17.169,0l13.582,13.582L119.008,211.341z"/>
<g>
	<path style="fill:#213244;" d="M134.166,185.132l-2.474,2.474c-7.501,7.501-19.663,7.501-27.164,0l0,0   c-0.774-0.774-1.409-1.633-1.93-2.538c-1.538,4.285-0.604,9.258,2.829,12.691l13.582,13.582l20.683-20.683L134.166,185.132z"/>
	<rect x="240.65" y="117.27" style="fill:#213244;" width="28.928" height="32.594"/>
</g>
<circle style="fill:#0098FF;" cx="256" cy="329.63" r="182.37"/>
<path style="fill:#0073D1;" d="M73.703,332.435C75.203,431.86,156.254,512,256.035,512c99.782,0,180.833-80.14,182.333-179.565  H73.703z"/>
<path style="fill:#4E6284;" d="M277.267,118.945H232.96c-5.209,0-9.432-4.223-9.432-9.432V91.167c0-5.209,4.223-9.432,9.432-9.432  h44.307c5.209,0,9.432,4.223,9.432,9.432v18.346C286.699,114.722,282.476,118.945,277.267,118.945z"/>
<path style="fill:#213244;" d="M277.267,81.735h-17.122c5.209,0,9.432,4.223,9.432,9.432v18.346c0,5.209-4.223,9.432-9.432,9.432  h17.122c5.21,0,9.433-4.223,9.433-9.432V91.167C286.699,85.958,282.476,81.735,277.267,81.735z"/>
<circle style="fill:#0073D1;" cx="255.11" cy="329.63" r="162.24"/>
<path style="fill:#0098FF;" d="M417.277,332.435H92.878c1.497,88.306,73.537,159.432,162.199,159.432  S415.779,420.74,417.277,332.435z"/>
<circle style="fill:#FFDFAC;" cx="256.04" cy="329.63" r="147.35"/>
<path style="fill:#FBCE7D;" d="M347.65,214.222c19.382,24.947,30.929,56.285,30.929,90.323c0,81.381-65.972,147.354-147.354,147.354  c-34.628,0-66.462-11.951-91.615-31.944c26.959,34.699,69.081,57.031,116.425,57.031c81.381,0,147.354-65.973,147.354-147.354  C403.389,282.879,381.611,241.217,347.65,214.222z"/>
<g>
	<circle style="fill:#4E6284;" cx="256.04" cy="329.63" r="19.21"/>
	<path style="fill:#4E6284;" d="M256.031,335.384c-1.741,0-3.491-0.587-4.931-1.79l-80.072-66.878   c-3.264-2.726-3.699-7.581-0.973-10.845s7.582-3.698,10.844-0.974l80.072,66.878c3.264,2.726,3.699,7.581,0.973,10.845   C260.422,334.443,258.234,335.384,256.031,335.384z"/>
	<path style="fill:#4E6284;" d="M256.035,335.384c-4.253,0-7.699-3.447-7.699-7.699v-78.01c0-4.252,3.447-7.699,7.699-7.699   c4.253,0,7.699,3.447,7.699,7.699v78.01C263.735,331.937,260.288,335.384,256.035,335.384z"/>
</g>
<g>
	<circle style="fill:#213244;" cx="141.74" cy="329.63" r="7.699"/>
	<circle style="fill:#213244;" cx="370.88" cy="329.63" r="7.699"/>
	<circle style="fill:#213244;" cx="256.04" cy="215.06" r="7.699"/>
	<circle style="fill:#213244;" cx="256.04" cy="444.2" r="7.699"/>
</g>
<g>
</g>
<g>
</g>
<g>
</g>
<g>
</g>
<g>
</g>
<g>
</g>
<g>
</g>
<g>
</g>
<g>
</g>
<g>
</g>
<g>
</g>
<g>
</g>
<g>
</g>
<g>
</g>
<g>
</g>
</svg>
