<?xml version="1.0" encoding="iso-8859-1"?>
<!-- Generator: Adobe Illustrator 19.0.0, SVG Export Plug-In . SVG Version: 6.00 Build 0)  -->
<svg xmlns="http://www.w3.org/2000/svg" xmlns:xlink="http://www.w3.org/1999/xlink" version="1.1" id="Layer_1" x="0px" y="0px" viewBox="0 0 512.001 512.001" style="enable-background:new 0 0 512.001 512.001;" xml:space="preserve">
<path style="fill:#FF9090;" d="M119.358,505.912L6.089,392.643c-8.118-8.118-8.118-21.279,0-29.397L363.246,6.089  c8.118-8.118,21.279-8.118,29.397,0l113.269,113.269c8.118,8.118,8.118,21.279,0,29.397L148.755,505.912  C140.637,514.029,127.476,514.029,119.358,505.912z"/>
<path style="fill:#F37569;" d="M6.089,119.358L119.358,6.089c8.118-8.118,21.279-8.118,29.397,0l357.158,357.158  c8.118,8.118,8.118,21.279,0,29.397L392.643,505.912c-8.118,8.118-21.279,8.118-29.397,0L6.089,148.755  C-2.028,140.637-2.028,127.476,6.089,119.358z"/>
<path style="fill:#FFDFAC;" d="M166.368,248.821l82.383-82.383c3.302-3.302,8.657-3.302,11.959,0l84.783,84.783  c3.302,3.302,3.302,8.657,0,11.959l-82.383,82.383c-3.302,3.302-8.657,3.302-11.959,0l-84.783-84.783  C163.066,257.477,163.066,252.124,166.368,248.821z"/>
<g>
	<circle style="fill:#F37569;" cx="306.33" cy="111.331" r="8.663"/>
	<circle style="fill:#F37569;" cx="331.11" cy="86.551" r="8.663"/>
	<circle style="fill:#F37569;" cx="354.52" cy="63.14" r="8.663"/>
	<circle style="fill:#F37569;" cx="330.02" cy="135.01" r="8.663"/>
	<circle style="fill:#F37569;" cx="354.79" cy="110.241" r="8.663"/>
	<circle style="fill:#F37569;" cx="378.21" cy="86.821" r="8.663"/>
	<circle style="fill:#F37569;" cx="376.85" cy="181.84" r="8.663"/>
	<circle style="fill:#F37569;" cx="401.62" cy="157.071" r="8.663"/>
	<circle style="fill:#F37569;" cx="425.04" cy="133.65" r="8.663"/>
	<circle style="fill:#F37569;" cx="400.671" cy="205.671" r="8.663"/>
	<circle style="fill:#F37569;" cx="425.451" cy="180.891" r="8.663"/>
	<circle style="fill:#F37569;" cx="448.86" cy="157.48" r="8.663"/>
	<circle style="fill:#F37569;" cx="353.98" cy="158.971" r="8.663"/>
	<circle style="fill:#F37569;" cx="378.75" cy="134.201" r="8.663"/>
	<circle style="fill:#F37569;" cx="402.171" cy="110.781" r="8.663"/>
	<circle style="fill:#F37569;" cx="63.17" cy="354.49" r="8.663"/>
	<circle style="fill:#F37569;" cx="87.941" cy="329.71" r="8.663"/>
	<circle style="fill:#F37569;" cx="111.361" cy="306.3" r="8.663"/>
	<circle style="fill:#F37569;" cx="86.861" cy="378.18" r="8.663"/>
	<circle style="fill:#F37569;" cx="111.631" cy="353.4" r="8.663"/>
	<circle style="fill:#F37569;" cx="135.051" cy="329.99" r="8.663"/>
	<circle style="fill:#F37569;" cx="133.691" cy="425" r="8.663"/>
	<circle style="fill:#F37569;" cx="158.461" cy="400.23" r="8.663"/>
	<circle style="fill:#F37569;" cx="181.87" cy="376.81" r="8.663"/>
	<circle style="fill:#F37569;" cx="157.51" cy="448.83" r="8.663"/>
	<circle style="fill:#F37569;" cx="182.29" cy="424.06" r="8.663"/>
	<circle style="fill:#F37569;" cx="205.701" cy="400.641" r="8.663"/>
	<circle style="fill:#F37569;" cx="110.821" cy="402.141" r="8.663"/>
	<circle style="fill:#F37569;" cx="135.59" cy="377.36" r="8.663"/>
	<circle style="fill:#F37569;" cx="159.01" cy="353.951" r="8.663"/>
</g>
<g>
	<circle style="fill:#BA5852;" cx="400.671" cy="306.33" r="8.663"/>
	<circle style="fill:#BA5852;" cx="425.451" cy="331.11" r="8.663"/>
	<circle style="fill:#BA5852;" cx="448.86" cy="354.52" r="8.663"/>
	<circle style="fill:#BA5852;" cx="376.99" cy="330.02" r="8.663"/>
	<circle style="fill:#BA5852;" cx="401.76" cy="354.79" r="8.663"/>
	<circle style="fill:#BA5852;" cx="425.18" cy="378.21" r="8.663"/>
	<circle style="fill:#BA5852;" cx="330.16" cy="376.85" r="8.663"/>
	<circle style="fill:#BA5852;" cx="354.93" cy="401.62" r="8.663"/>
	<circle style="fill:#BA5852;" cx="378.35" cy="425.04" r="8.663"/>
	<circle style="fill:#BA5852;" cx="306.33" cy="400.671" r="8.663"/>
	<circle style="fill:#BA5852;" cx="331.11" cy="425.451" r="8.663"/>
	<circle style="fill:#BA5852;" cx="354.52" cy="448.86" r="8.663"/>
	<circle style="fill:#BA5852;" cx="353.02" cy="353.98" r="8.663"/>
	<circle style="fill:#BA5852;" cx="377.8" cy="378.75" r="8.663"/>
	<circle style="fill:#BA5852;" cx="401.21" cy="402.171" r="8.663"/>
	<circle style="fill:#BA5852;" cx="157.51" cy="63.17" r="8.663"/>
	<circle style="fill:#BA5852;" cx="182.29" cy="87.941" r="8.663"/>
	<circle style="fill:#BA5852;" cx="205.701" cy="111.361" r="8.663"/>
	<circle style="fill:#BA5852;" cx="133.821" cy="86.861" r="8.663"/>
	<circle style="fill:#BA5852;" cx="158.601" cy="111.631" r="8.663"/>
	<circle style="fill:#BA5852;" cx="182.01" cy="135.051" r="8.663"/>
	<circle style="fill:#BA5852;" cx="86.996" cy="133.691" r="8.663"/>
	<circle style="fill:#BA5852;" cx="111.771" cy="158.461" r="8.663"/>
	<circle style="fill:#BA5852;" cx="135.191" cy="181.87" r="8.663"/>
	<circle style="fill:#BA5852;" cx="63.17" cy="157.51" r="8.663"/>
	<circle style="fill:#BA5852;" cx="87.941" cy="182.29" r="8.663"/>
	<circle style="fill:#BA5852;" cx="111.361" cy="205.701" r="8.663"/>
	<circle style="fill:#BA5852;" cx="109.861" cy="110.821" r="8.663"/>
	<circle style="fill:#BA5852;" cx="134.641" cy="135.59" r="8.663"/>
	<circle style="fill:#BA5852;" cx="158.051" cy="159.01" r="8.663"/>
</g>
<g>
</g>
<g>
</g>
<g>
</g>
<g>
</g>
<g>
</g>
<g>
</g>
<g>
</g>
<g>
</g>
<g>
</g>
<g>
</g>
<g>
</g>
<g>
</g>
<g>
</g>
<g>
</g>
<g>
</g>
</svg>
