<?xml version="1.0" encoding="iso-8859-1"?>
<!-- Generator: Adobe Illustrator 19.0.0, SVG Export Plug-In . SVG Version: 6.00 Build 0)  -->
<svg xmlns="http://www.w3.org/2000/svg" xmlns:xlink="http://www.w3.org/1999/xlink" version="1.1" id="Layer_1" x="0px" y="0px" viewBox="0 0 512.002 512.002" style="enable-background:new 0 0 512.002 512.002;" xml:space="preserve">
<g>
	<path style="fill:#4E6284;" d="M151.818,431.726c-1.264,0-2.545-0.309-3.73-0.959C77.521,392.058,33.684,318.059,33.684,237.647   c0-72.572,35.764-140.455,95.669-181.588c3.538-2.429,8.374-1.531,10.803,2.007s1.531,8.375-2.007,10.804   c-55.682,38.234-88.924,101.328-88.924,168.778c0,74.737,40.747,143.516,106.338,179.496c3.762,2.063,5.139,6.787,3.075,10.549   C157.224,430.268,154.563,431.726,151.818,431.726z"/>
	<path style="fill:#4E6284;" d="M359.384,432.143c-2.757,0-5.427-1.47-6.835-4.062c-2.048-3.771-0.652-8.488,3.119-10.537   c66.045-35.877,107.073-104.81,107.073-179.896c0-67.449-33.243-130.544-88.924-168.778c-3.538-2.429-4.436-7.266-2.007-10.804   s7.266-4.437,10.803-2.007c59.905,41.133,95.669,109.016,95.669,181.588c0,80.788-44.14,154.953-115.195,193.553   C361.907,431.839,360.636,432.143,359.384,432.143z"/>
</g>
<g>
	<path style="fill:#45D28A;" d="M150.794,62.398h-17.102V48.123c0-13.912,11.278-25.19,25.19-25.19h13.961   c1.735,0,3.141,1.406,3.141,3.141v11.135C175.984,51.121,164.706,62.398,150.794,62.398z"/>
	<path style="fill:#45D28A;" d="M104.018,86.926L91.925,99.019L81.831,88.925c-9.837-9.837-9.837-25.786,0-35.624l9.872-9.872   c1.227-1.227,3.215-1.227,4.442,0l7.873,7.873C113.855,61.14,113.855,77.089,104.018,86.926z"/>
	<path style="fill:#45D28A;" d="M67.845,135.582l-8.551,14.811l-12.362-7.137c-12.048-6.956-16.176-22.362-9.22-34.41l6.98-12.091   c0.867-1.502,2.788-2.017,4.29-1.15l9.642,5.567C70.673,108.128,74.801,123.534,67.845,135.582z"/>
	<path style="fill:#45D28A;" d="M47.111,189.178l-3.703,16.696l-13.936-3.091c-13.582-3.013-22.15-16.465-19.137-30.047l3.023-13.63   c0.376-1.693,2.053-2.762,3.746-2.386l10.87,2.411C41.556,162.144,50.124,175.596,47.111,189.178z"/>
	<path style="fill:#45D28A;" d="M41.261,248.135l1.543,17.032l-14.217,1.288c-13.855,1.256-26.105-8.958-27.36-22.814l-1.212-13.37   c-0.183-2.022,1.308-3.811,3.33-3.994l10.555-0.956C27.756,224.066,40.006,234.28,41.261,248.135z"/>
	<path style="fill:#45D28A;" d="M52.72,306.242l6.199,15.939l-13.304,5.174c-12.966,5.043-27.565-1.38-32.607-14.346l-4.867-12.511   c-0.736-1.893,0.201-4.024,2.094-4.76l9.877-3.842C33.078,286.854,47.677,293.277,52.72,306.242z"/>
	<path style="fill:#45D28A;" d="M80.19,359.588l10.226,13.707l-8.494,6.337c-12.778,9.533-30.865,6.903-40.399-5.876l-5.829-7.813   c-1.214-1.628-0.879-3.932,0.748-5.146l8.494-6.337C56.088,346.142,71.871,348.438,80.19,359.588z"/>
	<path style="fill:#45D28A;" d="M121.337,403.647l13.554,10.429l-8.705,11.314c-8.484,11.026-24.299,13.087-35.325,4.603   l-10.64-8.186c-1.609-1.238-1.91-3.547-0.672-5.157l6.463-8.399C94.495,397.224,110.311,395.163,121.337,403.647z"/>
	<path style="fill:#45D28A;" d="M361.144,62.398h17.102V48.123c0-13.912-11.278-25.19-25.19-25.19h-13.425   c-2.031,0-3.677,1.646-3.677,3.677v10.599C335.954,51.121,347.232,62.398,361.144,62.398z"/>
	<path style="fill:#45D28A;" d="M407.92,86.926l12.093,12.093l10.094-10.094c9.837-9.837,9.837-25.786,0-35.624l-9.362-9.362   c-1.508-1.508-3.953-1.508-5.461,0l-7.363,7.363C398.083,61.14,398.083,77.089,407.92,86.926z"/>
	<path style="fill:#45D28A;" d="M444.093,135.582l8.551,14.811l12.362-7.137c12.048-6.956,16.176-22.362,9.22-34.41l-6.712-11.626   c-1.015-1.759-3.264-2.361-5.023-1.346l-9.178,5.299C441.265,108.128,437.137,123.534,444.093,135.582z"/>
	<path style="fill:#45D28A;" d="M464.826,189.178l3.703,16.696l13.936-3.091c13.582-3.013,22.15-16.465,19.137-30.047l-2.907-13.106   c-0.44-1.983-2.403-3.233-4.386-2.794l-10.346,2.295C470.381,162.144,461.814,175.596,464.826,189.178z"/>
	<path style="fill:#45D28A;" d="M470.676,248.135l-1.543,17.032l14.217,1.288c13.855,1.256,26.105-8.958,27.36-22.814l1.212-13.37   c0.183-2.022-1.308-3.811-3.33-3.994l-10.555-0.956C484.182,224.066,471.932,234.28,470.676,248.135z"/>
	<path style="fill:#45D28A;" d="M459.218,306.242l-6.199,15.939l13.304,5.174c12.966,5.043,27.565-1.38,32.607-14.346l4.866-12.512   c0.736-1.893-0.201-4.024-2.094-4.76l-9.877-3.842C478.86,286.854,464.261,293.277,459.218,306.242z"/>
	<path style="fill:#45D28A;" d="M431.748,359.588l-10.226,13.707l11.442,8.536c11.151,8.319,26.934,6.023,35.253-5.127l8.028-10.76   c1.214-1.628,0.879-3.932-0.748-5.146l-8.496-6.337C455.85,346.142,440.067,348.438,431.748,359.588z"/>
	<path style="fill:#45D28A;" d="M390.601,403.647l-13.554,10.429l8.705,11.314c8.484,11.026,24.299,13.087,35.325,4.603l10.64-8.186   c1.609-1.238,1.91-3.547,0.672-5.157l-6.463-8.399C417.442,397.224,401.627,395.163,390.601,403.647z"/>
	<path style="fill:#45D28A;" d="M202.417,417.557l19.477,14.986l-12.509,16.258c-12.191,15.844-34.917,18.806-50.762,6.615   l-16.563-12.744c-1.609-1.238-1.91-3.547-0.672-5.157l10.267-13.343C163.847,408.328,186.573,405.366,202.417,417.557z"/>
</g>
<path style="fill:#31AF97;" d="M202.482,417.557c-8.656-6.66-19.365-8.788-29.29-6.772c5.218,1.068,10.28,3.306,14.786,6.772  l3.219,2.477c8.979,6.909,10.657,19.788,3.749,28.767l0,0c-5.53,7.188-13.231,11.714-21.471,13.387  c13.132,2.688,27.251-2.049,35.976-13.387l12.509-16.258L202.482,417.557z"/>
<circle style="fill:#FFDFAC;" cx="255.121" cy="436.489" r="34.29"/>
<g>
	<path style="fill:#31AF97;" d="M161.544,22.934v14.275c0,13.912-11.278,25.19-25.19,25.19h14.504   c13.912,0,25.19-11.278,25.19-25.19V26.075c0-1.735-1.406-3.141-3.141-3.141H161.544z"/>
	<path style="fill:#31AF97;" d="M104.083,51.303L96.21,43.43c-1.227-1.227-3.215-1.227-4.442,0l-5.031,5.031l2.842,2.842   c9.838,9.837,9.837,25.787,0,35.624l-4.841,4.841l7.252,7.252l12.093-12.093C113.92,77.089,113.92,61.14,104.083,51.303z"/>
	<path style="fill:#31AF97;" d="M58.689,101.172l-9.643-5.567c-1.502-0.867-3.423-0.353-4.29,1.15l-2.056,3.56l1.483,0.856   c12.049,6.956,16.178,22.362,9.221,34.411l-4.925,8.53l10.878,6.281l8.551-14.811C74.865,123.533,70.737,108.128,58.689,101.172z"/>
	<path style="fill:#31AF97;" d="M28.039,159.131l-10.87-2.411c-1.693-0.376-3.371,0.693-3.746,2.386l0,0l0.112,0.025   c13.583,3.02,22.148,16.476,19.134,30.06l-3.021,13.616l13.824,3.066l3.704-16.695C50.189,175.597,41.621,162.144,28.039,159.131z"/>
	<path style="fill:#31AF97;" d="M41.326,248.135c-1.256-13.855-13.505-24.069-27.36-22.814l-6.407,0.58   c10.244,2.434,18.26,11.169,19.262,22.233l1.543,17.032l-7.81,0.708c2.584,0.614,5.307,0.833,8.098,0.58l14.217-1.288   L41.326,248.135z"/>
	<path style="fill:#31AF97;" d="M52.784,306.242c-4.801-12.343-18.26-18.748-30.727-14.985c7.165,2.16,13.3,7.47,16.223,14.985   l1.025,2.634c2.858,7.348-0.782,15.621-8.13,18.479l0,0c-0.623,0.242-1.251,0.45-1.88,0.64c5.197,1.567,10.934,1.48,16.384-0.64   l13.304-5.175L52.784,306.242z"/>
	<path style="fill:#31AF97;" d="M80.254,359.588c-6.511-8.728-17.595-12.029-27.452-9.063c5.003,1.497,9.585,4.556,12.947,9.063   l1.69,2.266c4.714,6.319,3.413,15.263-2.906,19.978l0,0c-2.423,1.807-5.064,3.112-7.8,3.936c7.374,2.207,15.661,1.02,22.305-3.936   l11.442-8.536L80.254,359.588z"/>
	<path style="fill:#31AF97;" d="M121.401,403.647c-6.676-5.136-15.106-6.401-22.603-4.157c2.851,0.858,5.598,2.234,8.098,4.157   l2.24,1.724c6.248,4.808,7.416,13.77,2.609,20.019l0,0c-3.347,4.35-7.837,7.298-12.722,8.76c9.724,2.925,20.666-0.234,27.227-8.76   l8.705-11.314L121.401,403.647z"/>
	<path style="fill:#31AF97;" d="M353.12,22.934h-14.504c13.912,0,25.19,11.278,25.19,25.19v14.275h14.504V48.123   C378.31,34.212,367.032,22.934,353.12,22.934z"/>
	<path style="fill:#31AF97;" d="M430.171,53.302l-9.428-9.428c-1.471-1.471-3.857-1.471-5.329,0l-4.588,4.588l4.841,4.841   c9.837,9.837,9.837,25.786,0,35.624l-2.842,2.842l7.252,7.252l10.094-10.094C440.008,79.088,440.008,63.139,430.171,53.302z"/>
	<path style="fill:#31AF97;" d="M474.291,108.845l-6.712-11.626c-1.015-1.759-3.264-2.361-5.023-1.346l-7.694,4.442l4.925,8.53   c6.956,12.048,2.828,27.454-9.22,34.41l-1.484,0.857l3.626,6.281l12.362-7.137C477.119,136.299,481.247,120.893,474.291,108.845z"/>
	<path style="fill:#31AF97;" d="M501.667,172.736l-2.907-13.106c-0.44-1.983-2.403-3.233-4.386-2.794l-10.234,2.27l3.023,13.629   c3.013,13.582-5.555,27.034-19.137,30.048l-0.112,0.025l0.68,3.066l13.936-3.091C496.112,199.77,504.68,186.318,501.667,172.736z"/>
	<path style="fill:#31AF97;" d="M498.101,225.321c-2.791-0.253-5.514-0.033-8.098,0.58l7.81,0.708l-1.543,17.032   c-1.003,11.064-9.019,19.8-19.262,22.233l6.407,0.58c13.855,1.255,26.104-8.959,27.36-22.814l1.212-13.37   c0.183-2.022-1.308-3.811-3.33-3.994L498.101,225.321z"/>
	<path style="fill:#31AF97;" d="M491.89,291.897c-5.451-2.12-11.188-2.207-16.384-0.64c0.629,0.19,1.257,0.398,1.88,0.64l0,0   c7.348,2.858,10.987,11.131,8.13,18.479l-1.025,2.635c-2.923,7.515-9.058,12.825-16.223,14.986   c12.467,3.762,25.927-2.643,30.727-14.986l4.866-12.512c0.736-1.893-0.201-4.024-2.094-4.76L491.89,291.897z"/>
	<path style="fill:#31AF97;" d="M467.065,354.461c-6.644-4.957-14.931-6.143-22.305-3.936c2.736,0.823,5.378,2.128,7.801,3.936l0,0   c6.319,4.714,7.62,13.659,2.906,19.978l-1.69,2.266c-3.362,4.507-7.945,7.566-12.948,9.063c9.857,2.966,20.941-0.335,27.452-9.063   l8.028-10.76c1.214-1.628,0.879-3.932-0.748-5.146L467.065,354.461z"/>
	<path style="fill:#31AF97;" d="M425.99,408.25c-6.56-8.526-17.503-11.686-27.227-8.76c4.885,1.462,9.375,4.41,12.722,8.76l0,0   c4.808,6.248,3.64,15.211-2.609,20.018l-2.241,1.724c-2.5,1.924-5.247,3.299-8.098,4.157c7.497,2.244,15.927,0.979,22.602-4.157   l10.64-8.187c1.609-1.238,1.91-3.547,0.672-5.157L425.99,408.25z"/>
</g>
<path style="fill:#45D28A;" d="M353.055,418.048l15.126,14.42c1.47,1.401,1.526,3.729,0.124,5.199l-11.617,12.186  c-13.794,14.47-36.706,15.018-51.176,1.224l-17.788-16.957l14.154-14.847C315.673,404.802,338.586,404.254,353.055,418.048z"/>
<path style="fill:#31AF97;" d="M353.119,418.055c-7.906-7.536-18.331-10.781-28.412-9.824c5.076,1.613,9.874,4.372,13.989,8.294  l2.94,2.803c8.2,7.817,8.511,20.802,0.694,29.002l0,0c-6.258,6.564-14.393,10.253-22.764,11.048  c12.775,4.059,27.316,0.837,37.187-9.518l11.617-12.186c1.401-1.47,1.346-3.797-0.124-5.199L353.119,418.055z"/>
<path style="fill:#FBCE7D;" d="M255.185,402.2c-2.489,0-4.913,0.272-7.252,0.776c15.452,3.329,27.035,17.064,27.035,33.511  s-11.583,30.183-27.035,33.511c2.339,0.504,4.763,0.775,7.252,0.775c18.936,0,34.287-15.351,34.287-34.287  S274.121,402.2,255.185,402.2z"/>
<ellipse style="fill:#F37569;" cx="253.791" cy="237.649" rx="164.53" ry="164.55"/>
<path style="fill:#D3655C;" d="M345.776,101.191c22.861,28.26,36.563,64.236,36.563,103.418c0,90.88-73.665,164.553-164.535,164.553  c-34.073,0-65.727-10.358-91.986-28.098c30.164,37.287,76.28,61.135,127.973,61.135c90.87,0,164.535-73.673,164.535-164.553  C418.325,180.843,389.547,130.762,345.776,101.191z"/>
<g>
	<path style="fill:#BA5852;" d="M153.883,277.649c-3.707-2.634-8.849-1.763-11.481,1.945   c-10.195,14.353-19.766,29.302-28.574,44.585c3.211,5.185,6.695,10.183,10.445,14.963c9.576-17.181,20.166-33.977,31.555-50.012   C158.462,285.423,157.591,280.282,153.883,277.649z"/>
	<path style="fill:#BA5852;" d="M418.306,236.148c-0.129-14.453-2.121-28.46-5.748-41.795   c-13.192-12.006-30.859-19.116-50.051-18.499c-12.322,0.386-24.059,3.89-34.341,10.074c-9.037-12.323-18.995-23.963-29.797-34.809   c20.651-13.721,42.214-25.995,64.457-36.692c-4.55-4.03-9.32-7.815-14.298-11.327c-21.509,10.739-42.372,22.908-62.387,36.401   c-7.317-6.574-14.97-12.802-22.931-18.661c2.992-2.257,5.83-4.747,8.466-7.487c9.701-10.085,16.117-22.652,18.65-36.182   c-5.312-1.205-10.722-2.152-16.216-2.829c-1.973,10.314-6.895,19.892-14.303,27.593c-3.332,3.464-7.072,6.427-11.105,8.868   c-16.458-10.69-34.096-19.833-52.717-27.257c-7.342,2.756-14.436,6.018-21.236,9.75c19.156,6.416,37.32,14.721,54.283,24.707   c-1.664,0.263-3.346,0.452-5.042,0.562c-51.671,0.031-82.171,18.055-98.567,27.746c-5.088,3.007-10.117,6.604-14.974,10.511   c-6.664,11.796-11.911,24.495-15.518,37.869c10.397-11.674,24.575-25.751,38.873-34.202c20.84-12.317,46.718-25.454,90.308-25.454   c0.042,0,0.089,0,0.131,0c0.177-0.01,0.334-0.005,0.503-0.015c7.896-0.478,15.557-2.253,22.72-5.192   c8.629,6.014,16.894,12.478,24.764,19.359c-37.943,27.274-72.581,59.306-102.548,95.076c-2.921,3.486-2.462,8.68,1.024,11.601   c1.542,1.292,3.418,1.923,5.284,1.923c2.353,0,4.688-1.003,6.316-2.946c29.801-35.572,64.358-67.336,102.249-94.223   c11.142,10.954,21.371,22.784,30.574,35.371c-0.757,0.739-1.505,1.49-2.234,2.266c-13.006,13.848-19.84,31.932-19.244,50.92   c0.005,0.167,0.015,0.335,0.031,0.502c4.03,43.48-6.69,70.489-17.055,92.393c-11.33,23.944-36.899,48.927-47.114,58.345   c7.169,1.061,14.49,1.653,21.929,1.757c12.893-12.998,30.561-32.96,40.072-53.057c8.146-17.217,23.299-49.24,18.591-100.696   c-0.4-14.825,5.183-28.455,14.55-38.574c27.208,42.17,43.5,91.631,45.602,144.036c5.503-5.515,10.617-11.418,15.297-17.665   c-4.791-49.659-21.647-96.362-47.973-136.682c7.524-4.327,16.18-6.926,25.445-7.216   C390.048,191.464,413.149,210.483,418.306,236.148z"/>
</g>
<g>
	<circle style="fill:#4E6284;" cx="255.331" cy="436.489" r="7.77"/>
	<circle style="fill:#4E6284;" cx="213.081" cy="481.299" r="7.77"/>
	<circle style="fill:#4E6284;" cx="297.191" cy="481.299" r="7.77"/>
</g>
<g>
</g>
<g>
</g>
<g>
</g>
<g>
</g>
<g>
</g>
<g>
</g>
<g>
</g>
<g>
</g>
<g>
</g>
<g>
</g>
<g>
</g>
<g>
</g>
<g>
</g>
<g>
</g>
<g>
</g>
</svg>
