<svg id="Layer_1" enable-background="new 0 0 64 64" height="512" viewBox="0 0 64 64" width="512" xmlns="http://www.w3.org/2000/svg"><path d="m47 36c-2.562 0-3.902-2.012-3.902-4s1.341-4 3.902-4c.553 0 1 .448 1 1s-.447 1-1 1c-1.403 0-1.902 1.077-1.902 2s.499 2 1.902 2c.553 0 1 .448 1 1s-.447 1-1 1z"/><path d="m17 36c-.553 0-1-.448-1-1s.447-1 1-1c1.403 0 1.902-1.077 1.902-2s-.499-2-1.902-2c-.553 0-1-.448-1-1s.447-1 1-1c2.562 0 3.902 2.012 3.902 4s-1.34 4-3.902 4z"/><path d="m32 57c-.553 0-1-.448-1-1v-4c0-.552.447-1 1-1s1 .448 1 1v4c0 .552-.447 1-1 1z"/><path d="m32 13c-.553 0-1-.448-1-1v-4c0-.552.447-1 1-1s1 .448 1 1v4c0 .552-.447 1-1 1z"/><path d="m56 49h-7.981c-.553 0-1-.448-1-1s.447-1 1-1h7.981c.553 0 1 .448 1 1s-.447 1-1 1z"/><path d="m44.019 49h-2c-.553 0-1-.448-1-1s.447-1 1-1h2c.553 0 1 .448 1 1s-.448 1-1 1z"/><path d="m38.019 49h-30.019c-.553 0-1-.448-1-1s.447-1 1-1h30.019c.553 0 1 .448 1 1s-.448 1-1 1z"/><path d="m56 17h-48c-.553 0-1-.448-1-1s.447-1 1-1h48c.553 0 1 .448 1 1s-.447 1-1 1z"/><path d="m8 49c-.553 0-1-.448-1-1v-32c0-.552.447-1 1-1s1 .448 1 1v32c0 .552-.447 1-1 1z"/><path d="m56 49c-.553 0-1-.448-1-1v-32c0-.552.447-1 1-1s1 .448 1 1v32c0 .552-.447 1-1 1z"/><path d="m56 21h-4c-.553 0-1-.448-1-1s.447-1 1-1h4c.553 0 1 .448 1 1s-.447 1-1 1z"/><path d="m56 45h-4c-.553 0-1-.448-1-1s.447-1 1-1h4c.553 0 1 .448 1 1s-.447 1-1 1z"/><path d="m52 45c-7.047 0-13-5.953-13-13s5.953-13 13-13c.553 0 1 .448 1 1s-.447 1-1 1c-5.963 0-11 5.038-11 11s5.037 11 11 11c.553 0 1 .448 1 1s-.447 1-1 1z"/><path d="m56 27.962h-9c-.553 0-1-.448-1-1s.447-1 1-1h9c.553 0 1 .448 1 1s-.447 1-1 1z"/><path d="m47 38.038c-.553 0-1-.448-1-1v-10.076c0-.552.447-1 1-1s1 .448 1 1v10.075c0 .553-.447 1.001-1 1.001z"/><path d="m56 38.038h-9c-.553 0-1-.448-1-1s.447-1 1-1h9c.553 0 1 .448 1 1s-.447 1-1 1z"/><path d="m32 49c-.553 0-1-.448-1-1v-12c0-.552.447-1 1-1s1 .448 1 1v12c0 .552-.447 1-1 1z"/><path d="m32 29c-.553 0-1-.448-1-1v-12c0-.552.447-1 1-1s1 .448 1 1v12c0 .552-.447 1-1 1z"/><path d="m17 38.038h-9c-.553 0-1-.448-1-1s.447-1 1-1h9c.553 0 1 .448 1 1s-.447 1-1 1z"/><path d="m17 38.038c-.553 0-1-.448-1-1v-10.076c0-.552.447-1 1-1s1 .448 1 1v10.075c0 .553-.447 1.001-1 1.001z"/><path d="m17 27.962h-9c-.553 0-1-.448-1-1s.447-1 1-1h9c.553 0 1 .448 1 1s-.447 1-1 1z"/><path d="m12 45c-.553 0-1-.448-1-1s.447-1 1-1c5.963 0 11-5.038 11-11s-5.037-11-11-11c-.553 0-1-.448-1-1s.447-1 1-1c7.047 0 13 5.953 13 13s-5.953 13-13 13z"/><path d="m12 45h-4c-.553 0-1-.448-1-1s.447-1 1-1h4c.553 0 1 .448 1 1s-.447 1-1 1z"/><path d="m12 21h-4c-.553 0-1-.448-1-1s.447-1 1-1h4c.553 0 1 .448 1 1s-.447 1-1 1z"/><path d="m32 37c-2.71 0-5-2.29-5-5s2.29-5 5-5 5 2.29 5 5-2.29 5-5 5zm0-8c-1.626 0-3 1.374-3 3s1.374 3 3 3 3-1.374 3-3-1.374-3-3-3z"/></svg>