<svg id="Layer_1" enable-background="new 0 0 64 64" height="512" viewBox="0 0 64 64" width="512" xmlns="http://www.w3.org/2000/svg"><path d="m32 53c-2.71 0-5-2.29-5-5s2.29-5 5-5 5 2.29 5 5-2.29 5-5 5zm0-8c-1.626 0-3 1.374-3 3s1.374 3 3 3 3-1.374 3-3-1.374-3-3-3z"/><path d="m42.167 15h-20.334c-.552 0-1-.448-1-1s.448-1 1-1h20.335c.552 0 1 .448 1 1s-.448 1-1.001 1z"/><path d="m47.202 9h-30.404c-.552 0-1-.448-1-1s.448-1 1-1h30.404c.552 0 1 .448 1 1s-.448 1-1 1z"/><path d="m43.57 22.663c-.227 0-.455-.077-.642-.234-.423-.355-.479-.986-.124-1.409l6.43-7.663c.355-.423.986-.479 1.409-.124s.479.986.124 1.409l-6.43 7.663c-.198.236-.482.358-.767.358z"/><path d="m39.713 27.259c-.227 0-.455-.077-.643-.234-.423-.355-.478-.986-.123-1.409l1.287-1.533c.355-.424.987-.479 1.409-.124.423.355.479.986.124 1.409l-1.287 1.533c-.198.236-.482.358-.767.358z"/><path d="m32 36.452c-.227 0-.455-.077-.642-.234-.423-.355-.479-.986-.124-1.409l5.142-6.128c.356-.423.986-.479 1.409-.124s.479.986.124 1.409l-5.142 6.128c-.199.236-.482.358-.767.358z"/><path d="m32 57c-4.878 0-9-4.122-9-9s4.122-9 9-9 9 4.122 9 9-4.122 9-9 9zm0-16c-3.794 0-7 3.206-7 7s3.206 7 7 7 7-3.206 7-7-3.206-7-7-7z"/><path d="m32 27.117c-.285 0-.569-.122-.767-.357l-15.201-18.117c-.355-.423-.3-1.054.124-1.409.422-.355 1.053-.3 1.409.124l15.202 18.117c.355.423.3 1.054-.124 1.409-.187.157-.415.233-.643.233z"/><path d="m28.083 31.784c-.227 0-.455-.077-.642-.234-.423-.355-.479-.986-.124-1.409l19.119-22.784c.355-.423.986-.479 1.409-.124s.479.986.124 1.409l-19.119 22.785c-.198.236-.481.357-.767.357z"/><path d="m32 36.452c-.285 0-.569-.122-.767-.357l-18-21.452c-.355-.423-.3-1.054.124-1.409.422-.355 1.053-.3 1.409.124l18 21.452c.355.423.3 1.054-.124 1.409-.186.156-.414.233-.642.233z"/><path d="m14 15c-.142 0-.286-.03-.422-.094-.5-.233-.717-.828-.483-1.329l2.798-6c.233-.5.829-.717 1.329-.483s.717.828.483 1.329l-2.798 6c-.17.364-.531.577-.907.577z"/><path d="m50 15c-.376 0-.737-.213-.907-.577l-2.798-6c-.233-.501-.017-1.096.483-1.329s1.096-.017 1.329.483l2.798 6c.233.501.017 1.096-.483 1.329-.136.064-.28.094-.422.094z"/><path d="m32 41c-.552 0-1-.448-1-1v-4.548c0-.552.448-1 1-1s1 .448 1 1v4.548c0 .552-.448 1-1 1z"/></svg>