<svg id="Layer_1" enable-background="new 0 0 64 64" height="512" viewBox="0 0 64 64" width="512" xmlns="http://www.w3.org/2000/svg"><path d="m27.165 32.255c-1.988 0-4-1.34-4-3.902s2.012-3.902 4-3.902 4 1.34 4 3.902-2.012 3.902-4 3.902zm0-5.804c-.923 0-2 .498-2 1.902s1.077 1.902 2 1.902 2-.498 2-1.902-1.077-1.902-2-1.902z"/><path d="m26.926 45.151c-.342 0-.676-.176-.862-.492-.281-.476-.123-1.089.353-1.37 6.532-3.854 9.842-11.425 8.238-18.837-.116-.54.227-1.072.766-1.189.539-.116 1.072.226 1.189.766 1.787 8.257-1.9 16.689-9.176 20.983-.161.095-.335.139-.508.139z"/><path d="m34.066 27.25c-.215 0-.431-.069-.613-.211-.436-.339-.514-.968-.175-1.403l1.564-2.009c.339-.437.967-.515 1.403-.175.436.339.514.968.175 1.403l-1.564 2.009c-.197.254-.492.386-.79.386z"/><path d="m37.954 26.658c-.178 0-.357-.047-.52-.146l-2.323-1.417c-.472-.288-.621-.903-.333-1.375s.905-.621 1.374-.333l2.323 1.417c.472.288.621.903.333 1.375-.188.308-.517.479-.854.479z"/><path d="m24.227 49.364c-1.988 0-4-1.34-4-3.902s2.012-3.902 4-3.902 4 1.34 4 3.902-2.013 3.902-4 3.902zm0-5.803c-.923 0-2 .498-2 1.902s1.077 1.902 2 1.902 2-.498 2-1.902-1.078-1.902-2-1.902z"/><path d="m50 36.962c-.553 0-1-.448-1-1v-2c0-.552.447-1 1-1s1 .448 1 1v2c0 .552-.447 1-1 1z"/><path d="m50 30.962c-.553 0-1-.448-1-1v-12.006c0-.552.447-1 1-1s1 .448 1 1v12.006c0 .552-.447 1-1 1z"/><path d="m50 52.956c-.553 0-1-.448-1-1v-11.994c0-.552.447-1 1-1s1 .448 1 1v11.994c0 .552-.447 1-1 1z"/><path d="m38.717 38.858c-.256 0-.512-.098-.707-.293-.391-.391-.391-1.023 0-1.414l4.242-4.243c.391-.391 1.023-.391 1.414 0s.391 1.023 0 1.414l-4.242 4.243c-.195.196-.451.293-.707.293z"/><path d="m42.959 38.858c-.256 0-.512-.098-.707-.293l-4.242-4.243c-.391-.391-.391-1.023 0-1.414s1.023-.391 1.414 0l4.242 4.243c.391.391.391 1.023 0 1.414-.195.196-.451.293-.707.293z"/><path d="m32 16.891c-1.491 0-3-1.008-3-2.935 0-3.854 6.001-3.852 6 0 0 1.927-1.509 2.935-3 2.935zm0-3.87c-.167 0-1 .045-1 .935s.833.935 1 .935 1-.045 1-.935-.833-.935-1-.935z"/><path d="m37.657 12.957c-.412 0-.798-.257-.942-.667-.847-2.393-2.991-3.246-4.717-3.246-1.723 0-3.866.853-4.712 3.246-.184.521-.754.794-1.276.609-.521-.184-.793-.755-.609-1.276.983-2.781 3.573-4.579 6.598-4.579 3.027 0 5.619 1.797 6.602 4.579.185.521-.089 1.092-.609 1.276-.112.039-.224.058-.335.058z"/><path d="m42 12.956h-4.343c-.553 0-1-.448-1-1s.447-1 1-1h4.343c.553 0 1 .448 1 1s-.447 1-1 1z"/><path d="m26.343 12.956h-4.343c-.552 0-1-.448-1-1s.448-1 1-1h4.343c.552 0 1 .448 1 1s-.447 1-1 1z"/><path d="m46 18.956h-4c-.553 0-1-.448-1-1s.447-1 1-1h4c.553 0 1 .448 1 1s-.447 1-1 1z"/><path d="m22 18.956h-4c-.552 0-1-.448-1-1s.448-1 1-1h4c.552 0 1 .448 1 1s-.448 1-1 1z"/><path d="m24 20.956c-1.654 0-3-1.346-3-3 0-.552.448-1 1-1s1 .448 1 1c0 .551.449 1 1 1 .552 0 1 .448 1 1s-.448 1-1 1z"/><path d="m22 18.956c-.552 0-1-.448-1-1v-6c0-.552.448-1 1-1s1 .448 1 1v6c0 .552-.448 1-1 1z"/><path d="m40 20.956h-16c-.552 0-1-.448-1-1s.448-1 1-1h16c.553 0 1 .448 1 1s-.447 1-1 1z"/><path d="m40 20.956c-.553 0-1-.448-1-1s.447-1 1-1c.552 0 1-.449 1-1 0-.552.447-1 1-1s1 .448 1 1c0 1.654-1.346 3-3 3z"/><path d="m42 18.956c-.553 0-1-.448-1-1v-6c0-.552.447-1 1-1s1 .448 1 1v6c0 .552-.447 1-1 1z"/><path d="m18 52.956c-.552 0-1-.448-1-1v-34c0-.552.448-1 1-1s1 .448 1 1v34c0 .552-.448 1-1 1z"/><path d="m46 52.956h-28c-.552 0-1-.448-1-1s.448-1 1-1h28c.553 0 1 .448 1 1s-.447 1-1 1z"/><path d="m46 52.956c-.553 0-1-.448-1-1v-34c0-.552.447-1 1-1s1 .448 1 1v34c0 .552-.447 1-1 1z"/><path d="m46 14.956h-4c-.553 0-1-.448-1-1s.447-1 1-1h4c.553 0 1 .448 1 1s-.447 1-1 1z"/><path d="m22 14.956h-4c-.552 0-1-.448-1-1s.448-1 1-1h4c.552 0 1 .448 1 1s-.448 1-1 1z"/><path d="m14 18.956c-.552 0-1-.448-1-1 0-2.757 2.243-5 5-5 .552 0 1 .448 1 1s-.448 1-1 1c-1.654 0-3 1.346-3 3 0 .552-.448 1-1 1z"/><path d="m14 52.956c-.552 0-1-.448-1-1v-34c0-.552.448-1 1-1s1 .448 1 1v34c0 .552-.448 1-1 1z"/><path d="m18 56.956c-2.757 0-5-2.243-5-5 0-.552.448-1 1-1s1 .448 1 1c0 1.654 1.346 3 3 3 .552 0 1 .448 1 1s-.448 1-1 1z"/><path d="m46 56.956h-28c-.552 0-1-.448-1-1s.448-1 1-1h28c.553 0 1 .448 1 1s-.447 1-1 1z"/><path d="m46 56.956c-.553 0-1-.448-1-1s.447-1 1-1c1.654 0 3-1.346 3-3 0-.552.447-1 1-1s1 .448 1 1c0 2.757-2.243 5-5 5z"/><path d="m50 18.956c-.553 0-1-.448-1-1 0-1.654-1.346-3-3-3-.553 0-1-.448-1-1s.447-1 1-1c2.757 0 5 2.243 5 5 0 .552-.447 1-1 1z"/></svg>