<svg id="Layer_1" enable-background="new 0 0 64 64" height="512" viewBox="0 0 64 64" width="512" xmlns="http://www.w3.org/2000/svg"><path d="m24.929 32.071c-.256 0-.512-.098-.707-.293-.391-.391-.391-1.023 0-1.414l14.143-14.143c.391-.391 1.023-.391 1.414 0s.391 1.023 0 1.414l-14.143 14.143c-.196.196-.451.293-.707.293z"/><path d="m40.466 24.34c-2.338 0-4.596-.895-6.38-2.567-2.21-2.072-3.278-4.947-2.93-7.89.065-.548.567-.94 1.11-.875.549.065.94.563.876 1.111-.273 2.305.569 4.563 2.311 6.195 1.741 1.632 4.048 2.326 6.333 1.905.542-.1 1.064.258 1.165.802.101.543-.259 1.065-.802 1.165-.561.103-1.125.154-1.683.154z"/><path d="m31.203 34.968c-.061 0-.121-.005-.183-.017-.543-.101-.902-.622-.802-1.165.422-2.283-.272-4.591-1.904-6.333-1.632-1.741-3.888-2.582-6.196-2.311-.556.058-1.045-.328-1.11-.875-.064-.549.327-1.046.876-1.111 2.947-.35 5.819.72 7.89 2.93s2.95 5.15 2.412 8.064c-.089.482-.51.818-.983.818z"/><path d="m38.289 43.128c-.219 0-.439-.072-.624-.22-.432-.345-.501-.975-.155-1.406l1.251-1.561c.345-.43.975-.501 1.405-.155.432.345.501.975.155 1.406l-1.251 1.561c-.197.247-.488.375-.781.375z"/><path d="m32 57c-.001 0-.002 0-.003 0-.552-.001-.999-.451-.997-1.003.013-4.647 2.33-8.628 4.071-11.218.309-.458.929-.581 1.388-.271.459.308.58.929.272 1.388-2.572 3.824-3.723 6.942-3.731 10.108-.002.55-.449.996-1 .996z"/><path d="m42.043 38.446c-.211 0-.423-.066-.604-.204-.44-.334-.525-.961-.191-1.401 2.889-3.803 5.713-7.929 5.752-12.849.004-.55.451-.992 1-.992h.008c.553.004.996.456.992 1.008-.044 5.534-3.067 9.972-6.16 14.043-.196.259-.495.395-.797.395z"/><path d="m32.018 34.976c-.001 0-.001 0 0 0-2.702 0-5.285-.962-7.274-2.708-3.781-3.322-4.822-8.958-2.475-13.4 1.882-3.561 5.724-5.861 9.788-5.861.888 0 1.772.109 2.629.324 4.817 1.209 8.314 5.696 8.314 10.669 0 3.56-1.735 6.916-4.644 8.978-1.842 1.307-4.035 1.998-6.338 1.998zm.039-19.97c-3.332 0-6.48 1.882-8.021 4.795-1.92 3.634-1.067 8.245 2.027 10.963 1.624 1.426 3.738 2.211 5.953 2.211h.001c1.887 0 3.679-.563 5.183-1.629 2.379-1.687 3.8-4.433 3.8-7.346 0-4.069-2.86-7.741-6.801-8.73-.698-.175-1.419-.264-2.142-.264z"/><path d="m39.071 32.071c-.256 0-.512-.098-.707-.293l-14.142-14.142c-.391-.391-.391-1.023 0-1.414s1.023-.391 1.414 0l14.143 14.143c.391.391.391 1.023 0 1.414-.196.195-.452.292-.708.292z"/><path d="m32 57c-.552 0-.999-.446-1-.998-.012-5.961-3.977-10.783-7.81-15.447-1.094-1.33-2.224-2.705-3.223-4.065-2.307-3.145-4.957-7.406-4.967-12.488-.001-.552.445-1.001.998-1.002h.002c.552 0 .999.446 1 .998.009 4.503 2.452 8.409 4.581 11.309.966 1.316 2.028 2.609 3.154 3.979 4.057 4.934 8.251 10.037 8.265 16.712.001.552-.445 1.001-.998 1.002-.001 0-.001 0-.002 0z"/><path d="m48 25c-.553 0-1-.448-1-1 0-8.131-6.869-15-15-15s-15 6.869-15 15c0 .552-.447 1-1 1s-1-.448-1-1c0-9.215 7.785-17 17-17s17 7.785 17 17c0 .552-.447 1-1 1z"/></svg>