<svg id="Layer_1" enable-background="new 0 0 64 64" height="512" viewBox="0 0 64 64" width="512" xmlns="http://www.w3.org/2000/svg"><path d="m23.677 33.083c-.256 0-.512-.098-.707-.293-.391-.391-.391-1.023 0-1.414l16.646-16.647c.391-.391 1.023-.391 1.414 0s.391 1.023 0 1.414l-16.646 16.648c-.196.195-.451.292-.707.292z"/><path d="m41.964 23.984c-2.706 0-5.321-1.037-7.387-2.972-2.561-2.4-3.798-5.731-3.395-9.139.065-.548.565-.934 1.111-.875.548.065.94.563.875 1.111-.329 2.77.683 5.483 2.776 7.444 2.091 1.959 4.862 2.792 7.606 2.285.541-.1 1.064.258 1.165.802.101.543-.258 1.064-.802 1.165-.649.12-1.302.179-1.949.179z"/><path d="m31.062 36.494c-.06 0-.122-.005-.183-.017-.543-.101-.902-.622-.801-1.166.507-2.743-.326-5.516-2.287-7.608-1.959-2.091-4.671-3.099-7.443-2.774-.545.058-1.045-.327-1.111-.875-.065-.548.327-1.046.875-1.111 3.408-.404 6.739.833 9.138 3.394 2.4 2.561 3.418 5.965 2.794 9.339-.089.481-.509.818-.982.818z"/><path d="m31.946 36.528c-.001 0-.001 0 0 0-.682 0-1.37-.057-2.045-.168-4.828-.799-8.822-4.357-10.175-9.064-1.379-4.796.181-9.994 3.974-13.241 2.298-1.967 5.26-3.051 8.339-3.051 1.867 0 3.731.414 5.393 1.195 4.458 2.098 7.339 6.636 7.339 11.562 0 3.403-1.364 6.616-3.841 9.047-2.409 2.363-5.684 3.72-8.984 3.72zm.093-23.525c-2.603 0-5.103.913-7.039 2.571-3.151 2.697-4.498 7.185-3.353 11.168 1.142 3.97 4.509 6.97 8.58 7.644.568.094 1.146.142 1.719.142 2.781 0 5.544-1.148 7.583-3.149 2.09-2.051 3.242-4.757 3.242-7.619 0-4.154-2.43-7.982-6.191-9.752-1.397-.657-2.967-1.005-4.541-1.005z"/><path d="m40.323 33.083c-.256 0-.512-.098-.707-.293l-16.646-16.646c-.391-.391-.391-1.023 0-1.414s1.023-.391 1.414 0l16.646 16.646c.391.391.391 1.023 0 1.414-.195.196-.451.293-.707.293z"/><path d="m31.943 40.532c-.379 0-.758-.013-1.138-.04-5.967-.421-11.461-4.197-13.998-9.619-2.031-4.343-2.054-9.406-.063-13.893 1.985-4.474 5.743-7.845 10.309-9.248 4.595-1.411 9.619-.732 13.785 1.867 4.158 2.593 6.974 6.796 7.726 11.531.086.545-.286 1.058-.831 1.145-.542.085-1.058-.286-1.145-.831-.661-4.163-3.143-7.861-6.809-10.147-3.674-2.291-8.097-2.894-12.138-1.652-4.013 1.233-7.319 4.203-9.069 8.147-1.756 3.957-1.739 8.416.046 12.234 2.233 4.775 7.072 8.1 12.327 8.471 5.807.414 11.509-2.789 14.18-7.96.252-.491.854-.683 1.348-.43.491.253.683.857.43 1.348-2.858 5.532-8.768 9.076-14.96 9.077z"/><path d="m47.382 28.248c-.073 0-.147-.008-.222-.025-.539-.122-.876-.658-.754-1.196.137-.606.237-1.228.297-1.848.054-.549.532-.946 1.092-.899.549.053.952.542.899 1.091-.068.704-.182 1.41-.338 2.099-.105.463-.518.778-.974.778z"/><path d="m19.77 56.989c-.06 0-.12-.005-.179-.016-.382-.07-.689-.354-.788-.729l-1.789-6.785-6.997.536c-.383.03-.756-.167-.947-.505s-.169-.756.056-1.072l10.399-14.618c.32-.449.943-.555 1.395-.235.45.32.555.945.235 1.395l-9.162 12.878 5.699-.436c.478-.035.92.275 1.043.742l1.457 5.526 10.477-14.727c.32-.449.943-.555 1.395-.235.45.32.555.945.235 1.395l-11.715 16.465c-.189.267-.495.421-.814.421z"/><path d="m44.23 56.989c-.32 0-.625-.154-.815-.42l-11.714-16.467c-.32-.45-.215-1.074.235-1.395.451-.32 1.074-.214 1.395.235l10.477 14.727 1.457-5.526c.123-.467.555-.777 1.043-.742l5.699.436-9.162-12.878c-.32-.45-.215-1.074.235-1.395.451-.32 1.074-.214 1.395.235l10.399 14.618c.225.316.247.734.056 1.072-.19.338-.557.536-.947.505l-6.997-.536-1.788 6.785c-.099.375-.406.659-.788.729-.06.011-.12.017-.18.017z"/></svg>