<svg id="Layer_1" enable-background="new 0 0 64 64" height="512" viewBox="0 0 64 64" width="512" xmlns="http://www.w3.org/2000/svg"><path d="m22.013 33.112c-.256 0-.512-.098-.707-.293-.391-.391-.391-1.023 0-1.414l19.976-19.975c.391-.391 1.023-.391 1.414 0s.391 1.023 0 1.414l-19.976 19.975c-.196.196-.451.293-.707.293z"/><path d="m30.875 37.205c-.06 0-.121-.005-.183-.017-.543-.101-.902-.622-.802-1.165.621-3.355-.398-6.746-2.796-9.305-2.395-2.555-5.71-3.791-9.1-3.39-.548.065-1.045-.327-1.111-.875-.065-.549.327-1.046.875-1.111 4.027-.475 7.96.984 10.795 4.009 2.836 3.026 4.041 7.049 3.303 11.035-.088.482-.508.819-.981.819z"/><path d="m43.959 22.192c-3.197.001-6.287-1.225-8.728-3.513-3.026-2.836-4.489-6.771-4.012-10.797.065-.548.563-.939 1.111-.875.548.065.94.563.875 1.111-.402 3.387.835 6.705 3.393 9.102 2.556 2.396 5.947 3.412 9.301 2.793.545-.104 1.065.259 1.166.802s-.258 1.064-.801 1.165c-.769.143-1.54.212-2.305.212z"/><path d="m41.989 33.112c-.256 0-.512-.098-.707-.293l-19.976-19.975c-.391-.391-.391-1.023 0-1.414s1.023-.391 1.414 0l19.977 19.976c.391.391.391 1.023 0 1.414-.196.195-.452.292-.708.292z"/><path d="m34.591 49.892c-.521 0-.961-.404-.997-.932-.012-.168-.066-.332-.158-.474-.299-.465-.165-1.083.299-1.383.463-.298 1.083-.164 1.382.299.274.426.437.917.471 1.421.038.552-.378 1.028-.93 1.066-.021.002-.044.003-.067.003z"/><path d="m34.597 49.894c-.552 0-1-.447-1-1v-10.657c0-.553.448-1 1-1s1 .447 1 1v10.656c0 .553-.448 1.001-1 1.001z"/><path d="m32.567 52.028c-.006 0-.011 0-.017 0-1.005-.017-1.931-.53-2.475-1.374-.299-.464-.166-1.083.298-1.383.463-.298 1.083-.166 1.382.299.182.281.491.453.827.458.552.009.993.464.984 1.016-.008.547-.455.984-.999.984z"/><path d="m33.827 54.016c-.195 0-.392-.057-.565-.176-.946-.649-1.564-1.688-1.695-2.848-.13-1.16.24-2.309 1.018-3.15.374-.406 1.007-.432 1.413-.058.406.375.431 1.008.057 1.413-.383.416-.565.988-.5 1.57.066.584.372 1.103.839 1.424.455.313.571.935.259 1.39-.194.283-.507.435-.826.435z"/><path d="m33.827 54.016c-.195 0-.392-.057-.565-.176-.946-.649-1.564-1.688-1.695-2.848-.13-1.16.24-2.309 1.018-3.15.374-.406 1.007-.432 1.413-.058.406.375.431 1.008.057 1.413-.383.416-.565.988-.5 1.57.066.584.372 1.103.839 1.424.455.313.571.935.259 1.39-.194.283-.507.435-.826.435z"/><path d="m34.924 54.769c-.195 0-.392-.057-.565-.176l-1.097-.753c-.455-.313-.571-.935-.259-1.39.313-.457.935-.572 1.391-.259l1.097.753c.455.313.571.935.259 1.39-.194.283-.507.435-.826.435z"/><path d="m39.359 53.162c-.53 0-.973-.417-.998-.953-.033-.709-.514-1.32-1.195-1.52-.53-.155-.834-.711-.679-1.241.156-.529.714-.83 1.241-.679 1.5.439 2.558 1.783 2.632 3.346.026.552-.4 1.02-.952 1.046-.016.001-.033.001-.049.001z"/><path d="m37.447 50.729c-.093 0-.188-.013-.282-.04l-4.127-1.21c-.53-.155-.834-.711-.678-1.241s.713-.832 1.241-.679l4.127 1.21c.53.155.834.711.678 1.241-.128.437-.526.719-.959.719z"/><path d="m30.597 44.16c-.552 0-1-.447-1-1v-4.923c0-.553.448-1 1-1s1 .447 1 1v4.923c0 .553-.448 1-1 1z"/><path d="m34.597 39.237c-.552 0-1-.447-1-1 0-.89-.833-.935-1-.935s-1 .045-1 .935c0 .553-.448 1-1 1s-1-.447-1-1c0-3.854 6-3.854 6 0 0 .553-.448 1-1 1z"/><path d="m34.278 48.944c-.329 0-.65-.161-.841-.458l-2.543-3.943c-.299-.464-.166-1.083.298-1.383.464-.297 1.083-.165 1.382.299l2.543 3.943c.299.464.166 1.083-.298 1.383-.167.108-.355.159-.541.159z"/><path d="m30.917 51.112c-.329 0-.65-.161-.841-.458l-2.543-3.943c-.299-.464-.166-1.083.298-1.383.464-.298 1.083-.166 1.382.299l2.543 3.943c.299.464.166 1.083-.298 1.383-.168.108-.356.159-.541.159z"/><path d="m27.555 53.28c-.329 0-.65-.161-.841-.458l-2.543-3.943c-.299-.464-.166-1.083.298-1.383.464-.298 1.083-.166 1.382.299l2.543 3.943c.299.464.166 1.083-.298 1.383-.167.108-.355.159-.541.159z"/><path d="m24.193 55.448c-.329 0-.65-.161-.841-.458l-2.543-3.944c-.299-.464-.166-1.083.298-1.383.464-.298 1.083-.165 1.382.299l2.543 3.944c.299.464.166 1.083-.298 1.383-.167.107-.355.159-.541.159z"/><path d="m25.759 56.346c-.131 0-.262-.009-.391-.026-.82-.113-1.536-.585-2.016-1.329-.299-.464-.166-1.083.298-1.382.465-.3 1.083-.167 1.382.298.201.311.448.461.77.438.395-.02.813-.289.994-.641.145-.283.118-.571-.083-.882-.299-.464-.166-1.083.298-1.382.464-.301 1.083-.167 1.382.298 1.044 1.618.323 3.283-.93 4.091-.523.339-1.116.517-1.704.517z"/><path d="m29.121 54.178c-.131 0-.261-.009-.391-.026-.82-.113-1.536-.585-2.016-1.329-.299-.464-.166-1.083.298-1.382.464-.301 1.083-.167 1.382.298.201.311.457.462.77.438.395-.02.813-.289.993-.641.145-.283.118-.571-.083-.882-.299-.464-.166-1.083.298-1.382.463-.301 1.083-.167 1.382.298 1.044 1.618.323 3.283-.929 4.091-.523.339-1.117.517-1.704.517z"/><path d="m21.65 51.504c-.329 0-.65-.161-.841-.458-.587-.91-.653-1.959-.181-2.879.51-.993 1.56-1.67 2.674-1.725 1.041-.063 1.962.442 2.549 1.353.299.465.166 1.083-.298 1.383-.465.298-1.084.166-1.382-.299-.2-.311-.456-.442-.77-.439-.396.02-.813.289-.994.641-.145.282-.118.571.083.882.299.464.166 1.083-.298 1.382-.168.107-.356.159-.542.159z"/><path d="m25.012 49.337c-.329 0-.65-.161-.841-.458-.587-.91-.653-1.961-.18-2.881.51-.992 1.56-1.669 2.674-1.724 1.028-.065 1.961.441 2.548 1.353.299.465.166 1.083-.298 1.383-.466.298-1.084.166-1.382-.299-.201-.311-.446-.451-.77-.439-.395.02-.813.289-.993.641-.146.283-.119.572.082.883.299.464.166 1.083-.298 1.383-.168.106-.356.158-.542.158z"/><path d="m28.374 47.169c-.329 0-.65-.161-.841-.458-1.044-1.62-.322-3.285.932-4.093.641-.414 1.382-.59 2.097-.488.819.113 1.535.585 2.014 1.329.299.465.166 1.083-.298 1.383-.465.298-1.083.165-1.382-.299-.482-.749-1.206-.333-1.347-.244-.236.152-.41.369-.477.596-.07.236-.023.476.142.732.299.465.166 1.083-.298 1.383-.169.107-.357.159-.542.159z"/><path d="m38.847 56.999c-.102 0-.206-.016-.308-.049-.525-.17-.813-.734-.643-1.26.365-1.126.521-2.297.466-3.481-.026-.552.4-1.02.952-1.046.547-.024 1.02.399 1.046.952.067 1.426-.122 2.836-.562 4.192-.137.423-.529.692-.951.692z"/><path d="m44.99 28.675c-.131 0-.265-.025-.393-.08-.508-.218-.744-.806-.526-1.313.242-.566.446-1.156.607-1.755.144-.533.692-.848 1.225-.706.534.144.85.691.707 1.226-.185.688-.42 1.369-.7 2.022-.162.378-.532.606-.92.606z"/><path d="m32.016 37.169c-.05 0-.099-.001-.149-.001-4.649-.044-8.93-2.113-11.744-5.68-2.993-3.79-3.934-8.696-2.583-13.462 1.353-4.771 4.732-8.456 9.274-10.114 4.573-1.668 9.556-1.011 13.67 1.804 4.057 2.774 6.539 7.295 6.64 12.092.011.552-.427 1.009-.979 1.021-.538.029-1.009-.426-1.021-.979-.088-4.214-2.191-8.035-5.769-10.482-3.577-2.445-7.897-3.021-11.856-1.575-3.931 1.435-6.86 4.636-8.035 8.781-1.174 4.14-.361 8.396 2.229 11.677 2.438 3.089 6.153 4.881 10.193 4.919 4.016.002 7.772-1.683 10.264-4.719.35-.427.98-.488 1.407-.14.427.351.489.98.139 1.407-2.847 3.47-7.097 5.451-11.68 5.451z"/><path d="m34.184 56.999c-.144 0-.29-.031-.429-.097-.499-.237-.711-.834-.474-1.333.302-.635.525-1.307.664-1.997.109-.542.634-.896 1.177-.784.542.108.893.636.784 1.177-.17.851-.446 1.68-.818 2.464-.171.359-.53.57-.904.57z"/><path d="m38.847 56.999h-4.662c-.552 0-1-.447-1-1s.448-1 1-1h4.662c.552 0 1 .447 1 1s-.448 1-1 1z"/></svg>