<svg id="Layer_1" enable-background="new 0 0 64 64" height="512" viewBox="0 0 64 64" width="512" xmlns="http://www.w3.org/2000/svg"><path d="m38.929 26.07c-.256 0-.512-.098-.707-.293-.391-.391-.391-1.023 0-1.414l14.143-14.143c.391-.391 1.023-.391 1.414 0s.391 1.023 0 1.414l-14.143 14.143c-.196.196-.451.293-.707.293z"/><path d="m27.906 40.479c-1.698 0-3.079-1.359-3.079-3.03v-12.907c0-1.671 1.381-3.03 3.079-3.03.669 0 1.303.22 1.834.634l8.263 6.453c.734.571 1.157 1.443 1.157 2.393.001.951-.421 1.826-1.158 2.4l-8.262 6.454c-.532.414-1.166.633-1.834.633zm0-16.967c-.519 0-1.079.394-1.079 1.03v12.906c0 .636.56 1.03 1.079 1.03.222 0 .425-.07.604-.21l8.262-6.453c.248-.193.389-.492.389-.822 0-.328-.141-.626-.387-.817l-8.265-6.454c-.178-.14-.381-.21-.603-.21z"/><path d="m36.125 52.999c-.552 0-1-.447-1-1v-4.004c0-.553.448-1 1-1s1 .447 1 1v4.004c0 .553-.448 1-1 1z"/><path d="m28.125 52.999c-.552 0-1-.447-1-1v-4.004c0-.553.448-1 1-1s1 .447 1 1v4.004c0 .553-.448 1-1 1z"/><path d="m45.203 28.967c-.06 0-.122-.005-.183-.017-.543-.101-.902-.622-.801-1.165.422-2.282-.271-4.59-1.903-6.332-1.631-1.742-3.888-2.589-6.197-2.312-.537.067-1.045-.327-1.11-.876-.065-.548.327-1.046.876-1.11 2.941-.349 5.821.721 7.892 2.931 2.07 2.211 2.949 5.149 2.41 8.063-.091.481-.511.818-.984.818z"/><path d="m54.467 18.339c-2.338 0-4.598-.896-6.382-2.567-2.209-2.071-3.277-4.947-2.928-7.889.065-.549.568-.939 1.111-.876.548.065.94.563.875 1.11-.273 2.305.569 4.563 2.31 6.195s4.051 2.328 6.334 1.905c.543-.107 1.065.259 1.165.802s-.259 1.064-.802 1.165c-.562.104-1.125.155-1.683.155z"/><path d="m52 44.995h-40c-.552 0-1-.447-1-1v-26c0-.553.448-1 1-1h24c.552 0 1 .447 1 1s-.448 1-1 1h-23v24h38v-16.996c0-.553.448-1 1-1s1 .447 1 1v17.996c0 .553-.448 1-1 1z"/><path d="m54 48.995h-44c-1.654 0-3-1.346-3-3v-30c0-1.654 1.346-3 3-3h26.836c.552 0 1 .447 1 1s-.448 1-1 1h-26.836c-.551 0-1 .448-1 1v30c0 .552.449 1 1 1h44c.551 0 1-.448 1-1v-5.737c0-.553.448-1 1-1s1 .447 1 1v5.737c0 1.654-1.346 3-3 3z"/><path d="m56 31.258c-.552 0-1-.447-1-1v-12.259c0-.553.448-1 1-1s1 .447 1 1v12.259c0 .553-.448 1-1 1z"/><path d="m42.754 56.999h-21.259c-.552 0-1-.447-1-1v-4c0-.553.448-1 1-1h21.259c.552 0 1 .447 1 1v4c0 .553-.447 1-1 1zm-20.259-2h19.259v-2h-19.259z"/><path d="m56 37.258c-.552 0-1-.447-1-1v-2c0-.553.448-1 1-1s1 .447 1 1v2c0 .553-.448 1-1 1z"/><path d="m53.071 26.07c-.256 0-.512-.098-.707-.293l-14.142-14.142c-.391-.391-.391-1.023 0-1.414s1.023-.391 1.414 0l14.143 14.143c.391.391.391 1.023 0 1.414-.196.195-.452.292-.708.292z"/><path d="m46.017 28.976c-2.701 0-5.284-.963-7.273-2.71-3.782-3.32-4.823-8.956-2.475-13.398 1.881-3.561 5.723-5.861 9.787-5.861.888 0 1.773.108 2.63.324 4.817 1.208 8.314 5.695 8.314 10.668 0 3.56-1.735 6.915-4.643 8.978-1.843 1.307-4.036 1.999-6.34 1.999zm.039-19.97c-3.332 0-6.479 1.882-8.019 4.795-1.92 3.635-1.068 8.245 2.026 10.963 1.624 1.426 3.738 2.212 5.954 2.212 1.888 0 3.68-.563 5.183-1.63 2.379-1.688 3.8-4.435 3.8-7.347 0-4.069-2.86-7.74-6.801-8.729-.698-.175-1.419-.264-2.143-.264z"/></svg>