<svg id="Layer_1" enable-background="new 0 0 64 64" height="512" viewBox="0 0 64 64" width="512" xmlns="http://www.w3.org/2000/svg"><path d="m10.929 26.071c-.256 0-.512-.098-.707-.293-.391-.391-.391-1.023 0-1.414l14.143-14.143c.391-.391 1.023-.391 1.414 0s.391 1.023 0 1.414l-14.143 14.143c-.196.196-.451.293-.707.293z"/><path d="m26.467 18.34c-2.338 0-4.598-.895-6.381-2.567-2.21-2.071-3.278-4.947-2.93-7.889.065-.549.559-.946 1.11-.876.549.065.94.563.876 1.11-.273 2.305.569 4.563 2.311 6.195 1.74 1.632 4.051 2.327 6.333 1.905.551-.104 1.064.26 1.165.802.101.543-.259 1.064-.802 1.165-.561.104-1.125.155-1.682.155z"/><path d="m17.203 28.968c-.061 0-.121-.005-.183-.017-.543-.101-.902-.622-.802-1.165.422-2.282-.272-4.59-1.904-6.332-1.631-1.741-3.888-2.586-6.196-2.312-.558.065-1.045-.327-1.11-.876-.064-.548.327-1.046.876-1.11 2.943-.349 5.819.72 7.891 2.931 2.07 2.21 2.949 5.148 2.411 8.063-.089.481-.51.818-.983.818z"/><path d="m43 57h-9c-.553 0-1-.447-1-1s.447-1 1-1h9c.553 0 1 .447 1 1s-.447 1-1 1z"/><path d="m43 57c-.553 0-1-.447-1-1v-36c0-.553.447-1 1-1s1 .447 1 1v36c0 .553-.447 1-1 1z"/><path d="m43 21h-9c-.553 0-1-.447-1-1s.447-1 1-1h9c.553 0 1 .447 1 1s-.447 1-1 1z"/><path d="m34 57c-.553 0-1-.447-1-1v-36c0-.553.447-1 1-1s1 .447 1 1v36c0 .553-.447 1-1 1z"/><path d="m56 46c-.553 0-1-.447-1-1v-2c0-.553.447-1 1-1s1 .447 1 1v2c0 .553-.447 1-1 1z"/><path d="m56 40c-.553 0-1-.447-1-1v-7c0-.553.447-1 1-1s1 .447 1 1v7c0 .553-.447 1-1 1z"/><path d="m56 57c-.553 0-1-.447-1-1v-7c0-.553.447-1 1-1s1 .447 1 1v7c0 .553-.447 1-1 1z"/><path d="m56 33h-9c-.553 0-1-.447-1-1s.447-1 1-1h9c.553 0 1 .447 1 1s-.447 1-1 1z"/><path d="m25.071 26.071c-.256 0-.512-.098-.707-.293l-14.142-14.142c-.391-.391-.391-1.023 0-1.414s1.023-.391 1.414 0l14.143 14.143c.391.391.391 1.023 0 1.414-.196.195-.452.292-.708.292z"/><path d="m17.95 28.981c-1.777 0-3.535-.432-5.082-1.25-4.428-2.34-6.757-7.562-5.537-12.417 1.209-4.817 5.696-8.314 10.669-8.314 3.56 0 6.916 1.735 8.978 4.644 2.912 4.104 2.612 9.829-.711 13.613-2.079 2.367-5.111 3.724-8.317 3.724zm.05-19.981c-4.069 0-7.74 2.86-8.729 6.801-.998 3.974.908 8.248 4.531 10.163 1.261.666 2.695 1.018 4.148 1.018 2.631 0 5.114-1.109 6.814-3.045 2.719-3.096 2.963-7.779.582-11.137-1.688-2.379-4.434-3.8-7.346-3.8z"/><path d="m56 57h-9c-.553 0-1-.447-1-1s.447-1 1-1h9c.553 0 1 .447 1 1s-.447 1-1 1z"/><path d="m30 57h-9c-.553 0-1-.447-1-1s.447-1 1-1h9c.553 0 1 .447 1 1s-.447 1-1 1z"/><path d="m17 57h-9c-.553 0-1-.447-1-1s.447-1 1-1h9c.553 0 1 .447 1 1s-.447 1-1 1z"/><path d="m8 57c-.553 0-1-.447-1-1v-12c0-.553.447-1 1-1s1 .447 1 1v12c0 .553-.447 1-1 1z"/><path d="m47 57c-.553 0-1-.447-1-1v-24c0-.553.447-1 1-1s1 .447 1 1v24c0 .553-.447 1-1 1z"/><path d="m30 33h-9c-.553 0-1-.447-1-1s.447-1 1-1h9c.553 0 1 .447 1 1s-.447 1-1 1z"/><path d="m30 57c-.553 0-1-.447-1-1v-24c0-.553.447-1 1-1s1 .447 1 1v24c0 .553-.447 1-1 1z"/><path d="m21 57c-.553 0-1-.447-1-1v-24c0-.553.447-1 1-1s1 .447 1 1v24c0 .553-.447 1-1 1z"/><path d="m17 45h-9c-.553 0-1-.447-1-1s.447-1 1-1h9c.553 0 1 .447 1 1s-.447 1-1 1z"/><path d="m17 57c-.553 0-1-.447-1-1v-12c0-.553.447-1 1-1s1 .447 1 1v12c0 .553-.447 1-1 1z"/></svg>