<svg id="Layer_1" enable-background="new 0 0 64 64" height="512" viewBox="0 0 64 64" width="512" xmlns="http://www.w3.org/2000/svg"><path d="m10.947 26.081c-.256 0-.512-.098-.707-.293-.391-.391-.391-1.023 0-1.414l14.143-14.143c.391-.391 1.023-.391 1.414 0s.391 1.023 0 1.414l-14.143 14.143c-.195.195-.451.293-.707.293z"/><path d="m17.222 28.978c-.061 0-.121-.005-.183-.017-.543-.101-.902-.622-.802-1.165.422-2.282-.272-4.59-1.904-6.332-1.631-1.741-3.887-2.586-6.196-2.312-.552.065-1.045-.327-1.11-.876-.064-.548.327-1.046.876-1.11 2.945-.349 5.819.72 7.891 2.931 2.07 2.21 2.949 5.148 2.411 8.063-.09.481-.511.818-.983.818z"/><path d="m26.485 18.35c-2.338 0-4.598-.895-6.381-2.567-2.21-2.071-3.278-4.947-2.93-7.889.065-.549.559-.946 1.11-.876.549.065.94.563.876 1.11-.273 2.305.569 4.563 2.311 6.195 1.74 1.632 4.05 2.327 6.333 1.905.551-.104 1.064.26 1.165.802.101.543-.259 1.064-.802 1.165-.561.104-1.124.155-1.682.155z"/><path d="m30.055 44.387c-.331 0-.654-.164-.846-.464-.296-.467-.157-1.084.309-1.381l1.688-1.071c.465-.296 1.083-.157 1.381.309.296.467.157 1.084-.309 1.381l-1.688 1.071c-.166.105-.352.155-.535.155z"/><path d="m35.255 41.403c-.363 0-.714-.198-.891-.544-.252-.492-.058-1.095.434-1.346.771-.395 1.552-.782 2.337-1.172 2.937-1.456 5.975-2.963 8.548-4.917 2.14-1.624 3.046-3.036 2.853-4.442-.304-2.202-2.928-3.68-4.874-4.6-3.863-1.825-8.028-2.933-11.964-3.909-.536-.133-.862-.676-.729-1.212.133-.537.677-.859 1.212-.729 4.032 1.001 8.307 2.139 12.336 4.042 2.367 1.118 5.564 2.972 6 6.135.444 3.221-2.618 5.545-3.624 6.31-2.725 2.068-5.848 3.617-8.868 5.115-.777.386-1.552.77-2.313 1.159-.149.075-.304.11-.457.11z"/><path d="m17.969 28.991c-1.777 0-3.535-.432-5.082-1.25-4.428-2.34-6.757-7.561-5.537-12.417 1.209-4.817 5.696-8.314 10.669-8.314 3.56 0 6.916 1.735 8.978 4.644 2.912 4.104 2.612 9.829-.711 13.613-2.079 2.367-5.111 3.724-8.317 3.724zm.05-19.981c-4.069 0-7.74 2.86-8.729 6.801-.998 3.974.908 8.248 4.531 10.163 1.261.666 2.695 1.018 4.148 1.018 2.631 0 5.114-1.109 6.814-3.045 2.719-3.096 2.963-7.779.582-11.137-1.688-2.379-4.434-3.8-7.346-3.8z"/><path d="m25.09 26.081c-.256 0-.512-.098-.707-.293l-14.143-14.142c-.391-.391-.391-1.023 0-1.414s1.023-.391 1.414 0l14.143 14.143c.391.391.391 1.023 0 1.414-.195.194-.451.292-.707.292z"/><path d="m33.654 54.622c-.07 0-.143-.008-.215-.023l-.157-.034c-3.195-.697-10.678-2.329-12.307-6.234-.589-1.411-.383-2.921.612-4.487 1.091-1.719 2.813-2.933 4.333-4.004l.146-.104c1.403-.989 2.882-1.897 4.312-2.774.527-.323 1.055-.647 1.578-.975 1.661-1.041 3.424-2.154 5.098-3.311 1.286-.89 2.61-1.856 3.423-3.035-1.122-1.006-2.725-1.582-4.274-2.14l-.114-.04c-1.945-.7-4.021-1.188-6.026-1.659l.418-1.956-.229.974.269-.964c2.061.483 4.191.984 6.245 1.723l.113.041c1.654.595 3.528 1.269 4.942 2.556.735.678.864 1.767.31 2.592-1.012 1.467-2.501 2.56-3.939 3.554-1.708 1.181-3.492 2.308-5.173 3.361-.529.331-1.062.657-1.594.983-1.402.861-2.854 1.752-4.205 2.705l-.146.103c-1.435 1.012-2.918 2.058-3.798 3.442-.632.996-.78 1.861-.454 2.646 1.228 2.942 8.498 4.529 10.888 5.05l.158.035c.539.117.881.65.763 1.19-.103.466-.517.785-.977.785z"/><path d="m54.754 56.991c-.018 0-.034 0-.052 0-.553-.012-.991-.469-.979-1.021.013-.553.519-.99 1.021-.979.072.001.222.007.237-.253.016-.266-.141-.28-.208-.287-.549-.054-.951-.543-.897-1.093s.533-.949 1.093-.897c1.239.121 2.084 1.128 2.009 2.396-.076 1.245-1.006 2.134-2.224 2.134z"/><path d="m54.723 56.991c-.006 0-.013 0-.02 0-7.125-.14-14.275-.943-21.253-2.39-.541-.112-.888-.642-.776-1.183.112-.54.642-.887 1.183-.776 6.857 1.422 13.884 2.212 20.886 2.349.552.011.991.468.98 1.02-.011.546-.456.98-1 .98z"/><path d="m54.871 54.456c-.034 0-.068-.002-.104-.005-1.771-.183-3.537-.39-5.304-.609-4.449-.555-8.792-1.146-13.03-2.261-2.09-.549-4.127-1.118-6.085-2.036-1.254-.588-2.643-1.325-3.274-2.641-.239-.498-.029-1.095.469-1.334.5-.242 1.096-.029 1.334.469.376.783 1.593 1.354 2.32 1.695 1.806.846 3.748 1.388 5.745 1.913 4.119 1.083 8.39 1.663 12.769 2.21 1.752.218 3.504.423 5.262.604.549.057.949.548.893 1.098-.054.514-.488.897-.995.897z"/></svg>