<?xml version="1.0" encoding="utf-8"?>
<!-- Generator: Adobe Illustrator 19.0.0, SVG Export Plug-In . SVG Version: 6.00 Build 0)  -->
<svg version="1.1" id="Layer_1" 
	xmlns="http://www.w3.org/2000/svg" 
	xmlns:xlink="http://www.w3.org/1999/xlink" x="0px" y="0px" viewBox="470 310 500 400" width="550" height="400" xml:space="preserve">
	<style type="text/css">
	.st0{fill:#F15A29;}
	.st1{fill:#939598;}
	</style>
	<g id="XMLID_14_">
		<g id="XMLID_15_">
			<polygon id="XMLID_90_" class="st0" points="457.4,653.2 472.1,653.2 472.1,624.2 511.4,624.2 511.4,610.6 472.1,610.6 
			472.1,589.2 513.6,589.2 513.6,575.1 457.4,575.1 		"/>
			<path id="XMLID_324_" class="st0" d="M550.8,574.9l-35.1,78.2h16l6.7-14.7h40.9l6.6,14.7H602l-35.1-78.2H550.8z M544.3,624.7
			l14.5-33.3l14.5,33.3H544.3z"/>
			<polygon id="XMLID_325_" class="st0" points="660.1,623.4 621.7,574.9 609.8,574.9 609.8,653.2 624.5,653.2 624.5,600.4 
			665.6,653.3 665.6,653.2 674.8,653.2 674.8,574.8 660.1,574.8 		"/>
			<path id="XMLID_326_" class="st0" d="M683.7,588.4h24.8v64.8h14.7v-64.8h24.8v-13.4c-22.7,0-41.8,0-64.4,0V588.4z"/>
			<path id="XMLID_329_" class="st0" d="M784.1,574.9L749,653.2h16l6.7-14.7h40.9l6.6,14.7h16.1l-35.1-78.2H784.1z M777.6,624.7
			l14.5-33.3l14.5,33.3H777.6z"/>
			<path id="XMLID_330_" class="st0" d="M871.7,605.3c-9.4-1.1-17.4-3-17.4-9.8c0-5.8,5.3-10.4,16.2-10.4c8.5,0,15.9,4.2,18.5,8.7
			l11.7-6c-5.9-12.1-18.5-15.5-30.7-15.5c-14.4,0.1-30.3,6.7-30.3,22.8c0,17.5,14.7,21.8,30.7,23.7c10.4,1.1,18.1,4.1,18.1,11.5
			c0,8.5-8.7,11.7-18,11.7c-9.5,0-18.5-3.8-22-12.4l-12.3,6.4c5.8,14.3,18.1,19.2,34.1,19.2c17.4,0,32.8-7.5,32.8-24.9
			C903.2,611.6,888,607.3,871.7,605.3z"/>
			<polygon id="XMLID_331_" class="st0" points="964.8,574.9 944.1,607.2 924.2,574.9 906.6,574.9 906.6,575.6 936.7,620.9 
			936.7,653.2 951.4,653.2 951.4,620.9 982.6,575.6 982.6,574.9 		"/>
		</g>
		<g id="XMLID_101_">
			<g id="XMLID_102_">
				<path id="XMLID_118_" class="st0" d="M831.8,405.3c8.8,61.8-31.5,109-60.7,119.7c-0.7-5.8-1.3-11.6-2.3-19.6
				c-10.3,16.9-19.5,31.8-29.3,47.8C816.3,539.3,851.3,462.3,831.8,405.3z"/>
				<path id="XMLID_103_" class="st0" d="M651.1,523c-20.8-21.5-31.6-47.3-33.5-77.1c-0.5-7.3,1.6-8.8,8.3-6.1c3.2,1.3,6.7,3,11.1,2
				c-8.7-14.8-17.2-29.1-26.1-44.2c-26.4,62.3,16,140.3,82,153.4C677.1,544.3,663,535.3,651.1,523z"/>
				<path id="XMLID_119_" class="st0" d="M686.7,347.8c-5.5-4.3-4.9-6.6,1.7-9.1c33.1-12,65.2-10.5,96.6,5.5c2.3,1.2,4.4,3.5,8,2.8
				c-39.7-35.2-111.5-36.6-154.8,7.7c18.5,0,36.3,0,55.2,0C690.7,351.9,689,349.5,686.7,347.8z"/>
			</g>
			<polygon id="XMLID_120_" class="st1" points="808,367.6 798.1,384.6 786.6,404.7 776.7,421.8 765.6,441 744.1,441 755.2,421.8 
			765,404.7 776.6,384.6 786.5,367.6 766.8,367.6 756.9,384.6 745.4,404.7 735.5,421.8 724.4,441 714.5,458.1 699.1,484.9 
			689.2,502 699.1,519 708.9,502 734.2,458.1 755.7,458.1 719.7,520.6 709.8,537.6 719.7,554.7 775.4,458.1 785.3,441 796.4,421.8 
			806.2,404.7 827.7,367.6 		"/>
			<path id="XMLID_182_" class="st1" d="M687,463.9l-3.4-5.9l-9.8-17.1l-11.1-19.3h48.7H731l9.8-17.1h-19.7h-68.4l-11.6-20.1h51.1
			c-1.3-3.4-2-7.1-2-10.9c0-2.1,0.2-4.2,0.6-6.2h-79.3l21.4,37.1l9.8,17.1L654,441l9.8,17.1l13.2,22.9l9.8,17.1l9.8-17.1L687,463.9z
			"/>
			<path id="XMLID_185_" class="st0" d="M725.2,402.4c17.6,0,31.7-14.1,31.7-31.7c0-17.4-14.1-31.5-31.6-31.5
			c-17.4,0-31.6,14-31.6,31.6C693.7,388.3,707.6,402.4,725.2,402.4z M729.7,396.2c-0.7,0.1-1.4,0.2-2.2,0.3c-0.2,0-0.3,0-0.3-0.3
			c0-3.1,0-6.2,0-9.3c0-0.3,0.1-0.3,0.3-0.3c1.7-0.1,3.4-0.4,5.1-0.8c0.3-0.1,0.3,0.1,0.3,0.3c0.3,1.2,0.7,2.3,1.4,3.3
			c1,1.5,2.4,2.6,4,3.4c0.1,0,0.1,0.1,0.2,0.1C735.8,394.6,732.8,395.7,729.7,396.2z M750.2,377.6c-1.3,4.8-3.8,8.8-7.4,12.2
			c-1.1,1-1.1,1.1-2.5,0.5c-2.4-0.9-3.8-2.5-4.4-5c-0.1-0.3,0-0.5,0.3-0.6c3.7-1.3,7-3.2,9.9-5.8c1.7-1.4,3.1-3,4.5-4.7
			c0.1-0.1,0.2-0.2,0.3-0.4C750.7,375.2,750.5,376.4,750.2,377.6z M742.2,352.5c0-0.4,0-0.8-0.2-1.3c1,0.8,1.7,1.6,2.5,2.4
			c3,3.4,5,7.4,6,11.9c0.1,0.7,0.2,1.3,0.3,2c0.1,0.4,0,0.7-0.2,1c-2,3.6-4.6,6.7-7.9,9.2c-1.9,1.5-5.4,3.4-7.1,3.9
			c0.3-3.5,1.4-6.8,2.8-10.1c1.3-3.1,2.3-6.2,3-9.4C742.1,359,742.5,355.8,742.2,352.5z M727.7,345.1c3.7,0.4,7.1,1.4,10.3,3.2
			c0.3,0.2,0.4,0.3,0.5,0.6c0.7,2.1,0.8,4.3,0.7,6.5c-0.2,4.2-1.2,8.2-2.5,12.1c-0.8,2.2-1.8,4.4-2.5,6.6c-0.9,2.7-1.6,5.3-1.6,8.2
			c0,0.3-0.1,0.4-0.3,0.4c-1.5,0.4-3.1,0.5-4.7,0.8c-0.4,0.1-0.3-0.2-0.3-0.4c0-6.3,0-12.6,0-18.8c0-6.3,0-12.6,0-18.8
			C727.2,345.2,727.2,345,727.7,345.1z M722.9,396.5c-1.4-0.2-2.8-0.4-4.2-0.7c-2.4-0.6-4.7-1.6-6.9-2.9c1.2-0.5,2.3-1.2,3.2-2.2
			c1.2-1.2,2-2.8,2.5-4.4c0.2-0.6,0.2-0.6,0.8-0.5c1.6,0.3,3.2,0.5,4.8,0.6c0.3,0,0.3,0.1,0.3,0.3c0,3.2,0,6.3,0,9.5
			C723.3,396.5,723.2,396.5,722.9,396.5z M711.5,350.7c0.1-0.6,0.3-1.3,0.5-1.9c0.1-0.2,0.2-0.4,0.4-0.5c3-1.7,6.2-2.8,9.6-3.2
			c0.4,0,1-0.3,1.2,0c0.2,0.2,0.1,0.8,0.1,1.2c0,6,0,12,0,18c0,6.3,0,12.5,0,18.8c0,0.4-0.1,0.5-0.5,0.5c-1.6-0.1-3.1-0.5-4.6-0.8
			c-0.3-0.1-0.3-0.3-0.3-0.5c0-2.2-0.5-4.3-1.1-6.5c-0.7-2.4-1.7-4.7-2.6-7.1c-1.4-3.6-2.4-7.3-2.8-11.1
			C711.1,355.4,711.1,353,711.5,350.7z M699.7,366.7c0.7-4.6,2.6-8.6,5.5-12.2c0.9-1.1,1.9-2.1,3.1-3.2c-0.1,0.7-0.1,1.3-0.2,2
			c-0.1,2,0.1,3.9,0.4,5.9c0.7,4.9,2.3,9.5,4.2,14.1c1,2.4,1.7,4.8,2,7.4c0,0.3,0.1,0.7,0.1,1c-2.1-0.8-4-1.8-5.8-3
			c-3.8-2.6-6.8-5.9-9.1-9.9C699.6,368,699.6,367.4,699.7,366.7z M699.7,374.7c0-0.3-0.1-0.6-0.1-1c1,1.2,1.9,2.4,3,3.5
			c3.3,3.3,7.2,5.8,11.6,7.4c0.4,0.1,0.4,0.3,0.3,0.7c-0.7,2.9-2.6,4.6-5.5,5.2c-0.3,0.1-0.5,0-0.7-0.2c-4.4-3.9-7.2-8.6-8.5-14.3
			C699.8,375.6,699.8,375.2,699.7,374.7z"/>
		</g>
		<g id="XMLID_123_">
			<rect id="XMLID_124_" x="457.4" y="678.2" class="st1" width="151.2" height="5.8"/>
			<rect id="XMLID_125_" x="829.2" y="678.2" class="st1" width="153.4" height="5.8"/>
			<polygon id="XMLID_126_" class="st1" points="645.4,678.8 625,678.8 625,662.7 618.4,662.7 618.4,702.4 625,702.4 625,684.5 
			645.4,684.5 645.4,702.4 651.9,702.4 651.9,662.7 645.4,662.7 		"/>
			<path id="XMLID_129_" class="st1" d="M680.6,662.2c-5.8,0-10.7,2-14.8,6c-4,4-6,8.8-6,14.6s2,10.6,5.9,14.5
			c3.9,3.9,8.8,5.8,14.7,5.8c5.9,0,10.8-2,14.8-6c4-4,6-8.8,6-14.6s-2-10.6-5.9-14.5C691.4,664.1,686.5,662.2,680.6,662.2z
			 M690.6,692.8c-2.7,2.8-6.1,4.1-10.1,4.1c-4,0-7.4-1.4-10.1-4.1c-2.7-2.8-4.1-6.2-4.1-10.3c0-4.1,1.4-7.5,4.1-10.3
			c2.7-2.8,6.1-4.1,10.1-4.1c4,0,7.4,1.4,10.1,4.1c2.7,2.8,4.1,6.2,4.1,10.3C694.7,686.6,693.3,690.1,690.6,692.8z"/>
			<path id="XMLID_132_" class="st1" d="M727.7,662.2c-5.8,0-10.7,2-14.8,6c-4,4-6,8.8-6,14.6s2,10.6,5.9,14.5
			c3.9,3.9,8.8,5.8,14.7,5.8c5.9,0,10.8-2,14.8-6c4-4,6-8.8,6-14.6s-2-10.6-5.9-14.5S733.5,662.2,727.7,662.2z M737.7,692.8
			c-2.7,2.8-6.1,4.1-10.1,4.1c-4,0-7.4-1.4-10.1-4.1c-2.7-2.8-4.1-6.2-4.1-10.3c0-4.1,1.4-7.5,4.1-10.3c2.7-2.8,6.1-4.1,10.1-4.1
			c4,0,7.4,1.4,10.1,4.1c2.7,2.8,4.1,6.2,4.1,10.3C741.7,686.6,740.4,690.1,737.7,692.8z"/>
			<path id="XMLID_135_" class="st1" d="M772.8,662.7h-16.6v39.7h6.5v-13.6h9.9c4.3,0,7.8-1.2,10.5-3.7c2.7-2.5,4.1-5.6,4.1-9.4
			c0-3.8-1.3-6.9-3.9-9.4C780.5,663.9,777.1,662.7,772.8,662.7z M778.2,681.3c-1.5,1.4-3.6,2.1-6.1,2.1h-9.4v-15.1h9.4
			c2.5,0,4.6,0.7,6.1,2.2c1.5,1.4,2.3,3.2,2.3,5.4S779.8,679.9,778.2,681.3z"/>
			<path id="XMLID_178_" class="st1" d="M807.7,679.3c-2.9-1.1-5-2.1-6.2-3.1c-1.2-1-1.8-2.3-1.8-3.8c0-1.2,0.6-2.4,1.8-3.3
			c1.2-1,2.8-1.5,4.9-1.5c1.6,0,3.2,0.3,4.7,1c1.5,0.7,2.5,1.2,3,1.6c0.5,0.4,0.8,0.8,1.1,1l3.9-4.3l-0.5-0.5
			c-0.3-0.3-0.9-0.7-1.6-1.2c-0.7-0.5-1.6-0.9-2.6-1.4c-1-0.5-2.2-0.9-3.7-1.2c-1.5-0.3-3-0.5-4.5-0.5c-3.9,0-7.1,1-9.6,3.1
			c-2.4,2-3.7,4.6-3.7,7.7c0,5,3.3,8.7,9.9,11.1c3.7,1.3,6.3,2.6,7.7,3.8c1.4,1.2,2.1,2.7,2.1,4.4c0,1.5-0.6,2.8-1.9,3.8
			c-1.2,1-2.9,1.5-4.8,1.5c-2,0-4-0.4-5.9-1.2c-1.9-0.8-3.2-1.5-3.8-2c-0.6-0.5-1-0.9-1.4-1.2l-3.9,4.2l0.6,0.6
			c0.4,0.4,1,0.9,1.8,1.4c0.8,0.5,1.8,1.1,2.9,1.6c1.1,0.5,2.5,1,4.1,1.4c1.7,0.4,3.4,0.6,5.2,0.6c4.2,0,7.5-1.1,10-3.3
			c2.5-2.2,3.8-4.9,3.8-8.2C819.4,686.1,815.5,682,807.7,679.3z"/>
		</g>
	</g>
</svg>
