<svg version="1.1" id="Layer_1" x="0" y="0" viewBox="449 309 227 234" width="236" height="234" xml:space="preserve" xmlns="http://www.w3.org/2000/svg"><style id="style2">.st0{fill:#f15a29}.st1{fill:#939598}</style><g id="XMLID_14_" transform="translate(-157.948 -10.99)"><g id="XMLID_101_"><g id="XMLID_102_"><path id="XMLID_118_" class="st0" d="M831.8 405.3c8.8 61.8-31.5 109-60.7 119.7-.7-5.8-1.3-11.6-2.3-19.6-10.3 16.9-19.5 31.8-29.3 47.8 76.8-13.9 111.8-90.9 92.3-147.9z"/><path id="XMLID_103_" class="st0" d="M651.1 523c-20.8-21.5-31.6-47.3-33.5-77.1-.5-7.3 1.6-8.8 8.3-6.1 3.2 1.3 6.7 3 11.1 2-8.7-14.8-17.2-29.1-26.1-44.2-26.4 62.3 16 140.3 82 153.4-15.8-6.7-29.9-15.7-41.8-28z"/><path id="XMLID_119_" class="st0" d="M686.7 347.8c-5.5-4.3-4.9-6.6 1.7-9.1 33.1-12 65.2-10.5 96.6 5.5 2.3 1.2 4.4 3.5 8 2.8-39.7-35.2-111.5-36.6-154.8 7.7h55.2c-2.7-2.8-4.4-5.2-6.7-6.9z"/></g><path id="XMLID_120_" class="st1" d="M808 367.6l-9.9 17-11.5 20.1-9.9 17.1-11.1 19.2h-21.5l11.1-19.2 9.8-17.1 11.6-20.1 9.9-17h-19.7l-9.9 17-11.5 20.1-9.9 17.1-11.1 19.2-9.9 17.1-15.4 26.8-9.9 17.1 9.9 17 9.8-17 25.3-43.9h21.5l-36 62.5-9.9 17 9.9 17.1 55.7-96.6 9.9-17.1 11.1-19.2 9.8-17.1 21.5-37.1z"/><path id="XMLID_182_" class="st1" d="M687 463.9l-3.4-5.9-9.8-17.1-11.1-19.3H731l9.8-17.1h-88.1l-11.6-20.1h51.1c-1.3-3.4-2-7.1-2-10.9 0-2.1.2-4.2.6-6.2h-79.3l21.4 37.1 9.8 17.1L654 441l9.8 17.1L677 481l9.8 17.1 9.8-17.1z"/><path id="XMLID_185_" class="st0" d="M725.2 402.4c17.6 0 31.7-14.1 31.7-31.7 0-17.4-14.1-31.5-31.6-31.5-17.4 0-31.6 14-31.6 31.6 0 17.5 13.9 31.6 31.5 31.6zm4.5-6.2c-.7.1-1.4.2-2.2.3-.2 0-.3 0-.3-.3v-9.3c0-.3.1-.3.3-.3 1.7-.1 3.4-.4 5.1-.8.3-.1.3.1.3.3.3 1.2.7 2.3 1.4 3.3 1 1.5 2.4 2.6 4 3.4.1 0 .1.1.2.1-2.7 1.7-5.7 2.8-8.8 3.3zm20.5-18.6c-1.3 4.8-3.8 8.8-7.4 12.2-1.1 1-1.1 1.1-2.5.5-2.4-.9-3.8-2.5-4.4-5-.1-.3 0-.5.3-.6 3.7-1.3 7-3.2 9.9-5.8 1.7-1.4 3.1-3 4.5-4.7.1-.1.2-.2.3-.4-.2 1.4-.4 2.6-.7 3.8zm-8-25.1c0-.4 0-.8-.2-1.3 1 .8 1.7 1.6 2.5 2.4 3 3.4 5 7.4 6 11.9.1.7.2 1.3.3 2 .1.4 0 .7-.2 1-2 3.6-4.6 6.7-7.9 9.2-1.9 1.5-5.4 3.4-7.1 3.9.3-3.5 1.4-6.8 2.8-10.1 1.3-3.1 2.3-6.2 3-9.4.7-3.1 1.1-6.3.8-9.6zm-14.5-7.4c3.7.4 7.1 1.4 10.3 3.2.3.2.4.3.5.6.7 2.1.8 4.3.7 6.5-.2 4.2-1.2 8.2-2.5 12.1-.8 2.2-1.8 4.4-2.5 6.6-.9 2.7-1.6 5.3-1.6 8.2 0 .3-.1.4-.3.4-1.5.4-3.1.5-4.7.8-.4.1-.3-.2-.3-.4v-37.6c-.1-.3-.1-.5.4-.4zm-4.8 51.4c-1.4-.2-2.8-.4-4.2-.7-2.4-.6-4.7-1.6-6.9-2.9 1.2-.5 2.3-1.2 3.2-2.2 1.2-1.2 2-2.8 2.5-4.4.2-.6.2-.6.8-.5 1.6.3 3.2.5 4.8.6.3 0 .3.1.3.3v9.5c-.1.3-.2.3-.5.3zm-11.4-45.8c.1-.6.3-1.3.5-1.9.1-.2.2-.4.4-.5 3-1.7 6.2-2.8 9.6-3.2.4 0 1-.3 1.2 0 .2.2.1.8.1 1.2v36.8c0 .4-.1.5-.5.5-1.6-.1-3.1-.5-4.6-.8-.3-.1-.3-.3-.3-.5 0-2.2-.5-4.3-1.1-6.5-.7-2.4-1.7-4.7-2.6-7.1-1.4-3.6-2.4-7.3-2.8-11.1-.3-2.2-.3-4.6.1-6.9zm-11.8 16c.7-4.6 2.6-8.6 5.5-12.2.9-1.1 1.9-2.1 3.1-3.2-.1.7-.1 1.3-.2 2-.1 2 .1 3.9.4 5.9.7 4.9 2.3 9.5 4.2 14.1 1 2.4 1.7 4.8 2 7.4 0 .3.1.7.1 1-2.1-.8-4-1.8-5.8-3-3.8-2.6-6.8-5.9-9.1-9.9-.3-.8-.3-1.4-.2-2.1zm0 8c0-.3-.1-.6-.1-1 1 1.2 1.9 2.4 3 3.5 3.3 3.3 7.2 5.8 11.6 7.4.4.1.4.3.3.7-.7 2.9-2.6 4.6-5.5 5.2-.3.1-.5 0-.7-.2-4.4-3.9-7.2-8.6-8.5-14.3 0-.4 0-.8-.1-1.3z"/></g></g></svg>