<svg version="1.1" id="Layer_1" x="0" y="0" viewBox="470 550 477.455 130.8" width="525.2" height="130.8" xml:space="preserve" xmlns="http://www.w3.org/2000/svg"><style id="style66">.st0{fill:#f15a29}.st1{fill:#939598}</style><g id="XMLID_14_" transform="translate(-12.4 -22.3)"><g id="XMLID_15_"><path id="XMLID_90_" class="st0" d="M457.4 653.2h14.7v-29h39.3v-13.6h-39.3v-21.4h41.5v-14.1h-56.2z"/><path id="XMLID_324_" class="st0" d="M550.8 574.9l-35.1 78.2h16l6.7-14.7h40.9l6.6 14.7H602l-35.1-78.2zm-6.5 49.8l14.5-33.3 14.5 33.3z"/><path id="XMLID_325_" class="st0" d="M660.1 623.4l-38.4-48.5h-11.9v78.3h14.7v-52.8l41.1 52.9v-.1h9.2v-78.4h-14.7z"/><path id="XMLID_326_" class="st0" d="M683.7 588.4h24.8v64.8h14.7v-64.8H748V575h-64.4v13.4z"/><path id="XMLID_329_" class="st0" d="M784.1 574.9L749 653.2h16l6.7-14.7h40.9l6.6 14.7h16.1L800.2 575h-16.1zm-6.5 49.8l14.5-33.3 14.5 33.3z"/><path id="XMLID_330_" class="st0" d="M871.7 605.3c-9.4-1.1-17.4-3-17.4-9.8 0-5.8 5.3-10.4 16.2-10.4 8.5 0 15.9 4.2 18.5 8.7l11.7-6c-5.9-12.1-18.5-15.5-30.7-15.5-14.4.1-30.3 6.7-30.3 22.8 0 17.5 14.7 21.8 30.7 23.7 10.4 1.1 18.1 4.1 18.1 11.5 0 8.5-8.7 11.7-18 11.7-9.5 0-18.5-3.8-22-12.4l-12.3 6.4c5.8 14.3 18.1 19.2 34.1 19.2 17.4 0 32.8-7.5 32.8-24.9.1-18.7-15.1-23-31.4-25z"/><path id="XMLID_331_" class="st0" d="M964.8 574.9l-20.7 32.3-19.9-32.3h-17.6v.7l30.1 45.3v32.3h14.7v-32.3l31.2-45.3v-.7z"/></g><g id="XMLID_123_"><path id="XMLID_124_" class="st1" d="M457.4 678.2h151.2v5.8H457.4z"/><path id="XMLID_125_" class="st1" d="M829.2 678.2h153.4v5.8H829.2z"/><path id="XMLID_126_" class="st1" d="M645.4 678.8H625v-16.1h-6.6v39.7h6.6v-17.9h20.4v17.9h6.5v-39.7h-6.5z"/><path id="XMLID_129_" class="st1" d="M680.6 662.2c-5.8 0-10.7 2-14.8 6-4 4-6 8.8-6 14.6 0 5.8 2 10.6 5.9 14.5 3.9 3.9 8.8 5.8 14.7 5.8 5.9 0 10.8-2 14.8-6s6-8.8 6-14.6c0-5.8-2-10.6-5.9-14.5-3.9-3.9-8.8-5.8-14.7-5.8zm10 30.6c-2.7 2.8-6.1 4.1-10.1 4.1s-7.4-1.4-10.1-4.1c-2.7-2.8-4.1-6.2-4.1-10.3 0-4.1 1.4-7.5 4.1-10.3 2.7-2.8 6.1-4.1 10.1-4.1s7.4 1.4 10.1 4.1c2.7 2.8 4.1 6.2 4.1 10.3 0 4.1-1.4 7.6-4.1 10.3z"/><path id="XMLID_132_" class="st1" d="M727.7 662.2c-5.8 0-10.7 2-14.8 6-4 4-6 8.8-6 14.6 0 5.8 2 10.6 5.9 14.5 3.9 3.9 8.8 5.8 14.7 5.8 5.9 0 10.8-2 14.8-6s6-8.8 6-14.6c0-5.8-2-10.6-5.9-14.5-3.9-3.9-8.9-5.8-14.7-5.8zm10 30.6c-2.7 2.8-6.1 4.1-10.1 4.1s-7.4-1.4-10.1-4.1c-2.7-2.8-4.1-6.2-4.1-10.3 0-4.1 1.4-7.5 4.1-10.3 2.7-2.8 6.1-4.1 10.1-4.1s7.4 1.4 10.1 4.1c2.7 2.8 4.1 6.2 4.1 10.3-.1 4.1-1.4 7.6-4.1 10.3z"/><path id="XMLID_135_" class="st1" d="M772.8 662.7h-16.6v39.7h6.5v-13.6h9.9c4.3 0 7.8-1.2 10.5-3.7s4.1-5.6 4.1-9.4c0-3.8-1.3-6.9-3.9-9.4-2.8-2.4-6.2-3.6-10.5-3.6zm5.4 18.6c-1.5 1.4-3.6 2.1-6.1 2.1h-9.4v-15.1h9.4c2.5 0 4.6.7 6.1 2.2 1.5 1.4 2.3 3.2 2.3 5.4s-.7 4-2.3 5.4z"/><path id="XMLID_178_" class="st1" d="M807.7 679.3c-2.9-1.1-5-2.1-6.2-3.1-1.2-1-1.8-2.3-1.8-3.8 0-1.2.6-2.4 1.8-3.3 1.2-1 2.8-1.5 4.9-1.5 1.6 0 3.2.3 4.7 1s2.5 1.2 3 1.6c.5.4.8.8 1.1 1l3.9-4.3-.5-.5c-.3-.3-.9-.7-1.6-1.2-.7-.5-1.6-.9-2.6-1.4-1-.5-2.2-.9-3.7-1.2-1.5-.3-3-.5-4.5-.5-3.9 0-7.1 1-9.6 3.1-2.4 2-3.7 4.6-3.7 7.7 0 5 3.3 8.7 9.9 11.1 3.7 1.3 6.3 2.6 7.7 3.8 1.4 1.2 2.1 2.7 2.1 4.4 0 1.5-.6 2.8-1.9 3.8-1.2 1-2.9 1.5-4.8 1.5-2 0-4-.4-5.9-1.2-1.9-.8-3.2-1.5-3.8-2-.6-.5-1-.9-1.4-1.2l-3.9 4.2.6.6c.4.4 1 .9 1.8 1.4.8.5 1.8 1.1 2.9 1.6 1.1.5 2.5 1 4.1 1.4 1.7.4 3.4.6 5.2.6 4.2 0 7.5-1.1 10-3.3 2.5-2.2 3.8-4.9 3.8-8.2.1-5.3-3.8-9.4-11.6-12.1z"/></g></g></svg>