<svg id="Capa_1" enable-background="new 0 0 512.5 512.5" height="512" viewBox="0 0 512.5 512.5" width="512" xmlns="http://www.w3.org/2000/svg"><g><path d="m120.584 105.5c12.634 0 24.745-4.573 34.212-12.716 9.115 7.62 20.84 12.216 33.621 12.216 12.356 0 24.244-4.388 33.627-12.222 9.196 7.919 21.147 12.722 34.206 12.722s25.01-4.804 34.206-12.722c9.383 7.834 21.271 12.222 33.627 12.222 12.782 0 24.507-4.596 33.621-12.216 9.467 8.144 21.578 12.716 34.212 12.716 28.949 0 52.5-23.551 52.5-52.5s-23.551-52.5-52.5-52.5c-12.356 0-24.244 4.388-33.627 12.223-9.196-7.919-21.147-12.723-34.206-12.723-12.634 0-24.745 4.572-34.212 12.716-9.115-7.62-20.84-12.216-33.621-12.216s-24.506 4.596-33.621 12.216c-9.467-8.144-21.577-12.716-34.212-12.716-13.059 0-25.01 4.804-34.206 12.723-9.382-7.835-21.271-12.223-33.627-12.223-28.949 0-52.5 23.551-52.5 52.5s23.551 52.5 52.5 52.5zm308.832-52.5c0 20.678-16.822 37.5-37.5 37.5-8.909 0-17.458-3.183-24.184-8.866 5.586-8.342 8.851-18.363 8.851-29.134 0-10.494-3.107-20.271-8.432-28.482 6.664-5.467 15.055-8.518 23.766-8.518 20.677 0 37.499 16.822 37.499 37.5zm-67.833-.5c0 20.678-16.822 37.5-37.5 37.5-8.71 0-17.101-3.052-23.765-8.518 5.325-8.211 8.432-17.988 8.432-28.482 0-10.771-3.265-20.793-8.851-29.135 6.726-5.682 15.274-8.865 24.184-8.865 20.677 0 37.5 16.822 37.5 37.5zm-105.333-37c20.678 0 37.5 16.822 37.5 37.5s-16.822 37.5-37.5 37.5-37.5-16.822-37.5-37.5 16.822-37.5 37.5-37.5zm-67.833-.5c8.909 0 17.458 3.183 24.184 8.865-5.586 8.342-8.851 18.363-8.851 29.135 0 10.495 3.107 20.271 8.432 28.482-6.663 5.466-15.054 8.518-23.765 8.518-20.678 0-37.5-16.822-37.5-37.5s16.823-37.5 37.5-37.5zm-67.833.5c8.711 0 17.102 3.052 23.766 8.518-5.325 8.211-8.432 17.987-8.432 28.482 0 10.771 3.265 20.792 8.851 29.134-6.726 5.684-15.275 8.866-24.184 8.866-20.678 0-37.5-16.822-37.5-37.5s16.821-37.5 37.499-37.5z"/><path d="m67.422 150.5c-4.142 0-7.5 3.358-7.5 7.5v15c0 4.142 3.358 7.5 7.5 7.5s7.5-3.358 7.5-7.5v-15c0-4.142-3.358-7.5-7.5-7.5z"/><path d="m445.078 120.5h-377.656c-20.678 0-37.5 16.822-37.5 37.5v122.511c0 12.336 9.883 22 22.5 22 2.643 0 5.163-.429 7.5-1.213v124.786c0 14.566 11.851 26.417 26.417 26.417s26.417-11.851 26.417-26.417v-124.786c2.337.784 4.857 1.213 7.5 1.213s5.163-.429 7.5-1.213v124.286c0 14.566 11.851 26.417 26.417 26.417 14.675 0 27.073-12.097 27.073-26.417v-124.363c2.347.833 4.871 1.29 7.5 1.29s5.153-.458 7.5-1.29v124.863c0 14.566 11.851 26.417 26.417 26.417s26.417-11.851 26.417-26.417v-138.573h15v138.573c0 14.566 11.851 26.417 26.417 26.417s26.417-11.851 26.417-26.417v-124.786c2.337.784 4.858 1.213 7.5 1.213 2.643 0 5.163-.429 7.5-1.213v124.285c0 14.566 11.85 26.417 26.416 26.417s26.417-11.851 26.417-26.417v-124.285c2.337.784 4.858 1.213 7.5 1.213 2.643 0 5.163-.429 7.5-1.213v124.785c0 14.566 11.851 26.417 26.417 26.417s26.417-11.851 26.417-26.417v-124.785c2.337.784 4.858 1.213 7.5 1.213 12.617 0 22.5-9.664 22.5-22v-122.511c-.003-20.678-16.825-37.5-37.503-37.5zm-347.323 305.583c0 6.295-5.122 11.417-11.417 11.417s-11.417-5.122-11.417-11.417v-223.083c0-4.142-3.358-7.5-7.5-7.5s-7.5 3.358-7.5 7.5v77.511c0 3.991-3.225 7-7.5 7s-7.5-3.009-7.5-7v-122.511c0-12.407 10.093-22.5 22.5-22.5h37.854c-4.719 6.272-7.52 14.064-7.52 22.5zm68.491-.5c0 6.082-5.642 11.417-12.073 11.417-6.295 0-11.417-5.122-11.417-11.417v-268.083c0-4.142-3.358-7.5-7.5-7.5s-7.5 3.358-7.5 7.5v123.001c0 4-3.225 7.01-7.5 7.01s-7.5-3.009-7.5-7v-122.511c0-12.407 10.093-22.5 22.5-22.5h38.511c-4.719 6.272-7.52 14.064-7.52 22.5v267.583zm158.166-138.072c-4.276 0-7.5-3.009-7.5-7 0-.01 0-122.511 0-122.511 0-4.142-3.358-7.5-7.5-7.5s-7.5 3.358-7.5 7.5v268.083c0 6.295-5.122 11.417-11.417 11.417s-11.417-5.122-11.417-11.417v-146.072c0-4.142-3.358-7.5-7.5-7.5h-30c-4.142 0-7.5 3.358-7.5 7.5v146.073c0 6.295-5.122 11.417-11.417 11.417s-11.417-5.122-11.417-11.417v-268.084c0-4.142-3.358-7.5-7.5-7.5s-7.5 3.358-7.5 7.5v122.011c0 4.136-3.364 7.5-7.5 7.5s-7.5-3.364-7.5-7.5v-122.011c0-12.407 10.093-22.5 22.5-22.5h105.667c12.407 0 22.5 10.093 22.5 22.5v122.511c.001 3.99-3.223 7-7.499 7zm67.833 0c-4.276 0-7.5-3.009-7.5-7 0-.01 0-123.011 0-123.011 0-4.142-3.358-7.5-7.5-7.5s-7.5 3.358-7.5 7.5v268.083c0 6.295-5.122 11.417-11.417 11.417-6.294 0-11.416-5.122-11.416-11.417v-267.583c0-8.436-2.801-16.228-7.52-22.5h37.853c12.407 0 22.5 10.093 22.5 22.5v122.511c0 3.99-3.224 7-7.5 7zm75.333-7c0 3.991-3.224 7-7.5 7s-7.5-3.009-7.5-7v-122.511c0-4.142-3.358-7.5-7.5-7.5s-7.5 3.358-7.5 7.5v268.083c0 6.295-5.122 11.417-11.417 11.417s-11.417-5.122-11.417-11.417v-268.083c0-8.436-2.801-16.228-7.52-22.5h37.854c12.407 0 22.5 10.093 22.5 22.5z"/><path d="m324.412 467.5h-135.666c-12.407 0-22.5 10.093-22.5 22.5s10.093 22.5 22.5 22.5h135.667c12.407 0 22.5-10.093 22.5-22.5s-10.094-22.5-22.501-22.5zm0 30h-135.666c-4.136 0-7.5-3.364-7.5-7.5s3.364-7.5 7.5-7.5h135.667c4.136 0 7.5 3.364 7.5 7.5s-3.365 7.5-7.501 7.5z"/></g></svg>