<svg id="Capa_1" enable-background="new 0 0 512.006 512.006" height="512" viewBox="0 0 512.006 512.006" width="512" xmlns="http://www.w3.org/2000/svg"><g><path d="m346.003 160.005c-12.406 0-22.5 10.093-22.5 22.5v60h-135v-60c0-12.407-10.094-22.5-22.5-22.5s-22.5 10.093-22.5 22.5v67.5c0 20.678 16.822 37.5 37.5 37.5h22.52v201.991c0 12.412 10.094 22.51 22.5 22.51s22.5-10.098 22.5-22.51v-109.491h15v109.491c0 12.412 10.094 22.51 22.5 22.51s22.5-10.098 22.5-22.51v-201.991h22.48c20.678 0 37.5-16.822 37.5-37.5v-67.5c0-12.406-10.094-22.5-22.5-22.5zm7.5 90c0 12.407-10.094 22.5-22.5 22.5h-29.98c-4.143 0-7.5 3.358-7.5 7.5v209.491c0 4.141-3.364 7.51-7.5 7.51s-7.5-3.369-7.5-7.51v-116.991c0-4.142-3.357-7.5-7.5-7.5h-30c-4.143 0-7.5 3.358-7.5 7.5v116.991c0 4.141-3.364 7.51-7.5 7.51s-7.5-3.369-7.5-7.51v-209.491c0-4.142-3.357-7.5-7.5-7.5h-30.02c-12.406 0-22.5-10.093-22.5-22.5v-67.5c0-4.136 3.364-7.5 7.5-7.5s7.5 3.364 7.5 7.5v67.5c0 4.142 3.357 7.5 7.5 7.5h150c4.143 0 7.5-3.358 7.5-7.5v-67.5c0-4.136 3.364-7.5 7.5-7.5s7.5 3.364 7.5 7.5z"/><path d="m300.685 182.505c0-24.813-20.187-45-45-45s-45 20.187-45 45 20.187 45 45 45 45-20.187 45-45zm-75 0c0-16.542 13.458-30 30-30s30 13.458 30 30-13.458 30-30 30-30-13.458-30-30z"/><path d="m504.503 0h-497c-4.143 0-7.5 3.358-7.5 7.5v497c0 4.142 3.357 7.5 7.5 7.5h60c4.143 0 7.5-3.358 7.5-7.5v-359.495c0-4.142-3.357-7.5-7.5-7.5s-7.5 3.358-7.5 7.5v220h-45v-350.005h45v100.005c0 4.142 3.357 7.5 7.5 7.5h369.5v381.995c0 4.142 3.357 7.5 7.5 7.5h60c4.143 0 7.5-3.358 7.5-7.5v-497c0-4.142-3.357-7.5-7.5-7.5zm-444.5 380.005v116.995h-45v-116.995zm392-365.005h45v350.005h-45zm-45 0v92.505h-302v-92.505zm-332 0h15v92.505h-15zm347 92.505v-92.505h15v92.505zm30 389.495v-116.995h45v116.995z"/></g></svg>