<svg id="Capa_1" enable-background="new 0 0 512 512" height="512" viewBox="0 0 512 512" width="512" xmlns="http://www.w3.org/2000/svg"><g><path d="m255.835 314.999c28.949 0 52.5-23.551 52.5-52.5s-23.551-52.5-52.5-52.5-52.5 23.551-52.5 52.5 23.552 52.5 52.5 52.5zm0-90c20.678 0 37.5 16.822 37.5 37.5s-16.822 37.5-37.5 37.5-37.5-16.822-37.5-37.5 16.823-37.5 37.5-37.5z"/><path d="m255.835 451.999c74.991 0 136-61.009 136-136s-61.009-136-136-136-136 61.009-136 136 61.01 136 136 136zm0-257c66.72 0 121 54.28 121 121s-54.28 121-121 121-121-54.28-121-121 54.281-121 121-121z"/><path d="m167.053 373.919c19.678 30.106 52.868 48.08 88.782 48.08s69.104-17.974 88.782-48.08c.797-1.22 1.222-2.646 1.222-4.104v-2.316c0-20.678-16.822-37.5-37.5-37.5h-105.008c-20.678 0-37.5 16.822-37.5 37.5v2.316c0 1.458.425 2.884 1.222 4.104zm13.778-6.42c0-12.407 10.093-22.5 22.5-22.5h105.009c12.407 0 22.5 10.093 22.5 22.5-17.029 24.789-44.904 39.5-75.004 39.5s-57.976-14.711-75.005-39.5z"/><path d="m398.665 181.62v-69.12c0-26.458-19.677-48.396-45.165-51.977v-53.023c0-4.142-3.358-7.5-7.5-7.5h-180.165c-4.142 0-7.5 3.358-7.5 7.5v53.044c-25.407 3.651-45 25.554-45 51.956v69.12c-34.418 36.509-53.335 84.107-53.335 134.38 0 108.075 87.925 196 196 196s196-87.925 196-196c0-50.273-18.917-97.87-53.335-134.38zm-232.83-76.62h180.329c4.135 0 7.5 3.364 7.5 7.5v33.53c-29.629-17.069-63.119-26.03-97.664-26.03s-68.035 8.961-97.665 26.03v-33.53c0-4.136 3.365-7.5 7.5-7.5zm67.5-15v-75h45.165v75zm105.165 0h-45v-75h45zm-165.165-75h45v75h-45zm82.665 482c-99.804 0-181-81.196-181-181 0-47.371 18.188-92.168 51.213-126.142 1.361-1.4 2.122-3.275 2.122-5.228v-72.13c0-18.11 12.904-33.261 30-36.745v15.535c-8.729 3.096-15 11.432-15 21.21v47.043c0 2.772 1.529 5.318 3.977 6.621 2.447 1.302 5.414 1.149 7.713-.4 29.883-20.126 64.8-30.764 100.975-30.764s71.092 10.638 100.975 30.764c1.261.85 2.723 1.279 4.19 1.279 1.207 0 2.418-.291 3.523-.879 2.447-1.303 3.977-3.849 3.977-6.621v-47.043c0-9.839-6.35-18.217-15.165-21.266v-15.509c17.177 3.421 30.165 18.607 30.165 36.775v72.13c0 1.952.761 3.828 2.122 5.228 33.025 33.974 51.213 78.772 51.213 126.142 0 99.804-81.196 181-181 181z"/><path d="m256 150c-38.542 0-76.098 13.509-105.749 38.04-3.191 2.641-3.638 7.368-.998 10.56 2.641 3.191 7.368 3.64 10.56.998 26.967-22.311 61.127-34.598 96.187-34.598 83.262 0 151 67.738 151 151s-67.738 151-151 151-151-67.738-151-151c0-35.06 12.287-69.22 34.597-96.188 2.64-3.191 2.193-7.919-.998-10.56-3.191-2.64-7.919-2.194-10.56.998-24.53 29.652-38.039 67.208-38.039 105.75 0 91.533 74.467 166 166 166s166-74.467 166-166-74.467-166-166-166z"/></g></svg>