<svg id="Capa_1" enable-background="new 0 0 512 512" height="512" viewBox="0 0 512 512" width="512" xmlns="http://www.w3.org/2000/svg"><g><path d="m255.671 105c28.948 0 52.5-23.551 52.5-52.5s-23.552-52.5-52.5-52.5-52.5 23.551-52.5 52.5 23.552 52.5 52.5 52.5zm0-90c20.678 0 37.5 16.822 37.5 37.5s-16.822 37.5-37.5 37.5-37.5-16.822-37.5-37.5 16.822-37.5 37.5-37.5z"/><path d="m504.5 223.083h-143.167v-65.583c0-20.678-16.822-37.5-37.5-37.5h-135.666c-20.678 0-37.5 16.822-37.5 37.5v65.583h-143.167c-4.143 0-7.5 3.358-7.5 7.5v45c0 4.142 3.357 7.5 7.5 7.5h22.5v185.202c-8.73 3.095-15 11.437-15 21.215 0 12.407 10.094 22.5 22.5 22.5h437c12.406 0 22.5-10.093 22.5-22.5 0-9.777-6.271-18.114-15-21.21v-185.207h22.5c4.143 0 7.5-3.358 7.5-7.5v-45c0-4.142-3.357-7.5-7.5-7.5zm-158.167-65.583v65.583h-15v-65.583c0-4.142-3.357-7.5-7.5-7.5s-7.5 3.358-7.5 7.5v65.583h-15v-88.083h22.5c12.406 0 22.5 10.093 22.5 22.5zm-120.666 65.583v-88.083h22.504v65.583c0 4.142 3.357 7.5 7.5 7.5s7.5-3.358 7.5-7.5v-65.583h23.162v88.083zm-60-65.583c0-12.407 10.094-22.5 22.5-22.5h22.5v88.083h-15v-65.583c0-4.142-3.357-7.5-7.5-7.5s-7.5 3.358-7.5 7.5v65.583h-15zm308.833 339.5h-437c-4.136 0-7.5-3.364-7.5-7.5s3.364-7.5 7.5-7.5c4.143 0 7.5-3.358 7.5-7.5v-161.417h422v153.917h-399.5c-4.143 0-7.5 3.358-7.5 7.5s3.357 7.5 7.5 7.5h407c4.136 0 7.5 3.364 7.5 7.5s-3.364 7.5-7.5 7.5zm-7.5-198.917h-422v-15h422zm30-30h-482v-30h482z"/><path d="m67.5 454h377c4.143 0 7.5-3.358 7.5-7.5v-110.917c0-4.142-3.357-7.5-7.5-7.5h-377c-4.143 0-7.5 3.358-7.5 7.5v110.917c0 4.142 3.357 7.5 7.5 7.5zm7.5-110.917h362v95.917h-362z"/></g></svg>