<svg id="Capa_1" enable-background="new 0 0 512 512" height="512" viewBox="0 0 512 512" width="512" xmlns="http://www.w3.org/2000/svg"><g><path d="m217.644 104.994h76.713c15.089 0 28.049-8.66 33.823-22.6 5.773-13.94 2.732-29.228-7.937-39.897l-27.118-27.119c-9.916-9.917-23.101-15.378-37.125-15.378-14.023 0-27.208 5.461-37.124 15.377l-27.119 27.12c-10.669 10.669-13.71 25.957-7.937 39.897 5.775 13.94 18.735 22.6 33.824 22.6zm-15.28-51.89 27.119-27.12c7.082-7.083 16.5-10.984 26.517-10.984 10.018 0 19.435 3.901 26.518 10.984l27.118 27.119c7.528 7.528 7.356 17.102 4.686 23.55-2.672 6.449-9.319 13.34-19.965 13.34h-76.713c-10.646 0-17.293-6.891-19.965-13.34-2.671-6.448-2.843-16.022 4.685-23.549z"/><path d="m504.5 223.083h-143.167v-65.583c0-20.678-16.822-37.5-37.5-37.5h-135.666c-20.678 0-37.5 16.822-37.5 37.5v65.583h-143.167c-4.143 0-7.5 3.358-7.5 7.5v45c0 4.142 3.357 7.5 7.5 7.5h22.5v185.202c-8.73 3.095-15 11.437-15 21.215 0 12.407 10.094 22.5 22.5 22.5h437c12.406 0 22.5-10.093 22.5-22.5 0-9.777-6.271-18.114-15-21.21v-185.207h22.5c4.143 0 7.5-3.358 7.5-7.5v-45c0-4.142-3.357-7.5-7.5-7.5zm-158.167-65.583v65.583h-15v-65.583c0-4.142-3.357-7.5-7.5-7.5s-7.5 3.358-7.5 7.5v65.583h-15v-88.083h22.5c12.406 0 22.5 10.093 22.5 22.5zm-120.666 65.583v-88.083h60.666v88.083zm-60-65.583c0-12.407 10.094-22.5 22.5-22.5h22.5v88.083h-15v-65.583c0-4.142-3.357-7.5-7.5-7.5s-7.5 3.358-7.5 7.5v65.583h-15zm308.833 339.5h-437c-4.136 0-7.5-3.364-7.5-7.5s3.364-7.5 7.5-7.5c4.143 0 7.5-3.358 7.5-7.5v-161.417h422v153.917h-399.5c-4.143 0-7.5 3.358-7.5 7.5s3.357 7.5 7.5 7.5h407c4.136 0 7.5 3.364 7.5 7.5s-3.364 7.5-7.5 7.5zm-7.5-198.917h-422v-15h422zm30-30h-482v-30h482z"/><path d="m67.5 454h377c4.143 0 7.5-3.358 7.5-7.5v-110.917c0-4.142-3.357-7.5-7.5-7.5h-377c-4.143 0-7.5 3.358-7.5 7.5v110.917c0 4.142 3.357 7.5 7.5 7.5zm7.5-110.917h362v95.917h-362z"/></g></svg>