<svg id="Capa_1" enable-background="new 0 0 512 512" height="512" viewBox="0 0 512 512" width="512" xmlns="http://www.w3.org/2000/svg"><g><path d="m37.5 180c-4.142 0-7.5 3.358-7.5 7.5v15c0 4.142 3.358 7.5 7.5 7.5s7.5-3.358 7.5-7.5v-15c0-4.142-3.358-7.5-7.5-7.5z"/><path d="m90.004 135c28.949 0 52.5-23.551 52.5-52.5s-23.551-52.5-52.5-52.5-52.5 23.551-52.5 52.5 23.552 52.5 52.5 52.5zm0-90c20.678 0 37.5 16.822 37.5 37.5s-16.822 37.5-37.5 37.5-37.5-16.822-37.5-37.5 16.823-37.5 37.5-37.5z"/><path d="m217.644 134.994h76.712c15.089 0 28.049-8.66 33.823-22.6s2.733-29.228-7.936-39.897l-27.119-27.119c-9.916-9.917-23.1-15.378-37.124-15.378-14.023 0-27.207 5.461-37.123 15.377l-27.12 27.12c-10.669 10.669-13.71 25.957-7.936 39.897s18.734 22.6 33.823 22.6zm-15.281-51.89 27.12-27.12c7.083-7.083 16.5-10.984 26.517-10.984 10.018 0 19.435 3.901 26.518 10.984l27.119 27.119c7.528 7.528 7.355 17.101 4.685 23.55-2.671 6.449-9.319 13.34-19.965 13.34h-76.712c-10.646 0-17.294-6.891-19.965-13.34-2.672-6.448-2.845-16.022 4.683-23.549z"/><path d="m474.5 150h-105.667c-12.254 0-23.153 5.909-30 15.026-6.847-9.117-17.746-15.026-30-15.026h-105.666c-12.254 0-23.153 5.909-30 15.026-6.847-9.117-17.746-15.026-30-15.026h-105.667c-20.678 0-37.5 16.822-37.5 37.5v212.011c0 4.142 3.358 7.5 7.5 7.5h22.5v48.573c0 14.565 11.851 26.416 26.417 26.416s26.417-11.851 26.417-26.417v-138.572h15v138.573c0 14.566 11.851 26.417 26.417 26.417s26.417-11.851 26.417-26.417v-124.786c2.337.784 4.858 1.213 7.5 1.213 2.643 0 5.163-.429 7.5-1.213v68.713c0 4.142 3.358 7.5 7.5 7.5h22.5v48.573c0 14.566 11.851 26.417 26.417 26.417s26.417-11.851 26.417-26.417v-138.573h15v138.573c0 14.566 11.851 26.417 26.417 26.417s26.417-11.851 26.417-26.417v-124.786c2.337.784 4.858 1.213 7.501 1.213s5.163-.429 7.5-1.213v68.713c0 4.142 3.358 7.5 7.5 7.5h22.5v48.573c0 14.566 11.851 26.417 26.417 26.417s26.417-11.851 26.417-26.417v-138.573h15v138.573c0 14.566 11.851 26.417 26.417 26.417s26.412-11.852 26.412-26.418v-124.785c2.337.784 4.858 1.213 7.5 1.213 12.617 0 22.5-9.664 22.5-22v-122.511c0-20.678-16.822-37.5-37.5-37.5zm-459.5 242.011v-61.29c2.347.833 4.871 1.29 7.5 1.29s5.153-.458 7.5-1.29v61.29zm143.167-75c-4.276 0-7.5-3.009-7.5-7 0-.01 0-122.511 0-122.511 0-4.142-3.358-7.5-7.5-7.5s-7.5 3.358-7.5 7.5v268.083c0 6.295-5.122 11.417-11.417 11.417s-11.417-5.122-11.417-11.417v-146.072c0-4.142-3.358-7.5-7.5-7.5h-30c-4.142 0-7.5 3.358-7.5 7.5v146.073c0 6.295-5.122 11.417-11.417 11.417s-11.416-5.123-11.416-11.418v-223.083c0-4.142-3.358-7.5-7.5-7.5s-7.5 3.358-7.5 7.5v77.011c0 4.136-3.364 7.5-7.5 7.5s-7.5-3.364-7.5-7.5v-122.011c0-12.407 10.093-22.5 22.5-22.5h45.004v99.511c0 4.142 3.358 7.5 7.5 7.5s7.5-3.358 7.5-7.5v-99.511h45.662c12.407 0 22.5 10.093 22.5 22.5v122.511c.001 3.99-3.224 7-7.499 7zm22.5 75v-61.29c2.347.833 4.871 1.29 7.5 1.29s5.153-.458 7.5-1.29v61.29zm143.166-75c-4.276 0-7.5-3.009-7.5-7-.001-.019-.001-122.511-.001-122.511 0-4.142-3.358-7.5-7.5-7.5s-7.5 3.358-7.5 7.5v268.083c0 6.295-5.122 11.417-11.417 11.417s-11.417-5.122-11.417-11.417v-146.072c0-4.142-3.358-7.5-7.5-7.5h-30c-4.142 0-7.5 3.358-7.5 7.5v146.073c0 6.295-5.122 11.417-11.417 11.417s-11.417-5.122-11.417-11.417v-268.084c0-4.142-3.358-7.5-7.5-7.5s-7.5 3.358-7.5 7.5v122.011c0 4.136-3.364 7.5-7.5 7.5s-7.5-3.364-7.5-7.5v-122.011c0-12.407 10.093-22.5 22.5-22.5h45.004v99.511c0 4.142 3.358 7.5 7.5 7.5s7.5-3.358 7.5-7.5v-99.511h45.663c12.407 0 22.5 10.093 22.5 22.5v122.511c.002 3.99-3.222 7-7.498 7zm22.5 75v-61.29c2.347.833 4.871 1.29 7.5 1.29s5.153-.458 7.5-1.29v61.29zm150.667-82c0 3.991-3.224 7-7.5 7s-7.5-3.009-7.5-7c0-.01 0-122.511 0-122.511 0-4.142-3.358-7.5-7.5-7.5s-7.5 3.358-7.5 7.5v268.083c0 6.295-5.122 11.417-11.417 11.417s-11.417-5.122-11.417-11.417v-146.072c0-4.142-3.358-7.5-7.5-7.5h-30c-4.142 0-7.5 3.358-7.5 7.5v146.073c0 6.295-5.122 11.417-11.417 11.417s-11.417-5.122-11.417-11.417v-268.084c0-4.142-3.358-7.5-7.5-7.5s-7.5 3.358-7.5 7.5v122.011c0 4.136-3.364 7.5-7.5 7.5s-7.5-3.364-7.5-7.5v-122.011c0-12.407 10.093-22.5 22.5-22.5h45.004v99.511c0 4.142 3.358 7.5 7.5 7.5s7.5-3.358 7.5-7.5v-99.511h45.664c12.407 0 22.5 10.093 22.5 22.5z"/><path d="m421.338 135c28.949 0 52.5-23.551 52.5-52.5s-23.551-52.5-52.5-52.5-52.5 23.551-52.5 52.5 23.551 52.5 52.5 52.5zm0-90c20.678 0 37.5 16.822 37.5 37.5s-16.822 37.5-37.5 37.5-37.5-16.822-37.5-37.5 16.822-37.5 37.5-37.5z"/></g></svg>