<svg id="Capa_1" enable-background="new 0 0 512 512" height="512" viewBox="0 0 512 512" width="512" xmlns="http://www.w3.org/2000/svg"><g><path d="m256 453.301c-4.142 0-7.5 3.358-7.5 7.5v43.699c0 4.142 3.358 7.5 7.5 7.5s7.5-3.358 7.5-7.5v-43.699c0-4.142-3.358-7.5-7.5-7.5z"/><path d="m256 105c28.949 0 52.5-23.551 52.5-52.5s-23.551-52.5-52.5-52.5-52.5 23.551-52.5 52.5 23.551 52.5 52.5 52.5zm0-90c20.678 0 37.5 16.822 37.5 37.5s-16.822 37.5-37.5 37.5-37.5-16.822-37.5-37.5 16.822-37.5 37.5-37.5z"/><path d="m226 467c-4.142 0-7.5 3.358-7.5 7.5v30c0 4.142 3.358 7.5 7.5 7.5s7.5-3.358 7.5-7.5v-30c0-4.142-3.358-7.5-7.5-7.5z"/><path d="m286 467c-4.142 0-7.5 3.358-7.5 7.5v30c0 4.142 3.358 7.5 7.5 7.5s7.5-3.358 7.5-7.5v-30c0-4.142-3.358-7.5-7.5-7.5z"/><path d="m436 324.511c0-17.649-4.768-34.943-13.781-50l-80.396-134.826c-6.35-11.714-18.756-19.685-32.99-19.685h-105.666c-13.717 0-25.731 7.407-32.27 18.428l-81.109 136.072c-9.02 15.067-13.788 32.361-13.788 50.011 0 1.989.79 3.897 2.197 5.303 26.433 26.433 57.529 46.216 92.426 58.798.84.303 1.699.447 2.543.447 3.072 0 5.954-1.902 7.056-4.958 1.405-3.896-.615-8.194-4.511-9.599-31.82-11.474-60.284-29.319-84.653-53.069.515-13.863 4.499-27.366 11.608-39.241l63.001-105.693v103.012c0 12.407 10.093 22.5 22.5 22.5 2.629 0 5.153-.458 7.5-1.29v124.863c0 14.566 11.851 26.417 26.417 26.417s26.417-11.851 26.417-26.417v-22.185c2.436.077 4.83.118 7.161.122h.301c2.462 0 4.98-.041 7.538-.121v22.184c0 14.566 11.851 26.417 26.417 26.417s26.417-11.851 26.417-26.417v-29.398c44.394-10.944 84.904-33.804 117.471-66.371 1.404-1.407 2.194-3.315 2.194-5.304zm-180.319 64.01c-2.332-.003-4.733-.047-7.181-.129v-101.381h15v101.378c-2.658.088-5.272.134-7.819.132zm45.652 37.062c0 6.295-5.122 11.417-11.417 11.417s-11.417-5.122-11.417-11.417v-146.072c0-4.142-3.358-7.5-7.5-7.5h-30c-4.142 0-7.5 3.358-7.5 7.5v146.073c0 6.295-5.122 11.417-11.417 11.417s-11.417-5.122-11.417-11.417v-268.084c0-4.142-3.358-7.5-7.5-7.5s-7.5 3.358-7.5 7.5v122.011c0 4.136-3.365 7.5-7.5 7.5-4.136 0-7.5-3.364-7.5-7.5v-122.011c0-12.407 10.093-22.5 22.5-22.5h105.667c12.407 0 22.5 10.093 22.5 22.5v122.511c0 3.991-3.224 7-7.5 7s-7.5-3.009-7.5-7c-.001-.019-.001-122.511-.001-122.511 0-4.142-3.358-7.5-7.5-7.5s-7.5 3.358-7.5 7.5v268.083zm15-44.875v-79.91c2.337.784 4.858 1.213 7.501 1.213 12.617 0 22.5-9.664 22.5-22v-103.475l63.009 105.667c7.102 11.864 11.085 25.366 11.601 39.228-29.344 28.578-65.294 48.926-104.611 59.277z"/></g></svg>