<svg id="Capa_1" enable-background="new 0 0 512 512" height="512" viewBox="0 0 512 512" width="512" xmlns="http://www.w3.org/2000/svg"><g><path d="m256 453.301c-4.142 0-7.5 3.358-7.5 7.5v43.699c0 4.142 3.358 7.5 7.5 7.5s7.5-3.358 7.5-7.5v-43.699c0-4.142-3.358-7.5-7.5-7.5z"/><path d="m226 467c-4.142 0-7.5 3.358-7.5 7.5v30c0 4.142 3.358 7.5 7.5 7.5s7.5-3.358 7.5-7.5v-30c0-4.142-3.358-7.5-7.5-7.5z"/><path d="m286 467c-4.143 0-7.5 3.358-7.5 7.5v30c0 4.142 3.357 7.5 7.5 7.5s7.5-3.358 7.5-7.5v-30c0-4.142-3.357-7.5-7.5-7.5z"/><path d="m436 324.511c0-17.649-4.768-34.943-13.781-50l-80.396-134.826c-6.351-11.714-18.756-19.685-32.99-19.685h-105.666c-13.717 0-25.731 7.407-32.27 18.428l-81.109 136.072c-9.02 15.067-13.788 32.361-13.788 50.011 0 1.989.79 3.897 2.197 5.303 26.433 26.433 57.529 46.216 92.426 58.798.84.303 1.699.447 2.543.447 3.072 0 5.954-1.902 7.056-4.958 1.405-3.896-.615-8.194-4.511-9.599-31.82-11.474-60.284-29.319-84.653-53.069.515-13.863 4.499-27.366 11.608-39.241l63.001-105.693v103.012c0 12.407 10.093 22.5 22.5 22.5 2.629 0 5.153-.458 7.5-1.29v124.863c0 14.566 11.851 26.417 26.417 26.417s26.417-11.851 26.417-26.417v-22.185c2.436.077 4.83.118 7.161.122h.302c2.462 0 4.98-.041 7.538-.121v22.184c0 14.566 11.851 26.417 26.416 26.417 14.566 0 26.417-11.851 26.417-26.417v-29.398c44.394-10.944 84.904-33.804 117.471-66.371 1.404-1.407 2.194-3.315 2.194-5.304zm-180.319 64.01c-2.332-.003-4.733-.047-7.181-.129v-101.381h15v101.378c-2.653.088-5.265.134-7.819.132zm45.652 37.062c0 6.295-5.122 11.417-11.417 11.417s-11.416-5.122-11.416-11.417v-146.072c0-4.142-3.357-7.5-7.5-7.5h-30c-4.142 0-7.5 3.358-7.5 7.5v146.073c0 6.295-5.122 11.417-11.417 11.417s-11.417-5.122-11.417-11.417v-268.084c0-4.142-3.358-7.5-7.5-7.5s-7.5 3.358-7.5 7.5v122.011c0 4.136-3.365 7.5-7.5 7.5-4.136 0-7.5-3.364-7.5-7.5v-122.011c0-12.407 10.093-22.5 22.5-22.5h105.667c12.406 0 22.5 10.093 22.5 22.5v122.511c0 3.991-3.225 7-7.5 7s-7.5-3.009-7.5-7v-122.511c0-4.142-3.357-7.5-7.5-7.5s-7.5 3.358-7.5 7.5zm15-44.875v-79.91c2.337.784 4.857 1.213 7.5 1.213 12.617 0 22.5-9.664 22.5-22v-103.476l63.009 105.668c7.102 11.864 11.086 25.366 11.602 39.228-29.343 28.578-65.294 48.925-104.611 59.277z"/><path d="m217.644 104.994h76.712c15.089 0 28.049-8.66 33.823-22.6 5.773-13.94 2.732-29.228-7.937-39.897l-27.118-27.119c-9.915-9.917-23.1-15.378-37.124-15.378-14.023 0-27.207 5.461-37.123 15.377l-27.12 27.12c-10.669 10.669-13.71 25.957-7.936 39.897s18.734 22.6 33.823 22.6zm-15.281-51.89 27.12-27.12c7.083-7.083 16.5-10.984 26.517-10.984 10.018 0 19.435 3.901 26.518 10.984l27.118 27.119c7.528 7.528 7.356 17.102 4.686 23.55-2.672 6.449-9.319 13.34-19.965 13.34h-76.712c-10.646 0-17.294-6.891-19.965-13.34-2.672-6.448-2.845-16.022 4.683-23.549z"/></g></svg>