<svg id="Capa_1" enable-background="new 0 0 512 512" height="512" viewBox="0 0 512 512" width="512" xmlns="http://www.w3.org/2000/svg"><g><path d="m143.167 180h-105.667c-20.678 0-37.5 16.822-37.5 37.5v122.011c0 12.407 10.094 22.5 22.5 22.5 2.629 0 5.153-.458 7.5-1.29v124.863c0 14.565 11.851 26.416 26.417 26.416 14.565 0 26.416-11.851 26.416-26.417v-138.572h15v138.573c0 14.566 11.851 26.417 26.417 26.417 14.565 0 26.416-11.851 26.416-26.417v-124.786c2.337.784 4.858 1.213 7.501 1.213 12.617 0 22.5-9.664 22.5-22v-122.511c0-20.678-16.822-37.5-37.5-37.5zm22.5 160.011c0 3.991-3.225 7-7.5 7s-7.5-3.009-7.5-7c-.001-.019-.001-122.511-.001-122.511 0-4.142-3.357-7.5-7.5-7.5s-7.5 3.358-7.5 7.5v268.083c0 6.295-5.121 11.417-11.416 11.417s-11.417-5.122-11.417-11.417v-146.072c0-4.142-3.357-7.5-7.5-7.5h-30c-4.143 0-7.5 3.358-7.5 7.5v146.073c0 6.295-5.121 11.417-11.416 11.417s-11.417-5.123-11.417-11.418v-268.083c0-4.142-3.357-7.5-7.5-7.5s-7.5 3.358-7.5 7.5v122.011c0 4.136-3.364 7.5-7.5 7.5s-7.5-3.364-7.5-7.5v-122.011c0-12.407 10.094-22.5 22.5-22.5h105.667c12.406 0 22.5 10.093 22.5 22.5z"/><path d="m90.005 165c28.948 0 52.5-23.551 52.5-52.5s-23.552-52.5-52.5-52.5-52.5 23.551-52.5 52.5 23.552 52.5 52.5 52.5zm0-90c20.678 0 37.5 16.822 37.5 37.5s-16.822 37.5-37.5 37.5-37.5-16.822-37.5-37.5 16.822-37.5 37.5-37.5z"/><path d="m504.5 0h-301.333c-4.143 0-7.5 3.358-7.5 7.5v120c0 4.142 3.357 7.5 7.5 7.5s7.5-3.358 7.5-7.5v-112.5h286.333v165h-248.833c-1.989 0-3.896.79-5.304 2.197l-32.196 32.197v-56.894c0-4.142-3.357-7.5-7.5-7.5s-7.5 3.358-7.5 7.5v75c0 3.033 1.827 5.768 4.63 6.929.928.384 1.902.571 2.868.571 1.952 0 3.87-.762 5.306-2.197l42.802-42.803h253.227c4.143 0 7.5-3.358 7.5-7.5v-180c0-4.142-3.357-7.5-7.5-7.5z"/><path d="m263.167 75h181.333c4.143 0 7.5-3.358 7.5-7.5s-3.357-7.5-7.5-7.5h-181.333c-4.143 0-7.5 3.358-7.5 7.5s3.357 7.5 7.5 7.5z"/><path d="m263.167 105h181.333c4.143 0 7.5-3.358 7.5-7.5s-3.357-7.5-7.5-7.5h-181.333c-4.143 0-7.5 3.358-7.5 7.5s3.357 7.5 7.5 7.5z"/><path d="m263.167 135h181.333c4.143 0 7.5-3.358 7.5-7.5s-3.357-7.5-7.5-7.5h-181.333c-4.143 0-7.5 3.358-7.5 7.5s3.357 7.5 7.5 7.5z"/></g></svg>