<svg id="Capa_1" enable-background="new 0 0 512 512" height="512" viewBox="0 0 512 512" width="512" xmlns="http://www.w3.org/2000/svg"><g><path d="m143.167 180h-105.667c-20.678 0-37.5 16.822-37.5 37.5v122.011c0 12.407 10.094 22.5 22.5 22.5 2.629 0 5.153-.458 7.5-1.29v124.863c0 14.565 11.851 26.416 26.417 26.416 14.565 0 26.416-11.851 26.416-26.417v-138.572h15v138.573c0 14.566 11.851 26.417 26.417 26.417 14.565 0 26.416-11.851 26.416-26.417v-124.786c2.337.784 4.858 1.213 7.501 1.213 12.617 0 22.5-9.664 22.5-22v-122.511c0-20.678-16.822-37.5-37.5-37.5zm22.5 160.011c0 3.991-3.225 7-7.5 7s-7.5-3.009-7.5-7c-.001-.019-.001-122.511-.001-122.511 0-4.142-3.357-7.5-7.5-7.5s-7.5 3.358-7.5 7.5v268.083c0 6.295-5.121 11.417-11.416 11.417s-11.417-5.122-11.417-11.417v-146.072c0-4.142-3.357-7.5-7.5-7.5h-30c-4.143 0-7.5 3.358-7.5 7.5v146.073c0 6.295-5.121 11.417-11.416 11.417s-11.417-5.123-11.417-11.418v-268.083c0-4.142-3.357-7.5-7.5-7.5s-7.5 3.358-7.5 7.5v122.011c0 4.136-3.364 7.5-7.5 7.5s-7.5-3.364-7.5-7.5v-122.011c0-12.407 10.094-22.5 22.5-22.5h105.667c12.406 0 22.5 10.093 22.5 22.5z"/><path d="m90.005 165c28.948 0 52.5-23.551 52.5-52.5s-23.552-52.5-52.5-52.5-52.5 23.551-52.5 52.5 23.552 52.5 52.5 52.5zm0-90c20.678 0 37.5 16.822 37.5 37.5s-16.822 37.5-37.5 37.5-37.5-16.822-37.5-37.5 16.822-37.5 37.5-37.5z"/><path d="m459.5 165c4.143 0 7.5-3.358 7.5-7.5v-15c0-4.142-3.357-7.5-7.5-7.5s-7.5 3.358-7.5 7.5v15c0 4.142 3.357 7.5 7.5 7.5z"/><path d="m459.5 120c4.143 0 7.5-3.358 7.5-7.5v-15c0-4.142-3.357-7.5-7.5-7.5s-7.5 3.358-7.5 7.5v15c0 4.142 3.357 7.5 7.5 7.5z"/><path d="m459.5 30c4.143 0 7.5-3.358 7.5-7.5v-15c0-4.142-3.357-7.5-7.5-7.5s-7.5 3.358-7.5 7.5v15c0 4.142 3.357 7.5 7.5 7.5z"/><path d="m248.167 30c4.143 0 7.5-3.358 7.5-7.5v-15c0-4.142-3.357-7.5-7.5-7.5s-7.5 3.358-7.5 7.5v15c0 4.142 3.357 7.5 7.5 7.5z"/><path d="m459.5 75c4.143 0 7.5-3.358 7.5-7.5v-15c0-4.142-3.357-7.5-7.5-7.5s-7.5 3.358-7.5 7.5v15c0 4.142 3.357 7.5 7.5 7.5z"/><path d="m248.167 165c4.143 0 7.5-3.358 7.5-7.5v-15c0-4.142-3.357-7.5-7.5-7.5s-7.5 3.358-7.5 7.5v15c0 4.142 3.357 7.5 7.5 7.5z"/><path d="m248.167 120c4.143 0 7.5-3.358 7.5-7.5v-15c0-4.142-3.357-7.5-7.5-7.5s-7.5 3.358-7.5 7.5v15c0 4.142 3.357 7.5 7.5 7.5z"/><path d="m248.167 75c4.143 0 7.5-3.358 7.5-7.5v-15c0-4.142-3.357-7.5-7.5-7.5s-7.5 3.358-7.5 7.5v15c0 4.142 3.357 7.5 7.5 7.5z"/><path d="m504.5 180h-90c-4.142 0-7.5 3.358-7.5 7.5l-.004 166.333c0 29.316-23.851 53.167-53.166 53.167-29.316 0-53.167-23.851-53.167-53.167-.003-.155 0-.313 0-.475l.003-120.838c0-.042.001-45.021.001-45.021 0-4.142-3.357-7.5-7.5-7.5h-90c-4.143 0-7.5 3.358-7.5 7.5v166.333c0 42.082 16.498 81.754 46.455 111.711s69.63 46.457 111.711 46.457c42.082 0 81.755-16.498 111.712-46.455s46.455-69.63 46.455-111.712v-166.333c0-4.142-3.357-7.5-7.5-7.5zm-7.5 15v30h-75.001l.001-30zm-211.333 0v30h-75v-30zm68.166 302c-78.942 0-143.166-64.224-143.166-143.167v-113.833h75c0 48.398-.002 112.899-.004 113.804 0 37.617 30.58 68.196 68.167 68.196s68.166-30.58 68.166-68.167l.003-113.833h75.001v113.833c0 78.943-64.225 143.167-143.167 143.167z"/><path d="m444.496 255c-4.143 0-7.5 3.358-7.5 7.5v91.333c0 45.858-37.308 83.167-83.166 83.167s-83.167-37.308-83.167-83.167v-91.333c0-4.142-3.357-7.5-7.5-7.5s-7.5 3.358-7.5 7.5v91.333c0 54.129 44.037 98.167 98.167 98.167 54.129 0 98.166-44.037 98.166-98.167v-91.333c0-4.142-3.357-7.5-7.5-7.5z"/></g></svg>