<svg id="Capa_1" enable-background="new 0 0 512 512" height="512" viewBox="0 0 512 512" width="512" xmlns="http://www.w3.org/2000/svg"><g><path d="m356.688 162.798c1.407 1.41 3.316 2.202 5.308 2.202s3.901-.792 5.308-2.202l41.453-41.529c6.925-6.938 10.739-16.162 10.739-25.972 0-20.257-16.456-36.737-36.683-36.737-7.554 0-14.745 2.265-20.817 6.479-6.072-4.213-13.263-6.479-20.817-6.479-20.227 0-36.683 16.48-36.683 36.737 0 9.81 3.814 19.034 10.739 25.972zm-15.51-89.237c5.858 0 11.35 2.31 15.462 6.504 1.411 1.439 3.341 2.25 5.355 2.25s3.945-.811 5.355-2.25c4.112-4.194 9.603-6.504 15.461-6.504 11.956 0 21.683 9.751 21.683 21.737 0 5.809-2.257 11.269-6.355 15.375l-36.145 36.211-36.145-36.211c-4.098-4.106-6.355-9.566-6.355-15.375.002-11.986 9.728-21.737 21.684-21.737z"/><path d="m474.5 0h-225.667c-20.678 0-37.5 16.822-37.5 37.5v240c0 20.678 16.822 37.5 37.5 37.5h225.667c20.678 0 37.5-16.822 37.5-37.5v-240c0-20.678-16.822-37.5-37.5-37.5zm22.5 277.5c0 12.407-10.093 22.5-22.5 22.5h-225.667c-12.407 0-22.5-10.093-22.5-22.5v-240c0-12.407 10.093-22.5 22.5-22.5h225.667c12.407 0 22.5 10.093 22.5 22.5z"/><path d="m474.5 30h-225.667c-4.142 0-7.5 3.358-7.5 7.5v105c0 4.142 3.358 7.5 7.5 7.5s7.5-3.358 7.5-7.5v-97.5h210.667v225h-15v-52.5c0-20.678-16.822-37.5-37.5-37.5h-105.667c-20.678 0-37.5 16.822-37.5 37.5v52.5h-15v-97.5c0-4.142-3.358-7.5-7.5-7.5s-7.5 3.358-7.5 7.5v105c0 4.142 3.358 7.5 7.5 7.5h225.667c4.142 0 7.5-3.358 7.5-7.5v-240c0-4.142-3.358-7.5-7.5-7.5zm-188.167 187.5c0-12.407 10.093-22.5 22.5-22.5h105.667c12.407 0 22.5 10.093 22.5 22.5v52.5h-15.001v-52.5c0-4.142-3.358-7.5-7.5-7.5s-7.5 3.358-7.5 7.5v52.5h-90.666v-52.5c0-4.142-3.358-7.5-7.5-7.5s-7.5 3.358-7.5 7.5v52.5h-15z"/><path d="m143.167 180h-105.667c-20.678 0-37.5 16.822-37.5 37.5v122.011c0 12.407 10.093 22.5 22.5 22.5 2.629 0 5.153-.458 7.5-1.29v124.863c0 14.565 11.851 26.416 26.417 26.416s26.417-11.851 26.417-26.417v-138.572h15v138.573c0 14.566 11.851 26.417 26.417 26.417s26.417-11.851 26.417-26.417v-124.863c2.348.833 4.871 1.29 7.5 1.29 12.407 0 22.5-10.093 22.5-22.5v-122.011c-.001-20.678-16.824-37.5-37.501-37.5zm22.5 159.511c0 4.136-3.364 7.5-7.5 7.5-4.135 0-7.5-3.364-7.5-7.5 0-.01 0-122.011 0-122.011 0-4.142-3.358-7.5-7.5-7.5s-7.5 3.358-7.5 7.5v268.083c0 6.295-5.122 11.417-11.417 11.417s-11.417-5.122-11.417-11.417v-146.072c0-4.142-3.358-7.5-7.5-7.5h-30c-4.142 0-7.5 3.358-7.5 7.5v146.073c0 6.295-5.122 11.417-11.417 11.417s-11.416-5.123-11.416-11.418v-268.083c0-4.142-3.358-7.5-7.5-7.5s-7.5 3.358-7.5 7.5v122.011c0 4.136-3.364 7.5-7.5 7.5s-7.5-3.364-7.5-7.5v-122.011c0-12.407 10.093-22.5 22.5-22.5h105.667c12.407 0 22.5 10.093 22.5 22.5z"/><path d="m85.354 162.798c1.407 1.41 3.316 2.202 5.308 2.202s3.901-.792 5.308-2.202l41.453-41.529c6.925-6.938 10.739-16.162 10.739-25.972 0-20.257-16.456-36.737-36.683-36.737-7.554 0-14.745 2.266-20.817 6.479-6.072-4.213-13.263-6.479-20.817-6.479-20.227 0-36.683 16.48-36.683 36.737 0 9.811 3.814 19.034 10.74 25.972zm-15.509-89.237c5.858 0 11.349 2.31 15.461 6.504 1.411 1.439 3.34 2.25 5.355 2.25s3.945-.811 5.355-2.249c4.112-4.195 9.604-6.505 15.462-6.505 11.956 0 21.683 9.751 21.683 21.737 0 5.809-2.257 11.269-6.355 15.375l-36.145 36.211-36.144-36.212c-4.099-4.105-6.356-9.566-6.356-15.375.001-11.985 9.728-21.736 21.684-21.736z"/></g></svg>