<svg id="Capa_1" enable-background="new 0 0 511.971 511.971" height="512" viewBox="0 0 511.971 511.971" width="512" xmlns="http://www.w3.org/2000/svg"><g><path d="m309.147 175.045h-105.666c-20.678 0-37.5 16.822-37.5 37.5v122.011c0 12.407 10.093 22.5 22.5 22.5 2.629 0 5.153-.458 7.5-1.29v124.863c0 14.566 11.851 26.417 26.417 26.417s26.417-11.851 26.417-26.417v-138.574h15v138.573c0 14.566 11.851 26.417 26.417 26.417s26.417-11.851 26.417-26.417v-124.786c2.337.784 4.858 1.213 7.5 1.213 12.617 0 22.5-9.664 22.5-22v-122.51c-.002-20.678-16.824-37.5-37.502-37.5zm22.5 160.01c0 3.991-3.224 7-7.5 7s-7.5-3.009-7.5-7c0-.01 0-122.511 0-122.511 0-4.142-3.358-7.5-7.5-7.5s-7.5 3.358-7.5 7.5v268.083c0 6.295-5.122 11.417-11.417 11.417s-11.417-5.122-11.417-11.417v-146.072c0-4.142-3.358-7.5-7.5-7.5h-30c-4.142 0-7.5 3.358-7.5 7.5v146.073c0 6.295-5.122 11.417-11.417 11.417s-11.417-5.122-11.417-11.417v-268.083c0-4.142-3.358-7.5-7.5-7.5s-7.5 3.358-7.5 7.5v122.011c0 4.136-3.365 7.5-7.5 7.5-4.136 0-7.5-3.364-7.5-7.5v-122.011c0-12.407 10.093-22.5 22.5-22.5h105.667c12.407 0 22.5 10.093 22.5 22.5v122.51z"/><path d="m255.985 160.045c28.949 0 52.5-23.551 52.5-52.5s-23.551-52.5-52.5-52.5-52.5 23.551-52.5 52.5 23.552 52.5 52.5 52.5zm0-90c20.678 0 37.5 16.822 37.5 37.5s-16.822 37.5-37.5 37.5-37.5-16.822-37.5-37.5 16.823-37.5 37.5-37.5z"/><path d="m186.697 143.747c.957 0 1.929-.184 2.867-.573 3.827-1.585 5.644-5.972 4.059-9.799-6.888-16.628-6.876-34.971.033-51.648 1.585-3.827-.232-8.214-4.059-9.799-3.826-1.585-8.214.232-9.799 4.059-8.442 20.379-8.453 42.799-.033 63.129 1.196 2.888 3.989 4.631 6.932 4.631z"/><path d="m157.521 58.641c-3.825-1.583-8.214.233-9.798 4.061-11.981 28.941-11.99 60.795-.026 89.695 1.196 2.889 3.989 4.633 6.933 4.633.956 0 1.928-.184 2.866-.572 3.827-1.584 5.646-5.972 4.061-9.798-10.433-25.2-10.424-52.979.026-78.22 1.584-3.828-.235-8.214-4.062-9.799z"/><path d="m125.446 45.356c-3.827-1.586-8.214.234-9.798 4.062-15.297 36.958-15.304 79.334-.02 116.262 1.196 2.89 3.989 4.634 6.933 4.634.956 0 1.927-.184 2.865-.572 3.827-1.584 5.646-5.971 4.062-9.798-13.775-33.282-13.768-71.477.02-104.79 1.584-3.828-.235-8.214-4.062-9.798z"/><path d="m93.372 32.07c-3.828-1.584-8.214.235-9.798 4.063-18.785 45.395-18.79 97.455-.013 142.83 1.196 2.89 3.989 4.634 6.933 4.634.956 0 1.927-.184 2.865-.572 3.828-1.584 5.646-5.971 4.063-9.798-17.269-41.73-17.264-89.609.013-131.359 1.583-3.827-.236-8.214-4.063-9.798z"/><path d="m29.223 5.499c-3.827-1.583-8.214.235-9.797 4.063-12.89 31.153-19.426 64.119-19.426 97.983s6.536 66.83 19.425 97.983c1.196 2.89 3.989 4.635 6.933 4.635.956 0 1.927-.184 2.864-.572 3.828-1.583 5.646-5.97 4.063-9.797-24.255-58.626-24.255-125.872.001-184.498 1.583-3.827-.236-8.214-4.063-9.797z"/><path d="m318.347 133.375c-1.585 3.827.232 8.214 4.059 9.799.939.389 1.911.573 2.867.573 2.943 0 5.736-1.744 6.932-4.632 8.42-20.33 8.409-42.75-.033-63.129-1.585-3.827-5.972-5.644-9.799-4.059s-5.644 5.973-4.059 9.799c6.909 16.678 6.921 35.021.033 51.649z"/><path d="m354.45 58.641c-3.827 1.584-5.646 5.971-4.061 9.798 10.45 25.241 10.459 53.02.026 78.22-1.584 3.827.234 8.214 4.061 9.798.938.388 1.91.572 2.866.572 2.943 0 5.737-1.744 6.933-4.633 11.964-28.899 11.956-60.754-.026-89.695-1.586-3.826-5.974-5.643-9.799-4.06z"/><path d="m386.524 45.356c-3.827 1.584-5.646 5.971-4.062 9.798 13.788 33.313 13.794 71.507.02 104.79-1.584 3.827.234 8.214 4.062 9.798.938.389 1.909.572 2.865.572 2.944 0 5.737-1.745 6.933-4.634 15.284-36.928 15.277-79.304-.02-116.262-1.584-3.828-5.971-5.647-9.798-4.062z"/><path d="m418.599 32.07c-3.828 1.584-5.646 5.971-4.063 9.798 17.277 41.75 17.282 89.628.013 131.359-1.583 3.827.235 8.214 4.063 9.798.938.388 1.909.572 2.865.572 2.944 0 5.737-1.745 6.933-4.634 18.777-45.375 18.772-97.435-.013-142.83-1.584-3.828-5.97-5.644-9.798-4.063z"/><path d="m450.673 18.784c-3.827 1.583-5.646 5.97-4.063 9.798 20.767 50.188 20.769 107.75.007 157.927-1.583 3.828.235 8.214 4.063 9.798.938.388 1.909.572 2.865.572 2.944 0 5.737-1.745 6.933-4.634 22.271-53.822 22.268-115.565-.007-169.398-1.583-3.827-5.969-5.646-9.798-4.063z"/><path d="m492.546 9.562c-1.584-3.828-5.971-5.648-9.797-4.063-3.828 1.583-5.646 5.97-4.063 9.797 24.255 58.625 24.255 125.872 0 184.497-1.583 3.827.235 8.214 4.063 9.797.938.388 1.909.572 2.864.572 2.944 0 5.738-1.745 6.933-4.635 12.89-31.153 19.425-64.119 19.425-97.983 0-33.863-6.535-66.829-19.425-97.982z"/><path d="m56.957 161.898c-1.087-3.997-5.212-6.354-9.207-5.267-3.997 1.088-6.355 5.209-5.267 9.207 2.445 8.982 5.476 17.868 9.01 26.408 1.196 2.89 3.989 4.635 6.933 4.635.956 0 1.927-.184 2.864-.572 3.828-1.583 5.646-5.97 4.063-9.797-3.292-7.959-6.117-16.24-8.396-24.614z"/><path d="m61.297 18.784c-3.828-1.583-8.214.235-9.798 4.063-14.66 35.428-19.863 74.34-15.046 112.53.478 3.791 3.707 6.563 7.432 6.563.313 0 .629-.02.948-.06 4.109-.518 7.021-4.27 6.502-8.379-4.491-35.612.359-71.892 14.025-104.919 1.583-3.827-.235-8.214-4.063-9.798z"/></g></svg>