<svg id="Capa_1" enable-background="new 0 0 512 512" height="512" viewBox="0 0 512 512" width="512" xmlns="http://www.w3.org/2000/svg"><g><path d="m500.648 50.621c-7.317-7.121-17.01-10.89-27.196-10.606-17.583.482-32.298 13.625-35.708 30.607-17.462 3.191-30.744 18.507-30.744 36.878v95.066c0 4.142 3.357 7.5 7.5 7.5s7.5-3.358 7.5-7.5v-95.066c0-9.777 6.271-18.114 15-21.21v146.284c-14.675-10.93-36.023-9.517-49.458 3.918l-104.272 104.272c-12.748 12.75-19.77 29.7-19.77 47.729v116.007c0 4.142 3.357 7.5 7.5 7.5h168.5c2.224 0 4.333-.987 5.758-2.694s2.019-3.959 1.621-6.147l-9.531-52.424 68.431-127.737c4.07-7.599 6.222-16.171 6.222-24.792v-220.706c-.001-10.211-4.032-19.757-11.353-26.879zm-3.648 247.585c0 6.157-1.537 12.281-4.444 17.708l-69.667 130.044c-.8 1.494-1.071 3.215-.768 4.883l8.393 46.159h-152.014v-108.507c0-14.023 5.461-27.207 15.377-37.123l104.272-104.272c8.776-8.778 23.046-9.177 31.803-.886 4.46 4.221 6.962 9.918 7.046 16.043.001.094.002.188.002.283-.003 6.05-2.335 11.684-6.591 15.938l-104.713 104.714c-2.929 2.929-2.929 7.678 0 10.606s7.677 2.93 10.607 0l104.712-104.713c7.107-7.106 10.997-16.518 10.984-26.549v-184.41c0-12.416 9.808-22.785 21.862-23.115 6.129-.171 11.936 2.091 16.326 6.363 4.394 4.274 6.813 10.001 6.813 16.128z"/><path d="m124.458 236.492c-13.435-13.435-34.783-14.848-49.458-3.918v-146.284c8.729 3.096 15 11.432 15 21.21v95.066c0 4.142 3.357 7.5 7.5 7.5s7.5-3.358 7.5-7.5v-95.066c0-18.371-13.282-33.687-30.745-36.879-3.41-16.982-18.125-30.125-35.708-30.607-10.186-.283-19.878 3.486-27.195 10.607-7.321 7.122-11.352 16.668-11.352 26.879v220.706c0 8.62 2.151 17.193 6.222 24.792l68.431 127.737-9.531 52.424c-.397 2.188.196 4.44 1.621 6.147s3.533 2.694 5.757 2.694h168.5c4.143 0 7.5-3.358 7.5-7.5v-116.007c0-18.029-7.021-34.98-19.77-47.729zm109.042 260.508h-152.014l8.393-46.158c.304-1.668.032-3.389-.768-4.883l-69.667-130.045c-2.907-5.428-4.444-11.551-4.444-17.708v-220.706c0-6.127 2.419-11.854 6.812-16.128 4.391-4.271 10.197-6.534 16.326-6.363 12.054.33 21.862 10.699 21.862 23.115v184.41c-.013 10.031 3.877 19.443 10.984 26.549l104.712 104.713c2.931 2.93 7.679 2.928 10.607 0 2.929-2.929 2.929-7.678 0-10.606l-104.712-104.713c-4.256-4.255-6.588-9.888-6.591-15.893 0-.14.001-.234.002-.328.084-6.125 2.586-11.822 7.046-16.043 8.757-8.291 23.026-7.892 31.803.886l104.272 104.271c9.916 9.916 15.377 23.1 15.377 37.123z"/><path d="m256 135c28.948 0 52.5-23.551 52.5-52.5s-23.552-52.5-52.5-52.5-52.5 23.551-52.5 52.5 23.552 52.5 52.5 52.5zm0-90c20.678 0 37.5 16.822 37.5 37.5s-16.822 37.5-37.5 37.5-37.5-16.822-37.5-37.5 16.822-37.5 37.5-37.5z"/><path d="m392 136c0-74.991-61.01-136-136-136s-136 61.009-136 136 61.01 136 136 136 136-61.009 136-136zm-136 121c-66.72 0-121-54.28-121-121s54.28-121 121-121 121 54.28 121 121-54.28 121-121 121z"/><path d="m308.504 150h-105.008c-20.678 0-37.5 16.822-37.5 37.5v2.316c0 1.458.425 2.883 1.222 4.104 19.677 30.106 52.866 48.08 88.782 48.08 35.914 0 69.104-17.974 88.783-48.08.797-1.22 1.222-2.646 1.222-4.104v-2.316c-.001-20.678-16.823-37.5-37.501-37.5zm22.5 37.535c-17.029 24.753-44.904 39.465-75.004 39.465s-57.976-14.711-75.004-39.465c0-12.442 10.094-22.535 22.5-22.535h105.009c12.406 0 22.499 10.093 22.499 22.535z"/></g></svg>