<svg id="Capa_1" enable-background="new 0 0 512 512" height="512" viewBox="0 0 512 512" width="512" xmlns="http://www.w3.org/2000/svg"><g><path d="m89.815 164.994h76.712c15.089 0 28.049-8.66 33.823-22.6s2.733-29.228-7.936-39.897l-27.119-27.119c-9.916-9.917-23.1-15.378-37.124-15.378-14.023 0-27.207 5.461-37.123 15.377l-27.12 27.12c-10.669 10.669-13.71 25.957-7.936 39.897s18.735 22.6 33.823 22.6zm-15.281-51.89 27.12-27.12c7.083-7.083 16.5-10.984 26.517-10.984 10.018 0 19.435 3.901 26.518 10.984l27.119 27.119c7.528 7.528 7.356 17.102 4.685 23.55-2.671 6.449-9.319 13.34-19.965 13.34h-76.713c-10.646 0-17.293-6.891-19.965-13.34-2.671-6.448-2.844-16.022 4.684-23.549z"/><path d="m181.333 180h-105.666c-20.678 0-37.5 16.822-37.5 37.5v122.011c0 12.407 10.093 22.5 22.5 22.5 2.629 0 5.153-.458 7.5-1.29v124.863c0 14.566 11.851 26.417 26.417 26.417s26.416-11.852 26.416-26.418v-138.572h15v138.573c0 14.565 11.85 26.416 26.416 26.416s26.417-11.851 26.417-26.417v-124.785c2.337.784 4.858 1.213 7.501 1.213 12.617 0 22.5-9.664 22.5-22v-122.511c-.001-20.678-16.823-37.5-37.501-37.5zm22.5 160.011c0 3.991-3.224 7-7.5 7s-7.5-3.009-7.5-7c-.001-.019-.001-122.511-.001-122.511 0-4.142-3.358-7.5-7.5-7.5s-7.5 3.358-7.5 7.5v268.083c0 6.295-5.122 11.417-11.417 11.417s-11.415-5.122-11.415-11.417v-146.072c0-4.142-3.358-7.5-7.5-7.5h-30c-4.142 0-7.5 3.358-7.5 7.5v146.073c0 6.295-5.122 11.417-11.417 11.417s-11.417-5.122-11.417-11.417v-268.084c0-4.142-3.358-7.5-7.5-7.5s-7.5 3.358-7.5 7.5v122.011c0 4.136-3.365 7.5-7.5 7.5-4.136 0-7.5-3.364-7.5-7.5v-122.011c0-12.407 10.093-22.5 22.5-22.5h105.667c12.407 0 22.5 10.093 22.5 22.5z"/><path d="m466.333 0h-30c-4.142 0-7.5 3.358-7.5 7.5v32.429h-150v-32.429c0-4.142-3.358-7.5-7.5-7.5h-30c-4.142 0-7.5 3.358-7.5 7.5v233.5c0 4.142 3.358 7.5 7.5 7.5s7.5-3.358 7.5-7.5v-226h15v482h-15v-226c0-4.142-3.358-7.5-7.5-7.5s-7.5 3.358-7.5 7.5v233.5c0 4.142 3.358 7.5 7.5 7.5h30c4.142 0 7.5-3.358 7.5-7.5v-32.429h150v32.429c0 4.142 3.358 7.5 7.5 7.5h30c4.142 0 7.5-3.358 7.5-7.5v-497c0-4.142-3.357-7.5-7.5-7.5zm-37.5 162.357v32.429h-150v-32.429zm-150-15v-15h150v15zm150 62.429v15h-150v-15zm0 30v32.429h-150v-32.429zm0 47.428v15h-150v-15zm0 30v32.429h-150v-32.429zm0 47.429v15h-150v-15zm0-247.286h-150v-32.428h150zm-150 277.286h150v32.428h-150zm150-339.714v15h-150v-15zm-150 402.142v-15h150v15zm180 39.929h-15v-482h15z"/></g></svg>