<svg id="Capa_1" enable-background="new 0 0 512 512" height="512" viewBox="0 0 512 512" width="512" xmlns="http://www.w3.org/2000/svg"><g><path d="m437.02 74.98c-48.353-48.351-112.64-74.98-181.02-74.98-62.63 0-122.916 22.87-169.754 64.396-3.099 2.748-3.384 7.488-.636 10.587 2.747 3.1 7.487 3.385 10.587.636 44.092-39.09 100.844-60.619 159.803-60.619 132.888 0 241 108.112 241 241s-108.112 241-241 241-241-108.112-241-241c0-58.959 21.529-115.711 60.62-159.803 2.748-3.1 2.463-7.839-.636-10.587-3.1-2.75-7.84-2.463-10.587.636-41.527 46.838-64.397 107.124-64.397 169.754 0 68.38 26.629 132.667 74.98 181.02 48.353 48.352 112.64 74.98 181.02 74.98s132.667-26.628 181.02-74.98 74.98-112.64 74.98-181.02-26.628-132.667-74.98-181.02z"/><path d="m248.5 278.703c-4.142 0-7.5 3.358-7.5 7.5s3.358 7.5 7.5 7.5h15c4.142 0 7.5-3.358 7.5-7.5s-3.358-7.5-7.5-7.5z"/><path d="m291.997 245.707c2.488-3.312 1.82-8.013-1.492-10.501-3.313-2.487-8.014-1.819-10.501 1.492-5.731 7.629-14.48 12.004-24.004 12.004s-18.273-4.375-24.004-12.004c-2.487-3.312-7.189-3.981-10.501-1.492-3.312 2.488-3.98 7.189-1.492 10.501 8.59 11.437 21.711 17.996 35.997 17.996s27.406-6.559 35.997-17.996z"/><path d="m362 181.2v-45c0-12.407-10.093-22.5-22.5-22.5s-22.5 10.093-22.5 22.5v45c0 12.407 10.093 22.5 22.5 22.5s22.5-10.093 22.5-22.5zm-30 0v-45c0-4.136 3.364-7.5 7.5-7.5s7.5 3.364 7.5 7.5v45c0 4.136-3.364 7.5-7.5 7.5s-7.5-3.364-7.5-7.5z"/><path d="m195 181.203v-45c0-12.407-10.093-22.5-22.5-22.5s-22.5 10.093-22.5 22.5v45c0 12.407 10.093 22.5 22.5 22.5s22.5-10.094 22.5-22.5zm-30 0v-45c0-4.136 3.364-7.5 7.5-7.5s7.5 3.364 7.5 7.5v45c0 4.136-3.364 7.5-7.5 7.5s-7.5-3.365-7.5-7.5z"/></g></svg>