<svg id="Capa_1" enable-background="new 0 0 512 512" height="512" viewBox="0 0 512 512" width="512" xmlns="http://www.w3.org/2000/svg"><g><path d="m202.5 226h-60c-4.142 0-7.5 3.358-7.5 7.5v60c0 4.142 3.358 7.5 7.5 7.5h60c4.142 0 7.5-3.358 7.5-7.5v-60c0-4.142-3.358-7.5-7.5-7.5zm-7.5 60h-45v-45h45z"/><path d="m307.5 241c20.678 0 37.5-16.822 37.5-37.5s-16.822-37.5-37.5-37.5h-37.5v-37.5c0-20.678-16.822-37.5-37.5-37.5s-37.5 16.822-37.5 37.5v37.5h-45v-37.5c0-20.678-16.822-37.5-37.5-37.5s-37.5 16.822-37.5 37.5v37.5h-37.5c-20.678 0-37.5 16.822-37.5 37.5s16.822 37.5 37.5 37.5h37.5v45h-37.5c-20.678 0-37.5 16.822-37.5 37.5s16.822 37.5 37.5 37.5h37.5v37.5c0 20.678 16.822 37.5 37.5 37.5s37.5-16.822 37.5-37.5v-37.5h45v37.5c0 20.678 16.822 37.5 37.5 37.5s37.5-16.822 37.5-37.5v-37.5h37.5c20.678 0 37.5-16.822 37.5-37.5s-16.822-37.5-37.5-37.5h-37.5v-45zm-45 60h45c12.406 0 22.5 10.093 22.5 22.5s-10.094 22.5-22.5 22.5h-45c-4.143 0-7.5 3.358-7.5 7.5v45c0 12.407-10.093 22.5-22.5 22.5s-22.5-10.093-22.5-22.5v-45c0-4.142-3.358-7.5-7.5-7.5h-60c-4.142 0-7.5 3.358-7.5 7.5v45c0 12.407-10.093 22.5-22.5 22.5s-22.5-10.093-22.5-22.5v-45c0-4.142-3.358-7.5-7.5-7.5h-45c-12.407 0-22.5-10.093-22.5-22.5s10.093-22.5 22.5-22.5h45c4.142 0 7.5-3.358 7.5-7.5v-60c0-4.142-3.358-7.5-7.5-7.5h-45c-12.407 0-22.5-10.093-22.5-22.5s10.093-22.5 22.5-22.5h45c4.142 0 7.5-3.358 7.5-7.5v-45c0-12.407 10.093-22.5 22.5-22.5s22.5 10.093 22.5 22.5v45c0 4.142 3.358 7.5 7.5 7.5h60c4.142 0 7.5-3.358 7.5-7.5v-45c0-12.407 10.093-22.5 22.5-22.5s22.5 10.093 22.5 22.5v45c0 4.142 3.357 7.5 7.5 7.5h45c12.406 0 22.5 10.093 22.5 22.5s-10.094 22.5-22.5 22.5h-45c-4.143 0-7.5 3.358-7.5 7.5v60c0 4.142 3.357 7.5 7.5 7.5z"/><path d="m444.5 0c-37.22 0-67.5 30.28-67.5 67.5v173.5c0 4.142 3.357 7.5 7.5 7.5s7.5-3.358 7.5-7.5v-173.5c0-28.949 23.552-52.5 52.5-52.5s52.5 23.551 52.5 52.5v377c0 28.949-23.552 52.5-52.5 52.5s-52.5-23.551-52.5-52.5v-173.5c0-4.142-3.357-7.5-7.5-7.5s-7.5 3.358-7.5 7.5v173.5c0 37.22 30.28 67.5 67.5 67.5s67.5-30.28 67.5-67.5v-377c0-37.22-30.28-67.5-67.5-67.5z"/></g></svg>