<svg id="Capa_1" enable-background="new 0 0 512 512" height="512" viewBox="0 0 512 512" width="512" xmlns="http://www.w3.org/2000/svg"><g><path d="m437.02 74.98c-48.353-48.351-112.64-74.98-181.02-74.98s-132.667 26.629-181.02 74.98c-48.351 48.352-74.98 112.64-74.98 181.02s26.629 132.668 74.98 181.02c48.353 48.351 112.64 74.98 181.02 74.98s132.667-26.629 181.02-74.98c48.351-48.352 74.98-112.64 74.98-181.02s-26.629-132.668-74.98-181.02zm-181.02 422.02c-132.888 0-241-108.112-241-241s108.112-241 241-241 241 108.112 241 241-108.112 241-241 241z"/><path d="m256 60c-108.075 0-196 87.925-196 196s87.925 196 196 196 196-87.925 196-196-87.925-196-196-196zm0 377c-99.804 0-181-81.196-181-181s81.196-181 181-181 181 81.196 181 181-81.196 181-181 181z"/><path d="m296.937 304.437c0 1.989.79 3.896 2.197 5.304l42.426 42.427c1.406 1.406 3.314 2.196 5.303 2.196s3.897-.79 5.303-2.196c25.688-25.689 39.834-59.841 39.834-96.168 0-74.99-61.009-136-136-136s-136 61.01-136 136c0 36.327 14.146 70.479 39.833 96.167 2.929 2.928 7.678 2.928 10.606 0l42.427-42.427c1.407-1.407 2.197-3.314 2.197-5.304s-.79-3.897-2.197-5.304c-11.521-11.52-17.866-26.838-17.866-43.132 0-33.636 27.364-61 61-61s61 27.364 61 61c0 16.294-6.345 31.612-17.866 43.133-1.407 1.407-2.197 3.314-2.197 5.304zm-99.724-.257-31.916 31.916c-17.94-20.26-28.423-45.584-30.064-72.596h45.143c1.46 14.99 7.27 29.049 16.837 40.68zm-16.84-55.68h-45.134c1.704-27.726 12.785-52.953 30.106-72.547l31.899 31.9c-9.276 11.299-15.361 25.31-16.871 40.647zm27.479-51.255-31.899-31.899c19.594-17.322 44.822-28.402 72.547-30.106v45.134c-15.337 1.509-29.348 7.594-40.648 16.871zm55.648-16.872v-45.134c27.726 1.704 52.953 12.785 72.547 30.106l-31.899 31.899c-11.3-9.276-25.311-15.361-40.648-16.871zm51.255 27.479 31.899-31.9c17.322 19.594 28.402 44.822 30.106 72.547h-45.134c-1.509-15.336-7.594-29.347-16.871-40.647zm16.868 55.648h45.143c-1.641 27.012-12.124 52.336-30.064 72.596l-31.916-31.916c9.569-11.631 15.378-25.69 16.837-40.68z"/><path d="m256 90c-38.542 0-76.098 13.51-105.749 38.04-3.191 2.64-3.638 7.367-.998 10.559 2.641 3.192 7.368 3.64 10.56.998 26.967-22.31 61.127-34.597 96.187-34.597 83.262 0 151 67.738 151 151s-67.738 151-151 151-151-67.738-151-151c0-35.061 12.287-69.221 34.597-96.188 2.64-3.192 2.193-7.92-.998-10.56-3.192-2.641-7.92-2.192-10.56.997-24.53 29.652-38.039 67.208-38.039 105.751 0 91.532 74.467 166 166 166s166-74.468 166-166-74.467-166-166-166z"/><path d="m226 255.975c0 2.296.268 4.604.797 6.86 0 .002 21.901 93.353 21.901 93.353.795 3.391 3.819 5.787 7.302 5.787s6.506-2.396 7.302-5.787l21.901-93.353c.529-2.256.797-4.564.797-6.86 0-16.542-13.458-30-30-30s-30 13.458-30 30zm45 0c0 1.146-.135 2.302-.401 3.437l-14.599 62.227-14.599-62.228c-.266-1.136-.401-2.292-.401-3.437 0-8.271 6.729-15 15-15s15 6.729 15 15.001z"/></g></svg>