<svg id="Capa_1" enable-background="new 0 0 512 512" height="512" viewBox="0 0 512 512" width="512" xmlns="http://www.w3.org/2000/svg"><g><circle cx="256" cy="127.5" r="7.5"/><ellipse cx="214.977" cy="132.901" rx="7.5" ry="7.5" transform="matrix(.317 -.948 .948 .317 20.777 294.654)"/><ellipse cx="176.75" cy="148.735" rx="7.5" ry="7.5" transform="matrix(.816 -.578 .578 .816 -53.441 129.372)"/><circle cx="143.924" cy="173.924" r="7.5"/><ellipse cx="118.735" cy="206.75" rx="7.5" ry="7.5" transform="matrix(.966 -.259 .259 .966 -49.465 37.776)"/><ellipse cx="102.901" cy="244.977" rx="7.5" ry="7.5" transform="matrix(.866 -.5 .5 .866 -108.702 84.271)"/><circle cx="97.5" cy="286" r="7.5"/><ellipse cx="102.901" cy="327.023" rx="7.5" ry="7.5" transform="matrix(.381 -.925 .925 .381 -238.662 297.576)"/><ellipse cx="118.735" cy="365.25" rx="7.5" ry="7.5" transform="matrix(.259 -.966 .966 .259 -264.8 385.406)"/><circle cx="143.924" cy="398.076" r="7.5"/><ellipse cx="176.75" cy="423.265" rx="7.5" ry="7.5" transform="matrix(.966 -.259 .259 .966 -103.526 60.168)"/><path d="m213.036 446.344c4.001 1.072 8.114-1.302 9.186-5.303s-1.302-8.113-5.303-9.185-8.114 1.302-9.186 5.303 1.302 8.113 5.303 9.185z"/><circle cx="256" cy="444.5" r="7.5"/><path d="m295.082 431.855c-4.001 1.072-6.375 5.185-5.303 9.185 1.072 4.001 5.185 6.375 9.186 5.303s6.375-5.185 5.303-9.186-5.185-6.374-9.186-5.302z"/><ellipse cx="335.25" cy="423.265" rx="7.5" ry="7.5" transform="matrix(.259 -.966 .966 .259 -160.362 637.543)"/><circle cx="368.076" cy="398.076" r="7.5"/><ellipse cx="393.265" cy="365.25" rx="7.5" ry="7.5" transform="matrix(.966 -.259 .259 .966 -81.133 114.23)"/><ellipse cx="409.099" cy="327.023" rx="7.5" ry="7.5" transform="matrix(.884 -.468 .468 .884 -105.5 229.589)"/><circle cx="414.5" cy="286" r="7.5"/><ellipse cx="409.099" cy="244.977" rx="7.5" ry="7.5" transform="matrix(.5 -.866 .866 .5 -7.606 476.78)"/><ellipse cx="393.265" cy="206.75" rx="7.5" ry="7.5" transform="matrix(.259 -.966 .966 .259 91.776 533.104)"/><circle cx="368.076" cy="173.924" r="7.5"/><ellipse cx="335.25" cy="148.735" rx="7.5" ry="7.5" transform="matrix(.481 -.877 .877 .481 43.483 370.967)"/><ellipse cx="297.023" cy="132.901" rx="7.5" ry="7.5" transform="matrix(.911 -.412 .412 .911 -28.374 134.267)"/><path d="m435.622 148.805 38.521-38.521c1.407-1.407 2.197-3.314 2.197-5.304s-.79-3.896-2.197-5.304l-31.82-31.819c-2.929-2.928-7.678-2.928-10.606 0l-38.521 38.521c-29.306-22.48-63.374-37.257-99.695-43.288v-19.38c8.729-3.096 15-11.433 15-21.21-.001-12.406-10.094-22.5-22.501-22.5h-60c-12.407 0-22.5 10.094-22.5 22.5 0 9.777 6.271 18.114 15 21.21v19.381c-36.321 6.031-70.389 20.808-99.695 43.288l-38.521-38.522c-2.928-2.928-7.677-2.928-10.606 0l-31.82 31.819c-1.407 1.407-2.197 3.314-2.197 5.304s.79 3.896 2.197 5.304l38.521 38.521c-30.078 39.212-46.379 86.948-46.379 137.195 0 60.366 23.508 117.12 66.194 159.806s99.439 66.194 159.806 66.194 117.12-23.508 159.806-66.194 66.194-99.44 66.194-159.806c0-50.247-16.301-97.983-46.378-137.195zm1.398-65.037 21.213 21.213-10.607 10.607-21.213-21.213zm-21.214 21.213 21.213 21.213-10.961 10.961c-3.287-3.744-6.696-7.406-10.251-10.961s-7.217-6.965-10.961-10.252zm-189.806-89.981h60c4.136 0 7.5 3.364 7.5 7.5s-3.364 7.5-7.5 7.5h-60c-4.136 0-7.5-3.364-7.5-7.5s3.364-7.5 7.5-7.5zm7.5 30h45v16.099c-7.43-.729-14.936-1.099-22.5-1.099s-15.07.37-22.5 1.099zm-158.52 38.768 10.606 10.607-21.213 21.213-10.606-10.608zm.001 42.426 21.213-21.213 10.961 10.962c-3.744 3.287-7.406 6.696-10.961 10.252-3.555 3.555-6.965 7.217-10.251 10.961zm181.019 370.806c-116.346 0-211-94.654-211-211s94.654-211 211-211 211 94.654 211 211-94.654 211-211 211z"/><path d="m256 90c-108.075 0-196 87.925-196 196 0 46.574 16.63 91.721 46.826 127.122 2.688 3.151 7.421 3.528 10.573.839 3.151-2.688 3.527-7.422.839-10.573-27.882-32.69-43.238-74.379-43.238-117.388 0-99.804 81.196-181 181-181s181 81.196 181 181-81.196 181-181 181c-43.009 0-84.698-15.355-117.388-43.238-3.152-2.688-7.885-2.313-10.573.839s-2.313 7.886.839 10.573c35.402 30.196 80.548 46.826 127.122 46.826 108.075 0 196-87.925 196-196s-87.925-196-196-196z"/><path d="m248.5 286c0 4.143 3.358 7.5 7.5 7.5h128.5c4.142 0 7.5-3.357 7.5-7.5 0-74.99-61.009-136-136-136-4.142 0-7.5 3.357-7.5 7.5zm15-120.771c60.764 3.731 109.539 52.507 113.27 113.271h-113.27z"/></g></svg>