<svg id="Capa_1" enable-background="new 0 0 512 512" height="512" viewBox="0 0 512 512" width="512" xmlns="http://www.w3.org/2000/svg"><g><path d="m202.967 331.522c5.762 0 11.523-2.193 15.91-6.579l39.01-39.009c15.665-.977 28.113-14.026 28.113-29.934 0-7.588-2.838-14.523-7.5-19.811v-55.189c0-12.406-10.094-22.5-22.5-22.5-12.407 0-22.5 10.094-22.5 22.5v55.189c-4.273 4.847-7.008 11.078-7.435 17.926l-39.008 39.008c-4.25 4.25-6.59 9.9-6.59 15.91s2.341 11.66 6.59 15.91c4.387 4.386 10.149 6.579 15.91 6.579zm53.033-60.522c-8.271 0-15-6.729-15-15s6.729-15 15-15 15 6.729 15 15-6.729 15-15 15zm0-97.5c4.136 0 7.5 3.364 7.5 7.5v45.949c-2.398-.619-4.911-.949-7.5-.949s-5.102.33-7.5.949v-45.949c0-4.136 3.364-7.5 7.5-7.5zm-58.336 130.23 32.503-32.503c2.584 4.366 6.24 8.023 10.606 10.606l-32.503 32.503c-2.923 2.926-7.682 2.925-10.606 0-1.417-1.416-2.197-3.3-2.197-5.303s.78-3.887 2.197-5.303z"/><path d="m256 383.5c70.304 0 127.5-57.196 127.5-127.5s-57.196-127.5-127.5-127.5-127.5 57.196-127.5 127.5 57.196 127.5 127.5 127.5zm0-240c62.032 0 112.5 50.468 112.5 112.5s-50.468 112.5-112.5 112.5c-62.033 0-112.5-50.468-112.5-112.5s50.467-112.5 112.5-112.5z"/><path d="m508.761 215.267c-.481-3.008-2.733-5.426-5.699-6.118l-36.705-8.58c-4.987-18.98-12.514-37.142-22.424-54.107l19.896-32.03c1.607-2.587 1.49-5.89-.297-8.356-7.982-11.023-16.902-21.485-26.512-31.096s-20.072-18.53-31.094-26.512c-2.468-1.787-5.77-1.902-8.356-.297l-32.03 19.896c-16.965-9.91-35.127-17.437-54.107-22.424l-8.58-36.705c-.692-2.966-3.11-5.218-6.118-5.699-13.439-2.149-27.144-3.239-40.735-3.239s-27.295 1.09-40.733 3.239c-3.007.481-5.425 2.733-6.119 5.699l-8.58 36.705c-18.98 4.987-37.142 12.514-54.107 22.424l-32.03-19.896c-2.587-1.607-5.89-1.49-8.356.297-11.024 7.984-21.485 16.904-31.094 26.512s-18.529 20.07-26.512 31.094c-1.787 2.467-1.904 5.77-.297 8.356l19.896 32.03c-9.911 16.966-17.437 35.127-22.424 54.107l-36.705 8.58c-2.966.692-5.218 3.11-5.699 6.118-2.15 13.443-3.24 27.147-3.24 40.735s1.09 27.292 3.24 40.733c.481 3.008 2.733 5.426 5.699 6.118l36.705 8.58c4.987 18.98 12.513 37.142 22.424 54.107l-19.896 32.03c-1.607 2.587-1.49 5.89.297 8.356 7.983 11.023 16.903 21.485 26.512 31.094s20.07 18.528 31.094 26.512c2.467 1.787 5.77 1.904 8.356.297l32.03-19.896c16.965 9.91 35.126 17.437 54.107 22.424l8.579 36.705c.693 2.966 3.111 5.218 6.119 5.699 13.439 2.151 27.143 3.241 40.734 3.241s27.296-1.09 40.733-3.239c3.008-.481 5.426-2.733 6.118-5.699l8.58-36.705c18.98-4.987 37.143-12.514 54.107-22.424l32.03 19.896c2.586 1.606 5.888 1.49 8.356-.297 11.021-7.981 21.483-16.901 31.094-26.512s18.53-20.072 26.512-31.094c1.787-2.467 1.904-5.77.297-8.356l-19.896-32.03c9.91-16.966 17.437-35.127 22.424-54.107l36.705-8.58c2.966-.692 5.218-3.11 5.699-6.118 2.151-13.439 3.241-27.144 3.241-40.735s-1.09-27.296-3.239-40.733zm-14.072 74.137-36.199 8.462c-2.763.646-4.924 2.794-5.586 5.553-4.94 20.59-13.065 40.195-24.149 58.271-1.483 2.419-1.475 5.468.022 7.878l19.622 31.59c-6.735 8.904-14.115 17.383-21.987 25.254-7.871 7.872-16.35 15.252-25.254 21.987l-31.59-19.622c-2.409-1.498-5.459-1.508-7.878-.022-18.076 11.084-37.682 19.209-58.271 24.149-2.759.662-4.907 2.823-5.553 5.586l-8.462 36.199c-22.117 3.068-44.69 3.068-66.809 0l-8.46-36.199c-.646-2.763-2.795-4.924-5.553-5.586-20.59-4.94-40.196-13.065-58.272-24.149-2.418-1.484-5.467-1.474-7.878.022l-31.589 19.622c-8.906-6.736-17.384-14.116-25.255-21.987-7.871-7.87-15.251-16.349-21.987-25.254l19.622-31.59c1.497-2.41 1.506-5.459.023-7.877-11.084-18.078-19.209-37.684-24.149-58.272-.662-2.759-2.824-4.907-5.586-5.553l-36.199-8.462c-1.536-11.061-2.312-22.274-2.312-33.404s.776-22.343 2.311-33.404l36.199-8.462c2.762-.646 4.924-2.794 5.586-5.553 4.94-20.589 13.065-40.194 24.149-58.272 1.483-2.418 1.474-5.467-.023-7.877l-19.622-31.59c6.736-8.905 14.116-17.384 21.987-25.254 7.871-7.871 16.349-15.251 25.255-21.987l31.589 19.622c2.411 1.498 5.46 1.507 7.878.022 18.077-11.084 37.682-19.209 58.272-24.149 2.758-.662 4.907-2.823 5.553-5.586l8.461-36.199c22.118-3.068 44.692-3.068 66.809 0l8.462 36.199c.646 2.763 2.794 4.924 5.553 5.586 20.59 4.94 40.195 13.065 58.271 24.149 2.42 1.485 5.47 1.475 7.878-.022l31.59-19.622c8.904 6.735 17.383 14.115 25.254 21.987 7.872 7.871 15.252 16.35 21.987 25.254l-19.622 31.59c-1.497 2.41-1.506 5.459-.022 7.878 11.084 18.076 19.209 37.682 24.149 58.271.662 2.759 2.823 4.907 5.586 5.553l36.199 8.462c1.535 11.058 2.311 22.272 2.311 33.404s-.776 22.346-2.311 33.404z"/><path d="m256 68.5c-44.296 0-87.292 15.746-121.069 44.339-3.162 2.677-3.555 7.409-.879 10.57 2.677 3.163 7.409 3.556 10.57.879 31.072-26.303 70.627-40.788 111.378-40.788 95.117 0 172.5 77.383 172.5 172.5s-77.383 172.5-172.5 172.5-172.5-77.383-172.5-172.5c0-40.752 14.485-80.307 40.788-111.378 2.676-3.161 2.283-7.894-.879-10.57-3.163-2.676-7.895-2.281-10.57.879-28.592 33.776-44.339 76.773-44.339 121.069 0 103.388 84.112 187.5 187.5 187.5s187.5-84.112 187.5-187.5-84.112-187.5-187.5-187.5z"/></g></svg>