<svg id="Capa_1" enable-background="new 0 0 512 512" height="512" viewBox="0 0 512 512" width="512" xmlns="http://www.w3.org/2000/svg"><g><path d="m413.213 127.549v-90c0-4.143-3.357-7.5-7.5-7.5h-316.999c-1.989 0-3.896.79-5.304 2.196l-45 45c-2.929 2.93-2.929 7.678 0 10.607l45 45c1.407 1.406 3.314 2.196 5.304 2.196h316.999c4.142.001 7.5-3.357 7.5-7.499zm-15-7.5h-306.393l-37.5-37.5 37.5-37.5h306.393z"/><path d="m505.41 261.639-59.999-59.999c-4.249-4.25-9.899-6.591-15.911-6.591h-136v-30h127.213c12.406 0 22.5-10.094 22.5-22.5v-120c0-12.406-10.094-22.5-22.5-22.5h-338.213c-6.012 0-11.662 2.341-15.91 6.59l-59.999 60c-4.25 4.25-6.591 9.899-6.591 15.91s2.341 11.66 6.59 15.91l59.999 59.999c4.249 4.25 9.899 6.591 15.911 6.591h136v30h-127.213c-12.406 0-22.5 10.094-22.5 22.5v120c0 12.406 10.094 22.5 22.5 22.5h127.213v144.402c0 4.143 3.357 7.5 7.5 7.5h60c4.143 0 7.5-3.357 7.5-7.5v-144.402h136c6.012 0 11.662-2.341 15.91-6.59l59.999-60c4.25-4.25 6.591-9.899 6.591-15.91s-2.341-11.66-6.59-15.91zm-428.213-113.787-60.001-60c-1.416-1.416-2.196-3.3-2.196-5.303s.78-3.887 2.197-5.303l60.001-60.001c1.415-1.416 3.298-2.196 5.302-2.196h338.213c4.136 0 7.5 3.364 7.5 7.5v120c0 4.136-3.364 7.5-7.5 7.5h-338.213c-2.004 0-3.887-.78-5.303-2.197zm156.303 17.197h45v30h-45zm45 331.902h-45v-136.902h45zm216.303-214.099-60.001 60.001c-1.415 1.416-3.298 2.196-5.302 2.196h-338.213c-4.136 0-7.5-3.364-7.5-7.5v-120c0-4.136 3.364-7.5 7.5-7.5h338.213c2.004 0 3.887.78 5.303 2.197l60.001 60c1.416 1.416 2.196 3.3 2.196 5.303s-.78 3.887-2.197 5.303z"/><path d="m428.59 227.245c-1.407-1.406-3.314-2.196-5.304-2.196h-316.999c-4.143 0-7.5 3.357-7.5 7.5v90c0 4.143 3.357 7.5 7.5 7.5h30c4.143 0 7.5-3.357 7.5-7.5s-3.357-7.5-7.5-7.5h-22.5v-75h306.393l37.5 37.5-37.5 37.5h-253.893c-4.143 0-7.5 3.357-7.5 7.5s3.357 7.5 7.5 7.5h256.999c1.989 0 3.896-.79 5.304-2.196l45-45c2.929-2.93 2.929-7.678 0-10.607z"/></g></svg>