<svg id="Capa_1" enable-background="new 0 0 512 512" height="512" viewBox="0 0 512 512" width="512" xmlns="http://www.w3.org/2000/svg"><g><path d="m510.598 397.081-127.993-178.726c-1.408-1.966-3.679-3.133-6.098-3.133s-4.689 1.167-6.098 3.134l-18.449 25.763c-2.412 3.367-1.637 8.053 1.731 10.464 3.364 2.411 8.053 1.638 10.464-1.73l12.352-17.248 120.493 168.251v77.289l-233.5-326.056v-35.089h50.184v7.5c0 12.406 10.094 22.5 22.5 22.5h105c4.143 0 7.5-3.357 7.5-7.5v-105c0-4.143-3.357-7.5-7.5-7.5h-52.5v-7.5c0-12.406-10.094-22.5-22.5-22.5h-110.184c-4.143 0-7.5 3.357-7.5 7.5v147.589l-233.5 326.056v-77.289l120.492-168.252 12.352 17.248c2.412 3.367 7.098 4.143 10.464 1.73 3.368-2.411 4.144-7.097 1.731-10.464l-18.449-25.763c-1.408-1.967-3.679-3.134-6.098-3.134s-4.689 1.167-6.098 3.133l-127.992 178.727c-.912 1.273-1.402 2.801-1.402 4.367v103.052c0 4.143 3.357 7.5 7.5 7.5h497c4.143 0 7.5-3.357 7.5-7.5v-103.052c0-1.566-.49-3.094-1.402-4.367zm-338.207-109.951 35.707 49.861c1.408 1.966 3.679 3.133 6.098 3.133s4.689-1.167 6.098-3.133l35.706-49.861 35.707 49.861c1.408 1.966 3.679 3.133 6.098 3.133s4.689-1.167 6.098-3.133l35.707-49.861 150.294 209.87h-467.808zm83.609-116.75 74.384 103.869-32.579 45.494-35.707-49.861c-1.408-1.966-3.679-3.133-6.098-3.133s-4.689 1.167-6.098 3.133l-35.707 49.861-32.579-45.494zm80.184-35.38c-4.136 0-7.5-3.364-7.5-7.5v-7.5h37.5c4.136 0 7.5 3.364 7.5 7.5s-3.364 7.5-7.5 7.5zm97.5-90v90h-46.29c.833-2.347 1.29-4.871 1.29-7.5v-82.5zm-67.5-30c4.136 0 7.5 3.364 7.5 7.5v83.79c-2.347-.833-4.871-1.29-7.5-1.29h-102.684v-90z"/></g></svg>