<svg id="Capa_1" enable-background="new 0 0 512 512" height="512" viewBox="0 0 512 512" width="512" xmlns="http://www.w3.org/2000/svg"><g><path d="m429.5 0h-347c-45.491 0-82.5 37.01-82.5 82.5v347c0 45.49 37.009 82.5 82.5 82.5h347c45.491 0 82.5-37.01 82.5-82.5v-347c0-45.49-37.009-82.5-82.5-82.5zm37.5 110.941c-8.797-12.738-18.8-24.78-29.98-35.961-11.181-11.18-23.223-21.183-35.962-29.98h28.442c20.678 0 37.5 16.822 37.5 37.5zm19.742 75.468-97.646 26.164c-13.843-42.323-47.345-75.825-89.669-89.669l26.164-97.646c77.021 23.274 137.878 84.13 161.151 161.151zm-161.15 300.333-26.164-97.646c42.323-13.844 75.825-47.346 89.669-89.669l97.646 26.164c-23.274 77.021-84.131 137.877-161.151 161.151zm141.408-85.683v28.441c0 20.678-16.822 37.5-37.5 37.5h-28.442c12.738-8.797 24.78-18.8 35.961-29.98 11.181-11.181 21.184-23.223 29.981-35.961zm-422 0c8.797 12.738 18.8 24.78 29.98 35.961 11.181 11.18 23.223 21.183 35.962 29.98h-28.442c-20.678 0-37.5-16.822-37.5-37.5zm-19.742-75.468 97.646-26.164c13.843 42.323 47.346 75.825 89.669 89.669l-26.164 97.646c-77.021-23.274-137.878-84.13-161.151-161.151zm161.15-300.333 26.142 97.563c-15.692 5.109-30.423 13.039-43.704 23.618-3.24 2.58-3.774 7.299-1.194 10.539 2.581 3.24 7.299 3.773 10.54 1.193 22.318-17.775 49.224-27.171 77.808-27.171 68.925 0 125 56.075 125 125s-56.075 125-125 125-125-56.075-125-125c0-28.584 9.396-55.489 27.172-77.808 2.581-3.24 2.046-7.959-1.194-10.539s-7.959-2.047-10.54 1.193c-10.578 13.282-18.508 28.012-23.617 43.704l-97.564-26.142c23.274-77.02 84.131-137.876 161.151-161.15zm-141.408 85.683v-28.441c0-20.678 16.822-37.5 37.5-37.5h28.442c-12.738 8.797-24.78 18.8-35.961 29.98-11.181 11.181-21.184 23.223-29.981 35.961zm266.106-89.577-26.166 97.651c-9.341-1.971-19.021-3.015-28.94-3.015-9.861 0-19.543 1.002-28.953 2.966l-26.152-97.602c17.704-4.157 36.151-6.364 55.105-6.364s37.401 2.207 55.106 6.364zm-296.106 234.636c0-18.954 2.207-37.402 6.365-55.106l97.602 26.152c-1.965 9.41-2.967 19.092-2.967 28.954 0 9.92 1.044 19.599 3.016 28.941l-97.651 26.165c-4.158-17.704-6.365-36.152-6.365-55.106zm185.894 234.636 26.166-97.651c9.341 1.971 19.021 3.015 28.94 3.015s19.599-1.044 28.94-3.015l26.166 97.651c-17.705 4.157-36.152 6.364-55.106 6.364s-37.401-2.207-55.106-6.364zm296.106-234.636c0 18.954-2.207 37.402-6.365 55.106l-97.651-26.165c1.972-9.342 3.016-19.021 3.016-28.941s-1.044-19.599-3.016-28.941l97.651-26.165c4.158 17.704 6.365 36.152 6.365 55.106zm-482-173.5c0-37.22 30.28-67.5 67.5-67.5h86.77c-11.605 4.168-22.891 9.176-33.78 15h-52.99c-28.949 0-52.5 23.552-52.5 52.5v52.99c-5.824 10.889-10.832 22.175-15 33.78zm67.5 414.5c-37.22 0-67.5-30.28-67.5-67.5v-86.77c4.168 11.605 9.176 22.891 15 33.78v52.99c0 28.948 23.551 52.5 52.5 52.5h52.99c10.888 5.824 22.175 10.832 33.78 15zm414.5-67.5c0 37.22-30.28 67.5-67.5 67.5h-86.77c11.605-4.168 22.891-9.176 33.78-15h52.99c28.949 0 52.5-23.552 52.5-52.5v-52.99c5.824-10.889 10.832-22.175 15-33.78zm-15-294.01v-52.99c0-28.948-23.551-52.5-52.5-52.5h-52.99c-10.888-5.824-22.175-10.832-33.78-15h86.77c37.22 0 67.5 30.28 67.5 67.5v86.77c-4.168-11.605-9.176-22.892-15-33.78z"/></g></svg>