<svg id="Capa_1" enable-background="new 0 0 512 512" height="512" viewBox="0 0 512 512" width="512" xmlns="http://www.w3.org/2000/svg"><g><path d="m511.995 346.999c0-13.952-9.573-25.709-22.496-29.05l.001-68.444c0-1.989-.79-3.896-2.197-5.304-1.406-1.406-3.314-2.196-5.303-2.196h-139.302l-22.037-23.019c-10.291-10.75-16.612-24.382-18.233-38.987h22.077c3.464 0 6.479-2.374 7.291-5.742.152-.629.219-1.263.208-1.888-.006-4.165-.006-137.569-.006-142.235.001-.045.007-.09.007-.135 0-.022-.003-.043-.003-.065.038-8.239 6.749-14.93 14.996-14.93 8.271 0 15 6.729 15 15v45c0 4.143 3.358 7.5 7.5 7.5s7.5-3.357 7.5-7.5v-45c0-8.271 6.729-15 15-15s15 6.729 15 15v45c0 4.143 3.358 7.5 7.5 7.5s7.5-3.357 7.5-7.5v-30c0-8.271 6.729-15 15-15s15 6.729 15 15v30c0 4.143 3.358 7.5 7.5 7.5s7.5-3.357 7.5-7.5v-15c0-4.107 1.628-7.941 4.585-10.795 2.955-2.851 6.853-4.347 10.969-4.195 7.966.283 14.446 7.249 14.446 15.529l.002 99.44c0 20.113-7.324 39.489-20.624 54.56-2.741 3.106-2.445 7.846.661 10.586 1.426 1.259 3.196 1.877 4.959 1.877 2.077 0 4.144-.857 5.626-2.537 15.721-17.814 24.378-40.715 24.378-64.486l-.001-99.438c0-16.263-12.971-29.954-28.914-30.52-6.426-.236-12.578 1.546-17.782 5.053-4.108-11.677-15.241-20.073-28.305-20.073-6.173 0-11.916 1.876-16.691 5.085-4.104-11.683-15.241-20.085-28.309-20.085-8.954 0-16.998 3.948-22.5 10.189-5.502-6.241-13.546-10.189-22.5-10.189-13.951 0-25.709 9.573-29.049 22.495h-68.444c-1.989 0-3.897.79-5.303 2.196-1.407 1.407-2.197 3.314-2.197 5.304v139.302l-23.018 22.036c-10.75 10.291-24.38 16.612-38.985 18.233.001-11.681.002-20.939.003-21.952.005-.357-.015-.719-.062-1.082-.484-3.738-3.668-6.536-7.438-6.536h-142.368c-.045-.001-.09-.007-.135-.007-.022 0-.044.003-.066.003-8.239-.038-14.93-6.748-14.93-14.996 0-8.271 6.729-15 15-15h45c4.142 0 7.5-3.357 7.5-7.5s-3.358-7.5-7.5-7.5h-45c-8.271 0-15-6.729-15-15s6.729-15 15-15h45c4.142 0 7.5-3.357 7.5-7.5s-3.358-7.5-7.5-7.5h-30c-8.271 0-15-6.729-15-15s6.729-15 15-15h30c4.142 0 7.5-3.357 7.5-7.5s-3.358-7.5-7.5-7.5h-15c-4.107 0-7.941-1.628-10.794-4.585-2.852-2.955-4.342-6.851-4.196-10.969.283-7.966 7.25-14.446 15.53-14.446l99.437-.001c20.114 0 39.49 7.324 54.559 20.623 3.105 2.74 7.845 2.445 10.586-.66s2.445-7.846-.661-10.586c-17.811-15.72-40.712-24.377-64.484-24.377l-99.438.001c-16.262 0-29.953 12.971-30.52 28.913-.228 6.426 1.55 12.577 5.055 17.782-11.677 4.107-20.074 15.241-20.074 28.305 0 6.173 1.876 11.916 5.085 16.691-11.684 4.104-20.086 15.241-20.086 28.309 0 8.954 3.948 16.999 10.189 22.5-6.241 5.501-10.189 13.546-10.189 22.5 0 13.952 9.573 25.709 22.496 29.05l-.001 68.443c0 1.989.79 3.896 2.197 5.304 1.406 1.406 3.314 2.196 5.303 2.196h139.302l22.037 23.019c10.291 10.75 16.612 24.381 18.232 38.985-11.656-.001-20.898-.002-21.941-.004-.423-.003-.85.021-1.279.089-3.654.567-6.349 3.714-6.349 7.411v142.37c-.001.045-.007.09-.007.135 0 .022.003.043.003.065-.038 8.239-6.749 14.93-14.996 14.93-8.271 0-15-6.729-15-15v-45c0-4.143-3.358-7.5-7.5-7.5s-7.5 3.357-7.5 7.5v45c0 8.271-6.729 15-15 15s-15-6.729-15-15v-45c0-4.143-3.358-7.5-7.5-7.5s-7.5 3.357-7.5 7.5v30c0 8.271-6.729 15-15 15s-15-6.729-15-15v-30c0-4.143-3.358-7.5-7.5-7.5s-7.5 3.357-7.5 7.5v15c0 4.107-1.628 7.941-4.585 10.795-2.955 2.852-6.849 4.352-10.969 4.195-7.966-.283-14.446-7.249-14.446-15.529l-.002-99.438c0-20.113 7.324-39.489 20.624-54.56 2.741-3.106 2.445-7.846-.661-10.586-3.106-2.742-7.845-2.446-10.586.66-15.72 17.814-24.377 40.715-24.377 64.486l.001 99.438c0 16.263 12.971 29.954 28.914 30.52.369.014.736.02 1.104.02 6.025 0 11.773-1.768 16.679-5.072 4.108 11.676 15.241 20.072 28.304 20.072 6.173 0 11.916-1.876 16.691-5.085 4.104 11.683 15.241 20.085 28.309 20.085 8.954 0 16.998-3.948 22.5-10.189 5.502 6.241 13.546 10.189 22.5 10.189 13.951 0 25.709-9.573 29.049-22.495l68.444.001c1.989 0 3.897-.79 5.303-2.196 1.407-1.407 2.197-3.314 2.197-5.304v-139.303l23.018-22.036c10.75-10.291 24.38-16.612 38.985-18.233-.001 11.681-.002 20.939-.003 21.952-.005.357.015.719.062 1.082.484 3.738 3.668 6.536 7.438 6.536h142.369c.045.001.09.007.135.007.022 0 .044-.003.066-.003 8.239.038 14.93 6.748 14.93 14.996 0 8.271-6.729 15-15 15h-45c-4.142 0-7.5 3.357-7.5 7.5s3.358 7.5 7.5 7.5h45c8.271 0 15 6.729 15 15s-6.729 15-15 15h-45c-4.142 0-7.5 3.357-7.5 7.5s3.358 7.5 7.5 7.5h30c8.271 0 15 6.729 15 15s-6.729 15-15 15h-30c-4.142 0-7.5 3.357-7.5 7.5s3.358 7.5 7.5 7.5h15c4.107 0 7.941 1.628 10.794 4.585 2.852 2.955 4.342 6.851 4.196 10.969-.283 7.966-7.25 14.446-15.53 14.446l-99.438.001c-20.114 0-39.49-7.324-54.559-20.623-3.106-2.74-7.845-2.446-10.586.66-2.741 3.105-2.445 7.846.661 10.586 17.811 15.72 40.712 24.377 64.484 24.377l99.438-.001c16.262 0 29.953-12.971 30.52-28.913.228-6.426-1.549-12.577-5.055-17.782 11.677-4.107 20.074-15.241 20.074-28.305 0-6.173-1.876-11.916-5.085-16.691 11.683-4.104 20.085-15.241 20.085-28.309 0-8.954-3.948-16.999-10.189-22.5 6.242-5.501 10.19-13.546 10.19-22.5zm-37.495-74.993h-127.501l.001-15h127.5zm-187.495-107.006v-127.5h29.993l.004 127.5zm-15-127.5v127.5h-15v-127.5zm-107.003 187.494h-127.501l.001-29.993h127.502zm-127.502 15h127.501l-.001 15h-127.5zm187.495 107.004v127.502h-29.993v-127.504zm15 127.502v-127.501l15 .001v127.5zm42.645-164.674-23.162 22.174c-6.089 0-20.491 0-34.823-.001-1.672-18.496-9.501-35.8-22.481-49.359l-22.174-23.162c0-6.089.001-20.491.001-34.823 18.496-1.672 35.8-9.501 49.359-22.481l23.162-22.174h34.823c1.672 18.496 9.501 35.801 22.481 49.36l22.174 23.162c0 6.089-.001 20.491-.001 34.823-18.496 1.672-35.801 9.502-49.359 22.481zm64.358-22.82h127.501l-.001 29.993h-127.501z"/></g></svg>