<svg id="Capa_1" enable-background="new 0 0 512 512" height="512" viewBox="0 0 512 512" width="512" xmlns="http://www.w3.org/2000/svg"><g><path d="m256 105c28.948 0 52.5-23.552 52.5-52.5s-23.552-52.5-52.5-52.5-52.5 23.552-52.5 52.5 23.552 52.5 52.5 52.5zm0-90c20.678 0 37.5 16.822 37.5 37.5s-16.822 37.5-37.5 37.5-37.5-16.822-37.5-37.5 16.822-37.5 37.5-37.5z"/><path d="m256 212c36.148 0 69.471-18.202 89.136-48.689.781-1.212 1.197-2.623 1.197-4.065v-1.746c0-20.678-16.822-37.5-37.5-37.5h-105.666c-20.678 0-37.5 16.822-37.5 37.5v1.745c0 1.442.416 2.854 1.197 4.065 19.665 30.488 52.988 48.69 89.136 48.69zm-52.833-77h105.666c12.238 0 22.226 9.822 22.494 21.998-17.025 25.09-45.022 40.002-75.327 40.002s-58.302-14.912-75.327-40.002c.268-12.176 10.256-21.998 22.494-21.998z"/><path d="m263.171 234.5c0-4.143-3.357-7.5-7.5-7.5s-7.5 3.357-7.5 7.5v43c0 4.143 3.357 7.5 7.5 7.5s7.5-3.357 7.5-7.5v-14h150.667v14c0 4.143 3.357 7.5 7.5 7.5s7.5-3.357 7.5-7.5v-21.5c0-4.143-3.357-7.5-7.5-7.5h-158.167z"/><path d="m90.662 285c4.143 0 7.5-3.357 7.5-7.5v-14h127.509c4.143 0 7.5-3.357 7.5-7.5s-3.357-7.5-7.5-7.5h-135.009c-4.143 0-7.5 3.357-7.5 7.5v21.5c0 4.143 3.358 7.5 7.5 7.5z"/><path d="m203.5 352.5c0 28.948 23.552 52.5 52.5 52.5s52.5-23.552 52.5-52.5-23.552-52.5-52.5-52.5-52.5 23.552-52.5 52.5zm90 0c0 20.678-16.822 37.5-37.5 37.5s-37.5-16.822-37.5-37.5 16.822-37.5 37.5-37.5 37.5 16.822 37.5 37.5z"/><path d="m90.333 405c28.948 0 52.5-23.552 52.5-52.5s-23.552-52.5-52.5-52.5-52.5 23.552-52.5 52.5 23.552 52.5 52.5 52.5zm0-90c20.678 0 37.5 16.822 37.5 37.5s-16.822 37.5-37.5 37.5-37.5-16.822-37.5-37.5 16.822-37.5 37.5-37.5z"/><path d="m369.167 352.5c0 28.948 23.552 52.5 52.5 52.5s52.5-23.552 52.5-52.5-23.552-52.5-52.5-52.5-52.5 23.552-52.5 52.5zm90 0c0 20.678-16.822 37.5-37.5 37.5s-37.5-16.822-37.5-37.5 16.822-37.5 37.5-37.5 37.5 16.822 37.5 37.5z"/><path d="m474.5 420h-105.666c-12.254 0-23.153 5.909-30 15.027-6.847-9.117-17.746-15.027-30-15.027h-105.667c-12.254 0-23.153 5.909-30 15.027-6.847-9.117-17.746-15.027-30-15.027h-105.667c-20.678 0-37.5 16.822-37.5 37.5v1.745c0 1.442.416 2.854 1.197 4.065 19.665 30.488 52.988 48.69 89.136 48.69 32.535 0 62.774-14.751 82.833-39.926 20.06 25.175 50.299 39.926 82.834 39.926s62.774-14.751 82.833-39.926c20.06 25.175 50.299 39.926 82.834 39.926 36.148 0 69.471-18.202 89.136-48.689.781-1.212 1.197-2.623 1.197-4.065v-1.746c0-20.678-16.822-37.5-37.5-37.5zm-384.167 77c-30.305 0-58.302-14.912-75.327-40.002.268-12.176 10.256-21.998 22.494-21.998h105.666c12.238 0 22.226 9.822 22.494 21.998-17.025 25.09-45.022 40.002-75.327 40.002zm165.667 0c-30.305 0-58.302-14.912-75.327-40.002.268-12.176 10.256-21.998 22.494-21.998h105.666c12.238 0 22.226 9.822 22.494 21.998-17.025 25.09-45.022 40.002-75.327 40.002zm165.667 0c-30.305 0-58.302-14.912-75.327-40.002.268-12.176 10.256-21.998 22.494-21.998h105.666c12.238 0 22.226 9.822 22.494 21.998-17.025 25.09-45.022 40.002-75.327 40.002z"/></g></svg>