<svg id="Capa_1" enable-background="new 0 0 512 512" height="512" viewBox="0 0 512 512" width="512" xmlns="http://www.w3.org/2000/svg"><g><path d="m166 315h180c4.142 0 7.5-3.357 7.5-7.5v-180c0-4.143-3.358-7.5-7.5-7.5h-60c-4.142 0-7.5 3.357-7.5 7.5v52.5h-52.5c-4.142 0-7.5 3.357-7.5 7.5v112.5h-45v-45h22.5c4.142 0 7.5-3.357 7.5-7.5s-3.358-7.5-7.5-7.5h-30c-4.142 0-7.5 3.357-7.5 7.5v60c0 4.143 3.358 7.5 7.5 7.5zm127.5-180h45v165h-45zm-60 60h45v105h-45z"/><path d="m346 330h-180c-4.142 0-7.5 3.357-7.5 7.5s3.358 7.5 7.5 7.5h180c4.142 0 7.5-3.357 7.5-7.5s-3.358-7.5-7.5-7.5z"/><path d="m504.5 75c4.142 0 7.5-3.357 7.5-7.5v-60c0-4.143-3.358-7.5-7.5-7.5h-497c-4.142 0-7.5 3.357-7.5 7.5v60c0 4.143 3.358 7.5 7.5 7.5h22.5v315h-7.5c-12.407 0-22.5 10.094-22.5 22.5s10.093 22.5 22.5 22.5h226v33.29c-8.729 3.096-15 11.433-15 21.21 0 12.406 10.093 22.5 22.5 22.5s22.5-10.094 22.5-22.5c0-9.777-6.271-18.114-15-21.21v-33.29h226c12.407 0 22.5-10.094 22.5-22.5s-10.093-22.5-22.5-22.5h-7.5v-315zm-248.5 422c-4.136 0-7.5-3.364-7.5-7.5s3.364-7.5 7.5-7.5 7.5 3.364 7.5 7.5-3.364 7.5-7.5 7.5zm-241-482h482v45h-482zm482 397.5c0 4.136-3.364 7.5-7.5 7.5h-467c-4.136 0-7.5-3.364-7.5-7.5s3.364-7.5 7.5-7.5h467c4.136 0 7.5 3.364 7.5 7.5zm-30-22.5h-422v-315h422z"/></g></svg>