<svg id="Capa_1" enable-background="new 0 0 512 512" height="512" viewBox="0 0 512 512" width="512" xmlns="http://www.w3.org/2000/svg"><g><path d="m504.5 203.5h-22.5v-37.5c0-20.678-16.822-37.5-37.5-37.5h-7.5v-22.5c0-20.678-16.822-37.5-37.5-37.5h-45c-4.143 0-7.5 3.357-7.5 7.5v98.255c-14.672 2.99-26.255 14.573-29.245 29.245h-123.51c-2.99-14.672-14.573-26.255-29.245-29.245v-98.255c0-4.143-3.357-7.5-7.5-7.5h-45c-20.678 0-37.5 16.822-37.5 37.5v22.5h-7.5c-20.678 0-37.5 16.822-37.5 37.5v37.5h-22.5c-4.143 0-7.5 3.357-7.5 7.5v90c0 4.143 3.357 7.5 7.5 7.5h22.5v37.5c0 20.678 16.822 37.5 37.5 37.5h7.5v22.5c0 20.678 16.822 37.5 37.5 37.5h45c4.143 0 7.5-3.357 7.5-7.5v-98.255c14.672-2.99 26.255-14.573 29.245-29.245h123.509c2.99 14.672 14.573 26.255 29.245 29.245v98.255c0 4.143 3.357 7.5 7.5 7.5h45c20.678 0 37.5-16.822 37.5-37.5v-22.5h7.5c20.678 0 37.5-16.822 37.5-37.5v-37.5h22.5c4.143 0 7.5-3.357 7.5-7.5v-90c.001-4.143-3.356-7.5-7.499-7.5zm-309.5 15h122v75h-122zm-180 75v-75h15v75zm135 135h-37.5c-12.406 0-22.5-10.094-22.5-22.5v-135c0-4.143-3.357-7.5-7.5-7.5s-7.5 3.357-7.5 7.5v97.5h-7.5c-12.406 0-22.5-10.094-22.5-22.5v-180c0-12.406 10.094-22.5 22.5-22.5h7.5v97.5c0 4.143 3.357 7.5 7.5 7.5s7.5-3.357 7.5-7.5v-135c0-12.406 10.094-22.5 22.5-22.5h37.5zm15-106.29v-132.42c8.729 3.096 15 11.433 15 21.21v90c0 9.777-6.271 18.114-15 21.21zm167-21.21v-90c0-9.777 6.271-18.114 15-21.21v132.42c-8.729-3.096-15-11.433-15-21.21zm90 105c0 12.406-10.094 22.5-22.5 22.5h-37.5v-345h37.5c12.406 0 22.5 10.094 22.5 22.5zm45-60c0 12.406-10.094 22.5-22.5 22.5h-7.5v-225h7.5c12.406 0 22.5 10.094 22.5 22.5zm30-52.5h-15v-75h15z"/></g></svg>