<svg id="Capa_1" enable-background="new 0 0 512 512" height="512" viewBox="0 0 512 512" width="512" xmlns="http://www.w3.org/2000/svg"><g><path d="m489.5 233.5h-38.799c-4.273-37.213-19.002-71.288-41.177-99.203l27.495-27.496c4.25-4.25 6.59-9.9 6.59-15.91s-2.341-11.66-6.59-15.909c-4.25-4.25-9.9-6.591-15.91-6.591s-11.66 2.341-15.91 6.59l-27.497 27.496c-27.915-22.176-61.99-36.905-99.203-41.177v-38.8c.001-12.406-10.092-22.5-22.499-22.5s-22.5 10.094-22.5 22.5v38.799c-37.213 4.273-71.288 19.002-99.203 41.177l-27.496-27.495c-4.25-4.25-9.9-6.591-15.91-6.591s-11.661 2.341-15.91 6.59c-4.25 4.25-6.59 9.9-6.59 15.91s2.341 11.66 6.59 15.91l27.495 27.496c-22.175 27.915-36.904 61.99-41.177 99.203h-38.799c-12.407.001-22.5 10.095-22.5 22.501s10.093 22.5 22.5 22.5h38.799c4.273 37.213 19.002 71.288 41.177 99.203l-27.495 27.496c-4.25 4.25-6.59 9.9-6.59 15.91s2.341 11.66 6.59 15.909c4.25 4.25 9.9 6.591 15.91 6.591s11.66-2.341 15.91-6.59l27.497-27.496c27.915 22.176 61.99 36.905 99.203 41.177v38.8c0 12.406 10.093 22.5 22.5 22.5s22.5-10.094 22.5-22.5v-38.799c37.213-4.273 71.288-19.002 99.203-41.177l27.496 27.495c4.25 4.25 9.9 6.591 15.91 6.591s11.661-2.341 15.91-6.59c4.25-4.25 6.59-9.9 6.59-15.91s-2.341-11.66-6.59-15.91l-27.495-27.496c22.175-27.915 36.904-61.99 41.177-99.203h38.798c12.407 0 22.5-10.094 22.5-22.5s-10.093-22.501-22.5-22.501zm-73.693-147.913c1.417-1.416 3.3-2.196 5.303-2.196s3.886.78 5.303 2.197c1.417 1.416 2.197 3.3 2.197 5.303s-.78 3.887-2.197 5.303l-26.691 26.692c-3.4-3.668-6.938-7.207-10.607-10.607zm-167.307-63.087c0-4.136 3.364-7.5 7.5-7.5s7.5 3.364 7.5 7.5v37.657c-2.49-.094-4.987-.157-7.5-.157s-5.01.063-7.5.157zm-162.913 73.693c-1.417-1.416-2.197-3.3-2.197-5.303s.78-3.887 2.197-5.304c1.417-1.416 3.299-2.196 5.303-2.196 2.003 0 3.886.78 5.303 2.197l26.691 26.691c-3.669 3.4-7.207 6.938-10.607 10.607zm-63.087 167.307c-4.136 0-7.5-3.364-7.5-7.5s3.364-7.5 7.5-7.5h37.658c-.095 2.49-.158 4.988-.158 7.5s.063 5.01.158 7.5zm73.693 162.913c-1.417 1.416-3.3 2.196-5.303 2.196s-3.886-.78-5.303-2.197c-1.417-1.416-2.197-3.3-2.197-5.303s.78-3.887 2.197-5.303l26.691-26.692c3.4 3.668 6.938 7.207 10.607 10.607zm167.307 63.087c0 4.136-3.364 7.5-7.5 7.5s-7.5-3.364-7.5-7.5v-37.657c2.49.094 4.987.157 7.5.157s5.01-.063 7.5-.157zm162.913-73.693c1.417 1.416 2.197 3.3 2.197 5.303s-.78 3.887-2.197 5.304c-1.417 1.416-3.299 2.196-5.303 2.196-2.003 0-3.886-.78-5.303-2.197l-26.691-26.691c3.669-3.4 7.207-6.938 10.607-10.607zm-170.413 21.193c-99.804 0-181-81.196-181-181s81.196-181 181-181 181 81.196 181 181-81.196 181-181 181zm233.5-173.5h-37.658c.094-2.49.158-4.988.158-7.5s-.063-5.01-.158-7.5h37.658c4.136 0 7.5 3.364 7.5 7.5s-3.364 7.5-7.5 7.5z"/><circle cx="256" cy="414.5" r="7.5"/><circle cx="143.924" cy="368.076" r="7.5"/><circle cx="97.5" cy="256" r="7.5"/><circle cx="143.924" cy="143.923" r="7.5"/><circle cx="256" cy="97.5" r="7.5"/><circle cx="368.076" cy="143.923" r="7.5"/><circle cx="414.5" cy="256" r="7.5"/><circle cx="368.076" cy="368.076" r="7.5"/><path d="m256 120c-74.991 0-136 61.01-136 136s61.009 136 136 136 136-61.01 136-136-61.009-136-136-136zm121 136c0 2.519-.087 5.018-.239 7.5h-53.687c.274-2.464.427-4.964.427-7.5s-.153-5.036-.427-7.5h53.687c.152 2.482.239 4.981.239 7.5zm-91.916 60.904 39.042 39.042c-13.505 9.235-28.968 15.802-45.626 18.948v-55.264c2.25-.798 4.45-1.703 6.584-2.726zm-29.084-8.404c-28.949 0-52.5-23.552-52.5-52.5s23.551-52.5 52.5-52.5 52.5 23.552 52.5 52.5-23.551 52.5-52.5 52.5zm-22.5 11.13v55.264c-16.659-3.146-32.121-9.713-45.626-18.948l39.042-39.042c2.134 1.023 4.334 1.928 6.584 2.726zm-98.5-63.63c0-2.519.087-5.018.239-7.5h53.687c-.274 2.464-.427 4.964-.427 7.5s.153 5.036.427 7.5h-53.687c-.152-2.482-.239-4.981-.239-7.5zm57.37-22.5h-55.264c3.146-16.658 9.713-32.121 18.948-45.626l39.042 39.042c-1.023 2.135-1.928 4.334-2.726 6.584zm0 45c.798 2.25 1.703 4.449 2.726 6.583l-39.042 39.042c-9.234-13.505-15.802-28.967-18.948-45.626h55.264zm34.546-83.404-39.042-39.042c13.505-9.234 28.967-15.802 45.626-18.948v55.264c-2.25.798-4.45 1.703-6.584 2.726zm51.584-2.726v-55.264c16.659 3.146 32.121 9.713 45.626 18.948l-39.042 39.042c-2.134-1.023-4.334-1.928-6.584-2.726zm41.13 86.13h55.264c-3.146 16.658-9.713 32.121-18.948 45.626l-39.042-39.042c1.023-2.135 1.928-4.334 2.726-6.584zm0-45c-.798-2.25-1.703-4.449-2.726-6.583l39.042-39.042c9.234 13.505 15.802 28.967 18.948 45.626h-55.264zm27.024-57.548-37.948 37.948c-3.134-3.915-6.691-7.473-10.606-10.606l37.948-37.948c3.749 3.314 7.292 6.857 10.606 10.606zm-83.154-40.713v53.688c-2.464-.274-4.964-.427-7.5-.427s-5.036.153-7.5.427v-53.688c2.482-.152 4.981-.239 7.5-.239s5.018.087 7.5.239zm-87.548 30.107 37.948 37.948c-3.915 3.134-7.473 6.691-10.606 10.606l-37.948-37.948c3.314-3.749 6.857-7.292 10.606-10.606zm-10.606 170.702 37.948-37.948c3.134 3.915 6.691 7.472 10.606 10.606l-37.949 37.948c-3.748-3.315-7.291-6.857-10.605-10.606zm83.154 40.713v-53.688c2.464.274 4.964.427 7.5.427s5.036-.153 7.5-.427v53.688c-2.482.152-4.981.239-7.5.239s-5.018-.087-7.5-.239zm87.548-30.107-37.948-37.948c3.915-3.134 7.473-6.691 10.606-10.606l37.948 37.948c-3.314 3.749-6.857 7.291-10.606 10.606z"/><path d="m256 218.5c-3.273 0-6.537.429-9.703 1.274-4.001 1.069-6.378 5.181-5.309 9.183 1.069 4.003 5.184 6.379 9.182 5.31 1.902-.509 3.864-.767 5.83-.767 12.407 0 22.5 10.094 22.5 22.5s-10.093 22.5-22.5 22.5-22.5-10.094-22.5-22.5c0-1.967.258-3.928.767-5.829 1.07-4.001-1.306-8.112-5.308-9.183-3.998-1.069-8.112 1.306-9.183 5.308-.846 3.165-1.275 6.43-1.275 9.704 0 20.678 16.822 37.5 37.5 37.5s37.5-16.822 37.5-37.5-16.823-37.5-37.501-37.5z"/></g></svg>