<svg id="Capa_1" enable-background="new 0 0 512 512" height="512" viewBox="0 0 512 512" width="512" xmlns="http://www.w3.org/2000/svg"><g><path d="m467 365.87v-11.37c0-2.24 0-2.916 7.315-9.316 8.485-7.422 22.685-19.846 22.685-43.184s-14.2-35.762-22.685-43.184c-7.315-6.4-7.315-7.076-7.315-9.316 0-2.239 0-2.915 7.318-9.318 8.483-7.424 22.682-19.849 22.682-43.182 0-23.336-14.2-35.76-22.683-43.183-7.317-6.402-7.317-7.078-7.317-9.317 0-2.24 0-2.916 7.315-9.316 8.485-7.422 22.685-19.846 22.685-43.184s-14.2-35.762-22.685-43.184c-7.315-6.4-7.315-7.076-7.315-9.316v-2c0-12.406-10.093-22.5-22.5-22.5s-22.5 10.094-22.5 22.5v2c0 23.338 14.2 35.762 22.685 43.184 7.315 6.4 7.315 7.076 7.315 9.316s0 2.916-7.315 9.316c-8.485 7.422-22.685 19.846-22.685 43.184 0 23.336 14.2 35.76 22.683 43.183 7.317 6.402 7.317 7.078 7.317 9.317s0 2.915-7.318 9.318c-8.483 7.424-22.682 19.849-22.682 43.182 0 23.338 14.2 35.762 22.685 43.184 7.315 6.4 7.315 7.076 7.315 9.316s0 2.916-7.315 9.316c-8.485 7.422-22.685 19.846-22.685 43.184v7.5h-212.753l128.072-128.072c24.491-24.49 34.155-60.566 25.222-94.148-.691-2.6-2.721-4.629-5.32-5.32-33.583-8.932-69.658.732-94.148 25.222-2.929 2.93-2.929 7.678 0 10.607 2.928 2.928 7.677 2.928 10.606 0 19.681-19.682 48.214-28.041 75.386-22.354 5.689 27.176-2.673 55.707-22.353 75.387l-138.679 138.678h-106.066l170.499-170.499c2.929-2.93 2.929-7.678 0-10.607-2.929-2.928-7.678-2.928-10.606 0l-121.86 121.859v-202.335c0-34.635-18.675-66.978-48.738-84.406-2.32-1.347-5.182-1.348-7.506-.011-2.324 1.339-3.756 3.817-3.756 6.499 0 29.304-15.811 56.674-41.262 71.43-2.314 1.341-3.738 3.813-3.738 6.488v286.721c-9.371 11.592-15 26.329-15 42.361 0 37.22 30.28 67.5 67.5 67.5h377c37.22 0 67.5-30.28 67.5-67.5 0-29.332-18.812-54.342-45-63.63zm-30-11.37c0-16.531 9.737-25.05 17.562-31.895 7.711-6.747 12.438-11.352 12.438-20.605s-4.727-13.858-12.438-20.605c-7.825-6.845-17.562-15.364-17.562-31.895 0-16.526 9.736-25.047 17.561-31.894 7.712-6.749 12.439-11.354 12.439-20.606s-4.727-13.857-12.439-20.606c-7.824-6.846-17.561-15.365-17.561-31.894 0-16.531 9.737-25.05 17.562-31.895 7.711-6.747 12.438-11.352 12.438-20.605s-4.727-13.858-12.438-20.605c-7.825-6.845-17.562-15.364-17.562-31.895v-2c0-4.136 3.364-7.5 7.5-7.5s7.5 3.364 7.5 7.5v2c0 9.253 4.727 13.858 12.438 20.605 7.825 6.845 17.562 15.364 17.562 31.895s-9.737 25.05-17.562 31.895c-7.711 6.747-12.438 11.352-12.438 20.605 0 9.252 4.727 13.857 12.439 20.606 7.824 6.846 17.561 15.365 17.561 31.894 0 16.526-9.736 25.047-17.561 31.894-7.712 6.749-12.439 11.354-12.439 20.606 0 9.253 4.727 13.858 12.438 20.605 7.825 6.845 17.562 15.364 17.562 31.895s-9.737 25.05-17.562 31.895c-7.711 6.747-12.438 11.352-12.438 20.605v7.927c-2.464-.274-4.964-.427-7.5-.427h-7.5zm-362.958-318.443c19.343 15.549 30.958 39.246 30.958 64.361v217.335l-44.625 44.625c-11.154 1.177-21.505 5.079-30.375 11.028v-268.781c24.029-15.415 40.078-40.642 44.042-68.568zm370.458 445.943h-377c-28.949 0-52.5-23.552-52.5-52.5s23.551-52.5 52.5-52.5h377c28.949 0 52.5 23.552 52.5 52.5s-23.551 52.5-52.5 52.5z"/><path d="m444.5 407c-12.407 0-22.5 10.094-22.5 22.5s10.093 22.5 22.5 22.5 22.5-10.094 22.5-22.5-10.093-22.5-22.5-22.5zm0 30c-4.136 0-7.5-3.364-7.5-7.5s3.364-7.5 7.5-7.5 7.5 3.364 7.5 7.5-3.364 7.5-7.5 7.5z"/><path d="m67.5 407c-12.407 0-22.5 10.094-22.5 22.5s10.093 22.5 22.5 22.5 22.5-10.094 22.5-22.5-10.093-22.5-22.5-22.5zm0 30c-4.136 0-7.5-3.364-7.5-7.5s3.364-7.5 7.5-7.5 7.5 3.364 7.5 7.5-3.364 7.5-7.5 7.5z"/></g></svg>