<svg id="Capa_1" enable-background="new 0 0 512 512" height="512" viewBox="0 0 512 512" width="512" xmlns="http://www.w3.org/2000/svg"><g><path d="m378.196 198.196-24.696 24.698-9.696-9.697c-2.93-2.928-7.678-2.928-10.607 0-2.929 2.93-2.929 7.678 0 10.607l15 15c1.465 1.464 3.385 2.196 5.304 2.196s3.839-.732 5.304-2.196l30-30c2.929-2.93 2.929-7.678 0-10.607-2.931-2.928-7.679-2.928-10.609-.001z"/><path d="m378.196 138.196-24.696 24.698-9.696-9.697c-2.93-2.928-7.678-2.928-10.607 0-2.929 2.93-2.929 7.678 0 10.607l15 15c1.465 1.464 3.385 2.196 5.304 2.196s3.839-.732 5.304-2.196l30-30c2.929-2.93 2.929-7.678 0-10.607-2.931-2.928-7.679-2.928-10.609-.001z"/><path d="m308.5 211h-120c-4.143 0-7.5 3.357-7.5 7.5s3.357 7.5 7.5 7.5h120c4.143 0 7.5-3.357 7.5-7.5s-3.357-7.5-7.5-7.5z"/><path d="m378.196 258.196-24.696 24.698-9.696-9.697c-2.93-2.928-7.678-2.928-10.607 0-2.929 2.93-2.929 7.678 0 10.607l15 15c1.465 1.464 3.385 2.196 5.304 2.196s3.839-.732 5.304-2.196l30-30c2.929-2.93 2.929-7.678 0-10.607-2.931-2.928-7.679-2.928-10.609-.001z"/><path d="m308.5 151h-120c-4.143 0-7.5 3.357-7.5 7.5s3.357 7.5 7.5 7.5h120c4.143 0 7.5-3.357 7.5-7.5s-3.357-7.5-7.5-7.5z"/><path d="m308.5 271h-120c-4.143 0-7.5 3.357-7.5 7.5s3.357 7.5 7.5 7.5h120c4.143 0 7.5-3.357 7.5-7.5s-3.357-7.5-7.5-7.5z"/><path d="m308.5 331h-120c-4.143 0-7.5 3.357-7.5 7.5s3.357 7.5 7.5 7.5h120c4.143 0 7.5-3.357 7.5-7.5s-3.357-7.5-7.5-7.5z"/><path d="m488.5 0h-405c-4.143 0-7.5 3.357-7.5 7.5v384.5h-52.5c-4.143 0-7.5 3.357-7.5 7.5 0 28.948 23.552 52.5 52.5 52.5h345c28.948 0 52.5-23.552 52.5-52.5v-362c0-4.143-3.357-7.5-7.5-7.5h-60v-15h82.5v482h-390v-22.5c0-4.143-3.357-7.5-7.5-7.5s-7.5 3.357-7.5 7.5v30c0 4.143 3.357 7.5 7.5 7.5h405c4.143 0 7.5-3.357 7.5-7.5v-497c0-4.143-3.357-7.5-7.5-7.5zm-270 45h135v15h-135zm135-15h-135v-15h135zm-262.5-15h82.5v15h-60c-4.143 0-7.5 3.357-7.5 7.5v354.5h-15zm-22.5 422c-18.109 0-33.262-12.904-36.747-30h329.781c1.677 11.673 7.208 22.118 15.259 30zm382.5-392v354.5c0 20.678-16.822 37.5-37.5 37.5s-37.5-16.822-37.5-37.5c0-4.143-3.357-7.5-7.5-7.5h-247.5v-347h52.5v22.5c0 20.678 16.822 37.5 37.5 37.5h150c20.678 0 37.5-16.822 37.5-37.5v-22.5zm-67.5 22.5c0 12.406-10.094 22.5-22.5 22.5h-150c-12.406 0-22.5-10.094-22.5-22.5v-52.5h15v52.5c0 4.143 3.357 7.5 7.5 7.5h150c4.143 0 7.5-3.357 7.5-7.5v-52.5h15z"/></g></svg>