<svg id="Capa_1" enable-background="new 0 0 512 512" height="512" viewBox="0 0 512 512" width="512" xmlns="http://www.w3.org/2000/svg"><g><path d="m507.314 326.06c-17.447-7.063-31.485-20.707-39.089-37.818 28.265-31.747 43.775-72.42 43.775-115.075 0-95.484-77.682-173.167-173.167-173.167-93.027 0-169.143 73.738-173 165.833-92.095 3.857-165.833 79.973-165.833 173 0 42.655 15.51 83.329 43.775 115.075-7.605 17.112-21.643 30.756-39.09 37.818-2.831 1.147-4.685 3.897-4.685 6.953s1.854 5.806 4.686 6.952c10.439 4.226 21.48 6.369 32.814 6.369 20.295 0 39.745-6.969 55.345-19.729 24.662 12.921 52.317 19.729 80.322 19.729 93.034 0 169.156-73.75 173.002-165.856 25.47-1.075 50.525-7.777 72.986-19.542 15.6 12.762 35.049 19.73 55.346 19.73 11.335 0 22.375-2.143 32.814-6.369 2.832-1.146 4.686-3.896 4.686-6.952s-1.855-5.805-4.687-6.951zm-334.147 170.94c-27.212 0-54.055-7.033-77.626-20.338-1.153-.651-2.422-.969-3.685-.969-1.847 0-3.678.682-5.099 1.998-13.44 12.452-30.933 19.309-49.257 19.309-3.374 0-6.716-.229-10.014-.684 14.516-10.125 25.801-24.531 32.053-41.363.992-2.672.384-5.676-1.569-7.751-27.71-29.444-42.97-67.931-42.97-108.369 0-87.213 70.953-158.166 158.167-158.166 87.211 0 158.163 70.949 158.167 158.158-.005 87.226-70.957 158.175-158.167 158.175zm301.333-165.667c-18.325 0-35.818-6.857-49.256-19.309-2.393-2.216-5.944-2.631-8.784-1.029-21.397 12.079-45.627 19.001-70.306 20.138-3.931-89.379-75.929-161.368-165.311-165.287 3.838-83.828 73.231-150.846 157.99-150.846 87.214 0 158.167 70.953 158.167 158.167 0 40.438-15.26 78.924-42.97 108.368-1.953 2.075-2.561 5.079-1.569 7.751 6.251 16.832 17.537 31.238 32.052 41.363-3.297.455-6.639.684-10.013.684z"/><path d="m294.448 316.67-20.181-6.262c-2.246-8.005-5.434-15.696-9.519-22.958l9.848-18.703c1.372-2.605 1.092-5.772-.715-8.097-6.54-8.413-14.12-15.993-22.532-22.532-2.324-1.806-5.492-2.084-8.097-.715l-18.703 9.849c-7.262-4.085-14.953-7.273-22.959-9.52l-6.261-20.18c-.873-2.812-3.309-4.853-6.23-5.219-10.571-1.326-21.292-1.326-31.865 0-2.921.366-5.358 2.407-6.23 5.219l-6.261 20.18c-8.005 2.246-15.697 5.436-22.958 9.519l-18.703-9.848c-2.607-1.373-5.773-1.094-8.098.715-8.414 6.54-15.994 14.121-22.532 22.532-1.807 2.324-2.087 5.491-.715 8.097l9.848 18.703c-4.084 7.262-7.273 14.953-9.519 22.958l-20.181 6.262c-2.812.872-4.853 3.31-5.219 6.23-1.324 10.572-1.324 21.293 0 31.865.366 2.921 2.407 5.358 5.219 6.23l20.181 6.262c2.245 8.005 5.434 15.696 9.519 22.959l-9.848 18.703c-1.372 2.605-1.092 5.772.715 8.097 6.538 8.412 14.119 15.992 22.532 22.532 2.325 1.807 5.492 2.086 8.098.714l18.703-9.848c7.261 4.083 14.954 7.272 22.958 9.519l6.262 20.181c.873 2.812 3.31 4.854 6.231 5.219 5.286.662 10.609.993 15.932.993s10.646-.331 15.932-.993c2.921-.365 5.358-2.407 6.231-5.219l6.261-20.181c8.005-2.246 15.698-5.436 22.959-9.519l18.703 9.848c2.605 1.371 5.772 1.092 8.097-.714 8.412-6.539 15.993-14.119 22.532-22.532 1.807-2.324 2.087-5.491.715-8.097l-9.848-18.704c4.084-7.262 7.273-14.955 9.519-22.958l20.181-6.262c2.812-.872 4.853-3.31 5.219-6.23 1.324-10.572 1.324-21.293 0-31.865-.368-2.921-2.409-5.358-5.221-6.23zm-9.17 31.466-19.448 6.034c-2.535.787-4.466 2.855-5.077 5.438-2.209 9.353-5.9 18.255-10.97 26.46-1.396 2.259-1.493 5.087-.256 7.437l9.491 18.025c-4.016 4.737-8.418 9.14-13.155 13.155l-18.025-9.491c-2.351-1.238-5.18-1.141-7.438.256-8.203 5.069-17.104 8.76-26.459 10.97-2.584.61-4.652 2.541-5.439 5.076l-6.034 19.448c-6.188.511-12.416.511-18.605 0l-6.034-19.448c-.787-2.535-2.855-4.466-5.439-5.076-9.354-2.21-18.256-5.9-26.458-10.97-2.259-1.396-5.086-1.492-7.438-.256l-18.025 9.491c-4.737-4.016-9.14-8.418-13.155-13.155l9.491-18.025c1.237-2.35 1.14-5.178-.256-7.437-5.069-8.204-8.76-17.105-10.969-26.46-.61-2.583-2.542-4.651-5.077-5.438l-19.448-6.034c-.51-6.189-.51-12.416 0-18.605l19.448-6.034c2.535-.787 4.466-2.855 5.077-5.438 2.209-9.354 5.9-18.256 10.969-26.459 1.396-2.259 1.494-5.087.256-7.437l-9.491-18.025c4.015-4.736 8.418-9.14 13.156-13.156l18.024 9.491c2.35 1.236 5.179 1.14 7.438-.256 8.203-5.069 17.104-8.76 26.458-10.97 2.584-.61 4.652-2.541 5.439-5.076l6.034-19.447c6.188-.51 12.417-.51 18.605 0l6.034 19.447c.787 2.535 2.855 4.466 5.439 5.076 9.354 2.21 18.256 5.9 26.459 10.97 2.259 1.396 5.088 1.492 7.437.257l18.025-9.491c4.737 4.016 9.139 8.418 13.155 13.155l-9.491 18.025c-1.237 2.35-1.14 5.178.256 7.437 5.069 8.203 8.76 17.105 10.97 26.459.61 2.583 2.541 4.651 5.076 5.438l19.448 6.034c.512 6.189.512 12.415.002 18.605z"/><path d="m203.167 338.833c0-16.542-13.458-30-30-30s-30 13.458-30 30 13.458 30 30 30 30-13.458 30-30zm-45 0c0-8.271 6.729-15 15-15s15 6.729 15 15-6.729 15-15 15-15-6.729-15-15z"/><path d="m173.167 263.833c-41.355 0-75 33.645-75 75 0 14.158 3.983 27.963 11.519 39.922 2.208 3.504 6.838 4.557 10.343 2.348 3.504-2.208 4.556-6.839 2.347-10.344-6.024-9.562-9.209-20.602-9.209-31.926 0-33.084 26.916-60 60-60s60 26.916 60 60c0 33.085-26.916 60.001-60 60.001-11.322 0-22.362-3.185-31.926-9.21-3.503-2.208-8.135-1.156-10.343 2.348-2.208 3.505-1.157 8.136 2.348 10.344 11.961 7.535 25.766 11.519 39.922 11.519 41.355 0 75-33.646 75-75.001s-33.647-75.001-75.001-75.001z"/></g></svg>