<svg id="Capa_1" enable-background="new 0 0 512.007 512.007" height="512" viewBox="0 0 512.007 512.007" width="512" xmlns="http://www.w3.org/2000/svg"><g><path d="m451.004 120.007h-82.5v-33.392c0-10.017-3.9-19.434-10.983-26.516l-11.837-11.837c1.421-2.985 2.195-6.267 2.195-9.68 0-6.021-2.333-11.672-6.572-15.91l-16.093-16.093c-8.772-8.771-23.047-8.771-31.819 0-8.772 8.773-8.772 23.048 0 31.821l16.092 16.092c4.238 4.237 9.888 6.571 15.91 6.571 3.413 0 6.695-.774 9.68-2.195l11.837 11.838c4.25 4.249 6.59 9.899 6.59 15.909v33.393h-195v-33.393c0-6.01 2.34-11.66 6.59-15.909l11.837-11.838c2.985 1.421 6.267 2.195 9.68 2.195 6.022 0 11.672-2.334 15.91-6.571l16.093-16.093c8.772-8.772 8.772-23.047 0-31.819-8.773-8.772-23.047-8.772-31.82-.001l-16.094 16.093c-4.238 4.237-6.571 9.888-6.571 15.909 0 3.413.774 6.696 2.195 9.68l-11.837 11.836c-7.083 7.083-10.983 16.5-10.983 26.517v33.393h-82.5c-4.142 0-7.5 3.357-7.5 7.5v30c0 4.143 3.358 7.5 7.5 7.5h22.5v52.5c0 4.143 3.358 7.5 7.5 7.5h52.5v189.5c0 4.143 3.358 7.5 7.5 7.5s7.5-3.357 7.5-7.5v-189.5h195v212h-202.5c-4.142 0-7.5 3.357-7.5 7.5v22.5h-22.5c-4.142 0-7.5 3.357-7.5 7.5v30c0 4.143 3.358 7.5 7.5 7.5h270c4.142 0 7.5-3.357 7.5-7.5v-30c0-4.143-3.358-7.5-7.5-7.5h-22.5v-242h52.5c4.142 0 7.5-3.357 7.5-7.5v-52.5h22.5c4.142 0 7.5-3.357 7.5-7.5v-30c0-4.142-3.358-7.5-7.5-7.5zm-130.91-76.123-16.092-16.091c-2.924-2.925-2.924-7.684 0-10.608 2.924-2.922 7.683-2.922 10.606 0l16.092 16.093c1.405 1.405 2.179 3.289 2.179 5.304 0 2.014-.772 3.896-2.176 5.301-1.409 1.408-3.292 2.181-5.305 2.181-2.016-.001-3.899-.774-5.304-2.18zm-138.787-10.606 16.092-16.092c1.462-1.462 3.383-2.193 5.304-2.193 1.92 0 3.841.731 5.303 2.192 2.924 2.925 2.924 7.684 0 10.607l-16.092 16.092c-1.405 1.405-3.289 2.179-5.304 2.179s-3.898-.773-5.303-2.179c-1.405-1.404-2.178-3.287-2.178-5.303 0-2.014.773-3.898 2.178-5.303zm202.197 463.729h-255v-15h255zm-225-30v-15h195v15zm255-257h-315v-45h315zm30-60h-375v-15h375z"/></g></svg>