<svg id="Capa_1" enable-background="new 0 0 512 512" height="512" viewBox="0 0 512 512" width="512" xmlns="http://www.w3.org/2000/svg"><g><path d="m512 170c0-51.556-41.944-93.5-93.5-93.5-2.818 0-5.663.132-8.51.393-15.182-45.591-58.17-76.893-106.74-76.893-42.721 0-81.284 23.951-100.361 61.66-11.482-5.261-24.18-8.16-37.389-8.16-38.365 0-72.405 24.45-84.932 60.21-1.863-.14-3.723-.21-5.568-.21-41.355 0-75 33.645-75 75s33.645 75 75 75h83.618c1.874 65.569 28.283 126.94 74.862 173.52 48.352 48.351 112.64 74.98 181.02 74.98 4.143 0 7.5-3.357 7.5-7.5v-180c0-4.143-3.357-7.5-7.5-7.5-31.095 0-56.812-23.392-60.522-53.5h64.522c51.556 0 93.5-41.944 93.5-93.5zm-208.75-155c44.002 0 82.717 29.64 94.146 72.077 1 3.714 4.643 6.069 8.442 5.453 4.219-.684 8.479-1.03 12.661-1.03 43.285 0 78.5 35.215 78.5 78.5s-35.215 78.5-78.5 78.5h-117.546c18.232-13.694 30.047-35.493 30.047-60 0-41.355-33.645-75-75-75-1.846 0-3.705.07-5.568.21-6.498-18.549-18.782-34.052-34.458-44.682 16.431-33.021 50.03-54.028 87.276-54.028zm103.75 391.813c-77.306-3.8-139.513-66.007-143.313-143.313h30.052c3.735 60.757 52.503 109.526 113.261 113.261zm-392-218.313c0-33.084 26.916-60 60-60 3.196 0 6.453.266 9.681.788 3.791.607 7.435-1.734 8.439-5.442 8.826-32.587 38.59-55.346 72.38-55.346s63.554 22.759 72.38 55.346c1.004 3.707 4.648 6.057 8.439 5.442 3.228-.522 6.484-.788 9.681-.788 33.084 0 60 26.916 60 60s-26.916 60-60 60h-181c-33.084 0-60-26.916-60-60zm158.629 75h30.018c1.704 47.917 19.676 93.931 51.066 130.299 1.483 1.719 3.576 2.6 5.681 2.6 1.736 0 3.48-.6 4.897-1.822 3.136-2.706 3.483-7.442.777-10.578-29.039-33.645-45.717-76.18-47.414-120.498h30.023c3.825 85.577 72.746 154.498 158.323 158.323v30.023c-44.318-1.696-86.853-18.374-120.497-47.413-3.135-2.704-7.87-2.359-10.578.777-2.706 3.136-2.358 7.872.777 10.578 36.368 31.389 82.382 49.361 130.298 51.065v30.031c-126.944-3.895-229.47-106.443-233.371-233.385zm233.371 68.133v30.098c-52.483-3.687-94.544-45.748-98.231-98.231h30.103c3.536 35.932 32.196 64.598 68.128 68.133z"/></g></svg>