<svg id="Capa_1" enable-background="new 0 0 512 512" height="512" viewBox="0 0 512 512" width="512" xmlns="http://www.w3.org/2000/svg"><g><path d="m512 233.5c0-26.401-19.593-48.304-45-51.956v-159.044c0-12.406-10.094-22.5-22.5-22.5s-22.5 10.094-22.5 22.5v14.59c-50.962 53.353-122.216 83.91-196 83.91h-143.5c-18.11 0-33.261 12.904-36.745 30h-8.255c-20.678 0-37.5 16.822-37.5 37.5v90c0 20.678 16.822 37.5 37.5 37.5h8.255c3.484 17.096 18.635 30 36.745 30h8.944l29.402 136.423c3.691 17.139 19.106 29.577 36.654 29.577h53.5c20.678 0 37.5-16.822 37.5-37.5 0-18.109-12.904-33.262-30-36.747v-16.508c17.096-3.484 30-18.635 30-36.745v-37.538c65.623 5.527 127.741 35.042 173.5 82.948v14.59c0 12.406 10.094 22.5 22.5 22.5s22.5-10.094 22.5-22.5v-159.044c25.407-3.652 45-25.555 45-51.956zm-467-7.5h-30v-15c0-1.867 7.979-7.5 22.5-7.5h7.5zm-30 15h30v22.5h-7.5c-14.521 0-22.5-5.633-22.5-7.5zm22.5-75h7.5v22.5h-7.5c-8.583 0-16.315 1.562-22.5 4.258v-4.258c0-12.406 10.094-22.5 22.5-22.5zm-22.5 112.5v-4.258c6.185 2.696 13.917 4.258 22.5 4.258h7.5v22.5h-7.5c-12.406 0-22.5-10.094-22.5-22.5zm218.5 196c0 12.406-10.094 22.5-22.5 22.5h-53.5c-10.528 0-19.777-7.459-21.99-17.736l-28.721-133.264h96.711v98.5c0 4.143 3.357 7.5 7.5 7.5 12.406 0 22.5 10.094 22.5 22.5zm0-90c0 9.777-6.271 18.114-15 21.21v-59.71h7.5c2.503 0 5.003.041 7.5.111zm108.349-29.053c-34.287-15.214-70.701-23.394-108.349-24.352v-142.595c0-4.143-3.357-7.5-7.5-7.5s-7.5 3.357-7.5 7.5v142.5h-136c-12.406 0-22.5-10.094-22.5-22.5v-150c0-12.406 10.094-22.5 22.5-22.5h136v22.5c0 4.143 3.357 7.5 7.5 7.5s7.5-3.357 7.5-7.5v-22.596c37.648-.958 74.062-9.138 108.349-24.352 29.707-13.181 56.588-31.088 80.151-53.315v350.526c-23.563-22.227-50.444-40.134-80.151-53.316zm110.151 89.053c0 4.136-3.364 7.5-7.5 7.5s-7.5-3.364-7.5-7.5v-422c0-4.136 3.364-7.5 7.5-7.5s7.5 3.364 7.5 7.5zm15-174.255v-73.491c17.096 3.484 30 18.635 30 36.745s-12.904 33.262-30 36.746z"/></g></svg>