<svg id="Capa_1" enable-background="new 0 0 512 512" height="512" viewBox="0 0 512 512" width="512" xmlns="http://www.w3.org/2000/svg"><g><path d="m437.02 74.98c-48.352-48.351-112.64-74.98-181.02-74.98s-132.668 26.629-181.02 74.98-74.98 112.64-74.98 181.02c0 63.857 23.51 124.705 66.308 171.892-11.553 27.598-33.793 49.658-61.622 60.924-2.832 1.147-4.686 3.897-4.686 6.953s1.854 5.806 4.686 6.952c15.21 6.157 31.297 9.279 47.814 9.279 30.402 0 59.507-10.735 82.55-30.338 37.01 19.862 78.709 30.338 120.95 30.338 68.38 0 132.668-26.629 181.02-74.98s74.98-112.64 74.98-181.02-26.629-132.668-74.98-181.02zm-181.02 422.02c-41.464 0-82.365-10.717-118.283-30.991-1.152-.651-2.423-.969-3.685-.969-1.847 0-3.678.682-5.099 1.998-20.855 19.321-47.999 29.962-76.433 29.962-8.497 0-16.862-.936-25.02-2.791 24.936-14.802 44.354-37.849 54.563-65.336.993-2.672.385-5.676-1.568-7.751-42.222-44.865-65.475-103.507-65.475-165.122 0-132.888 108.112-241 241-241s241 108.112 241 241-108.112 241-241 241z"/><path d="m308.5 339.5c0-16.372-7.108-27.882-13.071-34.654l-33.799-38.394c-1.424-1.617-3.475-2.544-5.63-2.544s-4.206.927-5.63 2.544l-33.806 38.401c-5.96 6.769-13.064 18.273-13.064 34.646 0 28.948 23.552 52.5 52.5 52.5s52.5-23.551 52.5-52.499zm-90 0c0-11.692 5.069-19.903 9.323-24.733l28.177-32.008 28.17 31.999c4.256 4.834 9.33 13.051 9.33 24.742 0 20.678-16.822 37.5-37.5 37.5s-37.5-16.822-37.5-37.5z"/><path d="m397.327 224.924-54.601-110.74c-1.583-3.215-5.221-4.852-8.681-3.925l-24.574 6.633-47.841-54.348c-1.424-1.617-3.475-2.544-5.63-2.544s-4.206.927-5.63 2.544l-47.842 54.348-24.574-6.633c-3.457-.934-7.097.711-8.681 3.925l-54.6 110.738c-10.732 21.751-16.173 45.16-16.173 69.578 0 86.846 70.654 157.5 157.5 157.5s157.5-70.654 157.5-157.5c0-24.418-5.441-47.827-16.173-69.576zm1.173 69.576c0 78.575-63.925 142.5-142.5 142.5s-142.5-63.925-142.5-142.5c0-22.096 4.921-43.272 14.626-62.943l51.874-105.209 23.122 6.241c2.756.741 5.696-.142 7.584-2.285l45.294-51.453 45.294 51.453c1.888 2.144 4.831 3.026 7.584 2.285l23.122-6.241 51.874 105.209c9.705 19.671 14.626 40.847 14.626 62.943z"/><path d="m318.729 182.271c-1.584-3.214-5.217-4.854-8.681-3.925l-15.864 4.282-32.554-36.98c-1.424-1.617-3.475-2.544-5.63-2.544s-4.206.927-5.63 2.544l-32.554 36.98-15.864-4.282c-3.458-.926-7.097.712-8.681 3.925l-38.242 77.563c-7.65 15.504-11.529 32.215-11.529 49.667 0 24.478 7.758 47.766 22.437 67.348 2.483 3.315 7.186 3.99 10.499 1.503 3.314-2.484 3.987-7.185 1.503-10.499-12.717-16.967-19.439-37.145-19.439-58.353 0-15.131 3.358-29.607 9.981-43.032l35.517-72.033 14.412 3.891c2.755.74 5.697-.142 7.584-2.285l30.006-34.087 30.006 34.086c1.888 2.144 4.829 3.025 7.584 2.285l14.412-3.891 35.512 72.024c6.626 13.43 9.986 27.91 9.986 43.041 0 53.762-43.738 97.5-97.5 97.5-21.208 0-41.386-6.722-58.352-19.438-3.313-2.486-8.017-1.812-10.499 1.503-2.484 3.314-1.812 8.015 1.503 10.499 19.582 14.678 42.87 22.437 67.348 22.437 62.032 0 112.5-50.468 112.5-112.5 0-17.453-3.881-34.167-11.534-49.676z"/></g></svg>